<svg width="974" height="556" viewBox="0 0 974 556" fill="none" xmlns="http://www.w3.org/2000/svg">
<path fill-rule="evenodd" clip-rule="evenodd" d="M127.76 251.378C135.705 252.443 140.927 257.492 140.927 265.979C140.927 270.28 139.585 273.698 137.228 276.162C141.585 278.494 144.218 282.867 144.218 289.021C144.218 298.574 137.873 303.833 128.583 303.833H127.76V310.416H121.177V303.833H114.593V310.416H108.01V303.833H101.427V297.25H108.01V257.75H101.427V251.166H108.01V244.583H114.593V251.166H121.177V244.583H127.76V251.378V251.378ZM124.468 257.75H114.593V274.208H124.468C130.907 274.208 134.343 271.538 134.343 265.979C134.343 260.42 130.907 257.75 124.468 257.75ZM114.593 280.791V297.25H128.583C134.482 297.25 137.635 294.636 137.635 289.021C137.635 283.405 134.482 280.791 128.583 280.791H114.593Z" fill="black"/>
<path fill-rule="evenodd" clip-rule="evenodd" d="M256.135 241.941L279.841 277.5L256.135 313.059L232.428 277.5L256.135 241.941ZM245.999 285.987L256.135 301.191L266.271 285.987L256.135 291.055L245.999 285.987ZM241.192 276.223L256.135 253.809L271.078 276.223L256.135 283.694L241.192 276.223Z" fill="black"/>
<path fill-rule="evenodd" clip-rule="evenodd" d="M414.733 244.583H360.869C357.564 244.583 354.885 247.53 354.885 251.166V303.833C354.885 307.469 357.564 310.416 360.869 310.416H364.76V313.708H371.343V310.416H404.26V313.708H410.843V310.416H414.733C418.038 310.416 420.718 307.469 420.718 303.833V251.166C420.718 247.53 418.038 244.583 414.733 244.583ZM361.468 303.833V251.166H414.135V257.75H410.843V264.333H414.135V290.667H410.843V297.25H414.135V303.833H361.468ZM406.587 291.631L401.932 296.286L394.49 288.844C392.53 290.002 390.243 290.667 387.801 290.667C385.36 290.667 383.073 290.002 381.113 288.844L373.671 296.286L369.016 291.631L376.458 284.189C375.299 282.228 374.635 279.942 374.635 277.5C374.635 275.058 375.299 272.772 376.458 270.811L369.016 263.369L373.671 258.714L381.113 266.156C383.073 264.998 385.359 264.333 387.801 264.333C390.243 264.333 392.53 264.998 394.49 266.156L401.932 258.714L406.587 263.369L399.145 270.812C400.303 272.772 400.968 275.058 400.968 277.5C400.968 279.942 400.303 282.228 399.145 284.188L406.587 291.631ZM394.385 277.5C394.385 281.136 391.437 284.083 387.801 284.083C384.165 284.083 381.218 281.136 381.218 277.5C381.218 273.864 384.165 270.917 387.801 270.917C391.437 270.917 394.385 273.864 394.385 277.5Z" fill="black"/>
<path fill-rule="evenodd" clip-rule="evenodd" d="M537.858 242.617C541.354 241.618 544.998 243.642 545.997 247.138C546.165 247.726 546.25 248.335 546.25 248.947V254.458H552.833C556.469 254.458 559.417 257.406 559.417 261.042V300.542C559.417 304.177 556.469 307.125 552.833 307.125H500.167C496.531 307.125 493.583 304.177 493.583 300.542H493.672C493.613 300.188 493.584 299.829 493.584 299.469V260.233C493.584 257.293 495.532 254.71 498.358 253.903L537.858 242.617ZM520.377 300.542H552.833L552.833 274.208H546.25V288.183C546.25 291.123 544.302 293.706 541.475 294.513L520.377 300.542ZM552.833 261.042L552.833 267.625H546.25V261.042H552.833ZM500.167 260.232V299.469L539.667 288.183V248.947L500.167 260.232ZM533.083 267.625C533.083 269.443 531.61 270.917 529.792 270.917C527.974 270.917 526.5 269.443 526.5 267.625C526.5 265.807 527.974 264.333 529.792 264.333C531.61 264.333 533.083 265.807 533.083 267.625Z" fill="black"/>
<line x1="735" y1="216" x2="735" y2="359" stroke="#0DA8B1" stroke-width="8"/>
<line x1="773" y1="197" x2="773" y2="313" stroke="#0DA8B1" stroke-width="8"/>
<line x1="811" y1="243" x2="811" y2="340" stroke="#0DA8B1" stroke-width="8"/>
<line x1="852" y1="216" x2="852" y2="340" stroke="#0DA8B1" stroke-width="8"/>
<rect x="723" y="241" width="22" height="95" fill="white" stroke="#0DA8B1" stroke-width="8"/>
<rect x="761" y="220" width="22" height="69" fill="white" stroke="#0DA8B1" stroke-width="8"/>
<rect x="799" y="267" width="22" height="48" fill="white" stroke="#0DA8B1" stroke-width="8"/>
<rect x="840" y="247" width="22" height="68" fill="white" stroke="#0DA8B1" stroke-width="8"/>
</svg>
