<svg width="1231" height="972" viewBox="0 0 1231 972" fill="none" xmlns="http://www.w3.org/2000/svg">
<rect x="545" y="22" width="196" height="191" fill="#DFDFDF"/>
<rect x="545" y="6" width="196" height="16" fill="#DFDFDF"/>
<path d="M607.242 60.3906C607.102 61.5938 606.656 62.5234 605.906 63.1797C605.161 63.8307 604.169 64.1562 602.93 64.1562C601.586 64.1562 600.508 63.6745 599.695 62.7109C598.888 61.7474 598.484 60.4583 598.484 58.8438V57.75C598.484 56.6927 598.672 55.763 599.047 54.9609C599.427 54.1589 599.964 53.5443 600.656 53.1172C601.349 52.6849 602.151 52.4688 603.062 52.4688C604.271 52.4688 605.24 52.8073 605.969 53.4844C606.698 54.1562 607.122 55.0885 607.242 56.2812H605.734C605.604 55.375 605.32 54.7188 604.883 54.3125C604.451 53.9062 603.844 53.7031 603.062 53.7031C602.104 53.7031 601.352 54.0573 600.805 54.7656C600.263 55.474 599.992 56.4818 599.992 57.7891V58.8906C599.992 60.125 600.25 61.1068 600.766 61.8359C601.281 62.5651 602.003 62.9297 602.93 62.9297C603.763 62.9297 604.401 62.7422 604.844 62.3672C605.292 61.987 605.589 61.3281 605.734 60.3906H607.242ZM610.516 56.5703C611.156 55.7839 611.99 55.3906 613.016 55.3906C614.802 55.3906 615.703 56.3984 615.719 58.4141V64H614.273V58.4062C614.268 57.7969 614.128 57.3464 613.852 57.0547C613.581 56.763 613.156 56.6172 612.578 56.6172C612.109 56.6172 611.698 56.7422 611.344 56.9922C610.99 57.2422 610.714 57.5703 610.516 57.9766V64H609.07V52H610.516V56.5703ZM623.102 64C623.018 63.8333 622.951 63.5365 622.898 63.1094C622.227 63.8073 621.424 64.1562 620.492 64.1562C619.659 64.1562 618.974 63.9219 618.438 63.4531C617.906 62.9792 617.641 62.3802 617.641 61.6562C617.641 60.776 617.974 60.0938 618.641 59.6094C619.312 59.1198 620.255 58.875 621.469 58.875H622.875V58.2109C622.875 57.7057 622.724 57.3047 622.422 57.0078C622.12 56.7057 621.674 56.5547 621.086 56.5547C620.57 56.5547 620.138 56.6849 619.789 56.9453C619.44 57.2057 619.266 57.5208 619.266 57.8906H617.812C617.812 57.4688 617.961 57.0625 618.258 56.6719C618.56 56.276 618.966 55.9635 619.477 55.7344C619.992 55.5052 620.557 55.3906 621.172 55.3906C622.146 55.3906 622.909 55.6354 623.461 56.125C624.013 56.6094 624.299 57.2786 624.32 58.1328V62.0234C624.32 62.7995 624.419 63.4167 624.617 63.875V64H623.102ZM620.703 62.8984C621.156 62.8984 621.586 62.7812 621.992 62.5469C622.398 62.3125 622.693 62.0078 622.875 61.6328V59.8984H621.742C619.971 59.8984 619.086 60.4167 619.086 61.4531C619.086 61.9062 619.237 62.2604 619.539 62.5156C619.841 62.7708 620.229 62.8984 620.703 62.8984ZM628.547 53.5V55.5469H630.125V56.6641H628.547V61.9062C628.547 62.2448 628.617 62.5 628.758 62.6719C628.898 62.8385 629.138 62.9219 629.477 62.9219C629.643 62.9219 629.872 62.8906 630.164 62.8281V64C629.784 64.1042 629.414 64.1562 629.055 64.1562C628.409 64.1562 627.922 63.9609 627.594 63.5703C627.266 63.1797 627.102 62.625 627.102 61.9062V56.6641H625.562V55.5469H627.102V53.5H628.547ZM638.977 59.8672C638.977 61.1589 638.68 62.1979 638.086 62.9844C637.492 63.7656 636.695 64.1562 635.695 64.1562C634.628 64.1562 633.802 63.7786 633.219 63.0234L633.148 64H631.82V52H633.266V56.4766C633.849 55.7526 634.654 55.3906 635.68 55.3906C636.706 55.3906 637.51 55.7786 638.094 56.5547C638.682 57.3307 638.977 58.3932 638.977 59.7422V59.8672ZM637.531 59.7031C637.531 58.7188 637.341 57.9583 636.961 57.4219C636.581 56.8854 636.034 56.6172 635.32 56.6172C634.367 56.6172 633.682 57.0599 633.266 57.9453V61.6016C633.708 62.487 634.398 62.9297 635.336 62.9297C636.029 62.9297 636.568 62.6615 636.953 62.125C637.339 61.5885 637.531 60.7812 637.531 59.7031ZM640.422 59.6953C640.422 58.8672 640.583 58.1224 640.906 57.4609C641.234 56.7995 641.688 56.2891 642.266 55.9297C642.849 55.5703 643.513 55.3906 644.258 55.3906C645.409 55.3906 646.339 55.7891 647.047 56.5859C647.76 57.3828 648.117 58.4427 648.117 59.7656V59.8672C648.117 60.6901 647.958 61.4297 647.641 62.0859C647.328 62.737 646.878 63.2448 646.289 63.6094C645.706 63.974 645.034 64.1562 644.273 64.1562C643.128 64.1562 642.198 63.7578 641.484 62.9609C640.776 62.1641 640.422 61.1094 640.422 59.7969V59.6953ZM641.875 59.8672C641.875 60.8047 642.091 61.5573 642.523 62.125C642.961 62.6927 643.544 62.9766 644.273 62.9766C645.008 62.9766 645.591 62.6901 646.023 62.1172C646.456 61.5391 646.672 60.7318 646.672 59.6953C646.672 58.7682 646.451 58.0182 646.008 57.4453C645.57 56.8672 644.987 56.5781 644.258 56.5781C643.544 56.5781 642.969 56.862 642.531 57.4297C642.094 57.9974 641.875 58.8099 641.875 59.8672ZM651.891 53.5V55.5469H653.469V56.6641H651.891V61.9062C651.891 62.2448 651.961 62.5 652.102 62.6719C652.242 62.8385 652.482 62.9219 652.82 62.9219C652.987 62.9219 653.216 62.8906 653.508 62.8281V64C653.128 64.1042 652.758 64.1562 652.398 64.1562C651.753 64.1562 651.266 63.9609 650.938 63.5703C650.609 63.1797 650.445 62.625 650.445 61.9062V56.6641H648.906V55.5469H650.445V53.5H651.891ZM665.641 61.0312H660.875L659.805 64H658.258L662.602 52.625H663.914L668.266 64H666.727L665.641 61.0312ZM661.328 59.7969H665.195L663.258 54.4766L661.328 59.7969ZM676.711 59.8672C676.711 61.1536 676.417 62.1901 675.828 62.9766C675.24 63.763 674.443 64.1562 673.438 64.1562C672.411 64.1562 671.604 63.8307 671.016 63.1797V67.25H669.57V55.5469H670.891L670.961 56.4844C671.549 55.7552 672.367 55.3906 673.414 55.3906C674.43 55.3906 675.232 55.7734 675.82 56.5391C676.414 57.3047 676.711 58.3698 676.711 59.7344V59.8672ZM675.266 59.7031C675.266 58.75 675.062 57.9974 674.656 57.4453C674.25 56.8932 673.693 56.6172 672.984 56.6172C672.109 56.6172 671.453 57.0052 671.016 57.7812V61.8203C671.448 62.5911 672.109 62.9766 673 62.9766C673.693 62.9766 674.242 62.7031 674.648 62.1562C675.06 61.6042 675.266 60.7865 675.266 59.7031ZM685.695 59.8672C685.695 61.1536 685.401 62.1901 684.812 62.9766C684.224 63.763 683.427 64.1562 682.422 64.1562C681.396 64.1562 680.589 63.8307 680 63.1797V67.25H678.555V55.5469H679.875L679.945 56.4844C680.534 55.7552 681.352 55.3906 682.398 55.3906C683.414 55.3906 684.216 55.7734 684.805 56.5391C685.398 57.3047 685.695 58.3698 685.695 59.7344V59.8672ZM684.25 59.7031C684.25 58.75 684.047 57.9974 683.641 57.4453C683.234 56.8932 682.677 56.6172 681.969 56.6172C681.094 56.6172 680.438 57.0052 680 57.7812V61.8203C680.432 62.5911 681.094 62.9766 681.984 62.9766C682.677 62.9766 683.227 62.7031 683.633 62.1562C684.044 61.6042 684.25 60.7865 684.25 59.7031ZM598.625 83.9766H593.852V89H592.352V77.625H599.398V78.8594H593.852V82.75H598.625V83.9766ZM601.195 89V77.625H604.914C606.148 77.625 607.076 77.8802 607.695 78.3906C608.32 78.901 608.633 79.6562 608.633 80.6562C608.633 81.1875 608.482 81.6589 608.18 82.0703C607.878 82.4766 607.466 82.7917 606.945 83.0156C607.56 83.1875 608.044 83.5156 608.398 84C608.758 84.4792 608.938 85.0521 608.938 85.7188C608.938 86.7396 608.607 87.5417 607.945 88.125C607.284 88.7083 606.349 89 605.141 89H601.195ZM602.695 83.6797V87.7734H605.172C605.87 87.7734 606.419 87.5938 606.82 87.2344C607.227 86.8698 607.43 86.3698 607.43 85.7344C607.43 84.3646 606.685 83.6797 605.195 83.6797H602.695ZM602.695 82.4766H604.961C605.617 82.4766 606.141 82.3125 606.531 81.9844C606.927 81.6562 607.125 81.2109 607.125 80.6484C607.125 80.0234 606.943 79.5703 606.578 79.2891C606.214 79.0026 605.659 78.8594 604.914 78.8594H602.695V82.4766ZM617.07 77.625L620.789 86.9062L624.508 77.625H626.453V89H624.953V84.5703L625.094 79.7891L621.359 89H620.211L616.484 79.8125L616.633 84.5703V89H615.133V77.625H617.07ZM632.383 89.1562C631.237 89.1562 630.305 88.7812 629.586 88.0312C628.867 87.276 628.508 86.2682 628.508 85.0078V84.7422C628.508 83.9036 628.667 83.1562 628.984 82.5C629.307 81.8385 629.755 81.3229 630.328 80.9531C630.906 80.5781 631.531 80.3906 632.203 80.3906C633.302 80.3906 634.156 80.7526 634.766 81.4766C635.375 82.2005 635.68 83.237 635.68 84.5859V85.1875H629.953C629.974 86.0208 630.216 86.6953 630.68 87.2109C631.148 87.7214 631.742 87.9766 632.461 87.9766C632.971 87.9766 633.404 87.8724 633.758 87.6641C634.112 87.4557 634.422 87.1797 634.688 86.8359L635.57 87.5234C634.862 88.612 633.799 89.1562 632.383 89.1562ZM632.203 81.5781C631.62 81.5781 631.13 81.7917 630.734 82.2188C630.339 82.6406 630.094 83.2344 630 84H634.234V83.8906C634.193 83.1562 633.995 82.5885 633.641 82.1875C633.286 81.7812 632.807 81.5781 632.203 81.5781ZM642.281 86.7578C642.281 86.3672 642.133 86.0651 641.836 85.8516C641.544 85.6328 641.031 85.4453 640.297 85.2891C639.568 85.1328 638.987 84.9453 638.555 84.7266C638.128 84.5078 637.81 84.2474 637.602 83.9453C637.398 83.6432 637.297 83.2839 637.297 82.8672C637.297 82.1745 637.589 81.5885 638.172 81.1094C638.76 80.6302 639.51 80.3906 640.422 80.3906C641.38 80.3906 642.156 80.638 642.75 81.1328C643.349 81.6276 643.648 82.2604 643.648 83.0312H642.195C642.195 82.6354 642.026 82.2943 641.688 82.0078C641.354 81.7214 640.932 81.5781 640.422 81.5781C639.896 81.5781 639.484 81.6927 639.188 81.9219C638.891 82.151 638.742 82.4505 638.742 82.8203C638.742 83.1693 638.88 83.4323 639.156 83.6094C639.432 83.7865 639.93 83.9557 640.648 84.1172C641.372 84.2786 641.958 84.4714 642.406 84.6953C642.854 84.9193 643.185 85.1901 643.398 85.5078C643.617 85.8203 643.727 86.2031 643.727 86.6562C643.727 87.4115 643.424 88.0182 642.82 88.4766C642.216 88.9297 641.432 89.1562 640.469 89.1562C639.792 89.1562 639.193 89.0365 638.672 88.7969C638.151 88.5573 637.742 88.224 637.445 87.7969C637.154 87.3646 637.008 86.8984 637.008 86.3984H638.453C638.479 86.8828 638.672 87.2682 639.031 87.5547C639.396 87.8359 639.875 87.9766 640.469 87.9766C641.016 87.9766 641.453 87.8672 641.781 87.6484C642.115 87.4245 642.281 87.1276 642.281 86.7578ZM650.531 86.7578C650.531 86.3672 650.383 86.0651 650.086 85.8516C649.794 85.6328 649.281 85.4453 648.547 85.2891C647.818 85.1328 647.237 84.9453 646.805 84.7266C646.378 84.5078 646.06 84.2474 645.852 83.9453C645.648 83.6432 645.547 83.2839 645.547 82.8672C645.547 82.1745 645.839 81.5885 646.422 81.1094C647.01 80.6302 647.76 80.3906 648.672 80.3906C649.63 80.3906 650.406 80.638 651 81.1328C651.599 81.6276 651.898 82.2604 651.898 83.0312H650.445C650.445 82.6354 650.276 82.2943 649.938 82.0078C649.604 81.7214 649.182 81.5781 648.672 81.5781C648.146 81.5781 647.734 81.6927 647.438 81.9219C647.141 82.151 646.992 82.4505 646.992 82.8203C646.992 83.1693 647.13 83.4323 647.406 83.6094C647.682 83.7865 648.18 83.9557 648.898 84.1172C649.622 84.2786 650.208 84.4714 650.656 84.6953C651.104 84.9193 651.435 85.1901 651.648 85.5078C651.867 85.8203 651.977 86.2031 651.977 86.6562C651.977 87.4115 651.674 88.0182 651.07 88.4766C650.466 88.9297 649.682 89.1562 648.719 89.1562C648.042 89.1562 647.443 89.0365 646.922 88.7969C646.401 88.5573 645.992 88.224 645.695 87.7969C645.404 87.3646 645.258 86.8984 645.258 86.3984H646.703C646.729 86.8828 646.922 87.2682 647.281 87.5547C647.646 87.8359 648.125 87.9766 648.719 87.9766C649.266 87.9766 649.703 87.8672 650.031 87.6484C650.365 87.4245 650.531 87.1276 650.531 86.7578ZM657.367 89.1562C656.221 89.1562 655.289 88.7812 654.57 88.0312C653.852 87.276 653.492 86.2682 653.492 85.0078V84.7422C653.492 83.9036 653.651 83.1562 653.969 82.5C654.292 81.8385 654.74 81.3229 655.312 80.9531C655.891 80.5781 656.516 80.3906 657.188 80.3906C658.286 80.3906 659.141 80.7526 659.75 81.4766C660.359 82.2005 660.664 83.237 660.664 84.5859V85.1875H654.938C654.958 86.0208 655.201 86.6953 655.664 87.2109C656.133 87.7214 656.727 87.9766 657.445 87.9766C657.956 87.9766 658.388 87.8724 658.742 87.6641C659.096 87.4557 659.406 87.1797 659.672 86.8359L660.555 87.5234C659.846 88.612 658.784 89.1562 657.367 89.1562ZM657.188 81.5781C656.604 81.5781 656.115 81.7917 655.719 82.2188C655.323 82.6406 655.078 83.2344 654.984 84H659.219V83.8906C659.177 83.1562 658.979 82.5885 658.625 82.1875C658.271 81.7812 657.792 81.5781 657.188 81.5781ZM663.711 80.5469L663.758 81.6094C664.404 80.7969 665.247 80.3906 666.289 80.3906C668.076 80.3906 668.977 81.3984 668.992 83.4141V89H667.547V83.4062C667.542 82.7969 667.401 82.3464 667.125 82.0547C666.854 81.763 666.43 81.6172 665.852 81.6172C665.383 81.6172 664.971 81.7422 664.617 81.9922C664.263 82.2422 663.987 82.5703 663.789 82.9766V89H662.344V80.5469H663.711ZM670.828 84.7031C670.828 83.3854 671.133 82.3385 671.742 81.5625C672.352 80.7812 673.159 80.3906 674.164 80.3906C675.195 80.3906 676 80.7552 676.578 81.4844L676.648 80.5469H677.969V88.7969C677.969 89.8906 677.643 90.7526 676.992 91.3828C676.346 92.013 675.477 92.3281 674.383 92.3281C673.773 92.3281 673.177 92.1979 672.594 91.9375C672.01 91.6771 671.565 91.3203 671.258 90.8672L672.008 90C672.628 90.7656 673.385 91.1484 674.281 91.1484C674.984 91.1484 675.531 90.9505 675.922 90.5547C676.318 90.1589 676.516 89.6016 676.516 88.8828V88.1562C675.938 88.8229 675.148 89.1562 674.148 89.1562C673.159 89.1562 672.357 88.7578 671.742 87.9609C671.133 87.1641 670.828 86.0781 670.828 84.7031ZM672.281 84.8672C672.281 85.8203 672.477 86.5703 672.867 87.1172C673.258 87.6589 673.805 87.9297 674.508 87.9297C675.419 87.9297 676.089 87.5156 676.516 86.6875V82.8281C676.073 82.0208 675.409 81.6172 674.523 81.6172C673.82 81.6172 673.271 81.8906 672.875 82.4375C672.479 82.9844 672.281 83.7943 672.281 84.8672ZM683.664 89.1562C682.518 89.1562 681.586 88.7812 680.867 88.0312C680.148 87.276 679.789 86.2682 679.789 85.0078V84.7422C679.789 83.9036 679.948 83.1562 680.266 82.5C680.589 81.8385 681.036 81.3229 681.609 80.9531C682.188 80.5781 682.812 80.3906 683.484 80.3906C684.583 80.3906 685.438 80.7526 686.047 81.4766C686.656 82.2005 686.961 83.237 686.961 84.5859V85.1875H681.234C681.255 86.0208 681.497 86.6953 681.961 87.2109C682.43 87.7214 683.023 87.9766 683.742 87.9766C684.253 87.9766 684.685 87.8724 685.039 87.6641C685.393 87.4557 685.703 87.1797 685.969 86.8359L686.852 87.5234C686.143 88.612 685.081 89.1562 683.664 89.1562ZM683.484 81.5781C682.901 81.5781 682.411 81.7917 682.016 82.2188C681.62 82.6406 681.375 83.2344 681.281 84H685.516V83.8906C685.474 83.1562 685.276 82.5885 684.922 82.1875C684.568 81.7812 684.089 81.5781 683.484 81.5781ZM692.727 81.8438C692.508 81.8073 692.271 81.7891 692.016 81.7891C691.068 81.7891 690.424 82.1927 690.086 83V89H688.641V80.5469H690.047L690.07 81.5234C690.544 80.7682 691.216 80.3906 692.086 80.3906C692.367 80.3906 692.581 80.4271 692.727 80.5V81.8438ZM609.836 111.414L610.055 112.914L610.375 111.562L612.625 103.625H613.891L616.086 111.562L616.398 112.938L616.641 111.406L618.406 103.625H619.914L617.156 115H615.789L613.445 106.711L613.266 105.844L613.086 106.711L610.656 115H609.289L606.539 103.625H608.039L609.836 111.414ZM622.805 107.57C623.445 106.784 624.279 106.391 625.305 106.391C627.091 106.391 627.992 107.398 628.008 109.414V115H626.562V109.406C626.557 108.797 626.417 108.346 626.141 108.055C625.87 107.763 625.445 107.617 624.867 107.617C624.398 107.617 623.987 107.742 623.633 107.992C623.279 108.242 623.003 108.57 622.805 108.977V115H621.359V103H622.805V107.57ZM635.391 115C635.307 114.833 635.24 114.536 635.188 114.109C634.516 114.807 633.714 115.156 632.781 115.156C631.948 115.156 631.263 114.922 630.727 114.453C630.195 113.979 629.93 113.38 629.93 112.656C629.93 111.776 630.263 111.094 630.93 110.609C631.602 110.12 632.544 109.875 633.758 109.875H635.164V109.211C635.164 108.706 635.013 108.305 634.711 108.008C634.409 107.706 633.964 107.555 633.375 107.555C632.859 107.555 632.427 107.685 632.078 107.945C631.729 108.206 631.555 108.521 631.555 108.891H630.102C630.102 108.469 630.25 108.062 630.547 107.672C630.849 107.276 631.255 106.964 631.766 106.734C632.281 106.505 632.846 106.391 633.461 106.391C634.435 106.391 635.198 106.635 635.75 107.125C636.302 107.609 636.589 108.279 636.609 109.133V113.023C636.609 113.799 636.708 114.417 636.906 114.875V115H635.391ZM632.992 113.898C633.445 113.898 633.875 113.781 634.281 113.547C634.688 113.312 634.982 113.008 635.164 112.633V110.898H634.031C632.26 110.898 631.375 111.417 631.375 112.453C631.375 112.906 631.526 113.26 631.828 113.516C632.13 113.771 632.518 113.898 632.992 113.898ZM640.836 104.5V106.547H642.414V107.664H640.836V112.906C640.836 113.245 640.906 113.5 641.047 113.672C641.188 113.839 641.427 113.922 641.766 113.922C641.932 113.922 642.161 113.891 642.453 113.828V115C642.073 115.104 641.703 115.156 641.344 115.156C640.698 115.156 640.211 114.961 639.883 114.57C639.555 114.18 639.391 113.625 639.391 112.906V107.664H637.852V106.547H639.391V104.5H640.836ZM649.031 112.758C649.031 112.367 648.883 112.065 648.586 111.852C648.294 111.633 647.781 111.445 647.047 111.289C646.318 111.133 645.737 110.945 645.305 110.727C644.878 110.508 644.56 110.247 644.352 109.945C644.148 109.643 644.047 109.284 644.047 108.867C644.047 108.174 644.339 107.589 644.922 107.109C645.51 106.63 646.26 106.391 647.172 106.391C648.13 106.391 648.906 106.638 649.5 107.133C650.099 107.628 650.398 108.26 650.398 109.031H648.945C648.945 108.635 648.776 108.294 648.438 108.008C648.104 107.721 647.682 107.578 647.172 107.578C646.646 107.578 646.234 107.693 645.938 107.922C645.641 108.151 645.492 108.451 645.492 108.82C645.492 109.169 645.63 109.432 645.906 109.609C646.182 109.786 646.68 109.956 647.398 110.117C648.122 110.279 648.708 110.471 649.156 110.695C649.604 110.919 649.935 111.19 650.148 111.508C650.367 111.82 650.477 112.203 650.477 112.656C650.477 113.411 650.174 114.018 649.57 114.477C648.966 114.93 648.182 115.156 647.219 115.156C646.542 115.156 645.943 115.036 645.422 114.797C644.901 114.557 644.492 114.224 644.195 113.797C643.904 113.365 643.758 112.898 643.758 112.398H645.203C645.229 112.883 645.422 113.268 645.781 113.555C646.146 113.836 646.625 113.977 647.219 113.977C647.766 113.977 648.203 113.867 648.531 113.648C648.865 113.424 649.031 113.128 649.031 112.758ZM657.578 115C657.495 114.833 657.427 114.536 657.375 114.109C656.703 114.807 655.901 115.156 654.969 115.156C654.135 115.156 653.451 114.922 652.914 114.453C652.383 113.979 652.117 113.38 652.117 112.656C652.117 111.776 652.451 111.094 653.117 110.609C653.789 110.12 654.732 109.875 655.945 109.875H657.352V109.211C657.352 108.706 657.201 108.305 656.898 108.008C656.596 107.706 656.151 107.555 655.562 107.555C655.047 107.555 654.615 107.685 654.266 107.945C653.917 108.206 653.742 108.521 653.742 108.891H652.289C652.289 108.469 652.438 108.062 652.734 107.672C653.036 107.276 653.443 106.964 653.953 106.734C654.469 106.505 655.034 106.391 655.648 106.391C656.622 106.391 657.385 106.635 657.938 107.125C658.49 107.609 658.776 108.279 658.797 109.133V113.023C658.797 113.799 658.896 114.417 659.094 114.875V115H657.578ZM655.18 113.898C655.633 113.898 656.062 113.781 656.469 113.547C656.875 113.312 657.169 113.008 657.352 112.633V110.898H656.219C654.448 110.898 653.562 111.417 653.562 112.453C653.562 112.906 653.714 113.26 654.016 113.516C654.318 113.771 654.706 113.898 655.18 113.898ZM668.203 110.867C668.203 112.154 667.909 113.19 667.32 113.977C666.732 114.763 665.935 115.156 664.93 115.156C663.904 115.156 663.096 114.831 662.508 114.18V118.25H661.062V106.547H662.383L662.453 107.484C663.042 106.755 663.859 106.391 664.906 106.391C665.922 106.391 666.724 106.773 667.312 107.539C667.906 108.305 668.203 109.37 668.203 110.734V110.867ZM666.758 110.703C666.758 109.75 666.555 108.997 666.148 108.445C665.742 107.893 665.185 107.617 664.477 107.617C663.602 107.617 662.945 108.005 662.508 108.781V112.82C662.94 113.591 663.602 113.977 664.492 113.977C665.185 113.977 665.734 113.703 666.141 113.156C666.552 112.604 666.758 111.786 666.758 110.703ZM677.188 110.867C677.188 112.154 676.893 113.19 676.305 113.977C675.716 114.763 674.919 115.156 673.914 115.156C672.888 115.156 672.081 114.831 671.492 114.18V118.25H670.047V106.547H671.367L671.438 107.484C672.026 106.755 672.844 106.391 673.891 106.391C674.906 106.391 675.708 106.773 676.297 107.539C676.891 108.305 677.188 109.37 677.188 110.734V110.867ZM675.742 110.703C675.742 109.75 675.539 108.997 675.133 108.445C674.727 107.893 674.169 107.617 673.461 107.617C672.586 107.617 671.93 108.005 671.492 108.781V112.82C671.924 113.591 672.586 113.977 673.477 113.977C674.169 113.977 674.719 113.703 675.125 113.156C675.536 112.604 675.742 111.786 675.742 110.703ZM595.906 136.414L596.125 137.914L596.445 136.562L598.695 128.625H599.961L602.156 136.562L602.469 137.938L602.711 136.406L604.477 128.625H605.984L603.227 140H601.859L599.516 131.711L599.336 130.844L599.156 131.711L596.727 140H595.359L592.609 128.625H594.109L595.906 136.414ZM610.688 140.156C609.542 140.156 608.609 139.781 607.891 139.031C607.172 138.276 606.812 137.268 606.812 136.008V135.742C606.812 134.904 606.971 134.156 607.289 133.5C607.612 132.839 608.06 132.323 608.633 131.953C609.211 131.578 609.836 131.391 610.508 131.391C611.607 131.391 612.461 131.753 613.07 132.477C613.68 133.201 613.984 134.237 613.984 135.586V136.188H608.258C608.279 137.021 608.521 137.695 608.984 138.211C609.453 138.721 610.047 138.977 610.766 138.977C611.276 138.977 611.708 138.872 612.062 138.664C612.417 138.456 612.727 138.18 612.992 137.836L613.875 138.523C613.167 139.612 612.104 140.156 610.688 140.156ZM610.508 132.578C609.924 132.578 609.435 132.792 609.039 133.219C608.643 133.641 608.398 134.234 608.305 135H612.539V134.891C612.497 134.156 612.299 133.589 611.945 133.188C611.591 132.781 611.112 132.578 610.508 132.578ZM622.82 135.867C622.82 137.159 622.523 138.198 621.93 138.984C621.336 139.766 620.539 140.156 619.539 140.156C618.471 140.156 617.646 139.779 617.062 139.023L616.992 140H615.664V128H617.109V132.477C617.693 131.753 618.497 131.391 619.523 131.391C620.549 131.391 621.354 131.779 621.938 132.555C622.526 133.331 622.82 134.393 622.82 135.742V135.867ZM621.375 135.703C621.375 134.719 621.185 133.958 620.805 133.422C620.424 132.885 619.878 132.617 619.164 132.617C618.211 132.617 617.526 133.06 617.109 133.945V137.602C617.552 138.487 618.242 138.93 619.18 138.93C619.872 138.93 620.411 138.661 620.797 138.125C621.182 137.589 621.375 136.781 621.375 135.703ZM628.156 140.156C627.01 140.156 626.078 139.781 625.359 139.031C624.641 138.276 624.281 137.268 624.281 136.008V135.742C624.281 134.904 624.44 134.156 624.758 133.5C625.081 132.839 625.529 132.323 626.102 131.953C626.68 131.578 627.305 131.391 627.977 131.391C629.076 131.391 629.93 131.753 630.539 132.477C631.148 133.201 631.453 134.237 631.453 135.586V136.188H625.727C625.747 137.021 625.99 137.695 626.453 138.211C626.922 138.721 627.516 138.977 628.234 138.977C628.745 138.977 629.177 138.872 629.531 138.664C629.885 138.456 630.195 138.18 630.461 137.836L631.344 138.523C630.635 139.612 629.573 140.156 628.156 140.156ZM627.977 132.578C627.393 132.578 626.904 132.792 626.508 133.219C626.112 133.641 625.867 134.234 625.773 135H630.008V134.891C629.966 134.156 629.768 133.589 629.414 133.188C629.06 132.781 628.581 132.578 627.977 132.578ZM635.969 134.633L637.844 131.547H639.531L636.766 135.727L639.617 140H637.945L635.992 136.836L634.039 140H632.359L635.211 135.727L632.445 131.547H634.117L635.969 134.633ZM652.812 129.859H649.156V140H647.664V129.859H644.016V128.625H652.812V129.859ZM657 140.156C655.854 140.156 654.922 139.781 654.203 139.031C653.484 138.276 653.125 137.268 653.125 136.008V135.742C653.125 134.904 653.284 134.156 653.602 133.5C653.924 132.839 654.372 132.323 654.945 131.953C655.523 131.578 656.148 131.391 656.82 131.391C657.919 131.391 658.773 131.753 659.383 132.477C659.992 133.201 660.297 134.237 660.297 135.586V136.188H654.57C654.591 137.021 654.833 137.695 655.297 138.211C655.766 138.721 656.359 138.977 657.078 138.977C657.589 138.977 658.021 138.872 658.375 138.664C658.729 138.456 659.039 138.18 659.305 137.836L660.188 138.523C659.479 139.612 658.417 140.156 657 140.156ZM656.82 132.578C656.237 132.578 655.747 132.792 655.352 133.219C654.956 133.641 654.711 134.234 654.617 135H658.852V134.891C658.81 134.156 658.612 133.589 658.258 133.188C657.904 132.781 657.424 132.578 656.82 132.578ZM667.195 140C667.112 139.833 667.044 139.536 666.992 139.109C666.32 139.807 665.518 140.156 664.586 140.156C663.753 140.156 663.068 139.922 662.531 139.453C662 138.979 661.734 138.38 661.734 137.656C661.734 136.776 662.068 136.094 662.734 135.609C663.406 135.12 664.349 134.875 665.562 134.875H666.969V134.211C666.969 133.706 666.818 133.305 666.516 133.008C666.214 132.706 665.768 132.555 665.18 132.555C664.664 132.555 664.232 132.685 663.883 132.945C663.534 133.206 663.359 133.521 663.359 133.891H661.906C661.906 133.469 662.055 133.062 662.352 132.672C662.654 132.276 663.06 131.964 663.57 131.734C664.086 131.505 664.651 131.391 665.266 131.391C666.24 131.391 667.003 131.635 667.555 132.125C668.107 132.609 668.393 133.279 668.414 134.133V138.023C668.414 138.799 668.513 139.417 668.711 139.875V140H667.195ZM664.797 138.898C665.25 138.898 665.68 138.781 666.086 138.547C666.492 138.312 666.786 138.008 666.969 137.633V135.898H665.836C664.065 135.898 663.18 136.417 663.18 137.453C663.18 137.906 663.331 138.26 663.633 138.516C663.935 138.771 664.323 138.898 664.797 138.898ZM672.039 131.547L672.078 132.484C672.698 131.755 673.534 131.391 674.586 131.391C675.768 131.391 676.573 131.844 677 132.75C677.281 132.344 677.646 132.016 678.094 131.766C678.547 131.516 679.081 131.391 679.695 131.391C681.549 131.391 682.492 132.372 682.523 134.336V140H681.078V134.422C681.078 133.818 680.94 133.367 680.664 133.07C680.388 132.768 679.924 132.617 679.273 132.617C678.737 132.617 678.292 132.779 677.938 133.102C677.583 133.419 677.378 133.849 677.32 134.391V140H675.867V134.461C675.867 133.232 675.266 132.617 674.062 132.617C673.115 132.617 672.466 133.021 672.117 133.828V140H670.672V131.547H672.039ZM689.633 137.758C689.633 137.367 689.484 137.065 689.188 136.852C688.896 136.633 688.383 136.445 687.648 136.289C686.919 136.133 686.339 135.945 685.906 135.727C685.479 135.508 685.161 135.247 684.953 134.945C684.75 134.643 684.648 134.284 684.648 133.867C684.648 133.174 684.94 132.589 685.523 132.109C686.112 131.63 686.862 131.391 687.773 131.391C688.732 131.391 689.508 131.638 690.102 132.133C690.701 132.628 691 133.26 691 134.031H689.547C689.547 133.635 689.378 133.294 689.039 133.008C688.706 132.721 688.284 132.578 687.773 132.578C687.247 132.578 686.836 132.693 686.539 132.922C686.242 133.151 686.094 133.451 686.094 133.82C686.094 134.169 686.232 134.432 686.508 134.609C686.784 134.786 687.281 134.956 688 135.117C688.724 135.279 689.31 135.471 689.758 135.695C690.206 135.919 690.536 136.19 690.75 136.508C690.969 136.82 691.078 137.203 691.078 137.656C691.078 138.411 690.776 139.018 690.172 139.477C689.568 139.93 688.784 140.156 687.82 140.156C687.143 140.156 686.544 140.036 686.023 139.797C685.503 139.557 685.094 139.224 684.797 138.797C684.505 138.365 684.359 137.898 684.359 137.398H685.805C685.831 137.883 686.023 138.268 686.383 138.555C686.747 138.836 687.227 138.977 687.82 138.977C688.367 138.977 688.805 138.867 689.133 138.648C689.466 138.424 689.633 138.128 689.633 137.758ZM627.383 160.93C626.096 160.56 625.159 160.107 624.57 159.57C623.987 159.029 623.695 158.362 623.695 157.57C623.695 156.674 624.052 155.935 624.766 155.352C625.484 154.763 626.417 154.469 627.562 154.469C628.344 154.469 629.039 154.62 629.648 154.922C630.263 155.224 630.737 155.641 631.07 156.172C631.409 156.703 631.578 157.284 631.578 157.914H630.07C630.07 157.227 629.852 156.688 629.414 156.297C628.977 155.901 628.359 155.703 627.562 155.703C626.823 155.703 626.245 155.867 625.828 156.195C625.417 156.518 625.211 156.969 625.211 157.547C625.211 158.01 625.406 158.404 625.797 158.727C626.193 159.044 626.862 159.336 627.805 159.602C628.753 159.867 629.492 160.161 630.023 160.484C630.56 160.802 630.956 161.174 631.211 161.602C631.471 162.029 631.602 162.531 631.602 163.109C631.602 164.031 631.242 164.771 630.523 165.328C629.805 165.88 628.844 166.156 627.641 166.156C626.859 166.156 626.13 166.008 625.453 165.711C624.776 165.409 624.253 164.997 623.883 164.477C623.518 163.956 623.336 163.365 623.336 162.703H624.844C624.844 163.391 625.096 163.935 625.602 164.336C626.112 164.732 626.792 164.93 627.641 164.93C628.432 164.93 629.039 164.768 629.461 164.445C629.883 164.122 630.094 163.682 630.094 163.125C630.094 162.568 629.898 162.138 629.508 161.836C629.117 161.529 628.409 161.227 627.383 160.93ZM634.875 166H633.43V154H634.875V166ZM642.414 166C642.331 165.833 642.263 165.536 642.211 165.109C641.539 165.807 640.737 166.156 639.805 166.156C638.971 166.156 638.286 165.922 637.75 165.453C637.219 164.979 636.953 164.38 636.953 163.656C636.953 162.776 637.286 162.094 637.953 161.609C638.625 161.12 639.568 160.875 640.781 160.875H642.188V160.211C642.188 159.706 642.036 159.305 641.734 159.008C641.432 158.706 640.987 158.555 640.398 158.555C639.883 158.555 639.451 158.685 639.102 158.945C638.753 159.206 638.578 159.521 638.578 159.891H637.125C637.125 159.469 637.273 159.062 637.57 158.672C637.872 158.276 638.279 157.964 638.789 157.734C639.305 157.505 639.87 157.391 640.484 157.391C641.458 157.391 642.221 157.635 642.773 158.125C643.326 158.609 643.612 159.279 643.633 160.133V164.023C643.633 164.799 643.732 165.417 643.93 165.875V166H642.414ZM640.016 164.898C640.469 164.898 640.898 164.781 641.305 164.547C641.711 164.312 642.005 164.008 642.188 163.633V161.898H641.055C639.284 161.898 638.398 162.417 638.398 163.453C638.398 163.906 638.549 164.26 638.852 164.516C639.154 164.771 639.542 164.898 640.016 164.898ZM649.289 164.977C649.805 164.977 650.255 164.82 650.641 164.508C651.026 164.195 651.24 163.805 651.281 163.336H652.648C652.622 163.82 652.456 164.281 652.148 164.719C651.841 165.156 651.43 165.505 650.914 165.766C650.404 166.026 649.862 166.156 649.289 166.156C648.138 166.156 647.221 165.773 646.539 165.008C645.862 164.237 645.523 163.185 645.523 161.852V161.609C645.523 160.786 645.674 160.055 645.977 159.414C646.279 158.773 646.711 158.276 647.273 157.922C647.841 157.568 648.51 157.391 649.281 157.391C650.229 157.391 651.016 157.674 651.641 158.242C652.271 158.81 652.607 159.547 652.648 160.453H651.281C651.24 159.906 651.031 159.458 650.656 159.109C650.286 158.755 649.828 158.578 649.281 158.578C648.547 158.578 647.977 158.844 647.57 159.375C647.169 159.901 646.969 160.664 646.969 161.664V161.938C646.969 162.911 647.169 163.661 647.57 164.188C647.971 164.714 648.544 164.977 649.289 164.977ZM656.633 162.086L655.727 163.031V166H654.281V154H655.727V161.258L656.5 160.328L659.133 157.547H660.891L657.602 161.078L661.273 166H659.578L656.633 162.086Z" fill="#007593"/>
<circle cx="554" cy="14" r="2" fill="#0092B7"/>
<circle cx="562" cy="14" r="2" fill="#0092B7"/>
<circle cx="570" cy="14" r="2" fill="#0092B7"/>
<rect x="543.5" y="4.5" width="199" height="210" stroke="#0092B7" stroke-width="3"/>
<path d="M646 298L561 383L646 468L731 383L646 298Z" fill="#DFDFDF" stroke="#0092B7" stroke-width="5"/>
<path d="M618.625 380.593C618.465 378.481 616.513 376.657 613.745 376.657C610.577 376.657 608.337 378.769 608.337 382.657C608.337 386.497 610.401 388.657 613.617 388.657C616.545 388.657 618.513 386.593 618.641 384.353H616.993C616.897 386.017 615.521 387.281 613.649 387.281C611.489 387.281 610.001 385.633 610.001 382.657C610.001 379.537 611.537 378.017 613.745 378.017C615.521 378.017 616.769 379.025 616.977 380.593H618.625ZM619.913 384.257C619.913 387.137 621.689 388.657 624.009 388.657C626.361 388.657 628.121 387.169 628.121 384.257C628.121 381.265 626.297 379.857 624.025 379.857C621.769 379.857 619.913 381.265 619.913 384.257ZM621.513 384.257C621.513 382.177 622.601 381.105 624.025 381.105C625.449 381.105 626.521 382.145 626.521 384.257C626.521 386.321 625.513 387.409 624.041 387.409C622.601 387.409 621.513 386.321 621.513 384.257ZM631.414 388.417V383.297C631.414 382.113 632.294 381.169 633.414 381.169C634.47 381.169 635.03 381.681 635.03 382.961V388.417H636.566V383.345C636.566 382.209 637.334 381.169 638.566 381.169C639.638 381.169 640.182 381.697 640.182 382.961V388.417H641.718V382.849C641.718 380.865 640.598 379.857 638.902 379.857C637.894 379.857 636.838 380.161 636.198 381.169C635.734 380.305 634.854 379.857 633.75 379.857C632.822 379.857 631.91 380.193 631.302 381.073L631.142 380.097H629.878V388.417H631.414ZM645.414 388.417V383.297C645.414 382.113 646.294 381.169 647.414 381.169C648.47 381.169 649.03 381.681 649.03 382.961V388.417H650.566V383.345C650.566 382.209 651.334 381.169 652.566 381.169C653.638 381.169 654.182 381.697 654.182 382.961V388.417H655.718V382.849C655.718 380.865 654.598 379.857 652.902 379.857C651.894 379.857 650.838 380.161 650.198 381.169C649.734 380.305 648.854 379.857 647.75 379.857C646.822 379.857 645.91 380.193 645.302 381.073L645.142 380.097H643.878V388.417H645.414ZM659.19 382.417C659.302 381.585 659.878 381.073 661.062 381.073C662.294 381.073 662.982 381.649 662.982 382.673V383.089L660.55 383.505C658.31 383.889 657.398 384.753 657.398 386.273C657.398 387.633 658.454 388.657 660.278 388.657C661.622 388.657 662.518 388.049 663.062 387.281L663.254 388.417H664.518V382.737C664.518 381.025 663.302 379.857 661.126 379.857C659.046 379.857 657.718 380.881 657.558 382.417H659.19ZM662.982 384.289V385.361C662.982 386.497 661.814 387.361 660.646 387.361C659.606 387.361 659.03 386.913 659.03 386.113C659.03 385.377 659.43 384.913 660.918 384.657L662.982 384.289ZM668.211 388.417V383.281C668.211 381.969 669.171 381.169 670.275 381.169C671.411 381.169 672.051 381.761 672.051 383.009V388.417H673.587V382.993C673.587 380.961 672.451 379.857 670.643 379.857C669.651 379.857 668.723 380.305 668.115 381.153L667.939 380.097H666.675V388.417H668.211ZM683.257 388.417V376.897H681.721V381.153C681.177 380.401 680.313 379.857 679.049 379.857C676.825 379.857 675.273 381.329 675.273 384.305C675.273 387.121 676.857 388.657 678.953 388.657C680.249 388.657 681.161 388.065 681.721 387.249L681.993 388.417H683.257ZM676.873 384.337C676.873 382.161 677.833 381.169 679.289 381.169C680.825 381.169 681.801 382.321 681.801 384.353C681.801 386.097 680.873 387.345 679.289 387.345C677.897 387.345 676.873 386.337 676.873 384.337Z" fill="#007593"/>
<circle cx="646" cy="463" r="5" fill="#6ABF4B"/>
<path d="M646 462V575" stroke="#6ABF4B" stroke-width="3"/>
<path d="M670 552L646 576L622 552" stroke="#6ABF4B" stroke-width="3"/>
<rect x="48" y="581" width="156" height="76" fill="#DFDFDF" stroke="#0092B7" stroke-width="4"/>
<path d="M72.0366 621.768C72.3566 623.88 74.2286 625.24 76.7086 625.24C79.5726 625.24 81.2046 623.608 81.2046 621.816C81.2046 620.04 80.2926 619.096 77.0926 618.2C74.4526 617.464 74.0686 617.032 74.0686 616.136C74.0686 615.272 74.8046 614.584 76.5646 614.584C78.2926 614.584 79.2686 615.24 79.4446 616.36H81.1246C80.8366 614.408 79.0286 613.24 76.5646 613.24C73.9246 613.24 72.4366 614.52 72.4366 616.2C72.4366 617.784 73.2686 618.728 75.9406 619.464C79.0446 620.312 79.5726 620.808 79.5726 621.88C79.5726 622.968 78.5966 623.896 76.6766 623.896C74.9646 623.896 73.9086 623.064 73.7166 621.768H72.0366ZM88.7137 622.6C88.4737 623.368 87.7057 623.944 86.6977 623.944C85.3057 623.944 84.2657 623.096 84.1377 621.176H90.4737C90.4737 617.816 88.8737 616.44 86.5697 616.44C84.2657 616.44 82.5697 617.944 82.5697 620.84C82.5697 623.768 84.2817 625.24 86.6497 625.24C88.6497 625.24 89.9617 624.12 90.3777 622.6H88.7137ZM84.2017 619.96C84.4417 618.424 85.3697 617.672 86.6017 617.672C87.8817 617.672 88.7937 618.408 88.9057 619.96H84.2017ZM93.6273 619C93.7393 618.168 94.3153 617.656 95.4993 617.656C96.7313 617.656 97.4193 618.232 97.4193 619.256V619.672L94.9873 620.088C92.7473 620.472 91.8353 621.336 91.8353 622.856C91.8353 624.216 92.8913 625.24 94.7153 625.24C96.0593 625.24 96.9553 624.632 97.4993 623.864L97.6913 625H98.9553V619.32C98.9553 617.608 97.7393 616.44 95.5633 616.44C93.4833 616.44 92.1553 617.464 91.9953 619H93.6273ZM97.4193 620.872V621.944C97.4193 623.08 96.2513 623.944 95.0833 623.944C94.0433 623.944 93.4673 623.496 93.4673 622.696C93.4673 621.96 93.8673 621.496 95.3553 621.24L97.4193 620.872ZM102.648 625V620.824C102.648 618.728 103.576 617.944 104.632 617.944C105 617.944 105.304 618.008 105.608 618.088V616.552C105.416 616.504 105.096 616.44 104.696 616.44C103.768 616.44 103.048 616.952 102.584 617.912L102.376 616.68H101.112V625H102.648ZM112.083 622.328C111.923 623.368 111.171 623.944 110.147 623.944C108.851 623.944 107.811 622.984 107.811 620.952C107.811 618.744 108.771 617.736 110.131 617.736C111.107 617.736 111.795 618.232 112.003 619.144H113.699C113.427 617.448 111.987 616.44 110.099 616.44C107.747 616.44 106.179 618.12 106.179 620.904C106.179 623.72 107.907 625.24 110.115 625.24C112.179 625.24 113.539 623.944 113.763 622.328H112.083ZM117.054 625V619.928C117.054 618.552 117.982 617.752 119.118 617.752C120.254 617.752 120.894 618.344 120.894 619.592V625H122.43V619.576C122.43 617.544 121.294 616.44 119.486 616.44C118.542 616.44 117.662 616.84 117.054 617.624V613.48H115.518V625H117.054ZM129.473 613.48V625H133.105C136.481 625 138.881 622.968 138.881 619.24C138.881 615.288 136.609 613.48 133.217 613.48H129.473ZM133.233 614.776C135.697 614.776 137.233 616.216 137.233 619.24C137.233 622.136 135.793 623.656 133.265 623.656H131.105V614.776H133.233ZM146.386 622.6C146.146 623.368 145.378 623.944 144.37 623.944C142.978 623.944 141.938 623.096 141.81 621.176H148.146C148.146 617.816 146.546 616.44 144.242 616.44C141.938 616.44 140.242 617.944 140.242 620.84C140.242 623.768 141.954 625.24 144.322 625.24C146.322 625.24 147.634 624.12 148.05 622.6H146.386ZM141.874 619.96C142.114 618.424 143.042 617.672 144.274 617.672C145.554 617.672 146.466 618.408 146.578 619.96H141.874ZM151.523 625V619.88C151.523 618.696 152.403 617.752 153.523 617.752C154.579 617.752 155.139 618.264 155.139 619.544V625H156.675V619.928C156.675 618.792 157.443 617.752 158.675 617.752C159.747 617.752 160.291 618.28 160.291 619.544V625H161.827V619.432C161.827 617.448 160.707 616.44 159.011 616.44C158.003 616.44 156.947 616.744 156.307 617.752C155.843 616.888 154.963 616.44 153.859 616.44C152.931 616.44 152.019 616.776 151.411 617.656L151.251 616.68H149.987V625H151.523ZM163.507 620.84C163.507 623.72 165.283 625.24 167.603 625.24C169.955 625.24 171.715 623.752 171.715 620.84C171.715 617.848 169.891 616.44 167.619 616.44C165.363 616.44 163.507 617.848 163.507 620.84ZM165.107 620.84C165.107 618.76 166.195 617.688 167.619 617.688C169.043 617.688 170.115 618.728 170.115 620.84C170.115 622.904 169.107 623.992 167.635 623.992C166.195 623.992 165.107 622.904 165.107 620.84ZM172.832 622.616C172.976 624.216 174.336 625.24 176.416 625.24C178.624 625.24 179.888 624.152 179.888 622.632C179.888 620.92 178.608 620.376 176.672 619.944C175.072 619.592 174.736 619.304 174.736 618.664C174.736 618.088 175.248 617.656 176.4 617.656C177.456 617.656 178.08 618.104 178.256 618.872H179.824C179.552 617.352 178.272 616.44 176.416 616.44C174.32 616.44 173.184 617.384 173.184 618.808C173.184 620.04 173.968 620.776 175.92 621.208C177.408 621.544 178.336 621.768 178.336 622.744C178.336 623.464 177.68 624.024 176.432 624.024C175.264 624.024 174.576 623.608 174.4 622.616H172.832Z" fill="#007593"/>
<path d="M46 579V577H44V579H46ZM206 579H208V577H206V579ZM206 659V661H208V659H206ZM46 659H44V661H46V659ZM46 581H206V577H46V581ZM204 579V659H208V579H204ZM206 657H46V661H206V657ZM48 659V579H44V659H48Z" fill="#0092B7"/>
<rect x="568" y="580" width="156" height="76" fill="#DFDFDF" stroke="#0092B7" stroke-width="4"/>
<path d="M587.388 620.768C587.708 622.88 589.58 624.24 592.06 624.24C594.924 624.24 596.556 622.608 596.556 620.816C596.556 619.04 595.644 618.096 592.444 617.2C589.804 616.464 589.42 616.032 589.42 615.136C589.42 614.272 590.156 613.584 591.916 613.584C593.644 613.584 594.62 614.24 594.796 615.36H596.476C596.188 613.408 594.38 612.24 591.916 612.24C589.276 612.24 587.788 613.52 587.788 615.2C587.788 616.784 588.62 617.728 591.292 618.464C594.396 619.312 594.924 619.808 594.924 620.88C594.924 621.968 593.948 622.896 592.028 622.896C590.316 622.896 589.26 622.064 589.068 620.768H587.388ZM603.825 621.328C603.665 622.368 602.913 622.944 601.889 622.944C600.593 622.944 599.553 621.984 599.553 619.952C599.553 617.744 600.513 616.736 601.873 616.736C602.849 616.736 603.537 617.232 603.745 618.144H605.441C605.169 616.448 603.729 615.44 601.841 615.44C599.489 615.44 597.921 617.12 597.921 619.904C597.921 622.72 599.649 624.24 601.857 624.24C603.921 624.24 605.281 622.944 605.505 621.328H603.825ZM608.797 624V618.928C608.797 617.552 609.725 616.752 610.861 616.752C611.997 616.752 612.637 617.344 612.637 618.592V624H614.173V618.576C614.173 616.544 613.037 615.44 611.229 615.44C610.285 615.44 609.405 615.84 608.797 616.624V612.48H607.261V624H608.797ZM622.003 621.6C621.763 622.368 620.995 622.944 619.987 622.944C618.595 622.944 617.555 622.096 617.427 620.176H623.763C623.763 616.816 622.163 615.44 619.859 615.44C617.555 615.44 615.859 616.944 615.859 619.84C615.859 622.768 617.571 624.24 619.939 624.24C621.939 624.24 623.251 623.12 623.667 621.6H622.003ZM617.491 618.96C617.731 617.424 618.659 616.672 619.891 616.672C621.171 616.672 622.083 617.408 622.195 618.96H617.491ZM633.108 624V612.48H631.572V616.736C631.028 615.984 630.164 615.44 628.9 615.44C626.676 615.44 625.124 616.912 625.124 619.888C625.124 622.704 626.708 624.24 628.804 624.24C630.1 624.24 631.012 623.648 631.572 622.832L631.844 624H633.108ZM626.724 619.92C626.724 617.744 627.684 616.752 629.14 616.752C630.676 616.752 631.652 617.904 631.652 619.936C631.652 621.68 630.724 622.928 629.14 622.928C627.748 622.928 626.724 621.92 626.724 619.92ZM635.274 615.68V621.104C635.274 623.232 636.474 624.24 638.186 624.24C639.194 624.24 640.09 623.84 640.682 623.04L640.858 624H642.122V615.68H640.586V620.752C640.586 621.888 639.93 622.928 638.538 622.928C637.466 622.928 636.81 622.368 636.81 621.136V615.68H635.274ZM645.906 612.48H644.37V624H645.906V612.48ZM653.815 621.6C653.575 622.368 652.807 622.944 651.799 622.944C650.407 622.944 649.367 622.096 649.239 620.176H655.575C655.575 616.816 653.975 615.44 651.671 615.44C649.367 615.44 647.671 616.944 647.671 619.84C647.671 622.768 649.383 624.24 651.751 624.24C653.751 624.24 655.063 623.12 655.479 621.6H653.815ZM649.303 618.96C649.543 617.424 650.471 616.672 651.703 616.672C652.983 616.672 653.895 617.408 654.007 618.96H649.303ZM662.294 612.48V624H665.926C669.302 624 671.702 621.968 671.702 618.24C671.702 614.288 669.43 612.48 666.038 612.48H662.294ZM666.054 613.776C668.518 613.776 670.054 615.216 670.054 618.24C670.054 621.136 668.614 622.656 666.086 622.656H663.926V613.776H666.054ZM679.206 621.6C678.966 622.368 678.198 622.944 677.19 622.944C675.798 622.944 674.758 622.096 674.63 620.176H680.966C680.966 616.816 679.366 615.44 677.062 615.44C674.758 615.44 673.062 616.944 673.062 619.84C673.062 622.768 674.774 624.24 677.142 624.24C679.142 624.24 680.454 623.12 680.87 621.6H679.206ZM674.694 618.96C674.934 617.424 675.862 616.672 677.094 616.672C678.374 616.672 679.286 617.408 679.398 618.96H674.694ZM684.344 624V618.88C684.344 617.696 685.224 616.752 686.344 616.752C687.4 616.752 687.96 617.264 687.96 618.544V624H689.496V618.928C689.496 617.792 690.264 616.752 691.496 616.752C692.568 616.752 693.112 617.28 693.112 618.544V624H694.648V618.432C694.648 616.448 693.528 615.44 691.832 615.44C690.824 615.44 689.767 615.744 689.128 616.752C688.664 615.888 687.784 615.44 686.68 615.44C685.752 615.44 684.84 615.776 684.232 616.656L684.072 615.68H682.808V624H684.344ZM696.328 619.84C696.328 622.72 698.104 624.24 700.424 624.24C702.776 624.24 704.536 622.752 704.536 619.84C704.536 616.848 702.712 615.44 700.44 615.44C698.184 615.44 696.328 616.848 696.328 619.84ZM697.928 619.84C697.928 617.76 699.016 616.688 700.44 616.688C701.864 616.688 702.936 617.728 702.936 619.84C702.936 621.904 701.928 622.992 700.456 622.992C699.016 622.992 697.928 621.904 697.928 619.84Z" fill="#007593"/>
<path d="M566 578V576H564V578H566ZM726 578H728V576H726V578ZM726 658V660H728V658H726ZM566 658H564V660H566V658ZM566 580H726V576H566V580ZM724 578V658H728V578H724ZM726 656H566V660H726V656ZM568 658V578H564V658H568Z" fill="#0092B7"/>
<rect x="568" y="731" width="156" height="76" fill="#DFDFDF" stroke="#0092B7" stroke-width="4"/>
<path d="M608.419 763.48V775H612.051C615.427 775 617.827 772.968 617.827 769.24C617.827 765.288 615.555 763.48 612.163 763.48H608.419ZM612.179 764.776C614.643 764.776 616.179 766.216 616.179 769.24C616.179 772.136 614.739 773.656 612.211 773.656H610.051V764.776H612.179ZM620.979 769C621.091 768.168 621.667 767.656 622.851 767.656C624.083 767.656 624.771 768.232 624.771 769.256V769.672L622.339 770.088C620.099 770.472 619.187 771.336 619.187 772.856C619.187 774.216 620.243 775.24 622.067 775.24C623.411 775.24 624.307 774.632 624.851 773.864L625.043 775H626.307V769.32C626.307 767.608 625.091 766.44 622.915 766.44C620.835 766.44 619.507 767.464 619.347 769H620.979ZM624.771 770.872V771.944C624.771 773.08 623.603 773.944 622.435 773.944C621.395 773.944 620.819 773.496 620.819 772.696C620.819 771.96 621.219 771.496 622.707 771.24L624.771 770.872ZM632.176 773.768C631.712 773.88 631.504 773.896 631.232 773.896C630.656 773.896 630.352 773.592 630.352 772.968V767.992H632.144V766.68H630.352V764.68H628.912L628.816 766.68H627.584V767.992H628.816V772.936C628.816 774.312 629.568 775.24 631.04 775.24C631.424 775.24 631.76 775.192 632.176 775.08V773.768ZM639.206 772.6C638.966 773.368 638.198 773.944 637.19 773.944C635.798 773.944 634.758 773.096 634.63 771.176H640.966C640.966 767.816 639.366 766.44 637.062 766.44C634.758 766.44 633.062 767.944 633.062 770.84C633.062 773.768 634.774 775.24 637.142 775.24C639.142 775.24 640.454 774.12 640.87 772.6H639.206ZM634.694 769.96C634.934 768.424 635.862 767.672 637.094 767.672C638.374 767.672 639.286 768.408 639.398 769.96H634.694ZM642.168 776.44H643.624L647.608 763.24H646.152L642.168 776.44ZM657.582 763.48H648.254V764.936H652.078V775H653.71V764.936H657.582V763.48ZM660.486 765.288V763.48H658.758V765.288H660.486ZM660.39 775V766.68H658.854V775H660.39ZM664.172 775V769.88C664.172 768.696 665.052 767.752 666.172 767.752C667.228 767.752 667.788 768.264 667.788 769.544V775H669.324V769.928C669.324 768.792 670.092 767.752 671.324 767.752C672.396 767.752 672.94 768.28 672.94 769.544V775H674.476V769.432C674.476 767.448 673.356 766.44 671.66 766.44C670.652 766.44 669.596 766.744 668.956 767.752C668.492 766.888 667.612 766.44 666.508 766.44C665.58 766.44 664.668 766.776 664.06 767.656L663.9 766.68H662.636V775H664.172ZM682.3 772.6C682.06 773.368 681.292 773.944 680.284 773.944C678.892 773.944 677.852 773.096 677.724 771.176H684.06C684.06 767.816 682.46 766.44 680.156 766.44C677.852 766.44 676.156 767.944 676.156 770.84C676.156 773.768 677.868 775.24 680.236 775.24C682.236 775.24 683.548 774.12 683.964 772.6H682.3ZM677.788 769.96C678.028 768.424 678.956 767.672 680.188 767.672C681.468 767.672 682.38 768.408 682.492 769.96H677.788Z" fill="#007593"/>
<path d="M566 729V727H564V729H566ZM726 729H728V727H726V729ZM726 809V811H728V809H726ZM566 809H564V811H566V809ZM566 731H726V727H566V731ZM724 729V809H728V729H724ZM726 807H566V811H726V807ZM568 809V729H564V809H568Z" fill="#0092B7"/>
<rect x="568" y="887" width="156" height="76" fill="#DFDFDF" stroke="#0092B7" stroke-width="4"/>
<path d="M603.09 919.48V929.048L597.602 919.48H595.442V931H596.93V921.352L602.482 931H604.546V919.48H603.09ZM606.382 926.84C606.382 929.72 608.158 931.24 610.478 931.24C612.83 931.24 614.59 929.752 614.59 926.84C614.59 923.848 612.766 922.44 610.494 922.44C608.238 922.44 606.382 923.848 606.382 926.84ZM607.982 926.84C607.982 924.76 609.07 923.688 610.494 923.688C611.918 923.688 612.99 924.728 612.99 926.84C612.99 928.904 611.982 929.992 610.51 929.992C609.07 929.992 607.982 928.904 607.982 926.84ZM620.663 926.84C620.663 929.72 622.439 931.24 624.759 931.24C627.111 931.24 628.871 929.752 628.871 926.84C628.871 923.848 627.047 922.44 624.775 922.44C622.519 922.44 620.663 923.848 620.663 926.84ZM622.263 926.84C622.263 924.76 623.351 923.688 624.775 923.688C626.199 923.688 627.271 924.728 627.271 926.84C627.271 928.904 626.263 929.992 624.791 929.992C623.351 929.992 622.263 928.904 622.263 926.84ZM634.74 919.432C634.308 919.32 633.94 919.24 633.38 919.24C632.004 919.24 631.06 920.136 631.06 921.512V922.68H629.828V923.992H631.06V931H632.596V923.992H634.388V922.68H632.596V921.416C632.596 920.904 632.916 920.568 633.476 920.568C633.844 920.568 634.228 920.632 634.74 920.76V919.432ZM640.021 927.768C640.341 929.88 642.213 931.24 644.693 931.24C647.557 931.24 649.189 929.608 649.189 927.816C649.189 926.04 648.277 925.096 645.077 924.2C642.437 923.464 642.053 923.032 642.053 922.136C642.053 921.272 642.789 920.584 644.549 920.584C646.277 920.584 647.253 921.24 647.429 922.36H649.109C648.821 920.408 647.013 919.24 644.549 919.24C641.909 919.24 640.421 920.52 640.421 922.2C640.421 923.784 641.253 924.728 643.925 925.464C647.029 926.312 647.557 926.808 647.557 927.88C647.557 928.968 646.581 929.896 644.661 929.896C642.949 929.896 641.893 929.064 641.701 927.768H640.021ZM656.698 928.6C656.458 929.368 655.69 929.944 654.682 929.944C653.29 929.944 652.25 929.096 652.122 927.176H658.458C658.458 923.816 656.858 922.44 654.554 922.44C652.25 922.44 650.554 923.944 650.554 926.84C650.554 929.768 652.266 931.24 654.634 931.24C656.634 931.24 657.946 930.12 658.362 928.6H656.698ZM652.186 925.96C652.426 924.424 653.354 923.672 654.586 923.672C655.866 923.672 656.778 924.408 656.89 925.96H652.186ZM659.66 928.616C659.804 930.216 661.164 931.24 663.244 931.24C665.452 931.24 666.716 930.152 666.716 928.632C666.716 926.92 665.436 926.376 663.5 925.944C661.9 925.592 661.564 925.304 661.564 924.664C661.564 924.088 662.076 923.656 663.228 923.656C664.284 923.656 664.908 924.104 665.084 924.872H666.652C666.38 923.352 665.1 922.44 663.244 922.44C661.148 922.44 660.012 923.384 660.012 924.808C660.012 926.04 660.796 926.776 662.748 927.208C664.236 927.544 665.164 927.768 665.164 928.744C665.164 929.464 664.508 930.024 663.26 930.024C662.092 930.024 661.404 929.608 661.228 928.616H659.66ZM667.722 928.616C667.866 930.216 669.226 931.24 671.306 931.24C673.514 931.24 674.778 930.152 674.778 928.632C674.778 926.92 673.498 926.376 671.562 925.944C669.962 925.592 669.626 925.304 669.626 924.664C669.626 924.088 670.138 923.656 671.29 923.656C672.346 923.656 672.97 924.104 673.146 924.872H674.714C674.442 923.352 673.162 922.44 671.306 922.44C669.21 922.44 668.074 923.384 668.074 924.808C668.074 926.04 668.858 926.776 670.81 927.208C672.298 927.544 673.226 927.768 673.226 928.744C673.226 929.464 672.57 930.024 671.322 930.024C670.154 930.024 669.466 929.608 669.29 928.616H667.722ZM678.166 921.288V919.48H676.438V921.288H678.166ZM678.07 931V922.68H676.534V931H678.07ZM679.835 926.84C679.835 929.72 681.611 931.24 683.931 931.24C686.283 931.24 688.043 929.752 688.043 926.84C688.043 923.848 686.219 922.44 683.947 922.44C681.691 922.44 679.835 923.848 679.835 926.84ZM681.435 926.84C681.435 924.76 682.523 923.688 683.947 923.688C685.371 923.688 686.443 924.728 686.443 926.84C686.443 928.904 685.435 929.992 683.963 929.992C682.523 929.992 681.435 928.904 681.435 926.84ZM691.336 931V925.864C691.336 924.552 692.296 923.752 693.4 923.752C694.536 923.752 695.176 924.344 695.176 925.592V931H696.712V925.576C696.712 923.544 695.576 922.44 693.768 922.44C692.776 922.44 691.848 922.888 691.24 923.736L691.064 922.68H689.8V931H691.336Z" fill="#007593"/>
<path d="M566 885V883H564V885H566ZM726 885H728V883H726V885ZM726 965V967H728V965H726ZM566 965H564V967H566V965ZM566 887H726V883H566V887ZM724 885V965H728V885H724ZM726 963H566V967H726V963ZM568 965V885H564V965H568Z" fill="#0092B7"/>
<rect x="805" y="581" width="156" height="76" fill="#DFDFDF" stroke="#0092B7" stroke-width="4"/>
<path d="M833.076 621.768C833.396 623.88 835.268 625.24 837.748 625.24C840.612 625.24 842.244 623.608 842.244 621.816C842.244 620.04 841.332 619.096 838.132 618.2C835.492 617.464 835.108 617.032 835.108 616.136C835.108 615.272 835.844 614.584 837.604 614.584C839.332 614.584 840.308 615.24 840.484 616.36H842.164C841.876 614.408 840.068 613.24 837.604 613.24C834.964 613.24 833.476 614.52 833.476 616.2C833.476 617.784 834.308 618.728 836.98 619.464C840.084 620.312 840.612 620.808 840.612 621.88C840.612 622.968 839.636 623.896 837.716 623.896C836.004 623.896 834.948 623.064 834.756 621.768H833.076ZM849.753 622.6C849.513 623.368 848.745 623.944 847.737 623.944C846.345 623.944 845.305 623.096 845.177 621.176H851.513C851.513 617.816 849.913 616.44 847.609 616.44C845.305 616.44 843.609 617.944 843.609 620.84C843.609 623.768 845.321 625.24 847.689 625.24C849.689 625.24 851.001 624.12 851.417 622.6H849.753ZM845.241 619.96C845.481 618.424 846.409 617.672 847.641 617.672C848.921 617.672 849.833 618.408 849.945 619.96H845.241ZM859.018 622.6C858.778 623.368 858.01 623.944 857.002 623.944C855.61 623.944 854.57 623.096 854.442 621.176H860.778C860.778 617.816 859.178 616.44 856.874 616.44C854.57 616.44 852.874 617.944 852.874 620.84C852.874 623.768 854.586 625.24 856.954 625.24C858.954 625.24 860.266 624.12 860.682 622.6H859.018ZM854.506 619.96C854.746 618.424 855.674 617.672 856.906 617.672C858.186 617.672 859.098 618.408 859.21 619.96H854.506ZM866.777 622.616C866.921 624.216 868.281 625.24 870.361 625.24C872.569 625.24 873.833 624.152 873.833 622.632C873.833 620.92 872.553 620.376 870.617 619.944C869.017 619.592 868.681 619.304 868.681 618.664C868.681 618.088 869.193 617.656 870.345 617.656C871.401 617.656 872.025 618.104 872.201 618.872H873.769C873.497 617.352 872.217 616.44 870.361 616.44C868.265 616.44 867.129 617.384 867.129 618.808C867.129 620.04 867.913 620.776 869.865 621.208C871.353 621.544 872.281 621.768 872.281 622.744C872.281 623.464 871.625 624.024 870.377 624.024C869.209 624.024 868.521 623.608 868.345 622.616H866.777ZM881.013 622.328C880.853 623.368 880.101 623.944 879.077 623.944C877.781 623.944 876.741 622.984 876.741 620.952C876.741 618.744 877.701 617.736 879.061 617.736C880.037 617.736 880.725 618.232 880.933 619.144H882.629C882.357 617.448 880.917 616.44 879.029 616.44C876.677 616.44 875.109 618.12 875.109 620.904C875.109 623.72 876.837 625.24 879.045 625.24C881.109 625.24 882.469 623.944 882.693 622.328H881.013ZM885.984 625V619.928C885.984 618.552 886.912 617.752 888.048 617.752C889.184 617.752 889.824 618.344 889.824 619.592V625H891.36V619.576C891.36 617.544 890.224 616.44 888.416 616.44C887.472 616.44 886.592 616.84 885.984 617.624V613.48H884.448V625H885.984ZM899.19 622.6C898.95 623.368 898.182 623.944 897.174 623.944C895.782 623.944 894.742 623.096 894.614 621.176H900.95C900.95 617.816 899.35 616.44 897.046 616.44C894.742 616.44 893.046 617.944 893.046 620.84C893.046 623.768 894.758 625.24 897.126 625.24C899.126 625.24 900.438 624.12 900.854 622.6H899.19ZM894.678 619.96C894.918 618.424 895.846 617.672 897.078 617.672C898.358 617.672 899.27 618.408 899.382 619.96H894.678ZM910.296 625V613.48H908.76V617.736C908.216 616.984 907.352 616.44 906.088 616.44C903.864 616.44 902.312 617.912 902.312 620.888C902.312 623.704 903.896 625.24 905.992 625.24C907.288 625.24 908.2 624.648 908.76 623.832L909.032 625H910.296ZM903.912 620.92C903.912 618.744 904.872 617.752 906.328 617.752C907.864 617.752 908.84 618.904 908.84 620.936C908.84 622.68 907.912 623.928 906.328 623.928C904.936 623.928 903.912 622.92 903.912 620.92ZM912.462 616.68V622.104C912.462 624.232 913.662 625.24 915.374 625.24C916.382 625.24 917.278 624.84 917.87 624.04L918.046 625H919.31V616.68H917.774V621.752C917.774 622.888 917.118 623.928 915.726 623.928C914.654 623.928 913.998 623.368 913.998 622.136V616.68H912.462ZM923.094 613.48H921.558V625H923.094V613.48ZM931.003 622.6C930.763 623.368 929.995 623.944 928.987 623.944C927.595 623.944 926.555 623.096 926.427 621.176H932.763C932.763 617.816 931.163 616.44 928.859 616.44C926.555 616.44 924.859 617.944 924.859 620.84C924.859 623.768 926.571 625.24 928.939 625.24C930.939 625.24 932.251 624.12 932.667 622.6H931.003ZM926.491 619.96C926.731 618.424 927.659 617.672 928.891 617.672C930.171 617.672 931.083 618.408 931.195 619.96H926.491Z" fill="#007593"/>
<path d="M803 579V576H800V579H803ZM963 579H966V576H963V579ZM963 659V662H966V659H963ZM803 659H800V662H803V659ZM803 582H963V576H803V582ZM960 579V659H966V579H960ZM963 656H803V662H963V656ZM806 659V579H800V659H806Z" fill="#0092B7"/>
<rect x="1062" y="581" width="156" height="76" fill="#DFDFDF" stroke="#0092B7" stroke-width="4"/>
<path d="M1121.91 606.176C1121.75 604.064 1119.8 602.24 1117.03 602.24C1113.87 602.24 1111.63 604.352 1111.63 608.24C1111.63 612.08 1113.69 614.24 1116.91 614.24C1119.83 614.24 1121.8 612.176 1121.93 609.936H1120.28C1120.19 611.6 1118.81 612.864 1116.94 612.864C1114.78 612.864 1113.29 611.216 1113.29 608.24C1113.29 605.12 1114.83 603.6 1117.03 603.6C1118.81 603.6 1120.06 604.608 1120.27 606.176H1121.91ZM1123.2 609.84C1123.2 612.72 1124.98 614.24 1127.3 614.24C1129.65 614.24 1131.41 612.752 1131.41 609.84C1131.41 606.848 1129.59 605.44 1127.31 605.44C1125.06 605.44 1123.2 606.848 1123.2 609.84ZM1124.8 609.84C1124.8 607.76 1125.89 606.688 1127.31 606.688C1128.74 606.688 1129.81 607.728 1129.81 609.84C1129.81 611.904 1128.8 612.992 1127.33 612.992C1125.89 612.992 1124.8 611.904 1124.8 609.84ZM1134.7 614V608.864C1134.7 607.552 1135.66 606.752 1136.77 606.752C1137.9 606.752 1138.54 607.344 1138.54 608.592V614H1140.08V608.576C1140.08 606.544 1138.94 605.44 1137.13 605.44C1136.14 605.44 1135.21 605.888 1134.61 606.736L1134.43 605.68H1133.17V614H1134.7ZM1145.96 612.768C1145.49 612.88 1145.29 612.896 1145.01 612.896C1144.44 612.896 1144.13 612.592 1144.13 611.968V606.992H1145.93V605.68H1144.13V603.68H1142.69L1142.6 605.68H1141.37V606.992H1142.6V611.936C1142.6 613.312 1143.35 614.24 1144.82 614.24C1145.21 614.24 1145.54 614.192 1145.96 614.08V612.768ZM1148.71 608C1148.83 607.168 1149.4 606.656 1150.59 606.656C1151.82 606.656 1152.51 607.232 1152.51 608.256V608.672L1150.07 609.088C1147.83 609.472 1146.92 610.336 1146.92 611.856C1146.92 613.216 1147.98 614.24 1149.8 614.24C1151.15 614.24 1152.04 613.632 1152.59 612.864L1152.78 614H1154.04V608.32C1154.04 606.608 1152.83 605.44 1150.65 605.44C1148.57 605.44 1147.24 606.464 1147.08 608H1148.71ZM1152.51 609.872V610.944C1152.51 612.08 1151.34 612.944 1150.17 612.944C1149.13 612.944 1148.55 612.496 1148.55 611.696C1148.55 610.96 1148.95 610.496 1150.44 610.24L1152.51 609.872ZM1161.62 611.328C1161.46 612.368 1160.71 612.944 1159.69 612.944C1158.39 612.944 1157.35 611.984 1157.35 609.952C1157.35 607.744 1158.31 606.736 1159.67 606.736C1160.65 606.736 1161.33 607.232 1161.54 608.144H1163.24C1162.97 606.448 1161.53 605.44 1159.64 605.44C1157.29 605.44 1155.72 607.12 1155.72 609.904C1155.72 612.72 1157.45 614.24 1159.65 614.24C1161.72 614.24 1163.08 612.944 1163.3 611.328H1161.62ZM1168.77 612.768C1168.31 612.88 1168.1 612.896 1167.83 612.896C1167.25 612.896 1166.95 612.592 1166.95 611.968V606.992H1168.74V605.68H1166.95V603.68H1165.51L1165.41 605.68H1164.18V606.992H1165.41V611.936C1165.41 613.312 1166.16 614.24 1167.63 614.24C1168.02 614.24 1168.35 614.192 1168.77 614.08V612.768ZM1110.9 631.768C1111.22 633.88 1113.1 635.24 1115.58 635.24C1118.44 635.24 1120.07 633.608 1120.07 631.816C1120.07 630.04 1119.16 629.096 1115.96 628.2C1113.32 627.464 1112.94 627.032 1112.94 626.136C1112.94 625.272 1113.67 624.584 1115.43 624.584C1117.16 624.584 1118.14 625.24 1118.31 626.36H1119.99C1119.7 624.408 1117.9 623.24 1115.43 623.24C1112.79 623.24 1111.3 624.52 1111.3 626.2C1111.3 627.784 1112.14 628.728 1114.81 629.464C1117.91 630.312 1118.44 630.808 1118.44 631.88C1118.44 632.968 1117.46 633.896 1115.54 633.896C1113.83 633.896 1112.78 633.064 1112.58 631.768H1110.9ZM1121.84 626.68V632.104C1121.84 634.232 1123.04 635.24 1124.75 635.24C1125.76 635.24 1126.65 634.84 1127.24 634.04L1127.42 635H1128.68V626.68H1127.15V631.752C1127.15 632.888 1126.49 633.928 1125.1 633.928C1124.03 633.928 1123.37 633.368 1123.37 632.136V626.68H1121.84ZM1130.93 626.68V637.88H1132.47V633.928C1133 634.696 1133.88 635.24 1135.14 635.24C1137.33 635.24 1138.92 633.656 1138.92 630.776C1138.92 628.008 1137.44 626.44 1135.25 626.44C1133.97 626.44 1133.03 627 1132.44 627.768L1132.2 626.68H1130.93ZM1137.32 630.744C1137.32 632.936 1136.34 633.928 1134.9 633.928C1133.4 633.928 1132.39 632.76 1132.39 630.744C1132.39 628.76 1133.52 627.752 1134.9 627.752C1136.28 627.752 1137.32 628.696 1137.32 630.744ZM1140.68 626.68V637.88H1142.22V633.928C1142.75 634.696 1143.63 635.24 1144.89 635.24C1147.08 635.24 1148.67 633.656 1148.67 630.776C1148.67 628.008 1147.19 626.44 1145 626.44C1143.72 626.44 1142.78 627 1142.19 627.768L1141.95 626.68H1140.68ZM1147.07 630.744C1147.07 632.936 1146.09 633.928 1144.65 633.928C1143.15 633.928 1142.14 632.76 1142.14 630.744C1142.14 628.76 1143.27 627.752 1144.65 627.752C1146.03 627.752 1147.07 628.696 1147.07 630.744ZM1149.95 630.84C1149.95 633.72 1151.73 635.24 1154.05 635.24C1156.4 635.24 1158.16 633.752 1158.16 630.84C1158.16 627.848 1156.34 626.44 1154.06 626.44C1151.81 626.44 1149.95 627.848 1149.95 630.84ZM1151.55 630.84C1151.55 628.76 1152.64 627.688 1154.06 627.688C1155.49 627.688 1156.56 628.728 1156.56 630.84C1156.56 632.904 1155.55 633.992 1154.08 633.992C1152.64 633.992 1151.55 632.904 1151.55 630.84ZM1161.45 635V630.824C1161.45 628.728 1162.38 627.944 1163.44 627.944C1163.8 627.944 1164.11 628.008 1164.41 628.088V626.552C1164.22 626.504 1163.9 626.44 1163.5 626.44C1162.57 626.44 1161.85 626.952 1161.39 627.912L1161.18 626.68H1159.92V635H1161.45ZM1169.33 633.768C1168.87 633.88 1168.66 633.896 1168.39 633.896C1167.81 633.896 1167.51 633.592 1167.51 632.968V627.992H1169.3V626.68H1167.51V624.68H1166.07L1165.97 626.68H1164.74V627.992H1165.97V632.936C1165.97 634.312 1166.72 635.24 1168.2 635.24C1168.58 635.24 1168.92 635.192 1169.33 635.08V633.768Z" fill="#007593"/>
<path d="M1060 579V577H1058V579H1060ZM1220 579H1222V577H1220V579ZM1220 659V661H1222V659H1220ZM1060 659H1058V661H1060V659ZM1060 581H1220V577H1060V581ZM1218 579V659H1222V579H1218ZM1220 657H1060V661H1220V657ZM1062 659V579H1058V659H1062Z" fill="#0092B7"/>
<rect x="329" y="581" width="156" height="76" fill="#DFDFDF" stroke="#0092B7" stroke-width="4"/>
<path d="M401.011 602.48H391.683V603.936H395.507V614H397.139V603.936H401.011V602.48ZM406.667 611.6C406.427 612.368 405.659 612.944 404.651 612.944C403.259 612.944 402.219 612.096 402.091 610.176H408.427C408.427 606.816 406.827 605.44 404.523 605.44C402.219 605.44 400.523 606.944 400.523 609.84C400.523 612.768 402.235 614.24 404.603 614.24C406.603 614.24 407.915 613.12 408.331 611.6H406.667ZM402.155 608.96C402.395 607.424 403.323 606.672 404.555 606.672C405.835 606.672 406.747 607.408 406.859 608.96H402.155ZM409.628 611.616C409.772 613.216 411.132 614.24 413.212 614.24C415.42 614.24 416.684 613.152 416.684 611.632C416.684 609.92 415.404 609.376 413.468 608.944C411.868 608.592 411.532 608.304 411.532 607.664C411.532 607.088 412.044 606.656 413.196 606.656C414.252 606.656 414.876 607.104 415.052 607.872H416.62C416.348 606.352 415.068 605.44 413.212 605.44C411.116 605.44 409.98 606.384 409.98 607.808C409.98 609.04 410.764 609.776 412.716 610.208C414.204 610.544 415.132 610.768 415.132 611.744C415.132 612.464 414.476 613.024 413.228 613.024C412.06 613.024 411.372 612.608 411.196 611.616H409.628ZM422.152 612.768C421.688 612.88 421.48 612.896 421.208 612.896C420.632 612.896 420.328 612.592 420.328 611.968V606.992H422.12V605.68H420.328V603.68H418.888L418.792 605.68H417.56V606.992H418.792V611.936C418.792 613.312 419.544 614.24 421.016 614.24C421.4 614.24 421.736 614.192 422.152 614.08V612.768ZM375.547 627.176C375.387 625.064 373.435 623.24 370.667 623.24C367.499 623.24 365.259 625.352 365.259 629.24C365.259 633.08 367.323 635.24 370.539 635.24C373.467 635.24 375.435 633.176 375.563 630.936H373.915C373.819 632.6 372.443 633.864 370.571 633.864C368.411 633.864 366.923 632.216 366.923 629.24C366.923 626.12 368.459 624.6 370.667 624.6C372.443 624.6 373.691 625.608 373.899 627.176H375.547ZM376.835 630.84C376.835 633.72 378.611 635.24 380.931 635.24C383.283 635.24 385.043 633.752 385.043 630.84C385.043 627.848 383.219 626.44 380.947 626.44C378.691 626.44 376.835 627.848 376.835 630.84ZM378.435 630.84C378.435 628.76 379.523 627.688 380.947 627.688C382.371 627.688 383.443 628.728 383.443 630.84C383.443 632.904 382.435 633.992 380.963 633.992C379.523 633.992 378.435 632.904 378.435 630.84ZM388.336 635V629.864C388.336 628.552 389.296 627.752 390.4 627.752C391.536 627.752 392.176 628.344 392.176 629.592V635H393.712V629.576C393.712 627.544 392.576 626.44 390.768 626.44C389.776 626.44 388.848 626.888 388.24 627.736L388.064 626.68H386.8V635H388.336ZM397.414 635V629.864C397.414 628.552 398.374 627.752 399.478 627.752C400.614 627.752 401.254 628.344 401.254 629.592V635H402.79V629.576C402.79 627.544 401.654 626.44 399.846 626.44C398.854 626.44 397.926 626.888 397.318 627.736L397.142 626.68H395.878V635H397.414ZM410.62 632.6C410.38 633.368 409.612 633.944 408.604 633.944C407.212 633.944 406.172 633.096 406.044 631.176H412.38C412.38 627.816 410.78 626.44 408.476 626.44C406.172 626.44 404.476 627.944 404.476 630.84C404.476 633.768 406.188 635.24 408.556 635.24C410.556 635.24 411.868 634.12 412.284 632.6H410.62ZM406.108 629.96C406.348 628.424 407.276 627.672 408.508 627.672C409.788 627.672 410.7 628.408 410.812 629.96H406.108ZM419.646 632.328C419.486 633.368 418.734 633.944 417.71 633.944C416.414 633.944 415.374 632.984 415.374 630.952C415.374 628.744 416.334 627.736 417.694 627.736C418.67 627.736 419.358 628.232 419.566 629.144H421.262C420.99 627.448 419.55 626.44 417.662 626.44C415.31 626.44 413.742 628.12 413.742 630.904C413.742 633.72 415.47 635.24 417.678 635.24C419.742 635.24 421.102 633.944 421.326 632.328H419.646ZM426.793 633.768C426.329 633.88 426.121 633.896 425.849 633.896C425.273 633.896 424.969 633.592 424.969 632.968V627.992H426.761V626.68H424.969V624.68H423.529L423.433 626.68H422.201V627.992H423.433V632.936C423.433 634.312 424.185 635.24 425.657 635.24C426.041 635.24 426.377 635.192 426.793 635.08V633.768ZM429.869 625.288V623.48H428.141V625.288H429.869ZM429.773 635V626.68H428.237V635H429.773ZM431.538 630.84C431.538 633.72 433.314 635.24 435.634 635.24C437.986 635.24 439.746 633.752 439.746 630.84C439.746 627.848 437.922 626.44 435.65 626.44C433.394 626.44 431.538 627.848 431.538 630.84ZM433.138 630.84C433.138 628.76 434.226 627.688 435.65 627.688C437.074 627.688 438.146 628.728 438.146 630.84C438.146 632.904 437.138 633.992 435.666 633.992C434.226 633.992 433.138 632.904 433.138 630.84ZM443.039 635V629.864C443.039 628.552 443.999 627.752 445.103 627.752C446.239 627.752 446.879 628.344 446.879 629.592V635H448.415V629.576C448.415 627.544 447.279 626.44 445.471 626.44C444.479 626.44 443.551 626.888 442.943 627.736L442.767 626.68H441.503V635H443.039Z" fill="#007593"/>
<path d="M327 579V577H325V579H327ZM487 579H489V577H487V579ZM487 659V661H489V659H487ZM327 659H325V661H327V659ZM327 581H487V577H327V581ZM485 579V659H489V579H485ZM487 657H327V661H487V657ZM329 659V579H325V659H329Z" fill="#0092B7"/>
<rect x="329" y="733" width="156" height="76" fill="#DFDFDF" stroke="#0092B7" stroke-width="4"/>
<path d="M361.521 773.768C361.841 775.88 363.713 777.24 366.193 777.24C369.057 777.24 370.689 775.608 370.689 773.816C370.689 772.04 369.777 771.096 366.577 770.2C363.937 769.464 363.553 769.032 363.553 768.136C363.553 767.272 364.289 766.584 366.049 766.584C367.777 766.584 368.753 767.24 368.929 768.36H370.609C370.321 766.408 368.513 765.24 366.049 765.24C363.409 765.24 361.921 766.52 361.921 768.2C361.921 769.784 362.753 770.728 365.425 771.464C368.529 772.312 369.057 772.808 369.057 773.88C369.057 774.968 368.081 775.896 366.161 775.896C364.449 775.896 363.393 775.064 363.201 773.768H361.521ZM372.454 768.68V774.104C372.454 776.232 373.654 777.24 375.366 777.24C376.374 777.24 377.27 776.84 377.862 776.04L378.038 777H379.302V768.68H377.766V773.752C377.766 774.888 377.11 775.928 375.718 775.928C374.646 775.928 373.99 775.368 373.99 774.136V768.68H372.454ZM381.454 777.56C381.726 779.112 382.99 780.12 385.214 780.12C387.678 780.12 389.054 778.712 389.054 776.824V768.68H387.79L387.55 769.784C387.022 769 386.142 768.44 384.846 768.44C382.59 768.44 381.07 770.04 381.07 772.648C381.07 775.304 382.798 776.76 384.75 776.76C386.03 776.76 386.958 776.328 387.518 775.672V776.744C387.518 778.12 386.718 778.904 385.166 778.904C383.95 778.904 383.246 778.392 383.102 777.56H381.454ZM382.67 772.68C382.67 770.696 383.678 769.752 385.086 769.752C386.574 769.752 387.598 770.776 387.598 772.728C387.598 774.408 386.67 775.448 385.086 775.448C383.758 775.448 382.67 774.44 382.67 772.68ZM391.204 777.56C391.476 779.112 392.74 780.12 394.964 780.12C397.428 780.12 398.804 778.712 398.804 776.824V768.68H397.54L397.3 769.784C396.772 769 395.892 768.44 394.596 768.44C392.34 768.44 390.82 770.04 390.82 772.648C390.82 775.304 392.548 776.76 394.5 776.76C395.78 776.76 396.708 776.328 397.268 775.672V776.744C397.268 778.12 396.468 778.904 394.916 778.904C393.7 778.904 392.996 778.392 392.852 777.56H391.204ZM392.42 772.68C392.42 770.696 393.428 769.752 394.836 769.752C396.324 769.752 397.348 770.776 397.348 772.728C397.348 774.408 396.42 775.448 394.836 775.448C393.508 775.448 392.42 774.44 392.42 772.68ZM406.714 774.6C406.474 775.368 405.706 775.944 404.698 775.944C403.306 775.944 402.266 775.096 402.138 773.176H408.474C408.474 769.816 406.874 768.44 404.57 768.44C402.266 768.44 400.57 769.944 400.57 772.84C400.57 775.768 402.282 777.24 404.65 777.24C406.65 777.24 407.962 776.12 408.378 774.6H406.714ZM402.202 771.96C402.442 770.424 403.37 769.672 404.602 769.672C405.882 769.672 406.794 770.408 406.906 771.96H402.202ZM409.675 774.616C409.819 776.216 411.179 777.24 413.259 777.24C415.467 777.24 416.731 776.152 416.731 774.632C416.731 772.92 415.451 772.376 413.515 771.944C411.915 771.592 411.579 771.304 411.579 770.664C411.579 770.088 412.091 769.656 413.243 769.656C414.299 769.656 414.923 770.104 415.099 770.872H416.667C416.395 769.352 415.115 768.44 413.259 768.44C411.163 768.44 410.027 769.384 410.027 770.808C410.027 772.04 410.811 772.776 412.763 773.208C414.251 773.544 415.179 773.768 415.179 774.744C415.179 775.464 414.523 776.024 413.275 776.024C412.107 776.024 411.419 775.608 411.243 774.616H409.675ZM422.199 775.768C421.735 775.88 421.527 775.896 421.255 775.896C420.679 775.896 420.375 775.592 420.375 774.968V769.992H422.167V768.68H420.375V766.68H418.935L418.839 768.68H417.607V769.992H418.839V774.936C418.839 776.312 419.591 777.24 421.063 777.24C421.447 777.24 421.783 777.192 422.199 777.08V775.768ZM425.275 767.288V765.48H423.547V767.288H425.275ZM425.179 777V768.68H423.643V777H425.179ZM426.945 772.84C426.945 775.72 428.721 777.24 431.041 777.24C433.393 777.24 435.153 775.752 435.153 772.84C435.153 769.848 433.329 768.44 431.057 768.44C428.801 768.44 426.945 769.848 426.945 772.84ZM428.545 772.84C428.545 770.76 429.633 769.688 431.057 769.688C432.481 769.688 433.553 770.728 433.553 772.84C433.553 774.904 432.545 775.992 431.073 775.992C429.633 775.992 428.545 774.904 428.545 772.84ZM438.445 777V771.864C438.445 770.552 439.405 769.752 440.509 769.752C441.645 769.752 442.285 770.344 442.285 771.592V777H443.821V771.576C443.821 769.544 442.685 768.44 440.877 768.44C439.885 768.44 438.957 768.888 438.349 769.736L438.173 768.68H436.909V777H438.445ZM445.347 774.616C445.491 776.216 446.851 777.24 448.931 777.24C451.139 777.24 452.403 776.152 452.403 774.632C452.403 772.92 451.123 772.376 449.187 771.944C447.587 771.592 447.251 771.304 447.251 770.664C447.251 770.088 447.763 769.656 448.915 769.656C449.971 769.656 450.595 770.104 450.771 770.872H452.339C452.067 769.352 450.787 768.44 448.931 768.44C446.835 768.44 445.699 769.384 445.699 770.808C445.699 772.04 446.483 772.776 448.435 773.208C449.923 773.544 450.851 773.768 450.851 774.744C450.851 775.464 450.195 776.024 448.947 776.024C447.779 776.024 447.091 775.608 446.915 774.616H445.347Z" fill="#007593"/>
<path d="M327 731V729H325V731H327ZM487 731H489V729H487V731ZM487 811V813H489V811H487ZM327 811H325V813H327V811ZM327 733H487V729H327V733ZM485 731V811H489V731H485ZM487 809H327V813H487V809ZM329 811V731H325V811H329Z" fill="#0092B7"/>
<rect x="48" y="732" width="156" height="76" fill="#DFDFDF" stroke="#0092B7" stroke-width="4"/>
<path d="M109.389 776L106.285 771.28C107.549 770.8 108.605 769.84 108.605 768.096C108.605 765.776 106.973 764.48 104.045 764.48H100.317V776H101.949V771.616H104.685L107.469 776H109.389ZM104.077 765.808C106.013 765.808 106.909 766.608 106.909 768.096C106.909 769.44 105.917 770.288 104.125 770.288H101.949V765.808H104.077ZM116.104 773.6C115.864 774.368 115.096 774.944 114.088 774.944C112.696 774.944 111.656 774.096 111.528 772.176H117.864C117.864 768.816 116.264 767.44 113.96 767.44C111.656 767.44 109.96 768.944 109.96 771.84C109.96 774.768 111.672 776.24 114.04 776.24C116.04 776.24 117.352 775.12 117.768 773.6H116.104ZM111.592 770.96C111.832 769.424 112.76 768.672 113.992 768.672C115.272 768.672 116.184 769.408 116.296 770.96H111.592ZM119.066 773.616C119.21 775.216 120.57 776.24 122.65 776.24C124.858 776.24 126.122 775.152 126.122 773.632C126.122 771.92 124.842 771.376 122.906 770.944C121.306 770.592 120.97 770.304 120.97 769.664C120.97 769.088 121.482 768.656 122.634 768.656C123.69 768.656 124.314 769.104 124.49 769.872H126.058C125.786 768.352 124.506 767.44 122.65 767.44C120.554 767.44 119.418 768.384 119.418 769.808C119.418 771.04 120.202 771.776 122.154 772.208C123.642 772.544 124.57 772.768 124.57 773.744C124.57 774.464 123.914 775.024 122.666 775.024C121.498 775.024 120.81 774.608 120.634 773.616H119.066ZM127.798 767.68V773.104C127.798 775.232 128.998 776.24 130.71 776.24C131.718 776.24 132.614 775.84 133.206 775.04L133.382 776H134.646V767.68H133.11V772.752C133.11 773.888 132.454 774.928 131.062 774.928C129.99 774.928 129.334 774.368 129.334 773.136V767.68H127.798ZM138.429 764.48H136.893V776H138.429V764.48ZM144.387 774.768C143.923 774.88 143.715 774.896 143.443 774.896C142.867 774.896 142.563 774.592 142.563 773.968V768.992H144.355V767.68H142.563V765.68H141.123L141.027 767.68H139.795V768.992H141.027V773.936C141.027 775.312 141.779 776.24 143.251 776.24C143.635 776.24 143.971 776.192 144.387 776.08V774.768ZM145.191 773.616C145.335 775.216 146.695 776.24 148.775 776.24C150.983 776.24 152.247 775.152 152.247 773.632C152.247 771.92 150.967 771.376 149.031 770.944C147.431 770.592 147.095 770.304 147.095 769.664C147.095 769.088 147.607 768.656 148.759 768.656C149.815 768.656 150.439 769.104 150.615 769.872H152.183C151.911 768.352 150.631 767.44 148.775 767.44C146.679 767.44 145.543 768.384 145.543 769.808C145.543 771.04 146.327 771.776 148.279 772.208C149.767 772.544 150.695 772.768 150.695 773.744C150.695 774.464 150.039 775.024 148.791 775.024C147.623 775.024 146.935 774.608 146.759 773.616H145.191Z" fill="#007593"/>
<path d="M46 730V728H44V730H46ZM206 730H208V728H206V730ZM206 810V812H208V810H206ZM46 810H44V812H46V810ZM46 732H206V728H46V732ZM204 730V810H208V730H204ZM206 808H46V812H206V808ZM48 810V730H44V810H48Z" fill="#0092B7"/>
<rect x="49" y="887" width="156" height="76" fill="#DFDFDF" stroke="#0092B7" stroke-width="4"/>
<path d="M79.7189 923.176C79.5589 921.064 77.6069 919.24 74.8389 919.24C71.6709 919.24 69.4309 921.352 69.4309 925.24C69.4309 929.08 71.4949 931.24 74.7109 931.24C77.6389 931.24 79.6069 929.176 79.7349 926.936H78.0869C77.9909 928.6 76.6149 929.864 74.7429 929.864C72.5829 929.864 71.0949 928.216 71.0949 925.24C71.0949 922.12 72.6309 920.6 74.8389 920.6C76.6149 920.6 77.8629 921.608 78.0709 923.176H79.7189ZM81.0072 926.84C81.0072 929.72 82.7832 931.24 85.1032 931.24C87.4552 931.24 89.2152 929.752 89.2152 926.84C89.2152 923.848 87.3912 922.44 85.1192 922.44C82.8632 922.44 81.0072 923.848 81.0072 926.84ZM82.6072 926.84C82.6072 924.76 83.6952 923.688 85.1192 923.688C86.5432 923.688 87.6152 924.728 87.6152 926.84C87.6152 928.904 86.6072 929.992 85.1352 929.992C83.6952 929.992 82.6072 928.904 82.6072 926.84ZM92.5076 931V925.88C92.5076 924.696 93.3876 923.752 94.5076 923.752C95.5636 923.752 96.1236 924.264 96.1236 925.544V931H97.6596V925.928C97.6596 924.792 98.4276 923.752 99.6596 923.752C100.732 923.752 101.276 924.28 101.276 925.544V931H102.812V925.432C102.812 923.448 101.692 922.44 99.9956 922.44C98.9876 922.44 97.9316 922.744 97.2916 923.752C96.8276 922.888 95.9476 922.44 94.8436 922.44C93.9156 922.44 93.0036 922.776 92.3956 923.656L92.2356 922.68H90.9716V931H92.5076ZM106.508 931V925.88C106.508 924.696 107.388 923.752 108.508 923.752C109.564 923.752 110.124 924.264 110.124 925.544V931H111.66V925.928C111.66 924.792 112.428 923.752 113.66 923.752C114.732 923.752 115.276 924.28 115.276 925.544V931H116.812V925.432C116.812 923.448 115.692 922.44 113.996 922.44C112.988 922.44 111.932 922.744 111.292 923.752C110.828 922.888 109.948 922.44 108.844 922.44C107.916 922.44 107.004 922.776 106.396 923.656L106.236 922.68H104.972V931H106.508ZM118.492 926.84C118.492 929.72 120.268 931.24 122.588 931.24C124.94 931.24 126.7 929.752 126.7 926.84C126.7 923.848 124.876 922.44 122.604 922.44C120.348 922.44 118.492 923.848 118.492 926.84ZM120.092 926.84C120.092 924.76 121.18 923.688 122.604 923.688C124.028 923.688 125.1 924.728 125.1 926.84C125.1 928.904 124.092 929.992 122.62 929.992C121.18 929.992 120.092 928.904 120.092 926.84ZM129.992 931V925.864C129.992 924.552 130.952 923.752 132.056 923.752C133.192 923.752 133.832 924.344 133.832 925.592V931H135.368V925.576C135.368 923.544 134.232 922.44 132.424 922.44C131.432 922.44 130.504 922.888 129.896 923.736L129.72 922.68H128.456V931H129.992ZM142.411 919.48V931H146.043C149.419 931 151.819 928.968 151.819 925.24C151.819 921.288 149.547 919.48 146.155 919.48H142.411ZM146.171 920.776C148.635 920.776 150.171 922.216 150.171 925.24C150.171 928.136 148.731 929.656 146.203 929.656H144.043V920.776H146.171ZM159.323 928.6C159.083 929.368 158.315 929.944 157.307 929.944C155.915 929.944 154.875 929.096 154.747 927.176H161.083C161.083 923.816 159.483 922.44 157.179 922.44C154.875 922.44 153.179 923.944 153.179 926.84C153.179 929.768 154.891 931.24 157.259 931.24C159.259 931.24 160.571 930.12 160.987 928.6H159.323ZM154.811 925.96C155.051 924.424 155.979 923.672 157.211 923.672C158.491 923.672 159.403 924.408 159.515 925.96H154.811ZM164.461 931V925.88C164.461 924.696 165.341 923.752 166.461 923.752C167.517 923.752 168.077 924.264 168.077 925.544V931H169.613V925.928C169.613 924.792 170.381 923.752 171.613 923.752C172.685 923.752 173.229 924.28 173.229 925.544V931H174.765V925.432C174.765 923.448 173.645 922.44 171.949 922.44C170.941 922.44 169.885 922.744 169.245 923.752C168.781 922.888 167.901 922.44 166.797 922.44C165.869 922.44 164.957 922.776 164.349 923.656L164.189 922.68H162.925V931H164.461ZM176.445 926.84C176.445 929.72 178.221 931.24 180.541 931.24C182.893 931.24 184.653 929.752 184.653 926.84C184.653 923.848 182.829 922.44 180.557 922.44C178.301 922.44 176.445 923.848 176.445 926.84ZM178.045 926.84C178.045 924.76 179.133 923.688 180.557 923.688C181.981 923.688 183.053 924.728 183.053 926.84C183.053 928.904 182.045 929.992 180.573 929.992C179.133 929.992 178.045 928.904 178.045 926.84Z" fill="#007593"/>
<path d="M47 885V883H45V885H47ZM207 885H209V883H207V885ZM207 965V967H209V965H207ZM47 965H45V967H47V965ZM47 887H207V883H47V887ZM205 885V965H209V885H205ZM207 963H47V967H207V963ZM49 965V885H45V965H49Z" fill="#0092B7"/>
<path d="M646 216V296" stroke="#6ABF4B" stroke-width="3"/>
<path d="M670 273L646 297L622 273" stroke="#6ABF4B" stroke-width="3"/>
<path d="M407 659V728" stroke="#6ABF4B" stroke-width="3"/>
<path d="M431 705L407 729L383 705" stroke="#6ABF4B" stroke-width="3"/>
<path d="M605 426V472C605 488.569 591.569 502 575 502H437C420.431 502 407 515.431 407 532V578" stroke="#6ABF4B" stroke-width="3"/>
<path d="M431 555L407 579L383 555" stroke="#6ABF4B" stroke-width="3"/>
<circle cx="605" cy="426" r="5" transform="rotate(-90 605 426)" fill="#6ABF4B"/>
<path d="M691 424V470C691 486.569 704.431 500 721 500H853C869.569 500 883 513.431 883 530V576" stroke="#6ABF4B" stroke-width="3"/>
<path d="M859 553L883 577L907 553" stroke="#6ABF4B" stroke-width="3"/>
<circle r="5" transform="matrix(0 -1 -1 0 691 424)" fill="#6ABF4B"/>
<path d="M723 393V454.5C723 471.069 736.431 484.5 753 484.5H1109C1125.57 484.5 1139 497.931 1139 514.5V576" stroke="#6ABF4B" stroke-width="3"/>
<path d="M1115 553L1139 577L1163 553" stroke="#6ABF4B" stroke-width="3"/>
<circle r="5" transform="matrix(0 -1 -1 0 723 393)" fill="#6ABF4B"/>
<path d="M572 391V453C572 469.569 558.569 483 542 483H152C135.431 483 122 496.431 122 513V575" stroke="#6ABF4B" stroke-width="3"/>
<path d="M146 552L122 576L98 552" stroke="#6ABF4B" stroke-width="3"/>
<circle cx="572" cy="391" r="5" transform="rotate(-90 572 391)" fill="#6ABF4B"/>
<path d="M187 347V347C187 366.882 203.118 383 223 383H562" stroke="#6ABF4B" stroke-width="3"/>
<rect x="137" y="325" width="100" height="40" rx="20" fill="#FBAB18"/>
<path d="M181.623 344.472H176.535V340.856H182.087V339.48H174.903V351H182.087V349.624H176.535V345.816H181.623V344.472ZM190.715 342.68H188.955L187.067 345.48L185.083 342.68H183.243L186.155 346.68L183.051 351H184.859L187.067 347.784L189.323 351H191.195L187.931 346.568L190.715 342.68ZM194.111 341.288V339.48H192.383V341.288H194.111ZM194.015 351V342.68H192.479V351H194.015ZM199.973 349.768C199.509 349.88 199.301 349.896 199.029 349.896C198.453 349.896 198.149 349.592 198.149 348.968V343.992H199.941V342.68H198.149V340.68H196.709L196.613 342.68H195.381V343.992H196.613V348.936C196.613 350.312 197.365 351.24 198.837 351.24C199.221 351.24 199.557 351.192 199.973 351.08V349.768Z" fill="#343A40"/>
<path d="M46 616H36C19.4315 616 6 629.431 6 646V773.5V901C6 917.569 19.4315 931 36 931H46" stroke="#6ABF4B" stroke-width="3"/>
<path d="M23 907L47 931L23 955" stroke="#6ABF4B" stroke-width="3"/>
<circle cx="46" cy="616" r="5" fill="#6ABF4B"/>
<path d="M207 618H213C229.569 618 243 631.431 243 648V697V746C243 762.569 229.569 776 213 776H207" stroke="#6ABF4B" stroke-width="3"/>
<path d="M230 752L206 776L230 800" stroke="#6ABF4B" stroke-width="3"/>
<circle r="5" transform="matrix(-1 0 0 1 207 618)" fill="#6ABF4B"/>
<path d="M726 616H733C749.569 616 763 629.431 763 646V695V744C763 760.569 749.569 774 733 774H726" stroke="#6ABF4B" stroke-width="3"/>
<path d="M749 750L725 774L749 798" stroke="#6ABF4B" stroke-width="3"/>
<circle r="5" transform="matrix(-1 0 0 1 726 616)" fill="#6ABF4B"/>
<path d="M565 616H554C537.431 616 524 629.431 524 646V774V902C524 918.569 537.431 932 554 932H565" stroke="#6ABF4B" stroke-width="3"/>
<path d="M542 908L566 932L542 956" stroke="#6ABF4B" stroke-width="3"/>
<circle cx="565" cy="616" r="5" fill="#6ABF4B"/>
<rect x="814" y="278" width="100" height="40" rx="20" fill="#FBAB18"/>
<path d="M852.197 292.48L848.661 302.464L845.173 292.48H843.445L847.637 304H849.669L853.797 292.48H852.197ZM853.804 299.84C853.804 302.72 855.58 304.24 857.9 304.24C860.252 304.24 862.012 302.752 862.012 299.84C862.012 296.848 860.188 295.44 857.916 295.44C855.66 295.44 853.804 296.848 853.804 299.84ZM855.404 299.84C855.404 297.76 856.492 296.688 857.916 296.688C859.34 296.688 860.412 297.728 860.412 299.84C860.412 301.904 859.404 302.992 857.932 302.992C856.492 302.992 855.404 301.904 855.404 299.84ZM865.4 294.288V292.48H863.672V294.288H865.4ZM865.304 304V295.68H863.768V304H865.304ZM872.974 301.328C872.814 302.368 872.062 302.944 871.038 302.944C869.742 302.944 868.702 301.984 868.702 299.952C868.702 297.744 869.662 296.736 871.022 296.736C871.998 296.736 872.686 297.232 872.894 298.144H874.59C874.318 296.448 872.878 295.44 870.99 295.44C868.638 295.44 867.07 297.12 867.07 299.904C867.07 302.72 868.798 304.24 871.006 304.24C873.07 304.24 874.43 302.944 874.654 301.328H872.974ZM882.073 301.6C881.833 302.368 881.065 302.944 880.057 302.944C878.665 302.944 877.625 302.096 877.497 300.176H883.833C883.833 296.816 882.233 295.44 879.929 295.44C877.625 295.44 875.929 296.944 875.929 299.84C875.929 302.768 877.641 304.24 880.009 304.24C882.009 304.24 883.321 303.12 883.737 301.6H882.073ZM877.561 298.96C877.801 297.424 878.729 296.672 879.961 296.672C881.241 296.672 882.153 297.408 882.265 298.96H877.561Z" fill="#343A40"/>
<rect x="367" y="273" width="100" height="40" rx="20" fill="#FBAB18"/>
<path d="M408.051 287.48H398.723V288.936H402.547V299H404.179V288.936H408.051V287.48ZM416.267 290.68H414.731L412.379 297.752L410.027 290.68H408.363L411.419 299H411.915C411.435 300.312 411.195 300.84 410.459 300.84C410.203 300.84 409.979 300.808 409.659 300.728V301.976C410.107 302.088 410.315 302.12 410.651 302.12C412.187 302.12 412.747 300.936 413.371 299.112L416.267 290.68ZM417.542 290.68V301.88H419.078V297.928C419.606 298.696 420.486 299.24 421.75 299.24C423.942 299.24 425.526 297.656 425.526 294.776C425.526 292.008 424.054 290.44 421.862 290.44C420.582 290.44 419.638 291 419.046 291.768L418.806 290.68H417.542ZM423.926 294.744C423.926 296.936 422.95 297.928 421.51 297.928C420.006 297.928 418.998 296.76 418.998 294.744C418.998 292.76 420.134 291.752 421.51 291.752C422.886 291.752 423.926 292.696 423.926 294.744ZM432.956 296.6C432.716 297.368 431.948 297.944 430.94 297.944C429.548 297.944 428.508 297.096 428.38 295.176H434.716C434.716 291.816 433.116 290.44 430.812 290.44C428.508 290.44 426.812 291.944 426.812 294.84C426.812 297.768 428.524 299.24 430.892 299.24C432.892 299.24 434.204 298.12 434.62 296.6H432.956ZM428.444 293.96C428.684 292.424 429.612 291.672 430.844 291.672C432.124 291.672 433.036 292.408 433.148 293.96H428.444Z" fill="#212529"/>
<path d="M859 317V317C859 336.882 842.882 353 823 353H702" stroke="#6ABF4B" stroke-width="3"/>
<path d="M407 314V314C407 333.882 423.118 350 443 350H594" stroke="#6ABF4B" stroke-width="3"/>
</svg>
