<svg width="975" height="556" viewBox="0 0 975 556" fill="none" xmlns="http://www.w3.org/2000/svg">
<g clip-path="url(#clip0)">
<g clip-path="url(#clip1)">
<path d="M876.981 258.74C876.981 257.291 875.823 256.117 874.401 256.117C872.975 256.117 871.817 257.291 871.817 258.74V264.258C871.817 265.714 872.975 266.889 874.401 266.889C875.823 266.889 876.981 265.714 876.981 264.258V258.74ZM862.785 251.498C862.785 250.05 861.63 248.874 860.172 248.874C858.746 248.874 857.591 250.05 857.591 251.498V264.258C857.591 265.714 858.746 266.889 860.172 266.889C861.63 266.889 862.785 265.714 862.785 264.258V251.498V251.498ZM848.559 241.591C848.559 240.142 847.404 238.967 845.979 238.967C844.553 238.967 843.398 240.142 843.398 241.591V269.501C843.398 270.958 844.553 272.132 845.979 272.132C847.404 272.132 848.559 270.958 848.559 269.501V241.591ZM834.33 251.498C834.33 250.05 833.176 248.874 831.75 248.874C830.327 248.874 829.169 250.05 829.169 251.498V264.258C829.169 265.714 830.327 266.889 831.75 266.889C833.176 266.889 834.33 265.714 834.33 264.258V251.498V251.498ZM820.105 258.74C820.105 257.291 818.95 256.117 817.533 256.117C816.107 256.117 814.944 257.291 814.944 258.74V264.258C814.944 265.714 816.107 266.889 817.533 266.889C818.95 266.889 820.105 265.714 820.105 264.258V258.74ZM805.902 251.498C805.902 250.05 804.739 248.874 803.314 248.874C801.888 248.874 800.724 250.05 800.724 251.498V264.258C800.724 265.714 801.888 266.889 803.314 266.889C804.739 266.889 805.902 265.714 805.902 264.258V251.498V251.498ZM791.683 241.591C791.683 240.142 790.52 238.967 789.094 238.967C787.669 238.967 786.505 240.142 786.505 241.591V269.501C786.505 270.958 787.669 272.132 789.094 272.132C790.52 272.132 791.683 270.958 791.683 269.501V241.591ZM777.464 251.498C777.464 250.05 776.301 248.874 774.875 248.874C773.449 248.874 772.286 250.05 772.286 251.498V264.258C772.286 265.714 773.449 266.889 774.875 266.889C776.301 266.889 777.464 265.714 777.464 264.258V251.498ZM763.245 258.74C763.245 257.291 762.082 256.117 760.656 256.117C759.232 256.117 758.067 257.291 758.067 258.74V264.258C758.067 265.714 759.232 266.889 760.656 266.889C762.082 266.889 763.245 265.714 763.245 264.258V258.74ZM816.687 281.618C816.532 281.575 814.144 280.949 811.605 280.949C806.799 280.949 803.905 283.588 803.905 287.519C803.905 290.999 806.326 292.735 809.231 293.668C809.553 293.776 810.028 293.927 810.344 294.034C811.637 294.448 812.669 295.063 812.669 296.128C812.669 297.319 811.476 298.09 808.883 298.09C806.603 298.09 804.418 297.427 803.958 297.309V302.145C804.215 302.201 806.812 302.719 809.586 302.719C813.576 302.719 818.14 300.946 818.14 295.666C818.14 293.105 816.599 290.748 813.215 289.654L811.776 289.188C810.918 288.912 809.386 288.466 809.386 287.186C809.386 286.175 810.521 285.464 812.611 285.464C814.415 285.464 816.61 286.08 816.687 286.105V281.618V281.618ZM860.752 291.834C860.752 294.892 858.449 297.366 855.359 297.366C852.266 297.366 849.969 294.892 849.969 291.834C849.969 288.782 852.266 286.307 855.359 286.307C858.449 286.307 860.752 288.782 860.752 291.834V291.834ZM855.359 280.955C849.004 280.955 844.446 285.831 844.446 291.834C844.446 297.847 849.004 302.719 855.359 302.719C861.714 302.719 866.278 297.847 866.278 291.834C866.278 285.831 861.714 280.955 855.359 280.955V280.955ZM784.531 281.708C784.041 281.561 782.23 280.955 779.777 280.955C773.431 280.955 768.773 285.557 768.773 291.834C768.773 298.606 773.915 302.719 779.777 302.719C782.106 302.719 783.883 302.158 784.531 301.971V296.329C784.307 296.456 782.603 297.445 780.151 297.445C776.677 297.445 774.436 294.958 774.436 291.834C774.436 288.615 776.774 286.228 780.151 286.228C782.645 286.228 784.321 287.239 784.531 287.35V281.708V281.708ZM838.956 281.708C838.462 281.561 836.65 280.955 834.205 280.955C827.85 280.955 823.192 285.557 823.192 291.834C823.192 298.606 828.34 302.719 834.205 302.719C836.521 302.719 838.301 302.158 838.956 301.971V296.329C838.727 296.456 837.021 297.445 834.569 297.445C831.098 297.445 828.86 294.958 828.86 291.834C828.86 288.615 831.198 286.228 834.569 286.228C837.062 286.228 838.743 287.239 838.956 287.35V281.708V281.708ZM796.913 302.345H791.699V281.328H796.913V302.345Z" fill="#00BCEB"/>
</g>
<path fill-rule="evenodd" clip-rule="evenodd" d="M467.135 235.759C475.801 235.759 482.827 242.785 482.827 251.452V278.914C482.827 287.581 475.801 294.606 467.135 294.606C458.468 294.606 451.442 287.581 451.442 278.914V251.452C451.442 242.785 458.468 235.759 467.135 235.759ZM471.058 310.056V314.222H482.827V322.069H451.442V314.222H463.212V310.056C447.73 308.126 435.75 294.919 435.75 278.914V271.068H443.596V278.914C443.596 291.914 454.135 302.453 467.135 302.453C480.135 302.453 490.674 291.914 490.674 278.914V271.068H498.52V278.914C498.52 294.919 486.54 308.126 471.058 310.056ZM459.289 251.452C459.289 247.118 462.801 243.605 467.135 243.605C471.468 243.605 474.981 247.118 474.981 251.452V278.914C474.981 283.247 471.468 286.76 467.135 286.76C462.801 286.76 459.289 283.247 459.289 278.914V251.452Z" fill="black"/>
<path d="M322.164 248.355L295.98 234.958L317.8 174.67L323.551 144.266C324.298 140.316 326.045 136.636 328.617 133.593C331.19 130.551 334.497 128.252 338.21 126.928C341.922 125.603 345.91 125.299 349.773 126.045C353.637 126.791 357.241 128.562 360.226 131.18V131.18C364.65 135.06 367.427 140.547 367.973 146.483C368.518 152.419 366.788 158.34 363.148 162.995L341.802 190.3L322.164 248.355Z" fill="#A0616A"/>
<path d="M331.259 240.967L326.359 256.127L304.369 324.23C302.216 330.907 298.16 336.828 292.687 341.283C287.215 345.738 280.559 348.538 273.516 349.346C266.474 350.155 259.346 348.938 252.986 345.841C246.626 342.745 241.305 337.9 237.661 331.889L166.373 211.118C165.233 209.236 164.26 207.26 163.465 205.212C160.02 196.275 160.192 186.369 163.944 177.553C167.696 168.737 174.741 161.69 183.613 157.875C192.486 154.06 202.505 153.771 211.587 157.069C220.67 160.366 228.118 166.996 232.383 175.58L275.905 267.231L295.824 223.463L331.259 240.967Z" fill="#E6E6E6"/>
<path d="M320.521 682.653L272.029 687.039L245.579 496.274C158.39 510.866 76.1359 515.54 4.9894 497.889C-1.02268 496.418 -6.66404 493.726 -11.5807 489.983C-16.4973 486.24 -20.583 481.526 -23.5811 476.137C-26.5792 470.748 -28.425 464.801 -29.0027 458.669C-29.5804 452.537 -28.8775 446.352 -26.9381 440.503C-18.4232 415.223 -3.42161 388.132 14.1392 360.327L130.961 401.988L135.37 419.53L259.975 403.839C266.267 403.047 272.657 403.565 278.737 405.361C284.817 407.157 290.456 410.192 295.294 414.272C300.132 418.352 304.064 423.389 306.84 429.062C309.616 434.736 311.175 440.921 311.419 447.226L320.521 682.653Z" fill="#2F2E41"/>
<path d="M332.792 659.625L284.3 664.031L257.85 472.37C170.661 487.03 88.4067 491.727 17.2602 473.992C11.2481 472.514 5.60657 469.81 0.689943 466.05C-4.22668 462.289 -8.31225 457.553 -11.3104 452.139C-14.3085 446.725 -16.1543 440.75 -16.732 434.589C-17.3097 428.428 -16.6068 422.214 -14.6673 416.338C-6.15246 390.938 8.84916 363.72 26.41 335.785L143.232 377.642L147.64 395.266L272.246 379.501C278.538 378.705 284.928 379.226 291.008 381.03C297.088 382.835 302.727 385.884 307.565 389.983C312.403 394.083 316.335 399.143 319.111 404.843C321.887 410.543 323.446 416.758 323.69 423.092L332.792 659.625Z" fill="#2F2E41"/>
<path d="M244.595 134.849C211.981 134.849 185.542 108.066 185.542 75.0283C185.542 41.9903 211.981 15.2078 244.595 15.2078C277.21 15.2078 303.649 41.9903 303.649 75.0283C303.649 108.066 277.21 134.849 244.595 134.849Z" fill="#A0616A"/>
<path d="M242.731 196.203L174.805 187.375L201.1 105.706H266.836L242.731 196.203Z" fill="#A0616A"/>
<path d="M261.14 278.756C257.696 288.352 252.702 297.314 246.36 305.285C237.319 316.415 226.457 325.921 214.237 333.396C212.108 334.779 209.901 336.104 207.615 337.408L194.568 348.558L148.473 387.936L21.4188 339.603C49.4428 277.135 84.4039 227.754 124.469 187.98C132.793 175.734 144.659 166.341 158.469 161.067C172.278 155.794 187.367 154.893 201.703 158.486L249.237 170.406C266.146 210.437 272.433 247.245 261.14 278.756Z" fill="#E6E6E6"/>
<path d="M365.098 107.028C365.844 106.29 366.818 105.831 367.86 105.728C368.901 105.625 369.947 105.884 370.821 106.462C371.99 107.701 410.242 130.476 407.843 132.735C407.915 133.42 407.833 134.113 407.602 134.762C407.372 135.411 407 136 406.513 136.485L317.614 225.421C317.182 225.854 316.669 226.196 316.104 226.427C315.539 226.658 314.934 226.774 314.324 226.767C312.536 229.064 283.399 195.701 281.928 195.062C281.086 194.182 280.624 193.004 280.642 191.784C280.659 190.564 281.156 189.4 282.023 188.545L365.098 107.028Z" fill="#3F3D56"/>
<path d="M399.697 131.986L396.047 129.649C396.411 130.337 396.537 131.128 396.405 131.896C396.273 132.664 395.889 133.366 395.316 133.892C394.742 134.417 394.011 134.736 393.237 134.798C392.463 134.86 391.69 134.661 391.041 134.234L367.422 117.929C366.893 117.554 366.478 117.039 366.224 116.441C365.969 115.843 365.885 115.186 365.98 114.543C366.076 113.9 366.347 113.297 366.763 112.799C367.18 112.301 367.726 111.93 368.341 111.725C367.406 111.406 365.894 109.499 364.88 110.7L285.422 189.102C282.591 190.486 314.293 218.069 314.31 219.153C316.676 221.801 398.18 134.017 399.913 133.957C400.047 133.822 400.148 133.659 400.211 133.479C400.274 133.3 400.295 133.108 400.275 132.919C400.254 132.73 400.191 132.548 400.091 132.387C399.991 132.225 399.856 132.088 399.697 131.986V131.986Z" fill="white"/>
<path d="M308.251 170.538L332.312 193.136L389.545 136.811L360.5 117.977L308.251 170.538Z" fill="#E53935"/>
<path d="M386.663 151.449C385.388 150.295 391.083 145.168 391.329 144.324C391.477 144.149 391.673 144.052 391.878 144.052C392.082 144.052 392.279 144.149 392.427 144.324C393.702 145.478 388.007 150.606 387.761 151.45C387.613 151.624 387.417 151.721 387.212 151.721C387.008 151.721 386.811 151.624 386.663 151.449V151.449Z" fill="#E6E6E6"/>
<path d="M379.04 158.942C379.737 158.557 383.817 150.113 384.759 151.994C386.025 153.385 380.373 159.561 380.13 160.578C379.435 161.65 378.323 159.989 379.04 158.942Z" fill="#E6E6E6"/>
<path d="M314.385 190.835C314.487 197.993 303.547 197.993 303.649 190.834C303.548 183.677 314.488 183.677 314.385 190.835Z" fill="#E53935"/>
<path opacity="0.2" d="M245.362 304.725C236.269 315.87 225.342 325.389 213.05 332.873C210.909 334.259 208.689 335.585 206.389 336.891L193.266 348.056C167.217 313.87 168.684 210.008 168.684 210.008L208.332 213.967L245.362 304.725Z" fill="black"/>
<path d="M324.255 277.498L297.514 264.268L319.798 204.734L325.671 174.711C326.434 170.81 328.219 167.176 330.846 164.171C333.473 161.167 336.851 158.897 340.642 157.589C344.434 156.281 348.506 155.98 352.452 156.717C356.397 157.454 360.078 159.203 363.127 161.788V161.788C367.645 165.62 370.482 171.038 371.038 176.9C371.595 182.762 369.829 188.608 366.112 193.206L344.311 220.169L324.255 277.498Z" fill="#A0616A"/>
<path d="M297.363 254.129L332.792 271.639L305.905 354.913C303.975 360.893 300.513 366.278 295.857 370.546C291.201 374.815 285.509 377.822 279.331 379.276V379.276C271.714 381.069 263.717 380.417 256.5 377.415C249.282 374.413 243.22 369.216 239.191 362.58L167.895 241.785C162.843 233.461 161.283 223.515 163.55 214.07C165.816 204.625 171.729 196.431 180.026 191.237V191.237C184.488 188.444 189.495 186.61 194.721 185.856C199.947 185.102 205.276 185.444 210.359 186.86C215.443 188.277 220.168 190.735 224.227 194.075C228.286 197.416 231.587 201.564 233.917 206.249L277.434 297.905L297.363 254.129Z" fill="#E6E6E6"/>
<path d="M266.892 50.8481C271.716 54.9111 277.161 58.1564 283.015 60.4575C285.952 61.5872 289.098 62.0548 292.233 61.8275C295.368 61.6002 298.416 60.6835 301.163 59.1417C304.175 56.9563 306.55 53.9937 308.04 50.5638C309.53 47.1339 310.081 43.3627 309.633 39.6445C308.629 32.205 305.67 25.1732 301.063 19.2805C293.116 8.11803 282.668 -0.987811 270.572 -7.29349C258.476 -13.5992 245.074 -16.9259 231.461 -17.0018C217.849 -17.0778 204.412 -13.901 192.247 -7.73074C180.082 -1.56049 169.535 7.42814 161.467 18.5012C155.586 25.915 151.969 34.8979 151.059 44.353C150.213 60.963 161.466 76.4684 160.263 93.056C159.245 107.086 149.275 119.104 137.466 126.564C125.657 134.023 112.01 137.805 98.8066 142.285C85.6031 146.765 72.2511 152.292 62.4788 162.316C52.7065 172.34 47.3163 187.895 52.6804 200.877C57.0881 211.545 67.5622 218.329 78.0645 222.924C106.226 235.102 137.859 236.302 166.846 226.289C177.533 222.547 189.202 215.061 189.364 203.639C189.435 198.682 187.226 194.027 185.899 189.254C184.573 184.481 184.325 178.787 187.652 175.142C191.778 170.621 199.403 171.662 204.335 175.268C209.266 178.873 212.472 184.343 216.541 188.917C224.266 197.602 235.978 203.15 247.424 201.514C258.87 199.878 269.215 190.031 269.688 178.366C270.502 158.327 245.643 145.781 242.941 125.911C241.136 112.641 249.69 100.501 257.103 89.3932C264.516 78.2856 271.41 64.3692 266.221 52.0418" fill="#2F2E41"/>
<path fill-rule="evenodd" clip-rule="evenodd" d="M601.082 235.76H561.85C557.517 235.76 554.004 239.272 554.004 243.606V314.222C554.004 318.556 557.517 322.069 561.85 322.069H601.082C605.415 322.069 608.928 318.556 608.928 314.222V243.606C608.928 239.272 605.415 235.76 601.082 235.76ZM561.851 243.606H573.62C573.62 245.772 575.377 247.529 577.544 247.529H585.39C587.557 247.529 589.313 245.772 589.313 243.606H601.082V314.222H561.851V243.606Z" fill="black"/>
</g>
<defs>
<clipPath id="clip0">
<rect width="973.836" height="555.517" fill="white" transform="translate(0.392822 0.48291)"/>
</clipPath>
<clipPath id="clip1">
<rect width="119.712" height="64.5637" fill="white" transform="translate(757.672 238.562)"/>
</clipPath>
</defs>
</svg>
