<svg width="975" height="556" viewBox="0 0 975 556" fill="none" xmlns="http://www.w3.org/2000/svg">
<g clip-path="url(#clip0)">
<g clip-path="url(#clip1)">
<path d="M876.981 258.74C876.981 257.291 875.823 256.117 874.401 256.117C872.975 256.117 871.817 257.291 871.817 258.74V264.258C871.817 265.714 872.975 266.889 874.401 266.889C875.823 266.889 876.981 265.714 876.981 264.258V258.74ZM862.785 251.498C862.785 250.05 861.63 248.874 860.172 248.874C858.746 248.874 857.591 250.05 857.591 251.498V264.258C857.591 265.714 858.746 266.889 860.172 266.889C861.63 266.889 862.785 265.714 862.785 264.258V251.498ZM848.559 241.591C848.559 240.142 847.404 238.967 845.979 238.967C844.553 238.967 843.398 240.142 843.398 241.591V269.501C843.398 270.958 844.553 272.132 845.979 272.132C847.404 272.132 848.559 270.958 848.559 269.501V241.591ZM834.33 251.498C834.33 250.05 833.176 248.874 831.75 248.874C830.327 248.874 829.169 250.05 829.169 251.498V264.258C829.169 265.714 830.327 266.889 831.75 266.889C833.176 266.889 834.33 265.714 834.33 264.258V251.498ZM820.105 258.74C820.105 257.291 818.95 256.117 817.533 256.117C816.107 256.117 814.944 257.291 814.944 258.74V264.258C814.944 265.714 816.107 266.889 817.533 266.889C818.95 266.889 820.105 265.714 820.105 264.258V258.74ZM805.902 251.498C805.902 250.05 804.739 248.874 803.314 248.874C801.888 248.874 800.724 250.05 800.724 251.498V264.258C800.724 265.714 801.888 266.889 803.314 266.889C804.739 266.889 805.902 265.714 805.902 264.258V251.498ZM791.683 241.591C791.683 240.142 790.52 238.967 789.094 238.967C787.669 238.967 786.505 240.142 786.505 241.591V269.501C786.505 270.958 787.669 272.132 789.094 272.132C790.52 272.132 791.683 270.958 791.683 269.501V241.591ZM777.464 251.498C777.464 250.05 776.301 248.874 774.875 248.874C773.449 248.874 772.286 250.05 772.286 251.498V264.258C772.286 265.714 773.449 266.889 774.875 266.889C776.301 266.889 777.464 265.714 777.464 264.258V251.498ZM763.245 258.74C763.245 257.291 762.082 256.117 760.656 256.117C759.232 256.117 758.067 257.291 758.067 258.74V264.258C758.067 265.714 759.232 266.889 760.656 266.889C762.082 266.889 763.245 265.714 763.245 264.258V258.74ZM816.687 281.618C816.532 281.575 814.144 280.949 811.605 280.949C806.799 280.949 803.905 283.588 803.905 287.519C803.905 290.999 806.326 292.735 809.231 293.668C809.553 293.776 810.028 293.927 810.344 294.034C811.637 294.448 812.669 295.063 812.669 296.128C812.669 297.319 811.476 298.09 808.883 298.09C806.603 298.09 804.418 297.427 803.958 297.309V302.145C804.215 302.201 806.812 302.719 809.586 302.719C813.576 302.719 818.14 300.946 818.14 295.666C818.14 293.105 816.599 290.748 813.215 289.654L811.776 289.188C810.918 288.912 809.386 288.466 809.386 287.186C809.386 286.175 810.521 285.464 812.611 285.464C814.415 285.464 816.61 286.08 816.687 286.105V281.618ZM860.752 291.834C860.752 294.892 858.449 297.366 855.359 297.366C852.266 297.366 849.969 294.892 849.969 291.834C849.969 288.782 852.266 286.307 855.359 286.307C858.449 286.307 860.752 288.782 860.752 291.834ZM855.359 280.955C849.004 280.955 844.446 285.831 844.446 291.834C844.446 297.847 849.004 302.719 855.359 302.719C861.714 302.719 866.278 297.847 866.278 291.834C866.278 285.831 861.714 280.955 855.359 280.955ZM784.531 281.708C784.041 281.561 782.23 280.955 779.777 280.955C773.431 280.955 768.773 285.557 768.773 291.834C768.773 298.606 773.915 302.719 779.777 302.719C782.106 302.719 783.883 302.158 784.531 301.971V296.329C784.307 296.456 782.603 297.445 780.151 297.445C776.677 297.445 774.436 294.958 774.436 291.834C774.436 288.615 776.774 286.228 780.151 286.228C782.645 286.228 784.321 287.239 784.531 287.35V281.708ZM838.956 281.708C838.462 281.561 836.65 280.955 834.205 280.955C827.85 280.955 823.192 285.557 823.192 291.834C823.192 298.606 828.34 302.719 834.205 302.719C836.521 302.719 838.301 302.158 838.956 301.971V296.329C838.727 296.456 837.021 297.445 834.569 297.445C831.098 297.445 828.86 294.958 828.86 291.834C828.86 288.615 831.198 286.228 834.569 286.228C837.062 286.228 838.743 287.239 838.956 287.35V281.708ZM796.913 302.345H791.699V281.328H796.913V302.345Z" fill="#00BCEB"/>
</g>
<path fill-rule="evenodd" clip-rule="evenodd" d="M186.342 212.994C199.584 212.994 210.318 223.729 210.318 236.971V278.93C210.318 292.171 199.584 302.906 186.342 302.906C173.1 302.906 162.366 292.171 162.366 278.93V236.971C162.366 223.729 173.1 212.994 186.342 212.994ZM192.336 326.512V332.877H210.319V344.865H162.366V332.877H180.348V326.512C156.694 323.562 138.389 303.383 138.389 278.93V266.942H150.378V278.93C150.378 298.792 166.48 314.894 186.342 314.894C206.205 314.894 222.307 298.792 222.307 278.93V266.942H234.295V278.93C234.295 303.383 215.991 323.562 192.336 326.512ZM174.354 236.971C174.354 230.35 179.721 224.982 186.342 224.982C192.963 224.982 198.33 230.35 198.33 236.971V278.929C198.33 285.55 192.963 290.918 186.342 290.918C179.721 290.918 174.354 285.55 174.354 278.929V236.971Z" fill="black"/>
<path fill-rule="evenodd" clip-rule="evenodd" d="M390.998 212.995H331.057C324.436 212.995 319.069 218.362 319.069 224.983V332.877C319.069 339.498 324.436 344.865 331.057 344.865H390.998C397.619 344.865 402.986 339.498 402.986 332.877V224.983C402.986 218.362 397.619 212.995 390.998 212.995ZM331.058 224.983H349.04C349.04 228.293 351.724 230.977 355.034 230.977H367.022C370.333 230.977 373.016 228.293 373.016 224.983H390.999V332.877H331.058V224.983Z" fill="black"/>
</g>
<defs>
<clipPath id="clip0">
<rect width="973.836" height="555.517" fill="white" transform="translate(0.392822 0.48291)"/>
</clipPath>
<clipPath id="clip1">
<rect width="119.712" height="64.5637" fill="white" transform="translate(757.672 238.562)"/>
</clipPath>
</defs>
</svg>
