<svg width="974" height="556" viewBox="0 0 974 556" fill="none" xmlns="http://www.w3.org/2000/svg">
<g clip-path="url(#clip0)">
<g clip-path="url(#clip1)">
<path d="M876.588 258.74C876.588 257.291 875.43 256.117 874.008 256.117C872.582 256.117 871.424 257.291 871.424 258.74V264.258C871.424 265.714 872.582 266.889 874.008 266.889C875.43 266.889 876.588 265.714 876.588 264.258V258.74ZM862.392 251.498C862.392 250.05 861.237 248.874 859.779 248.874C858.353 248.874 857.198 250.05 857.198 251.498V264.258C857.198 265.714 858.353 266.889 859.779 266.889C861.237 266.889 862.392 265.714 862.392 264.258V251.498V251.498ZM848.166 241.591C848.166 240.142 847.011 238.967 845.586 238.967C844.16 238.967 843.005 240.142 843.005 241.591V269.501C843.005 270.958 844.16 272.132 845.586 272.132C847.011 272.132 848.166 270.958 848.166 269.501V241.591ZM833.937 251.498C833.937 250.05 832.783 248.874 831.357 248.874C829.934 248.874 828.776 250.05 828.776 251.498V264.258C828.776 265.714 829.934 266.889 831.357 266.889C832.783 266.889 833.937 265.714 833.937 264.258V251.498V251.498ZM819.712 258.74C819.712 257.291 818.557 256.117 817.139 256.117C815.714 256.117 814.551 257.291 814.551 258.74V264.258C814.551 265.714 815.714 266.889 817.139 266.889C818.557 266.889 819.712 265.714 819.712 264.258V258.74ZM805.509 251.498C805.509 250.05 804.346 248.874 802.92 248.874C801.495 248.874 800.331 250.05 800.331 251.498V264.258C800.331 265.714 801.495 266.889 802.92 266.889C804.346 266.889 805.509 265.714 805.509 264.258V251.498V251.498ZM791.29 241.591C791.29 240.142 790.127 238.967 788.701 238.967C787.276 238.967 786.112 240.142 786.112 241.591V269.501C786.112 270.958 787.276 272.132 788.701 272.132C790.127 272.132 791.29 270.958 791.29 269.501V241.591ZM777.07 251.498C777.07 250.05 775.908 248.874 774.482 248.874C773.056 248.874 771.893 250.05 771.893 251.498V264.258C771.893 265.714 773.056 266.889 774.482 266.889C775.908 266.889 777.07 265.714 777.07 264.258V251.498ZM762.851 258.74C762.851 257.291 761.689 256.117 760.263 256.117C758.839 256.117 757.674 257.291 757.674 258.74V264.258C757.674 265.714 758.839 266.889 760.263 266.889C761.689 266.889 762.851 265.714 762.851 264.258V258.74ZM816.294 281.618C816.139 281.575 813.75 280.949 811.212 280.949C806.406 280.949 803.512 283.588 803.512 287.519C803.512 290.999 805.933 292.735 808.838 293.668C809.16 293.776 809.635 293.927 809.951 294.034C811.244 294.448 812.276 295.063 812.276 296.128C812.276 297.319 811.083 298.09 808.49 298.09C806.21 298.09 804.025 297.427 803.565 297.309V302.145C803.822 302.201 806.419 302.719 809.193 302.719C813.183 302.719 817.747 300.946 817.747 295.666C817.747 293.105 816.206 290.748 812.822 289.654L811.383 289.188C810.525 288.912 808.993 288.466 808.993 287.186C808.993 286.175 810.128 285.464 812.218 285.464C814.022 285.464 816.217 286.08 816.294 286.105V281.618V281.618ZM860.359 291.834C860.359 294.892 858.056 297.366 854.966 297.366C851.873 297.366 849.576 294.892 849.576 291.834C849.576 288.782 851.873 286.307 854.966 286.307C858.056 286.307 860.359 288.782 860.359 291.834V291.834ZM854.966 280.955C848.611 280.955 844.053 285.831 844.053 291.834C844.053 297.847 848.611 302.719 854.966 302.719C861.321 302.719 865.885 297.847 865.885 291.834C865.885 285.831 861.321 280.955 854.966 280.955V280.955ZM784.138 281.708C783.648 281.561 781.837 280.955 779.384 280.955C773.038 280.955 768.38 285.557 768.38 291.834C768.38 298.606 773.522 302.719 779.384 302.719C781.713 302.719 783.49 302.158 784.138 301.971V296.329C783.914 296.456 782.21 297.445 779.758 297.445C776.284 297.445 774.043 294.958 774.043 291.834C774.043 288.615 776.381 286.228 779.758 286.228C782.251 286.228 783.928 287.239 784.138 287.35V281.708V281.708ZM838.563 281.708C838.069 281.561 836.257 280.955 833.812 280.955C827.457 280.955 822.799 285.557 822.799 291.834C822.799 298.606 827.947 302.719 833.812 302.719C836.128 302.719 837.908 302.158 838.563 301.971V296.329C838.334 296.456 836.628 297.445 834.176 297.445C830.705 297.445 828.467 294.958 828.467 291.834C828.467 288.615 830.805 286.228 834.176 286.228C836.669 286.228 838.35 287.239 838.563 287.35V281.708V281.708ZM796.52 302.345H791.305V281.328H796.52V302.345Z" fill="#00BCEB"/>
</g>
<path d="M3.58074 60.0999C29.2635 16.704 80.0749 14.6815 80.0749 14.6815C80.0749 14.6815 129.588 8.34987 161.35 74.4425C190.955 136.046 231.813 195.526 167.928 209.947L156.388 174.031L149.242 212.621C140.146 213.275 131.021 213.431 121.908 213.088C53.4914 210.879 -11.6646 213.734 -9.5667 189.184C-6.77781 156.547 -21.1313 101.856 3.58074 60.0999Z" fill="#2F2E41"/>
<path d="M109 150.924C100.15 170.499 94.5698 193.834 91.2377 219.753L20.1884 215.312C36.5229 192.166 41.9465 165.598 35.7304 135.382L109 150.924Z" fill="#FFB8B8"/>
<path opacity="0.2" d="M109 150.924C100.15 170.499 94.5698 193.834 91.2377 219.753L20.1884 215.312C36.5229 192.166 41.9465 165.598 35.7304 135.382L109 150.924Z" fill="black"/>
<path d="M438.647 523.639C438.647 523.639 475.419 543.336 456.759 560.153C438.099 576.97 413.45 537.893 413.45 537.893L438.647 523.639Z" fill="#FFB8B8"/>
<path d="M-10.898 466.205L-10.3242 493.115L-9.09741 551.257L-8.06853 600.585L66.3884 629.978L227.441 573.834L216.846 514.999L208.288 467.491L204.469 446.22L11.3026 419.578L-10.898 466.205Z" fill="#2F2E41"/>
<path d="M-10.8971 466.205L-10.3198 493.115C58.0208 491.361 163.951 474.865 208.29 467.493L204.471 446.223L11.3059 419.579L-10.8971 466.205Z" fill="#3F3D56"/>
<path d="M74.585 169.797C43.9292 169.797 19.0777 144.946 19.0777 114.29C19.0777 83.6342 43.9292 58.7827 74.585 58.7827C105.241 58.7827 130.092 83.6342 130.092 114.29C130.092 144.946 105.241 169.797 74.585 169.797Z" fill="#FFB8B8"/>
<path d="M-31.9909 496.179C-31.9909 496.179 -38.6517 556.127 1.31352 551.686L7.97441 491.738L43.4991 456.213L143.412 453.993L216.682 522.822C216.682 522.822 218.902 451.773 210.021 445.112C201.14 438.451 181.157 422.909 181.157 422.909V411.808L241.105 289.692C241.105 289.692 205.58 216.422 176.717 214.202L138.972 211.981C138.972 211.981 125.65 205.321 125.65 203.1C125.65 200.88 127.87 183.118 116.769 187.558C116.769 187.558 115.77 164.778 104.069 171.727C104.069 171.727 67.2338 200.591 29.8442 172.993C29.8442 172.993 12.415 169.796 14.6352 178.677C16.8555 187.558 14.6352 194.219 10.1947 194.219C5.75409 194.219 -14.2284 200.88 -14.2284 205.321C-14.2284 206.275 -15.6717 215.467 -17.9362 229.3V229.322C-26.1737 279.745 -45.3126 391.825 -45.3126 391.825C-45.3126 391.825 -65.2952 420.689 -31.9909 496.179Z" fill="#E53935"/>
<path d="M225.564 278.591L241.106 289.692L383.205 471.756L458.695 531.704C458.695 531.704 416.509 525.043 425.39 560.568L165.616 411.808L225.564 278.591Z" fill="#E53935"/>
<path d="M-17.9357 229.299V229.321C-14.9831 246.684 81.2445 243.065 94.5662 243.065C107.888 243.065 118.989 240.845 132.311 231.963C145.633 223.082 138.972 211.981 138.972 211.981C138.972 211.981 127.629 203.341 127.629 201.121C127.629 198.901 129.849 181.138 118.748 185.579C118.748 185.579 117.749 162.799 106.048 169.748C106.048 169.748 67.2343 200.591 29.8446 172.992C29.8446 172.992 12.4154 169.795 14.6357 178.676C16.8559 187.558 14.6357 194.218 10.1951 194.218C5.75455 194.218 -14.228 200.879 -14.228 205.32C-14.228 206.275 -15.6713 215.467 -17.9357 229.299Z" fill="#3F3D56"/>
<path d="M-6.45412 146.483C-6.45412 146.483 11.3082 108.738 29.0705 126.501C46.8328 144.263 9.08791 170.906 9.08791 170.906L-6.45412 146.483Z" fill="#FFB8B8"/>
<path d="M-6.45448 137.602C-6.45448 137.602 20.9735 172.264 29.4624 174.915C29.4624 174.915 4.64693 273.039 -26.4371 299.683L-44.1994 390.715C-44.1994 390.715 -119.689 359.631 -101.927 308.564C-101.749 308.053 -101.573 307.546 -101.397 307.041C-86.5657 264.514 -66.0977 224.167 -40.5402 187.081L-6.45448 137.602Z" fill="#E53935"/>
<path opacity="0.2" d="M8.20215 240.409L-46.4197 390.716L-26.4373 299.684L8.20215 240.409Z" fill="black"/>
<path d="M14.9375 55.9175L65.1371 29.623L134.459 40.38L148.802 103.727L113.099 102.354L103.124 79.0806V101.97L86.6511 101.336L77.0892 64.2842L71.1127 103.727L12.5473 102.532L14.9375 55.9175Z" fill="#2F2E41"/>
<path fill-rule="evenodd" clip-rule="evenodd" d="M417.531 182.987H455.113L475.271 203.145V255.161C475.271 259.148 472.04 262.379 468.054 262.379H417.531C413.545 262.379 410.314 259.148 410.314 255.161V190.205C410.314 186.218 413.545 182.987 417.531 182.987ZM446.401 190.204H417.532V255.161H468.054V211.857H453.618C449.632 211.857 446.401 208.625 446.401 204.639V190.204ZM453.618 191.699V204.639H466.559L453.618 191.699Z" fill="black"/>
<path fill-rule="evenodd" clip-rule="evenodd" d="M529.173 182.987H566.755L586.913 203.145V255.161C586.913 259.148 583.681 262.379 579.695 262.379H529.173C525.187 262.379 521.956 259.148 521.956 255.161V190.205C521.956 186.218 525.187 182.987 529.173 182.987ZM558.043 190.204H529.173V255.161H579.695V211.857H565.26C561.274 211.857 558.043 208.625 558.043 204.639V190.204ZM565.26 191.699V204.639H578.2L565.26 191.699ZM539.999 240.727V233.509H561.651V240.727H539.999ZM539.999 219.074V226.292H568.869V219.074H539.999Z" fill="black"/>
<path fill-rule="evenodd" clip-rule="evenodd" d="M528.255 371.756C524.269 371.756 521.038 368.525 521.038 364.539V306.799C521.038 302.813 524.269 299.582 528.255 299.582H585.995C589.981 299.582 593.212 302.813 593.212 306.799V355.207L576.663 371.756H528.255ZM585.994 306.799H528.255V364.539H567.951V353.713C567.951 349.727 571.182 346.495 575.168 346.495H585.994V306.799ZM584.5 353.713H575.168V363.044L584.5 353.713Z" fill="black"/>
<path fill-rule="evenodd" clip-rule="evenodd" d="M408.904 364.047C408.904 368.033 412.135 371.265 416.121 371.265H464.529L481.078 354.716V306.308C481.078 302.321 477.847 299.09 473.861 299.09H416.121C412.135 299.09 408.904 302.321 408.904 306.308V364.047ZM416.121 306.307H473.861V346.004H463.035C459.049 346.004 455.817 349.235 455.817 353.221V364.047H416.121V306.307ZM463.035 353.221H472.366L463.035 362.552V353.221ZM426.947 346.004V353.221H448.6V346.004H426.947ZM426.947 338.786V331.569H463.034V338.786H426.947ZM426.947 317.134V324.351H463.034V317.134H426.947Z" fill="black"/>
</g>
<defs>
<clipPath id="clip0">
<rect width="973.836" height="555.517" fill="white" transform="translate(0 0.48291)"/>
</clipPath>
<clipPath id="clip1">
<rect width="119.712" height="64.5637" fill="white" transform="translate(757.279 238.562)"/>
</clipPath>
</defs>
</svg>
