<svg width="598" height="409" viewBox="0 0 598 409" fill="none" xmlns="http://www.w3.org/2000/svg">
<g clip-path="url(#clip0)">
<rect x="209" y="92" width="120" height="150" rx="4" fill="#92B2CD"/>
<path fill-rule="evenodd" clip-rule="evenodd" d="M217 108H321C323.209 108 325 109.791 325 112V234C325 236.209 323.209 238 321 238H217C214.791 238 213 236.209 213 234V112C213 109.791 214.791 108 217 108ZM215 98C216.105 98 217 98.8954 217 100C217 101.105 216.105 102 215 102C213.895 102 213 101.105 213 100C213.003 98.8968 213.897 98.0033 215 98ZM221 98C222.105 98 223 98.8954 223 100C223 101.105 222.105 102 221 102C219.895 102 219 101.105 219 100C219.003 98.8968 219.897 98.0033 221 98ZM227 98C228.105 98 229 98.8954 229 100C229 101.105 228.105 102 227 102C225.895 102 225 101.105 225 100C225.003 98.8968 225.897 98.0033 227 98Z" fill="#D5E2E9"/>
<path d="M225.255 138.509C229.814 138.509 233.509 134.814 233.509 130.255C233.509 125.696 229.814 122 225.255 122C220.696 122 217 125.696 217 130.255C217 134.814 220.696 138.509 225.255 138.509Z" fill="#92B2CD"/>
<mask id="mask0" mask-type="alpha" maskUnits="userSpaceOnUse" x="217" y="122" width="17" height="17">
<path d="M225.255 138.509C229.814 138.509 233.509 134.814 233.509 130.255C233.509 125.696 229.814 122 225.255 122C220.696 122 217 125.696 217 130.255C217 134.814 220.696 138.509 225.255 138.509Z" fill="white"/>
</mask>
<g mask="url(#mask0)">
<path fill-rule="evenodd" clip-rule="evenodd" d="M225.255 135.578C227.263 135.578 228.887 136.535 228.887 137.711C228.887 138.886 227.263 139.078 225.255 139.078C223.248 139.078 221.623 138.886 221.623 137.711C221.623 136.535 223.248 135.578 225.255 135.578ZM228.205 130.486C228.714 131.654 228.465 133.015 227.574 133.927C226.683 134.839 225.328 135.121 224.148 134.639C222.967 134.158 222.196 133.009 222.198 131.734C222.188 130.913 222.504 130.122 223.078 129.535C223.651 128.948 224.434 128.613 225.255 128.604C226.53 128.573 227.696 129.317 228.205 130.486Z" fill="#3A4953"/>
</g>
<path fill-rule="evenodd" clip-rule="evenodd" d="M273.792 124.642H240.113C239.385 124.644 238.795 125.234 238.792 125.962V127.587L237.445 128.934L238.792 130.281V135.868C238.795 136.597 239.385 137.187 240.113 137.189H273.792C274.521 137.187 275.111 136.597 275.113 135.868V125.962C275.111 125.234 274.521 124.644 273.792 124.642Z" fill="#92B2CD"/>
<rect x="240.774" y="126.623" width="26.4151" height="1.98113" rx="0.660376" fill="#BFCEDA"/>
<rect x="240.774" y="129.924" width="32.3584" height="1.98113" rx="0.660376" fill="#BFCEDA"/>
<rect x="240.774" y="133.226" width="19.1509" height="1.98113" rx="0.660376" fill="#BFCEDA"/>
<path d="M225.255 156.339C229.814 156.339 233.509 152.644 233.509 148.085C233.509 143.526 229.814 139.83 225.255 139.83C220.696 139.83 217 143.526 217 148.085C217 152.644 220.696 156.339 225.255 156.339Z" fill="#92B2CD"/>
<mask id="mask1" mask-type="alpha" maskUnits="userSpaceOnUse" x="217" y="139" width="17" height="18">
<path d="M225.255 156.339C229.814 156.339 233.509 152.644 233.509 148.085C233.509 143.526 229.814 139.83 225.255 139.83C220.696 139.83 217 143.526 217 148.085C217 152.644 220.696 156.339 225.255 156.339Z" fill="white"/>
</mask>
<g mask="url(#mask1)">
<path fill-rule="evenodd" clip-rule="evenodd" d="M225.255 153.407C227.263 153.407 228.887 154.365 228.887 155.54C228.887 156.716 227.263 156.907 225.255 156.907C223.248 156.907 221.623 156.716 221.623 155.54C221.623 154.365 223.248 153.407 225.255 153.407ZM225.255 146.434C226.53 146.403 227.696 147.147 228.205 148.315C228.714 149.484 228.465 150.845 227.574 151.757C226.683 152.669 225.328 152.951 224.148 152.469C222.967 151.987 222.196 150.839 222.198 149.564C222.188 148.743 222.504 147.952 223.078 147.365C223.651 146.778 224.434 146.443 225.255 146.434Z" fill="#3A4953"/>
</g>
<path fill-rule="evenodd" clip-rule="evenodd" d="M273.792 142.472H240.113C239.385 142.474 238.795 143.064 238.792 143.792V145.417L237.445 146.764L238.792 148.111V153.698C238.795 154.427 239.385 155.017 240.113 155.019H273.792C274.521 155.017 275.111 154.427 275.113 153.698V143.792C275.111 143.064 274.521 142.474 273.792 142.472Z" fill="#92B2CD"/>
<rect x="240.774" y="144.453" width="26.4151" height="1.98113" rx="0.660376" fill="#BFCEDA"/>
<rect x="240.774" y="147.755" width="32.3584" height="1.98113" rx="0.660376" fill="#BFCEDA"/>
<rect x="240.774" y="151.057" width="19.1509" height="1.98113" rx="0.660376" fill="#BFCEDA"/>
<path d="M225.255 174.17C229.814 174.17 233.509 170.474 233.509 165.915C233.509 161.356 229.814 157.66 225.255 157.66C220.696 157.66 217 161.356 217 165.915C217 170.474 220.696 174.17 225.255 174.17Z" fill="#92B2CD"/>
<mask id="mask2" mask-type="alpha" maskUnits="userSpaceOnUse" x="217" y="157" width="17" height="18">
<path d="M225.255 174.17C229.814 174.17 233.509 170.474 233.509 165.915C233.509 161.356 229.814 157.66 225.255 157.66C220.696 157.66 217 161.356 217 165.915C217 170.474 220.696 174.17 225.255 174.17Z" fill="white"/>
</mask>
<g mask="url(#mask2)">
<path fill-rule="evenodd" clip-rule="evenodd" d="M225.255 171.238C227.263 171.238 228.887 172.195 228.887 173.371C228.887 174.546 227.263 174.738 225.255 174.738C223.248 174.738 221.623 174.546 221.623 173.371C221.623 172.195 223.248 171.238 225.255 171.238ZM228.205 166.146C228.714 167.315 228.465 168.675 227.574 169.587C226.683 170.499 225.328 170.781 224.148 170.299C222.967 169.818 222.196 168.669 222.198 167.394C222.188 166.574 222.504 165.783 223.078 165.196C223.651 164.608 224.434 164.273 225.255 164.264C226.53 164.233 227.696 164.977 228.205 166.146Z" fill="#3A4953"/>
</g>
<path fill-rule="evenodd" clip-rule="evenodd" d="M273.792 160.302H240.113C239.385 160.304 238.795 160.894 238.792 161.623V163.247L237.445 164.594L238.792 165.941V171.528C238.795 172.257 239.385 172.847 240.113 172.849H273.792C274.521 172.847 275.111 172.257 275.113 171.528V161.623C275.111 160.894 274.521 160.304 273.792 160.302Z" fill="#92B2CD"/>
<rect x="240.774" y="162.283" width="26.4151" height="1.98113" rx="0.660376" fill="#BFCEDA"/>
<rect x="240.774" y="165.585" width="32.3584" height="1.98113" rx="0.660376" fill="#BFCEDA"/>
<rect x="240.774" y="168.887" width="19.1509" height="1.98113" rx="0.660376" fill="#BFCEDA"/>
<path d="M225.255 192C229.814 192 233.509 188.304 233.509 183.745C233.509 179.186 229.814 175.49 225.255 175.49C220.696 175.49 217 179.186 217 183.745C217 188.304 220.696 192 225.255 192Z" fill="#92B2CD"/>
<mask id="mask3" mask-type="alpha" maskUnits="userSpaceOnUse" x="217" y="175" width="17" height="17">
<path d="M225.255 192C229.814 192 233.509 188.304 233.509 183.745C233.509 179.186 229.814 175.49 225.255 175.49C220.696 175.49 217 179.186 217 183.745C217 188.304 220.696 192 225.255 192Z" fill="white"/>
</mask>
<g mask="url(#mask3)">
<path fill-rule="evenodd" clip-rule="evenodd" d="M225.255 189.068C227.263 189.068 228.887 190.025 228.887 191.201C228.887 192.376 227.263 192.568 225.255 192.568C223.248 192.568 221.623 192.376 221.623 191.201C221.623 190.025 223.248 189.068 225.255 189.068ZM225.255 182.094C226.53 182.063 227.696 182.807 228.205 183.976C228.714 185.145 228.465 186.505 227.574 187.417C226.683 188.329 225.328 188.611 224.148 188.129C222.967 187.648 222.196 186.499 222.198 185.224C222.188 184.404 222.504 183.613 223.078 183.026C223.651 182.439 224.434 182.103 225.255 182.094Z" fill="#3A4953"/>
</g>
<path fill-rule="evenodd" clip-rule="evenodd" d="M273.792 178.132H240.113C239.385 178.134 238.795 178.724 238.792 179.453V181.077L237.445 182.425L238.792 183.772V189.358C238.795 190.087 239.385 190.677 240.113 190.679H273.792C274.521 190.677 275.111 190.087 275.113 189.358V179.453C275.111 178.724 274.521 178.134 273.792 178.132Z" fill="#92B2CD"/>
<rect x="240.774" y="180.113" width="26.4151" height="1.98113" rx="0.660376" fill="#BFCEDA"/>
<rect x="240.774" y="183.415" width="32.3584" height="1.98113" rx="0.660376" fill="#BFCEDA"/>
<rect x="240.774" y="186.717" width="19.1509" height="1.98113" rx="0.660376" fill="#BFCEDA"/>
<path d="M244.083 68.3584H242.449V72.002H240.398V62.0488H244.097C245.272 62.0488 246.179 62.3109 246.817 62.835C247.455 63.359 247.774 64.0996 247.774 65.0566C247.774 65.7357 247.626 66.3031 247.33 66.7588C247.038 67.21 246.594 67.57 245.997 67.8389L248.15 71.9062V72.002H245.949L244.083 68.3584ZM242.449 66.6973H244.104C244.618 66.6973 245.017 66.5674 245.3 66.3076C245.582 66.0433 245.724 65.681 245.724 65.2207C245.724 64.7513 245.589 64.3822 245.32 64.1133C245.056 63.8444 244.648 63.71 244.097 63.71H242.449V66.6973ZM252.614 72.1387C251.53 72.1387 250.646 71.806 249.962 71.1406C249.283 70.4753 248.943 69.5889 248.943 68.4814V68.29C248.943 67.5472 249.087 66.8841 249.374 66.3008C249.661 65.7129 250.067 65.2617 250.591 64.9473C251.119 64.6283 251.721 64.4688 252.396 64.4688C253.407 64.4688 254.202 64.7878 254.781 65.4258C255.365 66.0638 255.656 66.9684 255.656 68.1396V68.9463H250.946C251.01 69.4294 251.201 69.8167 251.521 70.1084C251.844 70.4001 252.252 70.5459 252.744 70.5459C253.505 70.5459 254.1 70.2702 254.528 69.7188L255.499 70.8057C255.203 71.2249 254.802 71.5531 254.296 71.79C253.79 72.0225 253.229 72.1387 252.614 72.1387ZM252.389 66.0684C251.997 66.0684 251.678 66.2005 251.432 66.4648C251.19 66.7292 251.035 67.1074 250.967 67.5996H253.715V67.4424C253.706 67.0049 253.587 66.6676 253.359 66.4307C253.132 66.1891 252.808 66.0684 252.389 66.0684ZM256.477 68.2354C256.477 67.0732 256.734 66.1549 257.249 65.4805C257.769 64.806 258.479 64.4688 259.382 64.4688C260.175 64.4688 260.806 64.7718 261.275 65.3779L261.405 64.6055H263.142V74.8457H261.159V71.3662C260.703 71.8812 260.106 72.1387 259.368 72.1387C258.489 72.1387 257.787 71.7969 257.263 71.1133C256.739 70.4297 256.477 69.4704 256.477 68.2354ZM258.452 68.3789C258.452 69.0853 258.575 69.623 258.821 69.9922C259.072 70.3613 259.423 70.5459 259.874 70.5459C260.48 70.5459 260.909 70.3044 261.159 69.8213V66.7656C260.913 66.3008 260.489 66.0684 259.888 66.0684C259.432 66.0684 259.079 66.2529 258.828 66.6221C258.577 66.9912 258.452 67.5768 258.452 68.3789ZM269.13 71.25C268.642 71.8424 267.968 72.1387 267.106 72.1387C266.313 72.1387 265.707 71.9108 265.288 71.4551C264.873 70.9993 264.661 70.3317 264.652 69.4521V64.6055H266.628V69.3838C266.628 70.154 266.979 70.5391 267.681 70.5391C268.351 70.5391 268.811 70.3066 269.062 69.8418V64.6055H271.044V72.002H269.185L269.13 71.25ZM275.938 72.1387C274.854 72.1387 273.97 71.806 273.286 71.1406C272.607 70.4753 272.268 69.5889 272.268 68.4814V68.29C272.268 67.5472 272.411 66.8841 272.698 66.3008C272.985 65.7129 273.391 65.2617 273.915 64.9473C274.444 64.6283 275.045 64.4688 275.72 64.4688C276.731 64.4688 277.527 64.7878 278.105 65.4258C278.689 66.0638 278.98 66.9684 278.98 68.1396V68.9463H274.271C274.334 69.4294 274.526 69.8167 274.845 70.1084C275.168 70.4001 275.576 70.5459 276.068 70.5459C276.829 70.5459 277.424 70.2702 277.853 69.7188L278.823 70.8057C278.527 71.2249 278.126 71.5531 277.62 71.79C277.114 72.0225 276.554 72.1387 275.938 72.1387ZM275.713 66.0684C275.321 66.0684 275.002 66.2005 274.756 66.4648C274.514 66.7292 274.359 67.1074 274.291 67.5996H277.039V67.4424C277.03 67.0049 276.911 66.6676 276.684 66.4307C276.456 66.1891 276.132 66.0684 275.713 66.0684ZM284.114 69.958C284.114 69.7165 283.993 69.5273 283.752 69.3906C283.515 69.2493 283.132 69.124 282.604 69.0146C280.844 68.6455 279.965 67.8981 279.965 66.7725C279.965 66.1162 280.236 65.5693 280.778 65.1318C281.325 64.6898 282.038 64.4688 282.918 64.4688C283.857 64.4688 284.606 64.6898 285.167 65.1318C285.732 65.5739 286.015 66.1481 286.015 66.8545H284.039C284.039 66.5719 283.948 66.3395 283.766 66.1572C283.583 65.9704 283.299 65.877 282.911 65.877C282.578 65.877 282.321 65.9521 282.139 66.1025C281.956 66.2529 281.865 66.4443 281.865 66.6768C281.865 66.8955 281.968 67.0732 282.173 67.21C282.382 67.3421 282.733 67.4583 283.226 67.5586C283.718 67.6543 284.132 67.7637 284.47 67.8867C285.513 68.2695 286.035 68.9326 286.035 69.876C286.035 70.5505 285.746 71.0973 285.167 71.5166C284.588 71.9313 283.841 72.1387 282.925 72.1387C282.305 72.1387 281.754 72.0293 281.271 71.8105C280.792 71.5872 280.416 71.2842 280.143 70.9014C279.869 70.514 279.732 70.097 279.732 69.6504H281.605C281.624 70.0013 281.754 70.2702 281.995 70.457C282.237 70.6439 282.56 70.7373 282.966 70.7373C283.344 70.7373 283.629 70.6667 283.82 70.5254C284.016 70.3796 284.114 70.1904 284.114 69.958ZM289.679 62.7871V64.6055H290.943V66.0547H289.679V69.7461C289.679 70.0195 289.731 70.2155 289.836 70.334C289.941 70.4525 290.141 70.5117 290.438 70.5117C290.656 70.5117 290.85 70.4958 291.019 70.4639V71.9609C290.631 72.0794 290.232 72.1387 289.822 72.1387C288.437 72.1387 287.73 71.4391 287.703 70.04V66.0547H286.623V64.6055H287.703V62.7871H289.679ZM296.05 69.958C296.05 69.7165 295.929 69.5273 295.688 69.3906C295.451 69.2493 295.068 69.124 294.539 69.0146C292.78 68.6455 291.9 67.8981 291.9 66.7725C291.9 66.1162 292.172 65.5693 292.714 65.1318C293.261 64.6898 293.974 64.4688 294.854 64.4688C295.792 64.4688 296.542 64.6898 297.103 65.1318C297.668 65.5739 297.95 66.1481 297.95 66.8545H295.975C295.975 66.5719 295.883 66.3395 295.701 66.1572C295.519 65.9704 295.234 65.877 294.847 65.877C294.514 65.877 294.257 65.9521 294.074 66.1025C293.892 66.2529 293.801 66.4443 293.801 66.6768C293.801 66.8955 293.903 67.0732 294.108 67.21C294.318 67.3421 294.669 67.4583 295.161 67.5586C295.653 67.6543 296.068 67.7637 296.405 67.8867C297.449 68.2695 297.971 68.9326 297.971 69.876C297.971 70.5505 297.681 71.0973 297.103 71.5166C296.524 71.9313 295.776 72.1387 294.86 72.1387C294.241 72.1387 293.689 72.0293 293.206 71.8105C292.728 71.5872 292.352 71.2842 292.078 70.9014C291.805 70.514 291.668 70.097 291.668 69.6504H293.541C293.559 70.0013 293.689 70.2702 293.931 70.457C294.172 70.6439 294.496 70.7373 294.901 70.7373C295.28 70.7373 295.564 70.6667 295.756 70.5254C295.952 70.3796 296.05 70.1904 296.05 69.958Z" fill="#454D58"/>
<rect x="286" y="125" width="33.7143" height="3.74604" rx="0.624339" fill="#92B2CD"/>
<rect x="286" y="130.619" width="33.7143" height="3.74604" rx="0.624339" fill="#92B2CD"/>
<rect x="286" y="136.238" width="33.7143" height="3.74604" rx="0.624339" fill="#92B2CD"/>
<rect x="286" y="141.857" width="33.7143" height="3.74604" rx="0.624339" fill="#92B2CD"/>
<rect x="286" y="147.476" width="33.7143" height="10.6138" rx="0.624339" fill="#92B2CD"/>
<rect x="305.979" y="159.963" width="13.7355" height="4.37038" rx="0.624339" fill="#3A4953"/>
<rect x="49" y="113" width="149" height="98" rx="10" fill="#BACBD9"/>
<path fill-rule="evenodd" clip-rule="evenodd" d="M209.625 156.229L197.591 166.773L186 153.544L198.035 143L209.625 156.229Z" fill="#BACBD9"/>
<path d="M64.079 138H66.185V128.9H64.079V138ZM72.6693 130.902C71.7203 130.902 70.9013 131.227 70.3553 131.825V131.006H68.4183V138H70.4463V134.542C70.4463 133.255 71.1483 132.657 72.1233 132.657C73.0203 132.657 73.5403 133.177 73.5403 134.308V138H75.5683V133.996C75.5683 131.864 74.3203 130.902 72.6693 130.902ZM81.0794 138.104C82.5484 138.104 83.7054 137.454 84.2124 136.336L82.6394 135.478C82.2624 136.154 81.7034 136.44 81.0664 136.44C80.0394 136.44 79.2334 135.725 79.2334 134.503C79.2334 133.281 80.0394 132.566 81.0664 132.566C81.7034 132.566 82.2624 132.865 82.6394 133.528L84.2124 132.683C83.7054 131.539 82.5484 130.902 81.0794 130.902C78.8044 130.902 77.1794 132.397 77.1794 134.503C77.1794 136.609 78.8044 138.104 81.0794 138.104ZM85.546 138H87.574V128.354H85.546V138ZM94.6908 131.006V134.464C94.6908 135.751 94.0148 136.349 93.0788 136.349C92.1818 136.349 91.6618 135.829 91.6618 134.659V131.006H89.6338V134.958C89.6338 137.116 90.8688 138.104 92.6238 138.104C93.4818 138.104 94.2618 137.779 94.7948 137.168V138H96.7188V131.006H94.6908ZM103.91 128.354V131.747C103.403 131.175 102.675 130.902 101.817 130.902C99.8413 130.902 98.3203 132.306 98.3203 134.503C98.3203 136.7 99.8413 138.104 101.817 138.104C102.753 138.104 103.494 137.805 104.001 137.194V138H105.938V128.354H103.91ZM102.168 136.44C101.154 136.44 100.374 135.712 100.374 134.503C100.374 133.294 101.154 132.566 102.168 132.566C103.169 132.566 103.949 133.294 103.949 134.503C103.949 135.712 103.169 136.44 102.168 136.44ZM114.883 134.529C114.883 132.28 113.297 130.902 111.243 130.902C109.111 130.902 107.512 132.41 107.512 134.503C107.512 136.583 109.085 138.104 111.503 138.104C112.764 138.104 113.739 137.714 114.389 136.973L113.31 135.803C112.829 136.258 112.296 136.479 111.555 136.479C110.489 136.479 109.748 135.946 109.553 135.075H114.844C114.857 134.906 114.883 134.685 114.883 134.529ZM111.256 132.436C112.166 132.436 112.829 133.008 112.972 133.892H109.527C109.67 132.995 110.333 132.436 111.256 132.436ZM118.803 138.104C120.896 138.104 122.105 137.181 122.105 135.881C122.105 133.125 117.88 134.282 117.88 133.086C117.88 132.722 118.27 132.436 119.18 132.436C119.817 132.436 120.506 132.566 121.195 132.956L121.871 131.513C121.208 131.123 120.142 130.902 119.18 130.902C117.139 130.902 115.943 131.838 115.943 133.164C115.943 135.959 120.168 134.789 120.168 135.933C120.168 136.323 119.817 136.57 118.881 136.57C118.023 136.57 117.074 136.297 116.45 135.894L115.774 137.35C116.424 137.779 117.62 138.104 118.803 138.104ZM124.34 133.437C125.042 133.437 125.601 132.904 125.601 132.163C125.601 131.409 125.042 130.915 124.34 130.915C123.638 130.915 123.079 131.409 123.079 132.163C123.079 132.904 123.638 133.437 124.34 133.437ZM124.34 138.104C125.042 138.104 125.601 137.571 125.601 136.83C125.601 136.076 125.042 135.582 124.34 135.582C123.638 135.582 123.079 136.076 123.079 136.83C123.079 137.571 123.638 138.104 124.34 138.104ZM63.78 164.88H67.186V164.074H63.78V164.88ZM80.0805 168H81.0945L76.9345 158.9H75.9855L71.8255 168H72.8265L73.9185 165.569H78.9885L80.0805 168ZM74.2695 164.789L76.4535 159.901L78.6375 164.789H74.2695ZM87.8751 158.354V162.462C87.3031 161.578 86.3671 161.11 85.2751 161.11C83.3251 161.11 81.8691 162.514 81.8691 164.581C81.8691 166.648 83.3251 168.065 85.2751 168.065C86.4061 168.065 87.3551 167.571 87.9141 166.648V168H88.7981V158.354H87.8751ZM85.3531 167.246C83.8971 167.246 82.8051 166.18 82.8051 164.581C82.8051 162.982 83.8971 161.916 85.3531 161.916C86.7961 161.916 87.8881 162.982 87.8881 164.581C87.8881 166.18 86.7961 167.246 85.3531 167.246ZM96.9023 158.354V162.462C96.3303 161.578 95.3943 161.11 94.3023 161.11C92.3523 161.11 90.8963 162.514 90.8963 164.581C90.8963 166.648 92.3523 168.065 94.3023 168.065C95.4333 168.065 96.3823 167.571 96.9413 166.648V168H97.8253V158.354H96.9023ZM94.3803 167.246C92.9243 167.246 91.8323 166.18 91.8323 164.581C91.8323 162.982 92.9243 161.916 94.3803 161.916C95.8233 161.916 96.9153 162.982 96.9153 164.581C96.9153 166.18 95.8233 167.246 94.3803 167.246ZM105.116 162.501V161.162H104.232V168H105.155V164.516C105.155 162.904 106.026 161.994 107.456 161.994C107.521 161.994 107.599 162.007 107.677 162.007V161.11C106.416 161.11 105.545 161.591 105.116 162.501ZM115.468 164.581C115.468 162.527 114.077 161.11 112.153 161.11C110.229 161.11 108.812 162.553 108.812 164.581C108.812 166.609 110.268 168.065 112.4 168.065C113.479 168.065 114.428 167.675 115.039 166.947L114.519 166.349C113.999 166.947 113.258 167.246 112.426 167.246C110.931 167.246 109.839 166.297 109.735 164.867H115.455C115.455 164.763 115.468 164.659 115.468 164.581ZM112.153 161.903C113.492 161.903 114.467 162.839 114.584 164.178H109.735C109.852 162.839 110.827 161.903 112.153 161.903ZM122.919 161.162V162.514C122.36 161.604 121.411 161.11 120.28 161.11C118.33 161.11 116.874 162.514 116.874 164.581C116.874 166.661 118.33 168.065 120.28 168.065C121.372 168.065 122.308 167.597 122.88 166.713V170.522H123.803V161.162H122.919ZM120.358 167.246C118.902 167.246 117.81 166.18 117.81 164.581C117.81 162.995 118.902 161.916 120.358 161.916C121.801 161.916 122.893 162.995 122.893 164.581C122.893 166.18 121.801 167.246 120.358 167.246ZM131.83 161.162V164.75C131.83 166.31 130.933 167.233 129.503 167.233C128.203 167.233 127.449 166.492 127.449 165.036V161.162H126.526V165.127C126.526 167.09 127.67 168.065 129.412 168.065C130.504 168.065 131.388 167.584 131.869 166.752V168H132.753V161.162H131.83ZM141.521 164.581C141.521 162.527 140.13 161.11 138.206 161.11C136.282 161.11 134.865 162.553 134.865 164.581C134.865 166.609 136.321 168.065 138.453 168.065C139.532 168.065 140.481 167.675 141.092 166.947L140.572 166.349C140.052 166.947 139.311 167.246 138.479 167.246C136.984 167.246 135.892 166.297 135.788 164.867H141.508C141.508 164.763 141.521 164.659 141.521 164.581ZM138.206 161.903C139.545 161.903 140.52 162.839 140.637 164.178H135.788C135.905 162.839 136.88 161.903 138.206 161.903ZM145.45 168.065C147.231 168.065 148.271 167.298 148.271 166.115C148.271 163.489 143.838 164.88 143.838 163.034C143.838 162.384 144.384 161.903 145.619 161.903C146.321 161.903 147.036 162.072 147.634 162.488L148.037 161.747C147.465 161.357 146.503 161.11 145.619 161.11C143.877 161.11 142.915 161.942 142.915 163.06C142.915 165.764 147.348 164.36 147.348 166.141C147.348 166.817 146.815 167.259 145.515 167.259C144.553 167.259 143.63 166.921 143.084 166.492L142.668 167.22C143.227 167.701 144.319 168.065 145.45 168.065ZM153.47 166.921C153.21 167.155 152.833 167.272 152.456 167.272C151.689 167.272 151.273 166.83 151.273 166.024V161.942H153.353V161.162H151.273V159.667H150.35V161.162H149.128V161.942H150.35V166.076C150.35 167.337 151.065 168.065 152.352 168.065C152.885 168.065 153.431 167.909 153.795 167.584L153.47 166.921ZM63.78 179.88H67.186V179.074H63.78V179.88ZM73.2815 183H79.3395V182.168H74.2435V173.9H73.2815V183ZM81.4265 174.667C81.8165 174.667 82.1025 174.368 82.1025 173.991C82.1025 173.64 81.8035 173.354 81.4265 173.354C81.0495 173.354 80.7505 173.653 80.7505 174.004C80.7505 174.368 81.0495 174.667 81.4265 174.667ZM80.9585 183H81.8815V176.162H80.9585V183ZM86.4994 183.065C88.2804 183.065 89.3204 182.298 89.3204 181.115C89.3204 178.489 84.8874 179.88 84.8874 178.034C84.8874 177.384 85.4334 176.903 86.6684 176.903C87.3704 176.903 88.0854 177.072 88.6834 177.488L89.0864 176.747C88.5144 176.357 87.5524 176.11 86.6684 176.11C84.9264 176.11 83.9644 176.942 83.9644 178.06C83.9644 180.764 88.3974 179.36 88.3974 181.141C88.3974 181.817 87.8644 182.259 86.5644 182.259C85.6024 182.259 84.6794 181.921 84.1334 181.492L83.7174 182.22C84.2764 182.701 85.3684 183.065 86.4994 183.065ZM94.5194 181.921C94.2594 182.155 93.8824 182.272 93.5054 182.272C92.7384 182.272 92.3224 181.83 92.3224 181.024V176.942H94.4024V176.162H92.3224V174.667H91.3994V176.162H90.1774V176.942H91.3994V181.076C91.3994 182.337 92.1144 183.065 93.4014 183.065C93.9344 183.065 94.4804 182.909 94.8444 182.584L94.5194 181.921ZM103.155 183.065C105.157 183.065 106.626 181.609 106.626 179.581C106.626 177.553 105.157 176.11 103.155 176.11C101.153 176.11 99.6713 177.553 99.6713 179.581C99.6713 181.609 101.153 183.065 103.155 183.065ZM103.155 182.246C101.699 182.246 100.607 181.18 100.607 179.581C100.607 177.982 101.699 176.916 103.155 176.916C104.611 176.916 105.69 177.982 105.69 179.581C105.69 181.18 104.611 182.246 103.155 182.246ZM110.989 174.069C111.379 174.069 111.743 174.186 112.003 174.407L112.315 173.718C111.977 173.432 111.457 173.289 110.95 173.289C109.611 173.289 108.883 174.095 108.883 175.317V176.162H107.661V176.942H108.883V183H109.806V176.942H111.886V176.162H109.78V175.356C109.78 174.511 110.196 174.069 110.989 174.069ZM117.852 177.501V176.162H116.968V183H117.891V179.516C117.891 177.904 118.762 176.994 120.192 176.994C120.257 176.994 120.335 177.007 120.413 177.007V176.11C119.152 176.11 118.281 176.591 117.852 177.501ZM128.205 179.581C128.205 177.527 126.814 176.11 124.89 176.11C122.966 176.11 121.549 177.553 121.549 179.581C121.549 181.609 123.005 183.065 125.137 183.065C126.216 183.065 127.165 182.675 127.776 181.947L127.256 181.349C126.736 181.947 125.995 182.246 125.163 182.246C123.668 182.246 122.576 181.297 122.472 179.867H128.192C128.192 179.763 128.205 179.659 128.205 179.581ZM124.89 176.903C126.229 176.903 127.204 177.839 127.321 179.178H122.472C122.589 177.839 123.564 176.903 124.89 176.903ZM135.656 176.162V177.514C135.097 176.604 134.148 176.11 133.017 176.11C131.067 176.11 129.611 177.514 129.611 179.581C129.611 181.661 131.067 183.065 133.017 183.065C134.109 183.065 135.045 182.597 135.617 181.713V185.522H136.54V176.162H135.656ZM133.095 182.246C131.639 182.246 130.547 181.18 130.547 179.581C130.547 177.995 131.639 176.916 133.095 176.916C134.538 176.916 135.63 177.995 135.63 179.581C135.63 181.18 134.538 182.246 133.095 182.246ZM144.566 176.162V179.75C144.566 181.31 143.669 182.233 142.239 182.233C140.939 182.233 140.185 181.492 140.185 180.036V176.162H139.262V180.127C139.262 182.09 140.406 183.065 142.148 183.065C143.24 183.065 144.124 182.584 144.605 181.752V183H145.489V176.162H144.566ZM154.258 179.581C154.258 177.527 152.867 176.11 150.943 176.11C149.019 176.11 147.602 177.553 147.602 179.581C147.602 181.609 149.058 183.065 151.19 183.065C152.269 183.065 153.218 182.675 153.829 181.947L153.309 181.349C152.789 181.947 152.048 182.246 151.216 182.246C149.721 182.246 148.629 181.297 148.525 179.867H154.245C154.245 179.763 154.258 179.659 154.258 179.581ZM150.943 176.903C152.282 176.903 153.257 177.839 153.374 179.178H148.525C148.642 177.839 149.617 176.903 150.943 176.903ZM158.186 183.065C159.967 183.065 161.007 182.298 161.007 181.115C161.007 178.489 156.574 179.88 156.574 178.034C156.574 177.384 157.12 176.903 158.355 176.903C159.057 176.903 159.772 177.072 160.37 177.488L160.773 176.747C160.201 176.357 159.239 176.11 158.355 176.11C156.613 176.11 155.651 176.942 155.651 178.06C155.651 180.764 160.084 179.36 160.084 181.141C160.084 181.817 159.551 182.259 158.251 182.259C157.289 182.259 156.366 181.921 155.82 181.492L155.404 182.22C155.963 182.701 157.055 183.065 158.186 183.065ZM166.206 181.921C165.946 182.155 165.569 182.272 165.192 182.272C164.425 182.272 164.009 181.83 164.009 181.024V176.942H166.089V176.162H164.009V174.667H163.086V176.162H161.864V176.942H163.086V181.076C163.086 182.337 163.801 183.065 165.088 183.065C165.621 183.065 166.167 182.909 166.531 182.584L166.206 181.921ZM170.261 183.065C172.042 183.065 173.082 182.298 173.082 181.115C173.082 178.489 168.649 179.88 168.649 178.034C168.649 177.384 169.195 176.903 170.43 176.903C171.132 176.903 171.847 177.072 172.445 177.488L172.848 176.747C172.276 176.357 171.314 176.11 170.43 176.11C168.688 176.11 167.726 176.942 167.726 178.06C167.726 180.764 172.159 179.36 172.159 181.141C172.159 181.817 171.626 182.259 170.326 182.259C169.364 182.259 168.441 181.921 167.895 181.492L167.479 182.22C168.038 182.701 169.13 183.065 170.261 183.065ZM63.78 194.88H67.186V194.074H63.78V194.88ZM76.9475 198.078C79.2745 198.078 80.6785 196.726 80.6785 194.113V188.9H79.7425V194.074C79.7425 196.232 78.7285 197.22 76.9475 197.22C75.1795 197.22 74.1655 196.232 74.1655 194.074V188.9H73.2035V194.113C73.2035 196.726 74.6205 198.078 76.9475 198.078ZM87.1221 191.11C85.9911 191.11 85.0421 191.604 84.4831 192.514V191.162H83.5991V200.522H84.5221V196.713C85.0941 197.597 86.0301 198.065 87.1221 198.065C89.0721 198.065 90.5281 196.661 90.5281 194.581C90.5281 192.514 89.0721 191.11 87.1221 191.11ZM87.0571 197.246C85.6011 197.246 84.5091 196.18 84.5091 194.581C84.5091 192.995 85.6011 191.916 87.0571 191.916C88.5001 191.916 89.6051 192.995 89.6051 194.581C89.6051 196.18 88.5001 197.246 87.0571 197.246ZM97.2719 191.162L94.6849 196.986L92.1239 191.162H91.1619L94.1909 198H95.1399L98.1819 191.162H97.2719ZM102.303 198.065C104.305 198.065 105.774 196.609 105.774 194.581C105.774 192.553 104.305 191.11 102.303 191.11C100.301 191.11 98.819 192.553 98.819 194.581C98.819 196.609 100.301 198.065 102.303 198.065ZM102.303 197.246C100.847 197.246 99.755 196.18 99.755 194.581C99.755 192.982 100.847 191.916 102.303 191.916C103.759 191.916 104.838 192.982 104.838 194.581C104.838 196.18 103.759 197.246 102.303 197.246ZM111.151 196.921C110.891 197.155 110.514 197.272 110.137 197.272C109.37 197.272 108.954 196.83 108.954 196.024V191.942H111.034V191.162H108.954V189.667H108.031V191.162H106.809V191.942H108.031V196.076C108.031 197.337 108.746 198.065 110.033 198.065C110.566 198.065 111.112 197.909 111.476 197.584L111.151 196.921ZM119.099 194.581C119.099 192.527 117.708 191.11 115.784 191.11C113.86 191.11 112.443 192.553 112.443 194.581C112.443 196.609 113.899 198.065 116.031 198.065C117.11 198.065 118.059 197.675 118.67 196.947L118.15 196.349C117.63 196.947 116.889 197.246 116.057 197.246C114.562 197.246 113.47 196.297 113.366 194.867H119.086C119.086 194.763 119.099 194.659 119.099 194.581ZM115.784 191.903C117.123 191.903 118.098 192.839 118.215 194.178H113.366C113.483 192.839 114.458 191.903 115.784 191.903Z" fill="#3A4953"/>
<rect x="341" y="160" width="125" height="80" rx="10" fill="#BACBD9"/>
<path fill-rule="evenodd" clip-rule="evenodd" d="M341.436 179L352.749 189.322L340.313 200.669L328.999 190.347L341.436 179Z" fill="#BACBD9"/>
<path d="M362.956 176.59V174.9H356.079V184H358.185V180.685H362.397V178.995H358.185V176.59H362.956ZM367.606 184.104C369.829 184.104 371.441 182.609 371.441 180.503C371.441 178.397 369.829 176.902 367.606 176.902C365.383 176.902 363.758 178.397 363.758 180.503C363.758 182.609 365.383 184.104 367.606 184.104ZM367.606 182.44C366.592 182.44 365.812 181.712 365.812 180.503C365.812 179.294 366.592 178.566 367.606 178.566C368.62 178.566 369.387 179.294 369.387 180.503C369.387 181.712 368.62 182.44 367.606 182.44ZM374.95 177.929V177.006H373.013V184H375.041V180.698C375.041 179.359 375.782 178.748 376.9 178.748C377.056 178.748 377.186 178.761 377.355 178.774V176.902C376.276 176.902 375.444 177.253 374.95 177.929ZM387.734 176.902C386.681 176.902 385.771 177.331 385.212 178.046C384.718 177.279 383.886 176.902 382.911 176.902C382.014 176.902 381.234 177.214 380.714 177.812V177.006H378.777V184H380.805V180.49C380.805 179.242 381.442 178.657 382.339 178.657C383.184 178.657 383.665 179.177 383.665 180.308V184H385.693V180.49C385.693 179.242 386.33 178.657 387.24 178.657C388.059 178.657 388.566 179.177 388.566 180.308V184H390.594V179.996C390.594 177.864 389.398 176.902 387.734 176.902ZM396.67 184H398.776V174.9H396.67V184ZM405.26 176.902C404.311 176.902 403.492 177.227 402.946 177.825V177.006H401.009V184H403.037V180.542C403.037 179.255 403.739 178.657 404.714 178.657C405.611 178.657 406.131 179.177 406.131 180.308V184H408.159V179.996C408.159 177.864 406.911 176.902 405.26 176.902ZM413.671 184.104C415.14 184.104 416.297 183.454 416.804 182.336L415.231 181.478C414.854 182.154 414.295 182.44 413.658 182.44C412.631 182.44 411.825 181.725 411.825 180.503C411.825 179.281 412.631 178.566 413.658 178.566C414.295 178.566 414.854 178.865 415.231 179.528L416.804 178.683C416.297 177.539 415.14 176.902 413.671 176.902C411.396 176.902 409.771 178.397 409.771 180.503C409.771 182.609 411.396 184.104 413.671 184.104ZM418.137 184H420.165V174.354H418.137V184ZM427.282 177.006V180.464C427.282 181.751 426.606 182.349 425.67 182.349C424.773 182.349 424.253 181.829 424.253 180.659V177.006H422.225V180.958C422.225 183.116 423.46 184.104 425.215 184.104C426.073 184.104 426.853 183.779 427.386 183.168V184H429.31V177.006H427.282ZM436.501 174.354V177.747C435.994 177.175 435.266 176.902 434.408 176.902C432.432 176.902 430.911 178.306 430.911 180.503C430.911 182.7 432.432 184.104 434.408 184.104C435.344 184.104 436.085 183.805 436.592 183.194V184H438.529V174.354H436.501ZM434.759 182.44C433.745 182.44 432.965 181.712 432.965 180.503C432.965 179.294 433.745 178.566 434.759 178.566C435.76 178.566 436.54 179.294 436.54 180.503C436.54 181.712 435.76 182.44 434.759 182.44ZM447.474 180.529C447.474 178.28 445.888 176.902 443.834 176.902C441.702 176.902 440.103 178.41 440.103 180.503C440.103 182.583 441.676 184.104 444.094 184.104C445.355 184.104 446.33 183.714 446.98 182.973L445.901 181.803C445.42 182.258 444.887 182.479 444.146 182.479C443.08 182.479 442.339 181.946 442.144 181.075H447.435C447.448 180.906 447.474 180.685 447.474 180.529ZM443.847 178.436C444.757 178.436 445.42 179.008 445.563 179.892H442.118C442.261 178.995 442.924 178.436 443.847 178.436ZM451.394 184.104C453.487 184.104 454.696 183.181 454.696 181.881C454.696 179.125 450.471 180.282 450.471 179.086C450.471 178.722 450.861 178.436 451.771 178.436C452.408 178.436 453.097 178.566 453.786 178.956L454.462 177.513C453.799 177.123 452.733 176.902 451.771 176.902C449.73 176.902 448.534 177.838 448.534 179.164C448.534 181.959 452.759 180.789 452.759 181.933C452.759 182.323 452.408 182.57 451.472 182.57C450.614 182.57 449.665 182.297 449.041 181.894L448.365 183.35C449.015 183.779 450.211 184.104 451.394 184.104ZM456.931 179.437C457.633 179.437 458.192 178.904 458.192 178.163C458.192 177.409 457.633 176.915 456.931 176.915C456.229 176.915 455.67 177.409 455.67 178.163C455.67 178.904 456.229 179.437 456.931 179.437ZM456.931 184.104C457.633 184.104 458.192 183.571 458.192 182.83C458.192 182.076 457.633 181.582 456.931 181.582C456.229 181.582 455.67 182.076 455.67 182.83C455.67 183.571 456.229 184.104 456.931 184.104ZM355.78 210.88H359.186V210.074H355.78V210.88ZM365.282 214H368.987C371.899 214 373.862 212.128 373.862 209.45C373.862 206.772 371.899 204.9 368.987 204.9H365.282V214ZM366.244 213.168V205.732H368.935C371.353 205.732 372.913 207.266 372.913 209.45C372.913 211.634 371.353 213.168 368.935 213.168H366.244ZM382.01 210.581C382.01 208.527 380.619 207.11 378.695 207.11C376.771 207.11 375.354 208.553 375.354 210.581C375.354 212.609 376.81 214.065 378.942 214.065C380.021 214.065 380.97 213.675 381.581 212.947L381.061 212.349C380.541 212.947 379.8 213.246 378.968 213.246C377.473 213.246 376.381 212.297 376.277 210.867H381.997C381.997 210.763 382.01 210.659 382.01 210.581ZM378.695 207.903C380.034 207.903 381.009 208.839 381.126 210.178H376.277C376.394 208.839 377.369 207.903 378.695 207.903ZM385.939 214.065C387.72 214.065 388.76 213.298 388.76 212.115C388.76 209.489 384.327 210.88 384.327 209.034C384.327 208.384 384.873 207.903 386.108 207.903C386.81 207.903 387.525 208.072 388.123 208.488L388.526 207.747C387.954 207.357 386.992 207.11 386.108 207.11C384.366 207.11 383.404 207.942 383.404 209.06C383.404 211.764 387.837 210.36 387.837 212.141C387.837 212.817 387.304 213.259 386.004 213.259C385.042 213.259 384.119 212.921 383.573 212.492L383.157 213.22C383.716 213.701 384.808 214.065 385.939 214.065ZM393.517 214.065C394.674 214.065 395.649 213.597 396.195 212.713L395.506 212.245C395.038 212.934 394.31 213.246 393.517 213.246C392.022 213.246 390.93 212.193 390.93 210.581C390.93 208.982 392.022 207.916 393.517 207.916C394.31 207.916 395.038 208.241 395.506 208.93L396.195 208.462C395.649 207.565 394.674 207.11 393.517 207.11C391.476 207.11 389.994 208.54 389.994 210.581C389.994 212.622 391.476 214.065 393.517 214.065ZM399.109 208.501V207.162H398.225V214H399.148V210.516C399.148 208.904 400.019 207.994 401.449 207.994C401.514 207.994 401.592 208.007 401.67 208.007V207.11C400.409 207.11 399.538 207.591 399.109 208.501ZM404.026 205.667C404.416 205.667 404.702 205.368 404.702 204.991C404.702 204.64 404.403 204.354 404.026 204.354C403.649 204.354 403.35 204.653 403.35 205.004C403.35 205.368 403.649 205.667 404.026 205.667ZM403.558 214H404.481V207.162H403.558V214ZM410.788 207.11C409.657 207.11 408.708 207.604 408.149 208.514V207.162H407.265V216.522H408.188V212.713C408.76 213.597 409.696 214.065 410.788 214.065C412.738 214.065 414.194 212.661 414.194 210.581C414.194 208.514 412.738 207.11 410.788 207.11ZM410.723 213.246C409.267 213.246 408.175 212.18 408.175 210.581C408.175 208.995 409.267 207.916 410.723 207.916C412.166 207.916 413.271 208.995 413.271 210.581C413.271 212.18 412.166 213.246 410.723 213.246ZM419.569 212.921C419.309 213.155 418.932 213.272 418.555 213.272C417.788 213.272 417.372 212.83 417.372 212.024V207.942H419.452V207.162H417.372V205.667H416.449V207.162H415.227V207.942H416.449V212.076C416.449 213.337 417.164 214.065 418.451 214.065C418.984 214.065 419.53 213.909 419.894 213.584L419.569 212.921ZM422.259 205.667C422.649 205.667 422.935 205.368 422.935 204.991C422.935 204.64 422.636 204.354 422.259 204.354C421.882 204.354 421.583 204.653 421.583 205.004C421.583 205.368 421.882 205.667 422.259 205.667ZM421.791 214H422.714V207.162H421.791V214ZM428.293 214.065C430.295 214.065 431.764 212.609 431.764 210.581C431.764 208.553 430.295 207.11 428.293 207.11C426.291 207.11 424.809 208.553 424.809 210.581C424.809 212.609 426.291 214.065 428.293 214.065ZM428.293 213.246C426.837 213.246 425.745 212.18 425.745 210.581C425.745 208.982 426.837 207.916 428.293 207.916C429.749 207.916 430.828 208.982 430.828 210.581C430.828 212.18 429.749 213.246 428.293 213.246ZM437.35 207.11C436.167 207.11 435.244 207.591 434.75 208.423V207.162H433.866V214H434.789V210.412C434.789 208.852 435.712 207.942 437.181 207.942C438.481 207.942 439.235 208.683 439.235 210.126V214H440.158V210.035C440.158 208.072 439.014 207.11 437.35 207.11ZM355.78 225.88H359.186V225.074H355.78V225.88ZM367.791 229.078C370.118 229.078 371.184 227.934 371.184 226.595C371.184 223.28 365.581 224.788 365.581 222.292C365.581 221.382 366.322 220.641 367.986 220.641C368.792 220.641 369.702 220.888 370.482 221.395L370.807 220.628C370.079 220.121 369.013 219.822 367.986 219.822C365.672 219.822 364.632 220.979 364.632 222.318C364.632 225.685 370.235 224.151 370.235 226.647C370.235 227.544 369.494 228.259 367.791 228.259C366.595 228.259 365.438 227.791 364.788 227.154L364.411 227.895C365.087 228.597 366.426 229.078 367.791 229.078ZM378.54 222.162V225.75C378.54 227.31 377.643 228.233 376.213 228.233C374.913 228.233 374.159 227.492 374.159 226.036V222.162H373.236V226.127C373.236 228.09 374.38 229.065 376.122 229.065C377.214 229.065 378.098 228.584 378.579 227.752V229H379.463V222.162H378.54ZM385.788 222.11C384.696 222.11 383.76 222.578 383.188 223.462V219.354H382.265V229H383.149V227.648C383.708 228.571 384.657 229.065 385.788 229.065C387.738 229.065 389.194 227.648 389.194 225.581C389.194 223.514 387.738 222.11 385.788 222.11ZM385.723 228.246C384.267 228.246 383.175 227.18 383.175 225.581C383.175 223.982 384.267 222.916 385.723 222.916C387.166 222.916 388.271 223.982 388.271 225.581C388.271 227.18 387.166 228.246 385.723 228.246ZM399.82 222.11C398.585 222.11 397.61 222.669 397.116 223.553C396.7 222.591 395.816 222.11 394.685 222.11C393.541 222.11 392.657 222.591 392.176 223.41V222.162H391.292V229H392.215V225.412C392.215 223.852 393.112 222.942 394.503 222.942C395.751 222.942 396.479 223.683 396.479 225.126V229H397.402V225.412C397.402 223.852 398.286 222.942 399.69 222.942C400.925 222.942 401.653 223.683 401.653 225.126V229H402.576V225.035C402.576 223.072 401.484 222.11 399.82 222.11ZM405.764 220.667C406.154 220.667 406.44 220.368 406.44 219.991C406.44 219.64 406.141 219.354 405.764 219.354C405.387 219.354 405.088 219.653 405.088 220.004C405.088 220.368 405.387 220.667 405.764 220.667ZM405.296 229H406.219V222.162H405.296V229ZM412.28 227.921C412.02 228.155 411.643 228.272 411.266 228.272C410.499 228.272 410.083 227.83 410.083 227.024V222.942H412.163V222.162H410.083V220.667H409.16V222.162H407.938V222.942H409.16V227.076C409.16 228.337 409.875 229.065 411.162 229.065C411.695 229.065 412.241 228.909 412.605 228.584L412.28 227.921Z" fill="#3A4953"/>
<path d="M329 122H509C514.523 122 519 126.477 519 132V143C519 148.523 514.523 153 509 153H330.634" stroke="#3A4953"/>
<path fill-rule="evenodd" clip-rule="evenodd" d="M332 156V150L329 153L332 156Z" fill="#3A4953"/>
<path d="M358.148 103.078C360.475 103.078 361.879 101.726 361.879 99.113L361.879 93.9L360.943 93.9L360.943 99.074C360.943 101.232 359.929 102.22 358.148 102.22C356.38 102.22 355.366 101.232 355.366 99.074L355.366 93.9L354.404 93.9L354.404 99.113C354.404 101.726 355.821 103.078 358.148 103.078ZM368.323 96.11C367.192 96.11 366.243 96.604 365.684 97.514L365.684 96.162L364.8 96.162L364.8 105.522L365.723 105.522L365.723 101.713C366.295 102.597 367.231 103.065 368.323 103.065C370.273 103.065 371.729 101.661 371.729 99.581C371.729 97.514 370.273 96.11 368.323 96.11ZM368.258 102.246C366.802 102.246 365.71 101.18 365.71 99.581C365.71 97.995 366.802 96.916 368.258 96.916C369.701 96.916 370.806 97.995 370.806 99.581C370.806 101.18 369.701 102.246 368.258 102.246ZM379.144 93.354L379.144 97.462C378.572 96.578 377.636 96.11 376.544 96.11C374.594 96.11 373.138 97.514 373.138 99.581C373.138 101.648 374.594 103.065 376.544 103.065C377.675 103.065 378.624 102.571 379.183 101.648L379.183 103L380.067 103L380.067 93.354L379.144 93.354ZM376.622 102.246C375.166 102.246 374.074 101.18 374.074 99.581C374.074 97.982 375.166 96.916 376.622 96.916C378.065 96.916 379.157 97.982 379.157 99.581C379.157 101.18 378.065 102.246 376.622 102.246ZM385.246 96.11C384.167 96.11 383.153 96.448 382.464 97.033L382.88 97.722C383.439 97.228 384.271 96.916 385.155 96.916C386.429 96.916 387.092 97.553 387.092 98.723L387.092 99.139L384.921 99.139C382.958 99.139 382.282 100.023 382.282 101.076C382.282 102.259 383.231 103.065 384.778 103.065C385.909 103.065 386.715 102.636 387.131 101.934L387.131 103L388.015 103L388.015 98.762C388.015 96.994 387.014 96.11 385.246 96.11ZM384.921 102.337C383.829 102.337 383.192 101.843 383.192 101.05C383.192 100.348 383.621 99.828 384.947 99.828L387.092 99.828L387.092 100.946C386.728 101.843 385.961 102.337 384.921 102.337ZM394.015 101.921C393.755 102.155 393.378 102.272 393.001 102.272C392.234 102.272 391.818 101.83 391.818 101.024L391.818 96.942L393.898 96.942L393.898 96.162L391.818 96.162L391.818 94.667L390.895 94.667L390.895 96.162L389.673 96.162L389.673 96.942L390.895 96.942L390.895 101.076C390.895 102.337 391.61 103.065 392.897 103.065C393.43 103.065 393.976 102.909 394.34 102.584L394.015 101.921ZM401.962 99.581C401.962 97.527 400.571 96.11 398.647 96.11C396.723 96.11 395.306 97.553 395.306 99.581C395.306 101.609 396.762 103.065 398.894 103.065C399.973 103.065 400.922 102.675 401.533 101.947L401.013 101.349C400.493 101.947 399.752 102.246 398.92 102.246C397.425 102.246 396.333 101.297 396.229 99.867L401.949 99.867C401.949 99.763 401.962 99.659 401.962 99.581ZM398.647 96.903C399.986 96.903 400.961 97.839 401.078 99.178L396.229 99.178C396.346 97.839 397.321 96.903 398.647 96.903ZM405.891 103.065C407.672 103.065 408.712 102.298 408.712 101.115C408.712 98.489 404.279 99.88 404.279 98.034C404.279 97.384 404.825 96.903 406.06 96.903C406.762 96.903 407.477 97.072 408.075 97.488L408.478 96.747C407.906 96.357 406.944 96.11 406.06 96.11C404.318 96.11 403.356 96.942 403.356 98.06C403.356 100.764 407.789 99.36 407.789 101.141C407.789 101.817 407.256 102.259 405.956 102.259C404.994 102.259 404.071 101.921 403.525 101.492L403.109 102.22C403.668 102.701 404.76 103.065 405.891 103.065ZM423.445 96.162L421.274 101.973L419.09 96.162L418.297 96.162L416.1 101.973L413.955 96.162L413.071 96.162L415.645 103L416.516 103L418.674 97.397L420.832 103L421.703 103L424.29 96.162L423.445 96.162ZM426.364 94.667C426.754 94.667 427.04 94.368 427.04 93.991C427.04 93.64 426.741 93.354 426.364 93.354C425.987 93.354 425.688 93.653 425.688 94.004C425.688 94.368 425.987 94.667 426.364 94.667ZM425.896 103L426.819 103L426.819 96.162L425.896 96.162L425.896 103ZM432.88 101.921C432.62 102.155 432.243 102.272 431.866 102.272C431.099 102.272 430.683 101.83 430.683 101.024L430.683 96.942L432.763 96.942L432.763 96.162L430.683 96.162L430.683 94.667L429.76 94.667L429.76 96.162L428.538 96.162L428.538 96.942L429.76 96.942L429.76 101.076C429.76 102.337 430.475 103.065 431.762 103.065C432.295 103.065 432.841 102.909 433.205 102.584L432.88 101.921ZM438.586 96.11C437.429 96.11 436.532 96.565 436.025 97.358L436.025 93.354L435.102 93.354L435.102 103L436.025 103L436.025 99.412C436.025 97.852 436.948 96.942 438.417 96.942C439.717 96.942 440.471 97.683 440.471 99.126L440.471 103L441.394 103L441.394 99.035C441.394 97.072 440.25 96.11 438.586 96.11ZM451.22 96.11C450.037 96.11 449.114 96.591 448.62 97.423L448.62 96.162L447.736 96.162L447.736 103L448.659 103L448.659 99.412C448.659 97.852 449.582 96.942 451.051 96.942C452.351 96.942 453.105 97.683 453.105 99.126L453.105 103L454.028 103L454.028 99.035C454.028 97.072 452.884 96.11 451.22 96.11ZM462.742 99.581C462.742 97.527 461.351 96.11 459.427 96.11C457.503 96.11 456.086 97.553 456.086 99.581C456.086 101.609 457.542 103.065 459.674 103.065C460.753 103.065 461.702 102.675 462.313 101.947L461.793 101.349C461.273 101.947 460.532 102.246 459.7 102.246C458.205 102.246 457.113 101.297 457.009 99.867L462.729 99.867C462.729 99.763 462.742 99.659 462.742 99.581ZM459.427 96.903C460.766 96.903 461.741 97.839 461.858 99.178L457.009 99.178C457.126 97.839 458.101 96.903 459.427 96.903ZM473.902 96.162L471.731 101.973L469.547 96.162L468.754 96.162L466.557 101.973L464.412 96.162L463.528 96.162L466.102 103L466.973 103L469.131 97.397L471.289 103L472.16 103L474.747 96.162L473.902 96.162ZM355.171 112.501L355.171 111.162L354.287 111.162L354.287 118L355.21 118L355.21 114.516C355.21 112.904 356.081 111.994 357.511 111.994C357.576 111.994 357.654 112.007 357.732 112.007L357.732 111.11C356.471 111.11 355.6 111.591 355.171 112.501ZM365.523 114.581C365.523 112.527 364.132 111.11 362.208 111.11C360.284 111.11 358.867 112.553 358.867 114.581C358.867 116.609 360.323 118.065 362.455 118.065C363.534 118.065 364.483 117.675 365.094 116.947L364.574 116.349C364.054 116.947 363.313 117.246 362.481 117.246C360.986 117.246 359.894 116.297 359.79 114.867L365.51 114.867C365.51 114.763 365.523 114.659 365.523 114.581ZM362.208 111.903C363.547 111.903 364.522 112.839 364.639 114.178L359.79 114.178C359.907 112.839 360.882 111.903 362.208 111.903ZM372.975 111.162L372.975 112.514C372.416 111.604 371.467 111.11 370.336 111.11C368.386 111.11 366.93 112.514 366.93 114.581C366.93 116.661 368.386 118.065 370.336 118.065C371.428 118.065 372.364 117.597 372.936 116.713L372.936 120.522L373.859 120.522L373.859 111.162L372.975 111.162ZM370.414 117.246C368.958 117.246 367.866 116.18 367.866 114.581C367.866 112.995 368.958 111.916 370.414 111.916C371.857 111.916 372.949 112.995 372.949 114.581C372.949 116.18 371.857 117.246 370.414 117.246ZM381.885 111.162L381.885 114.75C381.885 116.31 380.988 117.233 379.558 117.233C378.258 117.233 377.504 116.492 377.504 115.036L377.504 111.162L376.581 111.162L376.581 115.127C376.581 117.09 377.725 118.065 379.467 118.065C380.559 118.065 381.443 117.584 381.924 116.752L381.924 118L382.808 118L382.808 111.162L381.885 111.162ZM391.577 114.581C391.577 112.527 390.186 111.11 388.262 111.11C386.338 111.11 384.921 112.553 384.921 114.581C384.921 116.609 386.377 118.065 388.509 118.065C389.588 118.065 390.537 117.675 391.148 116.947L390.628 116.349C390.108 116.947 389.367 117.246 388.535 117.246C387.04 117.246 385.948 116.297 385.844 114.867L391.564 114.867C391.564 114.763 391.577 114.659 391.577 114.581ZM388.262 111.903C389.601 111.903 390.576 112.839 390.693 114.178L385.844 114.178C385.961 112.839 386.936 111.903 388.262 111.903ZM395.505 118.065C397.286 118.065 398.326 117.298 398.326 116.115C398.326 113.489 393.893 114.88 393.893 113.034C393.893 112.384 394.439 111.903 395.674 111.903C396.376 111.903 397.091 112.072 397.689 112.488L398.092 111.747C397.52 111.357 396.558 111.11 395.674 111.11C393.932 111.11 392.97 111.942 392.97 113.06C392.97 115.764 397.403 114.36 397.403 116.141C397.403 116.817 396.87 117.259 395.57 117.259C394.608 117.259 393.685 116.921 393.139 116.492L392.723 117.22C393.282 117.701 394.374 118.065 395.505 118.065ZM403.525 116.921C403.265 117.155 402.888 117.272 402.511 117.272C401.744 117.272 401.328 116.83 401.328 116.024L401.328 111.942L403.408 111.942L403.408 111.162L401.328 111.162L401.328 109.667L400.405 109.667L400.405 111.162L399.183 111.162L399.183 111.942L400.405 111.942L400.405 116.076C400.405 117.337 401.12 118.065 402.407 118.065C402.94 118.065 403.486 117.909 403.85 117.584L403.525 116.921Z" fill="#3A4953"/>
<path d="M269 242L269 314C269 319.523 264.523 324 259 324L248 324C242.477 324 238 319.523 238 314L238 242.705" stroke="#3A4953"/>
<path fill-rule="evenodd" clip-rule="evenodd" d="M235 245L241 245L238 242L235 245Z" fill="#3A4953"/>
<path d="M215.614 342.078C217.941 342.078 219.345 340.726 219.345 338.113L219.345 332.9L218.409 332.9L218.409 338.074C218.409 340.232 217.395 341.22 215.614 341.22C213.846 341.22 212.832 340.232 212.832 338.074L212.832 332.9L211.87 332.9L211.87 338.113C211.87 340.726 213.287 342.078 215.614 342.078ZM225.789 335.11C224.658 335.11 223.709 335.604 223.15 336.514L223.15 335.162L222.266 335.162L222.266 344.522L223.189 344.522L223.189 340.713C223.761 341.597 224.697 342.065 225.789 342.065C227.739 342.065 229.195 340.661 229.195 338.581C229.195 336.514 227.739 335.11 225.789 335.11ZM225.724 341.246C224.268 341.246 223.176 340.18 223.176 338.581C223.176 336.995 224.268 335.916 225.724 335.916C227.167 335.916 228.272 336.995 228.272 338.581C228.272 340.18 227.167 341.246 225.724 341.246ZM235.939 335.162L233.352 340.986L230.791 335.162L229.829 335.162L232.858 342L233.807 342L236.849 335.162L235.939 335.162ZM240.97 342.065C242.972 342.065 244.441 340.609 244.441 338.581C244.441 336.553 242.972 335.11 240.97 335.11C238.968 335.11 237.486 336.553 237.486 338.581C237.486 340.609 238.968 342.065 240.97 342.065ZM240.97 341.246C239.514 341.246 238.422 340.18 238.422 338.581C238.422 336.982 239.514 335.916 240.97 335.916C242.426 335.916 243.505 336.982 243.505 338.581C243.505 340.18 242.426 341.246 240.97 341.246ZM249.818 340.921C249.558 341.155 249.181 341.272 248.804 341.272C248.037 341.272 247.621 340.83 247.621 340.024L247.621 335.942L249.701 335.942L249.701 335.162L247.621 335.162L247.621 333.667L246.698 333.667L246.698 335.162L245.476 335.162L245.476 335.942L246.698 335.942L246.698 340.076C246.698 341.337 247.413 342.065 248.7 342.065C249.233 342.065 249.779 341.909 250.143 341.584L249.818 340.921ZM257.765 338.581C257.765 336.527 256.374 335.11 254.45 335.11C252.526 335.11 251.109 336.553 251.109 338.581C251.109 340.609 252.565 342.065 254.697 342.065C255.776 342.065 256.725 341.675 257.336 340.947L256.816 340.349C256.296 340.947 255.555 341.246 254.723 341.246C253.228 341.246 252.136 340.297 252.032 338.867L257.752 338.867C257.752 338.763 257.765 338.659 257.765 338.581ZM254.45 335.903C255.789 335.903 256.764 336.839 256.881 338.178L252.032 338.178C252.149 336.839 253.124 335.903 254.45 335.903ZM262.973 338.88L266.379 338.88L266.379 338.074L262.973 338.074L262.973 338.88ZM274.671 335.11C273.592 335.11 272.578 335.448 271.889 336.033L272.305 336.722C272.864 336.228 273.696 335.916 274.58 335.916C275.854 335.916 276.517 336.553 276.517 337.723L276.517 338.139L274.346 338.139C272.383 338.139 271.707 339.023 271.707 340.076C271.707 341.259 272.656 342.065 274.203 342.065C275.334 342.065 276.14 341.636 276.556 340.934L276.556 342L277.44 342L277.44 337.762C277.44 335.994 276.439 335.11 274.671 335.11ZM274.346 341.337C273.254 341.337 272.617 340.843 272.617 340.05C272.617 339.348 273.046 338.828 274.372 338.828L276.517 338.828L276.517 339.946C276.153 340.843 275.386 341.337 274.346 341.337ZM285.506 332.354L285.506 336.462C284.934 335.578 283.998 335.11 282.906 335.11C280.956 335.11 279.5 336.514 279.5 338.581C279.5 340.648 280.956 342.065 282.906 342.065C284.037 342.065 284.986 341.571 285.545 340.648L285.545 342L286.429 342L286.429 332.354L285.506 332.354ZM282.984 341.246C281.528 341.246 280.436 340.18 280.436 338.581C280.436 336.982 281.528 335.916 282.984 335.916C284.427 335.916 285.519 336.982 285.519 338.581C285.519 340.18 284.427 341.246 282.984 341.246ZM294.534 332.354L294.534 336.462C293.962 335.578 293.026 335.11 291.934 335.11C289.984 335.11 288.528 336.514 288.528 338.581C288.528 340.648 289.984 342.065 291.934 342.065C293.065 342.065 294.014 341.571 294.573 340.648L294.573 342L295.457 342L295.457 332.354L294.534 332.354ZM292.012 341.246C290.556 341.246 289.464 340.18 289.464 338.581C289.464 336.982 290.556 335.916 292.012 335.916C293.455 335.916 294.547 336.982 294.547 338.581C294.547 340.18 293.455 341.246 292.012 341.246ZM300.077 342.065C301.858 342.065 302.898 341.298 302.898 340.115C302.898 337.489 298.465 338.88 298.465 337.034C298.465 336.384 299.011 335.903 300.246 335.903C300.948 335.903 301.663 336.072 302.261 336.488L302.664 335.747C302.092 335.357 301.13 335.11 300.246 335.11C298.504 335.11 297.542 335.942 297.542 337.06C297.542 339.764 301.975 338.36 301.975 340.141C301.975 340.817 301.442 341.259 300.142 341.259C299.18 341.259 298.257 340.921 297.711 340.492L297.295 341.22C297.854 341.701 298.946 342.065 300.077 342.065ZM241.486 357.065C242.643 357.065 243.618 356.597 244.164 355.713L243.475 355.245C243.007 355.934 242.279 356.246 241.486 356.246C239.991 356.246 238.899 355.193 238.899 353.581C238.899 351.982 239.991 350.916 241.486 350.916C242.279 350.916 243.007 351.241 243.475 351.93L244.164 351.462C243.618 350.565 242.643 350.11 241.486 350.11C239.445 350.11 237.963 351.54 237.963 353.581C237.963 355.622 239.445 357.065 241.486 357.065ZM248.874 357.065C250.876 357.065 252.345 355.609 252.345 353.581C252.345 351.553 250.876 350.11 248.874 350.11C246.872 350.11 245.39 351.553 245.39 353.581C245.39 355.609 246.872 357.065 248.874 357.065ZM248.874 356.246C247.418 356.246 246.326 355.18 246.326 353.581C246.326 351.982 247.418 350.916 248.874 350.916C250.33 350.916 251.409 351.982 251.409 353.581C251.409 355.18 250.33 356.246 248.874 356.246ZM259.685 350.162L259.685 353.75C259.685 355.31 258.788 356.233 257.358 356.233C256.058 356.233 255.304 355.492 255.304 354.036L255.304 350.162L254.381 350.162L254.381 354.127C254.381 356.09 255.525 357.065 257.267 357.065C258.359 357.065 259.243 356.584 259.724 355.752L259.724 357L260.608 357L260.608 350.162L259.685 350.162ZM266.894 350.11C265.711 350.11 264.788 350.591 264.294 351.423L264.294 350.162L263.41 350.162L263.41 357L264.333 357L264.333 353.412C264.333 351.852 265.256 350.942 266.725 350.942C268.025 350.942 268.779 351.683 268.779 353.126L268.779 357L269.702 357L269.702 353.035C269.702 351.072 268.558 350.11 266.894 350.11ZM275.701 355.921C275.441 356.155 275.064 356.272 274.687 356.272C273.92 356.272 273.504 355.83 273.504 355.024L273.504 350.942L275.584 350.942L275.584 350.162L273.504 350.162L273.504 348.667L272.581 348.667L272.581 350.162L271.359 350.162L271.359 350.942L272.581 350.942L272.581 355.076C272.581 356.337 273.296 357.065 274.583 357.065C275.116 357.065 275.662 356.909 276.026 356.584L275.701 355.921Z" fill="#3A4953"/>
</g>
<defs>
<clipPath id="clip0">
<rect width="598" height="409" fill="white"/>
</clipPath>
</defs>
</svg>
