<svg width="1309" height="279" viewBox="0 0 1309 279" fill="none" xmlns="http://www.w3.org/2000/svg">
<g clip-path="url(#clip0)">
<rect x="22.3512" y="31.5993" width="183.431" height="87.8619" rx="43.9309" fill="#DBDDE0" stroke="#454D58" stroke-width="4.62431"/>
<path d="M66.1965 52.9882C67.163 52.4796 67.7734 51.564 67.7734 50.3771C67.7734 48.5289 66.2474 47.2911 63.2802 47.2911H57.4813V59.1602H63.6193C66.7391 59.1602 68.3669 57.9733 68.3669 55.9216C68.3669 54.4295 67.5191 53.4121 66.1965 52.9882ZM62.941 49.3597C64.2805 49.3597 65.0096 49.8175 65.0096 50.7501C65.0096 51.6826 64.2805 52.1574 62.941 52.1574H60.2112V49.3597H62.941ZM63.4158 57.0915H60.2112V54.1582H63.4158C64.8401 54.1582 65.6031 54.633 65.6031 55.6333C65.6031 56.6507 64.8401 57.0915 63.4158 57.0915ZM74.222 49.9023C72.7638 49.9023 71.2886 50.2923 70.2882 51.0044L71.2378 52.8526C71.899 52.327 72.8994 52.0048 73.8659 52.0048C75.2902 52.0048 75.9684 52.6661 75.9684 53.8021H73.8659C71.0852 53.8021 69.9491 54.9212 69.9491 56.532C69.9491 58.1089 71.2208 59.2958 73.3572 59.2958C74.6967 59.2958 75.6463 58.855 76.138 58.0241V59.1602H78.6135V53.9547C78.6135 51.1909 77.0027 49.9023 74.222 49.9023ZM74.0185 57.5154C73.0859 57.5154 72.5264 57.0746 72.5264 56.4133C72.5264 55.8029 72.9164 55.3451 74.1542 55.3451H75.9684V56.2777C75.6632 57.1085 74.9002 57.5154 74.0185 57.5154ZM85.7979 59.2958C87.7139 59.2958 89.223 58.448 89.8843 56.9898L87.8326 55.8707C87.3409 56.7524 86.6118 57.1255 85.781 57.1255C84.4415 57.1255 83.3902 56.1929 83.3902 54.599C83.3902 53.0052 84.4415 52.0726 85.781 52.0726C86.6118 52.0726 87.3409 52.4626 87.8326 53.3274L89.8843 52.2252C89.223 50.7331 87.7139 49.9023 85.7979 49.9023C82.8307 49.9023 80.7112 51.8522 80.7112 54.599C80.7112 57.3459 82.8307 59.2958 85.7979 59.2958ZM98.4229 59.1602H101.628L97.4903 53.9039L101.288 50.0379H98.1347L94.2687 53.7004V46.579H91.6236V59.1602H94.2687V56.8372L95.5404 55.5825L98.4229 59.1602ZM109.603 50.0379V51.2079C108.908 50.3262 107.857 49.9023 106.585 49.9023C104.059 49.9023 102.024 51.6487 102.024 54.3108C102.024 56.9729 104.059 58.7193 106.585 58.7193C107.772 58.7193 108.772 58.3463 109.468 57.5833V57.9733C109.468 59.618 108.654 60.4658 106.789 60.4658C105.619 60.4658 104.347 60.0588 103.567 59.4314L102.516 61.3305C103.584 62.1613 105.263 62.5852 106.992 62.5852C110.282 62.5852 112.113 61.0253 112.113 57.6341V50.0379H109.603ZM107.111 56.549C105.72 56.549 104.703 55.6503 104.703 54.3108C104.703 52.9713 105.72 52.0726 107.111 52.0726C108.501 52.0726 109.502 52.9713 109.502 54.3108C109.502 55.6503 108.501 56.549 107.111 56.549ZM117.384 51.2418V50.0379H114.857V59.1602H117.502V54.8534C117.502 53.1069 118.469 52.31 119.927 52.31C120.131 52.31 120.3 52.327 120.521 52.3439V49.9023C119.113 49.9023 118.028 50.3601 117.384 51.2418ZM126.634 59.2958C129.533 59.2958 131.636 57.3459 131.636 54.599C131.636 51.8522 129.533 49.9023 126.634 49.9023C123.734 49.9023 121.615 51.8522 121.615 54.599C121.615 57.3459 123.734 59.2958 126.634 59.2958ZM126.634 57.1255C125.311 57.1255 124.294 56.1759 124.294 54.599C124.294 53.0222 125.311 52.0726 126.634 52.0726C127.956 52.0726 128.957 53.0222 128.957 54.599C128.957 56.1759 127.956 57.1255 126.634 57.1255ZM140.231 50.0379V54.5482C140.231 56.2268 139.35 57.0068 138.129 57.0068C136.959 57.0068 136.281 56.3285 136.281 54.8025V50.0379H133.636V55.1925C133.636 58.0072 135.246 59.2958 137.535 59.2958C138.654 59.2958 139.672 58.8719 140.367 58.075V59.1602H142.876V50.0379H140.231ZM151.154 49.9023C149.916 49.9023 148.848 50.3262 148.136 51.1062V50.0379H145.61V59.1602H148.255V54.6499C148.255 52.9713 149.17 52.1913 150.442 52.1913C151.612 52.1913 152.29 52.8696 152.29 54.3447V59.1602H154.935V53.9378C154.935 51.157 153.307 49.9023 151.154 49.9023ZM164.362 46.579V51.0044C163.7 50.2584 162.751 49.9023 161.632 49.9023C159.054 49.9023 157.071 51.7335 157.071 54.599C157.071 57.4646 159.054 59.2958 161.632 59.2958C162.852 59.2958 163.819 58.9058 164.48 58.1089V59.1602H167.007V46.579H164.362ZM162.089 57.1255C160.767 57.1255 159.75 56.1759 159.75 54.599C159.75 53.0222 160.767 52.0726 162.089 52.0726C163.395 52.0726 164.412 53.0222 164.412 54.599C164.412 56.1759 163.395 57.1255 162.089 57.1255ZM120.499 80.685L119.109 79.3964C119.617 78.6333 119.973 77.7177 120.194 76.7004L118.074 76.0391C117.939 76.7343 117.735 77.3617 117.481 77.8873L115.311 75.8696C116.921 74.9879 117.633 74.0892 117.633 72.8684C117.633 71.1898 116.277 70.1385 114.225 70.1385C111.987 70.1385 110.529 71.3254 110.529 73.0549C110.529 73.9027 110.885 74.6657 111.75 75.5643C109.936 76.5817 109.139 77.616 109.139 79.1081C109.139 81.0072 111.055 82.3636 113.666 82.3636C115.192 82.3636 116.548 81.8889 117.633 81.0411L119.058 82.3636L120.499 80.685ZM114.225 71.9358C114.988 71.9358 115.395 72.3427 115.395 72.9192C115.395 73.4618 115.022 73.9027 113.852 74.53C113.123 73.8179 112.937 73.4788 112.937 73.021C112.937 72.3936 113.411 71.9358 114.225 71.9358ZM113.852 80.295C112.547 80.295 111.733 79.6846 111.733 78.8199C111.733 78.0908 112.123 77.5482 113.208 76.9208L116.074 79.5998C115.429 80.0576 114.666 80.295 113.852 80.295ZM80.1839 105.364C83.5581 105.364 85.5589 103.431 85.5589 99.9378V93.2911H82.846V99.836C82.846 102.091 81.8795 103.024 80.2008 103.024C78.5392 103.024 77.5557 102.091 77.5557 99.836V93.2911H74.8089V99.9378C74.8089 103.431 76.8097 105.364 80.1839 105.364ZM91.4384 105.296C94.1682 105.296 95.7451 104.092 95.7451 102.396C95.7451 98.8017 90.2345 100.311 90.2345 98.7509C90.2345 98.2761 90.7432 97.9031 91.9301 97.9031C92.7609 97.9031 93.6596 98.0726 94.5582 98.5813L95.4399 96.6992C94.5752 96.1905 93.1848 95.9023 91.9301 95.9023C89.268 95.9023 87.7081 97.1231 87.7081 98.8526C87.7081 102.498 93.2187 100.972 93.2187 102.464C93.2187 102.973 92.7609 103.295 91.5401 103.295C90.421 103.295 89.1832 102.939 88.3694 102.413L87.4876 104.312C88.3354 104.872 89.8954 105.296 91.4384 105.296ZM106.595 100.633C106.595 97.6996 104.527 95.9023 101.848 95.9023C99.067 95.9023 96.9815 97.8692 96.9815 100.599C96.9815 103.312 99.0331 105.296 102.187 105.296C103.832 105.296 105.103 104.787 105.951 103.821L104.544 102.295C103.916 102.888 103.221 103.176 102.255 103.176C100.864 103.176 99.8979 102.481 99.6435 101.345H106.545C106.562 101.125 106.595 100.836 106.595 100.633ZM101.865 97.9031C103.052 97.9031 103.916 98.6491 104.103 99.8021H99.6096C99.7961 98.6322 100.661 97.9031 101.865 97.9031ZM119.59 105.364C121.659 105.364 123.371 104.618 124.491 103.244L122.727 101.616C121.93 102.549 120.93 103.024 119.743 103.024C117.522 103.024 115.945 101.464 115.945 99.2256C115.945 96.9875 117.522 95.4275 119.743 95.4275C120.93 95.4275 121.93 95.9023 122.727 96.8179L124.491 95.1901C123.371 93.8337 121.659 93.0876 119.607 93.0876C115.911 93.0876 113.164 95.648 113.164 99.2256C113.164 102.803 115.911 105.364 119.59 105.364ZM130.055 95.9023C128.597 95.9023 127.121 96.2923 126.121 97.0044L127.07 98.8526C127.732 98.327 128.732 98.0048 129.699 98.0048C131.123 98.0048 131.801 98.6661 131.801 99.8021H129.699C126.918 99.8021 125.782 100.921 125.782 102.532C125.782 104.109 127.054 105.296 129.19 105.296C130.529 105.296 131.479 104.855 131.971 104.024V105.16H134.446V99.9547C134.446 97.1909 132.835 95.9023 130.055 95.9023ZM129.851 103.515C128.919 103.515 128.359 103.075 128.359 102.413C128.359 101.803 128.749 101.345 129.987 101.345H131.801V102.278C131.496 103.109 130.733 103.515 129.851 103.515ZM140.192 105.296C142.922 105.296 144.499 104.092 144.499 102.396C144.499 98.8017 138.988 100.311 138.988 98.7509C138.988 98.2761 139.497 97.9031 140.684 97.9031C141.514 97.9031 142.413 98.0726 143.312 98.5813L144.193 96.6992C143.329 96.1905 141.938 95.9023 140.684 95.9023C138.021 95.9023 136.462 97.1231 136.462 98.8526C136.462 102.498 141.972 100.972 141.972 102.464C141.972 102.973 141.514 103.295 140.294 103.295C139.174 103.295 137.937 102.939 137.123 102.413L136.241 104.312C137.089 104.872 138.649 105.296 140.192 105.296ZM155.349 100.633C155.349 97.6996 153.28 95.9023 150.601 95.9023C147.821 95.9023 145.735 97.8692 145.735 100.599C145.735 103.312 147.787 105.296 150.94 105.296C152.585 105.296 153.857 104.787 154.705 103.821L153.297 102.295C152.67 102.888 151.975 103.176 151.008 103.176C149.618 103.176 148.651 102.481 148.397 101.345H155.298C155.315 101.125 155.349 100.836 155.349 100.633ZM150.618 97.9031C151.805 97.9031 152.67 98.6491 152.856 99.8021H148.363C148.55 98.6322 149.414 97.9031 150.618 97.9031Z" fill="#454D58"/>
<rect x="282.853" y="31.5993" width="151.061" height="87.8619" rx="43.9309" fill="#DBDDE0" stroke="#454D58" stroke-width="4.62431"/>
<path d="M338.686 62.4466C342.06 62.4466 344.061 60.5137 344.061 57.0208V50.3741H341.348V56.919C341.348 59.1742 340.381 60.1067 338.703 60.1067C337.041 60.1067 336.057 59.1742 336.057 56.919V50.3741H333.311V57.0208C333.311 60.5137 335.311 62.4466 338.686 62.4466ZM349.94 62.3788C352.67 62.3788 354.247 61.1749 354.247 59.4794C354.247 55.8847 348.736 57.3938 348.736 55.8339C348.736 55.3591 349.245 54.9861 350.432 54.9861C351.263 54.9861 352.161 55.1556 353.06 55.6643L353.942 53.7822C353.077 53.2735 351.686 52.9853 350.432 52.9853C347.77 52.9853 346.21 54.2061 346.21 55.9356C346.21 59.5811 351.72 58.0551 351.72 59.5472C351.72 60.0559 351.263 60.378 350.042 60.378C348.923 60.378 347.685 60.022 346.871 59.4963L345.989 61.3954C346.837 61.9549 348.397 62.3788 349.94 62.3788ZM365.097 57.716C365.097 54.7826 363.028 52.9853 360.349 52.9853C357.569 52.9853 355.483 54.9522 355.483 57.6821C355.483 60.395 357.535 62.3788 360.689 62.3788C362.333 62.3788 363.605 61.8701 364.453 60.9037L363.045 59.3776C362.418 59.9711 361.723 60.2593 360.756 60.2593C359.366 60.2593 358.4 59.5641 358.145 58.4281H365.046C365.063 58.2077 365.097 57.9194 365.097 57.716ZM360.366 54.9861C361.553 54.9861 362.418 55.7321 362.605 56.8851H358.111C358.298 55.7152 359.163 54.9861 360.366 54.9861ZM369.667 54.3248V53.1209H367.141V62.2432H369.786V57.9364C369.786 56.1899 370.752 55.393 372.21 55.393C372.414 55.393 372.584 55.41 372.804 55.4269V52.9853C371.397 52.9853 370.311 53.4431 369.667 54.3248ZM377.761 62.3788C380.491 62.3788 382.068 61.1749 382.068 59.4794C382.068 55.8847 376.558 57.3938 376.558 55.8339C376.558 55.3591 377.066 54.9861 378.253 54.9861C379.084 54.9861 379.983 55.1556 380.881 55.6643L381.763 53.7822C380.898 53.2735 379.508 52.9853 378.253 52.9853C375.591 52.9853 374.031 54.2061 374.031 55.9356C374.031 59.5811 379.542 58.0551 379.542 59.5472C379.542 60.0559 379.084 60.378 377.863 60.378C376.744 60.378 375.506 60.022 374.692 59.4963L373.811 61.3954C374.659 61.9549 376.218 62.3788 377.761 62.3788ZM365.587 80.768L364.197 79.4794C364.706 78.7164 365.062 77.8007 365.282 76.7834L363.163 76.1221C363.027 76.8173 362.823 77.4447 362.569 77.9703L360.399 75.9526C362.01 75.0709 362.722 74.1722 362.722 72.9514C362.722 71.2728 361.365 70.2215 359.314 70.2215C357.075 70.2215 355.617 71.4084 355.617 73.1379C355.617 73.9857 355.973 74.7487 356.838 75.6474C355.024 76.6647 354.227 77.699 354.227 79.1911C354.227 81.0902 356.143 82.4466 358.754 82.4466C360.28 82.4466 361.637 81.9719 362.722 81.1241L364.146 82.4466L365.587 80.768ZM359.314 72.0188C360.077 72.0188 360.484 72.4258 360.484 73.0023C360.484 73.5448 360.111 73.9857 358.941 74.6131C358.211 73.9009 358.025 73.5618 358.025 73.104C358.025 72.4766 358.5 72.0188 359.314 72.0188ZM358.941 80.378C357.635 80.378 356.821 79.7676 356.821 78.9029C356.821 78.1738 357.211 77.6312 358.296 77.0038L361.162 79.6828C360.517 80.1406 359.754 80.378 358.941 80.378ZM337.412 102.447C340.803 102.447 342.448 100.751 342.448 98.7672C342.448 94.4096 335.547 95.9186 335.547 93.7314C335.547 92.9853 336.174 92.3749 337.802 92.3749C338.853 92.3749 339.989 92.6801 341.091 93.3075L341.939 91.2219C340.837 90.5267 339.311 90.1706 337.819 90.1706C334.445 90.1706 332.817 91.8493 332.817 93.867C332.817 98.2755 339.718 96.7495 339.718 98.9707C339.718 99.6998 339.057 100.242 337.429 100.242C336.005 100.242 334.513 99.7337 333.512 99.0046L332.58 101.073C333.631 101.887 335.53 102.447 337.412 102.447ZM348.829 102.379C350.745 102.379 352.255 101.531 352.916 100.073L350.864 98.9537C350.372 99.8354 349.643 100.208 348.812 100.208C347.473 100.208 346.422 99.2759 346.422 97.6821C346.422 96.0882 347.473 95.1556 348.812 95.1556C349.643 95.1556 350.372 95.5456 350.864 96.4104L352.916 95.3082C352.255 93.8161 350.745 92.9853 348.829 92.9853C345.862 92.9853 343.743 94.9352 343.743 97.6821C343.743 100.429 345.862 102.379 348.829 102.379ZM358.946 102.379C361.846 102.379 363.948 100.429 363.948 97.6821C363.948 94.9352 361.846 92.9853 358.946 92.9853C356.047 92.9853 353.927 94.9352 353.927 97.6821C353.927 100.429 356.047 102.379 358.946 102.379ZM358.946 100.208C357.624 100.208 356.606 99.2589 356.606 97.6821C356.606 96.1052 357.624 95.1556 358.946 95.1556C360.269 95.1556 361.269 96.1052 361.269 97.6821C361.269 99.2589 360.269 100.208 358.946 100.208ZM371.391 92.9853C370.17 92.9853 369.186 93.3753 368.525 94.1722V93.1209H365.999V105.533H368.644V101.277C369.322 102.023 370.255 102.379 371.391 102.379C373.951 102.379 375.935 100.548 375.935 97.6821C375.935 94.8165 373.951 92.9853 371.391 92.9853ZM370.933 100.208C369.61 100.208 368.61 99.2589 368.61 97.6821C368.61 96.1052 369.61 95.1556 370.933 95.1556C372.255 95.1556 373.256 96.1052 373.256 97.6821C373.256 99.2589 372.255 100.208 370.933 100.208ZM386.924 97.716C386.924 94.7826 384.855 92.9853 382.176 92.9853C379.395 92.9853 377.31 94.9522 377.31 97.6821C377.31 100.395 379.362 102.379 382.515 102.379C384.16 102.379 385.432 101.87 386.28 100.904L384.872 99.3776C384.245 99.9711 383.55 100.259 382.583 100.259C381.193 100.259 380.226 99.5641 379.972 98.4281H386.873C386.89 98.2077 386.924 97.9194 386.924 97.716ZM382.193 94.9861C383.38 94.9861 384.245 95.7321 384.431 96.8851H379.938C380.125 95.7152 380.989 94.9861 382.193 94.9861Z" fill="#454D58"/>
<rect x="1113.69" y="31.5993" width="184.972" height="87.8619" rx="43.9309" fill="#DBDDE0" stroke="#454D58" stroke-width="4.62431"/>
<path d="M1171.41 62.2432H1176.8C1180.68 62.2432 1183.34 59.9033 1183.34 56.3086C1183.34 52.714 1180.68 50.3741 1176.8 50.3741H1171.41V62.2432ZM1174.15 59.988V52.6292H1176.66C1179.02 52.6292 1180.56 54.0366 1180.56 56.3086C1180.56 58.5807 1179.02 59.988 1176.66 59.988H1174.15ZM1194.45 57.716C1194.45 54.7826 1192.38 52.9853 1189.7 52.9853C1186.92 52.9853 1184.83 54.9522 1184.83 57.6821C1184.83 60.395 1186.88 62.3788 1190.04 62.3788C1191.68 62.3788 1192.95 61.8701 1193.8 60.9037L1192.4 59.3776C1191.77 59.9711 1191.07 60.2593 1190.11 60.2593C1188.72 60.2593 1187.75 59.5641 1187.49 58.4281H1194.4C1194.41 58.2077 1194.45 57.9194 1194.45 57.716ZM1189.72 54.9861C1190.9 54.9861 1191.77 55.7321 1191.95 56.8851H1187.46C1187.65 55.7152 1188.51 54.9861 1189.72 54.9861ZM1196.49 62.2432H1199.14V49.662H1196.49V62.2432ZM1203.2 51.8493C1204.18 51.8493 1204.84 51.2049 1204.84 50.3232C1204.84 49.5094 1204.18 48.8989 1203.2 48.8989C1202.21 48.8989 1201.55 49.5433 1201.55 50.3741C1201.55 51.2049 1202.21 51.8493 1203.2 51.8493ZM1201.87 62.2432H1204.52V53.1209H1201.87V62.2432ZM1213.77 53.1209L1211.16 59.3268L1208.63 53.1209H1205.9L1209.73 62.2432H1212.46L1216.31 53.1209H1213.77ZM1226.36 57.716C1226.36 54.7826 1224.29 52.9853 1221.61 52.9853C1218.83 52.9853 1216.75 54.9522 1216.75 57.6821C1216.75 60.395 1218.8 62.3788 1221.95 62.3788C1223.6 62.3788 1224.87 61.8701 1225.71 60.9037L1224.31 59.3776C1223.68 59.9711 1222.99 60.2593 1222.02 60.2593C1220.63 60.2593 1219.66 59.5641 1219.41 58.4281H1226.31C1226.33 58.2077 1226.36 57.9194 1226.36 57.716ZM1221.63 54.9861C1222.82 54.9861 1223.68 55.7321 1223.87 56.8851H1219.37C1219.56 55.7152 1220.42 54.9861 1221.63 54.9861ZM1230.93 54.3248V53.1209H1228.4V62.2432H1231.05V57.9364C1231.05 56.1899 1232.01 55.393 1233.47 55.393C1233.68 55.393 1233.85 55.41 1234.07 55.4269V52.9853C1232.66 52.9853 1231.57 53.4431 1230.93 54.3248ZM1242.75 53.1209L1240.17 59.3098L1237.61 53.1209H1234.88L1238.83 62.311L1238.8 62.3958C1238.44 63.2096 1238.03 63.5318 1237.3 63.5318C1236.78 63.5318 1236.22 63.3114 1235.81 62.9553L1234.85 64.8374C1235.44 65.363 1236.46 65.6682 1237.39 65.6682C1239.03 65.6682 1240.29 65.007 1241.17 62.8027L1245.29 53.1209H1242.75ZM1213.38 80.768L1211.99 79.4794C1212.5 78.7164 1212.85 77.8007 1213.07 76.7834L1210.95 76.1221C1210.82 76.8173 1210.61 77.4447 1210.36 77.9703L1208.19 75.9526C1209.8 75.0709 1210.51 74.1722 1210.51 72.9514C1210.51 71.2728 1209.15 70.2215 1207.1 70.2215C1204.87 70.2215 1203.41 71.4084 1203.41 73.1379C1203.41 73.9857 1203.76 74.7487 1204.63 75.6474C1202.81 76.6647 1202.02 77.699 1202.02 79.1911C1202.02 81.0902 1203.93 82.4466 1206.54 82.4466C1208.07 82.4466 1209.43 81.9719 1210.51 81.1241L1211.94 82.4466L1213.38 80.768ZM1207.1 72.0188C1207.87 72.0188 1208.27 72.4258 1208.27 73.0023C1208.27 73.5448 1207.9 73.9857 1206.73 74.6131C1206 73.9009 1205.81 73.5618 1205.81 73.104C1205.81 72.4766 1206.29 72.0188 1207.1 72.0188ZM1206.73 80.378C1205.42 80.378 1204.61 79.7676 1204.61 78.9029C1204.61 78.1738 1205 77.6312 1206.09 77.0038L1208.95 79.6828C1208.31 80.1406 1207.54 80.378 1206.73 80.378ZM1163.39 100.039V97.2921H1168.9V95.1556H1163.39V92.5784H1169.63V90.3741H1160.66V102.243H1169.85V100.039H1163.39ZM1178.56 93.1209L1175.95 99.3268L1173.42 93.1209H1170.69L1174.52 102.243H1177.25L1181.1 93.1209H1178.56ZM1185.85 92.9853C1184.39 92.9853 1182.91 93.3753 1181.91 94.0874L1182.86 95.9356C1183.52 95.41 1184.52 95.0878 1185.49 95.0878C1186.91 95.0878 1187.59 95.7491 1187.59 96.8851H1185.49C1182.71 96.8851 1181.57 98.0042 1181.57 99.615C1181.57 101.192 1182.84 102.379 1184.98 102.379C1186.32 102.379 1187.27 101.938 1187.76 101.107V102.243H1190.24V97.0377C1190.24 94.2739 1188.63 92.9853 1185.85 92.9853ZM1185.64 100.598C1184.71 100.598 1184.15 100.158 1184.15 99.4963C1184.15 98.8859 1184.54 98.4281 1185.78 98.4281H1187.59V99.3607C1187.29 100.192 1186.52 100.598 1185.64 100.598ZM1192.91 102.243H1195.56V89.662H1192.91V102.243ZM1204.84 93.1209V97.6312C1204.84 99.3098 1203.96 100.09 1202.74 100.09C1201.57 100.09 1200.89 99.4115 1200.89 97.8855V93.1209H1198.25V98.2755C1198.25 101.09 1199.86 102.379 1202.15 102.379C1203.26 102.379 1204.28 101.955 1204.98 101.158V102.243H1207.49V93.1209H1204.84ZM1213.9 92.9853C1212.44 92.9853 1210.97 93.3753 1209.97 94.0874L1210.91 95.9356C1211.58 95.41 1212.58 95.0878 1213.54 95.0878C1214.97 95.0878 1215.65 95.7491 1215.65 96.8851H1213.54C1210.76 96.8851 1209.63 98.0042 1209.63 99.615C1209.63 101.192 1210.9 102.379 1213.03 102.379C1214.37 102.379 1215.32 101.938 1215.81 101.107V102.243H1218.29V97.0377C1218.29 94.2739 1216.68 92.9853 1213.9 92.9853ZM1213.7 100.598C1212.76 100.598 1212.2 100.158 1212.2 99.4963C1212.2 98.8859 1212.59 98.4281 1213.83 98.4281H1215.65V99.3607C1215.34 100.192 1214.58 100.598 1213.7 100.598ZM1226.14 99.9372C1225.85 100.158 1225.46 100.276 1225.07 100.276C1224.36 100.276 1223.93 99.8524 1223.93 99.0724V95.3591H1226.21V93.3244H1223.93V91.1032H1221.29V93.3244H1219.88V95.3591H1221.29V99.1063C1221.29 101.277 1222.54 102.379 1224.7 102.379C1225.51 102.379 1226.31 102.192 1226.85 101.802L1226.14 99.9372ZM1229.94 91.8493C1230.92 91.8493 1231.59 91.2049 1231.59 90.3232C1231.59 89.5094 1230.92 88.8989 1229.94 88.8989C1228.96 88.8989 1228.3 89.5433 1228.3 90.3741C1228.3 91.2049 1228.96 91.8493 1229.94 91.8493ZM1228.62 102.243H1231.26V93.1209H1228.62V102.243ZM1238.34 102.379C1241.24 102.379 1243.34 100.429 1243.34 97.6821C1243.34 94.9352 1241.24 92.9853 1238.34 92.9853C1235.44 92.9853 1233.32 94.9352 1233.32 97.6821C1233.32 100.429 1235.44 102.379 1238.34 102.379ZM1238.34 100.208C1237.02 100.208 1236 99.2589 1236 97.6821C1236 96.1052 1237.02 95.1556 1238.34 95.1556C1239.66 95.1556 1240.66 96.1052 1240.66 97.6821C1240.66 99.2589 1239.66 100.208 1238.34 100.208ZM1250.94 92.9853C1249.7 92.9853 1248.63 93.4092 1247.92 94.1892V93.1209H1245.39V102.243H1248.04V97.7329C1248.04 96.0543 1248.95 95.2743 1250.23 95.2743C1251.4 95.2743 1252.07 95.9526 1252.07 97.4277V102.243H1254.72V97.0208C1254.72 94.24 1253.09 92.9853 1250.94 92.9853Z" fill="#454D58"/>
<rect x="510.986" y="31.5993" width="220.425" height="87.8619" rx="43.9309" fill="#DBDDE0" stroke="#454D58" stroke-width="4.62431" stroke-dasharray="7.71 7.71"/>
<path d="M549.352 82.2817H552.099V70.4127H549.352V82.2817ZM561.658 69.7005V74.126C560.997 73.3799 560.047 73.0239 558.928 73.0239C556.351 73.0239 554.367 74.8551 554.367 77.7206C554.367 80.5862 556.351 82.4174 558.928 82.4174C560.149 82.4174 561.116 82.0274 561.777 81.2305V82.2817H564.303V69.7005H561.658ZM559.386 80.247C558.064 80.247 557.046 79.2975 557.046 77.7206C557.046 76.1437 558.064 75.1942 559.386 75.1942C560.692 75.1942 561.709 76.1437 561.709 77.7206C561.709 79.2975 560.692 80.247 559.386 80.247ZM575.97 77.7545C575.97 74.8212 573.901 73.0239 571.222 73.0239C568.441 73.0239 566.356 74.9907 566.356 77.7206C566.356 80.4336 568.408 82.4174 571.561 82.4174C573.206 82.4174 574.478 81.9087 575.325 80.9422L573.918 79.4162C573.291 80.0097 572.596 80.2979 571.629 80.2979C570.239 80.2979 569.272 79.6027 569.018 78.4667H575.919C575.936 78.2463 575.97 77.958 575.97 77.7545ZM571.239 75.0247C572.426 75.0247 573.291 75.7707 573.477 76.9237H568.984C569.171 75.7538 570.035 75.0247 571.239 75.0247ZM581.444 73.0239C579.986 73.0239 578.511 73.4139 577.511 74.126L578.46 75.9742C579.122 75.4486 580.122 75.1264 581.088 75.1264C582.513 75.1264 583.191 75.7877 583.191 76.9237H581.088C578.308 76.9237 577.172 78.0428 577.172 79.6536C577.172 81.2305 578.443 82.4174 580.58 82.4174C581.919 82.4174 582.869 81.9765 583.36 81.1457V82.2817H585.836V77.0763C585.836 74.3125 584.225 73.0239 581.444 73.0239ZM581.241 80.637C580.308 80.637 579.749 80.1962 579.749 79.5349C579.749 78.9245 580.139 78.4667 581.377 78.4667H583.191V79.3993C582.886 80.2301 582.123 80.637 581.241 80.637ZM601.804 79.6366C601.109 80.0097 600.413 80.1453 599.667 80.1453C597.395 80.1453 595.818 78.5684 595.818 76.3472C595.818 74.0921 597.395 72.5491 599.701 72.5491C600.905 72.5491 601.905 72.973 602.77 73.8886L604.534 72.2609C603.381 70.9214 601.651 70.2092 599.566 70.2092C595.784 70.2092 593.038 72.7695 593.038 76.3472C593.038 79.9249 595.784 82.4852 599.515 82.4852C601.21 82.4852 603.008 81.9596 604.313 80.9761V76.1607H601.804V79.6366ZM615.897 77.7545C615.897 74.8212 613.828 73.0239 611.149 73.0239C608.368 73.0239 606.283 74.9907 606.283 77.7206C606.283 80.4336 608.334 82.4174 611.488 82.4174C613.133 82.4174 614.404 81.9087 615.252 80.9422L613.845 79.4162C613.218 80.0097 612.522 80.2979 611.556 80.2979C610.165 80.2979 609.199 79.6027 608.945 78.4667H615.846C615.863 78.2463 615.897 77.958 615.897 77.7545ZM611.166 75.0247C612.353 75.0247 613.218 75.7707 613.404 76.9237H608.911C609.097 75.7538 609.962 75.0247 611.166 75.0247ZM623.485 73.0239C622.247 73.0239 621.179 73.4478 620.467 74.2277V73.1595H617.94V82.2817H620.585V77.7715C620.585 76.0929 621.501 75.3129 622.773 75.3129C623.942 75.3129 624.621 75.9911 624.621 77.4663V82.2817H627.266V77.0594C627.266 74.2786 625.638 73.0239 623.485 73.0239ZM638.981 77.7545C638.981 74.8212 636.913 73.0239 634.234 73.0239C631.453 73.0239 629.367 74.9907 629.367 77.7206C629.367 80.4336 631.419 82.4174 634.573 82.4174C636.217 82.4174 637.489 81.9087 638.337 80.9422L636.929 79.4162C636.302 80.0097 635.607 80.2979 634.64 80.2979C633.25 80.2979 632.284 79.6027 632.029 78.4667H638.93C638.947 78.2463 638.981 77.958 638.981 77.7545ZM634.25 75.0247C635.437 75.0247 636.302 75.7707 636.489 76.9237H631.995C632.182 75.7538 633.047 75.0247 634.25 75.0247ZM643.551 74.3634V73.1595H641.025V82.2817H643.67V77.975C643.67 76.2285 644.636 75.4316 646.095 75.4316C646.298 75.4316 646.468 75.4486 646.688 75.4655V73.0239C645.281 73.0239 644.195 73.4817 643.551 74.3634ZM652.173 73.0239C650.715 73.0239 649.24 73.4139 648.239 74.126L649.189 75.9742C649.85 75.4486 650.851 75.1264 651.817 75.1264C653.241 75.1264 653.92 75.7877 653.92 76.9237H651.817C649.036 76.9237 647.9 78.0428 647.9 79.6536C647.9 81.2305 649.172 82.4174 651.308 82.4174C652.648 82.4174 653.597 81.9765 654.089 81.1457V82.2817H656.565V77.0763C656.565 74.3125 654.954 73.0239 652.173 73.0239ZM651.97 80.637C651.037 80.637 650.478 80.1962 650.478 79.5349C650.478 78.9245 650.868 78.4667 652.105 78.4667H653.92V79.3993C653.614 80.2301 652.851 80.637 651.97 80.637ZM664.413 79.9757C664.124 80.1962 663.734 80.3149 663.345 80.3149C662.632 80.3149 662.208 79.891 662.208 79.111V75.3977H664.481V73.363H662.208V71.1418H659.563V73.363H658.156V75.3977H659.563V79.1449C659.563 81.3153 660.818 82.4174 662.971 82.4174C663.785 82.4174 664.582 82.2309 665.125 81.8409L664.413 79.9757ZM668.215 71.8878C669.198 71.8878 669.86 71.2435 669.86 70.3618C669.86 69.5479 669.198 68.9375 668.215 68.9375C667.231 68.9375 666.57 69.5818 666.57 70.4127C666.57 71.2435 667.231 71.8878 668.215 71.8878ZM666.892 82.2817H669.537V73.1595H666.892V82.2817ZM676.616 82.4174C679.515 82.4174 681.618 80.4675 681.618 77.7206C681.618 74.9738 679.515 73.0239 676.616 73.0239C673.716 73.0239 671.597 74.9738 671.597 77.7206C671.597 80.4675 673.716 82.4174 676.616 82.4174ZM676.616 80.247C675.293 80.247 674.276 79.2975 674.276 77.7206C674.276 76.1437 675.293 75.1942 676.616 75.1942C677.938 75.1942 678.939 76.1437 678.939 77.7206C678.939 79.2975 677.938 80.247 676.616 80.247ZM689.213 73.0239C687.975 73.0239 686.907 73.4478 686.195 74.2277V73.1595H683.668V82.2817H686.313V77.7715C686.313 76.0929 687.229 75.3129 688.501 75.3129C689.67 75.3129 690.349 75.9911 690.349 77.4663V82.2817H692.994V77.0594C692.994 74.2786 691.366 73.0239 689.213 73.0239Z" fill="#454D58"/>
<rect x="808.483" y="31.5993" width="228.133" height="87.8619" rx="43.9309" fill="#DBDDE0" stroke="#454D58" stroke-width="4.62431" stroke-dasharray="7.71 7.71"/>
<path d="M875.035 50.3741H869.897V62.2432H872.644V58.9707H875.035C878.206 58.9707 880.189 57.326 880.189 54.6809C880.189 52.0188 878.206 50.3741 875.035 50.3741ZM874.882 56.7325H872.644V52.6123H874.882C876.561 52.6123 877.409 53.3753 877.409 54.6809C877.409 55.9695 876.561 56.7325 874.882 56.7325ZM884.773 54.3248V53.1209H882.247V62.2432H884.892V57.9364C884.892 56.1899 885.858 55.393 887.316 55.393C887.52 55.393 887.689 55.41 887.91 55.4269V52.9853C886.502 52.9853 885.417 53.4431 884.773 54.3248ZM894.023 62.3788C896.922 62.3788 899.025 60.4289 899.025 57.6821C899.025 54.9352 896.922 52.9853 894.023 52.9853C891.124 52.9853 889.004 54.9352 889.004 57.6821C889.004 60.4289 891.124 62.3788 894.023 62.3788ZM894.023 60.2085C892.7 60.2085 891.683 59.2589 891.683 57.6821C891.683 56.1052 892.7 55.1556 894.023 55.1556C895.346 55.1556 896.346 56.1052 896.346 57.6821C896.346 59.2589 895.346 60.2085 894.023 60.2085ZM906.247 59.9372C905.959 60.1576 905.569 60.2763 905.179 60.2763C904.467 60.2763 904.043 59.8524 904.043 59.0724V55.3591H906.315V53.3244H904.043V51.1032H901.398V53.3244H899.99V55.3591H901.398V59.1063C901.398 61.2767 902.653 62.3788 904.806 62.3788C905.62 62.3788 906.417 62.1923 906.959 61.8023L906.247 59.9372ZM912.786 62.3788C915.685 62.3788 917.788 60.4289 917.788 57.6821C917.788 54.9352 915.685 52.9853 912.786 52.9853C909.886 52.9853 907.767 54.9352 907.767 57.6821C907.767 60.4289 909.886 62.3788 912.786 62.3788ZM912.786 60.2085C911.463 60.2085 910.446 59.2589 910.446 57.6821C910.446 56.1052 911.463 55.1556 912.786 55.1556C914.108 55.1556 915.109 56.1052 915.109 57.6821C915.109 59.2589 914.108 60.2085 912.786 60.2085ZM925.01 59.9372C924.722 60.1576 924.332 60.2763 923.942 60.2763C923.23 60.2763 922.806 59.8524 922.806 59.0724V55.3591H925.078V53.3244H922.806V51.1032H920.161V53.3244H918.753V55.3591H920.161V59.1063C920.161 61.2767 921.415 62.3788 923.569 62.3788C924.383 62.3788 925.18 62.1923 925.722 61.8023L925.01 59.9372ZM933.835 53.1209L931.258 59.3098L928.697 53.1209H925.968L929.918 62.311L929.884 62.3958C929.528 63.2096 929.121 63.5318 928.392 63.5318C927.867 63.5318 927.307 63.3114 926.9 62.9553L925.934 64.8374C926.527 65.363 927.544 65.6682 928.477 65.6682C930.122 65.6682 931.376 65.007 932.258 62.8027L936.378 53.1209H933.835ZM943.132 52.9853C941.911 52.9853 940.928 53.3753 940.267 54.1722V53.1209H937.74V65.5326H940.385V61.2767C941.064 62.0227 941.996 62.3788 943.132 62.3788C945.693 62.3788 947.676 60.5476 947.676 57.6821C947.676 54.8165 945.693 52.9853 943.132 52.9853ZM942.674 60.2085C941.352 60.2085 940.352 59.2589 940.352 57.6821C940.352 56.1052 941.352 55.1556 942.674 55.1556C943.997 55.1556 944.997 56.1052 944.997 57.6821C944.997 59.2589 943.997 60.2085 942.674 60.2085ZM951.052 51.8493C952.036 51.8493 952.697 51.2049 952.697 50.3232C952.697 49.5094 952.036 48.8989 951.052 48.8989C950.069 48.8989 949.408 49.5433 949.408 50.3741C949.408 51.2049 950.069 51.8493 951.052 51.8493ZM949.73 62.2432H952.375V53.1209H949.73V62.2432ZM960.657 52.9853C959.419 52.9853 958.351 53.4092 957.639 54.1892V53.1209H955.112V62.2432H957.757V57.7329C957.757 56.0543 958.673 55.2743 959.945 55.2743C961.115 55.2743 961.793 55.9526 961.793 57.4277V62.2432H964.438V57.0208C964.438 54.24 962.81 52.9853 960.657 52.9853ZM974.119 53.1209V54.2909C973.423 53.4092 972.372 52.9853 971.1 52.9853C968.574 52.9853 966.539 54.7317 966.539 57.3938C966.539 60.0559 968.574 61.8023 971.1 61.8023C972.287 61.8023 973.288 61.4293 973.983 60.6663V61.0563C973.983 62.701 973.169 63.5488 971.304 63.5488C970.134 63.5488 968.862 63.1418 968.082 62.5145L967.031 64.4135C968.099 65.2443 969.778 65.6682 971.507 65.6682C974.797 65.6682 976.628 64.1083 976.628 60.7171V53.1209H974.119ZM971.626 59.632C970.236 59.632 969.218 58.7333 969.218 57.3938C969.218 56.0543 970.236 55.1556 971.626 55.1556C973.016 55.1556 974.017 56.0543 974.017 57.3938C974.017 58.7333 973.016 59.632 971.626 59.632ZM928.982 80.768L927.592 79.4794C928.101 78.7164 928.457 77.8007 928.677 76.7834L926.558 76.1221C926.422 76.8173 926.219 77.4447 925.964 77.9703L923.794 75.9526C925.405 75.0709 926.117 74.1722 926.117 72.9514C926.117 71.2728 924.76 70.2215 922.709 70.2215C920.47 70.2215 919.012 71.4084 919.012 73.1379C919.012 73.9857 919.368 74.7487 920.233 75.6474C918.419 76.6647 917.622 77.699 917.622 79.1911C917.622 81.0902 919.538 82.4466 922.149 82.4466C923.675 82.4466 925.032 81.9719 926.117 81.1241L927.541 82.4466L928.982 80.768ZM922.709 72.0188C923.472 72.0188 923.879 72.4258 923.879 73.0023C923.879 73.5448 923.506 73.9857 922.336 74.6131C921.607 73.9009 921.42 73.5618 921.42 73.104C921.42 72.4766 921.895 72.0188 922.709 72.0188ZM922.336 80.378C921.03 80.378 920.216 79.7676 920.216 78.9029C920.216 78.1738 920.606 77.6312 921.691 77.0038L924.557 79.6828C923.913 80.1406 923.15 80.378 922.336 80.378ZM870.808 102.243H876.2C880.083 102.243 882.745 99.9033 882.745 96.3086C882.745 92.714 880.083 90.3741 876.2 90.3741H870.808V102.243ZM873.555 99.988V92.6292H876.064C878.421 92.6292 879.964 94.0366 879.964 96.3086C879.964 98.5807 878.421 99.988 876.064 99.988H873.555ZM886.235 91.8493C887.218 91.8493 887.88 91.2049 887.88 90.3232C887.88 89.5094 887.218 88.8989 886.235 88.8989C885.252 88.8989 884.59 89.5433 884.59 90.3741C884.59 91.2049 885.252 91.8493 886.235 91.8493ZM884.912 102.243H887.558V93.1209H884.912V102.243ZM893.364 102.379C896.094 102.379 897.671 101.175 897.671 99.4794C897.671 95.8847 892.16 97.3938 892.16 95.8339C892.16 95.3591 892.669 94.9861 893.856 94.9861C894.687 94.9861 895.585 95.1556 896.484 95.6643L897.366 93.7822C896.501 93.2735 895.11 92.9853 893.856 92.9853C891.194 92.9853 889.634 94.2061 889.634 95.9356C889.634 99.5811 895.144 98.0551 895.144 99.5472C895.144 100.056 894.687 100.378 893.466 100.378C892.347 100.378 891.109 100.022 890.295 99.4963L889.413 101.395C890.261 101.955 891.821 102.379 893.364 102.379ZM903.994 102.379C905.91 102.379 907.419 101.531 908.08 100.073L906.029 98.9537C905.537 99.8354 904.808 100.208 903.977 100.208C902.637 100.208 901.586 99.2759 901.586 97.6821C901.586 96.0882 902.637 95.1556 903.977 95.1556C904.808 95.1556 905.537 95.5456 906.029 96.4104L908.08 95.3082C907.419 93.8161 905.91 92.9853 903.994 92.9853C901.027 92.9853 898.907 94.9352 898.907 97.6821C898.907 100.429 901.027 102.379 903.994 102.379ZM916.431 93.1209V97.6312C916.431 99.3098 915.549 100.09 914.328 100.09C913.158 100.09 912.48 99.4115 912.48 97.8855V93.1209H909.835V98.2755C909.835 101.09 911.446 102.379 913.735 102.379C914.854 102.379 915.871 101.955 916.566 101.158V102.243H919.076V93.1209H916.431ZM924.878 102.379C927.608 102.379 929.185 101.175 929.185 99.4794C929.185 95.8847 923.674 97.3938 923.674 95.8339C923.674 95.3591 924.183 94.9861 925.37 94.9861C926.2 94.9861 927.099 95.1556 927.998 95.6643L928.88 93.7822C928.015 93.2735 926.624 92.9853 925.37 92.9853C922.708 92.9853 921.148 94.2061 921.148 95.9356C921.148 99.5811 926.658 98.0551 926.658 99.5472C926.658 100.056 926.2 100.378 924.98 100.378C923.861 100.378 922.623 100.022 921.809 99.4963L920.927 101.395C921.775 101.955 923.335 102.379 924.878 102.379ZM934.168 102.379C936.898 102.379 938.475 101.175 938.475 99.4794C938.475 95.8847 932.964 97.3938 932.964 95.8339C932.964 95.3591 933.473 94.9861 934.66 94.9861C935.491 94.9861 936.39 95.1556 937.288 95.6643L938.17 93.7822C937.305 93.2735 935.915 92.9853 934.66 92.9853C931.998 92.9853 930.438 94.2061 930.438 95.9356C930.438 99.5811 935.949 98.0551 935.949 99.5472C935.949 100.056 935.491 100.378 934.27 100.378C933.151 100.378 931.913 100.022 931.099 99.4963L930.218 101.395C931.065 101.955 932.625 102.379 934.168 102.379ZM941.712 91.8493C942.696 91.8493 943.357 91.2049 943.357 90.3232C943.357 89.5094 942.696 88.8989 941.712 88.8989C940.729 88.8989 940.068 89.5433 940.068 90.3741C940.068 91.2049 940.729 91.8493 941.712 91.8493ZM940.39 102.243H943.035V93.1209H940.39V102.243ZM950.113 102.379C953.012 102.379 955.115 100.429 955.115 97.6821C955.115 94.9352 953.012 92.9853 950.113 92.9853C947.214 92.9853 945.094 94.9352 945.094 97.6821C945.094 100.429 947.214 102.379 950.113 102.379ZM950.113 100.208C948.79 100.208 947.773 99.2589 947.773 97.6821C947.773 96.1052 948.79 95.1556 950.113 95.1556C951.436 95.1556 952.436 96.1052 952.436 97.6821C952.436 99.2589 951.436 100.208 950.113 100.208ZM962.71 92.9853C961.472 92.9853 960.404 93.4092 959.692 94.1892V93.1209H957.166V102.243H959.811V97.7329C959.811 96.0543 960.726 95.2743 961.998 95.2743C963.168 95.2743 963.846 95.9526 963.846 97.4277V102.243H966.491V97.0208C966.491 94.24 964.863 92.9853 962.71 92.9853ZM972.24 102.379C974.97 102.379 976.547 101.175 976.547 99.4794C976.547 95.8847 971.037 97.3938 971.037 95.8339C971.037 95.3591 971.545 94.9861 972.732 94.9861C973.563 94.9861 974.462 95.1556 975.36 95.6643L976.242 93.7822C975.377 93.2735 973.987 92.9853 972.732 92.9853C970.07 92.9853 968.51 94.2061 968.51 95.9356C968.51 99.5811 974.021 98.0551 974.021 99.5472C974.021 100.056 973.563 100.378 972.342 100.378C971.223 100.378 969.985 100.022 969.171 99.4963L968.29 101.395C969.138 101.955 970.698 102.379 972.24 102.379Z" fill="#454D58"/>
<path d="M608.077 126.397V163.392C608.077 171.905 614.978 178.806 623.492 178.806H919.486C928 178.806 934.901 171.905 934.901 163.392V126.397" stroke="#5C626B" stroke-width="3.08287" stroke-linecap="square" stroke-dasharray="7.71 7.71"/>
<path d="M772.354 178.806V226.591" stroke="#5C626B" stroke-width="3.08287" stroke-linecap="square" stroke-dasharray="7.71 7.71"/>
<path fill-rule="evenodd" clip-rule="evenodd" d="M608.077 121.773L614.994 129.48H601.16L608.077 121.773Z" fill="#5C626B"/>
<path fill-rule="evenodd" clip-rule="evenodd" d="M934.9 121.773L941.817 129.48H927.983L934.9 121.773Z" fill="#5C626B"/>
<rect x="715.264" y="228.133" width="112.525" height="29.2873" rx="14.6436" stroke="#5C626B" stroke-width="3.08287"/>
<path d="M740.478 248.591H742.898V238.133H740.478V248.591ZM749.772 246.559C749.518 246.753 749.175 246.858 748.831 246.858C748.204 246.858 747.83 246.484 747.83 245.797V242.525H749.832V240.732H747.83V238.775H745.5V240.732H744.26V242.525H745.5V245.827C745.5 247.739 746.605 248.71 748.503 248.71C749.22 248.71 749.922 248.546 750.4 248.202L749.772 246.559ZM759.334 244.602C759.334 242.017 757.511 240.434 755.15 240.434C752.7 240.434 750.863 242.167 750.863 244.572C750.863 246.962 752.67 248.71 755.449 248.71C756.898 248.71 758.019 248.262 758.766 247.411L757.526 246.066C756.973 246.589 756.361 246.843 755.509 246.843C754.284 246.843 753.432 246.23 753.208 245.229H759.289C759.304 245.035 759.334 244.781 759.334 244.602ZM755.165 242.196C756.211 242.196 756.973 242.854 757.137 243.87H753.178C753.343 242.839 754.105 242.196 755.165 242.196ZM763.111 241.614V240.553H760.885V248.591H763.216V244.796C763.216 243.257 764.068 242.555 765.352 242.555C765.532 242.555 765.681 242.57 765.875 242.585V240.434C764.635 240.434 763.679 240.837 763.111 241.614ZM770.459 240.434C769.174 240.434 767.875 240.777 766.993 241.405L767.83 243.033C768.413 242.57 769.294 242.286 770.146 242.286C771.401 242.286 771.998 242.869 771.998 243.87H770.146C767.695 243.87 766.694 244.856 766.694 246.275C766.694 247.665 767.815 248.71 769.697 248.71C770.878 248.71 771.714 248.322 772.148 247.59V248.591H774.329V244.004C774.329 241.569 772.91 240.434 770.459 240.434ZM770.28 247.142C769.458 247.142 768.965 246.753 768.965 246.171C768.965 245.633 769.309 245.229 770.4 245.229H771.998V246.051C771.729 246.783 771.057 247.142 770.28 247.142ZM780.995 246.559C780.741 246.753 780.397 246.858 780.054 246.858C779.426 246.858 779.053 246.484 779.053 245.797V242.525H781.055V240.732H779.053V238.775H776.722V240.732H775.482V242.525H776.722V245.827C776.722 247.739 777.828 248.71 779.725 248.71C780.442 248.71 781.144 248.546 781.622 248.202L780.995 246.559ZM784.096 239.433C784.963 239.433 785.545 238.865 785.545 238.088C785.545 237.371 784.963 236.833 784.096 236.833C783.229 236.833 782.647 237.401 782.647 238.133C782.647 238.865 783.229 239.433 784.096 239.433ZM782.931 248.591H785.261V240.553H782.931V248.591ZM791.249 248.71C793.804 248.71 795.656 246.992 795.656 244.572C795.656 242.152 793.804 240.434 791.249 240.434C788.694 240.434 786.827 242.152 786.827 244.572C786.827 246.992 788.694 248.71 791.249 248.71ZM791.249 246.798C790.084 246.798 789.187 245.961 789.187 244.572C789.187 243.183 790.084 242.346 791.249 242.346C792.414 242.346 793.296 243.183 793.296 244.572C793.296 245.961 792.414 246.798 791.249 246.798ZM802.1 240.434C801.009 240.434 800.068 240.807 799.44 241.494V240.553H797.214V248.591H799.545V244.617C799.545 243.138 800.352 242.45 801.472 242.45C802.503 242.45 803.101 243.048 803.101 244.348V248.591H805.431V243.989C805.431 241.539 803.997 240.434 802.1 240.434Z" fill="#5C626B"/>
<path d="M208.372 76.3014H274.106" stroke="#454D58" stroke-width="4.62431" stroke-linecap="square"/>
<path fill-rule="evenodd" clip-rule="evenodd" d="M280.541 76.3013L272.834 81.6963V70.9062L280.541 76.3013Z" fill="#454D58"/>
<path d="M734.002 76.3014H799.736" stroke="#454D58" stroke-width="4.62431" stroke-linecap="square"/>
<path fill-rule="evenodd" clip-rule="evenodd" d="M806.171 76.3013L798.464 81.6963V70.9062L806.171 76.3013Z" fill="#454D58"/>
<path d="M436.505 76.3009H502.239" stroke="#454D58" stroke-width="4.62431" stroke-linecap="square"/>
<path fill-rule="evenodd" clip-rule="evenodd" d="M508.674 76.3008L500.967 81.6958V70.9058L508.674 76.3008Z" fill="#454D58"/>
<path d="M1039.21 76.3014H1104.94" stroke="#454D58" stroke-width="4.62431" stroke-linecap="square"/>
<path fill-rule="evenodd" clip-rule="evenodd" d="M1111.38 76.3013L1103.67 81.6963V70.9062L1111.38 76.3013Z" fill="#454D58"/>
</g>
<defs>
<clipPath id="clip0">
<rect width="1308.68" height="279" fill="white"/>
</clipPath>
</defs>
</svg>
