<svg width="709" height="504" viewBox="0 0 709 504" fill="none" xmlns="http://www.w3.org/2000/svg">
<rect x="0.321549" y="0.321549" width="708.357" height="503.357" fill="#F8F8F8"/>
<path d="M663.993 46.4999L671.691 38.8017C672.103 38.3895 672.103 37.7213 671.691 37.3091C671.279 36.897 670.61 36.897 670.198 37.3091L662.5 45.0074L654.802 37.3091C654.39 36.897 653.721 36.897 653.309 37.3091C652.897 37.7213 652.897 38.3895 653.309 38.8017L661.007 46.4999L653.309 54.1982C652.897 54.6104 652.897 55.2785 653.309 55.6907C653.516 55.8971 653.785 56 654.055 56C654.326 56 654.595 55.8971 654.802 55.6907L662.5 47.9925L670.198 55.6907C670.405 55.8971 670.674 56 670.945 56C671.215 56 671.484 55.8971 671.691 55.6907C672.103 55.2785 672.103 54.6104 671.691 54.1982L663.993 46.4999Z" fill="white"/>
<path d="M211.196 72.194C211.844 75.569 214.733 77.405 218.702 77.405C223.346 77.405 225.857 75.11 225.857 72.086C225.857 69.008 224.021 67.334 218.891 66.227C214.409 65.282 213.248 64.013 213.248 61.799C213.248 59.666 215.03 58.154 218.729 58.154C221.915 58.154 224.156 59.558 224.723 61.88H225.911C225.263 58.91 222.428 57.155 218.702 57.155C214.328 57.155 212.06 59.099 212.06 61.88C212.06 64.607 213.734 66.281 218.108 67.172C223.373 68.252 224.696 69.575 224.696 72.113C224.696 74.705 222.563 76.379 218.702 76.379C215.489 76.379 212.978 75.002 212.411 72.194H211.196ZM229.382 62.96V72.572C229.382 75.812 231.434 77.405 234.161 77.405C235.916 77.405 237.86 76.541 238.859 74.57L238.994 77H239.939V62.96H238.805V71.6C238.805 74.381 236.888 76.46 234.404 76.46C232.028 76.46 230.516 75.164 230.516 72.545V62.96H229.382ZM245.121 77L245.31 74.219C246.147 76.109 247.875 77.405 250.251 77.405C253.572 77.405 256.164 74.813 256.164 69.791C256.164 64.904 253.734 62.555 250.332 62.555C247.929 62.555 246.201 63.905 245.337 65.768V57.56H244.203V77H245.121ZM250.143 63.5C252.978 63.5 255.003 65.444 255.003 69.764C255.003 74.3 252.87 76.46 250.089 76.46C247.281 76.46 245.229 74.354 245.229 70.007C245.229 65.201 247.74 63.5 250.143 63.5ZM260.788 77V68.252C260.788 65.579 262.543 63.5 264.946 63.5C267.187 63.5 268.456 64.742 268.456 67.334V77H269.563V68.279C269.563 65.579 271.291 63.5 273.694 63.5C275.935 63.5 277.231 64.688 277.231 67.334V77H278.365V67.28C278.365 64.283 276.691 62.555 273.91 62.555C272.155 62.555 270.211 63.446 269.32 65.498C268.78 63.608 267.268 62.555 265.108 62.555C263.434 62.555 261.625 63.392 260.734 65.309L260.599 62.96H259.654V77H260.788ZM283.487 77V62.96H282.38V77H283.487ZM283.649 59.234V57.56H282.245V59.234H283.649ZM292.651 63.932V62.96H289.33V59.585H288.304L288.196 62.96H286.171V63.932H288.196V74.327C288.196 76.379 289.384 77.405 291.247 77.405C291.787 77.405 292.354 77.324 292.975 77.162V76.217C292.273 76.433 291.787 76.46 291.274 76.46C290.086 76.46 289.33 75.812 289.33 74.354V63.932H292.651ZM303.875 57.56V77H305.036V68.144H314.027V67.145H305.036V58.559H315.026V57.56H303.875ZM328.398 73.247C327.858 75.272 326.103 76.433 323.889 76.433C320.946 76.433 318.543 74.489 318.408 70.25H329.856C329.856 65.012 327.075 62.555 323.565 62.555C320.028 62.555 317.274 65.174 317.274 69.98C317.274 74.759 320.109 77.405 323.862 77.405C326.751 77.405 328.911 75.785 329.586 73.247H328.398ZM318.435 69.305C318.651 65.498 320.838 63.473 323.565 63.473C326.319 63.473 328.479 65.417 328.668 69.305H318.435ZM334.212 66.497C334.401 64.742 335.994 63.473 338.316 63.473C340.8 63.473 342.312 64.823 342.312 66.902V68.279L338.073 68.981C334.077 69.656 332.646 71.087 332.646 73.463C332.646 76.001 334.671 77.405 337.29 77.405C339.882 77.405 341.502 76.055 342.339 74.543L342.528 77H343.419V67.091C343.419 64.256 341.34 62.555 338.37 62.555C335.4 62.555 333.294 64.148 333.078 66.497H334.212ZM342.312 69.197V72.032C342.312 74.678 339.936 76.433 337.614 76.433C335.4 76.433 333.807 75.434 333.807 73.382C333.807 71.573 334.86 70.439 338.451 69.845L342.312 69.197ZM352.584 63.932V62.96H349.263V59.585H348.237L348.129 62.96H346.104V63.932H348.129V74.327C348.129 76.379 349.317 77.405 351.18 77.405C351.72 77.405 352.287 77.324 352.908 77.162V76.217C352.206 76.433 351.72 76.46 351.207 76.46C350.019 76.46 349.263 75.812 349.263 74.354V63.932H352.584ZM355.443 62.96V72.572C355.443 75.812 357.495 77.405 360.222 77.405C361.977 77.405 363.921 76.541 364.92 74.57L365.055 77H366V62.96H364.866V71.6C364.866 74.381 362.949 76.46 360.465 76.46C358.089 76.46 356.577 75.164 356.577 72.545V62.96H355.443ZM371.399 77V69.143C371.399 65.795 373.208 63.608 375.341 63.608C375.881 63.608 376.367 63.716 376.826 63.851V62.771C376.502 62.663 375.935 62.555 375.422 62.555C373.586 62.555 372.101 63.554 371.345 65.849L371.183 62.96H370.265V77H371.399ZM389.385 73.247C388.845 75.272 387.09 76.433 384.876 76.433C381.933 76.433 379.53 74.489 379.395 70.25H390.843C390.843 65.012 388.062 62.555 384.552 62.555C381.015 62.555 378.261 65.174 378.261 69.98C378.261 74.759 381.096 77.405 384.849 77.405C387.738 77.405 389.898 75.785 390.573 73.247H389.385ZM379.422 69.305C379.638 65.498 381.825 63.473 384.552 63.473C387.306 63.473 389.466 65.417 389.655 69.305H379.422ZM416.686 77L411.124 68.684C413.905 68.009 415.984 66.092 415.984 63.284C415.984 59.72 413.635 57.56 409.423 57.56H402.673V77H403.834V68.846H409.909L415.255 77H416.686ZM403.834 67.82V58.559H409.477C412.933 58.559 414.769 60.314 414.769 63.284C414.769 65.93 412.717 67.82 409.369 67.82H403.834ZM429.253 73.247C428.713 75.272 426.958 76.433 424.744 76.433C421.801 76.433 419.398 74.489 419.263 70.25H430.711C430.711 65.012 427.93 62.555 424.42 62.555C420.883 62.555 418.129 65.174 418.129 69.98C418.129 74.759 420.964 77.405 424.717 77.405C427.606 77.405 429.766 75.785 430.441 73.247H429.253ZM419.29 69.305C419.506 65.498 421.693 63.473 424.42 63.473C427.174 63.473 429.334 65.417 429.523 69.305H419.29ZM444.571 62.96L444.382 65.714C443.518 63.824 441.763 62.555 439.414 62.555C436.201 62.555 433.501 65.039 433.501 70.142C433.501 75.029 436.201 77.405 439.36 77.405C441.736 77.405 443.491 76.055 444.355 74.165V81.86H445.462V62.96H444.571ZM439.576 63.5C442.357 63.5 444.463 65.606 444.463 69.953C444.463 74.732 441.952 76.46 439.576 76.46C436.849 76.46 434.662 74.462 434.662 70.115C434.662 65.606 436.903 63.5 439.576 63.5ZM449.627 62.96V72.572C449.627 75.812 451.679 77.405 454.406 77.405C456.161 77.405 458.105 76.541 459.104 74.57L459.239 77H460.184V62.96H459.05V71.6C459.05 74.381 457.133 76.46 454.649 76.46C452.273 76.46 450.761 75.164 450.761 72.545V62.96H449.627ZM474.762 73.247C474.222 75.272 472.467 76.433 470.253 76.433C467.31 76.433 464.907 74.489 464.772 70.25H476.22C476.22 65.012 473.439 62.555 469.929 62.555C466.392 62.555 463.638 65.174 463.638 69.98C463.638 74.759 466.473 77.405 470.226 77.405C473.115 77.405 475.275 75.785 475.95 73.247H474.762ZM464.799 69.305C465.015 65.498 467.202 63.473 469.929 63.473C472.683 63.473 474.843 65.417 475.032 69.305H464.799ZM478.741 73.355C479.092 75.731 481.036 77.405 484.276 77.405C487.651 77.405 489.676 75.434 489.676 73.274C489.676 70.979 488.137 69.818 484.465 69.143C481.36 68.603 480.334 67.766 480.334 66.092C480.334 64.688 481.522 63.473 484.114 63.473C486.463 63.473 488.218 64.715 488.434 66.362H489.595C489.19 64.067 487.057 62.555 484.195 62.555C480.847 62.555 479.2 64.175 479.2 66.2C479.2 68.441 481.036 69.629 483.736 70.061C487.138 70.601 488.488 71.465 488.488 73.301C488.488 74.948 487.03 76.46 484.303 76.46C481.765 76.46 480.118 75.191 479.902 73.355H478.741ZM498.131 63.932V62.96H494.81V59.585H493.784L493.676 62.96H491.651V63.932H493.676V74.327C493.676 76.379 494.864 77.405 496.727 77.405C497.267 77.405 497.834 77.324 498.455 77.162V76.217C497.753 76.433 497.267 76.46 496.754 76.46C495.566 76.46 494.81 75.812 494.81 74.354V63.932H498.131Z" fill="#333333"/>
<rect x="356" y="416" width="90" height="30" rx="15" fill="#4F4F4F"/>
<path d="M379.767 432.374C380.027 434.09 381.548 435.195 383.563 435.195C385.89 435.195 387.216 433.869 387.216 432.413C387.216 430.97 386.475 430.203 383.875 429.475C381.73 428.877 381.418 428.526 381.418 427.798C381.418 427.096 382.016 426.537 383.446 426.537C384.85 426.537 385.643 427.07 385.786 427.98H387.151C386.917 426.394 385.448 425.445 383.446 425.445C381.301 425.445 380.092 426.485 380.092 427.85C380.092 429.137 380.768 429.904 382.939 430.502C385.461 431.191 385.89 431.594 385.89 432.465C385.89 433.349 385.097 434.103 383.537 434.103C382.146 434.103 381.288 433.427 381.132 432.374H379.767ZM388.65 428.24V432.647C388.65 434.376 389.625 435.195 391.016 435.195C391.835 435.195 392.563 434.87 393.044 434.22L393.187 435H394.214V428.24H392.966V432.361C392.966 433.284 392.433 434.129 391.302 434.129C390.431 434.129 389.898 433.674 389.898 432.673V428.24H388.65ZM397.067 435L397.262 434.103C397.704 434.74 398.419 435.195 399.459 435.195C401.24 435.195 402.527 433.908 402.527 431.568C402.527 429.319 401.331 428.045 399.55 428.045C398.497 428.045 397.743 428.526 397.288 429.176V425.64H396.04V435H397.067ZM401.227 431.542C401.227 433.323 400.434 434.129 399.264 434.129C398.042 434.129 397.223 433.18 397.223 431.542C397.223 429.93 398.146 429.111 399.264 429.111C400.382 429.111 401.227 429.878 401.227 431.542ZM405.21 435V430.84C405.21 429.878 405.925 429.111 406.835 429.111C407.693 429.111 408.148 429.527 408.148 430.567V435H409.396V430.879C409.396 429.956 410.02 429.111 411.021 429.111C411.892 429.111 412.334 429.54 412.334 430.567V435H413.582V430.476C413.582 428.864 412.672 428.045 411.294 428.045C410.475 428.045 409.617 428.292 409.097 429.111C408.72 428.409 408.005 428.045 407.108 428.045C406.354 428.045 405.613 428.318 405.119 429.033L404.989 428.24H403.962V435H405.21ZM416.663 427.109V425.64H415.259V427.109H416.663ZM416.585 435V428.24H415.337V435H416.585ZM421.425 433.999C421.048 434.09 420.879 434.103 420.658 434.103C420.19 434.103 419.943 433.856 419.943 433.349V429.306H421.399V428.24H419.943V426.615H418.773L418.695 428.24H417.694V429.306H418.695V433.323C418.695 434.441 419.306 435.195 420.502 435.195C420.814 435.195 421.087 435.156 421.425 435.065V433.999Z" fill="white"/>
<rect x="263.5" y="416.5" width="86" height="29" rx="14.5" stroke="#4F4F4F"/>
<path d="M294.548 429.643C294.418 427.927 292.832 426.445 290.583 426.445C288.009 426.445 286.189 428.161 286.189 431.32C286.189 434.44 287.866 436.195 290.479 436.195C292.858 436.195 294.457 434.518 294.561 432.698H293.222C293.144 434.05 292.026 435.077 290.505 435.077C288.75 435.077 287.541 433.738 287.541 431.32C287.541 428.785 288.789 427.55 290.583 427.55C292.026 427.55 293.04 428.369 293.209 429.643H294.548ZM297.05 431.125C297.141 430.449 297.609 430.033 298.571 430.033C299.572 430.033 300.131 430.501 300.131 431.333V431.671L298.155 432.009C296.335 432.321 295.594 433.023 295.594 434.258C295.594 435.363 296.452 436.195 297.934 436.195C299.026 436.195 299.754 435.701 300.196 435.077L300.352 436H301.379V431.385C301.379 429.994 300.391 429.045 298.623 429.045C296.933 429.045 295.854 429.877 295.724 431.125H297.05ZM300.131 432.646V433.517C300.131 434.44 299.182 435.142 298.233 435.142C297.388 435.142 296.92 434.778 296.92 434.128C296.92 433.53 297.245 433.153 298.454 432.945L300.131 432.646ZM304.38 436V431.827C304.38 430.761 305.16 430.111 306.057 430.111C306.98 430.111 307.5 430.592 307.5 431.606V436H308.748V431.593C308.748 429.942 307.825 429.045 306.356 429.045C305.55 429.045 304.796 429.409 304.302 430.098L304.159 429.24H303.132V436H304.38ZM314.915 433.829C314.785 434.674 314.174 435.142 313.342 435.142C312.289 435.142 311.444 434.362 311.444 432.711C311.444 430.917 312.224 430.098 313.329 430.098C314.122 430.098 314.681 430.501 314.85 431.242H316.228C316.007 429.864 314.837 429.045 313.303 429.045C311.392 429.045 310.118 430.41 310.118 432.672C310.118 434.96 311.522 436.195 313.316 436.195C314.993 436.195 316.098 435.142 316.28 433.829H314.915ZM322.308 434.05C322.113 434.674 321.489 435.142 320.67 435.142C319.539 435.142 318.694 434.453 318.59 432.893H323.738C323.738 430.163 322.438 429.045 320.566 429.045C318.694 429.045 317.316 430.267 317.316 432.62C317.316 434.999 318.707 436.195 320.631 436.195C322.256 436.195 323.322 435.285 323.66 434.05H322.308ZM318.642 431.905C318.837 430.657 319.591 430.046 320.592 430.046C321.632 430.046 322.373 430.644 322.464 431.905H318.642ZM326.482 426.64H325.234V436H326.482V426.64Z" fill="#4F4F4F"/>
<path d="M65.106 192.92V203H66.198V198.618H70.622V197.68H66.198V193.858H71.112V192.92H65.106ZM77.6655 200.956C77.4275 201.782 76.6575 202.328 75.6775 202.328C74.3335 202.328 73.2835 201.474 73.1995 199.598H78.8835C78.8835 196.742 77.4695 195.51 75.5375 195.51C73.5915 195.51 72.1355 196.84 72.1355 199.36C72.1355 201.88 73.6195 203.21 75.6355 203.21C77.2875 203.21 78.4215 202.286 78.7855 200.956H77.6655ZM73.2275 198.758C73.3955 197.162 74.3475 196.35 75.5515 196.35C76.7975 196.35 77.7215 197.148 77.8195 198.758H73.2275ZM81.4483 197.68C81.5463 196.868 82.1763 196.336 83.2823 196.336C84.4443 196.336 85.1303 196.924 85.1303 197.89V198.394L82.9603 198.758C80.9583 199.094 80.1883 199.85 80.1883 201.138C80.1883 202.384 81.1543 203.21 82.6663 203.21C83.8983 203.21 84.7243 202.608 85.1863 201.894L85.3123 203H86.1663V197.96C86.1663 196.476 85.0883 195.51 83.3243 195.51C81.6163 195.51 80.4823 196.378 80.3563 197.68H81.4483ZM85.1303 200.368C85.1303 201.502 84.0103 202.328 82.9183 202.328C81.9103 202.328 81.2803 201.88 81.2803 201.04C81.2803 200.284 81.7143 199.808 83.2403 199.542L85.1303 199.22V200.368ZM91.1231 196.616V195.72H89.4851V193.97H88.5191L88.4491 195.72H87.3851V196.616H88.4491V201.362C88.4491 202.51 89.0791 203.21 90.2411 203.21C90.5631 203.21 90.8571 203.168 91.2071 203.07V202.188C90.8151 202.286 90.6051 202.3 90.3531 202.3C89.8071 202.3 89.4851 202.006 89.4851 201.39V196.616H91.1231ZM92.4465 195.72V200.564C92.4465 202.342 93.4965 203.21 94.9525 203.21C95.8625 203.21 96.7305 202.818 97.2485 201.992L97.3605 203H98.2285V195.72H97.1785V200.172C97.1785 201.348 96.4505 202.328 95.1905 202.328C94.1405 202.328 93.4825 201.754 93.4825 200.564V195.72H92.4465ZM101.318 203V199.178C101.318 197.386 102.186 196.518 103.18 196.518C103.488 196.518 103.74 196.574 103.992 196.644V195.608C103.824 195.566 103.544 195.51 103.222 195.51C102.368 195.51 101.668 195.986 101.276 196.966L101.136 195.72H100.282V203H101.318ZM110.123 200.956C109.885 201.782 109.115 202.328 108.135 202.328C106.791 202.328 105.741 201.474 105.657 199.598H111.341C111.341 196.742 109.927 195.51 107.995 195.51C106.049 195.51 104.593 196.84 104.593 199.36C104.593 201.88 106.077 203.21 108.093 203.21C109.745 203.21 110.879 202.286 111.243 200.956H110.123ZM105.685 198.758C105.853 197.162 106.805 196.35 108.009 196.35C109.255 196.35 110.179 197.148 110.277 198.758H105.685ZM117.333 192.92V203H120.315C123.199 203 125.285 201.194 125.285 197.96C125.285 194.586 123.297 192.92 120.385 192.92H117.333ZM120.399 193.816C122.653 193.816 124.179 195.188 124.179 197.96C124.179 200.648 122.709 202.076 120.427 202.076H118.425V193.816H120.399ZM132.121 200.956C131.883 201.782 131.113 202.328 130.133 202.328C128.789 202.328 127.739 201.474 127.655 199.598H133.339C133.339 196.742 131.925 195.51 129.993 195.51C128.047 195.51 126.591 196.84 126.591 199.36C126.591 201.88 128.075 203.21 130.091 203.21C131.743 203.21 132.877 202.286 133.241 200.956H132.121ZM127.683 198.758C127.851 197.162 128.803 196.35 130.007 196.35C131.253 196.35 132.177 197.148 132.275 198.758H127.683ZM134.503 200.998C134.643 202.328 135.763 203.21 137.527 203.21C139.389 203.21 140.467 202.23 140.467 200.984C140.467 199.612 139.487 199.08 137.695 198.716C136.225 198.422 135.833 198.1 135.833 197.414C135.833 196.826 136.351 196.336 137.485 196.336C138.535 196.336 139.221 196.84 139.361 197.582H140.425C140.201 196.308 139.081 195.51 137.513 195.51C135.707 195.51 134.769 196.35 134.769 197.512C134.769 198.618 135.567 199.248 137.149 199.57C138.633 199.864 139.403 200.158 139.403 201.054C139.403 201.768 138.759 202.37 137.541 202.37C136.407 202.37 135.707 201.894 135.567 200.998H134.503ZM147.004 200.76C146.85 201.726 146.08 202.328 145.058 202.328C143.812 202.328 142.79 201.418 142.79 199.458C142.79 197.358 143.756 196.392 145.058 196.392C146.038 196.392 146.752 196.91 146.934 197.806H148.082C147.844 196.392 146.64 195.51 145.03 195.51C143.098 195.51 141.698 196.91 141.698 199.416C141.698 201.894 143.154 203.21 145.03 203.21C146.738 203.21 147.914 202.146 148.124 200.76H147.004ZM150.81 203V199.178C150.81 197.386 151.678 196.518 152.672 196.518C152.98 196.518 153.232 196.574 153.484 196.644V195.608C153.316 195.566 153.036 195.51 152.714 195.51C151.86 195.51 151.16 195.986 150.768 196.966L150.628 195.72H149.774V203H150.81ZM155.649 203V195.72H154.599V203H155.649ZM155.719 194.222V192.92H154.529V194.222H155.719ZM157.677 195.72V205.52H158.713V201.88C159.161 202.664 159.987 203.21 161.121 203.21C162.969 203.21 164.355 201.838 164.355 199.29C164.355 196.826 163.067 195.51 161.219 195.51C160.043 195.51 159.175 196.084 158.685 196.882L158.531 195.72H157.677ZM163.263 199.262C163.263 201.362 162.297 202.328 160.967 202.328C159.609 202.328 158.643 201.278 158.643 199.318C158.643 197.274 159.763 196.392 160.981 196.392C162.297 196.392 163.263 197.302 163.263 199.262ZM168.957 196.616V195.72H167.319V193.97H166.353L166.283 195.72H165.219V196.616H166.283V201.362C166.283 202.51 166.913 203.21 168.075 203.21C168.397 203.21 168.691 203.168 169.041 203.07V202.188C168.649 202.286 168.439 202.3 168.187 202.3C167.641 202.3 167.319 202.006 167.319 201.39V196.616H168.957ZM171.358 203V195.72H170.308V203H171.358ZM171.428 194.222V192.92H170.238V194.222H171.428ZM172.966 199.36C172.966 201.88 174.464 203.21 176.438 203.21C178.426 203.21 179.896 201.908 179.896 199.36C179.896 196.784 178.398 195.51 176.438 195.51C174.506 195.51 172.966 196.77 172.966 199.36ZM174.044 199.36C174.044 197.372 175.066 196.364 176.438 196.364C177.81 196.364 178.818 197.344 178.818 199.36C178.818 201.334 177.838 202.356 176.452 202.356C175.08 202.356 174.044 201.334 174.044 199.36ZM182.584 203V198.492C182.584 197.19 183.564 196.392 184.6 196.392C185.706 196.392 186.35 197.008 186.35 198.17V203H187.386V198.142C187.386 196.476 186.406 195.51 184.838 195.51C183.914 195.51 183.032 195.958 182.528 196.812L182.402 195.72H181.548V203H182.584ZM192.742 197.68L193.526 197.106L192.098 195.454L194.254 194.964L193.932 194.04L191.916 194.894L192.112 192.71H191.146L191.328 194.894L189.34 194.04L189.018 194.964L191.16 195.454L189.718 197.106L190.502 197.694L191.622 195.818L192.742 197.68Z" fill="#4F4F4F"/>
<rect x="65.5" y="213.66" width="587" height="141.84" rx="1.5" stroke="#4F4F4F"/>
<path d="M65.106 113.92V124H66.198V119.618H70.622V118.68H66.198V114.858H71.112V113.92H65.106ZM77.6655 121.956C77.4275 122.782 76.6575 123.328 75.6775 123.328C74.3335 123.328 73.2835 122.474 73.1995 120.598H78.8835C78.8835 117.742 77.4695 116.51 75.5375 116.51C73.5915 116.51 72.1355 117.84 72.1355 120.36C72.1355 122.88 73.6195 124.21 75.6355 124.21C77.2875 124.21 78.4215 123.286 78.7855 121.956H77.6655ZM73.2275 119.758C73.3955 118.162 74.3475 117.35 75.5515 117.35C76.7975 117.35 77.7215 118.148 77.8195 119.758H73.2275ZM81.4483 118.68C81.5463 117.868 82.1763 117.336 83.2823 117.336C84.4443 117.336 85.1303 117.924 85.1303 118.89V119.394L82.9603 119.758C80.9583 120.094 80.1883 120.85 80.1883 122.138C80.1883 123.384 81.1543 124.21 82.6663 124.21C83.8983 124.21 84.7243 123.608 85.1863 122.894L85.3123 124H86.1663V118.96C86.1663 117.476 85.0883 116.51 83.3243 116.51C81.6163 116.51 80.4823 117.378 80.3563 118.68H81.4483ZM85.1303 121.368C85.1303 122.502 84.0103 123.328 82.9183 123.328C81.9103 123.328 81.2803 122.88 81.2803 122.04C81.2803 121.284 81.7143 120.808 83.2403 120.542L85.1303 120.22V121.368ZM91.1231 117.616V116.72H89.4851V114.97H88.5191L88.4491 116.72H87.3851V117.616H88.4491V122.362C88.4491 123.51 89.0791 124.21 90.2411 124.21C90.5631 124.21 90.8571 124.168 91.2071 124.07V123.188C90.8151 123.286 90.6051 123.3 90.3531 123.3C89.8071 123.3 89.4851 123.006 89.4851 122.39V117.616H91.1231ZM92.4465 116.72V121.564C92.4465 123.342 93.4965 124.21 94.9525 124.21C95.8625 124.21 96.7305 123.818 97.2485 122.992L97.3605 124H98.2285V116.72H97.1785V121.172C97.1785 122.348 96.4505 123.328 95.1905 123.328C94.1405 123.328 93.4825 122.754 93.4825 121.564V116.72H92.4465ZM101.318 124V120.178C101.318 118.386 102.186 117.518 103.18 117.518C103.488 117.518 103.74 117.574 103.992 117.644V116.608C103.824 116.566 103.544 116.51 103.222 116.51C102.368 116.51 101.668 116.986 101.276 117.966L101.136 116.72H100.282V124H101.318ZM110.123 121.956C109.885 122.782 109.115 123.328 108.135 123.328C106.791 123.328 105.741 122.474 105.657 120.598H111.341C111.341 117.742 109.927 116.51 107.995 116.51C106.049 116.51 104.593 117.84 104.593 120.36C104.593 122.88 106.077 124.21 108.093 124.21C109.745 124.21 110.879 123.286 111.243 121.956H110.123ZM105.685 119.758C105.853 118.162 106.805 117.35 108.009 117.35C109.255 117.35 110.179 118.148 110.277 119.758H105.685ZM124.277 113.92H116.423V114.9H119.783V124H120.889V114.9H124.277V113.92ZM126.515 124V116.72H125.465V124H126.515ZM126.585 115.222V113.92H125.395V115.222H126.585ZM131.51 117.616V116.72H129.872V114.97H128.906L128.836 116.72H127.772V117.616H128.836V122.362C128.836 123.51 129.466 124.21 130.628 124.21C130.95 124.21 131.244 124.168 131.594 124.07V123.188C131.202 123.286 130.992 123.3 130.74 123.3C130.194 123.3 129.872 123.006 129.872 122.39V117.616H131.51ZM133.939 113.92H132.903V124H133.939V113.92ZM141.117 121.956C140.879 122.782 140.109 123.328 139.129 123.328C137.785 123.328 136.735 122.474 136.651 120.598H142.335C142.335 117.742 140.921 116.51 138.989 116.51C137.043 116.51 135.587 117.84 135.587 120.36C135.587 122.88 137.071 124.21 139.087 124.21C140.739 124.21 141.873 123.286 142.237 121.956H141.117ZM136.679 119.758C136.847 118.162 137.799 117.35 139.003 117.35C140.249 117.35 141.173 118.148 141.271 119.758H136.679ZM147.419 118.68L148.203 118.106L146.775 116.454L148.931 115.964L148.609 115.04L146.593 115.894L146.789 113.71H145.823L146.005 115.894L144.017 115.04L143.695 115.964L145.837 116.454L144.395 118.106L145.179 118.694L146.299 116.818L147.419 118.68Z" fill="#4F4F4F"/>
<rect x="65.5" y="134.66" width="587" height="32.8398" rx="1.5" stroke="#4F4F4F"/>
<rect x="0.321549" y="0.321549" width="708.357" height="503.357" stroke="black" stroke-width="0.643098"/>
</svg>
