<svg width="975" height="556" viewBox="0 0 975 556" fill="none" xmlns="http://www.w3.org/2000/svg">
<g clip-path="url(#clip0)">
<path d="M127.093 117.57H77.0229C74.0901 117.567 71.2784 116.4 69.2046 114.326C67.1308 112.253 65.9643 109.441 65.9609 106.508V56.4382C65.9643 53.5054 67.1308 50.6937 69.2046 48.6199C71.2784 46.5461 74.0901 45.3795 77.0229 45.3762H127.093C130.026 45.3796 132.837 46.5461 134.911 48.6199C136.985 50.6937 138.151 53.5054 138.155 56.4382V106.508C138.151 109.441 136.985 112.253 134.911 114.326C132.837 116.4 130.026 117.567 127.093 117.57V117.57ZM77.0229 47.7051C74.7075 47.7076 72.4877 48.6286 70.8505 50.2658C69.2133 51.903 68.2923 54.1228 68.2898 56.4382V106.508C68.2923 108.823 69.2133 111.043 70.8505 112.68C72.4877 114.318 74.7075 115.239 77.0229 115.241H127.093C129.408 115.239 131.628 114.318 133.265 112.68C134.902 111.043 135.823 108.823 135.826 106.508V56.4382C135.823 54.1228 134.902 51.903 133.265 50.2658C131.628 48.6286 129.408 47.7076 127.093 47.7051H77.0229Z" fill="#CCCCCC"/>
<path fill-rule="evenodd" clip-rule="evenodd" d="M93.5636 64.4866H121.167C123.513 64.4866 125.414 66.3879 125.414 68.7333V94.2134C125.414 96.5588 123.513 98.4601 121.167 98.4601H93.5636C92.4909 98.4601 92.007 98.0642 91.023 97.0114C90.9246 96.9061 90.8244 96.7955 90.7224 96.68C90.3321 96.2375 89.9841 95.8047 89.8091 95.5728L78.0596 81.4734L79.1923 80.114L89.7029 67.5126C89.9239 67.198 90.2589 66.7526 90.6483 66.2952C90.8038 66.1126 90.9573 65.9416 91.1091 65.7835C91.9279 64.931 92.5354 64.4866 93.5636 64.4866ZM93.882 69.048C93.5936 69.3869 93.3297 69.7377 93.0715 70.0926L83.5874 81.4736L93.127 92.9237C93.3024 93.153 93.5946 93.5165 93.9068 93.8703C93.983 93.9566 94.0562 94.0374 94.1255 94.1116C94.1591 94.1476 94.1915 94.1816 94.2224 94.2135H121.167V68.7333H94.1642C94.0775 68.824 93.9825 68.93 93.882 69.048ZM111.172 73.6018L106.304 78.4704L101.435 73.6018L98.4324 76.6046L103.301 81.4733L98.4324 86.3419L101.435 89.3447L106.304 84.4761L111.172 89.3447L114.175 86.3419L109.307 81.4733L114.175 76.6046L111.172 73.6018Z" fill="black"/>
<path d="M356.74 117.57H308.142C305.296 117.566 302.567 116.4 300.554 114.326C298.541 112.252 297.409 109.441 297.406 106.508V56.4379C297.409 53.5051 298.541 50.6934 300.554 48.6196C302.567 46.5458 305.296 45.3793 308.142 45.376H356.74C359.586 45.3793 362.315 46.5458 364.328 48.6196C366.341 50.6934 367.473 53.5051 367.476 56.4379V106.508C367.473 109.441 366.341 112.252 364.328 114.326C362.315 116.4 359.586 117.566 356.74 117.57V117.57ZM308.142 47.7048C305.895 47.7074 303.741 48.6283 302.152 50.2655C300.562 51.9027 299.669 54.1226 299.666 56.4379V106.508C299.669 108.823 300.562 111.043 302.152 112.68C303.741 114.317 305.895 115.238 308.142 115.241H356.74C358.987 115.238 361.141 114.317 362.73 112.68C364.32 111.043 365.213 108.823 365.216 106.508V56.4379C365.213 54.1226 364.32 51.9027 362.73 50.2655C361.141 48.6283 358.987 47.7074 356.74 47.7048H308.142Z" fill="#CCCCCC"/>
<path fill-rule="evenodd" clip-rule="evenodd" d="M313.77 60.8616L310.767 63.8644L317.759 70.8564H316.515C312.997 70.8564 310.145 73.7083 310.145 77.2264V96.3365C310.145 99.8546 312.997 102.707 316.515 102.707H349.609L353.234 106.331L356.237 103.329L313.77 60.8616ZM345.363 98.4599L340.557 93.6542C338.644 95.3568 336.153 96.3364 333.502 96.3364C327.638 96.3364 322.885 91.5831 322.885 85.7196C322.885 83.0673 323.866 80.5762 325.567 78.6647L322.006 75.1031H316.515C315.343 75.1031 314.392 76.0537 314.392 77.2264V96.3365C314.392 97.5092 315.343 98.4599 316.515 98.4599H345.363ZM328.579 81.676C327.657 82.7959 327.132 84.2129 327.132 85.7196C327.132 89.2377 329.984 92.0897 333.502 92.0897C335.008 92.0897 336.425 91.5651 337.545 90.6428L328.579 81.676ZM350.489 70.8564C354.007 70.8564 356.859 73.7084 356.859 77.2265V96.3366H352.612V77.2265C352.612 76.0538 351.661 75.1031 350.489 75.1031H344.119C342.708 75.1031 341.757 74.3311 340.805 73.0079C340.586 72.7035 340.369 72.3711 340.108 71.948C340.019 71.8036 339.788 71.4225 339.629 71.1597L339.628 71.1589L339.627 71.1574L339.627 71.1571C339.551 71.0324 339.492 70.9347 339.472 70.9023C338.512 69.3313 337.933 68.7331 337.749 68.7331H329.255C329.319 68.7331 329.298 68.753 329.156 68.8854L329.155 68.8855L329.155 68.8856L329.155 68.8859C329.115 68.9233 329.065 68.9697 329.005 69.0271C328.859 69.1659 328.215 69.8264 328.251 69.7905C328.236 69.8049 325.213 66.8227 325.213 66.8227C325.147 66.8892 325.863 66.1549 326.074 65.9536C327.064 65.01 327.997 64.4864 329.255 64.4864H337.749C340.056 64.4864 341.335 65.8079 343.096 68.6873C343.12 68.7277 343.189 68.8408 343.273 68.9795L343.274 68.9805C343.432 69.2413 343.644 69.5916 343.722 69.7177C343.935 70.063 344.102 70.319 344.252 70.5281C344.352 70.666 344.438 70.7756 344.509 70.8564H350.489ZM348.366 81.473C349.538 81.473 350.489 80.5224 350.489 79.3497C350.489 78.177 349.538 77.2263 348.366 77.2263C347.193 77.2263 346.242 78.177 346.242 79.3497C346.242 80.5224 347.193 81.473 348.366 81.473Z" fill="black"/>
<path d="M356.74 215.244H308.142C305.296 215.24 302.567 214.074 300.554 212C298.541 209.926 297.409 207.114 297.406 204.182V154.112C297.409 151.179 298.541 148.367 300.554 146.293C302.567 144.22 305.296 143.053 308.142 143.05H356.74C359.586 143.053 362.315 144.22 364.328 146.293C366.341 148.367 367.473 151.179 367.476 154.112V204.182C367.473 207.114 366.341 209.926 364.328 212C362.315 214.074 359.586 215.24 356.74 215.244V215.244ZM308.142 145.379C305.895 145.381 303.741 146.302 302.152 147.939C300.562 149.577 299.669 151.796 299.666 154.112V204.182C299.669 206.497 300.562 208.717 302.152 210.354C303.741 211.991 305.895 212.912 308.142 212.915H356.74C358.987 212.912 361.141 211.991 362.73 210.354C364.32 208.717 365.213 206.497 365.216 204.182V154.112C365.213 151.796 364.32 149.577 362.73 147.939C361.141 146.302 358.987 145.381 356.74 145.379H308.142Z" fill="#CCCCCC"/>
<path fill-rule="evenodd" clip-rule="evenodd" d="M329.255 196.134C319.874 196.134 312.269 188.529 312.269 179.147C312.269 169.766 319.874 162.16 329.255 162.16C338.637 162.16 346.242 169.766 346.242 179.147C346.242 183.073 344.911 186.687 342.675 189.564L354.114 201.003L351.111 204.006L339.672 192.566C336.795 194.802 333.181 196.134 329.255 196.134ZM341.995 179.147C341.995 186.183 336.292 191.887 329.255 191.887C322.219 191.887 316.515 186.183 316.515 179.147C316.515 172.111 322.219 166.407 329.255 166.407C336.292 166.407 341.995 172.111 341.995 179.147Z" fill="black"/>
<path d="M242.079 215.244H193.481C190.635 215.24 187.906 214.074 185.893 212C183.88 209.926 182.748 207.114 182.745 204.182V154.112C182.748 151.179 183.88 148.367 185.893 146.293C187.906 144.22 190.635 143.053 193.481 143.05H242.079C244.925 143.053 247.654 144.22 249.667 146.293C251.68 148.367 252.812 151.179 252.815 154.112V204.182C252.812 207.114 251.68 209.926 249.667 212C247.654 214.074 244.925 215.24 242.079 215.244V215.244ZM193.481 145.379C191.234 145.381 189.08 146.302 187.491 147.939C185.902 149.577 185.008 151.796 185.005 154.112V204.182C185.008 206.497 185.902 208.717 187.491 210.354C189.08 211.991 191.234 212.912 193.481 212.915H242.079C244.326 212.912 246.481 211.991 248.07 210.354C249.659 208.717 250.553 206.497 250.555 204.182V154.112C250.553 151.796 249.659 149.577 248.07 147.939C246.481 146.302 244.326 145.381 242.079 145.379H193.481Z" fill="#CCCCCC"/>
<path fill-rule="evenodd" clip-rule="evenodd" d="M218.842 155.79C223.532 155.79 227.335 159.593 227.335 164.284V179.147C227.335 183.838 223.532 187.641 218.842 187.641C214.151 187.641 210.348 183.838 210.348 179.147V164.284C210.348 159.593 214.151 155.79 218.842 155.79ZM220.965 196.002V198.257H227.335V202.504H210.348V198.257H216.718V196.002C208.339 194.957 201.855 187.809 201.855 179.147V174.9H206.102V179.147C206.102 186.183 211.806 191.887 218.842 191.887C225.878 191.887 231.582 186.183 231.582 179.147V174.9H235.829V179.147C235.829 187.809 229.345 194.957 220.965 196.002ZM214.595 164.284C214.595 161.938 216.496 160.037 218.842 160.037C221.187 160.037 223.088 161.938 223.088 164.284V179.147C223.088 181.492 221.187 183.394 218.842 183.394C216.496 183.394 214.595 181.492 214.595 179.147V164.284Z" fill="#E53935"/>
<path d="M127.092 215.244H77.0224C74.0896 215.24 71.2779 214.074 69.2041 212C67.1303 209.926 65.9638 207.114 65.9604 204.182V154.112C65.9638 151.179 67.1303 148.367 69.2041 146.293C71.2779 144.22 74.0896 143.053 77.0224 143.05H127.092C130.025 143.053 132.837 144.22 134.911 146.293C136.984 148.367 138.151 151.179 138.154 154.112V204.182C138.151 207.114 136.984 209.926 134.911 212C132.837 214.074 130.025 215.24 127.092 215.244V215.244ZM77.0224 145.379C74.707 145.381 72.4872 146.302 70.85 147.939C69.2128 149.577 68.2919 151.796 68.2893 154.112V204.182C68.2919 206.497 69.2128 208.717 70.85 210.354C72.4872 211.991 74.707 212.912 77.0224 212.915H127.092C129.408 212.912 131.628 211.991 133.265 210.354C134.902 208.717 135.823 206.497 135.825 204.182V154.112C135.823 151.796 134.902 149.577 133.265 147.939C131.628 146.302 129.408 145.381 127.092 145.379H77.0224Z" fill="#CCCCCC"/>
<path fill-rule="evenodd" clip-rule="evenodd" d="M112.674 189.764V194.822L102.058 189.513L91.4408 194.822V162.16H112.674V164.284H116.921V162.16C116.921 159.815 115.02 157.914 112.674 157.914H91.4408C89.0954 157.914 87.1941 159.815 87.1941 162.16V201.693L102.058 194.261L116.921 201.693V189.764H112.674ZM114.798 170.654V174.9H110.551V179.147H114.798V183.394H119.044V179.147H123.291V174.9H119.044V170.654H114.798Z" fill="black"/>
<path d="M242.079 117.57H193.481C190.635 117.566 187.906 116.4 185.893 114.326C183.88 112.252 182.748 109.441 182.745 106.508V56.4379C182.748 53.5051 183.88 50.6934 185.893 48.6196C187.906 46.5458 190.635 45.3793 193.481 45.376H242.079C244.925 45.3793 247.654 46.5458 249.667 48.6196C251.68 50.6934 252.812 53.5051 252.815 56.4379V106.508C252.812 109.441 251.68 112.252 249.667 114.326C247.654 116.4 244.925 117.566 242.079 117.57V117.57ZM193.481 47.7048C191.234 47.7074 189.08 48.6283 187.491 50.2655C185.902 51.9027 185.008 54.1226 185.005 56.4379V106.508C185.008 108.823 185.902 111.043 187.491 112.68C189.08 114.317 191.234 115.238 193.481 115.241H242.079C244.326 115.238 246.481 114.317 248.07 112.68C249.659 111.043 250.553 108.823 250.555 106.508V56.4379C250.553 54.1226 249.659 51.9027 248.07 50.2655C246.481 48.6283 244.326 47.7074 242.079 47.7048H193.481Z" fill="#CCCCCC"/>
<path fill-rule="evenodd" clip-rule="evenodd" d="M220.965 87.843V65.3657L227.957 72.3576L230.96 69.3547L218.842 57.2366L206.723 69.3547L209.726 72.3576L216.718 65.3657V87.843H220.965ZM237.952 96.3368V77.2266H233.705V96.3368H203.978V77.2266H199.732V96.3368C199.732 98.6821 201.633 100.583 203.978 100.583H233.705C236.051 100.583 237.952 98.6821 237.952 96.3368Z" fill="black"/>
<path d="M127.092 310.794H77.0224C74.0896 310.791 71.2779 309.625 69.2041 307.551C67.1303 305.477 65.9638 302.665 65.9604 299.732V249.663C65.9638 246.73 67.1303 243.918 69.2041 241.844C71.2779 239.77 74.0896 238.604 77.0224 238.601H127.092C130.025 238.604 132.837 239.77 134.911 241.844C136.984 243.918 138.151 246.73 138.154 249.663V299.732C138.151 302.665 136.984 305.477 134.911 307.551C132.837 309.625 130.025 310.791 127.092 310.794V310.794ZM77.0224 240.929C74.707 240.932 72.4872 241.853 70.85 243.49C69.2128 245.127 68.2919 247.347 68.2893 249.663V299.732C68.2919 302.048 69.2128 304.268 70.85 305.905C72.4872 307.542 74.707 308.463 77.0224 308.466H127.092C129.408 308.463 131.628 307.542 133.265 305.905C134.902 304.268 135.823 302.048 135.825 299.732V249.663C135.823 247.347 134.902 245.127 133.265 243.49C131.628 241.853 129.408 240.932 127.092 240.929H77.0224Z" fill="#CCCCCC"/>
<path fill-rule="evenodd" clip-rule="evenodd" d="M114.798 251.341H89.3175C86.9721 251.341 85.0708 253.242 85.0708 255.587V293.808C85.0708 296.153 86.9721 298.054 89.3175 298.054H114.798C117.143 298.054 119.044 296.153 119.044 293.808V255.587C119.044 253.242 117.143 251.341 114.798 251.341ZM89.3173 264.081V255.588H114.798V264.081H89.3173ZM89.3173 268.328V293.808H114.798V268.328H89.3173ZM97.8107 289.561H93.564V285.314H97.8107V289.561ZM99.9339 289.561H104.181V285.314H99.9339V289.561ZM110.551 289.561H106.304V283.191V281.068V278.944H110.551V281.068V283.191V289.561ZM93.564 283.191H97.8107V278.944H93.564V283.191ZM104.181 283.191H99.9339V278.944H104.181V283.191ZM97.8107 276.821H93.564V272.574H97.8107V276.821ZM99.9339 276.821H104.181V272.574H99.9339V276.821ZM110.551 276.821H106.304V272.574H110.551V276.821Z" fill="black"/>
<path d="M242.079 310.794H193.481C190.635 310.791 187.906 309.625 185.893 307.551C183.88 305.477 182.748 302.665 182.745 299.732V249.663C182.748 246.73 183.88 243.918 185.893 241.844C187.906 239.77 190.635 238.604 193.481 238.601H242.079C244.925 238.604 247.654 239.77 249.667 241.844C251.68 243.918 252.812 246.73 252.815 249.663V299.732C252.812 302.665 251.68 305.477 249.667 307.551C247.654 309.625 244.925 310.791 242.079 310.794V310.794ZM193.481 240.929C191.234 240.932 189.08 241.853 187.491 243.49C185.902 245.127 185.008 247.347 185.005 249.663V299.732C185.008 302.048 185.902 304.268 187.491 305.905C189.08 307.542 191.234 308.463 193.481 308.466H242.079C244.326 308.463 246.481 307.542 248.07 305.905C249.659 304.268 250.553 302.048 250.555 299.732V249.663C250.553 247.347 249.659 245.127 248.07 243.49C246.481 241.853 244.326 240.932 242.079 240.929H193.481Z" fill="#CCCCCC"/>
<path fill-rule="evenodd" clip-rule="evenodd" d="M199.732 255.588H237.952C240.297 255.588 242.199 257.489 242.199 259.834V289.561C242.199 291.907 240.297 293.808 237.952 293.808H199.732C197.386 293.808 195.485 291.907 195.485 289.561V259.834C195.485 257.489 197.386 255.588 199.732 255.588ZM199.732 269.64V289.561H237.952V269.641L218.842 279.196L199.732 269.64ZM199.732 264.892L218.842 274.448L237.952 264.893V259.834H199.732V264.892Z" fill="black"/>
<path d="M356.74 310.794H308.142C305.296 310.791 302.567 309.625 300.554 307.551C298.541 305.477 297.409 302.665 297.406 299.732V249.663C297.409 246.73 298.541 243.918 300.554 241.844C302.567 239.77 305.296 238.604 308.142 238.601H356.74C359.586 238.604 362.315 239.77 364.328 241.844C366.341 243.918 367.473 246.73 367.476 249.663V299.732C367.473 302.665 366.341 305.477 364.328 307.551C362.315 309.625 359.586 310.791 356.74 310.794V310.794ZM308.142 240.929C305.895 240.932 303.741 241.853 302.152 243.49C300.562 245.127 299.669 247.347 299.666 249.663V299.732C299.669 302.048 300.562 304.268 302.152 305.905C303.741 307.542 305.895 308.463 308.142 308.466H356.74C358.987 308.463 361.141 307.542 362.73 305.905C364.32 304.268 365.213 302.048 365.216 299.732V249.663C365.213 247.347 364.32 245.127 362.73 243.49C361.141 241.853 358.987 240.932 356.74 240.929H308.142Z" fill="#CCCCCC"/>
<path fill-rule="evenodd" clip-rule="evenodd" d="M353.053 265.68C355.296 266.926 355.296 269.729 353.053 270.975L350.175 272.574L353.053 274.173C355.296 275.419 355.296 278.222 353.053 279.468L350.175 281.067L353.053 282.666C355.296 283.913 355.296 286.716 353.053 287.962L335.958 297.459C334.53 298.253 332.474 298.253 331.046 297.459L313.951 287.962C311.708 286.716 311.708 283.913 313.951 282.666L316.829 281.067L313.951 279.468C311.708 278.222 311.708 275.419 313.951 274.173L316.829 272.574L313.951 270.975C311.708 269.729 311.708 266.926 313.951 265.68L331.046 256.183C332.474 255.389 334.53 255.389 335.958 256.183L353.053 265.68ZM335.958 280.473L345.803 275.003L349.075 276.821L345.803 278.638L345.803 278.638L341.43 281.067L341.431 281.067L333.896 285.254C333.75 285.334 333.254 285.334 333.109 285.254L325.574 281.067L325.574 281.067L321.201 278.638L321.201 278.638L317.93 276.821L321.201 275.003L331.046 280.473C332.474 281.266 334.53 281.266 335.958 280.473ZM321.201 283.496L317.93 285.314L333.109 293.747C333.254 293.828 333.75 293.828 333.896 293.747L349.075 285.314L345.803 283.496L335.958 288.966C334.53 289.759 332.474 289.759 331.046 288.966L321.201 283.496ZM333.109 259.895C333.254 259.814 333.75 259.814 333.896 259.895L349.075 268.328L333.896 276.76C333.75 276.841 333.254 276.841 333.109 276.76L317.93 268.328L333.109 259.895Z" fill="black"/>
<path fill-rule="evenodd" clip-rule="evenodd" d="M210.348 349.015H223.088C225.433 349.015 227.334 350.916 227.334 353.262V355.385H233.705C236.05 355.385 237.951 357.286 237.951 359.632V363.878C237.951 366.224 236.05 368.125 233.705 368.125H233.535L231.581 391.482C231.581 393.827 229.68 395.728 227.335 395.728H206.101C203.756 395.728 201.854 393.827 201.862 391.658L199.901 368.125H199.731C197.386 368.125 195.484 366.224 195.484 363.878V359.632C195.484 357.286 197.386 355.385 199.731 355.385H206.101V353.262C206.101 350.916 208.002 349.015 210.348 349.015ZM206.101 359.632V359.632H199.731V363.878H233.705V359.632H227.334V359.632H206.101ZM206.101 391.482L204.161 368.125H229.274L227.342 391.306L227.335 391.482H206.101ZM223.088 353.262V355.385H210.348V353.262H223.088Z" fill="black"/>
<path d="M239.955 408.469H191.358C188.511 408.465 185.782 407.299 183.77 405.225C181.757 403.151 180.625 400.34 180.621 397.407V347.337C180.625 344.404 181.757 341.592 183.77 339.519C185.782 337.445 188.511 336.278 191.358 336.275H239.955C242.802 336.278 245.531 337.445 247.544 339.519C249.556 341.592 250.689 344.404 250.692 347.337V397.407C250.689 400.34 249.556 403.151 247.544 405.225C245.531 407.299 242.802 408.465 239.955 408.469V408.469ZM191.358 338.604C189.111 338.606 186.956 339.527 185.367 341.164C183.778 342.802 182.884 345.021 182.882 347.337V397.407C182.884 399.722 183.778 401.942 185.367 403.579C186.956 405.216 189.111 406.137 191.358 406.14H239.955C242.203 406.137 244.357 405.216 245.946 403.579C247.535 401.942 248.429 399.722 248.431 397.407V347.337C248.429 345.021 247.535 342.802 245.946 341.164C244.357 339.527 242.203 338.606 239.955 338.604H191.358Z" fill="#CCCCCC"/>
<path d="M125.294 408.469H76.6971C73.8505 408.465 71.1215 407.299 69.1087 405.225C67.0959 403.151 65.9637 400.34 65.9604 397.407V347.337C65.9637 344.404 67.0959 341.592 69.1087 339.519C71.1215 337.445 73.8505 336.278 76.6971 336.275H125.294C128.141 336.278 130.87 337.445 132.883 339.519C134.895 341.592 136.028 344.404 136.031 347.337V397.407C136.028 400.34 134.895 403.151 132.883 405.225C130.87 407.299 128.141 408.465 125.294 408.469V408.469ZM76.6971 338.604C74.4498 338.606 72.2953 339.527 70.7062 341.164C69.1171 342.802 68.2233 345.021 68.2208 347.337V397.407C68.2233 399.722 69.1171 401.942 70.7062 403.579C72.2953 405.216 74.4498 406.137 76.6971 406.14H125.294C127.542 406.137 129.696 405.216 131.285 403.579C132.874 401.942 133.768 399.722 133.771 397.407V347.337C133.768 345.021 132.874 342.802 131.285 341.164C129.696 339.527 127.542 338.606 125.294 338.604H76.6971Z" fill="#CCCCCC"/>
<path fill-rule="evenodd" clip-rule="evenodd" d="M82.9474 391.482C80.602 391.482 78.7007 389.581 78.7007 387.235V357.508C78.7007 355.163 80.602 353.262 82.9474 353.262H121.168C123.513 353.262 125.414 355.163 125.414 357.508V387.235C125.414 389.581 123.513 391.482 121.168 391.482H82.9474ZM121.168 357.508H82.9474V387.235H121.168V357.508ZM99.9341 361.755C98.4062 361.755 97.1171 362.405 96.0787 363.428C95.9252 363.579 95.7848 363.73 95.657 363.878H94.4134C91.5649 363.878 89.3173 366.287 89.3173 369.187V377.68C89.3173 380.58 91.5649 382.989 94.4134 382.989H109.701C112.55 382.989 114.798 380.58 114.798 377.68V369.187C114.798 366.287 112.55 363.878 109.701 363.878H108.458C108.33 363.73 108.19 363.579 108.036 363.428C106.998 362.405 105.709 361.755 104.181 361.755H99.9341ZM99.934 366.002C99.6593 366.002 99.3678 366.149 99.0593 366.453C98.8307 366.678 98.6727 366.907 98.6253 366.996L98.027 368.126H94.4133C93.9782 368.126 93.564 368.569 93.564 369.187V377.681C93.564 378.298 93.9782 378.742 94.4133 378.742H109.701C110.137 378.742 110.551 378.298 110.551 377.681V369.187C110.551 368.569 110.137 368.126 109.701 368.126H106.088L105.489 366.996C105.442 366.907 105.284 366.678 105.055 366.453C104.747 366.149 104.455 366.002 104.181 366.002H99.934ZM97.8111 372.372C97.8111 374.718 99.7124 376.619 102.058 376.619C104.403 376.619 106.304 374.718 106.304 372.372C106.304 370.027 104.403 368.126 102.058 368.126C99.7124 368.126 97.8111 370.027 97.8111 372.372Z" fill="black"/>
<path d="M354.616 408.469H306.019C303.172 408.465 300.443 407.299 298.43 405.225C296.418 403.151 295.285 400.34 295.282 397.407V347.337C295.285 344.404 296.418 341.592 298.43 339.519C300.443 337.445 303.172 336.278 306.019 336.275H354.616C357.463 336.278 360.192 337.445 362.204 339.519C364.217 341.592 365.349 344.404 365.353 347.337V397.407C365.349 400.34 364.217 403.151 362.204 405.225C360.192 407.299 357.463 408.465 354.616 408.469V408.469ZM306.019 338.604C303.772 338.606 301.617 339.527 300.028 341.164C298.439 342.802 297.545 345.021 297.543 347.337V397.407C297.545 399.722 298.439 401.942 300.028 403.579C301.617 405.216 303.772 406.137 306.019 406.14H354.616C356.863 406.137 359.018 405.216 360.607 403.579C362.196 401.942 363.09 399.722 363.092 397.407V347.337C363.09 345.021 362.196 342.802 360.607 341.164C359.018 339.527 356.863 338.606 354.616 338.604H306.019Z" fill="#CCCCCC"/>
<path fill-rule="evenodd" clip-rule="evenodd" d="M327.132 349.015C324.811 349.015 322.924 350.91 322.886 353.262H346.243V384.933L350.489 387.092V353.334C350.489 350.949 348.588 349.015 346.243 349.015H327.132ZM327.132 387.486L312.269 394.918V361.755C312.269 359.41 314.17 357.508 316.515 357.508H337.749C340.094 357.508 341.996 359.41 341.996 361.755V394.918L327.132 387.486ZM316.516 388.046L327.132 382.738L337.749 388.046V361.755H316.516V388.046Z" fill="black"/>
<path d="M125.294 504.019H76.6971C73.8505 504.016 71.1215 502.849 69.1087 500.776C67.0959 498.702 65.9637 495.89 65.9604 492.957V442.887C65.9637 439.955 67.0959 437.143 69.1087 435.069C71.1215 432.995 73.8505 431.829 76.6971 431.825H125.294C128.141 431.829 130.87 432.995 132.883 435.069C134.895 437.143 136.028 439.955 136.031 442.887V492.957C136.028 495.89 134.895 498.702 132.883 500.776C130.87 502.849 128.141 504.016 125.294 504.019V504.019ZM76.6971 434.154C74.4498 434.157 72.2953 435.078 70.7062 436.715C69.1171 438.352 68.2233 440.572 68.2208 442.887V492.957C68.2233 495.273 69.1171 497.492 70.7062 499.13C72.2953 500.767 74.4498 501.688 76.6971 501.69H125.294C127.542 501.688 129.696 500.767 131.285 499.13C132.874 497.492 133.768 495.273 133.771 492.957V442.887C133.768 440.572 132.874 438.352 131.285 436.715C129.696 435.078 127.542 434.157 125.294 434.154H76.6971Z" fill="#CCCCCC"/>
<path fill-rule="evenodd" clip-rule="evenodd" d="M97.8106 448.812H106.304C108.649 448.812 110.551 450.713 110.551 453.059V455.182H119.044C121.39 455.182 123.291 457.083 123.291 459.429V482.785C123.291 485.131 121.39 487.032 119.044 487.032H85.0707C82.7253 487.032 80.824 485.131 80.824 482.785V459.429C80.824 457.083 82.7253 455.182 85.0707 455.182H93.5639V453.059C93.5639 450.713 95.4652 448.812 97.8106 448.812ZM93.5639 459.429V459.429H85.0707V470.045H99.9339H104.181H119.044V459.429H110.551V459.429H93.5639ZM85.0707 482.785V474.292H99.9339V476.415H104.181V474.292H119.044V482.785H85.0707ZM106.304 453.059V455.182H97.8106V453.059H106.304Z" fill="black"/>
<path d="M239.955 504.019H191.358C188.511 504.016 185.782 502.849 183.77 500.776C181.757 498.702 180.625 495.89 180.621 492.957V442.887C180.625 439.955 181.757 437.143 183.77 435.069C185.782 432.995 188.511 431.829 191.358 431.825H239.955C242.802 431.829 245.531 432.995 247.544 435.069C249.556 437.143 250.689 439.955 250.692 442.887V492.957C250.689 495.89 249.556 498.702 247.544 500.776C245.531 502.849 242.802 504.016 239.955 504.019V504.019ZM191.358 434.154C189.111 434.157 186.956 435.078 185.367 436.715C183.778 438.352 182.884 440.572 182.882 442.887V492.957C182.884 495.273 183.778 497.492 185.367 499.13C186.956 500.767 189.111 501.688 191.358 501.69H239.955C242.203 501.688 244.357 500.767 245.946 499.13C247.535 497.492 248.429 495.273 248.431 492.957V442.887C248.429 440.572 247.535 438.352 245.946 436.715C244.357 435.078 242.203 434.157 239.955 434.154H191.358Z" fill="#CCCCCC"/>
<path fill-rule="evenodd" clip-rule="evenodd" d="M229.458 444.565H203.978C201.633 444.565 199.731 446.467 199.731 448.812V487.032C199.731 489.378 201.633 491.279 203.978 491.279H229.458C231.803 491.279 233.705 489.378 233.705 487.032V448.812C233.705 446.467 231.803 444.565 229.458 444.565ZM203.978 457.305V448.812H229.458V457.305H203.978ZM203.978 461.552V487.032H229.458V461.552H203.978ZM212.471 482.785H208.224V478.539H212.471V482.785ZM214.594 482.785H218.841V478.539H214.594V482.785ZM225.211 482.785H220.965V476.415V474.292V472.169H225.211V474.292V476.415V482.785ZM208.224 476.415H212.471V472.169H208.224V476.415ZM218.841 476.415H214.594V472.169H218.841V476.415ZM212.471 470.045H208.224V465.799H212.471V470.045ZM214.594 470.045H218.841V465.799H214.594V470.045ZM225.211 470.045H220.965V465.799H225.211V470.045Z" fill="black"/>
<path d="M457.748 857.614C455.406 857.621 453.141 856.78 451.372 855.245C449.603 853.71 448.45 851.586 448.127 849.267L425.001 689.31C423.848 681.333 423.738 673.241 424.675 665.236L447.215 472.622L591.17 484.709L569.443 667.215L651.632 769.696C653.212 771.656 653.969 774.153 653.745 776.66C653.521 779.167 652.333 781.489 650.431 783.138L629.737 801.16C628.767 802.006 627.639 802.65 626.418 803.057C625.197 803.464 623.907 803.624 622.623 803.53C621.34 803.435 620.088 803.087 618.94 802.506C617.791 801.925 616.77 801.122 615.934 800.143L538.056 709.01C526.001 694.866 517.325 678.163 512.686 660.168L501.568 616.808C501.395 616.132 501.008 615.53 500.466 615.091C499.923 614.652 499.254 614.399 498.556 614.37C497.859 614.342 497.171 614.539 496.594 614.932C496.017 615.325 495.583 615.894 495.355 616.553L480.649 659.034L489.953 846.141C490.075 848.71 489.178 851.224 487.457 853.135C485.737 855.047 483.331 856.203 480.764 856.351L458.309 857.598C458.121 857.609 457.934 857.614 457.748 857.614Z" fill="#2F2E41"/>
<path d="M537.744 212.344C567.109 212.344 590.914 188.539 590.914 159.174C590.914 129.809 567.109 106.004 537.744 106.004C508.379 106.004 484.574 129.809 484.574 159.174C484.574 188.539 508.379 212.344 537.744 212.344Z" fill="#A0616A"/>
<path d="M228.918 220.992C230.196 223.907 232.097 226.506 234.488 228.606C236.88 230.706 239.702 232.256 242.757 233.148C245.812 234.039 249.025 234.25 252.171 233.765C255.316 233.28 258.317 232.112 260.962 230.342L330.676 272.576L325.257 236.858L266.25 198.724C262.982 194.478 258.27 191.578 253.007 190.574C247.743 189.57 242.295 190.532 237.693 193.277C233.091 196.021 229.657 200.359 228.039 205.467C226.422 210.575 226.735 216.099 228.918 220.992V220.992Z" fill="#A0616A"/>
<path d="M535.273 509.387C507.034 509.388 477.646 500.628 447.928 483.346C445.72 482.065 444.037 480.044 443.177 477.641C442.316 475.238 442.335 472.608 443.228 470.217L470.871 395.733L464.583 307.97C462.445 278.117 477.328 249.779 502.5 235.776C511.53 230.71 521.591 227.759 531.927 227.147C542.262 226.535 552.602 228.278 562.166 232.243C572.424 236.563 581.567 243.153 588.908 251.519C596.248 259.885 601.595 269.808 604.544 280.54L613.417 311.412C624.179 349.171 622.94 389.342 609.872 426.367L584.165 498.544L583.498 498.943C583.323 499.048 565.682 509.385 535.273 509.387Z" fill="#CCCCCC"/>
<path d="M265.822 245.769C264.622 243.965 263.992 241.842 264.012 239.676C264.033 237.509 264.704 235.398 265.938 233.617L279.41 214.16C280.912 211.996 283.151 210.454 285.707 209.821C288.264 209.187 290.963 209.506 293.302 210.718L393.209 262.675L503.443 251.625C510.383 250.965 517.342 252.678 523.182 256.484C529.023 260.29 533.4 265.964 535.598 272.58C537.092 277.151 537.487 282.011 536.753 286.763C536.018 291.516 534.174 296.029 531.37 299.937C528.566 303.844 524.881 307.036 520.614 309.253C516.346 311.471 511.616 312.652 506.807 312.701L404.012 313.744C393.192 313.848 382.526 311.173 373.035 305.975L269.632 249.27C268.099 248.427 266.792 247.226 265.822 245.769V245.769Z" fill="#CCCCCC"/>
<path d="M583.564 556.975C586.064 555.006 588.102 552.513 589.534 549.671C590.967 546.829 591.758 543.707 591.854 540.526C591.95 537.345 591.346 534.182 590.087 531.259C588.828 528.337 586.943 525.726 584.566 523.61L610.529 452.14L574.725 459.739L552.634 526.432C549.344 530.662 547.721 535.951 548.071 541.298C548.421 546.645 550.72 551.677 554.533 555.442C558.345 559.207 563.406 561.442 568.757 561.725C574.107 562.007 579.376 560.317 583.564 556.975V556.975Z" fill="#A0616A"/>
<path d="M593.093 515.406C591.824 515.406 590.565 515.182 589.374 514.744L567.157 506.591C564.685 505.68 562.63 503.901 561.375 501.585C560.12 499.269 559.75 496.576 560.336 494.008L585.535 384.254L547.154 280.33C544.77 273.778 544.68 266.612 546.897 260.002C549.114 253.392 553.509 247.73 559.361 243.942C563.411 241.348 568.015 239.745 572.8 239.262C577.585 238.78 582.417 239.431 586.903 241.164C591.39 242.897 595.405 245.662 598.623 249.236C601.841 252.81 604.173 257.091 605.428 261.734L632.255 360.972C635.073 371.419 635.162 382.415 632.515 392.907L603.597 507.237C603.007 509.573 601.654 511.644 599.753 513.124C597.853 514.604 595.512 515.407 593.103 515.406H593.093V515.406Z" fill="#CCCCCC"/>
<path d="M541.255 196.692C543.951 185.505 545.283 179.223 547.954 168.029C549.743 160.532 544.346 152.856 537.573 149.352C530.801 145.849 522.95 145.447 515.384 144.705C507.817 143.963 499.879 142.641 493.982 137.773C486.064 131.238 483.8 119.066 487.694 109.493C489.785 104.787 492.976 100.652 496.998 97.4365C501.02 94.2206 505.755 92.0176 510.806 91.0129C520.944 89.1585 531.411 90.77 540.522 95.5879C544.091 87.2024 554.433 83.5565 563.319 85.0193C572.204 86.4822 579.921 91.8759 587.143 97.3281C600.573 107.467 614.354 119.758 617.335 136.473C620.213 152.614 612.026 168.904 601.074 180.97C586.131 197.38 566.081 208.261 544.178 211.846C542.719 209.636 541.71 207.16 541.208 204.56C540.707 201.96 540.723 199.287 541.255 196.692V196.692Z" fill="black"/>
<g clip-path="url(#clip1)">
<path d="M877.002 258.257C877.002 256.809 875.844 255.634 874.422 255.634C872.996 255.634 871.837 256.809 871.837 258.257V263.775C871.837 265.231 872.996 266.406 874.422 266.406C875.844 266.406 877.002 265.231 877.002 263.775V258.257ZM862.806 251.016C862.806 249.567 861.65 248.391 860.193 248.391C858.767 248.391 857.612 249.567 857.612 251.016V263.775C857.612 265.231 858.767 266.406 860.193 266.406C861.65 266.406 862.806 265.231 862.806 263.775V251.016V251.016ZM848.58 241.108C848.58 239.659 847.425 238.485 846 238.485C844.574 238.485 843.419 239.659 843.419 241.108V269.018C843.419 270.475 844.574 271.649 846 271.649C847.425 271.649 848.58 270.475 848.58 269.018V241.108ZM834.351 251.016C834.351 249.567 833.197 248.391 831.771 248.391C830.348 248.391 829.19 249.567 829.19 251.016V263.775C829.19 265.231 830.348 266.406 831.771 266.406C833.197 266.406 834.351 265.231 834.351 263.775V251.016V251.016ZM820.125 258.257C820.125 256.809 818.971 255.634 817.553 255.634C816.127 255.634 814.965 256.809 814.965 258.257V263.775C814.965 265.231 816.127 266.406 817.553 266.406C818.971 266.406 820.125 265.231 820.125 263.775V258.257ZM805.923 251.016C805.923 249.567 804.76 248.391 803.334 248.391C801.908 248.391 800.745 249.567 800.745 251.016V263.775C800.745 265.231 801.908 266.406 803.334 266.406C804.76 266.406 805.923 265.231 805.923 263.775V251.016V251.016ZM791.704 241.108C791.704 239.659 790.541 238.485 789.115 238.485C787.689 238.485 786.526 239.659 786.526 241.108V269.018C786.526 270.475 787.689 271.649 789.115 271.649C790.541 271.649 791.704 270.475 791.704 269.018V241.108ZM777.484 251.016C777.484 249.567 776.322 248.391 774.896 248.391C773.47 248.391 772.307 249.567 772.307 251.016V263.775C772.307 265.231 773.47 266.406 774.896 266.406C776.322 266.406 777.484 265.231 777.484 263.775V251.016ZM763.265 258.257C763.265 256.809 762.103 255.634 760.677 255.634C759.252 255.634 758.088 256.809 758.088 258.257V263.775C758.088 265.231 759.252 266.406 760.677 266.406C762.103 266.406 763.265 265.231 763.265 263.775V258.257ZM816.708 281.136C816.553 281.093 814.164 280.466 811.626 280.466C806.82 280.466 803.926 283.106 803.926 287.037C803.926 290.517 806.347 292.252 809.252 293.185C809.574 293.294 810.049 293.445 810.365 293.551C811.658 293.965 812.69 294.58 812.69 295.645C812.69 296.836 811.497 297.607 808.903 297.607C806.624 297.607 804.439 296.944 803.979 296.826V301.663C804.236 301.718 806.832 302.237 809.606 302.237C813.597 302.237 818.161 300.463 818.161 295.184C818.161 292.623 816.62 290.265 813.236 289.171L811.797 288.705C810.939 288.429 809.407 287.983 809.407 286.704C809.407 285.693 810.542 284.981 812.632 284.981C814.436 284.981 816.631 285.598 816.708 285.622V281.136V281.136ZM860.773 291.352C860.773 294.41 858.47 296.884 855.38 296.884C852.287 296.884 849.99 294.41 849.99 291.352C849.99 288.3 852.287 285.824 855.38 285.824C858.47 285.824 860.773 288.3 860.773 291.352V291.352ZM855.38 280.473C849.025 280.473 844.467 285.348 844.467 291.352C844.467 297.364 849.025 302.237 855.38 302.237C861.735 302.237 866.299 297.364 866.299 291.352C866.299 285.348 861.735 280.473 855.38 280.473V280.473ZM784.552 281.226C784.062 281.078 782.251 280.473 779.798 280.473C773.452 280.473 768.794 285.075 768.794 291.352C768.794 298.123 773.936 302.237 779.798 302.237C782.126 302.237 783.904 301.675 784.552 301.488V295.847C784.328 295.973 782.623 296.962 780.171 296.962C776.698 296.962 774.457 294.475 774.457 291.352C774.457 288.133 776.794 285.745 780.171 285.745C782.665 285.745 784.342 286.756 784.552 286.868V281.226V281.226ZM838.977 281.226C838.483 281.078 836.67 280.473 834.225 280.473C827.871 280.473 823.213 285.075 823.213 291.352C823.213 298.123 828.361 302.237 834.225 302.237C836.542 302.237 838.322 301.675 838.977 301.488V295.847C838.748 295.973 837.041 296.962 834.59 296.962C831.119 296.962 828.88 294.475 828.88 291.352C828.88 288.133 831.219 285.745 834.59 285.745C837.083 285.745 838.764 286.756 838.977 286.868V281.226V281.226ZM796.934 301.862H791.719V280.845H796.934V301.862Z" fill="#00BCEB"/>
</g>
</g>
<defs>
<clipPath id="clip0">
<rect width="973.836" height="555.517" fill="white" transform="translate(0.413574)"/>
</clipPath>
<clipPath id="clip1">
<rect width="119.712" height="64.5637" fill="white" transform="translate(757.692 238.079)"/>
</clipPath>
</defs>
</svg>
