<svg width="974" height="556" viewBox="0 0 974 556" fill="none" xmlns="http://www.w3.org/2000/svg">
<g clip-path="url(#clip0)">
<g clip-path="url(#clip1)">
<path d="M876.62 258.74C876.62 257.291 875.462 256.117 874.04 256.117C872.614 256.117 871.456 257.291 871.456 258.74V264.258C871.456 265.714 872.614 266.889 874.04 266.889C875.462 266.889 876.62 265.714 876.62 264.258V258.74ZM862.424 251.498C862.424 250.05 861.269 248.874 859.811 248.874C858.385 248.874 857.23 250.05 857.23 251.498V264.258C857.23 265.714 858.385 266.889 859.811 266.889C861.269 266.889 862.424 265.714 862.424 264.258V251.498ZM848.198 241.591C848.198 240.142 847.043 238.967 845.618 238.967C844.192 238.967 843.037 240.142 843.037 241.591V269.501C843.037 270.958 844.192 272.132 845.618 272.132C847.043 272.132 848.198 270.958 848.198 269.501V241.591ZM833.969 251.498C833.969 250.05 832.815 248.874 831.389 248.874C829.966 248.874 828.808 250.05 828.808 251.498V264.258C828.808 265.714 829.966 266.889 831.389 266.889C832.815 266.889 833.969 265.714 833.969 264.258V251.498ZM819.744 258.74C819.744 257.291 818.589 256.117 817.172 256.117C815.746 256.117 814.583 257.291 814.583 258.74V264.258C814.583 265.714 815.746 266.889 817.172 266.889C818.589 266.889 819.744 265.714 819.744 264.258V258.74ZM805.541 251.498C805.541 250.05 804.378 248.874 802.953 248.874C801.527 248.874 800.364 250.05 800.364 251.498V264.258C800.364 265.714 801.527 266.889 802.953 266.889C804.378 266.889 805.541 265.714 805.541 264.258V251.498ZM791.322 241.591C791.322 240.142 790.159 238.967 788.733 238.967C787.308 238.967 786.145 240.142 786.145 241.591V269.501C786.145 270.958 787.308 272.132 788.733 272.132C790.159 272.132 791.322 270.958 791.322 269.501V241.591ZM777.103 251.498C777.103 250.05 775.94 248.874 774.514 248.874C773.088 248.874 771.926 250.05 771.926 251.498V264.258C771.926 265.714 773.088 266.889 774.514 266.889C775.94 266.889 777.103 265.714 777.103 264.258V251.498ZM762.884 258.74C762.884 257.291 761.721 256.117 760.295 256.117C758.871 256.117 757.707 257.291 757.707 258.74V264.258C757.707 265.714 758.871 266.889 760.295 266.889C761.721 266.889 762.884 265.714 762.884 264.258V258.74ZM816.327 281.618C816.171 281.575 813.783 280.949 811.244 280.949C806.438 280.949 803.545 283.588 803.545 287.519C803.545 290.999 805.965 292.735 808.87 293.668C809.192 293.776 809.667 293.927 809.983 294.034C811.276 294.448 812.308 295.063 812.308 296.128C812.308 297.319 811.115 298.09 808.522 298.09C806.243 298.09 804.058 297.427 803.597 297.309V302.145C803.854 302.201 806.451 302.719 809.225 302.719C813.215 302.719 817.779 300.946 817.779 295.666C817.779 293.105 816.238 290.748 812.854 289.654L811.415 289.188C810.557 288.912 809.025 288.466 809.025 287.186C809.025 286.175 810.16 285.464 812.251 285.464C814.054 285.464 816.249 286.08 816.327 286.105V281.618ZM860.391 291.834C860.391 294.892 858.089 297.366 854.998 297.366C851.905 297.366 849.608 294.892 849.608 291.834C849.608 288.782 851.905 286.307 854.998 286.307C858.089 286.307 860.391 288.782 860.391 291.834ZM854.998 280.955C848.643 280.955 844.085 285.831 844.085 291.834C844.085 297.847 848.643 302.719 854.998 302.719C861.353 302.719 865.918 297.847 865.918 291.834C865.918 285.831 861.353 280.955 854.998 280.955ZM784.17 281.708C783.68 281.561 781.869 280.955 779.416 280.955C773.071 280.955 768.413 285.557 768.413 291.834C768.413 298.606 773.555 302.719 779.416 302.719C781.745 302.719 783.522 302.158 784.17 301.971V296.329C783.946 296.456 782.242 297.445 779.79 297.445C776.316 297.445 774.075 294.958 774.075 291.834C774.075 288.615 776.413 286.228 779.79 286.228C782.284 286.228 783.961 287.239 784.17 287.35V281.708ZM838.595 281.708C838.102 281.561 836.289 280.955 833.844 280.955C827.489 280.955 822.831 285.557 822.831 291.834C822.831 298.606 827.979 302.719 833.844 302.719C836.16 302.719 837.94 302.158 838.595 301.971V296.329C838.366 296.456 836.66 297.445 834.208 297.445C830.737 297.445 828.499 294.958 828.499 291.834C828.499 288.615 830.837 286.228 834.208 286.228C836.702 286.228 838.382 287.239 838.595 287.35V281.708ZM796.552 302.345H791.338V281.328H796.552V302.345Z" fill="#00BCEB"/>
</g>
<path fill-rule="evenodd" clip-rule="evenodd" d="M167.052 257.583C140.22 257.583 118.469 235.831 118.469 209C118.469 182.168 140.22 160.416 167.052 160.416C193.884 160.416 215.636 182.168 215.636 209C215.636 235.831 193.884 257.583 167.052 257.583ZM167.052 248.75C189.006 248.75 206.802 230.953 206.802 209C206.802 187.046 189.006 169.25 167.052 169.25C145.099 169.25 127.302 187.046 127.302 209C127.302 230.953 145.099 248.75 167.052 248.75ZM189.136 204.583H171.469V182.5H162.636V213.416H189.136V204.583Z" fill="black"/>
<path fill-rule="evenodd" clip-rule="evenodd" d="M466.468 186.916V169.492C486.343 171.689 501.802 188.539 501.802 209C501.802 230.953 484.005 248.75 462.052 248.75C440.098 248.75 422.302 230.953 422.302 209C422.302 198.284 426.556 188.253 433.997 180.839L427.762 174.582C418.674 183.636 413.468 195.911 413.468 209C413.468 235.831 435.22 257.583 462.052 257.583C488.883 257.583 510.635 235.831 510.635 209C510.635 182.168 488.883 160.416 462.052 160.416H457.635V186.916H466.468ZM462.052 200.167C461.261 200.167 460.494 200.271 459.764 200.466L443.092 183.794L436.846 190.04L453.518 206.712C453.323 207.442 453.219 208.209 453.219 209C453.219 213.879 457.173 217.833 462.052 217.833C466.93 217.833 470.885 213.879 470.885 209C470.885 204.121 466.93 200.167 462.052 200.167Z" fill="black"/>
<path fill-rule="evenodd" clip-rule="evenodd" d="M340.638 305.957L346.884 299.71L362.343 315.169L356.096 321.415L340.638 305.957ZM270.886 347C270.886 371.393 290.66 391.167 315.052 391.167C339.445 391.167 359.219 371.393 359.219 347C359.219 322.607 339.445 302.833 315.052 302.833C290.66 302.833 270.886 322.607 270.886 347ZM350.385 347C350.385 366.514 334.566 382.333 315.052 382.333C295.538 382.333 279.719 366.514 279.719 347C279.719 327.486 295.538 311.667 315.052 311.667C334.566 311.667 350.385 327.486 350.385 347ZM289.467 305.957L283.221 299.711L267.763 315.169L274.009 321.415L289.467 305.957ZM297.386 351.416V342.583H310.636V329.333H319.469V342.583H332.719V351.416H319.469V364.666H310.636V351.416H297.386Z" fill="black"/>
<path fill-rule="evenodd" clip-rule="evenodd" d="M140.552 320.5H149.386V316.084H184.719V320.5H193.552V316.084H202.386V329.334H131.72V316.084H140.552V320.5ZM131.72 338.167V382.334H202.386V338.167H131.72ZM149.386 307.251H184.719V302.834H193.552V307.251H202.386C207.264 307.251 211.219 311.206 211.219 316.084V382.334C211.219 387.213 207.264 391.167 202.386 391.167H131.719C126.841 391.167 122.886 387.213 122.886 382.334V316.084C122.886 311.206 126.841 307.251 131.719 307.251H140.552V302.834H149.386V307.251Z" fill="black"/>
<path fill-rule="evenodd" clip-rule="evenodd" d="M297.386 182.5H288.553V178.084H279.719V191.333H350.385V178.084H341.552V182.5H332.719V178.084H297.386V182.5ZM350.385 200.167H279.719V244.334H350.385V200.167ZM332.719 169.25H297.386V164.833H288.553V169.25H279.719C274.84 169.25 270.885 173.205 270.885 178.083V244.333C270.885 249.212 274.84 253.167 279.719 253.167H350.386C355.264 253.167 359.219 249.212 359.219 244.333V178.083C359.219 173.205 355.264 169.25 350.386 169.25H341.552V164.833H332.719V169.25ZM301.803 217.833H292.969V209H301.803V217.833ZM310.635 217.833H319.469V209H310.635V217.833ZM337.136 217.833H328.302V209H337.136V217.833ZM292.969 235.5H301.803V226.667H292.969V235.5ZM319.469 235.5H310.635V226.667H319.469V235.5Z" fill="black"/>
<path fill-rule="evenodd" clip-rule="evenodd" d="M582.552 182.5H591.385V178.084H626.719V182.5H635.552V178.084H644.386V191.333H573.719V178.084H582.552V182.5ZM573.719 200.167V244.334H644.386V200.167H573.719ZM591.385 169.25H626.719V164.833H635.552V169.25H644.386C649.264 169.25 653.219 173.205 653.219 178.083V244.333C653.219 249.212 649.264 253.167 644.386 253.167H573.719C568.841 253.167 564.886 249.212 564.886 244.333V178.083C564.886 173.205 568.841 169.25 573.719 169.25H582.552V164.833H591.385V169.25ZM591.385 226.667V217.834H604.636V204.583H613.469V217.834H626.719V226.667H613.469V239.916H604.636V226.667H591.385Z" fill="black"/>
<path fill-rule="evenodd" clip-rule="evenodd" d="M444.385 320.5H435.552V316.083H426.718V329.333H497.384V316.083H488.552V320.5H479.718V316.083H444.385V320.5ZM426.718 382.333V338.167H497.384V382.333H426.718ZM479.718 307.25H444.385V302.833H435.552V307.25H426.718C421.84 307.25 417.885 311.205 417.885 316.083V382.333C417.885 387.212 421.84 391.166 426.718 391.166H497.385C502.264 391.166 506.218 387.212 506.218 382.333V316.083C506.218 311.205 502.264 307.25 497.385 307.25H488.552V302.833H479.718V307.25ZM476.595 343.877L457.635 362.838L447.508 352.711L441.262 358.957L457.635 375.33L482.841 350.123L476.595 343.877Z" fill="black"/>
<path fill-rule="evenodd" clip-rule="evenodd" d="M591.385 320.5H578.639C587.166 310.746 596.505 307.25 609.052 307.25C631.005 307.25 648.802 325.047 648.802 347C648.802 368.954 631.005 386.75 609.052 386.75C587.099 386.75 569.302 368.954 569.302 347H560.469C560.469 373.832 582.22 395.584 609.052 395.584C635.884 395.584 657.635 373.832 657.635 347C657.635 320.168 635.884 298.417 609.052 298.417C594.86 298.417 583.599 302.439 573.719 312.8V302.795H564.885V329.334H591.385V320.5ZM631.136 342.583H613.469V320.5H604.636V351.417H631.136V342.583Z" fill="black"/>
</g>
<defs>
<clipPath id="clip0">
<rect width="973.836" height="555.517" fill="white" transform="translate(0.0319824 0.48291)"/>
</clipPath>
<clipPath id="clip1">
<rect width="119.712" height="64.5637" fill="white" transform="translate(757.311 238.562)"/>
</clipPath>
</defs>
</svg>
