<svg width="985" height="620" viewBox="0 0 985 620" fill="none" xmlns="http://www.w3.org/2000/svg">
<rect x="138" y="198" width="120" height="150" rx="4" fill="#8B9298"/>
<path fill-rule="evenodd" clip-rule="evenodd" d="M146 214H250C252.209 214 254 215.791 254 218V340C254 342.209 252.209 344 250 344H146C143.791 344 142 342.209 142 340V218C142 215.791 143.791 214 146 214ZM144 204C145.105 204 146 204.895 146 206C146 207.105 145.105 208 144 208C142.895 208 142 207.105 142 206C142 204.895 142.895 204 144 204ZM150 204C151.105 204 152 204.895 152 206C152 207.105 151.105 208 150 208C148.895 208 148 207.105 148 206C148 204.895 148.895 204 150 204ZM156 204C157.105 204 158 204.895 158 206C158 207.105 157.105 208 156 208C154.895 208 154 207.105 154 206C154 204.895 154.895 204 156 204Z" fill="#F6F8F9"/>
<rect x="144" y="216" width="27" height="126" rx="4" fill="#929AA0"/>
<rect x="174" y="230" width="78" height="8" rx="1" fill="#72C850"/>
<rect x="235" y="217" width="17" height="5" rx="2.5" fill="#9DA3A8"/>
<rect x="174" y="240" width="78" height="8" rx="1" fill="#8B9298"/>
<rect x="174" y="250" width="78" height="8" rx="1" fill="#8B9298"/>
<rect x="174" y="260" width="78" height="8" rx="1" fill="#8B9298"/>
<rect x="174" y="270" width="78" height="8" rx="1" fill="#8B9298"/>
<rect x="174" y="280" width="78" height="8" rx="1" fill="#8B9298"/>
<rect x="174" y="290" width="78" height="8" rx="1" fill="#8B9298"/>
<rect x="174" y="300" width="78" height="8" rx="1" fill="#8B9298"/>
<rect x="174" y="310" width="78" height="8" rx="1" fill="#8B9298"/>
<rect x="174" y="320" width="78" height="8" rx="1" fill="#8B9298"/>
<rect x="174" y="330" width="78" height="8" rx="1" fill="#8B9298"/>
<path d="M167.864 174.685C167.787 175.756 167.39 176.599 166.675 177.214C165.964 177.829 165.025 178.137 163.858 178.137C162.582 178.137 161.577 177.708 160.844 176.852C160.115 175.99 159.75 174.81 159.75 173.311V172.702C159.75 171.745 159.919 170.902 160.256 170.173C160.593 169.444 161.074 168.885 161.698 168.498C162.327 168.106 163.056 167.91 163.886 167.91C165.034 167.91 165.959 168.218 166.661 168.833C167.363 169.448 167.769 170.312 167.878 171.424H165.827C165.777 170.781 165.597 170.316 165.287 170.029C164.982 169.738 164.515 169.592 163.886 169.592C163.202 169.592 162.689 169.838 162.348 170.33C162.01 170.818 161.837 171.576 161.828 172.606V173.358C161.828 174.434 161.99 175.22 162.313 175.717C162.642 176.214 163.157 176.462 163.858 176.462C164.492 176.462 164.964 176.318 165.273 176.031C165.588 175.74 165.768 175.291 165.813 174.685H167.864ZM168.773 174.233C168.773 173.5 168.915 172.846 169.197 172.271C169.48 171.697 169.885 171.253 170.414 170.938C170.947 170.624 171.565 170.467 172.267 170.467C173.265 170.467 174.078 170.772 174.707 171.383C175.34 171.993 175.694 172.823 175.767 173.871L175.78 174.377C175.78 175.512 175.464 176.423 174.83 177.111C174.197 177.795 173.347 178.137 172.28 178.137C171.214 178.137 170.362 177.795 169.724 177.111C169.09 176.428 168.773 175.498 168.773 174.322V174.233ZM170.749 174.377C170.749 175.079 170.881 175.617 171.146 175.99C171.41 176.359 171.788 176.544 172.28 176.544C172.759 176.544 173.132 176.362 173.401 175.997C173.67 175.628 173.805 175.04 173.805 174.233C173.805 173.545 173.67 173.012 173.401 172.634C173.132 172.256 172.754 172.066 172.267 172.066C171.784 172.066 171.41 172.256 171.146 172.634C170.881 173.007 170.749 173.589 170.749 174.377ZM178.815 170.604L178.877 171.458C179.406 170.797 180.114 170.467 181.003 170.467C181.787 170.467 182.37 170.697 182.753 171.157C183.136 171.618 183.332 172.306 183.341 173.222V178H181.365V173.27C181.365 172.85 181.274 172.547 181.092 172.36C180.91 172.169 180.606 172.073 180.183 172.073C179.627 172.073 179.21 172.31 178.932 172.784V178H176.956V170.604H178.815ZM185.323 178V172.053H184.223V170.604H185.323V170.262C185.332 169.332 185.617 168.617 186.178 168.115C186.743 167.609 187.538 167.356 188.563 167.356C189.179 167.356 189.926 167.491 190.806 167.76L190.519 169.394C190.072 169.261 189.726 169.177 189.479 169.141C189.233 169.1 188.969 169.079 188.687 169.079C187.766 169.079 187.306 169.487 187.306 170.303V170.604H188.762V172.053H187.306V178H185.323ZM191.729 178H189.746V170.604H191.729V178ZM193.075 174.247C193.075 173.112 193.344 172.199 193.882 171.506C194.424 170.813 195.153 170.467 196.069 170.467C196.881 170.467 197.512 170.745 197.963 171.301L198.045 170.604H199.836V177.754C199.836 178.401 199.688 178.964 199.392 179.442C199.1 179.921 198.688 180.285 198.154 180.536C197.621 180.787 196.997 180.912 196.281 180.912C195.739 180.912 195.21 180.803 194.695 180.584C194.18 180.37 193.791 180.092 193.526 179.75L194.401 178.547C194.894 179.098 195.491 179.374 196.192 179.374C196.716 179.374 197.124 179.233 197.416 178.95C197.708 178.672 197.854 178.276 197.854 177.761V177.364C197.398 177.879 196.799 178.137 196.056 178.137C195.167 178.137 194.447 177.79 193.896 177.098C193.349 176.4 193.075 175.478 193.075 174.329V174.247ZM195.051 174.391C195.051 175.061 195.185 175.587 195.454 175.97C195.723 176.348 196.092 176.537 196.562 176.537C197.163 176.537 197.594 176.312 197.854 175.86V172.75C197.589 172.299 197.163 172.073 196.575 172.073C196.101 172.073 195.728 172.267 195.454 172.654C195.185 173.042 195.051 173.62 195.051 174.391ZM208.654 175.532L210.91 168.047H213.193L209.728 178H207.588L204.136 168.047H206.412L208.654 175.532ZM216.092 178H214.109V170.604H216.092V178ZM213.993 168.689C213.993 168.393 214.091 168.149 214.287 167.958C214.488 167.767 214.759 167.671 215.101 167.671C215.438 167.671 215.707 167.767 215.907 167.958C216.108 168.149 216.208 168.393 216.208 168.689C216.208 168.99 216.105 169.236 215.9 169.428C215.7 169.619 215.433 169.715 215.101 169.715C214.768 169.715 214.499 169.619 214.294 169.428C214.093 169.236 213.993 168.99 213.993 168.689ZM221.13 178.137C220.045 178.137 219.161 177.804 218.478 177.139C217.799 176.473 217.459 175.587 217.459 174.479V174.288C217.459 173.545 217.603 172.882 217.89 172.299C218.177 171.711 218.582 171.26 219.106 170.945C219.635 170.626 220.237 170.467 220.911 170.467C221.923 170.467 222.718 170.786 223.297 171.424C223.88 172.062 224.172 172.966 224.172 174.138V174.944H219.462C219.526 175.427 219.717 175.815 220.036 176.106C220.36 176.398 220.768 176.544 221.26 176.544C222.021 176.544 222.616 176.268 223.044 175.717L224.015 176.804C223.718 177.223 223.317 177.551 222.812 177.788C222.306 178.021 221.745 178.137 221.13 178.137ZM220.904 172.066C220.512 172.066 220.193 172.199 219.947 172.463C219.706 172.727 219.551 173.105 219.482 173.598H222.23V173.44C222.221 173.003 222.103 172.666 221.875 172.429C221.647 172.187 221.324 172.066 220.904 172.066ZM231.732 175.313L232.703 170.604H234.61L232.724 178H231.069L229.668 173.345L228.267 178H226.619L224.732 170.604H226.64L227.604 175.307L228.957 170.604H230.386L231.732 175.313ZM160.153 194H158.103V189.734H154.104V194H152.053V184.047H154.104V188.08H158.103V184.047H160.153V194ZM166.107 194C166.016 193.822 165.95 193.601 165.909 193.337C165.431 193.87 164.809 194.137 164.043 194.137C163.318 194.137 162.717 193.927 162.238 193.508C161.764 193.089 161.527 192.56 161.527 191.922C161.527 191.138 161.817 190.536 162.396 190.117C162.979 189.698 163.82 189.486 164.918 189.481H165.827V189.058C165.827 188.716 165.738 188.442 165.561 188.237C165.387 188.032 165.112 187.93 164.733 187.93C164.401 187.93 164.139 188.009 163.947 188.169C163.76 188.328 163.667 188.547 163.667 188.825H161.691C161.691 188.397 161.824 188 162.088 187.636C162.352 187.271 162.726 186.986 163.209 186.781C163.692 186.572 164.234 186.467 164.836 186.467C165.747 186.467 166.47 186.697 167.003 187.157C167.541 187.613 167.81 188.256 167.81 189.085V192.291C167.814 192.993 167.912 193.524 168.104 193.884V194H166.107ZM164.474 192.626C164.765 192.626 165.034 192.562 165.28 192.435C165.526 192.302 165.709 192.127 165.827 191.908V190.637H165.089C164.1 190.637 163.574 190.979 163.51 191.662L163.503 191.778C163.503 192.024 163.59 192.227 163.763 192.387C163.936 192.546 164.173 192.626 164.474 192.626ZM173.483 188.456C173.215 188.42 172.978 188.401 172.772 188.401C172.025 188.401 171.535 188.654 171.303 189.16V194H169.327V186.604H171.193L171.248 187.485C171.645 186.806 172.194 186.467 172.896 186.467C173.114 186.467 173.319 186.496 173.511 186.556L173.483 188.456ZM173.996 190.247C173.996 189.094 174.254 188.176 174.769 187.492C175.288 186.809 175.997 186.467 176.895 186.467C177.615 186.467 178.209 186.736 178.679 187.273V183.5H180.661V194H178.877L178.781 193.214C178.289 193.829 177.656 194.137 176.881 194.137C176.01 194.137 175.311 193.795 174.782 193.111C174.258 192.423 173.996 191.468 173.996 190.247ZM175.972 190.391C175.972 191.083 176.092 191.614 176.334 191.983C176.576 192.353 176.926 192.537 177.387 192.537C177.997 192.537 178.428 192.28 178.679 191.765V188.846C178.433 188.331 178.007 188.073 177.4 188.073C176.448 188.073 175.972 188.846 175.972 190.391ZM188.625 191.313L189.596 186.604H191.503L189.616 194H187.962L186.561 189.345L185.159 194H183.512L181.625 186.604H183.532L184.496 191.307L185.85 186.604H187.278L188.625 191.313ZM196.773 194C196.682 193.822 196.616 193.601 196.575 193.337C196.097 193.87 195.475 194.137 194.709 194.137C193.984 194.137 193.383 193.927 192.904 193.508C192.43 193.089 192.193 192.56 192.193 191.922C192.193 191.138 192.483 190.536 193.062 190.117C193.645 189.698 194.486 189.486 195.584 189.481H196.493V189.058C196.493 188.716 196.404 188.442 196.227 188.237C196.053 188.032 195.778 187.93 195.399 187.93C195.067 187.93 194.805 188.009 194.613 188.169C194.426 188.328 194.333 188.547 194.333 188.825H192.357C192.357 188.397 192.49 188 192.754 187.636C193.018 187.271 193.392 186.986 193.875 186.781C194.358 186.572 194.9 186.467 195.502 186.467C196.413 186.467 197.136 186.697 197.669 187.157C198.207 187.613 198.476 188.256 198.476 189.085V192.291C198.48 192.993 198.578 193.524 198.77 193.884V194H196.773ZM195.14 192.626C195.431 192.626 195.7 192.562 195.946 192.435C196.192 192.302 196.375 192.127 196.493 191.908V190.637H195.755C194.766 190.637 194.24 190.979 194.176 191.662L194.169 191.778C194.169 192.024 194.256 192.227 194.429 192.387C194.602 192.546 194.839 192.626 195.14 192.626ZM204.149 188.456C203.881 188.42 203.644 188.401 203.438 188.401C202.691 188.401 202.201 188.654 201.969 189.16V194H199.993V186.604H201.859L201.914 187.485C202.311 186.806 202.86 186.467 203.562 186.467C203.78 186.467 203.985 186.496 204.177 186.556L204.149 188.456ZM208.374 194.137C207.289 194.137 206.405 193.804 205.722 193.139C205.043 192.473 204.703 191.587 204.703 190.479V190.288C204.703 189.545 204.847 188.882 205.134 188.299C205.421 187.711 205.826 187.26 206.351 186.945C206.879 186.626 207.481 186.467 208.155 186.467C209.167 186.467 209.962 186.786 210.541 187.424C211.124 188.062 211.416 188.966 211.416 190.138V190.944H206.706C206.77 191.427 206.961 191.815 207.28 192.106C207.604 192.398 208.012 192.544 208.504 192.544C209.265 192.544 209.86 192.268 210.288 191.717L211.259 192.804C210.963 193.223 210.562 193.551 210.056 193.788C209.55 194.021 208.989 194.137 208.374 194.137ZM208.148 188.066C207.757 188.066 207.438 188.199 207.191 188.463C206.95 188.727 206.795 189.105 206.727 189.598H209.475V189.44C209.465 189.003 209.347 188.666 209.119 188.429C208.891 188.187 208.568 188.066 208.148 188.066ZM220.316 194C220.225 193.822 220.159 193.601 220.118 193.337C219.64 193.87 219.018 194.137 218.252 194.137C217.527 194.137 216.926 193.927 216.447 193.508C215.973 193.089 215.736 192.56 215.736 191.922C215.736 191.138 216.026 190.536 216.604 190.117C217.188 189.698 218.029 189.486 219.127 189.481H220.036V189.058C220.036 188.716 219.947 188.442 219.77 188.237C219.596 188.032 219.321 187.93 218.942 187.93C218.61 187.93 218.348 188.009 218.156 188.169C217.969 188.328 217.876 188.547 217.876 188.825H215.9C215.9 188.397 216.033 188 216.297 187.636C216.561 187.271 216.935 186.986 217.418 186.781C217.901 186.572 218.443 186.467 219.045 186.467C219.956 186.467 220.679 186.697 221.212 187.157C221.75 187.613 222.019 188.256 222.019 189.085V192.291C222.023 192.993 222.121 193.524 222.312 193.884V194H220.316ZM218.683 192.626C218.974 192.626 219.243 192.562 219.489 192.435C219.735 192.302 219.918 192.127 220.036 191.908V190.637H219.298C218.309 190.637 217.783 190.979 217.719 191.662L217.712 191.778C217.712 192.024 217.799 192.227 217.972 192.387C218.145 192.546 218.382 192.626 218.683 192.626ZM227.692 188.456C227.424 188.42 227.187 188.401 226.981 188.401C226.234 188.401 225.744 188.654 225.512 189.16V194H223.536V186.604H225.402L225.457 187.485C225.854 186.806 226.403 186.467 227.104 186.467C227.323 186.467 227.528 186.496 227.72 186.556L227.692 188.456ZM231.917 194.137C230.832 194.137 229.948 193.804 229.265 193.139C228.586 192.473 228.246 191.587 228.246 190.479V190.288C228.246 189.545 228.39 188.882 228.677 188.299C228.964 187.711 229.369 187.26 229.894 186.945C230.422 186.626 231.024 186.467 231.698 186.467C232.71 186.467 233.505 186.786 234.084 187.424C234.667 188.062 234.959 188.966 234.959 190.138V190.944H230.249C230.313 191.427 230.504 191.815 230.823 192.106C231.147 192.398 231.555 192.544 232.047 192.544C232.808 192.544 233.403 192.268 233.831 191.717L234.802 192.804C234.506 193.223 234.104 193.551 233.599 193.788C233.093 194.021 232.532 194.137 231.917 194.137ZM231.691 188.066C231.299 188.066 230.98 188.199 230.734 188.463C230.493 188.727 230.338 189.105 230.27 189.598H233.018V189.44C233.008 189.003 232.89 188.666 232.662 188.429C232.434 188.187 232.111 188.066 231.691 188.066ZM240.373 194C240.282 193.822 240.216 193.601 240.175 193.337C239.696 193.87 239.074 194.137 238.309 194.137C237.584 194.137 236.982 193.927 236.504 193.508C236.03 193.089 235.793 192.56 235.793 191.922C235.793 191.138 236.082 190.536 236.661 190.117C237.244 189.698 238.085 189.486 239.184 189.481H240.093V189.058C240.093 188.716 240.004 188.442 239.826 188.237C239.653 188.032 239.377 187.93 238.999 187.93C238.666 187.93 238.404 188.009 238.213 188.169C238.026 188.328 237.933 188.547 237.933 188.825H235.957C235.957 188.397 236.089 188 236.354 187.636C236.618 187.271 236.992 186.986 237.475 186.781C237.958 186.572 238.5 186.467 239.102 186.467C240.013 186.467 240.735 186.697 241.269 187.157C241.806 187.613 242.075 188.256 242.075 189.085V192.291C242.08 192.993 242.178 193.524 242.369 193.884V194H240.373ZM238.739 192.626C239.031 192.626 239.3 192.562 239.546 192.435C239.792 192.302 239.974 192.127 240.093 191.908V190.637H239.354C238.366 190.637 237.839 190.979 237.775 191.662L237.769 191.778C237.769 192.024 237.855 192.227 238.028 192.387C238.201 192.546 238.438 192.626 238.739 192.626Z" fill="#454D58"/>
<rect x="137" y="439" width="120" height="150" rx="4" fill="#8B9298"/>
<path fill-rule="evenodd" clip-rule="evenodd" d="M145 455H249C251.209 455 253 456.791 253 459V581C253 583.209 251.209 585 249 585H145C142.791 585 141 583.209 141 581V459C141 456.791 142.791 455 145 455ZM143 445C144.105 445 145 445.895 145 447C145 448.105 144.105 449 143 449C141.895 449 141 448.105 141 447C141 445.895 141.895 445 143 445ZM149 445C150.105 445 151 445.895 151 447C151 448.105 150.105 449 149 449C147.895 449 147 448.105 147 447C147 445.895 147.895 445 149 445ZM155 445C156.105 445 157 445.895 157 447C157 448.105 156.105 449 155 449C153.895 449 153 448.105 153 447C153 445.895 153.895 445 155 445Z" fill="#F6F8F9"/>
<path d="M153.336 419V409.047H156.398C157.273 409.047 158.055 409.245 158.743 409.642C159.436 410.034 159.976 410.594 160.363 411.323C160.751 412.048 160.944 412.873 160.944 413.798V414.256C160.944 415.181 160.753 416.004 160.37 416.724C159.992 417.444 159.456 418.002 158.764 418.398C158.071 418.795 157.289 418.995 156.419 419H153.336ZM155.387 410.708V417.353H156.378C157.18 417.353 157.793 417.09 158.217 416.566C158.641 416.042 158.857 415.293 158.866 414.317V413.791C158.866 412.779 158.657 412.014 158.237 411.494C157.818 410.97 157.205 410.708 156.398 410.708H155.387ZM164.396 419H162.414V411.604H164.396V419ZM162.298 409.689C162.298 409.393 162.396 409.149 162.592 408.958C162.792 408.767 163.063 408.671 163.405 408.671C163.743 408.671 164.011 408.767 164.212 408.958C164.412 409.149 164.513 409.393 164.513 409.689C164.513 409.99 164.41 410.236 164.205 410.428C164.005 410.619 163.738 410.715 163.405 410.715C163.073 410.715 162.804 410.619 162.599 410.428C162.398 410.236 162.298 409.99 162.298 409.689ZM170.316 419C170.225 418.822 170.159 418.601 170.118 418.337C169.64 418.87 169.018 419.137 168.252 419.137C167.527 419.137 166.926 418.927 166.447 418.508C165.973 418.089 165.736 417.56 165.736 416.922C165.736 416.138 166.026 415.536 166.604 415.117C167.188 414.698 168.029 414.486 169.127 414.481H170.036V414.058C170.036 413.716 169.947 413.442 169.77 413.237C169.596 413.032 169.321 412.93 168.942 412.93C168.61 412.93 168.348 413.009 168.156 413.169C167.969 413.328 167.876 413.547 167.876 413.825H165.9C165.9 413.397 166.033 413 166.297 412.636C166.561 412.271 166.935 411.986 167.418 411.781C167.901 411.572 168.443 411.467 169.045 411.467C169.956 411.467 170.679 411.697 171.212 412.157C171.75 412.613 172.019 413.256 172.019 414.085V417.291C172.023 417.993 172.121 418.524 172.312 418.884V419H170.316ZM168.683 417.626C168.974 417.626 169.243 417.562 169.489 417.435C169.735 417.302 169.918 417.127 170.036 416.908V415.637H169.298C168.309 415.637 167.783 415.979 167.719 416.662L167.712 416.778C167.712 417.024 167.799 417.227 167.972 417.387C168.145 417.546 168.382 417.626 168.683 417.626ZM173.249 415.247C173.249 414.112 173.518 413.199 174.056 412.506C174.598 411.813 175.327 411.467 176.243 411.467C177.054 411.467 177.686 411.745 178.137 412.301L178.219 411.604H180.01V418.754C180.01 419.401 179.862 419.964 179.565 420.442C179.274 420.921 178.861 421.285 178.328 421.536C177.795 421.787 177.171 421.912 176.455 421.912C175.913 421.912 175.384 421.803 174.869 421.584C174.354 421.37 173.965 421.092 173.7 420.75L174.575 419.547C175.067 420.098 175.664 420.374 176.366 420.374C176.89 420.374 177.298 420.233 177.59 419.95C177.882 419.672 178.027 419.276 178.027 418.761V418.364C177.572 418.879 176.972 419.137 176.229 419.137C175.341 419.137 174.621 418.79 174.069 418.098C173.522 417.4 173.249 416.478 173.249 415.329V415.247ZM175.225 415.391C175.225 416.061 175.359 416.587 175.628 416.97C175.897 417.348 176.266 417.537 176.735 417.537C177.337 417.537 177.768 417.312 178.027 416.86V413.75C177.763 413.299 177.337 413.073 176.749 413.073C176.275 413.073 175.901 413.267 175.628 413.654C175.359 414.042 175.225 414.62 175.225 415.391ZM185.69 413.456C185.422 413.42 185.185 413.401 184.979 413.401C184.232 413.401 183.742 413.654 183.51 414.16V419H181.534V411.604H183.4L183.455 412.485C183.852 411.806 184.401 411.467 185.103 411.467C185.321 411.467 185.526 411.496 185.718 411.556L185.69 413.456ZM190.729 419C190.637 418.822 190.571 418.601 190.53 418.337C190.052 418.87 189.43 419.137 188.664 419.137C187.939 419.137 187.338 418.927 186.859 418.508C186.385 418.089 186.148 417.56 186.148 416.922C186.148 416.138 186.438 415.536 187.017 415.117C187.6 414.698 188.441 414.486 189.539 414.481H190.448V414.058C190.448 413.716 190.359 413.442 190.182 413.237C190.008 413.032 189.733 412.93 189.354 412.93C189.022 412.93 188.76 413.009 188.568 413.169C188.382 413.328 188.288 413.547 188.288 413.825H186.312C186.312 413.397 186.445 413 186.709 412.636C186.973 412.271 187.347 411.986 187.83 411.781C188.313 411.572 188.855 411.467 189.457 411.467C190.368 411.467 191.091 411.697 191.624 412.157C192.162 412.613 192.431 413.256 192.431 414.085V417.291C192.435 417.993 192.533 418.524 192.725 418.884V419H190.729ZM189.095 417.626C189.386 417.626 189.655 417.562 189.901 417.435C190.147 417.302 190.33 417.127 190.448 416.908V415.637H189.71C188.721 415.637 188.195 415.979 188.131 416.662L188.124 416.778C188.124 417.024 188.211 417.227 188.384 417.387C188.557 417.546 188.794 417.626 189.095 417.626ZM195.801 411.604L195.862 412.431C196.386 411.788 197.095 411.467 197.988 411.467C198.941 411.467 199.595 411.843 199.95 412.595C200.47 411.843 201.21 411.467 202.172 411.467C202.974 411.467 203.571 411.701 203.963 412.171C204.355 412.636 204.551 413.338 204.551 414.276V419H202.568V414.283C202.568 413.864 202.486 413.559 202.322 413.367C202.158 413.171 201.869 413.073 201.454 413.073C200.862 413.073 200.451 413.356 200.224 413.921L200.23 419H198.255V414.29C198.255 413.862 198.171 413.552 198.002 413.36C197.833 413.169 197.546 413.073 197.141 413.073C196.58 413.073 196.174 413.306 195.924 413.771V419H193.948V411.604H195.801ZM213.369 416.532L215.625 409.047H217.908L214.442 419H212.303L208.851 409.047H211.127L213.369 416.532ZM220.807 419H218.824V411.604H220.807V419ZM218.708 409.689C218.708 409.393 218.806 409.149 219.002 408.958C219.202 408.767 219.474 408.671 219.815 408.671C220.153 408.671 220.422 408.767 220.622 408.958C220.823 409.149 220.923 409.393 220.923 409.689C220.923 409.99 220.82 410.236 220.615 410.428C220.415 410.619 220.148 410.715 219.815 410.715C219.483 410.715 219.214 410.619 219.009 410.428C218.808 410.236 218.708 409.99 218.708 409.689ZM225.845 419.137C224.76 419.137 223.876 418.804 223.192 418.139C222.513 417.473 222.174 416.587 222.174 415.479V415.288C222.174 414.545 222.317 413.882 222.604 413.299C222.892 412.711 223.297 412.26 223.821 411.945C224.35 411.626 224.951 411.467 225.626 411.467C226.638 411.467 227.433 411.786 228.012 412.424C228.595 413.062 228.887 413.966 228.887 415.138V415.944H224.177C224.241 416.427 224.432 416.815 224.751 417.106C225.075 417.398 225.482 417.544 225.975 417.544C226.736 417.544 227.33 417.268 227.759 416.717L228.729 417.804C228.433 418.223 228.032 418.551 227.526 418.788C227.021 419.021 226.46 419.137 225.845 419.137ZM225.619 413.066C225.227 413.066 224.908 413.199 224.662 413.463C224.421 413.727 224.266 414.105 224.197 414.598H226.945V414.44C226.936 414.003 226.818 413.666 226.59 413.429C226.362 413.187 226.038 413.066 225.619 413.066ZM236.447 416.313L237.418 411.604H239.325L237.438 419H235.784L234.383 414.345L232.981 419H231.334L229.447 411.604H231.354L232.318 416.307L233.672 411.604H235.101L236.447 416.313Z" fill="#454D58"/>
<line x1="159.17" y1="482.794" x2="167.794" y2="527.83" stroke="#BAC7D2" stroke-width="2" stroke-linecap="round" stroke-linejoin="round"/>
<line x1="205.177" y1="481.403" x2="168.403" y2="528.823" stroke="#BAC7D2" stroke-width="2" stroke-linecap="round" stroke-linejoin="round"/>
<line x1="173.799" y1="498.167" x2="168.167" y2="528.201" stroke="#BAC7D2" stroke-width="2" stroke-linecap="round" stroke-linejoin="round"/>
<line x1="153.392" y1="508.25" x2="168.25" y2="529.608" stroke="#BAC7D2" stroke-width="2" stroke-linecap="round" stroke-linejoin="round"/>
<line x1="204.437" y1="515.297" x2="168.297" y2="529.563" stroke="#BAC7D2" stroke-width="2" stroke-linecap="round" stroke-linejoin="round"/>
<line x1="204" y1="530" x2="147" y2="530" stroke="#BAC7D2" stroke-width="2" stroke-linecap="round" stroke-linejoin="round"/>
<rect x="156" y="481" width="10" height="12" rx="1" fill="#BBBBBB"/>
<rect x="148" y="502" width="10" height="12" rx="1" fill="#BBBBBB"/>
<rect x="168" y="496" width="10" height="12" rx="1" fill="#BBBBBB"/>
<rect x="197" y="476" width="10" height="12" rx="1" fill="#BBBBBB"/>
<rect x="200" y="510" width="10" height="12" rx="1" fill="#BBBBBB"/>
<line x1="206.327" y1="547.489" x2="217.489" y2="571.673" stroke="#BAC7D2" stroke-width="2" stroke-linecap="round" stroke-linejoin="round"/>
<line x1="222.765" y1="550.19" x2="218.19" y2="571.235" stroke="#BAC7D2" stroke-width="2" stroke-linecap="round" stroke-linejoin="round"/>
<line x1="198.41" y1="556.886" x2="216.886" y2="572.59" stroke="#BAC7D2" stroke-width="2" stroke-linecap="round" stroke-linejoin="round"/>
<line x1="238.737" y1="558.39" x2="218.39" y2="572.263" stroke="#BAC7D2" stroke-width="2" stroke-linecap="round" stroke-linejoin="round"/>
<line x1="229" y1="573" x2="211" y2="573" stroke="#BAC7D2" stroke-width="2" stroke-linecap="round" stroke-linejoin="round"/>
<rect x="201" y="537" width="10" height="12" rx="1" fill="#BBBBBB"/>
<rect x="191" y="552" width="10" height="12" rx="1" fill="#BBBBBB"/>
<rect x="220" y="539" width="10" height="12" rx="1" fill="#BBBBBB"/>
<rect x="234" y="553" width="10" height="12" rx="1" fill="#BBBBBB"/>
<rect x="143" y="458" width="6" height="53" rx="3" fill="#929AA0"/>
<rect x="176" y="461" width="10" height="12" rx="1" fill="#72C850"/>
<rect x="382" y="435" width="120" height="150" rx="4" fill="#8B9298"/>
<path fill-rule="evenodd" clip-rule="evenodd" d="M390 451H494C496.209 451 498 452.791 498 455V577C498 579.209 496.209 581 494 581H390C387.791 581 386 579.209 386 577V455C386 452.791 387.791 451 390 451ZM388 441C389.105 441 390 441.895 390 443C390 444.105 389.105 445 388 445C386.895 445 386 444.105 386 443C386 441.895 386.895 441 388 441ZM394 441C395.105 441 396 441.895 396 443C396 444.105 395.105 445 394 445C392.895 445 392 444.105 392 443C392 441.895 392.895 441 394 441ZM400 441C401.105 441 402 441.895 402 443C402 444.105 401.105 445 400 445C398.895 445 398 444.105 398 443C398 441.895 398.895 441 400 441Z" fill="#F6F8F9"/>
<path d="M398.336 415V405.047H401.398C402.273 405.047 403.055 405.245 403.743 405.642C404.436 406.034 404.976 406.594 405.363 407.323C405.751 408.048 405.944 408.873 405.944 409.798V410.256C405.944 411.181 405.753 412.004 405.37 412.724C404.992 413.444 404.456 414.002 403.764 414.398C403.071 414.795 402.289 414.995 401.419 415H398.336ZM400.387 406.708V413.353H401.378C402.18 413.353 402.793 413.09 403.217 412.566C403.641 412.042 403.857 411.293 403.866 410.317V409.791C403.866 408.779 403.657 408.014 403.237 407.494C402.818 406.97 402.205 406.708 401.398 406.708H400.387ZM409.396 415H407.414V407.604H409.396V415ZM407.298 405.689C407.298 405.393 407.396 405.149 407.592 404.958C407.792 404.767 408.063 404.671 408.405 404.671C408.743 404.671 409.011 404.767 409.212 404.958C409.412 405.149 409.513 405.393 409.513 405.689C409.513 405.99 409.41 406.236 409.205 406.428C409.005 406.619 408.738 406.715 408.405 406.715C408.073 406.715 407.804 406.619 407.599 406.428C407.398 406.236 407.298 405.99 407.298 405.689ZM415.316 415C415.225 414.822 415.159 414.601 415.118 414.337C414.64 414.87 414.018 415.137 413.252 415.137C412.527 415.137 411.926 414.927 411.447 414.508C410.973 414.089 410.736 413.56 410.736 412.922C410.736 412.138 411.026 411.536 411.604 411.117C412.188 410.698 413.029 410.486 414.127 410.481H415.036V410.058C415.036 409.716 414.947 409.442 414.77 409.237C414.596 409.032 414.321 408.93 413.942 408.93C413.61 408.93 413.348 409.009 413.156 409.169C412.969 409.328 412.876 409.547 412.876 409.825H410.9C410.9 409.397 411.033 409 411.297 408.636C411.561 408.271 411.935 407.986 412.418 407.781C412.901 407.572 413.443 407.467 414.045 407.467C414.956 407.467 415.679 407.697 416.212 408.157C416.75 408.613 417.019 409.256 417.019 410.085V413.291C417.023 413.993 417.121 414.524 417.312 414.884V415H415.316ZM413.683 413.626C413.974 413.626 414.243 413.562 414.489 413.435C414.735 413.302 414.918 413.127 415.036 412.908V411.637H414.298C413.309 411.637 412.783 411.979 412.719 412.662L412.712 412.778C412.712 413.024 412.799 413.227 412.972 413.387C413.145 413.546 413.382 413.626 413.683 413.626ZM418.249 411.247C418.249 410.112 418.518 409.199 419.056 408.506C419.598 407.813 420.327 407.467 421.243 407.467C422.054 407.467 422.686 407.745 423.137 408.301L423.219 407.604H425.01V414.754C425.01 415.401 424.862 415.964 424.565 416.442C424.274 416.921 423.861 417.285 423.328 417.536C422.795 417.787 422.171 417.912 421.455 417.912C420.913 417.912 420.384 417.803 419.869 417.584C419.354 417.37 418.965 417.092 418.7 416.75L419.575 415.547C420.067 416.098 420.664 416.374 421.366 416.374C421.89 416.374 422.298 416.233 422.59 415.95C422.882 415.672 423.027 415.276 423.027 414.761V414.364C422.572 414.879 421.972 415.137 421.229 415.137C420.341 415.137 419.621 414.79 419.069 414.098C418.522 413.4 418.249 412.478 418.249 411.329V411.247ZM420.225 411.391C420.225 412.061 420.359 412.587 420.628 412.97C420.897 413.348 421.266 413.537 421.735 413.537C422.337 413.537 422.768 413.312 423.027 412.86V409.75C422.763 409.299 422.337 409.073 421.749 409.073C421.275 409.073 420.901 409.267 420.628 409.654C420.359 410.042 420.225 410.62 420.225 411.391ZM430.69 409.456C430.422 409.42 430.185 409.401 429.979 409.401C429.232 409.401 428.742 409.654 428.51 410.16V415H426.534V407.604H428.4L428.455 408.485C428.852 407.806 429.401 407.467 430.103 407.467C430.321 407.467 430.526 407.496 430.718 407.556L430.69 409.456ZM435.729 415C435.637 414.822 435.571 414.601 435.53 414.337C435.052 414.87 434.43 415.137 433.664 415.137C432.939 415.137 432.338 414.927 431.859 414.508C431.385 414.089 431.148 413.56 431.148 412.922C431.148 412.138 431.438 411.536 432.017 411.117C432.6 410.698 433.441 410.486 434.539 410.481H435.448V410.058C435.448 409.716 435.359 409.442 435.182 409.237C435.008 409.032 434.733 408.93 434.354 408.93C434.022 408.93 433.76 409.009 433.568 409.169C433.382 409.328 433.288 409.547 433.288 409.825H431.312C431.312 409.397 431.445 409 431.709 408.636C431.973 408.271 432.347 407.986 432.83 407.781C433.313 407.572 433.855 407.467 434.457 407.467C435.368 407.467 436.091 407.697 436.624 408.157C437.162 408.613 437.431 409.256 437.431 410.085V413.291C437.435 413.993 437.533 414.524 437.725 414.884V415H435.729ZM434.095 413.626C434.386 413.626 434.655 413.562 434.901 413.435C435.147 413.302 435.33 413.127 435.448 412.908V411.637H434.71C433.721 411.637 433.195 411.979 433.131 412.662L433.124 412.778C433.124 413.024 433.211 413.227 433.384 413.387C433.557 413.546 433.794 413.626 434.095 413.626ZM440.801 407.604L440.862 408.431C441.386 407.788 442.095 407.467 442.988 407.467C443.941 407.467 444.595 407.843 444.95 408.595C445.47 407.843 446.21 407.467 447.172 407.467C447.974 407.467 448.571 407.701 448.963 408.171C449.355 408.636 449.551 409.338 449.551 410.276V415H447.568V410.283C447.568 409.864 447.486 409.559 447.322 409.367C447.158 409.171 446.869 409.073 446.454 409.073C445.862 409.073 445.451 409.356 445.224 409.921L445.23 415H443.255V410.29C443.255 409.862 443.171 409.552 443.002 409.36C442.833 409.169 442.546 409.073 442.141 409.073C441.58 409.073 441.174 409.306 440.924 409.771V415H438.948V407.604H440.801ZM458.369 412.532L460.625 405.047H462.908L459.442 415H457.303L453.851 405.047H456.127L458.369 412.532ZM465.807 415H463.824V407.604H465.807V415ZM463.708 405.689C463.708 405.393 463.806 405.149 464.002 404.958C464.202 404.767 464.474 404.671 464.815 404.671C465.153 404.671 465.422 404.767 465.622 404.958C465.823 405.149 465.923 405.393 465.923 405.689C465.923 405.99 465.82 406.236 465.615 406.428C465.415 406.619 465.148 406.715 464.815 406.715C464.483 406.715 464.214 406.619 464.009 406.428C463.808 406.236 463.708 405.99 463.708 405.689ZM470.845 415.137C469.76 415.137 468.876 414.804 468.192 414.139C467.513 413.473 467.174 412.587 467.174 411.479V411.288C467.174 410.545 467.317 409.882 467.604 409.299C467.892 408.711 468.297 408.26 468.821 407.945C469.35 407.626 469.951 407.467 470.626 407.467C471.638 407.467 472.433 407.786 473.012 408.424C473.595 409.062 473.887 409.966 473.887 411.138V411.944H469.177C469.241 412.427 469.432 412.815 469.751 413.106C470.075 413.398 470.482 413.544 470.975 413.544C471.736 413.544 472.33 413.268 472.759 412.717L473.729 413.804C473.433 414.223 473.032 414.551 472.526 414.788C472.021 415.021 471.46 415.137 470.845 415.137ZM470.619 409.066C470.227 409.066 469.908 409.199 469.662 409.463C469.421 409.727 469.266 410.105 469.197 410.598H471.945V410.44C471.936 410.003 471.818 409.666 471.59 409.429C471.362 409.187 471.038 409.066 470.619 409.066ZM481.447 412.313L482.418 407.604H484.325L482.438 415H480.784L479.383 410.345L477.981 415H476.334L474.447 407.604H476.354L477.318 412.307L478.672 407.604H480.101L481.447 412.313ZM418.789 427.685C418.712 428.756 418.315 429.599 417.6 430.214C416.889 430.829 415.95 431.137 414.783 431.137C413.507 431.137 412.502 430.708 411.769 429.852C411.039 428.99 410.675 427.81 410.675 426.311V425.702C410.675 424.745 410.843 423.902 411.181 423.173C411.518 422.444 411.999 421.885 412.623 421.498C413.252 421.106 413.981 420.91 414.811 420.91C415.959 420.91 416.884 421.218 417.586 421.833C418.288 422.448 418.693 423.312 418.803 424.424H416.752C416.702 423.781 416.522 423.316 416.212 423.029C415.907 422.738 415.439 422.592 414.811 422.592C414.127 422.592 413.614 422.838 413.272 423.33C412.935 423.818 412.762 424.576 412.753 425.606V426.358C412.753 427.434 412.915 428.22 413.238 428.717C413.566 429.214 414.081 429.462 414.783 429.462C415.417 429.462 415.888 429.318 416.198 429.031C416.513 428.74 416.693 428.291 416.738 427.685H418.789ZM419.698 427.233C419.698 426.5 419.84 425.846 420.122 425.271C420.405 424.697 420.81 424.253 421.339 423.938C421.872 423.624 422.49 423.467 423.191 423.467C424.189 423.467 425.003 423.772 425.632 424.383C426.265 424.993 426.618 425.823 426.691 426.871L426.705 427.377C426.705 428.512 426.388 429.423 425.755 430.111C425.121 430.795 424.271 431.137 423.205 431.137C422.139 431.137 421.286 430.795 420.648 430.111C420.015 429.428 419.698 428.498 419.698 427.322V427.233ZM421.674 427.377C421.674 428.079 421.806 428.617 422.07 428.99C422.335 429.359 422.713 429.544 423.205 429.544C423.684 429.544 424.057 429.362 424.326 428.997C424.595 428.628 424.729 428.04 424.729 427.233C424.729 426.545 424.595 426.012 424.326 425.634C424.057 425.256 423.679 425.066 423.191 425.066C422.708 425.066 422.335 425.256 422.07 425.634C421.806 426.007 421.674 426.589 421.674 427.377ZM429.74 423.604L429.802 424.458C430.33 423.797 431.039 423.467 431.928 423.467C432.712 423.467 433.295 423.697 433.678 424.157C434.061 424.618 434.257 425.306 434.266 426.222V431H432.29V426.27C432.29 425.85 432.199 425.547 432.017 425.36C431.834 425.169 431.531 425.073 431.107 425.073C430.551 425.073 430.134 425.31 429.856 425.784V431H427.881V423.604H429.74ZM436.248 431V425.053H435.147V423.604H436.248V423.262C436.257 422.332 436.542 421.617 437.103 421.115C437.668 420.609 438.463 420.356 439.488 420.356C440.104 420.356 440.851 420.491 441.73 420.76L441.443 422.394C440.997 422.261 440.65 422.177 440.404 422.141C440.158 422.1 439.894 422.079 439.611 422.079C438.691 422.079 438.23 422.487 438.23 423.303V423.604H439.687V425.053H438.23V431H436.248ZM442.653 431H440.671V423.604H442.653V431ZM444 427.247C444 426.112 444.269 425.199 444.807 424.506C445.349 423.813 446.078 423.467 446.994 423.467C447.805 423.467 448.437 423.745 448.888 424.301L448.97 423.604H450.761V430.754C450.761 431.401 450.613 431.964 450.316 432.442C450.025 432.921 449.612 433.285 449.079 433.536C448.546 433.787 447.922 433.912 447.206 433.912C446.664 433.912 446.135 433.803 445.62 433.584C445.105 433.37 444.715 433.092 444.451 432.75L445.326 431.547C445.818 432.098 446.415 432.374 447.117 432.374C447.641 432.374 448.049 432.233 448.341 431.95C448.632 431.672 448.778 431.276 448.778 430.761V430.364C448.323 430.879 447.723 431.137 446.98 431.137C446.092 431.137 445.372 430.79 444.82 430.098C444.273 429.4 444 428.478 444 427.329V427.247ZM445.976 427.391C445.976 428.061 446.11 428.587 446.379 428.97C446.648 429.348 447.017 429.537 447.486 429.537C448.088 429.537 448.519 429.312 448.778 428.86V425.75C448.514 425.299 448.088 425.073 447.5 425.073C447.026 425.073 446.652 425.267 446.379 425.654C446.11 426.042 445.976 426.62 445.976 427.391ZM456.715 430.248C456.227 430.84 455.553 431.137 454.691 431.137C453.898 431.137 453.292 430.909 452.873 430.453C452.458 429.997 452.246 429.33 452.237 428.45V423.604H454.213V428.382C454.213 429.152 454.564 429.537 455.266 429.537C455.936 429.537 456.396 429.305 456.646 428.84V423.604H458.629V431H456.77L456.715 430.248ZM464.275 425.456C464.007 425.42 463.77 425.401 463.564 425.401C462.817 425.401 462.327 425.654 462.095 426.16V431H460.119V423.604H461.985L462.04 424.485C462.437 423.806 462.986 423.467 463.688 423.467C463.906 423.467 464.111 423.496 464.303 423.556L464.275 425.456ZM468.5 431.137C467.415 431.137 466.531 430.804 465.848 430.139C465.169 429.473 464.829 428.587 464.829 427.479V427.288C464.829 426.545 464.973 425.882 465.26 425.299C465.547 424.711 465.952 424.26 466.477 423.945C467.005 423.626 467.607 423.467 468.281 423.467C469.293 423.467 470.088 423.786 470.667 424.424C471.25 425.062 471.542 425.966 471.542 427.138V427.944H466.832C466.896 428.427 467.087 428.815 467.406 429.106C467.73 429.398 468.138 429.544 468.63 429.544C469.391 429.544 469.986 429.268 470.414 428.717L471.385 429.804C471.089 430.223 470.688 430.551 470.182 430.788C469.676 431.021 469.115 431.137 468.5 431.137ZM468.274 425.066C467.882 425.066 467.563 425.199 467.317 425.463C467.076 425.727 466.921 426.105 466.853 426.598H469.601V426.44C469.591 426.003 469.473 425.666 469.245 425.429C469.017 425.187 468.694 425.066 468.274 425.066Z" fill="#454D58"/>
<line x1="404.17" y1="478.794" x2="412.794" y2="523.83" stroke="#BAC7D2" stroke-width="2" stroke-linecap="round" stroke-linejoin="round"/>
<line x1="450.177" y1="477.403" x2="413.403" y2="524.823" stroke="#BAC7D2" stroke-width="2" stroke-linecap="round" stroke-linejoin="round"/>
<line x1="418.799" y1="494.167" x2="413.167" y2="524.201" stroke="#BAC7D2" stroke-width="2" stroke-linecap="round" stroke-linejoin="round"/>
<line x1="398.392" y1="504.25" x2="413.25" y2="525.608" stroke="#BAC7D2" stroke-width="2" stroke-linecap="round" stroke-linejoin="round"/>
<line x1="449.437" y1="511.297" x2="413.297" y2="525.563" stroke="#BAC7D2" stroke-width="2" stroke-linecap="round" stroke-linejoin="round"/>
<line x1="449" y1="526" x2="392" y2="526" stroke="#BAC7D2" stroke-width="2" stroke-linecap="round" stroke-linejoin="round"/>
<rect x="401" y="477" width="10" height="12" rx="1" fill="#BBBBBB"/>
<rect x="393" y="498" width="10" height="12" rx="1" fill="#BBBBBB"/>
<rect x="413" y="492" width="10" height="12" rx="1" fill="#BBBBBB"/>
<rect x="442" y="472" width="10" height="12" rx="1" fill="#BBBBBB"/>
<rect x="445" y="506" width="10" height="12" rx="1" fill="#BBBBBB"/>
<line x1="451.327" y1="543.489" x2="462.489" y2="567.673" stroke="#BAC7D2" stroke-width="2" stroke-linecap="round" stroke-linejoin="round"/>
<line x1="467.765" y1="546.19" x2="463.19" y2="567.235" stroke="#BAC7D2" stroke-width="2" stroke-linecap="round" stroke-linejoin="round"/>
<line x1="443.41" y1="552.886" x2="461.886" y2="568.59" stroke="#BAC7D2" stroke-width="2" stroke-linecap="round" stroke-linejoin="round"/>
<line x1="483.737" y1="554.39" x2="463.39" y2="568.263" stroke="#BAC7D2" stroke-width="2" stroke-linecap="round" stroke-linejoin="round"/>
<line x1="474" y1="569" x2="456" y2="569" stroke="#BAC7D2" stroke-width="2" stroke-linecap="round" stroke-linejoin="round"/>
<rect x="446" y="533" width="10" height="12" rx="1" fill="#BBBBBB"/>
<rect x="436" y="548" width="10" height="12" rx="1" fill="#BBBBBB"/>
<rect x="465" y="535" width="10" height="12" rx="1" fill="#BBBBBB"/>
<rect x="479" y="549" width="10" height="12" rx="1" fill="#BBBBBB"/>
<rect x="388" y="454" width="6" height="53" rx="3" fill="#929AA0"/>
<rect x="464" y="451" width="34" height="130" rx="4" fill="#ABB0B4"/>
<line x1="495.5" y1="467.5" x2="467.5" y2="467.5" stroke="#BAC7D2" stroke-linecap="round" stroke-linejoin="round"/>
<rect x="468" y="461" width="8" height="4" rx="1" fill="#929AA0"/>
<rect x="478" y="461" width="7" height="4" rx="1" fill="#8B9298"/>
<rect x="487" y="461" width="8" height="4" rx="1" fill="#8B9298"/>
<rect x="468" y="471" width="28" height="4" rx="1" fill="#8B9298"/>
<rect x="468" y="478" width="28" height="4" rx="1" fill="#8B9298"/>
<rect x="468" y="486" width="28" height="4" rx="1" fill="#8B9298"/>
<rect x="487" y="494" width="9" height="4" rx="1" fill="#929AA0"/>
<rect x="421" y="457" width="10" height="12" rx="1" fill="#72C850"/>
<rect x="21" y="244" width="112" height="40" rx="10" fill="#BBBBBB"/>
<path fill-rule="evenodd" clip-rule="evenodd" d="M125.561 252.919L136.875 264.233L124.439 276.669L113.125 265.356L125.561 252.919Z" fill="#BBBBBB"/>
<path d="M38.7959 263.88C37.7507 263.58 36.9889 263.212 36.5107 262.776C36.0368 262.336 35.7998 261.794 35.7998 261.151C35.7998 260.423 36.0897 259.822 36.6694 259.348C37.2534 258.87 38.0109 258.631 38.9419 258.631C39.5767 258.631 40.1416 258.754 40.6367 258.999C41.1361 259.244 41.5212 259.583 41.792 260.015C42.0671 260.446 42.2046 260.918 42.2046 261.43H40.9795C40.9795 260.872 40.8018 260.434 40.4463 260.116C40.0908 259.795 39.5894 259.634 38.9419 259.634C38.341 259.634 37.8713 259.767 37.5327 260.034C37.1984 260.296 37.0312 260.662 37.0312 261.132C37.0312 261.508 37.1899 261.828 37.5073 262.09C37.8289 262.348 38.3727 262.585 39.1387 262.801C39.9089 263.017 40.5098 263.256 40.9414 263.519C41.3773 263.777 41.6989 264.079 41.9062 264.426C42.1178 264.773 42.2236 265.182 42.2236 265.651C42.2236 266.4 41.9316 267.001 41.3477 267.454C40.7637 267.903 39.9829 268.127 39.0054 268.127C38.3706 268.127 37.7782 268.006 37.228 267.765C36.6779 267.52 36.2526 267.185 35.9521 266.762C35.6559 266.339 35.5078 265.859 35.5078 265.321H36.7329C36.7329 265.88 36.9382 266.322 37.3486 266.648C37.7633 266.97 38.3156 267.13 39.0054 267.13C39.6486 267.13 40.1416 266.999 40.4844 266.737C40.8271 266.474 40.9985 266.117 40.9985 265.664C40.9985 265.211 40.8398 264.862 40.5225 264.617C40.2051 264.367 39.6296 264.122 38.7959 263.88ZM46.6742 268.127C45.7432 268.127 44.9857 267.822 44.4017 267.213C43.8177 266.599 43.5257 265.78 43.5257 264.756V264.541C43.5257 263.859 43.6548 263.252 43.913 262.719C44.1753 262.181 44.5393 261.762 45.0048 261.462C45.4745 261.157 45.9823 261.005 46.5282 261.005C47.4211 261.005 48.1151 261.299 48.6102 261.887C49.1053 262.475 49.3529 263.318 49.3529 264.414V264.902H44.7001C44.717 265.579 44.9138 266.127 45.2904 266.546C45.6713 266.961 46.1537 267.168 46.7377 267.168C47.1524 267.168 47.5036 267.084 47.7914 266.915C48.0791 266.745 48.3309 266.521 48.5467 266.242L49.264 266.8C48.6885 267.685 47.8252 268.127 46.6742 268.127ZM46.5282 261.97C46.0542 261.97 45.6564 262.143 45.3348 262.49C45.0132 262.833 44.8143 263.315 44.7382 263.938H48.1786V263.849C48.1447 263.252 47.9839 262.791 47.6962 262.465C47.4084 262.135 47.0191 261.97 46.5282 261.97ZM52.2102 268H51.0359V258.25H52.2102V268ZM57.1622 268.127C56.2312 268.127 55.4737 267.822 54.8897 267.213C54.3058 266.599 54.0138 265.78 54.0138 264.756V264.541C54.0138 263.859 54.1428 263.252 54.401 262.719C54.6633 262.181 55.0273 261.762 55.4928 261.462C55.9625 261.157 56.4703 261.005 57.0162 261.005C57.9091 261.005 58.6031 261.299 59.0982 261.887C59.5934 262.475 59.8409 263.318 59.8409 264.414V264.902H55.1881C55.205 265.579 55.4018 266.127 55.7784 266.546C56.1593 266.961 56.6417 267.168 57.2257 267.168C57.6404 267.168 57.9916 267.084 58.2794 266.915C58.5672 266.745 58.8189 266.521 59.0348 266.242L59.7521 266.8C59.1765 267.685 58.3132 268.127 57.1622 268.127ZM57.0162 261.97C56.5423 261.97 56.1445 262.143 55.8229 262.49C55.5012 262.833 55.3023 263.315 55.2262 263.938H58.6666V263.849C58.6327 263.252 58.4719 262.791 58.1842 262.465C57.8964 262.135 57.5071 261.97 57.0162 261.97ZM64.1772 267.168C64.5962 267.168 64.9622 267.042 65.2754 266.788C65.5885 266.534 65.762 266.216 65.7959 265.835H66.9067C66.8855 266.229 66.7501 266.604 66.5005 266.959C66.2508 267.314 65.9165 267.598 65.4975 267.81C65.0828 268.021 64.6427 268.127 64.1772 268.127C63.242 268.127 62.4972 267.816 61.9428 267.194C61.3927 266.568 61.1176 265.713 61.1176 264.629V264.433C61.1176 263.764 61.2404 263.169 61.4858 262.649C61.7313 262.128 62.0825 261.724 62.5395 261.437C63.0008 261.149 63.5446 261.005 64.1709 261.005C64.941 261.005 65.58 261.236 66.0879 261.697C66.5999 262.158 66.8729 262.757 66.9067 263.493H65.7959C65.762 263.049 65.5927 262.685 65.2881 262.401C64.9876 262.114 64.6152 261.97 64.1709 261.97C63.5742 261.97 63.1108 262.186 62.7807 262.617C62.4549 263.045 62.292 263.665 62.292 264.477V264.699C62.292 265.491 62.4549 266.1 62.7807 266.527C63.1066 266.955 63.5721 267.168 64.1772 267.168ZM70.0369 259.469V261.132H71.3192V262.04H70.0369V266.299C70.0369 266.574 70.0941 266.781 70.2083 266.921C70.3226 267.056 70.5173 267.124 70.7923 267.124C70.9277 267.124 71.1139 267.099 71.3509 267.048V268C71.042 268.085 70.7415 268.127 70.4495 268.127C69.9248 268.127 69.5291 267.968 69.2625 267.651C68.9959 267.333 68.8626 266.883 68.8626 266.299V262.04H67.6121V261.132H68.8626V259.469H70.0369ZM80.5948 268C80.5271 267.865 80.4721 267.623 80.4298 267.276C79.8839 267.843 79.2322 268.127 78.4747 268.127C77.7976 268.127 77.2411 267.937 76.8052 267.556C76.3736 267.171 76.1578 266.684 76.1578 266.096C76.1578 265.381 76.4286 264.826 76.9703 264.433C77.5162 264.035 78.2821 263.836 79.2681 263.836H80.4107V263.296C80.4107 262.886 80.288 262.56 80.0425 262.319C79.7971 262.073 79.4353 261.951 78.9571 261.951C78.5382 261.951 78.1869 262.056 77.9034 262.268C77.6199 262.48 77.4781 262.736 77.4781 263.036H76.2974C76.2974 262.693 76.418 262.363 76.6592 262.046C76.9047 261.724 77.2348 261.47 77.6495 261.284C78.0684 261.098 78.5276 261.005 79.0269 261.005C79.8183 261.005 80.4382 261.204 80.8868 261.602C81.3354 261.995 81.5681 262.539 81.585 263.233V266.394C81.585 267.025 81.6654 267.526 81.8262 267.898V268H80.5948ZM78.6461 267.105C79.0142 267.105 79.3633 267.01 79.6934 266.819C80.0235 266.629 80.2626 266.381 80.4107 266.077V264.667H79.4903C78.0515 264.667 77.3321 265.089 77.3321 265.931C77.3321 266.299 77.4548 266.587 77.7003 266.794C77.9457 267.001 78.261 267.105 78.6461 267.105ZM90.3274 266.381L92.9681 258.758H94.3011L90.8733 268H89.7942L86.3729 258.758H87.6995L90.3274 266.381ZM97.3361 258.758L100.358 266.299L103.379 258.758H104.96V268H103.741V264.401L103.855 260.516L100.821 268H99.8879L96.86 260.535L96.9806 264.401V268H95.7619V258.758H97.3361Z" fill="#333333"/>
<rect x="35" y="491" width="97" height="40" rx="10" fill="#BBBBBB"/>
<path fill-rule="evenodd" clip-rule="evenodd" d="M124.561 499.919L135.875 511.233L123.439 523.669L112.125 512.356L124.561 499.919Z" fill="#BBBBBB"/>
<path d="M52.7959 510.88C51.7507 510.58 50.9889 510.212 50.5107 509.776C50.0368 509.336 49.7998 508.794 49.7998 508.151C49.7998 507.423 50.0897 506.822 50.6694 506.348C51.2534 505.87 52.0109 505.631 52.9419 505.631C53.5767 505.631 54.1416 505.754 54.6367 505.999C55.1361 506.244 55.5212 506.583 55.792 507.015C56.0671 507.446 56.2046 507.918 56.2046 508.43H54.9795C54.9795 507.872 54.8018 507.434 54.4463 507.116C54.0908 506.795 53.5894 506.634 52.9419 506.634C52.341 506.634 51.8713 506.767 51.5327 507.034C51.1984 507.296 51.0312 507.662 51.0312 508.132C51.0312 508.508 51.1899 508.828 51.5073 509.09C51.8289 509.348 52.3727 509.585 53.1387 509.801C53.9089 510.017 54.5098 510.256 54.9414 510.519C55.3773 510.777 55.6989 511.079 55.9062 511.426C56.1178 511.773 56.2236 512.182 56.2236 512.651C56.2236 513.4 55.9316 514.001 55.3477 514.454C54.7637 514.903 53.9829 515.127 53.0054 515.127C52.3706 515.127 51.7782 515.006 51.228 514.765C50.6779 514.52 50.2526 514.185 49.9521 513.762C49.6559 513.339 49.5078 512.859 49.5078 512.321H50.7329C50.7329 512.88 50.9382 513.322 51.3486 513.648C51.7633 513.97 52.3156 514.13 53.0054 514.13C53.6486 514.13 54.1416 513.999 54.4844 513.737C54.8271 513.474 54.9985 513.117 54.9985 512.664C54.9985 512.211 54.8398 511.862 54.5225 511.617C54.2051 511.367 53.6296 511.122 52.7959 510.88ZM60.6742 515.127C59.7432 515.127 58.9857 514.822 58.4017 514.213C57.8177 513.599 57.5257 512.78 57.5257 511.756V511.541C57.5257 510.859 57.6548 510.252 57.913 509.719C58.1753 509.181 58.5393 508.762 59.0048 508.462C59.4745 508.157 59.9823 508.005 60.5282 508.005C61.4211 508.005 62.1151 508.299 62.6102 508.887C63.1053 509.475 63.3529 510.318 63.3529 511.414V511.902H58.7001C58.717 512.579 58.9138 513.127 59.2904 513.546C59.6713 513.961 60.1537 514.168 60.7377 514.168C61.1524 514.168 61.5036 514.084 61.7914 513.915C62.0791 513.745 62.3309 513.521 62.5467 513.242L63.264 513.8C62.6885 514.685 61.8252 515.127 60.6742 515.127ZM60.5282 508.97C60.0542 508.97 59.6564 509.143 59.3348 509.49C59.0132 509.833 58.8143 510.315 58.7382 510.938H62.1786V510.849C62.1447 510.252 61.9839 509.791 61.6962 509.465C61.4084 509.135 61.0191 508.97 60.5282 508.97ZM66.2102 515H65.0359V505.25H66.2102V515ZM71.1622 515.127C70.2312 515.127 69.4737 514.822 68.8897 514.213C68.3058 513.599 68.0138 512.78 68.0138 511.756V511.541C68.0138 510.859 68.1428 510.252 68.401 509.719C68.6633 509.181 69.0273 508.762 69.4928 508.462C69.9625 508.157 70.4703 508.005 71.0162 508.005C71.9091 508.005 72.6031 508.299 73.0982 508.887C73.5934 509.475 73.8409 510.318 73.8409 511.414V511.902H69.1881C69.205 512.579 69.4018 513.127 69.7784 513.546C70.1593 513.961 70.6417 514.168 71.2257 514.168C71.6404 514.168 71.9916 514.084 72.2794 513.915C72.5672 513.745 72.8189 513.521 73.0348 513.242L73.7521 513.8C73.1765 514.685 72.3132 515.127 71.1622 515.127ZM71.0162 508.97C70.5423 508.97 70.1445 509.143 69.8229 509.49C69.5012 509.833 69.3023 510.315 69.2262 510.938H72.6666V510.849C72.6327 510.252 72.4719 509.791 72.1842 509.465C71.8964 509.135 71.5071 508.97 71.0162 508.97ZM78.1772 514.168C78.5962 514.168 78.9622 514.042 79.2754 513.788C79.5885 513.534 79.762 513.216 79.7959 512.835H80.9067C80.8855 513.229 80.7501 513.604 80.5005 513.959C80.2508 514.314 79.9165 514.598 79.4975 514.81C79.0828 515.021 78.6427 515.127 78.1772 515.127C77.242 515.127 76.4972 514.816 75.9428 514.194C75.3927 513.568 75.1176 512.713 75.1176 511.629V511.433C75.1176 510.764 75.2404 510.169 75.4858 509.649C75.7313 509.128 76.0825 508.724 76.5395 508.437C77.0008 508.149 77.5446 508.005 78.1709 508.005C78.941 508.005 79.58 508.236 80.0879 508.697C80.5999 509.158 80.8729 509.757 80.9067 510.493H79.7959C79.762 510.049 79.5927 509.685 79.2881 509.401C78.9876 509.114 78.6152 508.97 78.1709 508.97C77.5742 508.97 77.1108 509.186 76.7807 509.617C76.4549 510.045 76.292 510.665 76.292 511.477V511.699C76.292 512.491 76.4549 513.1 76.7807 513.527C77.1066 513.955 77.5721 514.168 78.1772 514.168ZM84.0369 506.469V508.132H85.3192V509.04H84.0369V513.299C84.0369 513.574 84.0941 513.781 84.2083 513.921C84.3226 514.056 84.5173 514.124 84.7923 514.124C84.9277 514.124 85.1139 514.099 85.3509 514.048V515C85.042 515.085 84.7415 515.127 84.4495 515.127C83.9248 515.127 83.5291 514.968 83.2625 514.651C82.9959 514.333 82.8626 513.883 82.8626 513.299V509.04H81.6121V508.132H82.8626V506.469H84.0369ZM97.0395 513.381L99.6801 505.758H101.013L97.5854 515H96.5063L93.0849 505.758H94.4116L97.0395 513.381ZM104.048 505.758L107.07 513.299L110.091 505.758H111.672V515H110.453V511.401L110.567 507.516L107.533 515H106.6L103.572 507.535L103.693 511.401V515H102.474V505.758H104.048Z" fill="#333333"/>
<path d="M254.534 518.5H380.484" stroke="#929AA0" stroke-linecap="square"/>
<path fill-rule="evenodd" clip-rule="evenodd" d="M256.5 521C257.881 521 259 519.881 259 518.5C259 517.119 257.881 516 256.5 516C255.119 516 254 517.119 254 518.5C254 519.881 255.119 521 256.5 521Z" fill="#645F5F" stroke="#929AA0"/>
<path fill-rule="evenodd" clip-rule="evenodd" d="M382 518.5L379 521V516L382 518.5Z" fill="#929AA0"/>
<rect x="845" y="54" width="120" height="150" rx="4" fill="#8B9298"/>
<path fill-rule="evenodd" clip-rule="evenodd" d="M853 70H957C959.209 70 961 71.7909 961 74V196C961 198.209 959.209 200 957 200H853C850.791 200 849 198.209 849 196V74C849 71.7909 850.791 70 853 70ZM851 60C852.105 60 853 60.8954 853 62C853 63.1046 852.105 64 851 64C849.895 64 849 63.1046 849 62C849 60.8954 849.895 60 851 60ZM857 60C858.105 60 859 60.8954 859 62C859 63.1046 858.105 64 857 64C855.895 64 855 63.1046 855 62C855 60.8954 855.895 60 857 60ZM863 60C864.105 60 865 60.8954 865 62C865 63.1046 864.105 64 863 64C861.895 64 861 63.1046 861 62C861 60.8954 861.895 60 863 60Z" fill="#F6F8F9"/>
<rect x="851" y="72" width="27" height="126" rx="4" fill="#929AA0"/>
<rect x="881" y="86" width="78" height="8" rx="1" fill="#FF6F00"/>
<rect x="942" y="73" width="17" height="5" rx="2.5" fill="#9DA3A8"/>
<rect x="881" y="96" width="78" height="8" rx="1" fill="#8B9298"/>
<rect x="881" y="106" width="78" height="8" rx="1" fill="#8B9298"/>
<rect x="881" y="116" width="78" height="8" rx="1" fill="#8B9298"/>
<rect x="881" y="126" width="78" height="8" rx="1" fill="#8B9298"/>
<rect x="881" y="136" width="78" height="8" rx="1" fill="#8B9298"/>
<rect x="881" y="146" width="78" height="8" rx="1" fill="#8B9298"/>
<rect x="881" y="156" width="78" height="8" rx="1" fill="#8B9298"/>
<rect x="881" y="166" width="78" height="8" rx="1" fill="#8B9298"/>
<rect x="881" y="176" width="78" height="8" rx="1" fill="#8B9298"/>
<rect x="881" y="186" width="78" height="8" rx="1" fill="#8B9298"/>
<path d="M874.864 30.6846C874.787 31.7555 874.39 32.5986 873.675 33.2139C872.964 33.8291 872.025 34.1367 870.858 34.1367C869.582 34.1367 868.577 33.7083 867.844 32.8516C867.115 31.9902 866.75 30.8099 866.75 29.3105V28.7021C866.75 27.7451 866.919 26.902 867.256 26.1729C867.593 25.4437 868.074 24.8854 868.698 24.498C869.327 24.1061 870.056 23.9102 870.886 23.9102C872.034 23.9102 872.959 24.2178 873.661 24.833C874.363 25.4482 874.769 26.3118 874.878 27.4238H872.827C872.777 26.7812 872.597 26.3164 872.287 26.0293C871.982 25.7376 871.515 25.5918 870.886 25.5918C870.202 25.5918 869.689 25.8379 869.348 26.3301C869.01 26.8177 868.837 27.5765 868.828 28.6064V29.3584C868.828 30.4339 868.99 31.2201 869.313 31.7168C869.642 32.2135 870.157 32.4619 870.858 32.4619C871.492 32.4619 871.964 32.3184 872.273 32.0312C872.588 31.7396 872.768 31.2907 872.813 30.6846H874.864ZM875.773 30.2334C875.773 29.4997 875.915 28.8457 876.197 28.2715C876.48 27.6973 876.885 27.2529 877.414 26.9385C877.947 26.624 878.565 26.4668 879.267 26.4668C880.265 26.4668 881.078 26.7721 881.707 27.3828C882.34 27.9935 882.694 28.8229 882.767 29.8711L882.78 30.377C882.78 31.5117 882.464 32.4232 881.83 33.1113C881.197 33.7949 880.347 34.1367 879.28 34.1367C878.214 34.1367 877.362 33.7949 876.724 33.1113C876.09 32.4277 875.773 31.498 875.773 30.3223V30.2334ZM877.749 30.377C877.749 31.0788 877.881 31.6165 878.146 31.9902C878.41 32.3594 878.788 32.5439 879.28 32.5439C879.759 32.5439 880.132 32.3617 880.401 31.9971C880.67 31.6279 880.805 31.04 880.805 30.2334C880.805 29.5452 880.67 29.012 880.401 28.6338C880.132 28.2555 879.754 28.0664 879.267 28.0664C878.784 28.0664 878.41 28.2555 878.146 28.6338C877.881 29.0075 877.749 29.5885 877.749 30.377ZM885.815 26.6035L885.877 27.458C886.406 26.7972 887.114 26.4668 888.003 26.4668C888.787 26.4668 889.37 26.6969 889.753 27.1572C890.136 27.6175 890.332 28.3057 890.341 29.2217V34H888.365V29.2695C888.365 28.8503 888.274 28.5472 888.092 28.3604C887.91 28.1689 887.606 28.0732 887.183 28.0732C886.627 28.0732 886.21 28.3102 885.932 28.7842V34H883.956V26.6035H885.815ZM892.323 34V28.0527H891.223V26.6035H892.323V26.2617C892.332 25.332 892.617 24.6165 893.178 24.1152C893.743 23.6094 894.538 23.3564 895.563 23.3564C896.179 23.3564 896.926 23.4909 897.806 23.7598L897.519 25.3936C897.072 25.2614 896.726 25.1771 896.479 25.1406C896.233 25.0996 895.969 25.0791 895.687 25.0791C894.766 25.0791 894.306 25.487 894.306 26.3027V26.6035H895.762V28.0527H894.306V34H892.323ZM898.729 34H896.746V26.6035H898.729V34ZM900.075 30.2471C900.075 29.1123 900.344 28.1986 900.882 27.5059C901.424 26.8132 902.153 26.4668 903.069 26.4668C903.881 26.4668 904.512 26.7448 904.963 27.3008L905.045 26.6035H906.836V33.7539C906.836 34.401 906.688 34.9639 906.392 35.4424C906.1 35.9209 905.688 36.2855 905.154 36.5361C904.621 36.7868 903.997 36.9121 903.281 36.9121C902.739 36.9121 902.21 36.8027 901.695 36.584C901.18 36.3698 900.791 36.0918 900.526 35.75L901.401 34.5469C901.894 35.0983 902.491 35.374 903.192 35.374C903.716 35.374 904.124 35.2327 904.416 34.9502C904.708 34.6722 904.854 34.2757 904.854 33.7607V33.3643C904.398 33.8792 903.799 34.1367 903.056 34.1367C902.167 34.1367 901.447 33.7904 900.896 33.0977C900.349 32.4004 900.075 31.4775 900.075 30.3291V30.2471ZM902.051 30.3906C902.051 31.0605 902.185 31.5869 902.454 31.9697C902.723 32.348 903.092 32.5371 903.562 32.5371C904.163 32.5371 904.594 32.3115 904.854 31.8604V28.75C904.589 28.2988 904.163 28.0732 903.575 28.0732C903.101 28.0732 902.728 28.2669 902.454 28.6543C902.185 29.0417 902.051 29.6204 902.051 30.3906ZM915.654 31.5322L917.91 24.0469H920.193L916.728 34H914.588L911.136 24.0469H913.412L915.654 31.5322ZM923.092 34H921.109V26.6035H923.092V34ZM920.993 24.6895C920.993 24.3932 921.091 24.1494 921.287 23.958C921.488 23.7666 921.759 23.6709 922.101 23.6709C922.438 23.6709 922.707 23.7666 922.907 23.958C923.108 24.1494 923.208 24.3932 923.208 24.6895C923.208 24.9902 923.105 25.2363 922.9 25.4277C922.7 25.6191 922.433 25.7148 922.101 25.7148C921.768 25.7148 921.499 25.6191 921.294 25.4277C921.093 25.2363 920.993 24.9902 920.993 24.6895ZM928.13 34.1367C927.045 34.1367 926.161 33.804 925.478 33.1387C924.799 32.4733 924.459 31.5869 924.459 30.4795V30.2881C924.459 29.5452 924.603 28.8822 924.89 28.2988C925.177 27.7109 925.582 27.2598 926.106 26.9453C926.635 26.6263 927.237 26.4668 927.911 26.4668C928.923 26.4668 929.718 26.7858 930.297 27.4238C930.88 28.0618 931.172 28.9665 931.172 30.1377V30.9443H926.462C926.526 31.4274 926.717 31.8148 927.036 32.1064C927.36 32.3981 927.768 32.5439 928.26 32.5439C929.021 32.5439 929.616 32.2682 930.044 31.7168L931.015 32.8037C930.718 33.223 930.317 33.5511 929.812 33.7881C929.306 34.0205 928.745 34.1367 928.13 34.1367ZM927.904 28.0664C927.512 28.0664 927.193 28.1986 926.947 28.4629C926.706 28.7272 926.551 29.1055 926.482 29.5977H929.23V29.4404C929.221 29.0029 929.103 28.6657 928.875 28.4287C928.647 28.1872 928.324 28.0664 927.904 28.0664ZM938.732 31.3135L939.703 26.6035H941.61L939.724 34H938.069L936.668 29.3447L935.267 34H933.619L931.732 26.6035H933.64L934.604 31.3066L935.957 26.6035H937.386L938.732 31.3135ZM882.329 47.5322L884.585 40.0469H886.868L883.402 50H881.263L877.811 40.0469H880.087L882.329 47.5322ZM890.491 40.0469L893.048 47.2656L895.591 40.0469H898.284V50H896.227V47.2793L896.432 42.583L893.745 50H892.337L889.657 42.5898L889.862 47.2793V50H887.812V40.0469H890.491ZM907.718 50C907.627 49.8223 907.561 49.6012 907.52 49.3369C907.041 49.8701 906.419 50.1367 905.653 50.1367C904.929 50.1367 904.327 49.9271 903.849 49.5078C903.375 49.0885 903.138 48.5599 903.138 47.9219C903.138 47.138 903.427 46.5365 904.006 46.1172C904.589 45.6979 905.43 45.486 906.528 45.4814H907.438V45.0576C907.438 44.7158 907.349 44.4424 907.171 44.2373C906.998 44.0322 906.722 43.9297 906.344 43.9297C906.011 43.9297 905.749 44.0094 905.558 44.1689C905.371 44.3285 905.277 44.5472 905.277 44.8252H903.302C903.302 44.3968 903.434 44.0003 903.698 43.6357C903.963 43.2712 904.336 42.9863 904.819 42.7812C905.302 42.5716 905.845 42.4668 906.446 42.4668C907.358 42.4668 908.08 42.6969 908.613 43.1572C909.151 43.613 909.42 44.2555 909.42 45.085V48.291C909.424 48.9928 909.522 49.5238 909.714 49.8838V50H907.718ZM906.084 48.626C906.376 48.626 906.645 48.5622 906.891 48.4346C907.137 48.3024 907.319 48.127 907.438 47.9082V46.6367H906.699C905.71 46.6367 905.184 46.9785 905.12 47.6621L905.113 47.7783C905.113 48.0244 905.2 48.2272 905.373 48.3867C905.546 48.5462 905.783 48.626 906.084 48.626ZM915.094 44.4561C914.825 44.4196 914.588 44.4014 914.383 44.4014C913.635 44.4014 913.146 44.6543 912.913 45.1602V50H910.938V42.6035H912.804L912.858 43.4854C913.255 42.8063 913.804 42.4668 914.506 42.4668C914.725 42.4668 914.93 42.4964 915.121 42.5557L915.094 44.4561ZM919.318 50.1367C918.234 50.1367 917.35 49.804 916.666 49.1387C915.987 48.4733 915.647 47.5869 915.647 46.4795V46.2881C915.647 45.5452 915.791 44.8822 916.078 44.2988C916.365 43.7109 916.771 43.2598 917.295 42.9453C917.824 42.6263 918.425 42.4668 919.1 42.4668C920.111 42.4668 920.907 42.7858 921.485 43.4238C922.069 44.0618 922.36 44.9665 922.36 46.1377V46.9443H917.65C917.714 47.4274 917.906 47.8148 918.225 48.1064C918.548 48.3981 918.956 48.5439 919.448 48.5439C920.209 48.5439 920.804 48.2682 921.232 47.7168L922.203 48.8037C921.907 49.223 921.506 49.5511 921 49.7881C920.494 50.0205 919.934 50.1367 919.318 50.1367ZM919.093 44.0664C918.701 44.0664 918.382 44.1986 918.136 44.4629C917.894 44.7272 917.739 45.1055 917.671 45.5977H920.419V45.4404C920.41 45.0029 920.291 44.6657 920.063 44.4287C919.836 44.1872 919.512 44.0664 919.093 44.0664ZM927.774 50C927.683 49.8223 927.617 49.6012 927.576 49.3369C927.098 49.8701 926.476 50.1367 925.71 50.1367C924.985 50.1367 924.384 49.9271 923.905 49.5078C923.431 49.0885 923.194 48.5599 923.194 47.9219C923.194 47.138 923.484 46.5365 924.062 46.1172C924.646 45.6979 925.487 45.486 926.585 45.4814H927.494V45.0576C927.494 44.7158 927.405 44.4424 927.228 44.2373C927.054 44.0322 926.779 43.9297 926.4 43.9297C926.068 43.9297 925.806 44.0094 925.614 44.1689C925.427 44.3285 925.334 44.5472 925.334 44.8252H923.358C923.358 44.3968 923.491 44.0003 923.755 43.6357C924.019 43.2712 924.393 42.9863 924.876 42.7812C925.359 42.5716 925.901 42.4668 926.503 42.4668C927.414 42.4668 928.137 42.6969 928.67 43.1572C929.208 43.613 929.477 44.2555 929.477 45.085V48.291C929.481 48.9928 929.579 49.5238 929.771 49.8838V50H927.774ZM926.141 48.626C926.432 48.626 926.701 48.5622 926.947 48.4346C927.193 48.3024 927.376 48.127 927.494 47.9082V46.6367H926.756C925.767 46.6367 925.241 46.9785 925.177 47.6621L925.17 47.7783C925.17 48.0244 925.257 48.2272 925.43 48.3867C925.603 48.5462 925.84 48.626 926.141 48.626Z" fill="#454D58"/>
<rect x="845" y="281" width="120" height="150" rx="4" fill="#8B9298"/>
<path fill-rule="evenodd" clip-rule="evenodd" d="M853 297H957C959.209 297 961 298.791 961 301V423C961 425.209 959.209 427 957 427H853C850.791 427 849 425.209 849 423V301C849 298.791 850.791 297 853 297ZM851 287C852.105 287 853 287.895 853 289C853 290.105 852.105 291 851 291C849.895 291 849 290.105 849 289C849 287.895 849.895 287 851 287ZM857 287C858.105 287 859 287.895 859 289C859 290.105 858.105 291 857 291C855.895 291 855 290.105 855 289C855 287.895 855.895 287 857 287ZM863 287C864.105 287 865 287.895 865 289C865 290.105 864.105 291 863 291C861.895 291 861 290.105 861 289C861 287.895 861.895 287 863 287Z" fill="#F6F8F9"/>
<path d="M861.336 261V251.047H864.398C865.273 251.047 866.055 251.245 866.743 251.642C867.436 252.034 867.976 252.594 868.363 253.323C868.751 254.048 868.944 254.873 868.944 255.798V256.256C868.944 257.181 868.753 258.004 868.37 258.724C867.992 259.444 867.456 260.002 866.764 260.398C866.071 260.795 865.289 260.995 864.419 261H861.336ZM863.387 252.708V259.353H864.378C865.18 259.353 865.793 259.09 866.217 258.566C866.641 258.042 866.857 257.293 866.866 256.317V255.791C866.866 254.779 866.657 254.014 866.237 253.494C865.818 252.97 865.205 252.708 864.398 252.708H863.387ZM872.396 261H870.414V253.604H872.396V261ZM870.298 251.689C870.298 251.393 870.396 251.149 870.592 250.958C870.792 250.767 871.063 250.671 871.405 250.671C871.743 250.671 872.011 250.767 872.212 250.958C872.412 251.149 872.513 251.393 872.513 251.689C872.513 251.99 872.41 252.236 872.205 252.428C872.005 252.619 871.738 252.715 871.405 252.715C871.073 252.715 870.804 252.619 870.599 252.428C870.398 252.236 870.298 251.99 870.298 251.689ZM878.316 261C878.225 260.822 878.159 260.601 878.118 260.337C877.64 260.87 877.018 261.137 876.252 261.137C875.527 261.137 874.926 260.927 874.447 260.508C873.973 260.089 873.736 259.56 873.736 258.922C873.736 258.138 874.026 257.536 874.604 257.117C875.188 256.698 876.029 256.486 877.127 256.481H878.036V256.058C878.036 255.716 877.947 255.442 877.77 255.237C877.596 255.032 877.321 254.93 876.942 254.93C876.61 254.93 876.348 255.009 876.156 255.169C875.969 255.328 875.876 255.547 875.876 255.825H873.9C873.9 255.397 874.033 255 874.297 254.636C874.561 254.271 874.935 253.986 875.418 253.781C875.901 253.572 876.443 253.467 877.045 253.467C877.956 253.467 878.679 253.697 879.212 254.157C879.75 254.613 880.019 255.256 880.019 256.085V259.291C880.023 259.993 880.121 260.524 880.312 260.884V261H878.316ZM876.683 259.626C876.974 259.626 877.243 259.562 877.489 259.435C877.735 259.302 877.918 259.127 878.036 258.908V257.637H877.298C876.309 257.637 875.783 257.979 875.719 258.662L875.712 258.778C875.712 259.024 875.799 259.227 875.972 259.387C876.145 259.546 876.382 259.626 876.683 259.626ZM881.249 257.247C881.249 256.112 881.518 255.199 882.056 254.506C882.598 253.813 883.327 253.467 884.243 253.467C885.054 253.467 885.686 253.745 886.137 254.301L886.219 253.604H888.01V260.754C888.01 261.401 887.862 261.964 887.565 262.442C887.274 262.921 886.861 263.285 886.328 263.536C885.795 263.787 885.171 263.912 884.455 263.912C883.913 263.912 883.384 263.803 882.869 263.584C882.354 263.37 881.965 263.092 881.7 262.75L882.575 261.547C883.067 262.098 883.664 262.374 884.366 262.374C884.89 262.374 885.298 262.233 885.59 261.95C885.882 261.672 886.027 261.276 886.027 260.761V260.364C885.572 260.879 884.972 261.137 884.229 261.137C883.341 261.137 882.621 260.79 882.069 260.098C881.522 259.4 881.249 258.478 881.249 257.329V257.247ZM883.225 257.391C883.225 258.061 883.359 258.587 883.628 258.97C883.897 259.348 884.266 259.537 884.735 259.537C885.337 259.537 885.768 259.312 886.027 258.86V255.75C885.763 255.299 885.337 255.073 884.749 255.073C884.275 255.073 883.901 255.267 883.628 255.654C883.359 256.042 883.225 256.62 883.225 257.391ZM893.69 255.456C893.422 255.42 893.185 255.401 892.979 255.401C892.232 255.401 891.742 255.654 891.51 256.16V261H889.534V253.604H891.4L891.455 254.485C891.852 253.806 892.401 253.467 893.103 253.467C893.321 253.467 893.526 253.496 893.718 253.556L893.69 255.456ZM898.729 261C898.637 260.822 898.571 260.601 898.53 260.337C898.052 260.87 897.43 261.137 896.664 261.137C895.939 261.137 895.338 260.927 894.859 260.508C894.385 260.089 894.148 259.56 894.148 258.922C894.148 258.138 894.438 257.536 895.017 257.117C895.6 256.698 896.441 256.486 897.539 256.481H898.448V256.058C898.448 255.716 898.359 255.442 898.182 255.237C898.008 255.032 897.733 254.93 897.354 254.93C897.022 254.93 896.76 255.009 896.568 255.169C896.382 255.328 896.288 255.547 896.288 255.825H894.312C894.312 255.397 894.445 255 894.709 254.636C894.973 254.271 895.347 253.986 895.83 253.781C896.313 253.572 896.855 253.467 897.457 253.467C898.368 253.467 899.091 253.697 899.624 254.157C900.162 254.613 900.431 255.256 900.431 256.085V259.291C900.435 259.993 900.533 260.524 900.725 260.884V261H898.729ZM897.095 259.626C897.386 259.626 897.655 259.562 897.901 259.435C898.147 259.302 898.33 259.127 898.448 258.908V257.637H897.71C896.721 257.637 896.195 257.979 896.131 258.662L896.124 258.778C896.124 259.024 896.211 259.227 896.384 259.387C896.557 259.546 896.794 259.626 897.095 259.626ZM903.801 253.604L903.862 254.431C904.386 253.788 905.095 253.467 905.988 253.467C906.941 253.467 907.595 253.843 907.95 254.595C908.47 253.843 909.21 253.467 910.172 253.467C910.974 253.467 911.571 253.701 911.963 254.171C912.355 254.636 912.551 255.338 912.551 256.276V261H910.568V256.283C910.568 255.864 910.486 255.559 910.322 255.367C910.158 255.171 909.869 255.073 909.454 255.073C908.862 255.073 908.451 255.356 908.224 255.921L908.23 261H906.255V256.29C906.255 255.862 906.171 255.552 906.002 255.36C905.833 255.169 905.546 255.073 905.141 255.073C904.58 255.073 904.174 255.306 903.924 255.771V261H901.948V253.604H903.801ZM921.369 258.532L923.625 251.047H925.908L922.442 261H920.303L916.851 251.047H919.127L921.369 258.532ZM928.807 261H926.824V253.604H928.807V261ZM926.708 251.689C926.708 251.393 926.806 251.149 927.002 250.958C927.202 250.767 927.474 250.671 927.815 250.671C928.153 250.671 928.422 250.767 928.622 250.958C928.823 251.149 928.923 251.393 928.923 251.689C928.923 251.99 928.82 252.236 928.615 252.428C928.415 252.619 928.148 252.715 927.815 252.715C927.483 252.715 927.214 252.619 927.009 252.428C926.808 252.236 926.708 251.99 926.708 251.689ZM933.845 261.137C932.76 261.137 931.876 260.804 931.192 260.139C930.513 259.473 930.174 258.587 930.174 257.479V257.288C930.174 256.545 930.317 255.882 930.604 255.299C930.892 254.711 931.297 254.26 931.821 253.945C932.35 253.626 932.951 253.467 933.626 253.467C934.638 253.467 935.433 253.786 936.012 254.424C936.595 255.062 936.887 255.966 936.887 257.138V257.944H932.177C932.241 258.427 932.432 258.815 932.751 259.106C933.075 259.398 933.482 259.544 933.975 259.544C934.736 259.544 935.33 259.268 935.759 258.717L936.729 259.804C936.433 260.223 936.032 260.551 935.526 260.788C935.021 261.021 934.46 261.137 933.845 261.137ZM933.619 255.066C933.227 255.066 932.908 255.199 932.662 255.463C932.421 255.727 932.266 256.105 932.197 256.598H934.945V256.44C934.936 256.003 934.818 255.666 934.59 255.429C934.362 255.187 934.038 255.066 933.619 255.066ZM944.447 258.313L945.418 253.604H947.325L945.438 261H943.784L942.383 256.345L940.981 261H939.334L937.447 253.604H939.354L940.318 258.307L941.672 253.604H943.101L944.447 258.313Z" fill="#454D58"/>
<line x1="867.17" y1="324.794" x2="875.794" y2="369.83" stroke="#BAC7D2" stroke-width="2" stroke-linecap="round" stroke-linejoin="round"/>
<line x1="913.177" y1="323.403" x2="876.403" y2="370.823" stroke="#BAC7D2" stroke-width="2" stroke-linecap="round" stroke-linejoin="round"/>
<line x1="881.799" y1="340.167" x2="876.167" y2="370.201" stroke="#BAC7D2" stroke-width="2" stroke-linecap="round" stroke-linejoin="round"/>
<line x1="861.392" y1="350.25" x2="876.25" y2="371.608" stroke="#BAC7D2" stroke-width="2" stroke-linecap="round" stroke-linejoin="round"/>
<line x1="912.437" y1="357.297" x2="876.297" y2="371.563" stroke="#BAC7D2" stroke-width="2" stroke-linecap="round" stroke-linejoin="round"/>
<line x1="912" y1="372" x2="855" y2="372" stroke="#BAC7D2" stroke-width="2" stroke-linecap="round" stroke-linejoin="round"/>
<rect x="864" y="323" width="10" height="12" rx="1" fill="#BBBBBB"/>
<rect x="856" y="344" width="10" height="12" rx="1" fill="#BBBBBB"/>
<rect x="876" y="338" width="10" height="12" rx="1" fill="#BBBBBB"/>
<rect x="905" y="318" width="10" height="12" rx="1" fill="#BBBBBB"/>
<rect x="908" y="352" width="10" height="12" rx="1" fill="#BBBBBB"/>
<line x1="914.327" y1="389.489" x2="925.489" y2="413.673" stroke="#BAC7D2" stroke-width="2" stroke-linecap="round" stroke-linejoin="round"/>
<line x1="930.765" y1="392.19" x2="926.19" y2="413.235" stroke="#BAC7D2" stroke-width="2" stroke-linecap="round" stroke-linejoin="round"/>
<line x1="906.41" y1="398.886" x2="924.886" y2="414.59" stroke="#BAC7D2" stroke-width="2" stroke-linecap="round" stroke-linejoin="round"/>
<line x1="946.737" y1="400.39" x2="926.39" y2="414.263" stroke="#BAC7D2" stroke-width="2" stroke-linecap="round" stroke-linejoin="round"/>
<line x1="937" y1="415" x2="919" y2="415" stroke="#BAC7D2" stroke-width="2" stroke-linecap="round" stroke-linejoin="round"/>
<rect x="909" y="379" width="10" height="12" rx="1" fill="#BBBBBB"/>
<rect x="899" y="394" width="10" height="12" rx="1" fill="#BBBBBB"/>
<rect x="928" y="381" width="10" height="12" rx="1" fill="#BBBBBB"/>
<rect x="942" y="395" width="10" height="12" rx="1" fill="#BBBBBB"/>
<rect x="851" y="300" width="6" height="53" rx="3" fill="#929AA0"/>
<rect x="884" y="303" width="10" height="12" rx="1" fill="#FF6F00"/>
<path d="M621 382V258C621 252.477 616.523 248 611 248H524.516" stroke="#929AA0"/>
<path fill-rule="evenodd" clip-rule="evenodd" d="M526 245V251L523 248L526 245Z" fill="#929AA0"/>
<path d="M621 438V258C621 252.477 616.523 248 611 248H524.516" stroke="#929AA0"/>
<path fill-rule="evenodd" clip-rule="evenodd" d="M526 245V251L523 248L526 245Z" fill="#929AA0"/>
<path d="M621 431V554C621 559.523 616.523 564 611 564H502.516" stroke="#929AA0"/>
<path fill-rule="evenodd" clip-rule="evenodd" d="M504 567V561L501 564L504 567Z" fill="#929AA0"/>
<rect x="441" y="207" width="80" height="80" rx="4" fill="#E0E0E0" stroke="#7E8184" stroke-width="2"/>
<rect x="454" y="215" width="54" height="6" rx="1" fill="#8B9298"/>
<rect x="454" y="224" width="54" height="6" rx="1" fill="#8B9298"/>
<rect x="454" y="233" width="54" height="6" rx="1" fill="#8B9298"/>
<rect x="486" y="271" width="22" height="7" rx="1" fill="#7E8184"/>
<path d="M454.556 193.516H451.181V197.002H449.423V188.471H454.978V189.895H451.181V192.098H454.556V193.516ZM455.493 193.773C455.493 193.145 455.614 192.584 455.856 192.092C456.099 191.6 456.446 191.219 456.899 190.949C457.356 190.68 457.886 190.545 458.487 190.545C459.343 190.545 460.04 190.807 460.579 191.33C461.122 191.854 461.425 192.564 461.487 193.463L461.499 193.896C461.499 194.869 461.228 195.65 460.685 196.24C460.142 196.826 459.413 197.119 458.499 197.119C457.585 197.119 456.854 196.826 456.308 196.24C455.765 195.654 455.493 194.857 455.493 193.85V193.773ZM457.187 193.896C457.187 194.498 457.3 194.959 457.526 195.279C457.753 195.596 458.077 195.754 458.499 195.754C458.909 195.754 459.229 195.598 459.46 195.285C459.69 194.969 459.806 194.465 459.806 193.773C459.806 193.184 459.69 192.727 459.46 192.402C459.229 192.078 458.905 191.916 458.487 191.916C458.073 191.916 457.753 192.078 457.526 192.402C457.3 192.723 457.187 193.221 457.187 193.896ZM466.104 192.25C465.874 192.219 465.671 192.203 465.495 192.203C464.854 192.203 464.435 192.42 464.235 192.854V197.002H462.542V190.662H464.142L464.188 191.418C464.528 190.836 464.999 190.545 465.601 190.545C465.788 190.545 465.964 190.57 466.128 190.621L466.104 192.25ZM468.513 190.662L468.565 191.371C469.015 190.82 469.622 190.545 470.388 190.545C471.204 190.545 471.765 190.867 472.069 191.512C472.515 190.867 473.149 190.545 473.974 190.545C474.661 190.545 475.173 190.746 475.509 191.148C475.845 191.547 476.013 192.148 476.013 192.953V197.002H474.313V192.959C474.313 192.6 474.243 192.338 474.103 192.174C473.962 192.006 473.714 191.922 473.358 191.922C472.851 191.922 472.499 192.164 472.304 192.648L472.31 197.002H470.616V192.965C470.616 192.598 470.544 192.332 470.399 192.168C470.255 192.004 470.009 191.922 469.661 191.922C469.181 191.922 468.833 192.121 468.618 192.52V197.002H466.925V190.662H468.513ZM482.716 188.471L484.907 194.658L487.087 188.471H489.396V197.002H487.632V194.67L487.808 190.645L485.505 197.002H484.298L482.001 190.65L482.177 194.67V197.002H480.419V188.471H482.716ZM490.556 193.773C490.556 193.145 490.677 192.584 490.919 192.092C491.161 191.6 491.509 191.219 491.962 190.949C492.419 190.68 492.948 190.545 493.55 190.545C494.405 190.545 495.103 190.807 495.642 191.33C496.185 191.854 496.487 192.564 496.55 193.463L496.562 193.896C496.562 194.869 496.29 195.65 495.747 196.24C495.204 196.826 494.476 197.119 493.562 197.119C492.647 197.119 491.917 196.826 491.37 196.24C490.827 195.654 490.556 194.857 490.556 193.85V193.773ZM492.249 193.896C492.249 194.498 492.362 194.959 492.589 195.279C492.815 195.596 493.14 195.754 493.562 195.754C493.972 195.754 494.292 195.598 494.522 195.285C494.753 194.969 494.868 194.465 494.868 193.773C494.868 193.184 494.753 192.727 494.522 192.402C494.292 192.078 493.968 191.916 493.55 191.916C493.136 191.916 492.815 192.078 492.589 192.402C492.362 192.723 492.249 193.221 492.249 193.896ZM497.341 193.785C497.341 192.797 497.562 192.01 498.003 191.424C498.448 190.838 499.056 190.545 499.825 190.545C500.442 190.545 500.952 190.775 501.354 191.236V188.002H503.054V197.002H501.524L501.442 196.328C501.021 196.855 500.478 197.119 499.813 197.119C499.067 197.119 498.468 196.826 498.015 196.24C497.565 195.65 497.341 194.832 497.341 193.785ZM499.034 193.908C499.034 194.502 499.138 194.957 499.345 195.273C499.552 195.59 499.853 195.748 500.247 195.748C500.771 195.748 501.14 195.527 501.354 195.086V192.584C501.144 192.143 500.778 191.922 500.259 191.922C499.442 191.922 499.034 192.584 499.034 193.908ZM508.04 197.002C507.962 196.85 507.905 196.66 507.87 196.434C507.46 196.891 506.927 197.119 506.271 197.119C505.649 197.119 505.134 196.939 504.724 196.58C504.317 196.221 504.114 195.768 504.114 195.221C504.114 194.549 504.362 194.033 504.858 193.674C505.358 193.314 506.079 193.133 507.021 193.129H507.8V192.766C507.8 192.473 507.724 192.238 507.571 192.062C507.423 191.887 507.187 191.799 506.862 191.799C506.577 191.799 506.353 191.867 506.188 192.004C506.028 192.141 505.948 192.328 505.948 192.566H504.255C504.255 192.199 504.368 191.859 504.595 191.547C504.821 191.234 505.142 190.99 505.556 190.814C505.97 190.635 506.435 190.545 506.95 190.545C507.731 190.545 508.351 190.742 508.808 191.137C509.269 191.527 509.499 192.078 509.499 192.789V195.537C509.503 196.139 509.587 196.594 509.751 196.902V197.002H508.04ZM506.64 195.824C506.89 195.824 507.12 195.77 507.331 195.66C507.542 195.547 507.698 195.396 507.8 195.209V194.119H507.167C506.319 194.119 505.868 194.412 505.813 194.998L505.808 195.098C505.808 195.309 505.882 195.482 506.03 195.619C506.179 195.756 506.382 195.824 506.64 195.824ZM512.587 197.002H510.888V188.002H512.587V197.002Z" fill="#454D58"/>
<path d="M444.995 175V167.18H447.401C448.088 167.18 448.703 167.335 449.243 167.647C449.788 167.955 450.212 168.395 450.516 168.968C450.821 169.538 450.973 170.186 450.973 170.913V171.272C450.973 171.999 450.822 172.646 450.522 173.211C450.224 173.777 449.804 174.216 449.259 174.527C448.715 174.839 448.101 174.996 447.417 175H444.995ZM446.606 168.485V173.706H447.385C448.015 173.706 448.497 173.5 448.83 173.088C449.163 172.676 449.333 172.087 449.34 171.321V170.907C449.34 170.112 449.175 169.511 448.846 169.103C448.516 168.691 448.035 168.485 447.401 168.485H446.606ZM454.905 175.107C454.053 175.107 453.358 174.846 452.821 174.323C452.288 173.8 452.021 173.104 452.021 172.234V172.083C452.021 171.5 452.134 170.979 452.359 170.521C452.585 170.059 452.903 169.704 453.315 169.457C453.731 169.206 454.203 169.081 454.733 169.081C455.528 169.081 456.153 169.332 456.608 169.833C457.066 170.334 457.295 171.045 457.295 171.965V172.599H453.595C453.645 172.979 453.795 173.283 454.046 173.512C454.3 173.741 454.62 173.856 455.007 173.856C455.605 173.856 456.072 173.639 456.409 173.206L457.172 174.06C456.939 174.389 456.624 174.647 456.226 174.833C455.829 175.016 455.389 175.107 454.905 175.107ZM454.728 170.338C454.42 170.338 454.169 170.442 453.976 170.649C453.786 170.857 453.664 171.154 453.611 171.541H455.77V171.417C455.763 171.074 455.67 170.809 455.491 170.623C455.312 170.433 455.057 170.338 454.728 170.338ZM460.223 167.76V169.188H461.217V170.327H460.223V173.228C460.223 173.442 460.264 173.596 460.347 173.689C460.429 173.783 460.587 173.829 460.819 173.829C460.991 173.829 461.143 173.817 461.276 173.792V174.968C460.972 175.061 460.658 175.107 460.336 175.107C459.247 175.107 458.692 174.558 458.671 173.458V170.327H457.822V169.188H458.671V167.76H460.223ZM464.94 175.107C464.088 175.107 463.393 174.846 462.856 174.323C462.322 173.8 462.055 173.104 462.055 172.234V172.083C462.055 171.5 462.168 170.979 462.394 170.521C462.619 170.059 462.938 169.704 463.35 169.457C463.765 169.206 464.238 169.081 464.768 169.081C465.563 169.081 466.188 169.332 466.642 169.833C467.101 170.334 467.33 171.045 467.33 171.965V172.599H463.629C463.679 172.979 463.83 173.283 464.08 173.512C464.335 173.741 464.655 173.856 465.042 173.856C465.64 173.856 466.107 173.639 466.444 173.206L467.206 174.06C466.974 174.389 466.658 174.647 466.261 174.833C465.864 175.016 465.423 175.107 464.94 175.107ZM464.763 170.338C464.455 170.338 464.204 170.442 464.011 170.649C463.821 170.857 463.699 171.154 463.645 171.541H465.804V171.417C465.797 171.074 465.704 170.809 465.525 170.623C465.346 170.433 465.092 170.338 464.763 170.338ZM470.038 175H468.48V166.75H470.038V175ZM474.179 175.107C473.327 175.107 472.633 174.846 472.095 174.323C471.562 173.8 471.295 173.104 471.295 172.234V172.083C471.295 171.5 471.408 170.979 471.634 170.521C471.859 170.059 472.178 169.704 472.59 169.457C473.005 169.206 473.478 169.081 474.008 169.081C474.803 169.081 475.427 169.332 475.882 169.833C476.34 170.334 476.57 171.045 476.57 171.965V172.599H472.869C472.919 172.979 473.069 173.283 473.32 173.512C473.574 173.741 473.895 173.856 474.282 173.856C474.879 173.856 475.347 173.639 475.683 173.206L476.446 174.06C476.213 174.389 475.898 174.647 475.501 174.833C475.103 175.016 474.663 175.107 474.179 175.107ZM474.002 170.338C473.694 170.338 473.444 170.442 473.25 170.649C473.06 170.857 472.939 171.154 472.885 171.541H475.044V171.417C475.037 171.074 474.944 170.809 474.765 170.623C474.586 170.433 474.332 170.338 474.002 170.338ZM486.803 172.395C486.742 173.236 486.431 173.899 485.868 174.382C485.31 174.866 484.572 175.107 483.656 175.107C482.653 175.107 481.863 174.771 481.287 174.098C480.714 173.421 480.427 172.493 480.427 171.315V170.837C480.427 170.085 480.56 169.423 480.825 168.85C481.09 168.277 481.468 167.839 481.958 167.534C482.452 167.226 483.025 167.072 483.677 167.072C484.579 167.072 485.306 167.314 485.858 167.797C486.409 168.281 486.728 168.959 486.814 169.833H485.202C485.163 169.328 485.022 168.963 484.778 168.737C484.538 168.508 484.171 168.394 483.677 168.394C483.14 168.394 482.737 168.587 482.468 168.974C482.204 169.357 482.067 169.953 482.06 170.762V171.353C482.06 172.198 482.187 172.816 482.442 173.206C482.699 173.596 483.104 173.792 483.656 173.792C484.153 173.792 484.524 173.679 484.767 173.453C485.014 173.224 485.156 172.871 485.192 172.395H486.803ZM487.701 172.041C487.701 171.464 487.812 170.95 488.034 170.499C488.256 170.048 488.574 169.699 488.99 169.452C489.409 169.205 489.894 169.081 490.445 169.081C491.229 169.081 491.869 169.321 492.363 169.801C492.86 170.281 493.138 170.932 493.195 171.756L493.206 172.153C493.206 173.045 492.957 173.761 492.459 174.302C491.962 174.839 491.294 175.107 490.456 175.107C489.618 175.107 488.949 174.839 488.447 174.302C487.95 173.765 487.701 173.034 487.701 172.11V172.041ZM489.253 172.153C489.253 172.705 489.357 173.127 489.564 173.421C489.772 173.711 490.069 173.856 490.456 173.856C490.832 173.856 491.126 173.713 491.337 173.426C491.548 173.136 491.654 172.674 491.654 172.041C491.654 171.5 491.548 171.081 491.337 170.784C491.126 170.486 490.828 170.338 490.445 170.338C490.066 170.338 489.772 170.486 489.564 170.784C489.357 171.077 489.253 171.534 489.253 172.153ZM495.774 169.188L495.822 169.86C496.238 169.341 496.795 169.081 497.493 169.081C498.109 169.081 498.567 169.262 498.868 169.624C499.169 169.985 499.323 170.526 499.33 171.246V175H497.778V171.283C497.778 170.954 497.706 170.716 497.563 170.569C497.419 170.418 497.181 170.343 496.848 170.343C496.411 170.343 496.084 170.529 495.865 170.902V175H494.313V169.188H495.774ZM501.071 175V170.327H500.206V169.188H501.071V168.92C501.078 168.189 501.302 167.627 501.742 167.233C502.186 166.836 502.811 166.637 503.617 166.637C504.1 166.637 504.687 166.743 505.378 166.954L505.153 168.238C504.802 168.134 504.53 168.068 504.336 168.039C504.143 168.007 503.935 167.991 503.713 167.991C502.99 167.991 502.628 168.311 502.628 168.952V169.188H503.772V170.327H502.628V175H501.071ZM506.103 175H504.546V169.188H506.103V175ZM510.836 170.644C510.625 170.615 510.439 170.601 510.278 170.601C509.69 170.601 509.305 170.8 509.123 171.197V175H507.57V169.188H509.037L509.08 169.881C509.391 169.348 509.823 169.081 510.374 169.081C510.546 169.081 510.707 169.104 510.858 169.151L510.836 170.644ZM513.227 169.188L513.275 169.838C513.687 169.333 514.244 169.081 514.946 169.081C515.694 169.081 516.208 169.376 516.487 169.967C516.895 169.376 517.477 169.081 518.233 169.081C518.863 169.081 519.332 169.265 519.64 169.634C519.948 170 520.102 170.551 520.102 171.289V175H518.544V171.294C518.544 170.965 518.48 170.725 518.351 170.574C518.222 170.42 517.995 170.343 517.669 170.343C517.203 170.343 516.881 170.565 516.702 171.009L516.707 175H515.155V171.299C515.155 170.963 515.089 170.719 514.956 170.569C514.824 170.418 514.598 170.343 514.28 170.343C513.839 170.343 513.521 170.526 513.324 170.891V175H511.771V169.188H513.227Z" fill="#333333"/>
<path d="M591.682 214.703L593.31 211.18H595.072L592.504 216.164V219H590.866V216.164L588.299 211.18H590.066L591.682 214.703ZM598.188 219.107C597.335 219.107 596.641 218.846 596.104 218.323C595.57 217.8 595.303 217.104 595.303 216.234V216.083C595.303 215.5 595.416 214.979 595.642 214.521C595.867 214.059 596.186 213.704 596.598 213.457C597.013 213.206 597.486 213.081 598.016 213.081C598.811 213.081 599.435 213.332 599.89 213.833C600.348 214.334 600.578 215.045 600.578 215.965V216.599H596.877C596.927 216.979 597.077 217.283 597.328 217.512C597.582 217.741 597.903 217.856 598.29 217.856C598.888 217.856 599.355 217.639 599.691 217.206L600.454 218.06C600.221 218.389 599.906 218.647 599.509 218.833C599.111 219.016 598.671 219.107 598.188 219.107ZM598.01 214.338C597.702 214.338 597.452 214.442 597.258 214.649C597.069 214.857 596.947 215.154 596.893 215.541H599.052V215.417C599.045 215.074 598.952 214.809 598.773 214.623C598.594 214.433 598.34 214.338 598.01 214.338ZM604.795 217.394C604.795 217.204 604.7 217.056 604.51 216.948C604.324 216.837 604.023 216.739 603.608 216.653C602.225 216.363 601.534 215.776 601.534 214.891C601.534 214.375 601.747 213.946 602.174 213.602C602.603 213.255 603.164 213.081 603.855 213.081C604.592 213.081 605.181 213.255 605.622 213.602C606.066 213.949 606.288 214.401 606.288 214.956H604.736C604.736 214.734 604.664 214.551 604.521 214.408C604.378 214.261 604.154 214.188 603.849 214.188C603.588 214.188 603.386 214.247 603.242 214.365C603.099 214.483 603.028 214.633 603.028 214.816C603.028 214.988 603.108 215.127 603.269 215.235C603.434 215.339 603.71 215.43 604.096 215.509C604.483 215.584 604.809 215.67 605.074 215.767C605.894 216.067 606.304 216.588 606.304 217.33C606.304 217.86 606.077 218.289 605.622 218.619C605.167 218.944 604.58 219.107 603.86 219.107C603.373 219.107 602.94 219.021 602.56 218.85C602.184 218.674 601.889 218.436 601.674 218.135C601.459 217.831 601.352 217.503 601.352 217.152H602.823C602.838 217.428 602.94 217.639 603.13 217.786C603.319 217.933 603.574 218.006 603.892 218.006C604.19 218.006 604.413 217.951 604.564 217.84C604.718 217.725 604.795 217.577 604.795 217.394Z" fill="#333333"/>
<path d="M256.765 251.5H437.261" stroke="#929AA0" stroke-linecap="square"/>
<path fill-rule="evenodd" clip-rule="evenodd" d="M258.5 254C259.881 254 261 252.881 261 251.5C261 250.119 259.881 249 258.5 249C257.119 249 256 250.119 256 251.5C256 252.881 257.119 254 258.5 254Z" fill="#645F5F" stroke="#929AA0"/>
<path fill-rule="evenodd" clip-rule="evenodd" d="M439 251.5L436 254V249L439 251.5Z" fill="#929AA0"/>
<path d="M521.765 225.5L702.261 225.5" stroke="#929AA0" stroke-linecap="square"/>
<path fill-rule="evenodd" clip-rule="evenodd" d="M523.5 228C524.881 228 526 226.881 526 225.5C526 224.119 524.881 223 523.5 223C522.119 223 521 224.119 521 225.5C521 226.881 522.119 228 523.5 228Z" fill="#645F5F" stroke="#929AA0"/>
<path d="M842 127.5L731 127.5C725.477 127.5 721 131.977 721 137.5V312.5C721 318.023 725.477 322.5 731 322.5H842" stroke="#929AA0"/>
<path d="M721.519 225.5H660.996" stroke="#929AA0"/>
<path fill-rule="evenodd" clip-rule="evenodd" d="M840 130.5V124.5L843 127.5L840 130.5Z" fill="#929AA0"/>
<path fill-rule="evenodd" clip-rule="evenodd" d="M840 325.5V319.5L843 322.5L840 325.5Z" fill="#929AA0"/>
<path d="M454.473 310H452.861L449.725 304.854V310H448.113V302.18H449.725L452.867 307.336V302.18H454.473V310ZM455.72 307.041C455.72 306.464 455.831 305.95 456.053 305.499C456.275 305.048 456.593 304.699 457.009 304.452C457.428 304.205 457.913 304.081 458.464 304.081C459.248 304.081 459.888 304.321 460.382 304.801C460.879 305.281 461.157 305.932 461.214 306.756L461.225 307.153C461.225 308.045 460.976 308.761 460.478 309.302C459.981 309.839 459.313 310.107 458.475 310.107C457.637 310.107 456.967 309.839 456.466 309.302C455.968 308.765 455.72 308.034 455.72 307.11V307.041ZM457.272 307.153C457.272 307.705 457.376 308.127 457.583 308.421C457.791 308.711 458.088 308.856 458.475 308.856C458.851 308.856 459.145 308.713 459.356 308.426C459.567 308.136 459.673 307.674 459.673 307.041C459.673 306.5 459.567 306.081 459.356 305.784C459.145 305.486 458.847 305.338 458.464 305.338C458.085 305.338 457.791 305.486 457.583 305.784C457.376 306.077 457.272 306.534 457.272 307.153Z" fill="#333333"/>
<path d="M476 287V313C476 318.523 471.523 323 466 323H260" stroke="#929AA0"/>
<path fill-rule="evenodd" clip-rule="evenodd" d="M261 326V320L258 323L261 326Z" fill="#929AA0"/>
<path d="M356 323V467C356 472.523 351.523 477 346 477H257" stroke="#929AA0"/>
<path fill-rule="evenodd" clip-rule="evenodd" d="M258 480V474L255 477L258 480Z" fill="#929AA0"/>
</svg>
