<svg width="889" height="309" viewBox="0 0 889 309" fill="none" xmlns="http://www.w3.org/2000/svg">
<rect x="119" y="41" width="120" height="150" rx="4" fill="#828282"/>
<path fill-rule="evenodd" clip-rule="evenodd" d="M127 57H231C233.209 57 235 58.7909 235 61V183C235 185.209 233.209 187 231 187H127C124.791 187 123 185.209 123 183V61C123 58.7909 124.791 57 127 57ZM125 47C126.105 47 127 47.8954 127 49C127 50.1046 126.105 51 125 51C123.895 51 123 50.1046 123 49C123 47.8954 123.895 47 125 47ZM131 47C132.105 47 133 47.8954 133 49C133 50.1046 132.105 51 131 51C129.895 51 129 50.1046 129 49C129 47.8954 129.895 47 131 47ZM137 47C138.105 47 139 47.8954 139 49C139 50.1046 138.105 51 137 51C135.895 51 135 50.1046 135 49C135 47.8954 135.895 47 137 47Z" fill="#F6F8F9"/>
<path d="M135.336 21V11.0469H138.398C139.273 11.0469 140.055 11.2451 140.743 11.6416C141.436 12.0335 141.976 12.5941 142.363 13.3232C142.751 14.0479 142.944 14.8727 142.944 15.7979V16.2559C142.944 17.181 142.753 18.0036 142.37 18.7236C141.992 19.4437 141.456 20.002 140.764 20.3984C140.071 20.7949 139.289 20.9954 138.419 21H135.336ZM137.387 12.708V19.3525H138.378C139.18 19.3525 139.793 19.0905 140.217 18.5664C140.641 18.0423 140.857 17.2926 140.866 16.3174V15.791C140.866 14.7793 140.657 14.0137 140.237 13.4941C139.818 12.9701 139.205 12.708 138.398 12.708H137.387ZM146.396 21H144.414V13.6035H146.396V21ZM144.298 11.6895C144.298 11.3932 144.396 11.1494 144.592 10.958C144.792 10.7666 145.063 10.6709 145.405 10.6709C145.743 10.6709 146.011 10.7666 146.212 10.958C146.412 11.1494 146.513 11.3932 146.513 11.6895C146.513 11.9902 146.41 12.2363 146.205 12.4277C146.005 12.6191 145.738 12.7148 145.405 12.7148C145.073 12.7148 144.804 12.6191 144.599 12.4277C144.398 12.2363 144.298 11.9902 144.298 11.6895ZM152.316 21C152.225 20.8223 152.159 20.6012 152.118 20.3369C151.64 20.8701 151.018 21.1367 150.252 21.1367C149.527 21.1367 148.926 20.9271 148.447 20.5078C147.973 20.0885 147.736 19.5599 147.736 18.9219C147.736 18.138 148.026 17.5365 148.604 17.1172C149.188 16.6979 150.029 16.486 151.127 16.4814H152.036V16.0576C152.036 15.7158 151.947 15.4424 151.77 15.2373C151.596 15.0322 151.321 14.9297 150.942 14.9297C150.61 14.9297 150.348 15.0094 150.156 15.1689C149.969 15.3285 149.876 15.5472 149.876 15.8252H147.9C147.9 15.3968 148.033 15.0003 148.297 14.6357C148.561 14.2712 148.935 13.9863 149.418 13.7812C149.901 13.5716 150.443 13.4668 151.045 13.4668C151.956 13.4668 152.679 13.6969 153.212 14.1572C153.75 14.613 154.019 15.2555 154.019 16.085V19.291C154.023 19.9928 154.121 20.5238 154.312 20.8838V21H152.316ZM150.683 19.626C150.974 19.626 151.243 19.5622 151.489 19.4346C151.735 19.3024 151.918 19.127 152.036 18.9082V17.6367H151.298C150.309 17.6367 149.783 17.9785 149.719 18.6621L149.712 18.7783C149.712 19.0244 149.799 19.2272 149.972 19.3867C150.145 19.5462 150.382 19.626 150.683 19.626ZM155.249 17.2471C155.249 16.1123 155.518 15.1986 156.056 14.5059C156.598 13.8132 157.327 13.4668 158.243 13.4668C159.054 13.4668 159.686 13.7448 160.137 14.3008L160.219 13.6035H162.01V20.7539C162.01 21.401 161.862 21.9639 161.565 22.4424C161.274 22.9209 160.861 23.2855 160.328 23.5361C159.795 23.7868 159.171 23.9121 158.455 23.9121C157.913 23.9121 157.384 23.8027 156.869 23.584C156.354 23.3698 155.965 23.0918 155.7 22.75L156.575 21.5469C157.067 22.0983 157.664 22.374 158.366 22.374C158.89 22.374 159.298 22.2327 159.59 21.9502C159.882 21.6722 160.027 21.2757 160.027 20.7607V20.3643C159.572 20.8792 158.972 21.1367 158.229 21.1367C157.341 21.1367 156.621 20.7904 156.069 20.0977C155.522 19.4004 155.249 18.4775 155.249 17.3291V17.2471ZM157.225 17.3906C157.225 18.0605 157.359 18.5869 157.628 18.9697C157.897 19.348 158.266 19.5371 158.735 19.5371C159.337 19.5371 159.768 19.3115 160.027 18.8604V15.75C159.763 15.2988 159.337 15.0732 158.749 15.0732C158.275 15.0732 157.901 15.2669 157.628 15.6543C157.359 16.0417 157.225 16.6204 157.225 17.3906ZM167.69 15.4561C167.422 15.4196 167.185 15.4014 166.979 15.4014C166.232 15.4014 165.742 15.6543 165.51 16.1602V21H163.534V13.6035H165.4L165.455 14.4854C165.852 13.8063 166.401 13.4668 167.103 13.4668C167.321 13.4668 167.526 13.4964 167.718 13.5557L167.69 15.4561ZM172.729 21C172.637 20.8223 172.571 20.6012 172.53 20.3369C172.052 20.8701 171.43 21.1367 170.664 21.1367C169.939 21.1367 169.338 20.9271 168.859 20.5078C168.385 20.0885 168.148 19.5599 168.148 18.9219C168.148 18.138 168.438 17.5365 169.017 17.1172C169.6 16.6979 170.441 16.486 171.539 16.4814H172.448V16.0576C172.448 15.7158 172.359 15.4424 172.182 15.2373C172.008 15.0322 171.733 14.9297 171.354 14.9297C171.022 14.9297 170.76 15.0094 170.568 15.1689C170.382 15.3285 170.288 15.5472 170.288 15.8252H168.312C168.312 15.3968 168.445 15.0003 168.709 14.6357C168.973 14.2712 169.347 13.9863 169.83 13.7812C170.313 13.5716 170.855 13.4668 171.457 13.4668C172.368 13.4668 173.091 13.6969 173.624 14.1572C174.162 14.613 174.431 15.2555 174.431 16.085V19.291C174.435 19.9928 174.533 20.5238 174.725 20.8838V21H172.729ZM171.095 19.626C171.386 19.626 171.655 19.5622 171.901 19.4346C172.147 19.3024 172.33 19.127 172.448 18.9082V17.6367H171.71C170.721 17.6367 170.195 17.9785 170.131 18.6621L170.124 18.7783C170.124 19.0244 170.211 19.2272 170.384 19.3867C170.557 19.5462 170.794 19.626 171.095 19.626ZM177.801 13.6035L177.862 14.4307C178.386 13.7881 179.095 13.4668 179.988 13.4668C180.941 13.4668 181.595 13.8428 181.95 14.5947C182.47 13.8428 183.21 13.4668 184.172 13.4668C184.974 13.4668 185.571 13.7015 185.963 14.1709C186.355 14.6357 186.551 15.3376 186.551 16.2764V21H184.568V16.2832C184.568 15.8639 184.486 15.5586 184.322 15.3672C184.158 15.1712 183.869 15.0732 183.454 15.0732C182.862 15.0732 182.451 15.3558 182.224 15.9209L182.23 21H180.255V16.29C180.255 15.8617 180.171 15.5518 180.002 15.3604C179.833 15.1689 179.546 15.0732 179.141 15.0732C178.58 15.0732 178.174 15.3057 177.924 15.7705V21H175.948V13.6035H177.801ZM195.369 18.5322L197.625 11.0469H199.908L196.442 21H194.303L190.851 11.0469H193.127L195.369 18.5322ZM202.807 21H200.824V13.6035H202.807V21ZM200.708 11.6895C200.708 11.3932 200.806 11.1494 201.002 10.958C201.202 10.7666 201.474 10.6709 201.815 10.6709C202.153 10.6709 202.422 10.7666 202.622 10.958C202.823 11.1494 202.923 11.3932 202.923 11.6895C202.923 11.9902 202.82 12.2363 202.615 12.4277C202.415 12.6191 202.148 12.7148 201.815 12.7148C201.483 12.7148 201.214 12.6191 201.009 12.4277C200.808 12.2363 200.708 11.9902 200.708 11.6895ZM207.845 21.1367C206.76 21.1367 205.876 20.804 205.192 20.1387C204.513 19.4733 204.174 18.5869 204.174 17.4795V17.2881C204.174 16.5452 204.317 15.8822 204.604 15.2988C204.892 14.7109 205.297 14.2598 205.821 13.9453C206.35 13.6263 206.951 13.4668 207.626 13.4668C208.638 13.4668 209.433 13.7858 210.012 14.4238C210.595 15.0618 210.887 15.9665 210.887 17.1377V17.9443H206.177C206.241 18.4274 206.432 18.8148 206.751 19.1064C207.075 19.3981 207.482 19.5439 207.975 19.5439C208.736 19.5439 209.33 19.2682 209.759 18.7168L210.729 19.8037C210.433 20.223 210.032 20.5511 209.526 20.7881C209.021 21.0205 208.46 21.1367 207.845 21.1367ZM207.619 15.0664C207.227 15.0664 206.908 15.1986 206.662 15.4629C206.421 15.7272 206.266 16.1055 206.197 16.5977H208.945V16.4404C208.936 16.0029 208.818 15.6657 208.59 15.4287C208.362 15.1872 208.038 15.0664 207.619 15.0664ZM218.447 18.3135L219.418 13.6035H221.325L219.438 21H217.784L216.383 16.3447L214.981 21H213.334L211.447 13.6035H213.354L214.318 18.3066L215.672 13.6035H217.101L218.447 18.3135Z" fill="#454D58"/>
<line x1="141.17" y1="84.7941" x2="149.794" y2="129.83" stroke="#F2F2F2" stroke-width="2" stroke-linecap="round" stroke-linejoin="round"/>
<line x1="187.177" y1="83.403" x2="150.403" y2="130.823" stroke="#F2F2F2" stroke-width="2" stroke-linecap="round" stroke-linejoin="round"/>
<line x1="155.799" y1="100.167" x2="150.167" y2="130.201" stroke="#F2F2F2" stroke-width="2" stroke-linecap="round" stroke-linejoin="round"/>
<line x1="135.392" y1="110.25" x2="150.25" y2="131.608" stroke="#F2F2F2" stroke-width="2" stroke-linecap="round" stroke-linejoin="round"/>
<line x1="186.437" y1="117.297" x2="150.297" y2="131.563" stroke="#F2F2F2" stroke-width="2" stroke-linecap="round" stroke-linejoin="round"/>
<line x1="186" y1="132" x2="129" y2="132" stroke="#F2F2F2" stroke-width="2" stroke-linecap="round" stroke-linejoin="round"/>
<rect x="138" y="83" width="10" height="12" rx="1" fill="#E0E0E0"/>
<rect x="130" y="104" width="10" height="12" rx="1" fill="#E0E0E0"/>
<rect x="150" y="98" width="10" height="12" rx="1" fill="#E0E0E0"/>
<rect x="179" y="78" width="10" height="12" rx="1" fill="#E0E0E0"/>
<rect x="182" y="112" width="10" height="12" rx="1" fill="#E0E0E0"/>
<line x1="188.327" y1="149.489" x2="199.489" y2="173.673" stroke="#F2F2F2" stroke-width="2" stroke-linecap="round" stroke-linejoin="round"/>
<line x1="204.765" y1="152.19" x2="200.19" y2="173.235" stroke="#F2F2F2" stroke-width="2" stroke-linecap="round" stroke-linejoin="round"/>
<line x1="180.41" y1="158.886" x2="198.886" y2="174.59" stroke="#F2F2F2" stroke-width="2" stroke-linecap="round" stroke-linejoin="round"/>
<line x1="220.737" y1="160.39" x2="200.39" y2="174.263" stroke="#F2F2F2" stroke-width="2" stroke-linecap="round" stroke-linejoin="round"/>
<line x1="211" y1="175" x2="193" y2="175" stroke="#F2F2F2" stroke-width="2" stroke-linecap="round" stroke-linejoin="round"/>
<rect x="183" y="139" width="10" height="12" rx="1" fill="#E0E0E0"/>
<rect x="173" y="154" width="10" height="12" rx="1" fill="#E0E0E0"/>
<rect x="202" y="141" width="10" height="12" rx="1" fill="#E0E0E0"/>
<rect x="216" y="155" width="10" height="12" rx="1" fill="#E0E0E0"/>
<rect x="125" y="60" width="6" height="53" rx="3" fill="#828282"/>
<rect x="158" y="63" width="10" height="12" rx="1" fill="#E0E0E0"/>
<rect x="735" y="35" width="120" height="150" rx="4" fill="#828282"/>
<path fill-rule="evenodd" clip-rule="evenodd" d="M743 51H847C849.209 51 851 52.7909 851 55V177C851 179.209 849.209 181 847 181H743C740.791 181 739 179.209 739 177V55C739 52.7909 740.791 51 743 51ZM741 41C742.105 41 743 41.8954 743 43C743 44.1046 742.105 45 741 45C739.895 45 739 44.1046 739 43C739 41.8954 739.895 41 741 41ZM747 41C748.105 41 749 41.8954 749 43C749 44.1046 748.105 45 747 45C745.895 45 745 44.1046 745 43C745 41.8954 745.895 41 747 41ZM753 41C754.105 41 755 41.8954 755 43C755 44.1046 754.105 45 753 45C751.895 45 751 44.1046 751 43C751 41.8954 751.895 41 753 41Z" fill="#F6F8F9"/>
<path d="M751.336 15V5.04688H754.398C755.273 5.04688 756.055 5.24512 756.743 5.6416C757.436 6.03353 757.976 6.59408 758.363 7.32324C758.751 8.04785 758.944 8.87272 758.944 9.79785V10.2559C758.944 11.181 758.753 12.0036 758.37 12.7236C757.992 13.4437 757.456 14.002 756.764 14.3984C756.071 14.7949 755.289 14.9954 754.419 15H751.336ZM753.387 6.70801V13.3525H754.378C755.18 13.3525 755.793 13.0905 756.217 12.5664C756.641 12.0423 756.857 11.2926 756.866 10.3174V9.79102C756.866 8.7793 756.657 8.01367 756.237 7.49414C755.818 6.97005 755.205 6.70801 754.398 6.70801H753.387ZM762.396 15H760.414V7.60352H762.396V15ZM760.298 5.68945C760.298 5.39323 760.396 5.14941 760.592 4.95801C760.792 4.7666 761.063 4.6709 761.405 4.6709C761.743 4.6709 762.011 4.7666 762.212 4.95801C762.412 5.14941 762.513 5.39323 762.513 5.68945C762.513 5.99023 762.41 6.23633 762.205 6.42773C762.005 6.61914 761.738 6.71484 761.405 6.71484C761.073 6.71484 760.804 6.61914 760.599 6.42773C760.398 6.23633 760.298 5.99023 760.298 5.68945ZM768.316 15C768.225 14.8223 768.159 14.6012 768.118 14.3369C767.64 14.8701 767.018 15.1367 766.252 15.1367C765.527 15.1367 764.926 14.9271 764.447 14.5078C763.973 14.0885 763.736 13.5599 763.736 12.9219C763.736 12.138 764.026 11.5365 764.604 11.1172C765.188 10.6979 766.029 10.486 767.127 10.4814H768.036V10.0576C768.036 9.71582 767.947 9.44238 767.77 9.2373C767.596 9.03223 767.321 8.92969 766.942 8.92969C766.61 8.92969 766.348 9.00944 766.156 9.16895C765.969 9.32845 765.876 9.5472 765.876 9.8252H763.9C763.9 9.39681 764.033 9.00033 764.297 8.63574C764.561 8.27116 764.935 7.98633 765.418 7.78125C765.901 7.57161 766.443 7.4668 767.045 7.4668C767.956 7.4668 768.679 7.69694 769.212 8.15723C769.75 8.61296 770.019 9.25553 770.019 10.085V13.291C770.023 13.9928 770.121 14.5238 770.312 14.8838V15H768.316ZM766.683 13.626C766.974 13.626 767.243 13.5622 767.489 13.4346C767.735 13.3024 767.918 13.127 768.036 12.9082V11.6367H767.298C766.309 11.6367 765.783 11.9785 765.719 12.6621L765.712 12.7783C765.712 13.0244 765.799 13.2272 765.972 13.3867C766.145 13.5462 766.382 13.626 766.683 13.626ZM771.249 11.2471C771.249 10.1123 771.518 9.19857 772.056 8.50586C772.598 7.81315 773.327 7.4668 774.243 7.4668C775.054 7.4668 775.686 7.74479 776.137 8.30078L776.219 7.60352H778.01V14.7539C778.01 15.401 777.862 15.9639 777.565 16.4424C777.274 16.9209 776.861 17.2855 776.328 17.5361C775.795 17.7868 775.171 17.9121 774.455 17.9121C773.913 17.9121 773.384 17.8027 772.869 17.584C772.354 17.3698 771.965 17.0918 771.7 16.75L772.575 15.5469C773.067 16.0983 773.664 16.374 774.366 16.374C774.89 16.374 775.298 16.2327 775.59 15.9502C775.882 15.6722 776.027 15.2757 776.027 14.7607V14.3643C775.572 14.8792 774.972 15.1367 774.229 15.1367C773.341 15.1367 772.621 14.7904 772.069 14.0977C771.522 13.4004 771.249 12.4775 771.249 11.3291V11.2471ZM773.225 11.3906C773.225 12.0605 773.359 12.5869 773.628 12.9697C773.897 13.348 774.266 13.5371 774.735 13.5371C775.337 13.5371 775.768 13.3115 776.027 12.8604V9.75C775.763 9.29883 775.337 9.07324 774.749 9.07324C774.275 9.07324 773.901 9.26693 773.628 9.6543C773.359 10.0417 773.225 10.6204 773.225 11.3906ZM783.69 9.45605C783.422 9.4196 783.185 9.40137 782.979 9.40137C782.232 9.40137 781.742 9.6543 781.51 10.1602V15H779.534V7.60352H781.4L781.455 8.48535C781.852 7.80632 782.401 7.4668 783.103 7.4668C783.321 7.4668 783.526 7.49642 783.718 7.55566L783.69 9.45605ZM788.729 15C788.637 14.8223 788.571 14.6012 788.53 14.3369C788.052 14.8701 787.43 15.1367 786.664 15.1367C785.939 15.1367 785.338 14.9271 784.859 14.5078C784.385 14.0885 784.148 13.5599 784.148 12.9219C784.148 12.138 784.438 11.5365 785.017 11.1172C785.6 10.6979 786.441 10.486 787.539 10.4814H788.448V10.0576C788.448 9.71582 788.359 9.44238 788.182 9.2373C788.008 9.03223 787.733 8.92969 787.354 8.92969C787.022 8.92969 786.76 9.00944 786.568 9.16895C786.382 9.32845 786.288 9.5472 786.288 9.8252H784.312C784.312 9.39681 784.445 9.00033 784.709 8.63574C784.973 8.27116 785.347 7.98633 785.83 7.78125C786.313 7.57161 786.855 7.4668 787.457 7.4668C788.368 7.4668 789.091 7.69694 789.624 8.15723C790.162 8.61296 790.431 9.25553 790.431 10.085V13.291C790.435 13.9928 790.533 14.5238 790.725 14.8838V15H788.729ZM787.095 13.626C787.386 13.626 787.655 13.5622 787.901 13.4346C788.147 13.3024 788.33 13.127 788.448 12.9082V11.6367H787.71C786.721 11.6367 786.195 11.9785 786.131 12.6621L786.124 12.7783C786.124 13.0244 786.211 13.2272 786.384 13.3867C786.557 13.5462 786.794 13.626 787.095 13.626ZM793.801 7.60352L793.862 8.43066C794.386 7.78809 795.095 7.4668 795.988 7.4668C796.941 7.4668 797.595 7.84277 797.95 8.59473C798.47 7.84277 799.21 7.4668 800.172 7.4668C800.974 7.4668 801.571 7.7015 801.963 8.1709C802.355 8.63574 802.551 9.33757 802.551 10.2764V15H800.568V10.2832C800.568 9.86393 800.486 9.55859 800.322 9.36719C800.158 9.17122 799.869 9.07324 799.454 9.07324C798.862 9.07324 798.451 9.35579 798.224 9.9209L798.23 15H796.255V10.29C796.255 9.86165 796.171 9.55176 796.002 9.36035C795.833 9.16895 795.546 9.07324 795.141 9.07324C794.58 9.07324 794.174 9.30566 793.924 9.77051V15H791.948V7.60352H793.801ZM811.369 12.5322L813.625 5.04688H815.908L812.442 15H810.303L806.851 5.04688H809.127L811.369 12.5322ZM818.807 15H816.824V7.60352H818.807V15ZM816.708 5.68945C816.708 5.39323 816.806 5.14941 817.002 4.95801C817.202 4.7666 817.474 4.6709 817.815 4.6709C818.153 4.6709 818.422 4.7666 818.622 4.95801C818.823 5.14941 818.923 5.39323 818.923 5.68945C818.923 5.99023 818.82 6.23633 818.615 6.42773C818.415 6.61914 818.148 6.71484 817.815 6.71484C817.483 6.71484 817.214 6.61914 817.009 6.42773C816.808 6.23633 816.708 5.99023 816.708 5.68945ZM823.845 15.1367C822.76 15.1367 821.876 14.804 821.192 14.1387C820.513 13.4733 820.174 12.5869 820.174 11.4795V11.2881C820.174 10.5452 820.317 9.88216 820.604 9.29883C820.892 8.71094 821.297 8.25977 821.821 7.94531C822.35 7.6263 822.951 7.4668 823.626 7.4668C824.638 7.4668 825.433 7.78581 826.012 8.42383C826.595 9.06185 826.887 9.96647 826.887 11.1377V11.9443H822.177C822.241 12.4274 822.432 12.8148 822.751 13.1064C823.075 13.3981 823.482 13.5439 823.975 13.5439C824.736 13.5439 825.33 13.2682 825.759 12.7168L826.729 13.8037C826.433 14.223 826.032 14.5511 825.526 14.7881C825.021 15.0205 824.46 15.1367 823.845 15.1367ZM823.619 9.06641C823.227 9.06641 822.908 9.19857 822.662 9.46289C822.421 9.72721 822.266 10.1055 822.197 10.5977H824.945V10.4404C824.936 10.0029 824.818 9.66569 824.59 9.42871C824.362 9.18717 824.038 9.06641 823.619 9.06641ZM834.447 12.3135L835.418 7.60352H837.325L835.438 15H833.784L832.383 10.3447L830.981 15H829.334L827.447 7.60352H829.354L830.318 12.3066L831.672 7.60352H833.101L834.447 12.3135ZM771.789 27.6846C771.712 28.7555 771.315 29.5986 770.6 30.2139C769.889 30.8291 768.95 31.1367 767.783 31.1367C766.507 31.1367 765.502 30.7083 764.769 29.8516C764.039 28.9902 763.675 27.8099 763.675 26.3105V25.7021C763.675 24.7451 763.843 23.902 764.181 23.1729C764.518 22.4437 764.999 21.8854 765.623 21.498C766.252 21.1061 766.981 20.9102 767.811 20.9102C768.959 20.9102 769.884 21.2178 770.586 21.833C771.288 22.4482 771.693 23.3118 771.803 24.4238H769.752C769.702 23.7812 769.522 23.3164 769.212 23.0293C768.907 22.7376 768.439 22.5918 767.811 22.5918C767.127 22.5918 766.614 22.8379 766.272 23.3301C765.935 23.8177 765.762 24.5765 765.753 25.6064V26.3584C765.753 27.4339 765.915 28.2201 766.238 28.7168C766.566 29.2135 767.081 29.4619 767.783 29.4619C768.417 29.4619 768.888 29.3184 769.198 29.0312C769.513 28.7396 769.693 28.2907 769.738 27.6846H771.789ZM772.698 27.2334C772.698 26.4997 772.84 25.8457 773.122 25.2715C773.405 24.6973 773.81 24.2529 774.339 23.9385C774.872 23.624 775.49 23.4668 776.191 23.4668C777.189 23.4668 778.003 23.7721 778.632 24.3828C779.265 24.9935 779.618 25.8229 779.691 26.8711L779.705 27.377C779.705 28.5117 779.388 29.4232 778.755 30.1113C778.121 30.7949 777.271 31.1367 776.205 31.1367C775.139 31.1367 774.286 30.7949 773.648 30.1113C773.015 29.4277 772.698 28.498 772.698 27.3223V27.2334ZM774.674 27.377C774.674 28.0788 774.806 28.6165 775.07 28.9902C775.335 29.3594 775.713 29.5439 776.205 29.5439C776.684 29.5439 777.057 29.3617 777.326 28.9971C777.595 28.6279 777.729 28.04 777.729 27.2334C777.729 26.5452 777.595 26.012 777.326 25.6338C777.057 25.2555 776.679 25.0664 776.191 25.0664C775.708 25.0664 775.335 25.2555 775.07 25.6338C774.806 26.0075 774.674 26.5885 774.674 27.377ZM782.74 23.6035L782.802 24.458C783.33 23.7972 784.039 23.4668 784.928 23.4668C785.712 23.4668 786.295 23.6969 786.678 24.1572C787.061 24.6175 787.257 25.3057 787.266 26.2217V31H785.29V26.2695C785.29 25.8503 785.199 25.5472 785.017 25.3604C784.834 25.1689 784.531 25.0732 784.107 25.0732C783.551 25.0732 783.134 25.3102 782.856 25.7842V31H780.881V23.6035H782.74ZM789.248 31V25.0527H788.147V23.6035H789.248V23.2617C789.257 22.332 789.542 21.6165 790.103 21.1152C790.668 20.6094 791.463 20.3564 792.488 20.3564C793.104 20.3564 793.851 20.4909 794.73 20.7598L794.443 22.3936C793.997 22.2614 793.65 22.1771 793.404 22.1406C793.158 22.0996 792.894 22.0791 792.611 22.0791C791.691 22.0791 791.23 22.487 791.23 23.3027V23.6035H792.687V25.0527H791.23V31H789.248ZM795.653 31H793.671V23.6035H795.653V31ZM797 27.2471C797 26.1123 797.269 25.1986 797.807 24.5059C798.349 23.8132 799.078 23.4668 799.994 23.4668C800.805 23.4668 801.437 23.7448 801.888 24.3008L801.97 23.6035H803.761V30.7539C803.761 31.401 803.613 31.9639 803.316 32.4424C803.025 32.9209 802.612 33.2855 802.079 33.5361C801.546 33.7868 800.922 33.9121 800.206 33.9121C799.664 33.9121 799.135 33.8027 798.62 33.584C798.105 33.3698 797.715 33.0918 797.451 32.75L798.326 31.5469C798.818 32.0983 799.415 32.374 800.117 32.374C800.641 32.374 801.049 32.2327 801.341 31.9502C801.632 31.6722 801.778 31.2757 801.778 30.7607V30.3643C801.323 30.8792 800.723 31.1367 799.98 31.1367C799.092 31.1367 798.372 30.7904 797.82 30.0977C797.273 29.4004 797 28.4775 797 27.3291V27.2471ZM798.976 27.3906C798.976 28.0605 799.11 28.5869 799.379 28.9697C799.648 29.348 800.017 29.5371 800.486 29.5371C801.088 29.5371 801.519 29.3115 801.778 28.8604V25.75C801.514 25.2988 801.088 25.0732 800.5 25.0732C800.026 25.0732 799.652 25.2669 799.379 25.6543C799.11 26.0417 798.976 26.6204 798.976 27.3906ZM809.715 30.248C809.227 30.8405 808.553 31.1367 807.691 31.1367C806.898 31.1367 806.292 30.9089 805.873 30.4531C805.458 29.9974 805.246 29.3298 805.237 28.4502V23.6035H807.213V28.3818C807.213 29.152 807.564 29.5371 808.266 29.5371C808.936 29.5371 809.396 29.3047 809.646 28.8398V23.6035H811.629V31H809.77L809.715 30.248ZM817.275 25.4561C817.007 25.4196 816.77 25.4014 816.564 25.4014C815.817 25.4014 815.327 25.6543 815.095 26.1602V31H813.119V23.6035H814.985L815.04 24.4854C815.437 23.8063 815.986 23.4668 816.688 23.4668C816.906 23.4668 817.111 23.4964 817.303 23.5557L817.275 25.4561ZM821.5 31.1367C820.415 31.1367 819.531 30.804 818.848 30.1387C818.169 29.4733 817.829 28.5869 817.829 27.4795V27.2881C817.829 26.5452 817.973 25.8822 818.26 25.2988C818.547 24.7109 818.952 24.2598 819.477 23.9453C820.005 23.6263 820.607 23.4668 821.281 23.4668C822.293 23.4668 823.088 23.7858 823.667 24.4238C824.25 25.0618 824.542 25.9665 824.542 27.1377V27.9443H819.832C819.896 28.4274 820.087 28.8148 820.406 29.1064C820.73 29.3981 821.138 29.5439 821.63 29.5439C822.391 29.5439 822.986 29.2682 823.414 28.7168L824.385 29.8037C824.089 30.223 823.688 30.5511 823.182 30.7881C822.676 31.0205 822.115 31.1367 821.5 31.1367ZM821.274 25.0664C820.882 25.0664 820.563 25.1986 820.317 25.4629C820.076 25.7272 819.921 26.1055 819.853 26.5977H822.601V26.4404C822.591 26.0029 822.473 25.6657 822.245 25.4287C822.017 25.1872 821.694 25.0664 821.274 25.0664Z" fill="#454D58"/>
<line x1="757.17" y1="78.7941" x2="765.794" y2="123.83" stroke="#F2F2F2" stroke-width="2" stroke-linecap="round" stroke-linejoin="round"/>
<line x1="803.177" y1="77.403" x2="766.403" y2="124.823" stroke="#F2F2F2" stroke-width="2" stroke-linecap="round" stroke-linejoin="round"/>
<line x1="771.799" y1="94.1672" x2="766.167" y2="124.201" stroke="#F2F2F2" stroke-width="2" stroke-linecap="round" stroke-linejoin="round"/>
<line x1="751.392" y1="104.25" x2="766.25" y2="125.608" stroke="#F2F2F2" stroke-width="2" stroke-linecap="round" stroke-linejoin="round"/>
<line x1="802.437" y1="111.297" x2="766.297" y2="125.563" stroke="#F2F2F2" stroke-width="2" stroke-linecap="round" stroke-linejoin="round"/>
<line x1="802" y1="126" x2="745" y2="126" stroke="#F2F2F2" stroke-width="2" stroke-linecap="round" stroke-linejoin="round"/>
<rect x="754" y="77" width="10" height="12" rx="1" fill="#E0E0E0"/>
<rect x="746" y="98" width="10" height="12" rx="1" fill="#E0E0E0"/>
<rect x="766" y="92" width="10" height="12" rx="1" fill="#E0E0E0"/>
<rect x="795" y="72" width="10" height="12" rx="1" fill="#E0E0E0"/>
<rect x="798" y="106" width="10" height="12" rx="1" fill="#E0E0E0"/>
<line x1="804.327" y1="143.489" x2="815.489" y2="167.673" stroke="#F2F2F2" stroke-width="2" stroke-linecap="round" stroke-linejoin="round"/>
<line x1="820.765" y1="146.19" x2="816.19" y2="167.235" stroke="#F2F2F2" stroke-width="2" stroke-linecap="round" stroke-linejoin="round"/>
<line x1="796.41" y1="152.886" x2="814.886" y2="168.59" stroke="#F2F2F2" stroke-width="2" stroke-linecap="round" stroke-linejoin="round"/>
<line x1="836.737" y1="154.39" x2="816.39" y2="168.263" stroke="#F2F2F2" stroke-width="2" stroke-linecap="round" stroke-linejoin="round"/>
<line x1="827" y1="169" x2="809" y2="169" stroke="#F2F2F2" stroke-width="2" stroke-linecap="round" stroke-linejoin="round"/>
<rect x="799" y="133" width="10" height="12" rx="1" fill="#E0E0E0"/>
<rect x="789" y="148" width="10" height="12" rx="1" fill="#E0E0E0"/>
<rect x="818" y="135" width="10" height="12" rx="1" fill="#E0E0E0"/>
<rect x="832" y="149" width="10" height="12" rx="1" fill="#E0E0E0"/>
<rect x="741" y="54" width="6" height="53" rx="3" fill="#828282"/>
<rect x="817" y="51" width="34" height="130" rx="4" fill="#A6AFB7"/>
<line x1="848.5" y1="67.5" x2="820.5" y2="67.5" stroke="#F2F2F2" stroke-linecap="round" stroke-linejoin="round"/>
<rect x="821" y="61" width="8" height="4" rx="1" fill="#828282"/>
<rect x="831" y="61" width="7" height="4" rx="1" fill="#828282"/>
<rect x="840" y="61" width="8" height="4" rx="1" fill="#828282"/>
<rect x="821" y="71" width="28" height="4" rx="1" fill="#828282"/>
<rect x="821" y="78" width="28" height="4" rx="1" fill="#828282"/>
<rect x="821" y="86" width="28" height="4" rx="1" fill="#828282"/>
<rect x="840" y="94" width="9" height="4" rx="1" fill="#828282"/>
<rect x="774" y="57" width="10" height="12" rx="1" fill="#72C850"/>
<rect x="17" y="59" width="97" height="52" rx="10" fill="#BBBBBB"/>
<path fill-rule="evenodd" clip-rule="evenodd" d="M106.562 73.9189L117.875 85.2327L105.439 97.6694L94.1248 86.3556L106.562 73.9189Z" fill="#BBBBBB"/>
<path d="M38.8711 80.0674C38.7568 81.0449 38.395 81.8003 37.7856 82.3335C37.1805 82.8625 36.3743 83.127 35.3672 83.127C34.2754 83.127 33.3994 82.7355 32.7393 81.9526C32.0833 81.1698 31.7554 80.1224 31.7554 78.8105V77.9219C31.7554 77.0628 31.9077 76.3075 32.2124 75.6558C32.5213 75.0041 32.9572 74.5047 33.52 74.1577C34.0828 73.8065 34.7345 73.6309 35.4751 73.6309C36.4569 73.6309 37.244 73.9059 37.8364 74.4561C38.4289 75.002 38.7738 75.7594 38.8711 76.7285H37.646C37.5402 75.9922 37.3096 75.459 36.9541 75.1289C36.6029 74.7988 36.1099 74.6338 35.4751 74.6338C34.6965 74.6338 34.085 74.9215 33.6406 75.4971C33.2005 76.0726 32.9805 76.8914 32.9805 77.9536V78.8486C32.9805 79.8516 33.1899 80.6493 33.6089 81.2417C34.0278 81.8341 34.6139 82.1304 35.3672 82.1304C36.0443 82.1304 36.5627 81.978 36.9224 81.6733C37.2863 81.3644 37.5275 80.8291 37.646 80.0674H38.8711ZM41.849 83H40.6747V73.25H41.849V83ZM45.2268 83H44.0525V76.1318H45.2268V83ZM43.9573 74.3101C43.9573 74.1196 44.0144 73.9588 44.1286 73.8276C44.2471 73.6965 44.4206 73.6309 44.6492 73.6309C44.8777 73.6309 45.0512 73.6965 45.1697 73.8276C45.2882 73.9588 45.3474 74.1196 45.3474 74.3101C45.3474 74.5005 45.2882 74.6592 45.1697 74.7861C45.0512 74.9131 44.8777 74.9766 44.6492 74.9766C44.4206 74.9766 44.2471 74.9131 44.1286 74.7861C44.0144 74.6592 43.9573 74.5005 43.9573 74.3101ZM50.0836 82.1685C50.5025 82.1685 50.8686 82.0415 51.1817 81.7876C51.4949 81.5337 51.6684 81.2163 51.7022 80.8354H52.8131C52.7919 81.229 52.6565 81.6035 52.4068 81.959C52.1572 82.3145 51.8229 82.598 51.4039 82.8096C50.9892 83.0212 50.5491 83.127 50.0836 83.127C49.1484 83.127 48.4036 82.8159 47.8492 82.1938C47.2991 81.5675 47.024 80.7127 47.024 79.6294V79.4326C47.024 78.764 47.1467 78.1694 47.3922 77.6489C47.6376 77.1284 47.9889 76.7243 48.4459 76.4365C48.9072 76.1488 49.4509 76.0049 50.0772 76.0049C50.8474 76.0049 51.4864 76.2355 51.9942 76.6968C52.5063 77.158 52.7792 77.7568 52.8131 78.4932H51.7022C51.6684 78.0488 51.4991 77.6849 51.1944 77.4014C50.894 77.1136 50.5216 76.9697 50.0772 76.9697C49.4806 76.9697 49.0172 77.1855 48.6871 77.6172C48.3613 78.0446 48.1983 78.6646 48.1983 79.4771V79.6992C48.1983 80.4906 48.3613 81.0999 48.6871 81.5273C49.013 81.9548 49.4785 82.1685 50.0836 82.1685ZM56.2671 79.8198L55.5307 80.5879V83H54.3564V73.25H55.5307V79.147L56.1591 78.3916L58.2983 76.1318H59.7265L57.0542 79.001L60.0376 83H58.6601L56.2671 79.8198ZM67.5041 78.8804C66.4589 78.5799 65.6971 78.2118 65.2189 77.7759C64.745 77.3358 64.508 76.7941 64.508 76.1509C64.508 75.423 64.7979 74.8221 65.3776 74.3481C65.9616 73.87 66.7191 73.6309 67.6501 73.6309C68.2849 73.6309 68.8498 73.7536 69.3449 73.999C69.8443 74.2445 70.2294 74.583 70.5002 75.0146C70.7753 75.4463 70.9128 75.9181 70.9128 76.4302H69.6877C69.6877 75.8716 69.51 75.4336 69.1545 75.1162C68.799 74.7946 68.2976 74.6338 67.6501 74.6338C67.0492 74.6338 66.5795 74.7671 66.2409 75.0337C65.9066 75.2961 65.7395 75.6621 65.7395 76.1318C65.7395 76.5085 65.8981 76.828 66.2155 77.0903C66.5371 77.3485 67.0809 77.5854 67.8469 77.8013C68.6171 78.0171 69.218 78.2562 69.6496 78.5186C70.0855 78.7767 70.4071 79.0793 70.6145 79.4263C70.826 79.7733 70.9318 80.1816 70.9318 80.6514C70.9318 81.4004 70.6398 82.0013 70.0559 82.4541C69.4719 82.9027 68.6911 83.127 67.7136 83.127C67.0788 83.127 66.4864 83.0063 65.9362 82.7651C65.3861 82.5197 64.9608 82.1854 64.6604 81.7622C64.3641 81.339 64.216 80.8587 64.216 80.3213H65.4411C65.4411 80.8799 65.6464 81.3221 66.0568 81.6479C66.4715 81.9696 67.0238 82.1304 67.7136 82.1304C68.3568 82.1304 68.8498 81.9992 69.1926 81.7368C69.5354 81.4744 69.7067 81.1169 69.7067 80.6641C69.7067 80.2113 69.548 79.8621 69.2307 79.6167C68.9133 79.367 68.3378 79.1216 67.5041 78.8804ZM75.3824 83.127C74.4514 83.127 73.6939 82.8223 73.1099 82.2129C72.5259 81.5993 72.234 80.7804 72.234 79.7563V79.5405C72.234 78.8592 72.363 78.252 72.6212 77.7188C72.8835 77.1813 73.2475 76.7624 73.713 76.4619C74.1827 76.1572 74.6905 76.0049 75.2364 76.0049C76.1293 76.0049 76.8233 76.299 77.3184 76.8872C77.8135 77.4754 78.0611 78.3175 78.0611 79.4136V79.9023H73.4083C73.4252 80.5794 73.622 81.1274 73.9986 81.5464C74.3795 81.9611 74.8619 82.1685 75.4459 82.1685C75.8606 82.1685 76.2118 82.0838 76.4996 81.9146C76.7873 81.7453 77.0391 81.521 77.2549 81.2417L77.9722 81.8003C77.3967 82.6847 76.5334 83.127 75.3824 83.127ZM75.2364 76.9697C74.7624 76.9697 74.3646 77.1432 74.043 77.4902C73.7214 77.833 73.5225 78.3154 73.4464 78.9375H76.8868V78.8486C76.8529 78.252 76.6921 77.7907 76.4044 77.4648C76.1166 77.1348 75.7273 76.9697 75.2364 76.9697ZM83.8827 83C83.815 82.8646 83.76 82.6234 83.7177 82.2764C83.1718 82.8434 82.5201 83.127 81.7626 83.127C81.0855 83.127 80.5291 82.9365 80.0932 82.5557C79.6616 82.1706 79.4457 81.6839 79.4457 81.0957C79.4457 80.3805 79.7166 79.8262 80.2582 79.4326C80.8041 79.0348 81.5701 78.8359 82.5561 78.8359H83.6987V78.2964C83.6987 77.8859 83.5759 77.5601 83.3305 77.3188C83.0851 77.0734 82.7232 76.9507 82.2451 76.9507C81.8261 76.9507 81.4749 77.0565 81.1913 77.2681C80.9078 77.4797 80.766 77.7357 80.766 78.0361H79.5854C79.5854 77.6934 79.706 77.3633 79.9472 77.0459C80.1926 76.7243 80.5227 76.4704 80.9374 76.2842C81.3564 76.098 81.8155 76.0049 82.3149 76.0049C83.1062 76.0049 83.7262 76.2038 84.1747 76.6016C84.6233 76.9951 84.8561 77.5389 84.873 78.2329V81.394C84.873 82.0246 84.9534 82.526 85.1142 82.8984V83H83.8827ZM81.934 82.105C82.3022 82.105 82.6513 82.0098 82.9814 81.8193C83.3115 81.6289 83.5506 81.3813 83.6987 81.0767V79.6675H82.7783C81.3395 79.6675 80.6201 80.0885 80.6201 80.9307C80.6201 81.2988 80.7428 81.5866 80.9882 81.7939C81.2337 82.0013 81.5489 82.105 81.934 82.105ZM90.2503 77.1855C90.0726 77.1559 89.88 77.1411 89.6727 77.1411C88.9025 77.1411 88.3799 77.4691 88.1048 78.125V83H86.9305V76.1318H88.073L88.0921 76.9253C88.4772 76.3117 89.0231 76.0049 89.7298 76.0049C89.9583 76.0049 90.1318 76.0345 90.2503 76.0938V77.1855ZM94.1803 82.1685C94.5993 82.1685 94.9653 82.0415 95.2785 81.7876C95.5916 81.5337 95.7651 81.2163 95.799 80.8354H96.9098C96.8887 81.229 96.7533 81.6035 96.5036 81.959C96.2539 82.3145 95.9196 82.598 95.5007 82.8096C95.0859 83.0212 94.6458 83.127 94.1803 83.127C93.2451 83.127 92.5003 82.8159 91.946 82.1938C91.3958 81.5675 91.1208 80.7127 91.1208 79.6294V79.4326C91.1208 78.764 91.2435 78.1694 91.4889 77.6489C91.7344 77.1284 92.0856 76.7243 92.5426 76.4365C93.0039 76.1488 93.5477 76.0049 94.174 76.0049C94.9442 76.0049 95.5832 76.2355 96.091 76.6968C96.603 77.158 96.876 77.7568 96.9098 78.4932H95.799C95.7651 78.0488 95.5959 77.6849 95.2912 77.4014C94.9907 77.1136 94.6183 76.9697 94.174 76.9697C93.5773 76.9697 93.1139 77.1855 92.7839 77.6172C92.458 78.0446 92.2951 78.6646 92.2951 79.4771V79.6992C92.2951 80.4906 92.458 81.0999 92.7839 81.5273C93.1097 81.9548 93.5752 82.1685 94.1803 82.1685ZM99.6211 76.9634C100.142 76.3244 100.819 76.0049 101.652 76.0049C103.104 76.0049 103.836 76.8237 103.849 78.4614V83H102.674V78.4551C102.67 77.96 102.556 77.5939 102.332 77.3569C102.112 77.12 101.767 77.0015 101.297 77.0015C100.916 77.0015 100.582 77.103 100.294 77.3062C100.006 77.5093 99.7819 77.7759 99.6211 78.106V83H98.4468V73.25H99.6211V76.9634ZM33.1646 98H31.9902V91.1318H33.1646V98ZM31.895 89.3101C31.895 89.1196 31.9521 88.9588 32.0664 88.8276C32.1849 88.6965 32.3584 88.6309 32.5869 88.6309C32.8154 88.6309 32.9889 88.6965 33.1074 88.8276C33.2259 88.9588 33.2852 89.1196 33.2852 89.3101C33.2852 89.5005 33.2259 89.6592 33.1074 89.7861C32.9889 89.9131 32.8154 89.9766 32.5869 89.9766C32.3584 89.9766 32.1849 89.9131 32.0664 89.7861C31.9521 89.6592 31.895 89.5005 31.895 89.3101ZM38.0214 97.1685C38.4403 97.1685 38.8063 97.0415 39.1195 96.7876C39.4326 96.5337 39.6062 96.2163 39.64 95.8354H40.7508C40.7297 96.229 40.5943 96.6035 40.3446 96.959C40.0949 97.3145 39.7606 97.598 39.3417 97.8096C38.927 98.0212 38.4868 98.127 38.0214 98.127C37.0861 98.127 36.3413 97.8159 35.787 97.1938C35.2368 96.5675 34.9618 95.7127 34.9618 94.6294V94.4326C34.9618 93.764 35.0845 93.1694 35.3299 92.6489C35.5754 92.1284 35.9266 91.7243 36.3837 91.4365C36.8449 91.1488 37.3887 91.0049 38.015 91.0049C38.7852 91.0049 39.4242 91.2355 39.932 91.6968C40.444 92.158 40.717 92.7568 40.7508 93.4932H39.64C39.6062 93.0488 39.4369 92.6849 39.1322 92.4014C38.8317 92.1136 38.4593 91.9697 38.015 91.9697C37.4183 91.9697 36.9549 92.1855 36.6249 92.6172C36.299 93.0446 36.1361 93.6646 36.1361 94.4771V94.6992C36.1361 95.4906 36.299 96.0999 36.6249 96.5273C36.9507 96.9548 37.4162 97.1685 38.0214 97.1685ZM41.9768 94.5024C41.9768 93.8296 42.108 93.2244 42.3703 92.687C42.6369 92.1496 43.0051 91.7349 43.4748 91.4429C43.9488 91.1509 44.4883 91.0049 45.0935 91.0049C46.0287 91.0049 46.7841 91.3286 47.3596 91.9761C47.9394 92.6235 48.2292 93.4847 48.2292 94.5596V94.6421C48.2292 95.3107 48.1002 95.9116 47.842 96.4448C47.5881 96.9738 47.2221 97.3864 46.7439 97.6826C46.2699 97.9788 45.724 98.127 45.1062 98.127C44.1752 98.127 43.4198 97.8032 42.8401 97.1558C42.2646 96.5083 41.9768 95.6514 41.9768 94.585V94.5024ZM43.1575 94.6421C43.1575 95.4038 43.3331 96.0153 43.6843 96.4766C44.0398 96.9378 44.5137 97.1685 45.1062 97.1685C45.7029 97.1685 46.1768 96.9357 46.5281 96.4702C46.8793 96.0005 47.0549 95.3446 47.0549 94.5024C47.0549 93.7492 46.8751 93.1398 46.5154 92.6743C46.1599 92.2046 45.6859 91.9697 45.0935 91.9697C44.5137 91.9697 44.0461 92.2004 43.6907 92.6616C43.3352 93.1229 43.1575 93.783 43.1575 94.6421ZM51.0294 91.1318L51.0675 91.9951C51.5922 91.335 52.2778 91.0049 53.1241 91.0049C54.5756 91.0049 55.3077 91.8237 55.3204 93.4614V98H54.1461V93.4551C54.1419 92.96 54.0276 92.5939 53.8033 92.3569C53.5833 92.12 53.2384 92.0015 52.7687 92.0015C52.3878 92.0015 52.0535 92.103 51.7657 92.3062C51.478 92.5093 51.2537 92.7759 51.0929 93.106V98H49.9186V91.1318H51.0294Z" fill="#333333"/>
<path d="M450.441 90.5H554.574" stroke="#828282" stroke-linecap="square"/>
<path fill-rule="evenodd" clip-rule="evenodd" d="M452.5 93C453.881 93 455 91.8807 455 90.5C455 89.1193 453.881 88 452.5 88C451.119 88 450 89.1193 450 90.5C450 91.8807 451.119 93 452.5 93Z" fill="white" stroke="#828282"/>
<path fill-rule="evenodd" clip-rule="evenodd" d="M556 90.5L553 93V88L556 90.5Z" fill="#828282"/>
<rect x="382" y="53" width="80" height="80" rx="4" fill="#E0E0E0" stroke="#828282" stroke-width="2"/>
<rect x="395" y="76" width="54" height="6" rx="1" fill="#828282"/>
<rect x="411" y="86" width="22" height="7" rx="1" fill="#828282"/>
<path d="M390.077 40.7637C390.077 40.4316 389.96 40.1777 389.726 40.002C389.491 39.8223 389.069 39.6348 388.46 39.4395C387.851 39.2402 387.368 39.0449 387.013 38.8535C386.044 38.3301 385.56 37.625 385.56 36.7383C385.56 36.2773 385.688 35.8672 385.946 35.5078C386.208 35.1445 386.581 34.8613 387.065 34.6582C387.554 34.4551 388.101 34.3535 388.706 34.3535C389.315 34.3535 389.858 34.4648 390.335 34.6875C390.812 34.9062 391.181 35.2168 391.442 35.6191C391.708 36.0215 391.841 36.4785 391.841 36.9902H390.083C390.083 36.5996 389.96 36.2969 389.714 36.082C389.468 35.8633 389.122 35.7539 388.677 35.7539C388.247 35.7539 387.913 35.8457 387.675 36.0293C387.437 36.209 387.317 36.4473 387.317 36.7441C387.317 37.0215 387.456 37.2539 387.733 37.4414C388.015 37.6289 388.427 37.8047 388.97 37.9688C389.97 38.2695 390.698 38.6426 391.155 39.0879C391.612 39.5332 391.841 40.0879 391.841 40.752C391.841 41.4902 391.562 42.0703 391.003 42.4922C390.444 42.9102 389.692 43.1191 388.747 43.1191C388.091 43.1191 387.493 43 386.954 42.7617C386.415 42.5195 386.003 42.1895 385.718 41.7715C385.437 41.3535 385.296 40.8691 385.296 40.3184H387.06C387.06 41.2598 387.622 41.7305 388.747 41.7305C389.165 41.7305 389.491 41.6465 389.726 41.4785C389.96 41.3066 390.077 41.0684 390.077 40.7637ZM395.843 43.1191C394.913 43.1191 394.155 42.834 393.569 42.2637C392.987 41.6934 392.696 40.9336 392.696 39.9844V39.8203C392.696 39.1836 392.819 38.6152 393.065 38.1152C393.312 37.6113 393.659 37.2246 394.108 36.9551C394.562 36.6816 395.077 36.5449 395.655 36.5449C396.522 36.5449 397.204 36.8184 397.7 37.3652C398.2 37.9121 398.45 38.6875 398.45 39.6914V40.3828H394.413C394.468 40.7969 394.632 41.1289 394.905 41.3789C395.183 41.6289 395.532 41.7539 395.954 41.7539C396.606 41.7539 397.116 41.5176 397.483 41.0449L398.315 41.9766C398.062 42.3359 397.718 42.6172 397.284 42.8203C396.851 43.0195 396.37 43.1191 395.843 43.1191ZM395.649 37.916C395.313 37.916 395.04 38.0293 394.829 38.2559C394.622 38.4824 394.489 38.8066 394.431 39.2285H396.786V39.0938C396.778 38.7188 396.677 38.4297 396.481 38.2266C396.286 38.0195 396.009 37.916 395.649 37.916ZM403.091 43.002C403.013 42.8496 402.956 42.6602 402.921 42.4336C402.511 42.8906 401.978 43.1191 401.321 43.1191C400.7 43.1191 400.185 42.9395 399.774 42.5801C399.368 42.2207 399.165 41.7676 399.165 41.2207C399.165 40.5488 399.413 40.0332 399.909 39.6738C400.409 39.3145 401.13 39.1328 402.071 39.1289H402.851V38.7656C402.851 38.4727 402.774 38.2383 402.622 38.0625C402.474 37.8867 402.237 37.7988 401.913 37.7988C401.628 37.7988 401.403 37.8672 401.239 38.0039C401.079 38.1406 400.999 38.3281 400.999 38.5664H399.306C399.306 38.1992 399.419 37.8594 399.646 37.5469C399.872 37.2344 400.192 36.9902 400.606 36.8145C401.021 36.6348 401.485 36.5449 402.001 36.5449C402.782 36.5449 403.401 36.7422 403.858 37.1367C404.319 37.5273 404.55 38.0781 404.55 38.7891V41.5371C404.554 42.1387 404.638 42.5938 404.802 42.9023V43.002H403.091ZM401.69 41.8242C401.94 41.8242 402.171 41.7695 402.382 41.6602C402.593 41.5469 402.749 41.3965 402.851 41.209V40.1191H402.218C401.37 40.1191 400.919 40.4121 400.864 40.998L400.858 41.0977C400.858 41.3086 400.933 41.4824 401.081 41.6191C401.229 41.7559 401.433 41.8242 401.69 41.8242ZM409.413 38.25C409.183 38.2188 408.979 38.2031 408.804 38.2031C408.163 38.2031 407.743 38.4199 407.544 38.8535V43.002H405.851V36.6621H407.45L407.497 37.418C407.837 36.8359 408.308 36.5449 408.909 36.5449C409.097 36.5449 409.272 36.5703 409.437 36.6211L409.413 38.25ZM412.753 41.7539C413.065 41.7539 413.319 41.668 413.515 41.4961C413.71 41.3242 413.812 41.0957 413.819 40.8105H415.407C415.403 41.2402 415.286 41.6348 415.056 41.9941C414.825 42.3496 414.509 42.627 414.106 42.8262C413.708 43.0215 413.267 43.1191 412.782 43.1191C411.876 43.1191 411.161 42.832 410.638 42.2578C410.114 41.6797 409.853 40.8828 409.853 39.8672V39.7559C409.853 38.7793 410.112 38 410.632 37.418C411.151 36.8359 411.864 36.5449 412.771 36.5449C413.563 36.5449 414.198 36.7715 414.675 37.2246C415.155 37.6738 415.399 38.2734 415.407 39.0234H413.819C413.812 38.6953 413.71 38.4297 413.515 38.2266C413.319 38.0195 413.062 37.916 412.741 37.916C412.347 37.916 412.048 38.0605 411.845 38.3496C411.646 38.6348 411.546 39.0996 411.546 39.7441V39.9199C411.546 40.5723 411.646 41.041 411.845 41.3262C412.044 41.6113 412.347 41.7539 412.753 41.7539ZM418.026 37.3535C418.476 36.8145 419.04 36.5449 419.72 36.5449C421.095 36.5449 421.792 37.3438 421.812 38.9414V43.002H420.118V38.9883C420.118 38.625 420.04 38.3574 419.884 38.1855C419.728 38.0098 419.468 37.9219 419.104 37.9219C418.608 37.9219 418.249 38.1133 418.026 38.4961V43.002H416.333V34.002H418.026V37.3535ZM428.485 34.4707L430.677 40.6582L432.856 34.4707H435.165V43.002H433.401V40.6699L433.577 36.6445L431.274 43.002H430.067L427.771 36.6504L427.946 40.6699V43.002H426.188V34.4707H428.485ZM436.325 39.7734C436.325 39.1445 436.446 38.584 436.688 38.0918C436.931 37.5996 437.278 37.2188 437.731 36.9492C438.188 36.6797 438.718 36.5449 439.319 36.5449C440.175 36.5449 440.872 36.8066 441.411 37.3301C441.954 37.8535 442.257 38.5645 442.319 39.4629L442.331 39.8965C442.331 40.8691 442.06 41.6504 441.517 42.2402C440.974 42.8262 440.245 43.1191 439.331 43.1191C438.417 43.1191 437.687 42.8262 437.14 42.2402C436.597 41.6543 436.325 40.8574 436.325 39.8496V39.7734ZM438.019 39.8965C438.019 40.498 438.132 40.959 438.358 41.2793C438.585 41.5957 438.909 41.7539 439.331 41.7539C439.741 41.7539 440.062 41.5977 440.292 41.2852C440.522 40.9688 440.638 40.4648 440.638 39.7734C440.638 39.1836 440.522 38.7266 440.292 38.4023C440.062 38.0781 439.737 37.916 439.319 37.916C438.905 37.916 438.585 38.0781 438.358 38.4023C438.132 38.7227 438.019 39.2207 438.019 39.8965ZM443.11 39.7852C443.11 38.7969 443.331 38.0098 443.772 37.4238C444.218 36.8379 444.825 36.5449 445.595 36.5449C446.212 36.5449 446.722 36.7754 447.124 37.2363V34.002H448.823V43.002H447.294L447.212 42.3281C446.79 42.8555 446.247 43.1191 445.583 43.1191C444.837 43.1191 444.237 42.8262 443.784 42.2402C443.335 41.6504 443.11 40.832 443.11 39.7852ZM444.804 39.9082C444.804 40.502 444.907 40.957 445.114 41.2734C445.321 41.5898 445.622 41.748 446.017 41.748C446.54 41.748 446.909 41.5273 447.124 41.0859V38.584C446.913 38.1426 446.548 37.9219 446.028 37.9219C445.212 37.9219 444.804 38.584 444.804 39.9082ZM453.81 43.002C453.731 42.8496 453.675 42.6602 453.64 42.4336C453.229 42.8906 452.696 43.1191 452.04 43.1191C451.419 43.1191 450.903 42.9395 450.493 42.5801C450.087 42.2207 449.884 41.7676 449.884 41.2207C449.884 40.5488 450.132 40.0332 450.628 39.6738C451.128 39.3145 451.849 39.1328 452.79 39.1289H453.569V38.7656C453.569 38.4727 453.493 38.2383 453.341 38.0625C453.192 37.8867 452.956 37.7988 452.632 37.7988C452.347 37.7988 452.122 37.8672 451.958 38.0039C451.798 38.1406 451.718 38.3281 451.718 38.5664H450.024C450.024 38.1992 450.138 37.8594 450.364 37.5469C450.591 37.2344 450.911 36.9902 451.325 36.8145C451.739 36.6348 452.204 36.5449 452.72 36.5449C453.501 36.5449 454.12 36.7422 454.577 37.1367C455.038 37.5273 455.269 38.0781 455.269 38.7891V41.5371C455.272 42.1387 455.356 42.5938 455.521 42.9023V43.002H453.81ZM452.409 41.8242C452.659 41.8242 452.89 41.7695 453.101 41.6602C453.312 41.5469 453.468 41.3965 453.569 41.209V40.1191H452.937C452.089 40.1191 451.638 40.4121 451.583 40.998L451.577 41.0977C451.577 41.3086 451.651 41.4824 451.8 41.6191C451.948 41.7559 452.151 41.8242 452.409 41.8242ZM458.356 43.002H456.657V34.002H458.356V43.002Z" fill="#454D58"/>
<path d="M239.592 94.5H379.428" stroke="#828282" stroke-linecap="square"/>
<path fill-rule="evenodd" clip-rule="evenodd" d="M241.5 97C242.881 97 244 95.8807 244 94.5C244 93.1193 242.881 92 241.5 92C240.119 92 239 93.1193 239 94.5C239 95.8807 240.119 97 241.5 97Z" fill="white" stroke="#828282"/>
<path fill-rule="evenodd" clip-rule="evenodd" d="M381 94.5L378 97V92L381 94.5Z" fill="#828282"/>
<path d="M422 134V160C422 165.523 417.523 170 412 170H241" stroke="#828282"/>
<path fill-rule="evenodd" clip-rule="evenodd" d="M242 173V167L239 170L242 173Z" fill="#828282"/>
<path d="M308.995 155.395C308.934 156.236 308.623 156.899 308.061 157.382C307.502 157.866 306.764 158.107 305.848 158.107C304.845 158.107 304.056 157.771 303.479 157.098C302.906 156.421 302.62 155.493 302.62 154.315V153.837C302.62 153.085 302.752 152.423 303.017 151.85C303.282 151.277 303.66 150.839 304.15 150.534C304.645 150.226 305.217 150.072 305.869 150.072C306.772 150.072 307.498 150.314 308.05 150.797C308.601 151.281 308.92 151.959 309.006 152.833H307.395C307.355 152.328 307.214 151.963 306.97 151.737C306.73 151.508 306.363 151.394 305.869 151.394C305.332 151.394 304.929 151.587 304.661 151.974C304.396 152.357 304.26 152.953 304.252 153.762V154.353C304.252 155.198 304.38 155.816 304.634 156.206C304.892 156.596 305.296 156.792 305.848 156.792C306.345 156.792 306.716 156.679 306.96 156.453C307.207 156.224 307.348 155.871 307.384 155.395H308.995ZM311.773 158H310.215V149.75H311.773V158ZM312.998 155.041C312.998 154.464 313.109 153.95 313.331 153.499C313.553 153.048 313.872 152.699 314.287 152.452C314.706 152.205 315.191 152.081 315.743 152.081C316.527 152.081 317.166 152.321 317.66 152.801C318.158 153.281 318.435 153.932 318.493 154.756L318.503 155.153C318.503 156.045 318.255 156.761 317.757 157.302C317.259 157.839 316.591 158.107 315.753 158.107C314.916 158.107 314.246 157.839 313.745 157.302C313.247 156.765 312.998 156.034 312.998 155.11V155.041ZM314.55 155.153C314.55 155.705 314.654 156.127 314.862 156.421C315.069 156.711 315.367 156.856 315.753 156.856C316.129 156.856 316.423 156.713 316.634 156.426C316.846 156.136 316.951 155.674 316.951 155.041C316.951 154.5 316.846 154.081 316.634 153.784C316.423 153.486 316.126 153.338 315.743 153.338C315.363 153.338 315.069 153.486 314.862 153.784C314.654 154.077 314.55 154.534 314.55 155.153ZM322.79 156.394C322.79 156.204 322.695 156.056 322.506 155.948C322.319 155.837 322.019 155.739 321.603 155.653C320.221 155.363 319.53 154.776 319.53 153.891C319.53 153.375 319.743 152.946 320.169 152.602C320.599 152.255 321.159 152.081 321.85 152.081C322.588 152.081 323.177 152.255 323.617 152.602C324.061 152.949 324.283 153.401 324.283 153.956H322.731C322.731 153.734 322.66 153.551 322.516 153.408C322.373 153.261 322.149 153.188 321.845 153.188C321.584 153.188 321.381 153.247 321.238 153.365C321.095 153.483 321.023 153.633 321.023 153.816C321.023 153.988 321.104 154.127 321.265 154.235C321.43 154.339 321.705 154.43 322.092 154.509C322.479 154.584 322.805 154.67 323.07 154.767C323.89 155.067 324.3 155.588 324.3 156.33C324.3 156.86 324.072 157.289 323.617 157.619C323.163 157.944 322.575 158.107 321.856 158.107C321.369 158.107 320.935 158.021 320.556 157.85C320.18 157.674 319.885 157.436 319.67 157.135C319.455 156.831 319.347 156.503 319.347 156.152H320.819C320.833 156.428 320.935 156.639 321.125 156.786C321.315 156.933 321.569 157.006 321.888 157.006C322.185 157.006 322.409 156.951 322.559 156.84C322.713 156.725 322.79 156.577 322.79 156.394ZM328.162 158.107C327.31 158.107 326.615 157.846 326.078 157.323C325.545 156.8 325.278 156.104 325.278 155.234V155.083C325.278 154.5 325.391 153.979 325.616 153.521C325.842 153.059 326.16 152.704 326.572 152.457C326.988 152.206 327.46 152.081 327.99 152.081C328.785 152.081 329.41 152.332 329.865 152.833C330.323 153.334 330.552 154.045 330.552 154.965V155.599H326.852C326.902 155.979 327.052 156.283 327.303 156.512C327.557 156.741 327.877 156.856 328.264 156.856C328.862 156.856 329.329 156.639 329.666 156.206L330.429 157.06C330.196 157.389 329.881 157.647 329.483 157.833C329.086 158.016 328.645 158.107 328.162 158.107ZM327.985 153.338C327.677 153.338 327.426 153.442 327.233 153.649C327.043 153.857 326.921 154.154 326.868 154.541H329.027V154.417C329.02 154.074 328.927 153.809 328.748 153.623C328.568 153.433 328.314 153.338 327.985 153.338Z" fill="#4F4F4F"/>
<path d="M478.788 73.4849H476.393V80H474.781V73.4849H472.418V72.1797H478.788V73.4849ZM481.523 77.8032L482.597 74.1885H484.262L481.926 80.9023L481.797 81.2085C481.449 81.9676 480.877 82.3472 480.078 82.3472C479.852 82.3472 479.623 82.3132 479.391 82.2451V81.0688L479.627 81.0742C479.921 81.0742 480.139 81.0295 480.282 80.9399C480.429 80.8504 480.544 80.7018 480.626 80.4941L480.809 80.0161L478.773 74.1885H480.443L481.523 77.8032ZM490.289 77.1479C490.289 78.0431 490.085 78.7611 489.677 79.3018C489.272 79.8389 488.724 80.1074 488.033 80.1074C487.446 80.1074 486.972 79.9033 486.61 79.4951V82.2344H485.058V74.1885H486.497L486.551 74.7578C486.927 74.3066 487.417 74.0811 488.023 74.0811C488.739 74.0811 489.296 74.346 489.693 74.876C490.09 75.4059 490.289 76.1364 490.289 77.0674V77.1479ZM488.737 77.0352C488.737 76.4945 488.64 76.0773 488.447 75.7837C488.257 75.4901 487.98 75.3433 487.614 75.3433C487.127 75.3433 486.793 75.5295 486.61 75.9019V78.2812C486.8 78.6644 487.138 78.856 487.625 78.856C488.366 78.856 488.737 78.249 488.737 77.0352ZM494.114 80.1074C493.262 80.1074 492.567 79.846 492.03 79.3232C491.497 78.8005 491.23 78.104 491.23 77.2339V77.0835C491.23 76.4998 491.343 75.9788 491.568 75.5205C491.794 75.0586 492.113 74.7041 492.524 74.457C492.94 74.2064 493.412 74.0811 493.942 74.0811C494.737 74.0811 495.362 74.3317 495.817 74.833C496.275 75.3343 496.504 76.0451 496.504 76.9653V77.5991H492.804C492.854 77.9787 493.004 78.283 493.255 78.5122C493.509 78.7414 493.829 78.856 494.216 78.856C494.814 78.856 495.281 78.6393 495.618 78.2061L496.381 79.0601C496.148 79.3895 495.833 79.6473 495.435 79.8335C495.038 80.0161 494.598 80.1074 494.114 80.1074ZM493.937 75.3379C493.629 75.3379 493.378 75.4417 493.185 75.6494C492.995 75.8571 492.873 76.1543 492.82 76.541H494.979V76.4175C494.972 76.0737 494.879 75.8088 494.7 75.6226C494.521 75.4328 494.266 75.3379 493.937 75.3379ZM506.163 73.4849H503.767V80H502.156V73.4849H499.793V72.1797H506.163V73.4849ZM509.359 80.1074C508.507 80.1074 507.813 79.846 507.275 79.3232C506.742 78.8005 506.475 78.104 506.475 77.2339V77.0835C506.475 76.4998 506.588 75.9788 506.814 75.5205C507.039 75.0586 507.358 74.7041 507.77 74.457C508.185 74.2064 508.658 74.0811 509.188 74.0811C509.983 74.0811 510.607 74.3317 511.062 74.833C511.52 75.3343 511.75 76.0451 511.75 76.9653V77.5991H508.049C508.099 77.9787 508.249 78.283 508.5 78.5122C508.754 78.7414 509.075 78.856 509.462 78.856C510.06 78.856 510.527 78.6393 510.863 78.2061L511.626 79.0601C511.393 79.3895 511.078 79.6473 510.681 79.8335C510.283 80.0161 509.843 80.1074 509.359 80.1074ZM509.182 75.3379C508.874 75.3379 508.624 75.4417 508.43 75.6494C508.24 75.8571 508.119 76.1543 508.065 76.541H510.224V76.4175C510.217 76.0737 510.124 75.8088 509.945 75.6226C509.766 75.4328 509.512 75.3379 509.182 75.3379ZM516.085 75.644C515.874 75.6154 515.687 75.6011 515.526 75.6011C514.939 75.6011 514.554 75.7998 514.371 76.1973V80H512.819V74.1885H514.285L514.328 74.8813C514.64 74.3478 515.071 74.0811 515.623 74.0811C515.795 74.0811 515.956 74.1043 516.106 74.1509L516.085 75.644ZM518.476 74.1885L518.524 74.8384C518.936 74.3335 519.493 74.0811 520.194 74.0811C520.943 74.0811 521.457 74.3765 521.736 74.9673C522.144 74.3765 522.726 74.0811 523.482 74.0811C524.112 74.0811 524.581 74.2655 524.889 74.6343C525.197 74.9995 525.351 75.5509 525.351 76.2886V80H523.793V76.2939C523.793 75.9645 523.729 75.7246 523.6 75.5742C523.471 75.4202 523.243 75.3433 522.918 75.3433C522.452 75.3433 522.13 75.5653 521.951 76.0093L521.956 80H520.404V76.2993C520.404 75.9627 520.338 75.7192 520.205 75.5688C520.073 75.4185 519.847 75.3433 519.528 75.3433C519.088 75.3433 518.769 75.5259 518.572 75.8911V80H517.02V74.1885H518.476ZM529.879 78.394C529.879 78.2043 529.784 78.0557 529.595 77.9482C529.408 77.8372 529.108 77.7388 528.692 77.6528C527.31 77.3628 526.619 76.7756 526.619 75.8911C526.619 75.3755 526.832 74.9458 527.258 74.6021C527.688 74.2547 528.248 74.0811 528.939 74.0811C529.677 74.0811 530.266 74.2547 530.706 74.6021C531.15 74.9494 531.372 75.4006 531.372 75.9556H529.82C529.82 75.7336 529.749 75.5509 529.605 75.4077C529.462 75.2609 529.238 75.1875 528.934 75.1875C528.672 75.1875 528.47 75.2466 528.327 75.3647C528.184 75.4829 528.112 75.6333 528.112 75.8159C528.112 75.9878 528.193 76.1274 528.354 76.2349C528.519 76.3387 528.794 76.43 529.181 76.5088C529.568 76.584 529.894 76.6699 530.158 76.7666C530.978 77.0674 531.388 77.5884 531.388 78.3296C531.388 78.8595 531.161 79.2892 530.706 79.6187C530.252 79.9445 529.664 80.1074 528.945 80.1074C528.458 80.1074 528.024 80.0215 527.645 79.8496C527.269 79.6742 526.973 79.436 526.759 79.1353C526.544 78.8309 526.436 78.5033 526.436 78.1523H527.908C527.922 78.4281 528.024 78.6393 528.214 78.7861C528.404 78.9329 528.658 79.0063 528.977 79.0063C529.274 79.0063 529.498 78.9508 529.648 78.8398C529.802 78.7253 529.879 78.5767 529.879 78.394Z" fill="#333333"/>
<path d="M629.441 92.5H733.574" stroke="#828282" stroke-linecap="square"/>
<path fill-rule="evenodd" clip-rule="evenodd" d="M631.5 95C632.881 95 634 93.8807 634 92.5C634 91.1193 632.881 90 631.5 90C630.119 90 629 91.1193 629 92.5C629 93.8807 630.119 95 631.5 95Z" fill="white" stroke="#828282"/>
<path fill-rule="evenodd" clip-rule="evenodd" d="M735 92.5L732 95V90L735 92.5Z" fill="#828282"/>
<path d="M652.046 79.9482C652.046 79.6439 651.938 79.4111 651.723 79.25C651.508 79.0853 651.122 78.9134 650.563 78.7344C650.004 78.5518 649.562 78.3727 649.236 78.1973C648.348 77.7174 647.904 77.0711 647.904 76.2583C647.904 75.8358 648.023 75.4598 648.259 75.1304C648.499 74.7974 648.841 74.5378 649.285 74.3516C649.732 74.1654 650.234 74.0723 650.789 74.0723C651.347 74.0723 651.845 74.1743 652.282 74.3784C652.719 74.5789 653.057 74.8636 653.297 75.2324C653.54 75.6012 653.662 76.0202 653.662 76.4893H652.051C652.051 76.1312 651.938 75.8537 651.713 75.6567C651.487 75.4562 651.17 75.356 650.762 75.356C650.368 75.356 650.062 75.4401 649.843 75.6084C649.625 75.7731 649.516 75.9915 649.516 76.2637C649.516 76.5179 649.643 76.731 649.897 76.9028C650.155 77.0747 650.533 77.2358 651.03 77.3862C651.947 77.6619 652.615 78.0039 653.034 78.4121C653.453 78.8203 653.662 79.3288 653.662 79.9375C653.662 80.6143 653.406 81.146 652.894 81.5327C652.382 81.9159 651.693 82.1074 650.826 82.1074C650.225 82.1074 649.677 81.9982 649.183 81.7798C648.689 81.5578 648.311 81.2552 648.049 80.8721C647.792 80.4889 647.663 80.0449 647.663 79.54H649.279C649.279 80.403 649.795 80.8345 650.826 80.8345C651.209 80.8345 651.508 80.7575 651.723 80.6035C651.938 80.446 652.046 80.2275 652.046 79.9482ZM657.514 82.1074C656.662 82.1074 655.967 81.846 655.43 81.3232C654.896 80.8005 654.63 80.104 654.63 79.2339V79.0835C654.63 78.4998 654.743 77.9788 654.968 77.5205C655.194 77.0586 655.512 76.7041 655.924 76.457C656.34 76.2064 656.812 76.0811 657.342 76.0811C658.137 76.0811 658.762 76.3317 659.217 76.833C659.675 77.3343 659.904 78.0451 659.904 78.9653V79.5991H656.203C656.254 79.9787 656.404 80.283 656.655 80.5122C656.909 80.7414 657.229 80.856 657.616 80.856C658.214 80.856 658.681 80.6393 659.018 80.2061L659.781 81.0601C659.548 81.3895 659.233 81.6473 658.835 81.8335C658.438 82.0161 657.997 82.1074 657.514 82.1074ZM657.337 77.3379C657.029 77.3379 656.778 77.4417 656.585 77.6494C656.395 77.8571 656.273 78.1543 656.22 78.541H658.379V78.4175C658.372 78.0737 658.278 77.8088 658.099 77.6226C657.92 77.4328 657.666 77.3379 657.337 77.3379ZM662.612 82H661.054V73.75H662.612V82ZM666.754 82.1074C665.901 82.1074 665.207 81.846 664.67 81.3232C664.136 80.8005 663.869 80.104 663.869 79.2339V79.0835C663.869 78.4998 663.982 77.9788 664.208 77.5205C664.433 77.0586 664.752 76.7041 665.164 76.457C665.579 76.2064 666.052 76.0811 666.582 76.0811C667.377 76.0811 668.002 76.3317 668.456 76.833C668.915 77.3343 669.144 78.0451 669.144 78.9653V79.5991H665.443C665.493 79.9787 665.644 80.283 665.894 80.5122C666.149 80.7414 666.469 80.856 666.856 80.856C667.454 80.856 667.921 80.6393 668.258 80.2061L669.02 81.0601C668.788 81.3895 668.472 81.6473 668.075 81.8335C667.678 82.0161 667.237 82.1074 666.754 82.1074ZM666.576 77.3379C666.269 77.3379 666.018 77.4417 665.825 77.6494C665.635 77.8571 665.513 78.1543 665.459 78.541H667.618V78.4175C667.611 78.0737 667.518 77.8088 667.339 77.6226C667.16 77.4328 666.906 77.3379 666.576 77.3379ZM672.63 80.856C672.917 80.856 673.15 80.7772 673.329 80.6196C673.508 80.4621 673.601 80.2526 673.608 79.9912H675.064C675.06 80.3851 674.953 80.7467 674.741 81.0762C674.53 81.402 674.24 81.6562 673.871 81.8389C673.506 82.0179 673.101 82.1074 672.657 82.1074C671.827 82.1074 671.171 81.8442 670.691 81.3179C670.212 80.7879 669.972 80.0575 669.972 79.1265V79.0244C669.972 78.1292 670.21 77.4149 670.686 76.8813C671.162 76.3478 671.816 76.0811 672.647 76.0811C673.373 76.0811 673.955 76.2887 674.392 76.7041C674.833 77.1159 675.056 77.6655 675.064 78.353H673.608C673.601 78.0522 673.508 77.8088 673.329 77.6226C673.15 77.4328 672.913 77.3379 672.62 77.3379C672.258 77.3379 671.984 77.4704 671.798 77.7354C671.615 77.9967 671.524 78.4229 671.524 79.0137V79.1748C671.524 79.7728 671.615 80.2025 671.798 80.4639C671.981 80.7253 672.258 80.856 672.63 80.856ZM677.991 74.7598V76.1885H678.985V77.3271H677.991V80.2275C677.991 80.4424 678.033 80.5964 678.115 80.6895C678.197 80.7826 678.355 80.8291 678.588 80.8291C678.76 80.8291 678.912 80.8166 679.044 80.7915V81.9678C678.74 82.0609 678.427 82.1074 678.104 82.1074C677.016 82.1074 676.461 81.5578 676.439 80.4585V77.3271H675.591V76.1885H676.439V74.7598H677.991ZM685.953 79.1372H684.669V82H683.058V74.1797H685.964C686.887 74.1797 687.6 74.3856 688.101 74.7974C688.603 75.2091 688.853 75.791 688.853 76.543C688.853 77.0765 688.737 77.5223 688.504 77.8804C688.275 78.2349 687.926 78.5177 687.457 78.729L689.149 81.9248V82H687.419L685.953 79.1372ZM684.669 77.832H685.969C686.374 77.832 686.687 77.73 686.909 77.5259C687.131 77.3182 687.242 77.0335 687.242 76.6719C687.242 76.3031 687.136 76.013 686.925 75.8018C686.717 75.5905 686.397 75.4849 685.964 75.4849H684.669V77.832ZM692.839 82.1074C691.987 82.1074 691.292 81.846 690.755 81.3232C690.222 80.8005 689.955 80.104 689.955 79.2339V79.0835C689.955 78.4998 690.068 77.9788 690.293 77.5205C690.519 77.0586 690.838 76.7041 691.249 76.457C691.665 76.2064 692.138 76.0811 692.667 76.0811C693.462 76.0811 694.087 76.3317 694.542 76.833C695 77.3343 695.229 78.0451 695.229 78.9653V79.5991H691.529C691.579 79.9787 691.729 80.283 691.98 80.5122C692.234 80.7414 692.555 80.856 692.941 80.856C693.539 80.856 694.007 80.6393 694.343 80.2061L695.106 81.0601C694.873 81.3895 694.558 81.6473 694.161 81.8335C693.763 82.0161 693.323 82.1074 692.839 82.1074ZM692.662 77.3379C692.354 77.3379 692.103 77.4417 691.91 77.6494C691.72 77.8571 691.599 78.1543 691.545 78.541H693.704V78.4175C693.697 78.0737 693.604 77.8088 693.425 77.6226C693.246 77.4328 692.992 77.3379 692.662 77.3379ZM699.446 80.394C699.446 80.2043 699.352 80.0557 699.162 79.9482C698.976 79.8372 698.675 79.7388 698.259 79.6528C696.877 79.3628 696.186 78.7756 696.186 77.8911C696.186 77.3755 696.399 76.9458 696.825 76.6021C697.255 76.2547 697.815 76.0811 698.507 76.0811C699.244 76.0811 699.833 76.2547 700.274 76.6021C700.718 76.9494 700.94 77.4006 700.94 77.9556H699.387C699.387 77.7336 699.316 77.5509 699.173 77.4077C699.029 77.2609 698.806 77.1875 698.501 77.1875C698.24 77.1875 698.037 77.2466 697.894 77.3647C697.751 77.4829 697.679 77.6333 697.679 77.8159C697.679 77.9878 697.76 78.1274 697.921 78.2349C698.086 78.3387 698.362 78.43 698.748 78.5088C699.135 78.584 699.461 78.6699 699.726 78.7666C700.546 79.0674 700.956 79.5884 700.956 80.3296C700.956 80.8595 700.728 81.2892 700.274 81.6187C699.819 81.9445 699.232 82.1074 698.512 82.1074C698.025 82.1074 697.592 82.0215 697.212 81.8496C696.836 81.6742 696.541 81.436 696.326 81.1353C696.111 80.8309 696.004 80.5033 696.004 80.1523H697.475C697.49 80.4281 697.592 80.6393 697.781 80.7861C697.971 80.9329 698.225 81.0063 698.544 81.0063C698.841 81.0063 699.065 80.9508 699.216 80.8398C699.37 80.7253 699.446 80.5767 699.446 80.394ZM705.624 81.4092C705.241 81.8747 704.711 82.1074 704.034 82.1074C703.411 82.1074 702.935 81.9284 702.605 81.5703C702.28 81.2122 702.113 80.6877 702.106 79.9966V76.1885H703.658V79.9429C703.658 80.548 703.934 80.8506 704.485 80.8506C705.012 80.8506 705.373 80.668 705.57 80.3027V76.1885H707.128V82H705.667L705.624 81.4092ZM710.12 82H708.563V73.75H710.12V82ZM713.446 74.7598V76.1885H714.439V77.3271H713.446V80.2275C713.446 80.4424 713.487 80.5964 713.569 80.6895C713.652 80.7826 713.809 80.8291 714.042 80.8291C714.214 80.8291 714.366 80.8166 714.498 80.7915V81.9678C714.194 82.0609 713.881 82.1074 713.558 82.1074C712.47 82.1074 711.915 81.5578 711.893 80.4585V77.3271H711.045V76.1885H711.893V74.7598H713.446Z" fill="#333333"/>
<rect x="556" y="53" width="80" height="80" rx="4" fill="#E0E0E0" stroke="#828282" stroke-width="2"/>
<rect x="564" y="60" width="65" height="6" rx="1" fill="#828282"/>
<rect x="607" y="75" width="22" height="40" rx="1" fill="#828282"/>
<rect x="564" y="75" width="38" height="7" rx="1" fill="#828282"/>
<rect x="564" y="86" width="38" height="7" rx="1" fill="#828282"/>
<rect x="564" y="97" width="38" height="7" rx="1" fill="#828282"/>
<rect x="564" y="108" width="38" height="7" rx="1" fill="#828282"/>
<path d="M564.077 40.7637C564.077 40.4316 563.96 40.1777 563.726 40.002C563.491 39.8223 563.069 39.6348 562.46 39.4395C561.851 39.2402 561.368 39.0449 561.013 38.8535C560.044 38.3301 559.56 37.625 559.56 36.7383C559.56 36.2773 559.688 35.8672 559.946 35.5078C560.208 35.1445 560.581 34.8613 561.065 34.6582C561.554 34.4551 562.101 34.3535 562.706 34.3535C563.315 34.3535 563.858 34.4648 564.335 34.6875C564.812 34.9062 565.181 35.2168 565.442 35.6191C565.708 36.0215 565.841 36.4785 565.841 36.9902H564.083C564.083 36.5996 563.96 36.2969 563.714 36.082C563.468 35.8633 563.122 35.7539 562.677 35.7539C562.247 35.7539 561.913 35.8457 561.675 36.0293C561.437 36.209 561.317 36.4473 561.317 36.7441C561.317 37.0215 561.456 37.2539 561.733 37.4414C562.015 37.6289 562.427 37.8047 562.97 37.9688C563.97 38.2695 564.698 38.6426 565.155 39.0879C565.612 39.5332 565.841 40.0879 565.841 40.752C565.841 41.4902 565.562 42.0703 565.003 42.4922C564.444 42.9102 563.692 43.1191 562.747 43.1191C562.091 43.1191 561.493 43 560.954 42.7617C560.415 42.5195 560.003 42.1895 559.718 41.7715C559.437 41.3535 559.296 40.8691 559.296 40.3184H561.06C561.06 41.2598 561.622 41.7305 562.747 41.7305C563.165 41.7305 563.491 41.6465 563.726 41.4785C563.96 41.3066 564.077 41.0684 564.077 40.7637ZM569.843 43.1191C568.913 43.1191 568.155 42.834 567.569 42.2637C566.987 41.6934 566.696 40.9336 566.696 39.9844V39.8203C566.696 39.1836 566.819 38.6152 567.065 38.1152C567.312 37.6113 567.659 37.2246 568.108 36.9551C568.562 36.6816 569.077 36.5449 569.655 36.5449C570.522 36.5449 571.204 36.8184 571.7 37.3652C572.2 37.9121 572.45 38.6875 572.45 39.6914V40.3828H568.413C568.468 40.7969 568.632 41.1289 568.905 41.3789C569.183 41.6289 569.532 41.7539 569.954 41.7539C570.606 41.7539 571.116 41.5176 571.483 41.0449L572.315 41.9766C572.062 42.3359 571.718 42.6172 571.284 42.8203C570.851 43.0195 570.37 43.1191 569.843 43.1191ZM569.649 37.916C569.313 37.916 569.04 38.0293 568.829 38.2559C568.622 38.4824 568.489 38.8066 568.431 39.2285H570.786V39.0938C570.778 38.7188 570.677 38.4297 570.481 38.2266C570.286 38.0195 570.009 37.916 569.649 37.916ZM577.091 43.002C577.013 42.8496 576.956 42.6602 576.921 42.4336C576.511 42.8906 575.978 43.1191 575.321 43.1191C574.7 43.1191 574.185 42.9395 573.774 42.5801C573.368 42.2207 573.165 41.7676 573.165 41.2207C573.165 40.5488 573.413 40.0332 573.909 39.6738C574.409 39.3145 575.13 39.1328 576.071 39.1289H576.851V38.7656C576.851 38.4727 576.774 38.2383 576.622 38.0625C576.474 37.8867 576.237 37.7988 575.913 37.7988C575.628 37.7988 575.403 37.8672 575.239 38.0039C575.079 38.1406 574.999 38.3281 574.999 38.5664H573.306C573.306 38.1992 573.419 37.8594 573.646 37.5469C573.872 37.2344 574.192 36.9902 574.606 36.8145C575.021 36.6348 575.485 36.5449 576.001 36.5449C576.782 36.5449 577.401 36.7422 577.858 37.1367C578.319 37.5273 578.55 38.0781 578.55 38.7891V41.5371C578.554 42.1387 578.638 42.5938 578.802 42.9023V43.002H577.091ZM575.69 41.8242C575.94 41.8242 576.171 41.7695 576.382 41.6602C576.593 41.5469 576.749 41.3965 576.851 41.209V40.1191H576.218C575.37 40.1191 574.919 40.4121 574.864 40.998L574.858 41.0977C574.858 41.3086 574.933 41.4824 575.081 41.6191C575.229 41.7559 575.433 41.8242 575.69 41.8242ZM583.413 38.25C583.183 38.2188 582.979 38.2031 582.804 38.2031C582.163 38.2031 581.743 38.4199 581.544 38.8535V43.002H579.851V36.6621H581.45L581.497 37.418C581.837 36.8359 582.308 36.5449 582.909 36.5449C583.097 36.5449 583.272 36.5703 583.437 36.6211L583.413 38.25ZM586.753 41.7539C587.065 41.7539 587.319 41.668 587.515 41.4961C587.71 41.3242 587.812 41.0957 587.819 40.8105H589.407C589.403 41.2402 589.286 41.6348 589.056 41.9941C588.825 42.3496 588.509 42.627 588.106 42.8262C587.708 43.0215 587.267 43.1191 586.782 43.1191C585.876 43.1191 585.161 42.832 584.638 42.2578C584.114 41.6797 583.853 40.8828 583.853 39.8672V39.7559C583.853 38.7793 584.112 38 584.632 37.418C585.151 36.8359 585.864 36.5449 586.771 36.5449C587.563 36.5449 588.198 36.7715 588.675 37.2246C589.155 37.6738 589.399 38.2734 589.407 39.0234H587.819C587.812 38.6953 587.71 38.4297 587.515 38.2266C587.319 38.0195 587.062 37.916 586.741 37.916C586.347 37.916 586.048 38.0605 585.845 38.3496C585.646 38.6348 585.546 39.0996 585.546 39.7441V39.9199C585.546 40.5723 585.646 41.041 585.845 41.3262C586.044 41.6113 586.347 41.7539 586.753 41.7539ZM592.026 37.3535C592.476 36.8145 593.04 36.5449 593.72 36.5449C595.095 36.5449 595.792 37.3438 595.812 38.9414V43.002H594.118V38.9883C594.118 38.625 594.04 38.3574 593.884 38.1855C593.728 38.0098 593.468 37.9219 593.104 37.9219C592.608 37.9219 592.249 38.1133 592.026 38.4961V43.002H590.333V34.002H592.026V37.3535ZM602.485 34.4707L604.677 40.6582L606.856 34.4707H609.165V43.002H607.401V40.6699L607.577 36.6445L605.274 43.002H604.067L601.771 36.6504L601.946 40.6699V43.002H600.188V34.4707H602.485ZM610.325 39.7734C610.325 39.1445 610.446 38.584 610.688 38.0918C610.931 37.5996 611.278 37.2188 611.731 36.9492C612.188 36.6797 612.718 36.5449 613.319 36.5449C614.175 36.5449 614.872 36.8066 615.411 37.3301C615.954 37.8535 616.257 38.5645 616.319 39.4629L616.331 39.8965C616.331 40.8691 616.06 41.6504 615.517 42.2402C614.974 42.8262 614.245 43.1191 613.331 43.1191C612.417 43.1191 611.687 42.8262 611.14 42.2402C610.597 41.6543 610.325 40.8574 610.325 39.8496V39.7734ZM612.019 39.8965C612.019 40.498 612.132 40.959 612.358 41.2793C612.585 41.5957 612.909 41.7539 613.331 41.7539C613.741 41.7539 614.062 41.5977 614.292 41.2852C614.522 40.9688 614.638 40.4648 614.638 39.7734C614.638 39.1836 614.522 38.7266 614.292 38.4023C614.062 38.0781 613.737 37.916 613.319 37.916C612.905 37.916 612.585 38.0781 612.358 38.4023C612.132 38.7227 612.019 39.2207 612.019 39.8965ZM617.11 39.7852C617.11 38.7969 617.331 38.0098 617.772 37.4238C618.218 36.8379 618.825 36.5449 619.595 36.5449C620.212 36.5449 620.722 36.7754 621.124 37.2363V34.002H622.823V43.002H621.294L621.212 42.3281C620.79 42.8555 620.247 43.1191 619.583 43.1191C618.837 43.1191 618.237 42.8262 617.784 42.2402C617.335 41.6504 617.11 40.832 617.11 39.7852ZM618.804 39.9082C618.804 40.502 618.907 40.957 619.114 41.2734C619.321 41.5898 619.622 41.748 620.017 41.748C620.54 41.748 620.909 41.5273 621.124 41.0859V38.584C620.913 38.1426 620.548 37.9219 620.028 37.9219C619.212 37.9219 618.804 38.584 618.804 39.9082ZM627.81 43.002C627.731 42.8496 627.675 42.6602 627.64 42.4336C627.229 42.8906 626.696 43.1191 626.04 43.1191C625.419 43.1191 624.903 42.9395 624.493 42.5801C624.087 42.2207 623.884 41.7676 623.884 41.2207C623.884 40.5488 624.132 40.0332 624.628 39.6738C625.128 39.3145 625.849 39.1328 626.79 39.1289H627.569V38.7656C627.569 38.4727 627.493 38.2383 627.341 38.0625C627.192 37.8867 626.956 37.7988 626.632 37.7988C626.347 37.7988 626.122 37.8672 625.958 38.0039C625.798 38.1406 625.718 38.3281 625.718 38.5664H624.024C624.024 38.1992 624.138 37.8594 624.364 37.5469C624.591 37.2344 624.911 36.9902 625.325 36.8145C625.739 36.6348 626.204 36.5449 626.72 36.5449C627.501 36.5449 628.12 36.7422 628.577 37.1367C629.038 37.5273 629.269 38.0781 629.269 38.7891V41.5371C629.272 42.1387 629.356 42.5938 629.521 42.9023V43.002H627.81ZM626.409 41.8242C626.659 41.8242 626.89 41.7695 627.101 41.6602C627.312 41.5469 627.468 41.3965 627.569 41.209V40.1191H626.937C626.089 40.1191 625.638 40.4121 625.583 40.998L625.577 41.0977C625.577 41.3086 625.651 41.4824 625.8 41.6191C625.948 41.7559 626.151 41.8242 626.409 41.8242ZM632.356 43.002H630.657V34.002H632.356V43.002Z" fill="#454D58"/>
<rect x="714" y="194" width="167" height="85" rx="10" fill="#BBBBBB"/>
<path fill-rule="evenodd" clip-rule="evenodd" d="M798.562 185.919L809.875 197.233L797.439 209.669L786.125 198.356L798.562 185.919Z" fill="#BBBBBB"/>
<path d="M736.417 213.588C736.417 214.498 736.256 215.296 735.935 215.981C735.613 216.667 735.152 217.196 734.551 217.568C733.954 217.941 733.269 218.127 732.494 218.127C731.728 218.127 731.045 217.943 730.444 217.575C729.843 217.207 729.377 216.682 729.047 216C728.717 215.315 728.55 214.528 728.546 213.639V213.182C728.546 212.272 728.709 211.472 729.035 210.783C729.365 210.089 729.828 209.558 730.425 209.189C731.026 208.817 731.711 208.631 732.481 208.631C733.252 208.631 733.935 208.817 734.532 209.189C735.133 209.558 735.596 210.089 735.922 210.783C736.252 211.472 736.417 212.27 736.417 213.176V213.588ZM734.487 213.169C734.487 212.2 734.314 211.464 733.967 210.96C733.62 210.457 733.125 210.205 732.481 210.205C731.842 210.205 731.349 210.455 731.002 210.954C730.655 211.449 730.48 212.177 730.476 213.138V213.588C730.476 214.532 730.649 215.264 730.996 215.785C731.343 216.305 731.842 216.565 732.494 216.565C733.133 216.565 733.624 216.316 733.967 215.816C734.31 215.313 734.483 214.581 734.487 213.62V213.169ZM744.079 214.629C744.079 215.687 743.838 216.536 743.356 217.175C742.878 217.81 742.23 218.127 741.413 218.127C740.719 218.127 740.159 217.886 739.731 217.403V220.641H737.897V211.132H739.598L739.661 211.805C740.106 211.271 740.686 211.005 741.401 211.005C742.247 211.005 742.905 211.318 743.375 211.944C743.845 212.571 744.079 213.434 744.079 214.534V214.629ZM742.245 214.496C742.245 213.857 742.131 213.364 741.902 213.017C741.678 212.67 741.35 212.497 740.918 212.497C740.343 212.497 739.947 212.717 739.731 213.157V215.969C739.956 216.422 740.356 216.648 740.931 216.648C741.807 216.648 742.245 215.931 742.245 214.496ZM748.6 218.127C747.593 218.127 746.772 217.818 746.137 217.2C745.506 216.582 745.191 215.759 745.191 214.731V214.553C745.191 213.863 745.324 213.248 745.591 212.706C745.858 212.16 746.234 211.741 746.721 211.449C747.212 211.153 747.77 211.005 748.397 211.005C749.336 211.005 750.075 211.301 750.612 211.894C751.154 212.486 751.425 213.326 751.425 214.414V215.163H747.051C747.11 215.611 747.288 215.971 747.584 216.242C747.885 216.513 748.263 216.648 748.72 216.648C749.427 216.648 749.979 216.392 750.377 215.88L751.279 216.889C751.003 217.278 750.631 217.583 750.161 217.803C749.692 218.019 749.171 218.127 748.6 218.127ZM748.39 212.49C748.026 212.49 747.73 212.613 747.502 212.858C747.277 213.104 747.134 213.455 747.07 213.912H749.622V213.766C749.613 213.36 749.503 213.047 749.292 212.827C749.08 212.602 748.78 212.49 748.39 212.49ZM754.377 211.132L754.434 211.925C754.925 211.312 755.583 211.005 756.408 211.005C757.136 211.005 757.678 211.219 758.033 211.646C758.389 212.073 758.571 212.712 758.579 213.563V218H756.745V213.607C756.745 213.218 756.66 212.937 756.491 212.763C756.322 212.585 756.04 212.497 755.647 212.497C755.13 212.497 754.743 212.717 754.485 213.157V218H752.65V211.132H754.377ZM763.912 216.102C763.912 215.878 763.8 215.702 763.576 215.575C763.356 215.444 763 215.328 762.509 215.226C760.876 214.883 760.059 214.189 760.059 213.144C760.059 212.535 760.311 212.027 760.814 211.621C761.322 211.21 761.985 211.005 762.801 211.005C763.673 211.005 764.369 211.21 764.89 211.621C765.414 212.031 765.677 212.564 765.677 213.22H763.842C763.842 212.958 763.758 212.742 763.588 212.573C763.419 212.399 763.155 212.312 762.795 212.312C762.486 212.312 762.247 212.382 762.078 212.522C761.908 212.662 761.824 212.839 761.824 213.055C761.824 213.258 761.919 213.423 762.109 213.55C762.304 213.673 762.63 213.781 763.087 213.874C763.544 213.963 763.929 214.064 764.242 214.179C765.211 214.534 765.696 215.15 765.696 216.026C765.696 216.652 765.427 217.16 764.89 217.549C764.352 217.934 763.658 218.127 762.808 218.127C762.232 218.127 761.72 218.025 761.271 217.822C760.827 217.615 760.478 217.333 760.224 216.978C759.97 216.618 759.843 216.231 759.843 215.816H761.582C761.599 216.142 761.72 216.392 761.944 216.565C762.169 216.739 762.469 216.826 762.846 216.826C763.197 216.826 763.461 216.76 763.639 216.629C763.821 216.493 763.912 216.318 763.912 216.102ZM774.413 212.852C774.163 212.818 773.943 212.801 773.753 212.801C773.059 212.801 772.604 213.036 772.388 213.506V218H770.553V211.132H772.286L772.337 211.951C772.705 211.32 773.215 211.005 773.867 211.005C774.07 211.005 774.26 211.032 774.438 211.087L774.413 212.852ZM778.552 218.127C777.545 218.127 776.724 217.818 776.089 217.2C775.459 216.582 775.144 215.759 775.144 214.731V214.553C775.144 213.863 775.277 213.248 775.544 212.706C775.81 212.16 776.187 211.741 776.673 211.449C777.164 211.153 777.723 211.005 778.349 211.005C779.289 211.005 780.027 211.301 780.565 211.894C781.106 212.486 781.377 213.326 781.377 214.414V215.163H777.003C777.063 215.611 777.24 215.971 777.537 216.242C777.837 216.513 778.216 216.648 778.673 216.648C779.38 216.648 779.932 216.392 780.33 215.88L781.231 216.889C780.956 217.278 780.584 217.583 780.114 217.803C779.644 218.019 779.124 218.127 778.552 218.127ZM778.343 212.49C777.979 212.49 777.683 212.613 777.454 212.858C777.23 213.104 777.086 213.455 777.023 213.912H779.574V213.766C779.566 213.36 779.456 213.047 779.244 212.827C779.033 212.602 778.732 212.49 778.343 212.49ZM786.361 216.102C786.361 215.878 786.249 215.702 786.024 215.575C785.804 215.444 785.449 215.328 784.958 215.226C783.324 214.883 782.508 214.189 782.508 213.144C782.508 212.535 782.76 212.027 783.263 211.621C783.771 211.21 784.433 211.005 785.25 211.005C786.122 211.005 786.818 211.21 787.338 211.621C787.863 212.031 788.125 212.564 788.125 213.22H786.291C786.291 212.958 786.206 212.742 786.037 212.573C785.868 212.399 785.603 212.312 785.244 212.312C784.935 212.312 784.696 212.382 784.526 212.522C784.357 212.662 784.272 212.839 784.272 213.055C784.272 213.258 784.368 213.423 784.558 213.55C784.753 213.673 785.079 213.781 785.536 213.874C785.993 213.963 786.378 214.064 786.691 214.179C787.66 214.534 788.144 215.15 788.144 216.026C788.144 216.652 787.876 217.16 787.338 217.549C786.801 217.934 786.107 218.127 785.256 218.127C784.681 218.127 784.169 218.025 783.72 217.822C783.276 217.615 782.927 217.333 782.673 216.978C782.419 216.618 782.292 216.231 782.292 215.816H784.031C784.048 216.142 784.169 216.392 784.393 216.565C784.617 216.739 784.918 216.826 785.294 216.826C785.646 216.826 785.91 216.76 786.088 216.629C786.27 216.493 786.361 216.318 786.361 216.102ZM793.661 217.302C793.209 217.852 792.582 218.127 791.783 218.127C791.046 218.127 790.483 217.915 790.094 217.492C789.709 217.069 789.512 216.449 789.504 215.632V211.132H791.338V215.569C791.338 216.284 791.664 216.642 792.316 216.642C792.938 216.642 793.365 216.426 793.598 215.994V211.132H795.439V218H793.712L793.661 217.302ZM798.975 218H797.134V208.25H798.975V218ZM802.905 209.443V211.132H804.08V212.478H802.905V215.905C802.905 216.159 802.954 216.341 803.051 216.451C803.149 216.561 803.335 216.616 803.61 216.616C803.813 216.616 803.993 216.601 804.149 216.572V217.962C803.79 218.072 803.419 218.127 803.039 218.127C801.752 218.127 801.096 217.477 801.071 216.178V212.478H800.068V211.132H801.071V209.443H802.905ZM805.407 217.099C805.407 216.807 805.504 216.57 805.699 216.388C805.898 216.206 806.146 216.115 806.442 216.115C806.742 216.115 806.99 216.206 807.184 216.388C807.383 216.57 807.483 216.807 807.483 217.099C807.483 217.386 807.385 217.621 807.191 217.803C806.996 217.981 806.746 218.07 806.442 218.07C806.141 218.07 805.894 217.981 805.699 217.803C805.504 217.621 805.407 217.386 805.407 217.099ZM805.407 211.9C805.407 211.608 805.504 211.371 805.699 211.189C805.898 211.007 806.146 210.916 806.442 210.916C806.742 210.916 806.99 211.007 807.184 211.189C807.383 211.371 807.483 211.608 807.483 211.9C807.483 212.188 807.385 212.423 807.191 212.604C806.996 212.782 806.746 212.871 806.442 212.871C806.141 212.871 805.894 212.782 805.699 212.604C805.504 212.423 805.407 212.188 805.407 211.9ZM731.333 244.553H728.235V243.595H731.333V244.553ZM736.323 248V238.758H738.932C739.736 238.758 740.447 238.936 741.065 239.291C741.683 239.646 742.159 240.152 742.493 240.808C742.832 241.464 743.003 242.217 743.008 243.068V243.658C743.008 244.53 742.838 245.294 742.5 245.95C742.165 246.606 741.685 247.109 741.059 247.46C740.437 247.812 739.711 247.992 738.882 248H736.323ZM737.542 239.761V247.003H738.824C739.764 247.003 740.494 246.711 741.014 246.127C741.539 245.543 741.801 244.712 741.801 243.633V243.093C741.801 242.044 741.554 241.229 741.059 240.649C740.568 240.065 739.87 239.769 738.964 239.761H737.542ZM747.737 248.127C746.806 248.127 746.049 247.822 745.465 247.213C744.881 246.599 744.589 245.78 744.589 244.756V244.541C744.589 243.859 744.718 243.252 744.976 242.719C745.239 242.181 745.602 241.762 746.068 241.462C746.538 241.157 747.046 241.005 747.591 241.005C748.484 241.005 749.178 241.299 749.673 241.887C750.169 242.475 750.416 243.318 750.416 244.414V244.902H745.763C745.78 245.579 745.977 246.127 746.354 246.546C746.734 246.961 747.217 247.168 747.801 247.168C748.216 247.168 748.567 247.084 748.855 246.915C749.142 246.745 749.394 246.521 749.61 246.242L750.327 246.8C749.752 247.685 748.888 248.127 747.737 248.127ZM747.591 241.97C747.117 241.97 746.72 242.143 746.398 242.49C746.076 242.833 745.878 243.315 745.801 243.938H749.242V243.849C749.208 243.252 749.047 242.791 748.759 242.465C748.472 242.135 748.082 241.97 747.591 241.97ZM754.175 246.407L755.876 241.132H757.076L754.613 248H753.718L751.229 241.132H752.429L754.175 246.407ZM759.698 248H758.524V241.132H759.698V248ZM758.429 239.31C758.429 239.12 758.486 238.959 758.6 238.828C758.718 238.696 758.892 238.631 759.12 238.631C759.349 238.631 759.522 238.696 759.641 238.828C759.759 238.959 759.819 239.12 759.819 239.31C759.819 239.5 759.759 239.659 759.641 239.786C759.522 239.913 759.349 239.977 759.12 239.977C758.892 239.977 758.718 239.913 758.6 239.786C758.486 239.659 758.429 239.5 758.429 239.31ZM764.555 247.168C764.974 247.168 765.34 247.042 765.653 246.788C765.966 246.534 766.14 246.216 766.174 245.835H767.284C767.263 246.229 767.128 246.604 766.878 246.959C766.628 247.314 766.294 247.598 765.875 247.81C765.46 248.021 765.02 248.127 764.555 248.127C763.62 248.127 762.875 247.816 762.321 247.194C761.77 246.568 761.495 245.713 761.495 244.629V244.433C761.495 243.764 761.618 243.169 761.863 242.649C762.109 242.128 762.46 241.724 762.917 241.437C763.378 241.149 763.922 241.005 764.549 241.005C765.319 241.005 765.958 241.236 766.466 241.697C766.978 242.158 767.251 242.757 767.284 243.493H766.174C766.14 243.049 765.97 242.685 765.666 242.401C765.365 242.114 764.993 241.97 764.549 241.97C763.952 241.97 763.488 242.186 763.158 242.617C762.833 243.045 762.67 243.665 762.67 244.477V244.699C762.67 245.491 762.833 246.1 763.158 246.527C763.484 246.955 763.95 247.168 764.555 247.168ZM771.671 248.127C770.74 248.127 769.983 247.822 769.399 247.213C768.815 246.599 768.523 245.78 768.523 244.756V244.541C768.523 243.859 768.652 243.252 768.91 242.719C769.173 242.181 769.537 241.762 770.002 241.462C770.472 241.157 770.98 241.005 771.525 241.005C772.418 241.005 773.112 241.299 773.607 241.887C774.103 242.475 774.35 243.318 774.35 244.414V244.902H769.697C769.714 245.579 769.911 246.127 770.288 246.546C770.669 246.961 771.151 247.168 771.735 247.168C772.15 247.168 772.501 247.084 772.789 246.915C773.076 246.745 773.328 246.521 773.544 246.242L774.261 246.8C773.686 247.685 772.822 248.127 771.671 248.127ZM771.525 241.97C771.051 241.97 770.654 242.143 770.332 242.49C770.01 242.833 769.812 243.315 769.735 243.938H773.176V243.849C773.142 243.252 772.981 242.791 772.693 242.465C772.406 242.135 772.016 241.97 771.525 241.97ZM780.547 241.963C781.068 241.324 781.745 241.005 782.578 241.005C784.03 241.005 784.762 241.824 784.775 243.461V248H783.6V243.455C783.596 242.96 783.482 242.594 783.258 242.357C783.038 242.12 782.693 242.001 782.223 242.001C781.842 242.001 781.508 242.103 781.22 242.306C780.932 242.509 780.708 242.776 780.547 243.106V248H779.373V238.25H780.547V241.963ZM788.026 248H786.851V241.132H788.026V248ZM786.756 239.31C786.756 239.12 786.813 238.959 786.927 238.828C787.046 238.696 787.219 238.631 787.448 238.631C787.676 238.631 787.85 238.696 787.968 238.828C788.087 238.959 788.146 239.12 788.146 239.31C788.146 239.5 788.087 239.659 787.968 239.786C787.85 239.913 787.676 239.977 787.448 239.977C787.219 239.977 787.046 239.913 786.927 239.786C786.813 239.659 786.756 239.5 786.756 239.31ZM789.848 244.509C789.848 243.438 790.096 242.588 790.591 241.957C791.086 241.322 791.742 241.005 792.559 241.005C793.397 241.005 794.05 241.301 794.52 241.894L794.577 241.132H795.65V247.835C795.65 248.724 795.385 249.424 794.856 249.936C794.332 250.448 793.625 250.704 792.736 250.704C792.241 250.704 791.757 250.598 791.283 250.387C790.809 250.175 790.447 249.885 790.197 249.517L790.807 248.812C791.31 249.435 791.926 249.746 792.654 249.746C793.225 249.746 793.669 249.585 793.987 249.263C794.308 248.942 794.469 248.489 794.469 247.905V247.314C794 247.856 793.358 248.127 792.546 248.127C791.742 248.127 791.09 247.803 790.591 247.156C790.096 246.508 789.848 245.626 789.848 244.509ZM791.029 244.642C791.029 245.417 791.188 246.026 791.505 246.47C791.822 246.91 792.267 247.13 792.838 247.13C793.578 247.13 794.122 246.794 794.469 246.121V242.985C794.11 242.329 793.57 242.001 792.851 242.001C792.279 242.001 791.833 242.224 791.511 242.668C791.19 243.112 791.029 243.77 791.029 244.642ZM798.818 241.963C799.339 241.324 800.016 241.005 800.85 241.005C802.301 241.005 803.033 241.824 803.046 243.461V248H801.871V243.455C801.867 242.96 801.753 242.594 801.529 242.357C801.309 242.12 800.964 242.001 800.494 242.001C800.113 242.001 799.779 242.103 799.491 242.306C799.203 242.509 798.979 242.776 798.818 243.106V248H797.644V238.25H798.818V241.963ZM806.297 248H805.122V238.25H806.297V248ZM809.674 248H808.5V241.132H809.674V248ZM808.405 239.31C808.405 239.12 808.462 238.959 808.576 238.828C808.695 238.696 808.868 238.631 809.097 238.631C809.325 238.631 809.499 238.696 809.617 238.828C809.736 238.959 809.795 239.12 809.795 239.31C809.795 239.5 809.736 239.659 809.617 239.786C809.499 239.913 809.325 239.977 809.097 239.977C808.868 239.977 808.695 239.913 808.576 239.786C808.462 239.659 808.405 239.5 808.405 239.31ZM811.497 244.509C811.497 243.438 811.745 242.588 812.24 241.957C812.735 241.322 813.391 241.005 814.208 241.005C815.045 241.005 815.699 241.301 816.169 241.894L816.226 241.132H817.299V247.835C817.299 248.724 817.034 249.424 816.505 249.936C815.981 250.448 815.274 250.704 814.385 250.704C813.89 250.704 813.406 250.598 812.932 250.387C812.458 250.175 812.096 249.885 811.846 249.517L812.456 248.812C812.959 249.435 813.575 249.746 814.303 249.746C814.874 249.746 815.318 249.585 815.636 249.263C815.957 248.942 816.118 248.489 816.118 247.905V247.314C815.648 247.856 815.007 248.127 814.195 248.127C813.391 248.127 812.739 247.803 812.24 247.156C811.745 246.508 811.497 245.626 811.497 244.509ZM812.678 244.642C812.678 245.417 812.836 246.026 813.154 246.47C813.471 246.91 813.916 247.13 814.487 247.13C815.227 247.13 815.771 246.794 816.118 246.121V242.985C815.758 242.329 815.219 242.001 814.5 242.001C813.928 242.001 813.482 242.224 813.16 242.668C812.839 243.112 812.678 243.77 812.678 244.642ZM820.467 241.963C820.988 241.324 821.665 241.005 822.498 241.005C823.95 241.005 824.682 241.824 824.695 243.461V248H823.52V243.455C823.516 242.96 823.402 242.594 823.178 242.357C822.958 242.12 822.613 242.001 822.143 242.001C821.762 242.001 821.428 242.103 821.14 242.306C820.852 242.509 820.628 242.776 820.467 243.106V248H819.293V238.25H820.467V241.963ZM828.263 239.469V241.132H829.545V242.04H828.263V246.299C828.263 246.574 828.32 246.781 828.434 246.921C828.549 247.056 828.743 247.124 829.018 247.124C829.154 247.124 829.34 247.099 829.577 247.048V248C829.268 248.085 828.968 248.127 828.676 248.127C828.151 248.127 827.755 247.968 827.489 247.651C827.222 247.333 827.089 246.883 827.089 246.299V242.04H825.838V241.132H827.089V239.469H828.263ZM833.989 248.127C833.058 248.127 832.301 247.822 831.717 247.213C831.133 246.599 830.841 245.78 830.841 244.756V244.541C830.841 243.859 830.97 243.252 831.228 242.719C831.49 242.181 831.854 241.762 832.32 241.462C832.79 241.157 833.297 241.005 833.843 241.005C834.736 241.005 835.43 241.299 835.925 241.887C836.421 242.475 836.668 243.318 836.668 244.414V244.902H832.015C832.032 245.579 832.229 246.127 832.606 246.546C832.986 246.961 833.469 247.168 834.053 247.168C834.468 247.168 834.819 247.084 835.107 246.915C835.394 246.745 835.646 246.521 835.862 246.242L836.579 246.8C836.004 247.685 835.14 248.127 833.989 248.127ZM833.843 241.97C833.369 241.97 832.972 242.143 832.65 242.49C832.328 242.833 832.129 243.315 832.053 243.938H835.494V243.849C835.46 243.252 835.299 242.791 835.011 242.465C834.724 242.135 834.334 241.97 833.843 241.97ZM837.964 244.509C837.964 243.455 838.214 242.609 838.713 241.97C839.212 241.326 839.866 241.005 840.674 241.005C841.478 241.005 842.115 241.28 842.585 241.83V238.25H843.759V248H842.68L842.623 247.264C842.153 247.839 841.499 248.127 840.662 248.127C839.866 248.127 839.216 247.801 838.713 247.149C838.214 246.498 837.964 245.647 837.964 244.598V244.509ZM839.138 244.642C839.138 245.421 839.299 246.03 839.621 246.47C839.942 246.91 840.387 247.13 840.954 247.13C841.698 247.13 842.242 246.796 842.585 246.127V242.973C842.234 242.325 841.694 242.001 840.966 242.001C840.391 242.001 839.942 242.224 839.621 242.668C839.299 243.112 839.138 243.77 839.138 244.642ZM731.333 259.553H728.235V258.595H731.333V259.553ZM736.323 263V253.758H738.932C739.736 253.758 740.447 253.936 741.065 254.291C741.683 254.646 742.159 255.152 742.493 255.808C742.832 256.464 743.003 257.217 743.008 258.068V258.658C743.008 259.53 742.838 260.294 742.5 260.95C742.165 261.606 741.685 262.109 741.059 262.46C740.437 262.812 739.711 262.992 738.882 263H736.323ZM737.542 254.761V262.003H738.824C739.764 262.003 740.494 261.711 741.014 261.127C741.539 260.543 741.801 259.712 741.801 258.633V258.093C741.801 257.044 741.554 256.229 741.059 255.649C740.568 255.065 739.87 254.769 738.964 254.761H737.542ZM747.737 263.127C746.806 263.127 746.049 262.822 745.465 262.213C744.881 261.599 744.589 260.78 744.589 259.756V259.541C744.589 258.859 744.718 258.252 744.976 257.719C745.239 257.181 745.602 256.762 746.068 256.462C746.538 256.157 747.046 256.005 747.591 256.005C748.484 256.005 749.178 256.299 749.673 256.887C750.169 257.475 750.416 258.318 750.416 259.414V259.902H745.763C745.78 260.579 745.977 261.127 746.354 261.546C746.734 261.961 747.217 262.168 747.801 262.168C748.216 262.168 748.567 262.084 748.855 261.915C749.142 261.745 749.394 261.521 749.61 261.242L750.327 261.8C749.752 262.685 748.888 263.127 747.737 263.127ZM747.591 256.97C747.117 256.97 746.72 257.143 746.398 257.49C746.076 257.833 745.878 258.315 745.801 258.938H749.242V258.849C749.208 258.252 749.047 257.791 748.759 257.465C748.472 257.135 748.082 256.97 747.591 256.97ZM754.175 261.407L755.876 256.132H757.076L754.613 263H753.718L751.229 256.132H752.429L754.175 261.407ZM759.698 263H758.524V256.132H759.698V263ZM758.429 254.31C758.429 254.12 758.486 253.959 758.6 253.828C758.718 253.696 758.892 253.631 759.12 253.631C759.349 253.631 759.522 253.696 759.641 253.828C759.759 253.959 759.819 254.12 759.819 254.31C759.819 254.5 759.759 254.659 759.641 254.786C759.522 254.913 759.349 254.977 759.12 254.977C758.892 254.977 758.718 254.913 758.6 254.786C758.486 254.659 758.429 254.5 758.429 254.31ZM764.555 262.168C764.974 262.168 765.34 262.042 765.653 261.788C765.966 261.534 766.14 261.216 766.174 260.835H767.284C767.263 261.229 767.128 261.604 766.878 261.959C766.628 262.314 766.294 262.598 765.875 262.81C765.46 263.021 765.02 263.127 764.555 263.127C763.62 263.127 762.875 262.816 762.321 262.194C761.77 261.568 761.495 260.713 761.495 259.629V259.433C761.495 258.764 761.618 258.169 761.863 257.649C762.109 257.128 762.46 256.724 762.917 256.437C763.378 256.149 763.922 256.005 764.549 256.005C765.319 256.005 765.958 256.236 766.466 256.697C766.978 257.158 767.251 257.757 767.284 258.493H766.174C766.14 258.049 765.97 257.685 765.666 257.401C765.365 257.114 764.993 256.97 764.549 256.97C763.952 256.97 763.488 257.186 763.158 257.617C762.833 258.045 762.67 258.665 762.67 259.477V259.699C762.67 260.491 762.833 261.1 763.158 261.527C763.484 261.955 763.95 262.168 764.555 262.168ZM771.671 263.127C770.74 263.127 769.983 262.822 769.399 262.213C768.815 261.599 768.523 260.78 768.523 259.756V259.541C768.523 258.859 768.652 258.252 768.91 257.719C769.173 257.181 769.537 256.762 770.002 256.462C770.472 256.157 770.98 256.005 771.525 256.005C772.418 256.005 773.112 256.299 773.607 256.887C774.103 257.475 774.35 258.318 774.35 259.414V259.902H769.697C769.714 260.579 769.911 261.127 770.288 261.546C770.669 261.961 771.151 262.168 771.735 262.168C772.15 262.168 772.501 262.084 772.789 261.915C773.076 261.745 773.328 261.521 773.544 261.242L774.261 261.8C773.686 262.685 772.822 263.127 771.671 263.127ZM771.525 256.97C771.051 256.97 770.654 257.143 770.332 257.49C770.01 257.833 769.812 258.315 769.735 258.938H773.176V258.849C773.142 258.252 772.981 257.791 772.693 257.465C772.406 257.135 772.016 256.97 771.525 256.97ZM783.372 261.178C783.372 260.861 783.251 260.615 783.01 260.442C782.773 260.264 782.356 260.112 781.76 259.985C781.167 259.858 780.695 259.706 780.344 259.528C779.997 259.35 779.739 259.139 779.57 258.893C779.405 258.648 779.322 258.356 779.322 258.017C779.322 257.454 779.559 256.978 780.033 256.589C780.511 256.2 781.121 256.005 781.861 256.005C782.64 256.005 783.27 256.206 783.753 256.608C784.239 257.01 784.483 257.524 784.483 258.15H783.302C783.302 257.829 783.165 257.552 782.889 257.319C782.619 257.086 782.276 256.97 781.861 256.97C781.434 256.97 781.099 257.063 780.858 257.249C780.617 257.435 780.496 257.679 780.496 257.979C780.496 258.263 780.609 258.476 780.833 258.62C781.057 258.764 781.461 258.902 782.045 259.033C782.633 259.164 783.11 259.32 783.473 259.502C783.837 259.684 784.106 259.904 784.28 260.163C784.457 260.417 784.546 260.728 784.546 261.096C784.546 261.709 784.301 262.202 783.81 262.575C783.319 262.943 782.682 263.127 781.899 263.127C781.349 263.127 780.862 263.03 780.439 262.835C780.016 262.64 779.684 262.369 779.443 262.022C779.206 261.671 779.087 261.292 779.087 260.886H780.262C780.283 261.28 780.439 261.593 780.731 261.826C781.027 262.054 781.417 262.168 781.899 262.168C782.344 262.168 782.699 262.08 782.966 261.902C783.236 261.72 783.372 261.479 783.372 261.178ZM789.143 263.127C788.212 263.127 787.454 262.822 786.87 262.213C786.286 261.599 785.994 260.78 785.994 259.756V259.541C785.994 258.859 786.123 258.252 786.382 257.719C786.644 257.181 787.008 256.762 787.473 256.462C787.943 256.157 788.451 256.005 788.997 256.005C789.89 256.005 790.584 256.299 791.079 256.887C791.574 257.475 791.821 258.318 791.821 259.414V259.902H787.169C787.186 260.579 787.382 261.127 787.759 261.546C788.14 261.961 788.622 262.168 789.206 262.168C789.621 262.168 789.972 262.084 790.26 261.915C790.548 261.745 790.799 261.521 791.015 261.242L791.733 261.8C791.157 262.685 790.294 263.127 789.143 263.127ZM788.997 256.97C788.523 256.97 788.125 257.143 787.803 257.49C787.482 257.833 787.283 258.315 787.207 258.938H790.647V258.849C790.613 258.252 790.452 257.791 790.165 257.465C789.877 257.135 789.488 256.97 788.997 256.97ZM794.996 254.469V256.132H796.278V257.04H794.996V261.299C794.996 261.574 795.053 261.781 795.168 261.921C795.282 262.056 795.476 262.124 795.751 262.124C795.887 262.124 796.073 262.099 796.31 262.048V263C796.001 263.085 795.701 263.127 795.409 263.127C794.884 263.127 794.488 262.968 794.222 262.651C793.955 262.333 793.822 261.883 793.822 261.299V257.04H792.571V256.132H793.822V254.469H794.996ZM799.466 254.469V256.132H800.748V257.04H799.466V261.299C799.466 261.574 799.523 261.781 799.637 261.921C799.751 262.056 799.946 262.124 800.221 262.124C800.357 262.124 800.543 262.099 800.78 262.048V263C800.471 263.085 800.17 263.127 799.878 263.127C799.354 263.127 798.958 262.968 798.691 262.651C798.425 262.333 798.291 261.883 798.291 261.299V257.04H797.041V256.132H798.291V254.469H799.466ZM803.618 263H802.444V256.132H803.618V263ZM802.348 254.31C802.348 254.12 802.406 253.959 802.52 253.828C802.638 253.696 802.812 253.631 803.04 253.631C803.269 253.631 803.442 253.696 803.561 253.828C803.679 253.959 803.739 254.12 803.739 254.31C803.739 254.5 803.679 254.659 803.561 254.786C803.442 254.913 803.269 254.977 803.04 254.977C802.812 254.977 802.638 254.913 802.52 254.786C802.406 254.659 802.348 254.5 802.348 254.31ZM806.831 256.132L806.869 256.995C807.394 256.335 808.079 256.005 808.925 256.005C810.377 256.005 811.109 256.824 811.122 258.461V263H809.947V258.455C809.943 257.96 809.829 257.594 809.605 257.357C809.385 257.12 809.04 257.001 808.57 257.001C808.189 257.001 807.855 257.103 807.567 257.306C807.279 257.509 807.055 257.776 806.894 258.106V263H805.72V256.132H806.831ZM812.83 259.509C812.83 258.438 813.078 257.588 813.573 256.957C814.068 256.322 814.724 256.005 815.541 256.005C816.378 256.005 817.032 256.301 817.502 256.894L817.559 256.132H818.632V262.835C818.632 263.724 818.367 264.424 817.838 264.936C817.314 265.448 816.607 265.704 815.718 265.704C815.223 265.704 814.739 265.598 814.265 265.387C813.791 265.175 813.429 264.885 813.179 264.517L813.789 263.812C814.292 264.435 814.908 264.746 815.636 264.746C816.207 264.746 816.651 264.585 816.969 264.263C817.29 263.942 817.451 263.489 817.451 262.905V262.314C816.981 262.856 816.34 263.127 815.528 263.127C814.724 263.127 814.072 262.803 813.573 262.156C813.078 261.508 812.83 260.626 812.83 259.509ZM814.011 259.642C814.011 260.417 814.169 261.026 814.487 261.47C814.804 261.91 815.249 262.13 815.82 262.13C816.56 262.13 817.104 261.794 817.451 261.121V257.985C817.091 257.329 816.552 257.001 815.833 257.001C815.261 257.001 814.815 257.224 814.493 257.668C814.172 258.112 814.011 258.77 814.011 259.642ZM824.625 261.178C824.625 260.861 824.504 260.615 824.263 260.442C824.026 260.264 823.609 260.112 823.013 259.985C822.42 259.858 821.948 259.706 821.597 259.528C821.25 259.35 820.992 259.139 820.823 258.893C820.658 258.648 820.575 258.356 820.575 258.017C820.575 257.454 820.812 256.978 821.286 256.589C821.764 256.2 822.374 256.005 823.114 256.005C823.893 256.005 824.523 256.206 825.006 256.608C825.492 257.01 825.736 257.524 825.736 258.15H824.555C824.555 257.829 824.418 257.552 824.142 257.319C823.872 257.086 823.529 256.97 823.114 256.97C822.687 256.97 822.352 257.063 822.111 257.249C821.87 257.435 821.749 257.679 821.749 257.979C821.749 258.263 821.862 258.476 822.086 258.62C822.31 258.764 822.714 258.902 823.298 259.033C823.886 259.164 824.363 259.32 824.726 259.502C825.09 259.684 825.359 259.904 825.533 260.163C825.71 260.417 825.799 260.728 825.799 261.096C825.799 261.709 825.554 262.202 825.063 262.575C824.572 262.943 823.935 263.127 823.152 263.127C822.602 263.127 822.115 263.03 821.692 262.835C821.269 262.64 820.937 262.369 820.696 262.022C820.459 261.671 820.34 261.292 820.34 260.886H821.515C821.536 261.28 821.692 261.593 821.984 261.826C822.28 262.054 822.67 262.168 823.152 262.168C823.597 262.168 823.952 262.08 824.219 261.902C824.489 261.72 824.625 261.479 824.625 261.178ZM830.676 259.502C830.676 258.83 830.807 258.224 831.069 257.687C831.336 257.15 831.704 256.735 832.174 256.443C832.648 256.151 833.187 256.005 833.793 256.005C834.728 256.005 835.483 256.329 836.059 256.976C836.638 257.624 836.928 258.485 836.928 259.56V259.642C836.928 260.311 836.799 260.912 836.541 261.445C836.287 261.974 835.921 262.386 835.443 262.683C834.969 262.979 834.423 263.127 833.805 263.127C832.874 263.127 832.119 262.803 831.539 262.156C830.964 261.508 830.676 260.651 830.676 259.585V259.502ZM831.857 259.642C831.857 260.404 832.032 261.015 832.383 261.477C832.739 261.938 833.213 262.168 833.805 262.168C834.402 262.168 834.876 261.936 835.227 261.47C835.578 261 835.754 260.345 835.754 259.502C835.754 258.749 835.574 258.14 835.214 257.674C834.859 257.205 834.385 256.97 833.793 256.97C833.213 256.97 832.745 257.2 832.39 257.662C832.034 258.123 831.857 258.783 831.857 259.642ZM844.419 259.642C844.419 260.687 844.18 261.529 843.702 262.168C843.224 262.807 842.576 263.127 841.76 263.127C840.926 263.127 840.27 262.862 839.792 262.333V265.641H838.618V256.132H839.69L839.748 256.894C840.226 256.301 840.89 256.005 841.741 256.005C842.566 256.005 843.218 256.316 843.696 256.938C844.178 257.56 844.419 258.425 844.419 259.534V259.642ZM843.245 259.509C843.245 258.734 843.08 258.123 842.75 257.674C842.42 257.226 841.967 257.001 841.392 257.001C840.681 257.001 840.147 257.317 839.792 257.947V261.229C840.143 261.855 840.681 262.168 841.404 262.168C841.967 262.168 842.414 261.946 842.744 261.502C843.078 261.053 843.245 260.389 843.245 259.509ZM848.984 263.127C848.053 263.127 847.296 262.822 846.712 262.213C846.128 261.599 845.836 260.78 845.836 259.756V259.541C845.836 258.859 845.965 258.252 846.223 257.719C846.485 257.181 846.849 256.762 847.315 256.462C847.785 256.157 848.292 256.005 848.838 256.005C849.731 256.005 850.425 256.299 850.92 256.887C851.415 257.475 851.663 258.318 851.663 259.414V259.902H847.01C847.027 260.579 847.224 261.127 847.6 261.546C847.981 261.961 848.464 262.168 849.048 262.168C849.462 262.168 849.814 262.084 850.101 261.915C850.389 261.745 850.641 261.521 850.857 261.242L851.574 261.8C850.999 262.685 850.135 263.127 848.984 263.127ZM848.838 256.97C848.364 256.97 847.966 257.143 847.645 257.49C847.323 257.833 847.124 258.315 847.048 258.938H850.489V258.849C850.455 258.252 850.294 257.791 850.006 257.465C849.718 257.135 849.329 256.97 848.838 256.97ZM854.349 256.132L854.381 256.894C854.884 256.301 855.563 256.005 856.418 256.005C857.379 256.005 858.033 256.373 858.38 257.109C858.608 256.779 858.904 256.513 859.268 256.31C859.636 256.106 860.07 256.005 860.57 256.005C862.076 256.005 862.842 256.803 862.867 258.398V263H861.693V258.468C861.693 257.977 861.581 257.611 861.357 257.37C861.132 257.124 860.756 257.001 860.227 257.001C859.791 257.001 859.429 257.133 859.141 257.395C858.854 257.653 858.686 258.002 858.64 258.442V263H857.459V258.5C857.459 257.501 856.97 257.001 855.993 257.001C855.223 257.001 854.696 257.329 854.412 257.985V263H853.238V256.132H854.349Z" fill="#333333"/>
</svg>
