<svg width="1070" height="564" viewBox="0 0 1070 564" fill="none" xmlns="http://www.w3.org/2000/svg">
<rect x="143.312" y="16.3122" width="183.431" height="87.8619" rx="43.9309" fill="#DBDDE0" stroke="#076DF9" stroke-width="4.62431"/>
<path d="M224.183 37.2083V35.004H215.213V46.8731H217.96V42.5494H223.453V40.3451H217.96V37.2083H224.183ZM232.451 37.7509V42.2611C232.451 43.9398 231.57 44.7197 230.349 44.7197C229.179 44.7197 228.501 44.0415 228.501 42.5155V37.7509H225.856V42.9055C225.856 45.7201 227.466 47.0088 229.755 47.0088C230.874 47.0088 231.892 46.5849 232.587 45.7879V46.8731H235.096V37.7509H232.451ZM237.83 46.8731H240.475V34.2919H237.83V46.8731ZM243.212 46.8731H245.857V34.2919H243.212V46.8731ZM255.106 37.7509L252.528 43.9398L249.968 37.7509H247.238L251.189 46.9409L251.155 47.0257C250.799 47.8396 250.392 48.1617 249.663 48.1617C249.137 48.1617 248.578 47.9413 248.171 47.5853L247.204 49.4673C247.798 49.993 248.815 50.2982 249.748 50.2982C251.392 50.2982 252.647 49.6369 253.529 47.4326L257.649 37.7509H255.106ZM190.364 57.7509V62.2611C190.364 63.9398 189.483 64.7197 188.262 64.7197C187.092 64.7197 186.414 64.0415 186.414 62.5155V57.7509H183.769V62.9055C183.769 65.7201 185.379 67.0088 187.668 67.0088C188.787 67.0088 189.805 66.5849 190.5 65.7879V66.8731H193.009V57.7509H190.364ZM201.287 57.6152C200.049 57.6152 198.981 58.0391 198.269 58.8191V57.7509H195.743V66.8731H198.388V62.3629C198.388 60.6842 199.303 59.9043 200.575 59.9043C201.745 59.9043 202.423 60.5825 202.423 62.0577V66.8731H205.068V61.6507C205.068 58.87 203.44 57.6152 201.287 57.6152ZM214.495 54.2919V58.7174C213.833 57.9713 212.884 57.6152 211.765 57.6152C209.187 57.6152 207.204 59.4465 207.204 62.312C207.204 65.1775 209.187 67.0088 211.765 67.0088C212.985 67.0088 213.952 66.6188 214.613 65.8218V66.8731H217.14V54.2919H214.495ZM212.222 64.8384C210.9 64.8384 209.883 63.8889 209.883 62.312C209.883 60.7351 210.9 59.7856 212.222 59.7856C213.528 59.7856 214.545 60.7351 214.545 62.312C214.545 63.8889 213.528 64.8384 212.222 64.8384ZM228.806 62.3459C228.806 59.4126 226.737 57.6152 224.058 57.6152C221.278 57.6152 219.192 59.5821 219.192 62.312C219.192 65.0249 221.244 67.0088 224.398 67.0088C226.042 67.0088 227.314 66.5001 228.162 65.5336L226.754 64.0076C226.127 64.601 225.432 64.8893 224.465 64.8893C223.075 64.8893 222.109 64.1941 221.854 63.0581H228.755C228.772 62.8376 228.806 62.5494 228.806 62.3459ZM224.075 59.616C225.262 59.616 226.127 60.3621 226.314 61.5151H221.82C222.007 60.3451 222.872 59.616 224.075 59.616ZM233.376 58.9547V57.7509H230.85V66.8731H233.495V62.5663C233.495 60.8199 234.461 60.023 235.919 60.023C236.123 60.023 236.292 60.0399 236.513 60.0569V57.6152C235.106 57.6152 234.02 58.073 233.376 58.9547ZM241.47 67.0088C244.2 67.0088 245.777 65.8049 245.777 64.1093C245.777 60.5147 240.267 62.0237 240.267 60.4638C240.267 59.9891 240.775 59.616 241.962 59.616C242.793 59.616 243.692 59.7856 244.59 60.2943L245.472 58.4122C244.607 57.9035 243.217 57.6152 241.962 57.6152C239.3 57.6152 237.74 58.8361 237.74 60.5655C237.74 64.211 243.251 62.685 243.251 64.1771C243.251 64.6858 242.793 65.008 241.572 65.008C240.453 65.008 239.215 64.6519 238.401 64.1263L237.52 66.0253C238.367 66.5849 239.927 67.0088 241.47 67.0088ZM252.863 64.5671C252.575 64.7875 252.185 64.9062 251.795 64.9062C251.083 64.9062 250.659 64.4823 250.659 63.7024V59.9891H252.931V57.9544H250.659V55.7331H248.014V57.9544H246.607V59.9891H248.014V63.7363C248.014 65.9066 249.269 67.0088 251.422 67.0088C252.236 67.0088 253.033 66.8222 253.575 66.4323L252.863 64.5671ZM259.022 57.6152C257.564 57.6152 256.089 58.0052 255.089 58.7174L256.038 60.5655C256.699 60.0399 257.7 59.7178 258.666 59.7178C260.09 59.7178 260.769 60.379 260.769 61.5151H258.666C255.885 61.5151 254.749 62.6342 254.749 64.245C254.749 65.8218 256.021 67.0088 258.158 67.0088C259.497 67.0088 260.447 66.5679 260.938 65.7371V66.8731H263.414V61.6677C263.414 58.9039 261.803 57.6152 259.022 57.6152ZM258.819 65.2284C257.886 65.2284 257.327 64.7875 257.327 64.1263C257.327 63.5159 257.717 63.0581 258.954 63.0581H260.769V63.9906C260.463 64.8215 259.7 65.2284 258.819 65.2284ZM271.635 57.6152C270.397 57.6152 269.329 58.0391 268.617 58.8191V57.7509H266.09V66.8731H268.735V62.3629C268.735 60.6842 269.651 59.9043 270.923 59.9043C272.093 59.9043 272.771 60.5825 272.771 62.0577V66.8731H275.416V61.6507C275.416 58.87 273.788 57.6152 271.635 57.6152ZM284.842 54.2919V58.7174C284.181 57.9713 283.232 57.6152 282.112 57.6152C279.535 57.6152 277.551 59.4465 277.551 62.312C277.551 65.1775 279.535 67.0088 282.112 67.0088C283.333 67.0088 284.3 66.6188 284.961 65.8218V66.8731H287.487V54.2919H284.842ZM282.57 64.8384C281.248 64.8384 280.23 63.8889 280.23 62.312C280.23 60.7351 281.248 59.7856 282.57 59.7856C283.876 59.7856 284.893 60.7351 284.893 62.312C284.893 63.8889 283.876 64.8384 282.57 64.8384ZM187.615 87.0088C189.531 87.0088 191.04 86.161 191.701 84.7028L189.649 83.5837C189.158 84.4654 188.429 84.8384 187.598 84.8384C186.258 84.8384 185.207 83.9058 185.207 82.312C185.207 80.7182 186.258 79.7856 187.598 79.7856C188.429 79.7856 189.158 80.1756 189.649 81.0403L191.701 79.9382C191.04 78.4461 189.531 77.6152 187.615 77.6152C184.647 77.6152 182.528 79.5652 182.528 82.312C182.528 85.0588 184.647 87.0088 187.615 87.0088ZM200.052 77.7509V82.2611C200.052 83.9398 199.17 84.7197 197.949 84.7197C196.779 84.7197 196.101 84.0415 196.101 82.5155V77.7509H193.456V82.9055C193.456 85.7201 195.067 87.0088 197.356 87.0088C198.475 87.0088 199.492 86.5849 200.187 85.7879V86.8731H202.697V77.7509H200.052ZM207.956 78.9547V77.7509H205.43V86.8731H208.075V82.5663C208.075 80.8199 209.041 80.023 210.5 80.023C210.703 80.023 210.873 80.0399 211.093 80.0569V77.6152C209.686 77.6152 208.6 78.073 207.956 78.9547ZM215.475 78.9547V77.7509H212.948V86.8731H215.593V82.5663C215.593 80.8199 216.56 80.023 218.018 80.023C218.222 80.023 218.391 80.0399 218.612 80.0569V77.6152C217.204 77.6152 216.119 78.073 215.475 78.9547ZM229.32 82.3459C229.32 79.4126 227.251 77.6152 224.572 77.6152C221.792 77.6152 219.706 79.5821 219.706 82.312C219.706 85.0249 221.758 87.0088 224.911 87.0088C226.556 87.0088 227.828 86.5001 228.676 85.5336L227.268 84.0076C226.641 84.601 225.946 84.8893 224.979 84.8893C223.589 84.8893 222.622 84.1941 222.368 83.0581H229.269C229.286 82.8376 229.32 82.5494 229.32 82.3459ZM224.589 79.616C225.776 79.616 226.641 80.3621 226.827 81.5151H222.334C222.521 80.3451 223.385 79.616 224.589 79.616ZM236.908 77.6152C235.67 77.6152 234.602 78.0391 233.89 78.8191V77.7509H231.364V86.8731H234.009V82.3629C234.009 80.6842 234.924 79.9043 236.196 79.9043C237.366 79.9043 238.044 80.5825 238.044 82.0577V86.8731H240.689V81.6507C240.689 78.87 239.061 77.6152 236.908 77.6152ZM248.541 84.5671C248.253 84.7875 247.863 84.9062 247.473 84.9062C246.761 84.9062 246.337 84.4823 246.337 83.7024V79.9891H248.609V77.9544H246.337V75.7331H243.692V77.9544H242.284V79.9891H243.692V83.7363C243.692 85.9066 244.946 87.0088 247.1 87.0088C247.914 87.0088 248.711 86.8222 249.253 86.4323L248.541 84.5671ZM259.784 77.6152C258.326 77.6152 256.851 78.0052 255.851 78.7174L256.8 80.5655C257.462 80.0399 258.462 79.7178 259.428 79.7178C260.853 79.7178 261.531 80.379 261.531 81.5151H259.428C256.648 81.5151 255.512 82.6342 255.512 84.245C255.512 85.8218 256.783 87.0088 258.92 87.0088C260.259 87.0088 261.209 86.5679 261.7 85.7371V86.8731H264.176V81.6677C264.176 78.9039 262.565 77.6152 259.784 77.6152ZM259.581 85.2284C258.648 85.2284 258.089 84.7875 258.089 84.1263C258.089 83.5159 258.479 83.0581 259.717 83.0581H261.531V83.9906C261.226 84.8215 260.463 85.2284 259.581 85.2284ZM272.245 77.6152C271.024 77.6152 270.04 78.0052 269.379 78.8021V77.7509H266.853V90.1625H269.498V85.9066C270.176 86.6527 271.108 87.0088 272.245 87.0088C274.805 87.0088 276.789 85.1775 276.789 82.312C276.789 79.4465 274.805 77.6152 272.245 77.6152ZM271.787 84.8384C270.464 84.8384 269.464 83.8889 269.464 82.312C269.464 80.7351 270.464 79.7856 271.787 79.7856C273.109 79.7856 274.11 80.7351 274.11 82.312C274.11 83.8889 273.109 84.8384 271.787 84.8384ZM284.234 77.6152C283.013 77.6152 282.03 78.0052 281.368 78.8021V77.7509H278.842V90.1625H281.487V85.9066C282.165 86.6527 283.098 87.0088 284.234 87.0088C286.794 87.0088 288.778 85.1775 288.778 82.312C288.778 79.4465 286.794 77.6152 284.234 77.6152ZM283.776 84.8384C282.454 84.8384 281.453 83.8889 281.453 82.312C281.453 80.7351 282.454 79.7856 283.776 79.7856C285.099 79.7856 286.099 80.7351 286.099 82.312C286.099 83.8889 285.099 84.8384 283.776 84.8384Z" fill="#076DF9"/>
<rect x="401.273" y="16.3122" width="151.061" height="87.8619" rx="43.9309" fill="#DBDDE0" stroke="#076DF9" stroke-width="4.62431"/>
<path d="M451.489 57H454.236V47.3691H458.034V45.1309H447.691V47.3691H451.489V57ZM462.824 47.7421C461.365 47.7421 459.89 48.1321 458.89 48.8443L459.839 50.6924C460.501 50.1668 461.501 49.8447 462.468 49.8447C463.892 49.8447 464.57 50.5059 464.57 51.642H462.468C459.687 51.642 458.551 52.761 458.551 54.3719C458.551 55.9487 459.822 57.1356 461.959 57.1356C463.298 57.1356 464.248 56.6948 464.74 55.864V57H467.215V51.7946C467.215 49.0308 465.604 47.7421 462.824 47.7421ZM462.62 55.3553C461.688 55.3553 461.128 54.9144 461.128 54.2532C461.128 53.6428 461.518 53.1849 462.756 53.1849H464.57V54.1175C464.265 54.9483 463.502 55.3553 462.62 55.3553ZM469.892 57H472.537V44.4188H469.892V57ZM482.074 57H485.278L481.141 51.7437L484.939 47.8778H481.785L477.919 51.5402V44.4188H475.274V57H477.919V54.6771L479.191 53.4223L482.074 57ZM497.006 54.694C496.718 54.9144 496.328 55.0331 495.938 55.0331C495.226 55.0331 494.802 54.6092 494.802 53.8293V50.1159H497.074V48.0812H494.802V45.86H492.157V48.0812H490.75V50.1159H492.157V53.8632C492.157 56.0335 493.412 57.1356 495.565 57.1356C496.379 57.1356 497.176 56.9491 497.719 56.5591L497.006 54.694ZM503.545 57.1356C506.445 57.1356 508.547 55.1857 508.547 52.4389C508.547 49.692 506.445 47.7421 503.545 47.7421C500.646 47.7421 498.526 49.692 498.526 52.4389C498.526 55.1857 500.646 57.1356 503.545 57.1356ZM503.545 54.9653C502.223 54.9653 501.205 54.0158 501.205 52.4389C501.205 50.862 502.223 49.9125 503.545 49.9125C504.868 49.9125 505.868 50.862 505.868 52.4389C505.868 54.0158 504.868 54.9653 503.545 54.9653ZM461.748 67.8778V72.388C461.748 74.0666 460.867 74.8466 459.646 74.8466C458.476 74.8466 457.798 74.1684 457.798 72.6424V67.8778H455.152V73.0323C455.152 75.847 456.763 77.1356 459.052 77.1356C460.171 77.1356 461.189 76.7118 461.884 75.9148V77H464.393V67.8778H461.748ZM470.195 77.1356C472.925 77.1356 474.502 75.9318 474.502 74.2362C474.502 70.6416 468.992 72.1506 468.992 70.5907C468.992 70.1159 469.5 69.7429 470.687 69.7429C471.518 69.7429 472.417 69.9125 473.315 70.4211L474.197 68.5391C473.332 68.0304 471.942 67.7421 470.687 67.7421C468.025 67.7421 466.465 68.9629 466.465 70.6924C466.465 74.3379 471.976 72.8119 471.976 74.304C471.976 74.8127 471.518 75.1349 470.297 75.1349C469.178 75.1349 467.94 74.7788 467.126 74.2532L466.245 76.1522C467.093 76.7118 468.653 77.1356 470.195 77.1356ZM485.353 72.4728C485.353 69.5394 483.284 67.7421 480.605 67.7421C477.824 67.7421 475.739 69.709 475.739 72.4389C475.739 75.1518 477.79 77.1356 480.944 77.1356C482.589 77.1356 483.86 76.627 484.708 75.6605L483.301 74.1345C482.674 74.7279 481.978 75.0162 481.012 75.0162C479.622 75.0162 478.655 74.321 478.401 73.1849H485.302C485.319 72.9645 485.353 72.6763 485.353 72.4728ZM480.622 69.7429C481.809 69.7429 482.674 70.489 482.86 71.642H478.367C478.553 70.472 479.418 69.7429 480.622 69.7429ZM489.923 69.0816V67.8778H487.396V77H490.041V72.6932C490.041 70.9468 491.008 70.1499 492.466 70.1499C492.669 70.1499 492.839 70.1668 493.059 70.1838V67.7421C491.652 67.7421 490.567 68.1999 489.923 69.0816ZM498.017 77.1356C500.747 77.1356 502.324 75.9318 502.324 74.2362C502.324 70.6416 496.813 72.1506 496.813 70.5907C496.813 70.1159 497.322 69.7429 498.509 69.7429C499.339 69.7429 500.238 69.9125 501.137 70.4211L502.018 68.5391C501.154 68.0304 499.763 67.7421 498.509 67.7421C495.847 67.7421 494.287 68.9629 494.287 70.6924C494.287 74.3379 499.797 72.8119 499.797 74.304C499.797 74.8127 499.339 75.1349 498.119 75.1349C497 75.1349 495.762 74.7788 494.948 74.2532L494.066 76.1522C494.914 76.7118 496.474 77.1356 498.017 77.1356Z" fill="#076DF9"/>
<rect x="562.312" y="170.312" width="162.376" height="87.3757" rx="43.6878" fill="#DBDDE0" stroke="#076DF9" stroke-width="4.62431" stroke-dasharray="7.71 7.71"/>
<path d="M629.04 210.995L626.378 207.18C627.921 206.518 628.819 205.213 628.819 203.432C628.819 200.77 626.836 199.126 623.665 199.126H618.527V210.995H621.274V207.688H623.665H623.801L626.09 210.995H629.04ZM626.039 203.432C626.039 204.721 625.191 205.501 623.512 205.501H621.274V201.364H623.512C625.191 201.364 626.039 202.127 626.039 203.432ZM634.688 201.737C633.23 201.737 631.755 202.127 630.755 202.839L631.704 204.687C632.366 204.161 633.366 203.839 634.332 203.839C635.757 203.839 636.435 204.501 636.435 205.637H634.332C631.552 205.637 630.416 206.756 630.416 208.366C630.416 209.943 631.687 211.13 633.824 211.13C635.163 211.13 636.113 210.689 636.604 209.859V210.995H639.08V205.789C639.08 203.025 637.469 201.737 634.688 201.737ZM634.485 209.35C633.552 209.35 632.993 208.909 632.993 208.248C632.993 207.637 633.383 207.18 634.621 207.18H636.435V208.112C636.13 208.943 635.367 209.35 634.485 209.35ZM647.149 201.737C645.928 201.737 644.944 202.127 644.283 202.924V201.872H641.757V214.284H644.402V210.028C645.08 210.774 646.012 211.13 647.149 211.13C649.709 211.13 651.693 209.299 651.693 206.434C651.693 203.568 649.709 201.737 647.149 201.737ZM646.691 208.96C645.368 208.96 644.368 208.01 644.368 206.434C644.368 204.857 645.368 203.907 646.691 203.907C648.013 203.907 649.014 204.857 649.014 206.434C649.014 208.01 648.013 208.96 646.691 208.96ZM655.069 200.601C656.052 200.601 656.713 199.956 656.713 199.075C656.713 198.261 656.052 197.65 655.069 197.65C654.085 197.65 653.424 198.295 653.424 199.126C653.424 199.956 654.085 200.601 655.069 200.601ZM653.746 210.995H656.391V201.872H653.746V210.995ZM665.775 198.413V202.839C665.114 202.093 664.164 201.737 663.045 201.737C660.468 201.737 658.484 203.568 658.484 206.434C658.484 209.299 660.468 211.13 663.045 211.13C664.266 211.13 665.233 210.74 665.894 209.943V210.995H668.42V198.413H665.775ZM663.503 208.96C662.181 208.96 661.163 208.01 661.163 206.434C661.163 204.857 662.181 203.907 663.503 203.907C664.809 203.907 665.826 204.857 665.826 206.434C665.826 208.01 664.809 208.96 663.503 208.96ZM595.239 219.126H590.101V230.995H592.848V227.722H595.239C598.41 227.722 600.394 226.077 600.394 223.432C600.394 220.77 598.41 219.126 595.239 219.126ZM595.086 225.484H592.848V221.364H595.086C596.765 221.364 597.613 222.127 597.613 223.432C597.613 224.721 596.765 225.484 595.086 225.484ZM604.977 223.076V221.872H602.451V230.995H605.096V226.688C605.096 224.941 606.062 224.144 607.521 224.144C607.724 224.144 607.894 224.161 608.114 224.178V221.737C606.707 221.737 605.622 222.195 604.977 223.076ZM614.227 231.13C617.127 231.13 619.229 229.18 619.229 226.434C619.229 223.687 617.127 221.737 614.227 221.737C611.328 221.737 609.208 223.687 609.208 226.434C609.208 229.18 611.328 231.13 614.227 231.13ZM614.227 228.96C612.905 228.96 611.887 228.01 611.887 226.434C611.887 224.857 612.905 223.907 614.227 223.907C615.55 223.907 616.55 224.857 616.55 226.434C616.55 228.01 615.55 228.96 614.227 228.96ZM626.451 228.689C626.163 228.909 625.773 229.028 625.383 229.028C624.671 229.028 624.247 228.604 624.247 227.824V224.111H626.519V222.076H624.247V219.855H621.602V222.076H620.195V224.111H621.602V227.858C621.602 230.028 622.857 231.13 625.01 231.13C625.824 231.13 626.621 230.944 627.164 230.554L626.451 228.689ZM632.99 231.13C635.89 231.13 637.992 229.18 637.992 226.434C637.992 223.687 635.89 221.737 632.99 221.737C630.091 221.737 627.971 223.687 627.971 226.434C627.971 229.18 630.091 231.13 632.99 231.13ZM632.99 228.96C631.668 228.96 630.65 228.01 630.65 226.434C630.65 224.857 631.668 223.907 632.99 223.907C634.313 223.907 635.313 224.857 635.313 226.434C635.313 228.01 634.313 228.96 632.99 228.96ZM645.214 228.689C644.926 228.909 644.536 229.028 644.146 229.028C643.434 229.028 643.01 228.604 643.01 227.824V224.111H645.282V222.076H643.01V219.855H640.365V222.076H638.958V224.111H640.365V227.858C640.365 230.028 641.62 231.13 643.773 231.13C644.587 231.13 645.384 230.944 645.926 230.554L645.214 228.689ZM654.039 221.872L651.462 228.061L648.902 221.872H646.172L650.123 231.062L650.089 231.147C649.733 231.961 649.326 232.283 648.596 232.283C648.071 232.283 647.511 232.063 647.104 231.707L646.138 233.589C646.731 234.114 647.749 234.42 648.681 234.42C650.326 234.42 651.581 233.758 652.462 231.554L656.583 221.872H654.039ZM663.337 221.737C662.116 221.737 661.132 222.127 660.471 222.924V221.872H657.945V234.284H660.59V230.028C661.268 230.774 662.201 231.13 663.337 231.13C665.897 231.13 667.881 229.299 667.881 226.434C667.881 223.568 665.897 221.737 663.337 221.737ZM662.879 228.96C661.556 228.96 660.556 228.01 660.556 226.434C660.556 224.857 661.556 223.907 662.879 223.907C664.201 223.907 665.202 224.857 665.202 226.434C665.202 228.01 664.201 228.96 662.879 228.96ZM671.257 220.601C672.24 220.601 672.901 219.956 672.901 219.075C672.901 218.261 672.24 217.65 671.257 217.65C670.273 217.65 669.612 218.295 669.612 219.126C669.612 219.956 670.273 220.601 671.257 220.601ZM669.934 230.995H672.579V221.872H669.934V230.995ZM680.861 221.737C679.623 221.737 678.555 222.161 677.843 222.941V221.872H675.317V230.995H677.962V226.484C677.962 224.806 678.877 224.026 680.149 224.026C681.319 224.026 681.997 224.704 681.997 226.179V230.995H684.642V225.772C684.642 222.991 683.015 221.737 680.861 221.737ZM694.323 221.872V223.042C693.628 222.161 692.576 221.737 691.305 221.737C688.778 221.737 686.744 223.483 686.744 226.145C686.744 228.807 688.778 230.554 691.305 230.554C692.492 230.554 693.492 230.181 694.187 229.418V229.808C694.187 231.452 693.373 232.3 691.508 232.3C690.338 232.3 689.067 231.893 688.287 231.266L687.235 233.165C688.304 233.996 689.982 234.42 691.712 234.42C695.001 234.42 696.832 232.86 696.832 229.469V221.872H694.323ZM691.83 228.383C690.44 228.383 689.423 227.485 689.423 226.145C689.423 224.806 690.44 223.907 691.83 223.907C693.221 223.907 694.221 224.806 694.221 226.145C694.221 227.485 693.221 228.383 691.83 228.383Z" fill="#076DF9"/>
<rect x="784.312" y="170.312" width="181.376" height="87.3757" rx="43.6878" fill="#DBDDE0" stroke="#076DF9" stroke-width="4.62431" stroke-dasharray="7.71 7.71"/>
<path d="M821.565 210.995H824.312V199.126H821.565V210.995ZM832.769 201.737C831.532 201.737 830.463 202.161 829.751 202.941V201.872H827.225V210.995H829.87V206.484C829.87 204.806 830.786 204.026 832.057 204.026C833.227 204.026 833.905 204.704 833.905 206.179V210.995H836.551V205.772C836.551 202.991 834.923 201.737 832.769 201.737ZM842.13 201.686C842.13 200.787 842.554 200.363 843.334 200.363C843.741 200.363 844.114 200.482 844.402 200.686L845.097 198.769C844.606 198.43 843.826 198.278 843.08 198.278C840.808 198.278 839.553 199.617 839.553 201.669V202.076H838.146V204.111H839.553V210.995H842.198V204.111H844.47V202.076H842.13V201.686ZM850.295 211.13C853.195 211.13 855.297 209.18 855.297 206.434C855.297 203.687 853.195 201.737 850.295 201.737C847.396 201.737 845.276 203.687 845.276 206.434C845.276 209.18 847.396 211.13 850.295 211.13ZM850.295 208.96C848.973 208.96 847.955 208.01 847.955 206.434C847.955 204.857 848.973 203.907 850.295 203.907C851.618 203.907 852.618 204.857 852.618 206.434C852.618 208.01 851.618 208.96 850.295 208.96ZM859.874 203.076V201.872H857.348V210.995H859.993V206.688C859.993 204.941 860.959 204.144 862.418 204.144C862.621 204.144 862.791 204.161 863.011 204.178V201.737C861.604 201.737 860.519 202.195 859.874 203.076ZM876.549 201.737C875.176 201.737 873.989 202.296 873.26 203.229C872.615 202.228 871.53 201.737 870.258 201.737C869.088 201.737 868.071 202.144 867.393 202.924V201.872H864.866V210.995H867.512V206.417C867.512 204.789 868.342 204.026 869.512 204.026C870.614 204.026 871.242 204.704 871.242 206.179V210.995H873.887V206.417C873.887 204.789 874.718 204.026 875.905 204.026C876.973 204.026 877.634 204.704 877.634 206.179V210.995H880.279V205.772C880.279 202.991 878.719 201.737 876.549 201.737ZM886.612 201.737C885.154 201.737 883.679 202.127 882.678 202.839L883.628 204.687C884.289 204.161 885.29 203.839 886.256 203.839C887.68 203.839 888.359 204.501 888.359 205.637H886.256C883.475 205.637 882.339 206.756 882.339 208.366C882.339 209.943 883.611 211.13 885.747 211.13C887.087 211.13 888.036 210.689 888.528 209.859V210.995H891.004V205.789C891.004 203.025 889.393 201.737 886.612 201.737ZM886.409 209.35C885.476 209.35 884.917 208.909 884.917 208.248C884.917 207.637 885.307 207.18 886.544 207.18H888.359V208.112C888.053 208.943 887.29 209.35 886.409 209.35ZM898.852 208.689C898.564 208.909 898.174 209.028 897.784 209.028C897.071 209.028 896.648 208.604 896.648 207.824V204.111H898.92V202.076H896.648V199.855H894.002V202.076H892.595V204.111H894.002V207.858C894.002 210.028 895.257 211.13 897.411 211.13C898.224 211.13 899.021 210.944 899.564 210.554L898.852 208.689ZM902.654 200.601C903.637 200.601 904.299 199.956 904.299 199.075C904.299 198.261 903.637 197.65 902.654 197.65C901.671 197.65 901.009 198.295 901.009 199.126C901.009 199.956 901.671 200.601 902.654 200.601ZM901.331 210.995H903.977V201.872H901.331V210.995ZM911.055 211.13C913.954 211.13 916.057 209.18 916.057 206.434C916.057 203.687 913.954 201.737 911.055 201.737C908.155 201.737 906.036 203.687 906.036 206.434C906.036 209.18 908.155 211.13 911.055 211.13ZM911.055 208.96C909.732 208.96 908.715 208.01 908.715 206.434C908.715 204.857 909.732 203.907 911.055 203.907C912.377 203.907 913.378 204.857 913.378 206.434C913.378 208.01 912.377 208.96 911.055 208.96ZM923.652 201.737C922.414 201.737 921.346 202.161 920.634 202.941V201.872H918.107V210.995H920.752V206.484C920.752 204.806 921.668 204.026 922.94 204.026C924.11 204.026 924.788 204.704 924.788 206.179V210.995H927.433V205.772C927.433 202.991 925.805 201.737 923.652 201.737ZM823.137 221.737C821.678 221.737 820.203 222.127 819.203 222.839L820.152 224.687C820.814 224.161 821.814 223.839 822.781 223.839C824.205 223.839 824.883 224.501 824.883 225.637H822.781C820 225.637 818.864 226.756 818.864 228.366C818.864 229.943 820.136 231.13 822.272 231.13C823.611 231.13 824.561 230.689 825.053 229.859V230.995H827.528V225.789C827.528 223.025 825.917 221.737 823.137 221.737ZM822.933 229.35C822.001 229.35 821.441 228.909 821.441 228.248C821.441 227.637 821.831 227.18 823.069 227.18H824.883V228.112C824.578 228.943 823.815 229.35 822.933 229.35ZM832.731 223.076V221.872H830.205V230.995H832.85V226.688C832.85 224.941 833.816 224.144 835.275 224.144C835.478 224.144 835.648 224.161 835.868 224.178V221.737C834.461 221.737 833.376 222.195 832.731 223.076ZM842.049 231.13C843.965 231.13 845.474 230.282 846.135 228.824L844.084 227.705C843.592 228.587 842.863 228.96 842.032 228.96C840.693 228.96 839.641 228.027 839.641 226.434C839.641 224.84 840.693 223.907 842.032 223.907C842.863 223.907 843.592 224.297 844.084 225.162L846.135 224.06C845.474 222.568 843.965 221.737 842.049 221.737C839.082 221.737 836.962 223.687 836.962 226.434C836.962 229.18 839.082 231.13 842.049 231.13ZM853.419 221.737C852.249 221.737 851.232 222.11 850.52 222.822V218.413H847.875V230.995H850.52V226.484C850.52 224.806 851.436 224.026 852.707 224.026C853.877 224.026 854.555 224.704 854.555 226.179V230.995H857.2V225.772C857.2 222.991 855.573 221.737 853.419 221.737ZM861.203 220.601C862.187 220.601 862.848 219.956 862.848 219.075C862.848 218.261 862.187 217.65 861.203 217.65C860.22 217.65 859.559 218.295 859.559 219.126C859.559 219.956 860.22 220.601 861.203 220.601ZM859.881 230.995H862.526V221.872H859.881V230.995ZM870.435 228.689C870.147 228.909 869.757 229.028 869.367 229.028C868.654 229.028 868.231 228.604 868.231 227.824V224.111H870.503V222.076H868.231V219.855H865.585V222.076H864.178V224.111H865.585V227.858C865.585 230.028 866.84 231.13 868.994 231.13C869.807 231.13 870.604 230.944 871.147 230.554L870.435 228.689ZM881.569 226.467C881.569 223.534 879.5 221.737 876.821 221.737C874.04 221.737 871.955 223.704 871.955 226.434C871.955 229.146 874.006 231.13 877.16 231.13C878.805 231.13 880.077 230.622 880.924 229.655L879.517 228.129C878.89 228.723 878.194 229.011 877.228 229.011C875.838 229.011 874.871 228.316 874.617 227.18H881.518C881.535 226.959 881.569 226.671 881.569 226.467ZM876.838 223.738C878.025 223.738 878.89 224.484 879.076 225.637H874.583C874.769 224.467 875.634 223.738 876.838 223.738ZM888.021 231.13C889.937 231.13 891.446 230.282 892.107 228.824L890.055 227.705C889.564 228.587 888.835 228.96 888.004 228.96C886.664 228.96 885.613 228.027 885.613 226.434C885.613 224.84 886.664 223.907 888.004 223.907C888.835 223.907 889.564 224.297 890.055 225.162L892.107 224.06C891.446 222.568 889.937 221.737 888.021 221.737C885.053 221.737 882.934 223.687 882.934 226.434C882.934 229.18 885.053 231.13 888.021 231.13ZM899.217 228.689C898.928 228.909 898.538 229.028 898.148 229.028C897.436 229.028 897.012 228.604 897.012 227.824V224.111H899.284V222.076H897.012V219.855H894.367V222.076H892.96V224.111H894.367V227.858C894.367 230.028 895.622 231.13 897.775 231.13C898.589 231.13 899.386 230.944 899.929 230.554L899.217 228.689ZM908.241 221.872V226.383C908.241 228.061 907.359 228.841 906.139 228.841C904.969 228.841 904.29 228.163 904.29 226.637V221.872H901.645V227.027C901.645 229.842 903.256 231.13 905.545 231.13C906.664 231.13 907.682 230.706 908.377 229.909V230.995H910.886V221.872H908.241ZM916.146 223.076V221.872H913.619V230.995H916.264V226.688C916.264 224.941 917.231 224.144 918.689 224.144C918.893 224.144 919.062 224.161 919.283 224.178V221.737C917.875 221.737 916.79 222.195 916.146 223.076ZM929.991 226.467C929.991 223.534 927.922 221.737 925.243 221.737C922.463 221.737 920.377 223.704 920.377 226.434C920.377 229.146 922.429 231.13 925.582 231.13C927.227 231.13 928.499 230.622 929.347 229.655L927.939 228.129C927.312 228.723 926.617 229.011 925.65 229.011C924.26 229.011 923.293 228.316 923.039 227.18H929.94C929.957 226.959 929.991 226.671 929.991 226.467ZM925.26 223.738C926.447 223.738 927.312 224.484 927.498 225.637H923.005C923.192 224.467 924.056 223.738 925.26 223.738Z" fill="#076DF9"/>
<rect x="317.312" y="174.312" width="176.376" height="87.3757" rx="43.6878" fill="#DBDDE0" stroke="#076DF9" stroke-width="4.62431" stroke-dasharray="7.71 7.71"/>
<path d="M369.584 193.087L366.82 201.497L364.107 193.087H361.564L358.766 201.429L356.087 193.087H353.239L357.138 204.956H360.072L362.768 196.919L365.379 204.956H368.329L372.212 193.087H369.584ZM375.33 194.562C376.313 194.562 376.975 193.918 376.975 193.036C376.975 192.222 376.313 191.612 375.33 191.612C374.346 191.612 373.685 192.256 373.685 193.087C373.685 193.918 374.346 194.562 375.33 194.562ZM374.007 204.956H376.652V195.834H374.007V204.956ZM381.916 197.038V195.834H379.39V204.956H382.035V200.649C382.035 198.903 383.001 198.106 384.46 198.106C384.663 198.106 384.833 198.123 385.053 198.14V195.698C383.646 195.698 382.561 196.156 381.916 197.038ZM395.761 200.429C395.761 197.495 393.693 195.698 391.014 195.698C388.233 195.698 386.147 197.665 386.147 200.395C386.147 203.108 388.199 205.092 391.353 205.092C392.998 205.092 394.269 204.583 395.117 203.616L393.71 202.09C393.082 202.684 392.387 202.972 391.421 202.972C390.03 202.972 389.064 202.277 388.81 201.141H395.711C395.727 200.921 395.761 200.632 395.761 200.429ZM391.031 197.699C392.218 197.699 393.082 198.445 393.269 199.598H388.776C388.962 198.428 389.827 197.699 391.031 197.699ZM400.704 195.647C400.704 194.749 401.128 194.325 401.908 194.325C402.315 194.325 402.688 194.443 402.977 194.647L403.672 192.731C403.18 192.392 402.4 192.239 401.654 192.239C399.382 192.239 398.127 193.579 398.127 195.63V196.037H396.72V198.072H398.127V204.956H400.772V198.072H403.044V196.037H400.704V195.647ZM408.529 197.038V195.834H406.003V204.956H408.648V200.649C408.648 198.903 409.614 198.106 411.072 198.106C411.276 198.106 411.445 198.123 411.666 198.14V195.698C410.258 195.698 409.173 196.156 408.529 197.038ZM417.151 195.698C415.693 195.698 414.218 196.088 413.217 196.8L414.167 198.648C414.828 198.123 415.828 197.801 416.795 197.801C418.219 197.801 418.897 198.462 418.897 199.598H416.795C414.014 199.598 412.878 200.717 412.878 202.328C412.878 203.905 414.15 205.092 416.286 205.092C417.626 205.092 418.575 204.651 419.067 203.82V204.956H421.542V199.751C421.542 196.987 419.932 195.698 417.151 195.698ZM416.947 203.311C416.015 203.311 415.455 202.87 415.455 202.209C415.455 201.599 415.845 201.141 417.083 201.141H418.897V202.074C418.592 202.904 417.829 203.311 416.947 203.311ZM435.902 195.698C434.528 195.698 433.341 196.258 432.612 197.19C431.968 196.19 430.883 195.698 429.611 195.698C428.441 195.698 427.424 196.105 426.745 196.885V195.834H424.219V204.956H426.864V200.378C426.864 198.75 427.695 197.987 428.865 197.987C429.967 197.987 430.594 198.665 430.594 200.141V204.956H433.239V200.378C433.239 198.75 434.07 197.987 435.257 197.987C436.325 197.987 436.987 198.665 436.987 200.141V204.956H439.632V199.734C439.632 196.953 438.072 195.698 435.902 195.698ZM451.32 200.429C451.32 197.495 449.252 195.698 446.573 195.698C443.792 195.698 441.706 197.665 441.706 200.395C441.706 203.108 443.758 205.092 446.912 205.092C448.557 205.092 449.828 204.583 450.676 203.616L449.269 202.09C448.641 202.684 447.946 202.972 446.98 202.972C445.589 202.972 444.623 202.277 444.368 201.141H451.269C451.286 200.921 451.32 200.632 451.32 200.429ZM446.59 197.699C447.777 197.699 448.641 198.445 448.828 199.598H444.335C444.521 198.428 445.386 197.699 446.59 197.699ZM456.433 205.092C459.163 205.092 460.74 203.888 460.74 202.192C460.74 198.598 455.229 200.107 455.229 198.547C455.229 198.072 455.738 197.699 456.925 197.699C457.756 197.699 458.654 197.868 459.553 198.377L460.435 196.495C459.57 195.986 458.179 195.698 456.925 195.698C454.263 195.698 452.703 196.919 452.703 198.648C452.703 202.294 458.213 200.768 458.213 202.26C458.213 202.769 457.756 203.091 456.535 203.091C455.416 203.091 454.178 202.735 453.364 202.209L452.482 204.108C453.33 204.668 454.89 205.092 456.433 205.092ZM412.811 223.481L411.421 222.192C411.929 221.429 412.285 220.514 412.506 219.496L410.386 218.835C410.251 219.53 410.047 220.158 409.793 220.683L407.623 218.665C409.233 217.784 409.946 216.885 409.946 215.664C409.946 213.986 408.589 212.934 406.537 212.934C404.299 212.934 402.841 214.121 402.841 215.851C402.841 216.699 403.197 217.462 404.062 218.36C402.248 219.378 401.451 220.412 401.451 221.904C401.451 223.803 403.367 225.159 405.978 225.159C407.504 225.159 408.86 224.685 409.946 223.837L411.37 225.159L412.811 223.481ZM406.537 214.732C407.3 214.732 407.707 215.139 407.707 215.715C407.707 216.258 407.334 216.699 406.164 217.326C405.435 216.614 405.249 216.275 405.249 215.817C405.249 215.189 405.724 214.732 406.537 214.732ZM406.164 223.091C404.859 223.091 404.045 222.48 404.045 221.616C404.045 220.887 404.435 220.344 405.52 219.717L408.386 222.396C407.741 222.853 406.978 223.091 406.164 223.091ZM354.637 244.956H360.029C363.911 244.956 366.574 242.616 366.574 239.021C366.574 235.427 363.911 233.087 360.029 233.087H354.637V244.956ZM357.384 242.701V235.342H359.893C362.25 235.342 363.793 236.749 363.793 239.021C363.793 241.294 362.25 242.701 359.893 242.701H357.384ZM370.064 234.562C371.047 234.562 371.708 233.918 371.708 233.036C371.708 232.222 371.047 231.612 370.064 231.612C369.08 231.612 368.419 232.256 368.419 233.087C368.419 233.918 369.08 234.562 370.064 234.562ZM368.741 244.956H371.386V235.834H368.741V244.956ZM377.193 245.092C379.923 245.092 381.5 243.888 381.5 242.192C381.5 238.598 375.989 240.107 375.989 238.547C375.989 238.072 376.498 237.699 377.684 237.699C378.515 237.699 379.414 237.868 380.313 238.377L381.194 236.495C380.33 235.986 378.939 235.698 377.684 235.698C375.022 235.698 373.462 236.919 373.462 238.648C373.462 242.294 378.973 240.768 378.973 242.26C378.973 242.769 378.515 243.091 377.294 243.091C376.175 243.091 374.938 242.735 374.124 242.209L373.242 244.108C374.09 244.668 375.65 245.092 377.193 245.092ZM387.823 245.092C389.739 245.092 391.248 244.244 391.909 242.786L389.857 241.667C389.366 242.548 388.636 242.921 387.806 242.921C386.466 242.921 385.415 241.989 385.415 240.395C385.415 238.801 386.466 237.868 387.806 237.868C388.636 237.868 389.366 238.258 389.857 239.123L391.909 238.021C391.248 236.529 389.739 235.698 387.823 235.698C384.855 235.698 382.736 237.648 382.736 240.395C382.736 243.142 384.855 245.092 387.823 245.092ZM400.259 235.834V240.344C400.259 242.023 399.378 242.803 398.157 242.803C396.987 242.803 396.309 242.124 396.309 240.598V235.834H393.664V240.988C393.664 243.803 395.274 245.092 397.563 245.092C398.683 245.092 399.7 244.668 400.395 243.871V244.956H402.905V235.834H400.259ZM408.707 245.092C411.437 245.092 413.013 243.888 413.013 242.192C413.013 238.598 407.503 240.107 407.503 238.547C407.503 238.072 408.011 237.699 409.198 237.699C410.029 237.699 410.928 237.868 411.827 238.377L412.708 236.495C411.844 235.986 410.453 235.698 409.198 235.698C406.536 235.698 404.976 236.919 404.976 238.648C404.976 242.294 410.487 240.768 410.487 242.26C410.487 242.769 410.029 243.091 408.808 243.091C407.689 243.091 406.452 242.735 405.638 242.209L404.756 244.108C405.604 244.668 407.164 245.092 408.707 245.092ZM417.997 245.092C420.727 245.092 422.304 243.888 422.304 242.192C422.304 238.598 416.793 240.107 416.793 238.547C416.793 238.072 417.302 237.699 418.489 237.699C419.32 237.699 420.218 237.868 421.117 238.377L421.999 236.495C421.134 235.986 419.743 235.698 418.489 235.698C415.827 235.698 414.267 236.919 414.267 238.648C414.267 242.294 419.777 240.768 419.777 242.26C419.777 242.769 419.32 243.091 418.099 243.091C416.98 243.091 415.742 242.735 414.928 242.209L414.046 244.108C414.894 244.668 416.454 245.092 417.997 245.092ZM425.541 234.562C426.524 234.562 427.186 233.918 427.186 233.036C427.186 232.222 426.524 231.612 425.541 231.612C424.558 231.612 423.896 232.256 423.896 233.087C423.896 233.918 424.558 234.562 425.541 234.562ZM424.218 244.956H426.864V235.834H424.218V244.956ZM433.942 245.092C436.841 245.092 438.944 243.142 438.944 240.395C438.944 237.648 436.841 235.698 433.942 235.698C431.042 235.698 428.923 237.648 428.923 240.395C428.923 243.142 431.042 245.092 433.942 245.092ZM433.942 242.921C432.619 242.921 431.602 241.972 431.602 240.395C431.602 238.818 432.619 237.868 433.942 237.868C435.264 237.868 436.265 238.818 436.265 240.395C436.265 241.972 435.264 242.921 433.942 242.921ZM446.539 235.698C445.301 235.698 444.233 236.122 443.521 236.902V235.834H440.994V244.956H443.639V240.446C443.639 238.767 444.555 237.987 445.827 237.987C446.997 237.987 447.675 238.665 447.675 240.141V244.956H450.32V239.734C450.32 236.953 448.692 235.698 446.539 235.698ZM456.069 245.092C458.799 245.092 460.376 243.888 460.376 242.192C460.376 238.598 454.865 240.107 454.865 238.547C454.865 238.072 455.374 237.699 456.561 237.699C457.392 237.699 458.29 237.868 459.189 238.377L460.071 236.495C459.206 235.986 457.816 235.698 456.561 235.698C453.899 235.698 452.339 236.919 452.339 238.648C452.339 242.294 457.85 240.768 457.85 242.26C457.85 242.769 457.392 243.091 456.171 243.091C455.052 243.091 453.814 242.735 453 242.209L452.119 244.108C452.966 244.668 454.526 245.092 456.069 245.092Z" fill="#076DF9"/>
<path d="M188 269L188 305.586C188 314.099 194.901 321 203.414 321L801.586 321C810.099 321 817 314.099 817 305.586V269" stroke="#1575F9" stroke-width="3.08287" stroke-linecap="square" stroke-dasharray="7.71 7.71"/>
<path d="M502 321V372" stroke="#1575F9" stroke-width="3.08287" stroke-linecap="square" stroke-dasharray="7.71 7.71"/>
<path fill-rule="evenodd" clip-rule="evenodd" d="M501.917 321L508.834 328.707H495L501.917 321Z" fill="#1575F9"/>
<path d="M402 268V319" stroke="#1575F9" stroke-width="3.08287" stroke-linecap="square" stroke-dasharray="7.71 7.71"/>
<path fill-rule="evenodd" clip-rule="evenodd" d="M401.917 268L408.834 275.707H395L401.917 268Z" fill="#1575F9"/>
<path d="M644 265V316" stroke="#1575F9" stroke-width="3.08287" stroke-linecap="square" stroke-dasharray="7.71 7.71"/>
<path fill-rule="evenodd" clip-rule="evenodd" d="M643.917 265L650.834 272.707H637L643.917 265Z" fill="#1575F9"/>
<path fill-rule="evenodd" clip-rule="evenodd" d="M187.917 261L194.834 268.707H181L187.917 261Z" fill="#1575F9"/>
<path fill-rule="evenodd" clip-rule="evenodd" d="M816.917 264L823.834 271.707H810L816.917 264Z" fill="#1575F9"/>
<rect x="445.541" y="373.542" width="112.525" height="29.2873" rx="14.6436" stroke="#1575F9" stroke-width="3.08287"/>
<path d="M470.755 394H473.175V383.542H470.755V394ZM480.05 391.968C479.796 392.162 479.452 392.267 479.108 392.267C478.481 392.267 478.107 391.893 478.107 391.206V387.934H480.109V386.142H478.107V384.184H475.777V386.142H474.537V387.934H475.777V391.236C475.777 393.148 476.882 394.12 478.78 394.12C479.497 394.12 480.199 393.955 480.677 393.612L480.05 391.968ZM489.611 390.011C489.611 387.426 487.788 385.843 485.428 385.843C482.977 385.843 481.14 387.576 481.14 389.981C481.14 392.372 482.947 394.12 485.726 394.12C487.176 394.12 488.296 393.671 489.043 392.82L487.803 391.475C487.25 391.998 486.638 392.252 485.786 392.252C484.561 392.252 483.709 391.639 483.485 390.638H489.566C489.581 390.444 489.611 390.19 489.611 390.011ZM485.442 387.606C486.488 387.606 487.25 388.263 487.415 389.279H483.455C483.62 388.248 484.382 387.606 485.442 387.606ZM493.388 387.023V385.962H491.162V394H493.493V390.205C493.493 388.666 494.345 387.964 495.63 387.964C495.809 387.964 495.958 387.979 496.152 387.994V385.843C494.912 385.843 493.956 386.246 493.388 387.023ZM500.736 385.843C499.452 385.843 498.152 386.186 497.27 386.814L498.107 388.442C498.69 387.979 499.571 387.695 500.423 387.695C501.678 387.695 502.275 388.278 502.275 389.279H500.423C497.973 389.279 496.972 390.265 496.972 391.684C496.972 393.074 498.092 394.12 499.975 394.12C501.155 394.12 501.991 393.731 502.425 392.999V394H504.606V389.413C504.606 386.978 503.187 385.843 500.736 385.843ZM500.557 392.551C499.735 392.551 499.242 392.162 499.242 391.58C499.242 391.042 499.586 390.638 500.677 390.638H502.275V391.46C502.006 392.192 501.334 392.551 500.557 392.551ZM511.272 391.968C511.018 392.162 510.674 392.267 510.331 392.267C509.703 392.267 509.33 391.893 509.33 391.206V387.934H511.332V386.142H509.33V384.184H506.999V386.142H505.759V387.934H506.999V391.236C506.999 393.148 508.105 394.12 510.002 394.12C510.719 394.12 511.421 393.955 511.899 393.612L511.272 391.968ZM514.373 384.842C515.24 384.842 515.822 384.274 515.822 383.497C515.822 382.78 515.24 382.242 514.373 382.242C513.507 382.242 512.924 382.81 512.924 383.542C512.924 384.274 513.507 384.842 514.373 384.842ZM513.208 394H515.538V385.962H513.208V394ZM521.526 394.12C524.081 394.12 525.933 392.401 525.933 389.981C525.933 387.561 524.081 385.843 521.526 385.843C518.971 385.843 517.104 387.561 517.104 389.981C517.104 392.401 518.971 394.12 521.526 394.12ZM521.526 392.207C520.361 392.207 519.464 391.371 519.464 389.981C519.464 388.592 520.361 387.755 521.526 387.755C522.691 387.755 523.573 388.592 523.573 389.981C523.573 391.371 522.691 392.207 521.526 392.207ZM532.377 385.843C531.286 385.843 530.345 386.216 529.717 386.903V385.962H527.491V394H529.822V390.026C529.822 388.547 530.629 387.86 531.749 387.86C532.78 387.86 533.378 388.457 533.378 389.757V394H535.708V389.398C535.708 386.948 534.274 385.843 532.377 385.843Z" fill="#1575F9"/>
<path d="M329.334 58.3009H395.068" stroke="#076DF9" stroke-width="4.62431" stroke-linecap="square"/>
<path fill-rule="evenodd" clip-rule="evenodd" d="M401.503 58.3009L393.796 63.6959V52.9058L401.503 58.3009Z" fill="#076DF9"/>
<path d="M781.793 218.605H732.918" stroke="#076DF9" stroke-width="4.62431" stroke-linecap="square"/>
<path fill-rule="evenodd" clip-rule="evenodd" d="M726.552 218.605L734.26 213.21V224L726.552 218.605Z" fill="#076DF9"/>
<path d="M554.925 61.0136H620.659" stroke="#076DF9" stroke-width="4.62431" stroke-linecap="square"/>
<path fill-rule="evenodd" clip-rule="evenodd" d="M627.094 61.0136L619.387 66.4086V55.6185L627.094 61.0136Z" fill="#076DF9"/>
<path d="M556.215 218.395H501.369" stroke="#076DF9" stroke-width="4.62431" stroke-linecap="square"/>
<path fill-rule="evenodd" clip-rule="evenodd" d="M496 218.395L502.431 213V223.79L496 218.395Z" fill="#076DF9"/>
<path d="M315.215 218.395H260.369" stroke="#076DF9" stroke-width="4.62431" stroke-linecap="square"/>
<path fill-rule="evenodd" clip-rule="evenodd" d="M255 218.395L261.431 213V223.79L255 218.395Z" fill="#076DF9"/>
<path d="M844.5 60L1048 60C1053.52 60 1058 64.4772 1058 70V211C1058 216.523 1053.52 221 1048 221H974" stroke="#076DF9" stroke-width="4.62"/>
<path fill-rule="evenodd" clip-rule="evenodd" d="M968.256 220.895L975 226.29V215.5L968.256 220.895Z" fill="#076DF9"/>
<path d="M78.3428 216L30 216C24.4772 216 20 220.477 20 226L20 460C20 465.523 24.4772 470 30 470H404" stroke="#076DF9" stroke-width="4.62"/>
<path fill-rule="evenodd" clip-rule="evenodd" d="M407.744 469.395L401 474.79V464L407.744 469.395Z" fill="#076DF9"/>
<rect x="626.273" y="16.3122" width="217.376" height="87.3757" rx="43.6878" fill="#DBDDE0" stroke="#076DF9" stroke-width="4.62431"/>
<path d="M687.177 57H690.059L684.752 45.1309H682.039L676.749 57H679.564L680.615 54.4566H686.125L687.177 57ZM681.497 52.3711L683.379 47.8269L685.261 52.3711H681.497ZM696.931 47.7421C695.693 47.7421 694.625 48.166 693.913 48.946V47.8778H691.387V57H694.032V52.4898C694.032 50.8111 694.947 50.0312 696.219 50.0312C697.389 50.0312 698.067 50.7094 698.067 52.1846V57H700.712V51.7776C700.712 48.9969 699.085 47.7421 696.931 47.7421ZM707.072 47.7421C705.614 47.7421 704.139 48.1321 703.138 48.8443L704.088 50.6924C704.749 50.1668 705.749 49.8447 706.716 49.8447C708.14 49.8447 708.818 50.5059 708.818 51.642H706.716C703.935 51.642 702.799 52.761 702.799 54.3719C702.799 55.9487 704.071 57.1356 706.207 57.1356C707.547 57.1356 708.496 56.6948 708.988 55.864V57H711.464V51.7946C711.464 49.0308 709.853 47.7421 707.072 47.7421ZM706.869 55.3553C705.936 55.3553 705.376 54.9144 705.376 54.2532C705.376 53.6428 705.766 53.1849 707.004 53.1849H708.818V54.1175C708.513 54.9483 707.75 55.3553 706.869 55.3553ZM714.14 57H716.785V44.4188H714.14V57ZM726.034 47.8778L723.456 54.0666L720.896 47.8778H718.166L722.117 57.0678L722.083 57.1526C721.727 57.9665 721.32 58.2886 720.591 58.2886C720.065 58.2886 719.506 58.0682 719.099 57.7121L718.132 59.5942C718.726 60.1199 719.743 60.4251 720.676 60.4251C722.32 60.4251 723.575 59.7638 724.457 57.5595L728.577 47.8778H726.034ZM732.876 57.1356C735.605 57.1356 737.182 55.9318 737.182 54.2362C737.182 50.6416 731.672 52.1506 731.672 50.5907C731.672 50.1159 732.18 49.7429 733.367 49.7429C734.198 49.7429 735.097 49.9125 735.995 50.4211L736.877 48.5391C736.012 48.0304 734.622 47.7421 733.367 47.7421C730.705 47.7421 729.145 48.9629 729.145 50.6924C729.145 54.3379 734.656 52.8119 734.656 54.304C734.656 54.8127 734.198 55.1349 732.977 55.1349C731.858 55.1349 730.62 54.7788 729.807 54.2532L728.925 56.1522C729.773 56.7118 731.333 57.1356 732.876 57.1356ZM748.033 52.4728C748.033 49.5394 745.964 47.7421 743.285 47.7421C740.504 47.7421 738.419 49.709 738.419 52.4389C738.419 55.1518 740.47 57.1356 743.624 57.1356C745.269 57.1356 746.541 56.627 747.388 55.6605L745.981 54.1345C745.354 54.7279 744.658 55.0162 743.692 55.0162C742.302 55.0162 741.335 54.321 741.081 53.1849H747.982C747.999 52.9645 748.033 52.6763 748.033 52.4728ZM743.302 49.7429C744.489 49.7429 745.354 50.489 745.54 51.642H741.047C741.233 50.472 742.098 49.7429 743.302 49.7429ZM760.705 47.7421C759.468 47.7421 758.399 48.166 757.687 48.946V47.8778H755.161V57H757.806V52.4898C757.806 50.8111 758.722 50.0312 759.993 50.0312C761.163 50.0312 761.841 50.7094 761.841 52.1846V57H764.486V51.7776C764.486 48.9969 762.859 47.7421 760.705 47.7421ZM776.202 52.4728C776.202 49.5394 774.133 47.7421 771.454 47.7421C768.673 47.7421 766.588 49.709 766.588 52.4389C766.588 55.1518 768.64 57.1356 771.793 57.1356C773.438 57.1356 774.71 56.627 775.557 55.6605L774.15 54.1345C773.523 54.7279 772.828 55.0162 771.861 55.0162C770.471 55.0162 769.504 54.321 769.25 53.1849H776.151C776.168 52.9645 776.202 52.6763 776.202 52.4728ZM771.471 49.7429C772.658 49.7429 773.523 50.489 773.709 51.642H769.216C769.403 50.472 770.267 49.7429 771.471 49.7429ZM790.39 47.8778L788.169 54.0497L785.998 47.8778H783.76L781.522 54.0497L779.368 47.8778H776.876L780.165 57H782.709L784.828 51.3368L786.88 57H789.423L792.73 47.8778H790.39ZM676.6 69.0816V67.8778H674.073V77H676.718V72.6932C676.718 70.9468 677.685 70.1499 679.143 70.1499C679.346 70.1499 679.516 70.1668 679.736 70.1838V67.7421C678.329 67.7421 677.244 68.1999 676.6 69.0816ZM690.445 72.4728C690.445 69.5394 688.376 67.7421 685.697 67.7421C682.916 67.7421 680.831 69.709 680.831 72.4389C680.831 75.1518 682.882 77.1356 686.036 77.1356C687.681 77.1356 688.953 76.627 689.8 75.6605L688.393 74.1345C687.766 74.7279 687.071 75.0162 686.104 75.0162C684.714 75.0162 683.747 74.321 683.493 73.1849H690.394C690.411 72.9645 690.445 72.6763 690.445 72.4728ZM685.714 69.7429C686.901 69.7429 687.766 70.489 687.952 71.642H683.459C683.645 70.472 684.51 69.7429 685.714 69.7429ZM699.22 67.8778V68.929C698.559 68.1321 697.592 67.7421 696.371 67.7421C693.794 67.7421 691.81 69.5734 691.81 72.4389C691.81 75.3044 693.794 77.1356 696.371 77.1356C697.49 77.1356 698.44 76.7796 699.101 76.0335V80.2894H701.746V67.8778H699.22ZM696.829 74.9653C695.506 74.9653 694.489 74.0158 694.489 72.4389C694.489 70.862 695.506 69.9125 696.829 69.9125C698.135 69.9125 699.152 70.862 699.152 72.4389C699.152 74.0158 698.135 74.9653 696.829 74.9653ZM711.023 67.8778V72.388C711.023 74.0666 710.141 74.8466 708.92 74.8466C707.75 74.8466 707.072 74.1684 707.072 72.6424V67.8778H704.427V73.0323C704.427 75.847 706.038 77.1356 708.327 77.1356C709.446 77.1356 710.463 76.7118 711.158 75.9148V77H713.668V67.8778H711.023ZM717.723 66.6061C718.707 66.6061 719.368 65.9618 719.368 65.0801C719.368 64.2662 718.707 63.6558 717.723 63.6558C716.74 63.6558 716.079 64.3001 716.079 65.1309C716.079 65.9618 716.74 66.6061 717.723 66.6061ZM716.401 77H719.046V67.8778H716.401V77ZM724.31 69.0816V67.8778H721.783V77H724.429V72.6932C724.429 70.9468 725.395 70.1499 726.853 70.1499C727.057 70.1499 727.226 70.1668 727.447 70.1838V67.7421C726.039 67.7421 724.954 68.1999 724.31 69.0816ZM738.155 72.4728C738.155 69.5394 736.086 67.7421 733.407 67.7421C730.627 67.7421 728.541 69.709 728.541 72.4389C728.541 75.1518 730.593 77.1356 733.747 77.1356C735.391 77.1356 736.663 76.627 737.511 75.6605L736.103 74.1345C735.476 74.7279 734.781 75.0162 733.814 75.0162C732.424 75.0162 731.457 74.321 731.203 73.1849H738.104C738.121 72.9645 738.155 72.6763 738.155 72.4728ZM733.424 69.7429C734.611 69.7429 735.476 70.489 735.663 71.642H731.169C731.356 70.472 732.22 69.7429 733.424 69.7429ZM751.881 67.7421C750.508 67.7421 749.321 68.3017 748.592 69.2342C747.947 68.2339 746.862 67.7421 745.591 67.7421C744.421 67.7421 743.403 68.1491 742.725 68.929V67.8778H740.199V77H742.844V72.4219C742.844 70.7942 743.675 70.0312 744.845 70.0312C745.947 70.0312 746.574 70.7094 746.574 72.1846V77H749.219V72.4219C749.219 70.7942 750.05 70.0312 751.237 70.0312C752.305 70.0312 752.966 70.7094 752.966 72.1846V77H755.611V71.7776C755.611 68.9969 754.052 67.7421 751.881 67.7421ZM767.3 72.4728C767.3 69.5394 765.231 67.7421 762.552 67.7421C759.772 67.7421 757.686 69.709 757.686 72.4389C757.686 75.1518 759.738 77.1356 762.892 77.1356C764.536 77.1356 765.808 76.627 766.656 75.6605L765.248 74.1345C764.621 74.7279 763.926 75.0162 762.959 75.0162C761.569 75.0162 760.602 74.321 760.348 73.1849H767.249C767.266 72.9645 767.3 72.6763 767.3 72.4728ZM762.569 69.7429C763.756 69.7429 764.621 70.489 764.808 71.642H760.314C760.501 70.472 761.365 69.7429 762.569 69.7429ZM774.888 67.7421C773.65 67.7421 772.582 68.166 771.87 68.946V67.8778H769.344V77H771.989V72.4898C771.989 70.8111 772.904 70.0312 774.176 70.0312C775.346 70.0312 776.024 70.7094 776.024 72.1846V77H778.669V71.7776C778.669 68.9969 777.042 67.7421 774.888 67.7421ZM786.521 74.694C786.233 74.9144 785.843 75.0331 785.453 75.0331C784.741 75.0331 784.317 74.6092 784.317 73.8293V70.1159H786.589V68.0812H784.317V65.86H781.672V68.0812H780.264V70.1159H781.672V73.8632C781.672 76.0335 782.926 77.1356 785.08 77.1356C785.894 77.1356 786.691 76.9491 787.233 76.5591L786.521 74.694ZM792.07 77.1356C794.8 77.1356 796.376 75.9318 796.376 74.2362C796.376 70.6416 790.866 72.1506 790.866 70.5907C790.866 70.1159 791.374 69.7429 792.561 69.7429C793.392 69.7429 794.291 69.9125 795.19 70.4211L796.071 68.5391C795.206 68.0304 793.816 67.7421 792.561 67.7421C789.899 67.7421 788.339 68.9629 788.339 70.6924C788.339 74.3379 793.85 72.8119 793.85 74.304C793.85 74.8127 793.392 75.1349 792.171 75.1349C791.052 75.1349 789.815 74.7788 789.001 74.2532L788.119 76.1522C788.967 76.7118 790.527 77.1356 792.07 77.1356Z" fill="#076DF9"/>
<rect x="409.312" y="423.312" width="184.972" height="87.8619" rx="43.9309" fill="#DBDDE0" stroke="#076DF9" stroke-width="4.62431"/>
<path d="M467.031 453.956H472.423C476.305 453.956 478.968 451.616 478.968 448.021C478.968 444.427 476.305 442.087 472.423 442.087H467.031V453.956ZM469.777 451.701V444.342H472.287C474.644 444.342 476.187 445.749 476.187 448.021C476.187 450.293 474.644 451.701 472.287 451.701H469.777ZM490.071 449.429C490.071 446.495 488.002 444.698 485.323 444.698C482.542 444.698 480.457 446.665 480.457 449.395C480.457 452.108 482.509 454.092 485.662 454.092C487.307 454.092 488.579 453.583 489.427 452.616L488.019 451.09C487.392 451.684 486.697 451.972 485.73 451.972C484.34 451.972 483.373 451.277 483.119 450.141H490.02C490.037 449.92 490.071 449.632 490.071 449.429ZM485.34 446.699C486.527 446.699 487.392 447.445 487.578 448.598H483.085C483.272 447.428 484.136 446.699 485.34 446.699ZM492.114 453.956H494.76V441.375H492.114V453.956ZM498.82 443.562C499.803 443.562 500.464 442.918 500.464 442.036C500.464 441.222 499.803 440.612 498.82 440.612C497.836 440.612 497.175 441.256 497.175 442.087C497.175 442.918 497.836 443.562 498.82 443.562ZM497.497 453.956H500.142V444.834H497.497V453.956ZM509.391 444.834L506.779 451.04L504.253 444.834H501.523L505.355 453.956H508.085L511.934 444.834H509.391ZM521.983 449.429C521.983 446.495 519.915 444.698 517.236 444.698C514.455 444.698 512.369 446.665 512.369 449.395C512.369 452.108 514.421 454.092 517.575 454.092C519.22 454.092 520.491 453.583 521.339 452.616L519.932 451.09C519.304 451.684 518.609 451.972 517.643 451.972C516.252 451.972 515.286 451.277 515.031 450.141H521.932C521.949 449.92 521.983 449.632 521.983 449.429ZM517.253 446.699C518.44 446.699 519.304 447.445 519.491 448.598H514.998C515.184 447.428 516.049 446.699 517.253 446.699ZM526.553 446.038V444.834H524.027V453.956H526.672V449.649C526.672 447.903 527.638 447.106 529.097 447.106C529.3 447.106 529.47 447.123 529.69 447.14V444.698C528.283 444.698 527.198 445.156 526.553 446.038ZM538.371 444.834L535.794 451.023L533.234 444.834H530.504L534.454 454.024L534.42 454.109C534.064 454.922 533.657 455.245 532.928 455.245C532.403 455.245 531.843 455.024 531.436 454.668L530.47 456.55C531.063 457.076 532.081 457.381 533.013 457.381C534.658 457.381 535.913 456.72 536.794 454.515L540.915 444.834H538.371ZM509.001 472.481L507.611 471.192C508.119 470.429 508.475 469.514 508.696 468.496L506.576 467.835C506.441 468.53 506.237 469.157 505.983 469.683L503.813 467.665C505.423 466.784 506.135 465.885 506.135 464.664C506.135 462.986 504.779 461.934 502.727 461.934C500.489 461.934 499.031 463.121 499.031 464.851C499.031 465.698 499.387 466.461 500.252 467.36C498.438 468.377 497.641 469.412 497.641 470.904C497.641 472.803 499.557 474.159 502.168 474.159C503.694 474.159 505.05 473.685 506.135 472.837L507.56 474.159L509.001 472.481ZM502.727 463.732C503.49 463.732 503.897 464.139 503.897 464.715C503.897 465.258 503.524 465.698 502.354 466.326C501.625 465.614 501.439 465.275 501.439 464.817C501.439 464.189 501.913 463.732 502.727 463.732ZM502.354 472.091C501.049 472.091 500.235 471.48 500.235 470.616C500.235 469.887 500.625 469.344 501.71 468.717L504.576 471.396C503.931 471.853 503.168 472.091 502.354 472.091ZM459.013 491.752V489.005H464.524V486.868H459.013V484.291H465.253V482.087H456.283V493.956H465.473V491.752H459.013ZM474.183 484.834L471.572 491.04L469.045 484.834H466.316L470.148 493.956H472.877L476.726 484.834H474.183ZM481.47 484.698C480.012 484.698 478.536 485.088 477.536 485.8L478.486 487.648C479.147 487.123 480.147 486.801 481.114 486.801C482.538 486.801 483.216 487.462 483.216 488.598H481.114C478.333 488.598 477.197 489.717 477.197 491.328C477.197 492.905 478.469 494.092 480.605 494.092C481.945 494.092 482.894 493.651 483.386 492.82V493.956H485.861V488.751C485.861 485.987 484.251 484.698 481.47 484.698ZM481.266 492.311C480.334 492.311 479.774 491.87 479.774 491.209C479.774 490.599 480.164 490.141 481.402 490.141H483.216V491.073C482.911 491.904 482.148 492.311 481.266 492.311ZM488.538 493.956H491.183V481.375H488.538V493.956ZM500.465 484.834V489.344C500.465 491.023 499.584 491.803 498.363 491.803C497.193 491.803 496.515 491.124 496.515 489.598V484.834H493.87V489.988C493.87 492.803 495.48 494.092 497.769 494.092C498.888 494.092 499.906 493.668 500.601 492.871V493.956H503.11V484.834H500.465ZM509.523 484.698C508.065 484.698 506.59 485.088 505.589 485.8L506.539 487.648C507.2 487.123 508.2 486.801 509.167 486.801C510.591 486.801 511.269 487.462 511.269 488.598H509.167C506.386 488.598 505.25 489.717 505.25 491.328C505.25 492.905 506.522 494.092 508.658 494.092C509.998 494.092 510.947 493.651 511.439 492.82V493.956H513.915V488.751C513.915 485.987 512.304 484.698 509.523 484.698ZM509.32 492.311C508.387 492.311 507.827 491.87 507.827 491.209C507.827 490.599 508.217 490.141 509.455 490.141H511.269V491.073C510.964 491.904 510.201 492.311 509.32 492.311ZM521.763 491.65C521.474 491.87 521.084 491.989 520.694 491.989C519.982 491.989 519.558 491.565 519.558 490.785V487.072H521.83V485.037H519.558V482.816H516.913V485.037H515.506V487.072H516.913V490.819C516.913 492.989 518.168 494.092 520.321 494.092C521.135 494.092 521.932 493.905 522.475 493.515L521.763 491.65ZM525.565 483.562C526.548 483.562 527.209 482.918 527.209 482.036C527.209 481.222 526.548 480.612 525.565 480.612C524.581 480.612 523.92 481.256 523.92 482.087C523.92 482.918 524.581 483.562 525.565 483.562ZM524.242 493.956H526.887V484.834H524.242V493.956ZM533.965 494.092C536.865 494.092 538.967 492.142 538.967 489.395C538.967 486.648 536.865 484.698 533.965 484.698C531.066 484.698 528.947 486.648 528.947 489.395C528.947 492.142 531.066 494.092 533.965 494.092ZM533.965 491.921C532.643 491.921 531.626 490.972 531.626 489.395C531.626 487.818 532.643 486.868 533.965 486.868C535.288 486.868 536.288 487.818 536.288 489.395C536.288 490.972 535.288 491.921 533.965 491.921ZM546.563 484.698C545.325 484.698 544.257 485.122 543.544 485.902V484.834H541.018V493.956H543.663V489.446C543.663 487.767 544.579 486.987 545.85 486.987C547.02 486.987 547.699 487.665 547.699 489.14V493.956H550.344V488.734C550.344 485.953 548.716 484.698 546.563 484.698Z" fill="#076DF9"/>
<rect x="75.3122" y="171.312" width="180.376" height="87.3757" rx="43.6878" fill="#DBDDE0" stroke="#076DF9" stroke-width="4.62431" stroke-dasharray="7.71 7.71"/>
<path d="M141.795 189.131L138.133 197.609L134.521 189.131H131.554L136.674 201H139.387L144.525 189.131H141.795ZM147.1 190.606C148.084 190.606 148.745 189.962 148.745 189.08C148.745 188.266 148.084 187.656 147.1 187.656C146.117 187.656 145.455 188.3 145.455 189.131C145.455 189.962 146.117 190.606 147.1 190.606ZM145.778 201H148.423V191.878H145.778V201ZM154.229 201.136C156.959 201.136 158.536 199.932 158.536 198.236C158.536 194.642 153.025 196.151 153.025 194.591C153.025 194.116 153.534 193.743 154.721 193.743C155.552 193.743 156.45 193.912 157.349 194.421L158.231 192.539C157.366 192.03 155.976 191.742 154.721 191.742C152.059 191.742 150.499 192.963 150.499 194.692C150.499 198.338 156.01 196.812 156.01 198.304C156.01 198.813 155.552 199.135 154.331 199.135C153.212 199.135 151.974 198.779 151.16 198.253L150.279 200.152C151.126 200.712 152.686 201.136 154.229 201.136ZM166.996 191.878V196.388C166.996 198.067 166.114 198.847 164.893 198.847C163.723 198.847 163.045 198.168 163.045 196.642V191.878H160.4V197.032C160.4 199.847 162.011 201.136 164.3 201.136C165.419 201.136 166.436 200.712 167.131 199.915V201H169.641V191.878H166.996ZM176.053 191.742C174.595 191.742 173.12 192.132 172.119 192.844L173.069 194.692C173.73 194.167 174.731 193.845 175.697 193.845C177.121 193.845 177.8 194.506 177.8 195.642H175.697C172.916 195.642 171.78 196.761 171.78 198.372C171.78 199.949 173.052 201.136 175.188 201.136C176.528 201.136 177.477 200.695 177.969 199.864V201H180.445V195.795C180.445 193.031 178.834 191.742 176.053 191.742ZM175.85 199.355C174.917 199.355 174.358 198.914 174.358 198.253C174.358 197.643 174.748 197.185 175.985 197.185H177.8V198.118C177.494 198.948 176.731 199.355 175.85 199.355ZM183.121 201H185.766V188.419H183.121V201ZM191.573 201.136C194.303 201.136 195.88 199.932 195.88 198.236C195.88 194.642 190.369 196.151 190.369 194.591C190.369 194.116 190.878 193.743 192.065 193.743C192.895 193.743 193.794 193.912 194.693 194.421L195.574 192.539C194.71 192.03 193.319 191.742 192.065 191.742C189.402 191.742 187.843 192.963 187.843 194.692C187.843 198.338 193.353 196.812 193.353 198.304C193.353 198.813 192.895 199.135 191.675 199.135C190.555 199.135 189.318 198.779 188.504 198.253L187.622 200.152C188.47 200.712 190.03 201.136 191.573 201.136ZM198.812 197.846C197.879 197.846 197.167 198.491 197.167 199.474C197.167 200.169 197.523 200.695 198.082 200.915L197.336 203.611H199.015L199.981 201.17C200.371 200.237 200.439 199.915 200.439 199.474C200.439 198.507 199.761 197.846 198.812 197.846ZM110.211 221H112.958V209.131H110.211V221ZM121.415 211.742C120.177 211.742 119.109 212.166 118.397 212.946V211.878H115.87V221H118.516V216.49C118.516 214.811 119.431 214.031 120.703 214.031C121.873 214.031 122.551 214.709 122.551 216.185V221H125.196V215.778C125.196 212.997 123.568 211.742 121.415 211.742ZM133.048 218.694C132.76 218.914 132.37 219.033 131.98 219.033C131.267 219.033 130.844 218.609 130.844 217.829V214.116H133.116V212.081H130.844V209.86H128.198V212.081H126.791V214.116H128.198V217.863C128.198 220.034 129.453 221.136 131.607 221.136C132.42 221.136 133.217 220.949 133.76 220.559L133.048 218.694ZM144.182 216.473C144.182 213.539 142.113 211.742 139.434 211.742C136.653 211.742 134.568 213.709 134.568 216.439C134.568 219.152 136.619 221.136 139.773 221.136C141.418 221.136 142.69 220.627 143.537 219.66L142.13 218.134C141.503 218.728 140.807 219.016 139.841 219.016C138.451 219.016 137.484 218.321 137.23 217.185H144.131C144.148 216.965 144.182 216.676 144.182 216.473ZM139.451 213.743C140.638 213.743 141.503 214.489 141.689 215.642H137.196C137.382 214.472 138.247 213.743 139.451 213.743ZM148.752 213.082V211.878H146.225V221H148.87V216.693C148.87 214.947 149.837 214.15 151.295 214.15C151.499 214.15 151.668 214.167 151.888 214.184V211.742C150.481 211.742 149.396 212.2 148.752 213.082ZM157.374 211.742C155.915 211.742 154.44 212.132 153.44 212.844L154.389 214.692C155.051 214.167 156.051 213.845 157.018 213.845C158.442 213.845 159.12 214.506 159.12 215.642H157.018C154.237 215.642 153.101 216.761 153.101 218.372C153.101 219.949 154.372 221.136 156.509 221.136C157.848 221.136 158.798 220.695 159.29 219.864V221H161.765V215.795C161.765 213.031 160.154 211.742 157.374 211.742ZM157.17 219.355C156.238 219.355 155.678 218.914 155.678 218.253C155.678 217.643 156.068 217.185 157.306 217.185H159.12V218.118C158.815 218.948 158.052 219.355 157.17 219.355ZM168.95 221.136C170.866 221.136 172.375 220.288 173.036 218.83L170.984 217.711C170.493 218.592 169.763 218.965 168.933 218.965C167.593 218.965 166.542 218.033 166.542 216.439C166.542 214.845 167.593 213.912 168.933 213.912C169.763 213.912 170.493 214.302 170.984 215.167L173.036 214.065C172.375 212.573 170.866 211.742 168.95 211.742C165.982 211.742 163.863 213.692 163.863 216.439C163.863 219.186 165.982 221.136 168.95 221.136ZM180.145 218.694C179.857 218.914 179.467 219.033 179.077 219.033C178.365 219.033 177.941 218.609 177.941 217.829V214.116H180.213V212.081H177.941V209.86H175.296V212.081H173.889V214.116H175.296V217.863C175.296 220.034 176.551 221.136 178.704 221.136C179.518 221.136 180.315 220.949 180.858 220.559L180.145 218.694ZM183.948 210.606C184.931 210.606 185.592 209.962 185.592 209.08C185.592 208.266 184.931 207.656 183.948 207.656C182.964 207.656 182.303 208.3 182.303 209.131C182.303 209.962 182.964 210.606 183.948 210.606ZM182.625 221H185.27V211.878H182.625V221ZM192.348 221.136C195.248 221.136 197.35 219.186 197.35 216.439C197.35 213.692 195.248 211.742 192.348 211.742C189.449 211.742 187.329 213.692 187.329 216.439C187.329 219.186 189.449 221.136 192.348 221.136ZM192.348 218.965C191.026 218.965 190.008 218.016 190.008 216.439C190.008 214.862 191.026 213.912 192.348 213.912C193.671 213.912 194.671 214.862 194.671 216.439C194.671 218.016 193.671 218.965 192.348 218.965ZM204.945 211.742C203.708 211.742 202.639 212.166 201.927 212.946V211.878H199.401V221H202.046V216.49C202.046 214.811 202.962 214.031 204.233 214.031C205.403 214.031 206.081 214.709 206.081 216.185V221H208.727V215.778C208.727 212.997 207.099 211.742 204.945 211.742ZM214.476 221.136C217.206 221.136 218.783 219.932 218.783 218.236C218.783 214.642 213.272 216.151 213.272 214.591C213.272 214.116 213.781 213.743 214.968 213.743C215.798 213.743 216.697 213.912 217.596 214.421L218.477 212.539C217.613 212.03 216.222 211.742 214.968 211.742C212.306 211.742 210.746 212.963 210.746 214.692C210.746 218.338 216.256 216.812 216.256 218.304C216.256 218.813 215.798 219.135 214.578 219.135C213.458 219.135 212.221 218.779 211.407 218.253L210.525 220.152C211.373 220.712 212.933 221.136 214.476 221.136ZM221.715 217.846C220.782 217.846 220.07 218.491 220.07 219.474C220.07 220.169 220.426 220.695 220.985 220.915L220.239 223.611H221.918L222.885 221.17C223.274 220.237 223.342 219.915 223.342 219.474C223.342 218.507 222.664 217.846 221.715 217.846ZM112.429 241H115.176V231.369H118.974V229.131H108.631V231.369H112.429V241ZM123.764 231.742C122.306 231.742 120.831 232.132 119.83 232.844L120.78 234.692C121.441 234.167 122.441 233.845 123.408 233.845C124.832 233.845 125.51 234.506 125.51 235.642H123.408C120.627 235.642 119.491 236.761 119.491 238.372C119.491 239.949 120.763 241.136 122.899 241.136C124.239 241.136 125.188 240.695 125.68 239.864V241H128.155V235.795C128.155 233.031 126.545 231.742 123.764 231.742ZM123.56 239.355C122.628 239.355 122.068 238.914 122.068 238.253C122.068 237.643 122.458 237.185 123.696 237.185H125.51V238.118C125.205 238.948 124.442 239.355 123.56 239.355ZM130.832 241H133.477V228.419H130.832V241ZM143.014 241H146.219L142.081 235.744L145.879 231.878H142.726L138.86 235.54V228.419H136.215V241H138.86V238.677L140.131 237.422L143.014 241ZM157.947 238.694C157.658 238.914 157.268 239.033 156.879 239.033C156.166 239.033 155.742 238.609 155.742 237.829V234.116H158.015V232.081H155.742V229.86H153.097V232.081H151.69V234.116H153.097V237.863C153.097 240.034 154.352 241.136 156.505 241.136C157.319 241.136 158.116 240.949 158.659 240.559L157.947 238.694ZM164.485 241.136C167.385 241.136 169.487 239.186 169.487 236.439C169.487 233.692 167.385 231.742 164.485 231.742C161.586 231.742 159.467 233.692 159.467 236.439C159.467 239.186 161.586 241.136 164.485 241.136ZM164.485 238.965C163.163 238.965 162.146 238.016 162.146 236.439C162.146 234.862 163.163 233.912 164.485 233.912C165.808 233.912 166.808 234.862 166.808 236.439C166.808 238.016 165.808 238.965 164.485 238.965ZM183.168 231.878V236.388C183.168 238.067 182.286 238.847 181.065 238.847C179.895 238.847 179.217 238.168 179.217 236.642V231.878H176.572V237.032C176.572 239.847 178.183 241.136 180.472 241.136C181.591 241.136 182.608 240.712 183.303 239.915V241H185.813V231.878H183.168ZM191.615 241.136C194.345 241.136 195.922 239.932 195.922 238.236C195.922 234.642 190.411 236.151 190.411 234.591C190.411 234.116 190.92 233.743 192.106 233.743C192.937 233.743 193.836 233.912 194.735 234.421L195.616 232.539C194.752 232.03 193.361 231.742 192.106 231.742C189.444 231.742 187.884 232.963 187.884 234.692C187.884 238.338 193.395 236.812 193.395 238.304C193.395 238.813 192.937 239.135 191.716 239.135C190.597 239.135 189.36 238.779 188.546 238.253L187.664 240.152C188.512 240.712 190.072 241.136 191.615 241.136ZM206.772 236.473C206.772 233.539 204.703 231.742 202.024 231.742C199.243 231.742 197.158 233.709 197.158 236.439C197.158 239.152 199.21 241.136 202.363 241.136C204.008 241.136 205.28 240.627 206.128 239.66L204.72 238.134C204.093 238.728 203.398 239.016 202.431 239.016C201.041 239.016 200.074 238.321 199.82 237.185H206.721C206.738 236.965 206.772 236.676 206.772 236.473ZM202.041 233.743C203.228 233.743 204.093 234.489 204.279 235.642H199.786C199.973 234.472 200.837 233.743 202.041 233.743ZM211.342 233.082V231.878H208.815V241H211.461V236.693C211.461 234.947 212.427 234.15 213.885 234.15C214.089 234.15 214.258 234.167 214.479 234.184V231.742C213.071 231.742 211.986 232.2 211.342 233.082ZM219.436 241.136C222.166 241.136 223.743 239.932 223.743 238.236C223.743 234.642 218.232 236.151 218.232 234.591C218.232 234.116 218.741 233.743 219.928 233.743C220.759 233.743 221.657 233.912 222.556 234.421L223.438 232.539C222.573 232.03 221.183 231.742 219.928 231.742C217.266 231.742 215.706 232.963 215.706 234.692C215.706 238.338 221.217 236.812 221.217 238.304C221.217 238.813 220.759 239.135 219.538 239.135C218.419 239.135 217.181 238.779 216.367 238.253L215.485 240.152C216.333 240.712 217.893 241.136 219.436 241.136Z" fill="#076DF9"/>
</svg>
