<svg width="975" height="556" viewBox="0 0 975 556" fill="none" xmlns="http://www.w3.org/2000/svg">
<g clip-path="url(#clip0)">
<g clip-path="url(#clip1)">
<path d="M877.57 258.257C877.57 256.809 876.412 255.634 874.989 255.634C873.564 255.634 872.405 256.809 872.405 258.257V263.775C872.405 265.231 873.564 266.406 874.989 266.406C876.412 266.406 877.57 265.231 877.57 263.775V258.257ZM863.373 251.016C863.373 249.567 862.218 248.391 860.761 248.391C859.335 248.391 858.18 249.567 858.18 251.016V263.775C858.18 265.231 859.335 266.406 860.761 266.406C862.218 266.406 863.373 265.231 863.373 263.775V251.016V251.016ZM849.148 241.108C849.148 239.659 847.993 238.485 846.567 238.485C845.142 238.485 843.987 239.659 843.987 241.108V269.018C843.987 270.475 845.142 271.649 846.567 271.649C847.993 271.649 849.148 270.475 849.148 269.018V241.108ZM834.919 251.016C834.919 249.567 833.764 248.391 832.339 248.391C830.916 248.391 829.758 249.567 829.758 251.016V263.775C829.758 265.231 830.916 266.406 832.339 266.406C833.764 266.406 834.919 265.231 834.919 263.775V251.016V251.016ZM820.693 258.257C820.693 256.809 819.539 255.634 818.121 255.634C816.695 255.634 815.533 256.809 815.533 258.257V263.775C815.533 265.231 816.695 266.406 818.121 266.406C819.539 266.406 820.693 265.231 820.693 263.775V258.257ZM806.491 251.016C806.491 249.567 805.327 248.391 803.902 248.391C802.476 248.391 801.313 249.567 801.313 251.016V263.775C801.313 265.231 802.476 266.406 803.902 266.406C805.327 266.406 806.491 265.231 806.491 263.775V251.016V251.016ZM792.272 241.108C792.272 239.659 791.108 238.485 789.683 238.485C788.257 238.485 787.094 239.659 787.094 241.108V269.018C787.094 270.475 788.257 271.649 789.683 271.649C791.108 271.649 792.272 270.475 792.272 269.018V241.108ZM778.052 251.016C778.052 249.567 776.889 248.391 775.464 248.391C774.038 248.391 772.875 249.567 772.875 251.016V263.775C772.875 265.231 774.038 266.406 775.464 266.406C776.889 266.406 778.052 265.231 778.052 263.775V251.016ZM763.833 258.257C763.833 256.809 762.67 255.634 761.245 255.634C759.82 255.634 758.656 256.809 758.656 258.257V263.775C758.656 265.231 759.82 266.406 761.245 266.406C762.67 266.406 763.833 265.231 763.833 263.775V258.257ZM817.276 281.136C817.121 281.093 814.732 280.466 812.194 280.466C807.388 280.466 804.494 283.106 804.494 287.037C804.494 290.517 806.915 292.252 809.82 293.185C810.142 293.294 810.616 293.445 810.932 293.551C812.226 293.965 813.258 294.58 813.258 295.645C813.258 296.836 812.065 297.607 809.471 297.607C807.192 297.607 805.007 296.944 804.547 296.826V301.663C804.803 301.718 807.4 302.237 810.174 302.237C814.165 302.237 818.729 300.463 818.729 295.184C818.729 292.623 817.187 290.265 813.803 289.171L812.365 288.705C811.507 288.429 809.974 287.983 809.974 286.704C809.974 285.693 811.11 284.981 813.2 284.981C815.004 284.981 817.198 285.598 817.276 285.622V281.136V281.136ZM861.341 291.352C861.341 294.41 859.038 296.884 855.948 296.884C852.854 296.884 850.558 294.41 850.558 291.352C850.558 288.3 852.854 285.824 855.948 285.824C859.038 285.824 861.341 288.3 861.341 291.352V291.352ZM855.948 280.473C849.593 280.473 845.035 285.348 845.035 291.352C845.035 297.364 849.593 302.237 855.948 302.237C862.303 302.237 866.867 297.364 866.867 291.352C866.867 285.348 862.303 280.473 855.948 280.473V280.473ZM785.12 281.226C784.63 281.078 782.819 280.473 780.365 280.473C774.02 280.473 769.362 285.075 769.362 291.352C769.362 298.123 774.504 302.237 780.365 302.237C782.694 302.237 784.472 301.675 785.12 301.488V295.847C784.896 295.973 783.191 296.962 780.739 296.962C777.265 296.962 775.025 294.475 775.025 291.352C775.025 288.133 777.362 285.745 780.739 285.745C783.233 285.745 784.91 286.756 785.12 286.868V281.226V281.226ZM839.545 281.226C839.051 281.078 837.238 280.473 834.793 280.473C828.439 280.473 823.781 285.075 823.781 291.352C823.781 298.123 828.929 302.237 834.793 302.237C837.109 302.237 838.89 301.675 839.545 301.488V295.847C839.316 295.973 837.609 296.962 835.158 296.962C831.687 296.962 829.448 294.475 829.448 291.352C829.448 288.133 831.787 285.745 835.158 285.745C837.651 285.745 839.332 286.756 839.545 286.868V281.226V281.226ZM797.502 301.862H792.287V280.845H797.502V301.862Z" fill="#00BCEB"/>
</g>
<g clip-path="url(#clip2)">
<path d="M460 234.304H474.579V241.593H460V234.304Z" fill="black"/>
<path d="M653.17 219.725C659.198 219.725 664.104 214.818 664.104 208.791V172.343C664.104 166.316 659.198 161.409 653.17 161.409H602.144C596.116 161.409 591.21 166.316 591.21 172.343V208.791C591.21 214.818 596.116 219.725 602.144 219.725H613.078V227.014H605.789V234.304H624.012V270.751H608.971C606.063 267.912 602.482 265.739 598.474 264.544C598.492 264.175 598.499 263.819 598.499 263.462C598.499 247.384 585.419 234.304 569.342 234.304C559.367 234.304 550.095 239.493 544.784 247.793C541.043 246.113 536.998 245.238 532.894 245.238C520.798 245.238 509.906 252.862 505.646 264.045C502.877 264.64 500.296 265.704 497.953 267.106H470.934V256.172H485.513C491.54 256.172 496.447 251.266 496.447 245.238V172.343C496.447 166.316 491.54 161.409 485.513 161.409H449.066C443.038 161.409 438.131 166.316 438.131 172.343V245.238C438.131 251.266 443.038 256.172 449.066 256.172H463.644V274.396H490.2C488.65 276.608 487.447 279.049 486.657 281.685H470.934V321.777H456.355C450.327 321.777 445.421 326.684 445.421 332.711V365.514H438.131V376.448C438.131 382.476 443.038 387.382 449.066 387.382H507.381C513.409 387.382 518.315 382.476 518.315 376.448V365.514H511.026V332.711C511.026 326.684 506.119 321.777 500.092 321.777H478.223V288.975H485.513C485.513 303.039 496.961 314.488 511.026 314.488H591.21C604.036 314.488 614.653 304.961 616.431 292.619H631.302V321.777H605.789V387.382H664.104V321.777H638.591V285.33H616.417C616.038 282.764 615.251 280.322 614.15 278.04H631.302V234.304H649.525V227.014H642.236V219.725H653.17ZM489.158 219.725H445.421V183.278H489.158V219.725ZM449.066 168.699H485.513C487.524 168.699 489.158 170.332 489.158 172.343V175.988H445.421V172.343C445.421 170.332 447.055 168.699 449.066 168.699ZM445.421 245.238V227.014H489.158V245.238C489.158 247.249 487.524 248.883 485.513 248.883H449.066C447.055 248.883 445.421 247.249 445.421 245.238ZM511.026 376.448C511.026 378.459 509.392 380.093 507.381 380.093H449.066C447.055 380.093 445.421 378.459 445.421 376.448V372.803H511.026V376.448ZM503.736 332.711V365.514H452.71V332.711C452.71 330.7 454.344 329.067 456.355 329.067H500.092C502.103 329.067 503.736 330.7 503.736 332.711ZM613.078 380.093V358.224H656.815V380.093H613.078ZM656.815 350.935H613.078V329.067H656.815V350.935ZM591.21 307.198H511.026C500.978 307.198 492.802 299.023 492.802 288.975C492.802 279.761 499.698 271.99 508.839 270.897L511.231 270.609L511.905 268.295C514.601 259.011 523.236 252.527 532.894 252.527C536.918 252.527 540.869 253.657 544.332 255.789L547.811 257.936L549.546 254.229C553.134 246.549 560.904 241.593 569.342 241.593C581.402 241.593 591.21 251.401 591.21 263.462C591.21 264.467 591.119 265.538 590.922 266.832L590.372 270.438L593.975 270.984C602.788 272.33 609.433 280.064 609.433 288.975C609.433 299.023 601.258 307.198 591.21 307.198V307.198ZM602.144 168.699H653.17C655.181 168.699 656.815 170.332 656.815 172.343V197.856H598.499V172.343C598.499 170.332 600.133 168.699 602.144 168.699ZM598.499 208.791V205.146H656.815V208.791C656.815 210.802 655.181 212.435 653.17 212.435H602.144C600.133 212.435 598.499 210.802 598.499 208.791ZM634.947 227.014H620.368V219.725H634.947V227.014Z" fill="black"/>
<path d="M620.368 336.356H627.657V343.646H620.368V336.356Z" fill="black"/>
<path d="M642.236 365.514H649.525V372.803H642.236V365.514Z" fill="black"/>
<path d="M634.946 336.356H649.525V343.646H634.946V336.356Z" fill="black"/>
<path d="M620.368 365.514H634.947V372.803H620.368V365.514Z" fill="black"/>
</g>
<path d="M-72.998 460.098C-72.998 442.209 -5.66818 427.707 77.387 427.707C160.442 427.707 227.772 442.209 227.772 460.098C227.772 471.563 200.091 481.629 158.364 487.385V664.853C158.364 668.841 156.779 672.666 153.959 675.487C151.139 678.307 147.313 679.891 143.325 679.891C139.337 679.891 135.511 678.307 132.691 675.487C129.871 672.666 128.287 668.841 128.287 664.853V490.582C112.387 491.814 95.2554 492.488 77.387 492.488C59.5186 492.488 42.3868 491.814 26.4874 490.582V664.853C26.4874 668.841 24.903 672.666 22.0828 675.487C19.2625 678.307 15.4374 679.891 11.4489 679.891C7.46048 679.891 3.63539 678.307 0.815121 675.487C-2.00514 672.666 -3.58956 668.841 -3.58956 664.853V487.385C-45.3171 481.629 -72.998 471.563 -72.998 460.098Z" fill="#CCCCCC"/>
<path d="M60.7578 163.625C24.9802 163.625 -4.02338 134.622 -4.02338 98.844C-4.02338 63.0663 24.9802 34.0627 60.7578 34.0627C96.5355 34.0627 125.539 63.0663 125.539 98.844C125.539 134.622 96.5355 163.625 60.7578 163.625Z" fill="#2F2E41"/>
<path d="M221.972 653.108H250.337L263.83 543.702H221.968L221.972 653.108Z" fill="#A0616A"/>
<path d="M266.248 637.278L293.313 628.785L273.434 520.358L233.492 532.89L266.248 637.278Z" fill="#A0616A"/>
<path d="M257.021 593.625C258.263 593.625 259.495 593.401 260.658 592.963L281.525 585.139C283.868 584.252 285.814 582.553 287.009 580.352C288.204 578.151 288.568 575.593 288.036 573.146C282.782 549.524 264.877 469.101 255.073 425.965C243.445 374.799 73.8179 365.291 66.6031 364.912L66.0102 364.88L46.9285 388.859C40.0334 411.021 42.2188 428.308 53.4242 440.24C86.121 475.052 183.744 453.45 195.385 450.716L247.273 586.921C248.029 588.894 249.366 590.59 251.106 591.787C252.846 592.984 254.909 593.625 257.021 593.625V593.625Z" fill="#2F2E41"/>
<path d="M226.944 609.821C228.186 609.821 229.419 609.597 230.581 609.159L251.448 601.335C253.791 600.448 255.737 598.749 256.932 596.548C258.127 594.347 258.492 591.789 257.959 589.342C252.705 565.72 234.8 485.297 224.996 442.161C213.368 390.994 43.741 381.487 36.5262 381.107L35.9333 381.076L16.8516 405.055C9.95648 427.217 12.1419 444.504 23.3473 456.435C56.0441 491.246 153.667 469.646 165.308 466.912L217.196 603.117C217.952 605.089 219.289 606.786 221.029 607.983C222.769 609.18 224.832 609.821 226.944 609.821V609.821Z" fill="#2F2E41"/>
<path d="M287.317 276.614C286.551 277.64 285.866 278.724 285.27 279.857L171.162 291.879L154.736 269.358L117.508 289.705L149.771 344.356L289.715 308.674C293.246 312.116 297.741 314.402 302.602 315.228C307.464 316.053 312.461 315.379 316.93 313.295C321.399 311.21 325.127 307.815 327.62 303.56C330.112 299.306 331.25 294.393 330.882 289.476C330.514 284.558 328.658 279.87 325.561 276.033C322.463 272.196 318.271 269.394 313.542 267.997C308.813 266.601 303.771 266.678 299.086 268.217C294.402 269.756 290.297 272.685 287.317 276.615L287.317 276.614Z" fill="#A0616A"/>
<path d="M22.147 414.233C23.7971 414.228 25.4224 413.831 26.8889 413.074C49.7065 401.472 94.1374 381.379 135.338 377.175C136.748 377.036 138.114 376.605 139.347 375.907C140.581 375.21 141.655 374.263 142.5 373.126C143.362 371.977 143.979 370.663 144.311 369.265C144.643 367.868 144.683 366.417 144.429 365.003C140.711 344.422 132.183 292.016 133.281 250.014C133.605 237.099 129.525 224.459 121.712 214.171C113.898 203.883 102.817 196.56 90.2898 193.405V193.405C82.748 191.415 75.0878 189.905 67.3551 188.884C58.4674 187.758 49.4396 188.73 40.9948 191.72C32.5501 194.711 24.9231 199.638 18.725 206.107C12.5269 212.575 7.9299 220.405 5.30226 228.97C2.67461 237.535 2.0894 246.596 3.59345 255.428C10.941 298.955 18.3478 359.748 11.9103 402.186C11.6147 404.088 11.8512 406.035 12.5939 407.811C13.3365 409.586 14.5562 411.122 16.1178 412.247C17.8667 413.531 19.9777 414.226 22.147 414.233Z" fill="#E53935"/>
<path d="M131.169 303.522C132.592 303.52 133.999 303.227 135.303 302.659L165.028 289.792C167.559 288.692 169.551 286.634 170.567 284.067C171.583 281.501 171.54 278.637 170.447 276.102L147.469 223.023C146.082 219.814 144.077 216.91 141.568 214.477C139.059 212.043 136.095 210.128 132.845 208.841C129.596 207.554 126.124 206.919 122.629 206.974C119.135 207.028 115.685 207.771 112.477 209.159C109.269 210.548 106.367 212.555 103.935 215.065C101.503 217.576 99.5896 220.541 98.3041 223.791C97.0186 227.042 96.3862 230.513 96.4429 234.008C96.4996 237.503 97.2444 240.952 98.6347 244.159L121.612 297.239C122.421 299.103 123.756 300.691 125.453 301.807C127.151 302.923 129.138 303.519 131.169 303.522V303.522Z" fill="#E53935"/>
<path d="M63.1263 170.826C31.7428 170.826 6.30149 145.385 6.30149 114.001C6.30149 82.6176 31.7428 57.1763 63.1263 57.1763C94.5097 57.1763 119.951 82.6176 119.951 114.001C119.951 145.385 94.5097 170.826 63.1263 170.826Z" fill="#A0616A"/>
<path d="M120.974 86.0817C94.0578 102.512 63.7134 112.511 32.302 115.299L41.6488 104.1C34.8432 106.616 27.682 108.038 20.4313 108.313C13.1892 108.2 5.60123 105.412 1.49097 99.4478C-0.342276 96.4831 -1.43127 93.119 -1.68319 89.6424C-1.9351 86.1658 -1.34244 82.6799 0.0442589 79.4819C2.8928 73.1033 7.32633 67.5597 12.9228 63.3788C22.8428 55.5316 34.5501 50.2605 47.0013 48.0353C59.4525 45.81 72.2609 46.6997 84.2849 50.6251C92.5327 53.09 99.9194 57.8283 105.599 64.2972C110.986 70.9428 121.357 76.8638 118.599 84.9617L120.974 86.0817Z" fill="#2F2E41"/>
<path d="M53.5717 40.2247C71.4942 22.05 93.1828 8.02482 117.111 -0.863281C132.47 -6.55343 149.188 -10.069 165.245 -6.8376C181.303 -3.6062 196.489 7.50237 200.969 23.2574C204.632 36.1404 200.849 50.0116 195.164 62.1389C189.48 74.2663 181.89 85.5122 177.293 98.0922C172.602 110.928 171.191 124.732 173.189 138.252C175.186 151.771 180.528 164.578 188.731 175.509C196.933 186.44 207.735 195.149 220.157 200.847C232.58 206.544 246.228 209.048 259.863 208.133C244.086 210.248 229.543 217.663 214.121 221.609C198.7 225.556 180.498 225.288 169.038 214.24C156.912 202.551 156.669 183.545 157.256 166.713C158.127 141.691 158.999 116.669 159.87 91.6474C160.314 78.8868 160.694 65.7173 156.092 53.8071C151.49 41.8969 140.554 31.4675 127.786 31.5759C118.109 31.658 109.544 37.5201 101.784 43.3013C94.0233 49.0824 85.8095 55.2505 76.1707 56.1104C66.5318 56.9703 55.5264 49.8372 56.2476 40.187" fill="#2F2E41"/>
<path d="M158.662 399.636C162.428 399.631 166.145 398.792 169.547 397.178C172.949 395.564 175.951 393.216 178.336 390.302C180.72 387.388 182.429 383.982 183.339 380.328C184.249 376.674 184.337 372.864 183.597 369.172C182.857 365.48 181.308 361.998 179.06 358.978C176.812 355.957 173.922 353.472 170.599 351.702C167.275 349.933 163.6 348.922 159.839 348.744C156.078 348.566 152.324 349.224 148.848 350.671H148.848C147.802 351.113 146.788 351.626 145.813 352.209L42.3005 305.735L39.3927 277.661L-5.22742 276.467L-4.932 323.206C-4.87715 328.62 -3.07798 333.873 0.198367 338.183C3.47472 342.494 8.0536 345.633 13.2555 347.135L134.309 381.592C134.544 382.392 134.821 383.179 135.139 383.95C137.082 388.589 140.35 392.552 144.534 395.342C148.718 398.132 153.633 399.626 158.662 399.636V399.636Z" fill="#A0616A"/>
<path d="M-1.44808 299.378C-0.178954 300.02 1.20845 300.396 2.62828 300.48L34.9577 302.468C37.7128 302.634 40.4211 301.7 42.4889 299.872C44.5566 298.044 45.8149 295.471 45.9879 292.716L49.5365 234.985C49.7572 231.494 49.2874 227.994 48.154 224.685C47.0206 221.376 45.2461 218.323 42.9316 215.701C40.6171 213.078 37.8081 210.938 34.6656 209.402C31.523 207.866 28.1085 206.965 24.6174 206.751C21.1262 206.536 17.627 207.012 14.3199 208.15C11.0128 209.289 7.96287 211.069 5.34435 213.388C2.72583 215.707 0.590165 218.52 -0.940282 221.665C-2.47073 224.81 -3.36599 228.226 -3.57487 231.717L-7.12395 289.448C-7.24721 291.476 -6.77573 293.496 -5.76747 295.26C-4.75921 297.024 -3.25797 298.455 -1.44794 299.378L-1.44808 299.378Z" fill="#E53935"/>
<path d="M68.8155 405.473H251.591C253.739 405.473 255.798 404.619 257.317 403.101C258.836 401.582 259.689 399.523 259.689 397.375C259.689 395.227 258.836 393.168 257.317 391.649C255.798 390.131 253.739 389.277 251.591 389.277H68.8155C66.6679 389.277 64.6082 390.131 63.0895 391.649C61.5709 393.168 60.7179 395.227 60.7179 397.375V397.375C60.7179 399.523 61.5709 401.582 63.0895 403.101C64.6082 404.619 66.6679 405.473 68.8155 405.473V405.473Z" fill="#3F3D56"/>
<path d="M331.411 390.434V277.067C331.406 273.08 329.821 269.257 327.001 266.438C324.182 263.619 320.359 262.033 316.372 262.028H110.461C106.474 262.033 102.651 263.619 99.8318 266.438C97.0125 269.257 95.4267 273.08 95.4222 277.067V390.434C95.4267 394.421 97.0125 398.244 99.8318 401.063C102.651 403.882 106.474 405.468 110.461 405.472H316.372C320.359 405.468 324.182 403.882 327.001 401.063C329.821 398.244 331.406 394.421 331.411 390.434V390.434Z" fill="#3F3D56"/>
<path d="M213.417 347.632C205.75 347.632 199.535 341.417 199.535 333.75C199.535 326.083 205.75 319.868 213.417 319.868C221.083 319.868 227.298 326.083 227.298 333.75C227.298 341.417 221.083 347.632 213.417 347.632Z" fill="white"/>
</g>
<defs>
<clipPath id="clip0">
<rect width="973.836" height="555.517" fill="white" transform="translate(0.981201)"/>
</clipPath>
<clipPath id="clip1">
<rect width="119.712" height="64.5637" fill="white" transform="translate(758.26 238.079)"/>
</clipPath>
<clipPath id="clip2">
<rect width="225.973" height="225.973" fill="white" transform="translate(438.131 161.409)"/>
</clipPath>
</defs>
</svg>
