<svg width="975" height="556" viewBox="0 0 975 556" fill="none" xmlns="http://www.w3.org/2000/svg">
<g clip-path="url(#clip0)">
<g clip-path="url(#clip1)">
<path d="M877.57 258.257C877.57 256.809 876.412 255.634 874.99 255.634C873.564 255.634 872.405 256.809 872.405 258.257V263.775C872.405 265.231 873.564 266.406 874.99 266.406C876.412 266.406 877.57 265.231 877.57 263.775V258.257ZM863.373 251.016C863.373 249.567 862.218 248.391 860.761 248.391C859.335 248.391 858.18 249.567 858.18 251.016V263.775C858.18 265.231 859.335 266.406 860.761 266.406C862.218 266.406 863.373 265.231 863.373 263.775V251.016ZM849.148 241.108C849.148 239.659 847.993 238.485 846.567 238.485C845.142 238.485 843.987 239.659 843.987 241.108V269.018C843.987 270.475 845.142 271.649 846.567 271.649C847.993 271.649 849.148 270.475 849.148 269.018V241.108ZM834.919 251.016C834.919 249.567 833.764 248.391 832.339 248.391C830.916 248.391 829.758 249.567 829.758 251.016V263.775C829.758 265.231 830.916 266.406 832.339 266.406C833.764 266.406 834.919 265.231 834.919 263.775V251.016ZM820.693 258.257C820.693 256.809 819.539 255.634 818.121 255.634C816.695 255.634 815.533 256.809 815.533 258.257V263.775C815.533 265.231 816.695 266.406 818.121 266.406C819.539 266.406 820.693 265.231 820.693 263.775V258.257ZM806.491 251.016C806.491 249.567 805.327 248.391 803.902 248.391C802.476 248.391 801.313 249.567 801.313 251.016V263.775C801.313 265.231 802.476 266.406 803.902 266.406C805.327 266.406 806.491 265.231 806.491 263.775V251.016ZM792.272 241.108C792.272 239.659 791.108 238.485 789.683 238.485C788.257 238.485 787.094 239.659 787.094 241.108V269.018C787.094 270.475 788.257 271.649 789.683 271.649C791.108 271.649 792.272 270.475 792.272 269.018V241.108ZM778.052 251.016C778.052 249.567 776.889 248.391 775.464 248.391C774.038 248.391 772.875 249.567 772.875 251.016V263.775C772.875 265.231 774.038 266.406 775.464 266.406C776.889 266.406 778.052 265.231 778.052 263.775V251.016ZM763.833 258.257C763.833 256.809 762.67 255.634 761.245 255.634C759.82 255.634 758.656 256.809 758.656 258.257V263.775C758.656 265.231 759.82 266.406 761.245 266.406C762.67 266.406 763.833 265.231 763.833 263.775V258.257ZM817.276 281.136C817.121 281.093 814.732 280.466 812.194 280.466C807.388 280.466 804.494 283.106 804.494 287.037C804.494 290.517 806.915 292.252 809.82 293.185C810.142 293.294 810.616 293.445 810.932 293.551C812.226 293.965 813.258 294.58 813.258 295.645C813.258 296.836 812.065 297.607 809.471 297.607C807.192 297.607 805.007 296.944 804.547 296.826V301.663C804.803 301.718 807.4 302.237 810.174 302.237C814.165 302.237 818.729 300.463 818.729 295.184C818.729 292.623 817.187 290.265 813.803 289.171L812.365 288.705C811.507 288.429 809.974 287.983 809.974 286.704C809.974 285.693 811.11 284.981 813.2 284.981C815.004 284.981 817.198 285.598 817.276 285.622V281.136ZM861.341 291.352C861.341 294.41 859.038 296.884 855.948 296.884C852.854 296.884 850.558 294.41 850.558 291.352C850.558 288.3 852.854 285.824 855.948 285.824C859.038 285.824 861.341 288.3 861.341 291.352ZM855.948 280.473C849.593 280.473 845.035 285.348 845.035 291.352C845.035 297.364 849.593 302.237 855.948 302.237C862.303 302.237 866.867 297.364 866.867 291.352C866.867 285.348 862.303 280.473 855.948 280.473ZM785.12 281.226C784.63 281.078 782.819 280.473 780.365 280.473C774.02 280.473 769.362 285.075 769.362 291.352C769.362 298.123 774.504 302.237 780.365 302.237C782.694 302.237 784.472 301.675 785.12 301.488V295.847C784.896 295.973 783.191 296.962 780.739 296.962C777.265 296.962 775.025 294.475 775.025 291.352C775.025 288.133 777.362 285.745 780.739 285.745C783.233 285.745 784.91 286.756 785.12 286.868V281.226ZM839.545 281.226C839.051 281.078 837.238 280.473 834.793 280.473C828.439 280.473 823.781 285.075 823.781 291.352C823.781 298.123 828.929 302.237 834.793 302.237C837.109 302.237 838.89 301.675 839.545 301.488V295.847C839.316 295.973 837.609 296.962 835.158 296.962C831.687 296.962 829.448 294.475 829.448 291.352C829.448 288.133 831.787 285.745 835.158 285.745C837.651 285.745 839.332 286.756 839.545 286.868V281.226ZM797.502 301.862H792.287V280.845H797.502V301.862Z" fill="#00BCEB"/>
</g>
<path d="M145.774 221.581H166.29V231.839H145.774V221.581Z" fill="black"/>
<path d="M417.613 201.065C426.095 201.065 433 194.16 433 185.677V134.387C433 125.905 426.095 119 417.613 119H345.806C337.324 119 330.419 125.905 330.419 134.387V185.677C330.419 194.16 337.324 201.065 345.806 201.065H361.194V211.323H350.935V221.581H376.581V272.871H355.413C351.321 268.876 346.282 265.819 340.642 264.136C340.667 263.617 340.677 263.116 340.677 262.613C340.677 239.988 322.27 221.581 299.645 221.581C285.608 221.581 272.56 228.884 265.087 240.564C259.823 238.2 254.13 236.968 248.355 236.968C231.332 236.968 216.005 247.697 210.01 263.434C206.113 264.271 202.482 265.768 199.183 267.742H161.161V252.355H181.677C190.16 252.355 197.065 245.45 197.065 236.968V134.387C197.065 125.905 190.16 119 181.677 119H130.387C121.905 119 115 125.905 115 134.387V236.968C115 245.45 121.905 252.355 130.387 252.355H150.903V278H188.274C186.093 281.113 184.4 284.549 183.288 288.258H161.161V344.677H140.645C132.163 344.677 125.258 351.582 125.258 360.065V406.226H115V421.613C115 430.095 121.905 437 130.387 437H212.452C220.934 437 227.839 430.095 227.839 421.613V406.226H217.581V360.065C217.581 351.582 210.676 344.677 202.194 344.677H171.419V298.516H181.677C181.677 318.308 197.788 334.419 217.581 334.419H330.419C348.469 334.419 363.41 321.013 365.912 303.645H386.839V344.677H350.935V437H433V344.677H397.097V293.387H365.892C365.358 289.776 364.251 286.34 362.701 283.129H386.839V221.581H412.484V211.323H402.226V201.065H417.613ZM186.806 201.065H125.258V149.774H186.806V201.065ZM130.387 129.258H181.677C184.507 129.258 186.806 131.557 186.806 134.387V139.516H125.258V134.387C125.258 131.557 127.557 129.258 130.387 129.258ZM125.258 236.968V211.323H186.806V236.968C186.806 239.798 184.507 242.097 181.677 242.097H130.387C127.557 242.097 125.258 239.798 125.258 236.968ZM217.581 421.613C217.581 424.443 215.282 426.742 212.452 426.742H130.387C127.557 426.742 125.258 424.443 125.258 421.613V416.484H217.581V421.613ZM207.323 360.065V406.226H135.516V360.065C135.516 357.235 137.815 354.935 140.645 354.935H202.194C205.024 354.935 207.323 357.235 207.323 360.065ZM361.194 426.742V395.968H422.742V426.742H361.194ZM422.742 385.71H361.194V354.935H422.742V385.71ZM330.419 324.161H217.581C203.441 324.161 191.935 312.656 191.935 298.516C191.935 285.551 201.64 274.614 214.503 273.076L217.869 272.671L218.818 269.415C222.612 256.349 234.763 247.226 248.355 247.226C254.017 247.226 259.577 248.816 264.451 251.816L269.347 254.837L271.789 249.62C276.837 238.813 287.772 231.839 299.645 231.839C316.618 231.839 330.419 245.641 330.419 262.613C330.419 264.028 330.292 265.536 330.014 267.356L329.24 272.43L334.311 273.199C346.713 275.092 356.065 285.977 356.065 298.516C356.065 312.656 344.559 324.161 330.419 324.161V324.161ZM345.806 129.258H417.613C420.443 129.258 422.742 131.557 422.742 134.387V170.29H340.677V134.387C340.677 131.557 342.976 129.258 345.806 129.258ZM340.677 185.677V180.548H422.742V185.677C422.742 188.507 420.443 190.806 417.613 190.806H345.806C342.976 190.806 340.677 188.507 340.677 185.677ZM391.968 211.323H371.452V201.065H391.968V211.323Z" fill="black"/>
<path d="M371.452 365.194H381.71V375.452H371.452V365.194Z" fill="black"/>
<path d="M402.226 406.226H412.484V416.484H402.226V406.226Z" fill="black"/>
<path d="M391.968 365.194H412.484V375.452H391.968V365.194Z" fill="black"/>
<path d="M371.452 406.226H391.968V416.484H371.452V406.226Z" fill="black"/>
</g>
<defs>
<clipPath id="clip0">
<rect width="973.836" height="555.517" fill="white" transform="translate(0.981201)"/>
</clipPath>
<clipPath id="clip1">
<rect width="119.712" height="64.5637" fill="white" transform="translate(758.26 238.079)"/>
</clipPath>
</defs>
</svg>
