<svg width="1057" height="279" viewBox="0 0 1057 279" fill="none" xmlns="http://www.w3.org/2000/svg">
<g clip-path="url(#clip0)">
<rect x="21.3122" y="24.3122" width="151.061" height="87.8619" rx="43.9309" fill="#DBDDE0" stroke="#1055B1" stroke-width="4.62431"/>
<path d="M83.297 54.956H86.0439V45.3251H89.842V43.0869H79.4989V45.3251H83.297V54.956ZM94.6318 45.6981C93.1736 45.6981 91.6984 46.0881 90.698 46.8003L91.6475 48.6484C92.3088 48.1228 93.3092 47.8006 94.2757 47.8006C95.7 47.8006 96.3782 48.4619 96.3782 49.598H94.2757C91.4949 49.598 90.3589 50.717 90.3589 52.3278C90.3589 53.9047 91.6306 55.0916 93.767 55.0916C95.1065 55.0916 96.056 54.6508 96.5478 53.82V54.956H99.0233V49.7506C99.0233 46.9868 97.4125 45.6981 94.6318 45.6981ZM94.4283 53.3113C93.4957 53.3113 92.9362 52.8704 92.9362 52.2092C92.9362 51.5987 93.3262 51.1409 94.5639 51.1409H96.3782V52.0735C96.073 52.9043 95.31 53.3113 94.4283 53.3113ZM101.7 54.956H104.345V42.3748H101.7V54.956ZM113.882 54.956H117.086L112.949 49.6997L116.747 45.8338H113.593L109.728 49.4962V42.3748H107.082V54.956H109.728V52.633L110.999 51.3783L113.882 54.956ZM95.3953 72.65C95.1071 72.8704 94.7171 72.9891 94.3271 72.9891C93.6149 72.9891 93.191 72.5652 93.191 71.7853V68.0719H95.4631V66.0372H93.191V63.816H90.5459V66.0372H89.1386V68.0719H90.5459V71.8192C90.5459 73.9895 91.8007 75.0916 93.9541 75.0916C94.7679 75.0916 95.5649 74.9051 96.1074 74.5151L95.3953 72.65ZM101.934 75.0916C104.834 75.0916 106.936 73.1417 106.936 70.3949C106.936 67.648 104.834 65.6981 101.934 65.6981C99.0346 65.6981 96.9151 67.648 96.9151 70.3949C96.9151 73.1417 99.0346 75.0916 101.934 75.0916ZM101.934 72.9213C100.612 72.9213 99.5942 71.9718 99.5942 70.3949C99.5942 68.818 100.612 67.8685 101.934 67.8685C103.257 67.8685 104.257 68.818 104.257 70.3949C104.257 71.9718 103.257 72.9213 101.934 72.9213ZM79.6865 95.1595C83.0607 95.1595 85.0615 93.2265 85.0615 89.7336V83.0869H82.3485V89.6319C82.3485 91.887 81.3821 92.8196 79.7034 92.8196C78.0418 92.8196 77.0583 91.887 77.0583 89.6319V83.0869H74.3115V89.7336C74.3115 93.2265 76.3123 95.1595 79.6865 95.1595ZM90.9409 95.0916C93.6708 95.0916 95.2477 93.8878 95.2477 92.1922C95.2477 88.5976 89.7371 90.1066 89.7371 88.5467C89.7371 88.0719 90.2457 87.6989 91.4327 87.6989C92.2635 87.6989 93.1621 87.8685 94.0608 88.3771L94.9425 86.495C94.0778 85.9864 92.6874 85.6981 91.4327 85.6981C88.7706 85.6981 87.2107 86.9189 87.2107 88.6484C87.2107 92.2939 92.7213 90.7679 92.7213 92.26C92.7213 92.7687 92.2635 93.0909 91.0427 93.0909C89.9236 93.0909 88.6858 92.7348 87.8719 92.2092L86.9902 94.1082C87.838 94.6677 89.398 95.0916 90.9409 95.0916ZM106.098 90.4288C106.098 87.4954 104.029 85.6981 101.35 85.6981C98.5696 85.6981 96.4841 87.665 96.4841 90.3949C96.4841 93.1078 98.5357 95.0916 101.69 95.0916C103.334 95.0916 104.606 94.583 105.454 93.6165L104.046 92.0905C103.419 92.6839 102.724 92.9722 101.757 92.9722C100.367 92.9722 99.4005 92.277 99.1461 91.1409H106.047C106.064 90.9205 106.098 90.6323 106.098 90.4288ZM101.367 87.6989C102.554 87.6989 103.419 88.445 103.606 89.598H99.1122C99.2987 88.428 100.163 87.6989 101.367 87.6989ZM110.668 87.0376V85.8338H108.142V94.956H110.787V90.6492C110.787 88.9028 111.753 88.1058 113.211 88.1058C113.415 88.1058 113.584 88.1228 113.805 88.1398V85.6981C112.398 85.6981 111.312 86.1559 110.668 87.0376ZM118.762 95.0916C121.492 95.0916 123.069 93.8878 123.069 92.1922C123.069 88.5976 117.558 90.1066 117.558 88.5467C117.558 88.0719 118.067 87.6989 119.254 87.6989C120.085 87.6989 120.984 87.8685 121.882 88.3771L122.764 86.495C121.899 85.9864 120.509 85.6981 119.254 85.6981C116.592 85.6981 115.032 86.9189 115.032 88.6484C115.032 92.2939 120.543 90.7679 120.543 92.26C120.543 92.7687 120.085 93.0909 118.864 93.0909C117.745 93.0909 116.507 92.7348 115.693 92.2092L114.812 94.1082C115.659 94.6677 117.219 95.0916 118.762 95.0916Z" fill="#1055B1"/>
<rect x="852.688" y="25.5994" width="184.972" height="87.8619" rx="43.9309" fill="#DBDDE0" stroke="#1055B1" stroke-width="4.62431"/>
<path d="M902.389 74.039V71.2922H907.899V69.1558H902.389V66.5785H908.628V64.3742H899.659V76.2433H908.849V74.039H902.389ZM917.559 67.1211L914.948 73.3269L912.421 67.1211H909.691L913.523 76.2433H916.253L920.102 67.1211H917.559ZM924.845 66.9854C923.387 66.9854 921.912 67.3754 920.912 68.0875L921.861 69.9357C922.523 69.4101 923.523 69.0879 924.489 69.0879C925.914 69.0879 926.592 69.7492 926.592 70.8853H924.489C921.709 70.8853 920.573 72.0043 920.573 73.6151C920.573 75.192 921.844 76.3789 923.981 76.3789C925.32 76.3789 926.27 75.9381 926.761 75.1072V76.2433H929.237V71.0379C929.237 68.2741 927.626 66.9854 924.845 66.9854ZM924.642 74.5986C923.709 74.5986 923.15 74.1577 923.15 73.4964C923.15 72.886 923.54 72.4282 924.778 72.4282H926.592V73.3608C926.287 74.1916 925.524 74.5986 924.642 74.5986ZM931.914 76.2433H934.559V63.6621H931.914V76.2433ZM943.841 67.1211V71.6313C943.841 73.3099 942.959 74.0899 941.739 74.0899C940.569 74.0899 939.89 73.4117 939.89 71.8856V67.1211H937.245V72.2756C937.245 75.0903 938.856 76.3789 941.145 76.3789C942.264 76.3789 943.282 75.955 943.977 75.1581V76.2433H946.486V67.1211H943.841ZM952.899 66.9854C951.441 66.9854 949.965 67.3754 948.965 68.0875L949.915 69.9357C950.576 69.4101 951.576 69.0879 952.543 69.0879C953.967 69.0879 954.645 69.7492 954.645 70.8853H952.543C949.762 70.8853 948.626 72.0043 948.626 73.6151C948.626 75.192 949.898 76.3789 952.034 76.3789C953.373 76.3789 954.323 75.9381 954.815 75.1072V76.2433H957.29V71.0379C957.29 68.2741 955.679 66.9854 952.899 66.9854ZM952.695 74.5986C951.763 74.5986 951.203 74.1577 951.203 73.4964C951.203 72.886 951.593 72.4282 952.831 72.4282H954.645V73.3608C954.34 74.1916 953.577 74.5986 952.695 74.5986ZM965.138 73.9373C964.85 74.1577 964.46 74.2764 964.07 74.2764C963.358 74.2764 962.934 73.8525 962.934 73.0726V69.3592H965.206V67.3245H962.934V65.1033H960.289V67.3245H958.882V69.3592H960.289V73.1065C960.289 75.2768 961.544 76.3789 963.697 76.3789C964.511 76.3789 965.308 76.1924 965.85 75.8024L965.138 73.9373ZM968.94 65.8494C969.924 65.8494 970.585 65.2051 970.585 64.3234C970.585 63.5095 969.924 62.8991 968.94 62.8991C967.957 62.8991 967.296 63.5434 967.296 64.3742C967.296 65.2051 967.957 65.8494 968.94 65.8494ZM967.618 76.2433H970.263V67.1211H967.618V76.2433ZM977.341 76.3789C980.241 76.3789 982.343 74.429 982.343 71.6822C982.343 68.9353 980.241 66.9854 977.341 66.9854C974.442 66.9854 972.322 68.9353 972.322 71.6822C972.322 74.429 974.442 76.3789 977.341 76.3789ZM977.341 74.2086C976.019 74.2086 975.001 73.2591 975.001 71.6822C975.001 70.1053 976.019 69.1558 977.341 69.1558C978.664 69.1558 979.664 70.1053 979.664 71.6822C979.664 73.2591 978.664 74.2086 977.341 74.2086ZM989.938 66.9854C988.701 66.9854 987.632 67.4093 986.92 68.1893V67.1211H984.394V76.2433H987.039V71.733C987.039 70.0544 987.954 69.2745 989.226 69.2745C990.396 69.2745 991.074 69.9527 991.074 71.4278V76.2433H993.719V71.0209C993.719 68.2401 992.092 66.9854 989.938 66.9854Z" fill="#1055B1"/>
<rect x="249.986" y="25.5994" width="220.425" height="87.8619" rx="43.9309" fill="#DBDDE0" stroke="#1055B1" stroke-width="4.62431" stroke-dasharray="7.71 7.71"/>
<path d="M327.431 64.3549C326.736 64.7279 326.041 64.8636 325.294 64.8636C323.022 64.8636 321.446 63.2867 321.446 61.0655C321.446 58.8103 323.022 57.2674 325.328 57.2674C326.532 57.2674 327.533 57.6913 328.397 58.6069L330.161 56.9791C329.008 55.6396 327.278 54.9275 325.193 54.9275C321.412 54.9275 318.665 57.4878 318.665 61.0655C318.665 64.6431 321.412 67.2035 325.142 67.2035C326.837 67.2035 328.635 66.6778 329.94 65.6944V60.879H327.431V64.3549ZM341.524 62.4728C341.524 59.5394 339.455 57.7421 336.776 57.7421C333.995 57.7421 331.91 59.709 331.91 62.4389C331.91 65.1518 333.961 67.1356 337.115 67.1356C338.76 67.1356 340.032 66.627 340.879 65.6605L339.472 64.1345C338.845 64.7279 338.15 65.0162 337.183 65.0162C335.793 65.0162 334.826 64.321 334.572 63.1849H341.473C341.49 62.9645 341.524 62.6763 341.524 62.4728ZM336.793 59.7429C337.98 59.7429 338.845 60.489 339.031 61.642H334.538C334.724 60.472 335.589 59.7429 336.793 59.7429ZM349.112 57.7421C347.874 57.7421 346.806 58.166 346.094 58.946V57.8778H343.567V67H346.212V62.4898C346.212 60.8111 347.128 60.0312 348.4 60.0312C349.57 60.0312 350.248 60.7094 350.248 62.1846V67H352.893V61.7776C352.893 58.9969 351.265 57.7421 349.112 57.7421ZM364.608 62.4728C364.608 59.5394 362.54 57.7421 359.861 57.7421C357.08 57.7421 354.994 59.709 354.994 62.4389C354.994 65.1518 357.046 67.1356 360.2 67.1356C361.845 67.1356 363.116 66.627 363.964 65.6605L362.557 64.1345C361.929 64.7279 361.234 65.0162 360.268 65.0162C358.877 65.0162 357.911 64.321 357.656 63.1849H364.557C364.574 62.9645 364.608 62.6763 364.608 62.4728ZM359.878 59.7429C361.065 59.7429 361.929 60.489 362.116 61.642H357.623C357.809 60.472 358.674 59.7429 359.878 59.7429ZM369.178 59.0816V57.8778H366.652V67H369.297V62.6932C369.297 60.9468 370.264 60.1499 371.722 60.1499C371.925 60.1499 372.095 60.1668 372.315 60.1838V57.7421C370.908 57.7421 369.823 58.1999 369.178 59.0816ZM377.8 57.7421C376.342 57.7421 374.867 58.1321 373.867 58.8443L374.816 60.6924C375.477 60.1668 376.478 59.8447 377.444 59.8447C378.869 59.8447 379.547 60.5059 379.547 61.642H377.444C374.664 61.642 373.527 62.761 373.527 64.3719C373.527 65.9487 374.799 67.1356 376.936 67.1356C378.275 67.1356 379.225 66.6948 379.716 65.864V67H382.192V61.7946C382.192 59.0308 380.581 57.7421 377.8 57.7421ZM377.597 65.3553C376.664 65.3553 376.105 64.9144 376.105 64.2532C376.105 63.6428 376.495 63.1849 377.733 63.1849H379.547V64.1175C379.242 64.9483 378.479 65.3553 377.597 65.3553ZM390.04 64.694C389.752 64.9144 389.362 65.0331 388.972 65.0331C388.26 65.0331 387.836 64.6092 387.836 63.8293V60.1159H390.108V58.0812H387.836V55.86H385.191V58.0812H383.783V60.1159H385.191V63.8632C385.191 66.0335 386.445 67.1356 388.599 67.1356C389.413 67.1356 390.209 66.9491 390.752 66.5591L390.04 64.694ZM401.174 62.4728C401.174 59.5394 399.105 57.7421 396.426 57.7421C393.645 57.7421 391.56 59.709 391.56 62.4389C391.56 65.1518 393.611 67.1356 396.765 67.1356C398.41 67.1356 399.682 66.627 400.529 65.6605L399.122 64.1345C398.495 64.7279 397.8 65.0162 396.833 65.0162C395.443 65.0162 394.476 64.321 394.222 63.1849H401.123C401.14 62.9645 401.174 62.6763 401.174 62.4728ZM396.443 59.7429C397.63 59.7429 398.495 60.489 398.681 61.642H394.188C394.374 60.472 395.239 59.7429 396.443 59.7429ZM315.04 87.2035C317.109 87.2035 318.821 86.4574 319.94 85.084L318.177 83.4562C317.38 84.3888 316.38 84.8636 315.193 84.8636C312.971 84.8636 311.395 83.3036 311.395 81.0655C311.395 78.8273 312.971 77.2674 315.193 77.2674C316.38 77.2674 317.38 77.7421 318.177 78.6577L319.94 77.03C318.821 75.6735 317.109 74.9275 315.057 74.9275C311.361 74.9275 308.614 77.4878 308.614 81.0655C308.614 84.6431 311.361 87.2035 315.04 87.2035ZM325.917 87.1356C328.817 87.1356 330.919 85.1857 330.919 82.4389C330.919 79.692 328.817 77.7421 325.917 77.7421C323.018 77.7421 320.898 79.692 320.898 82.4389C320.898 85.1857 323.018 87.1356 325.917 87.1356ZM325.917 84.9653C324.595 84.9653 323.577 84.0158 323.577 82.4389C323.577 80.862 324.595 79.9125 325.917 79.9125C327.24 79.9125 328.24 80.862 328.24 82.4389C328.24 84.0158 327.24 84.9653 325.917 84.9653ZM344.653 77.7421C343.279 77.7421 342.092 78.3017 341.363 79.2342C340.719 78.2339 339.634 77.7421 338.362 77.7421C337.192 77.7421 336.175 78.1491 335.496 78.929V77.8778H332.97V87H335.615V82.4219C335.615 80.7942 336.446 80.0312 337.616 80.0312C338.718 80.0312 339.345 80.7094 339.345 82.1846V87H341.99V82.4219C341.99 80.7942 342.821 80.0312 344.008 80.0312C345.076 80.0312 345.738 80.7094 345.738 82.1846V87H348.383V81.7776C348.383 78.9969 346.823 77.7421 344.653 77.7421ZM362.719 77.7421C361.345 77.7421 360.159 78.3017 359.429 79.2342C358.785 78.2339 357.7 77.7421 356.428 77.7421C355.258 77.7421 354.241 78.1491 353.563 78.929V77.8778H351.036V87H353.681V82.4219C353.681 80.7942 354.512 80.0312 355.682 80.0312C356.784 80.0312 357.412 80.7094 357.412 82.1846V87H360.057V82.4219C360.057 80.7942 360.888 80.0312 362.075 80.0312C363.143 80.0312 363.804 80.7094 363.804 82.1846V87H366.449V81.7776C366.449 78.9969 364.889 77.7421 362.719 77.7421ZM372.782 77.7421C371.324 77.7421 369.849 78.1321 368.848 78.8443L369.798 80.6924C370.459 80.1668 371.459 79.8447 372.426 79.8447C373.85 79.8447 374.528 80.5059 374.528 81.642H372.426C369.645 81.642 368.509 82.761 368.509 84.3719C368.509 85.9487 369.781 87.1356 371.917 87.1356C373.257 87.1356 374.206 86.6948 374.698 85.864V87H377.174V81.7946C377.174 79.0308 375.563 77.7421 372.782 77.7421ZM372.579 85.3553C371.646 85.3553 371.086 84.9144 371.086 84.2532C371.086 83.6428 371.476 83.1849 372.714 83.1849H374.528V84.1175C374.223 84.9483 373.46 85.3553 372.579 85.3553ZM385.395 77.7421C384.157 77.7421 383.089 78.166 382.377 78.946V77.8778H379.85V87H382.495V82.4898C382.495 80.8111 383.411 80.0312 384.683 80.0312C385.852 80.0312 386.531 80.7094 386.531 82.1846V87H389.176V81.7776C389.176 78.9969 387.548 77.7421 385.395 77.7421ZM398.602 74.4188V78.8443C397.941 78.0982 396.991 77.7421 395.872 77.7421C393.295 77.7421 391.311 79.5734 391.311 82.4389C391.311 85.3044 393.295 87.1356 395.872 87.1356C397.093 87.1356 398.06 86.7457 398.721 85.9487V87H401.247V74.4188H398.602ZM396.33 84.9653C395.007 84.9653 393.99 84.0158 393.99 82.4389C393.99 80.862 395.007 79.9125 396.33 79.9125C397.636 79.9125 398.653 80.862 398.653 82.4389C398.653 84.0158 397.636 84.9653 396.33 84.9653ZM407.047 87.1356C409.777 87.1356 411.354 85.9318 411.354 84.2362C411.354 80.6416 405.843 82.1506 405.843 80.5907C405.843 80.1159 406.352 79.7429 407.539 79.7429C408.369 79.7429 409.268 79.9125 410.167 80.4211L411.048 78.5391C410.184 78.0304 408.793 77.7421 407.539 77.7421C404.877 77.7421 403.317 78.9629 403.317 80.6924C403.317 84.3379 408.827 82.8119 408.827 84.304C408.827 84.8127 408.369 85.1349 407.149 85.1349C406.03 85.1349 404.792 84.7788 403.978 84.2532L403.096 86.1522C403.944 86.7118 405.504 87.1356 407.047 87.1356Z" fill="#1055B1"/>
<rect x="547.483" y="25.5994" width="228.133" height="87.8619" rx="43.9309" fill="#DBDDE0" stroke="#1055B1" stroke-width="4.62431" stroke-dasharray="7.71 7.71"/>
<path d="M614.035 64.3742H608.897V76.2433H611.644V72.9708H614.035C617.206 72.9708 619.189 71.3261 619.189 68.681C619.189 66.0189 617.206 64.3742 614.035 64.3742ZM613.882 70.7327H611.644V66.6124H613.882C615.561 66.6124 616.409 67.3754 616.409 68.681C616.409 69.9696 615.561 70.7327 613.882 70.7327ZM623.773 68.3249V67.1211H621.247V76.2433H623.892V71.9365C623.892 70.1901 624.858 69.3931 626.316 69.3931C626.52 69.3931 626.689 69.4101 626.91 69.4271V66.9854C625.502 66.9854 624.417 67.4432 623.773 68.3249ZM633.023 76.3789C635.922 76.3789 638.025 74.429 638.025 71.6822C638.025 68.9353 635.922 66.9854 633.023 66.9854C630.124 66.9854 628.004 68.9353 628.004 71.6822C628.004 74.429 630.124 76.3789 633.023 76.3789ZM633.023 74.2086C631.7 74.2086 630.683 73.2591 630.683 71.6822C630.683 70.1053 631.7 69.1558 633.023 69.1558C634.346 69.1558 635.346 70.1053 635.346 71.6822C635.346 73.2591 634.346 74.2086 633.023 74.2086ZM645.247 73.9373C644.959 74.1577 644.569 74.2764 644.179 74.2764C643.467 74.2764 643.043 73.8525 643.043 73.0726V69.3592H645.315V67.3245H643.043V65.1033H640.398V67.3245H638.99V69.3592H640.398V73.1065C640.398 75.2768 641.653 76.3789 643.806 76.3789C644.62 76.3789 645.417 76.1924 645.959 75.8024L645.247 73.9373ZM651.786 76.3789C654.685 76.3789 656.788 74.429 656.788 71.6822C656.788 68.9353 654.685 66.9854 651.786 66.9854C648.886 66.9854 646.767 68.9353 646.767 71.6822C646.767 74.429 648.886 76.3789 651.786 76.3789ZM651.786 74.2086C650.463 74.2086 649.446 73.2591 649.446 71.6822C649.446 70.1053 650.463 69.1558 651.786 69.1558C653.108 69.1558 654.109 70.1053 654.109 71.6822C654.109 73.2591 653.108 74.2086 651.786 74.2086ZM664.01 73.9373C663.722 74.1577 663.332 74.2764 662.942 74.2764C662.23 74.2764 661.806 73.8525 661.806 73.0726V69.3592H664.078V67.3245H661.806V65.1033H659.161V67.3245H657.753V69.3592H659.161V73.1065C659.161 75.2768 660.415 76.3789 662.569 76.3789C663.383 76.3789 664.18 76.1924 664.722 75.8024L664.01 73.9373ZM672.835 67.1211L670.258 73.3099L667.697 67.1211H664.968L668.918 76.3111L668.884 76.3959C668.528 77.2098 668.121 77.5319 667.392 77.5319C666.867 77.5319 666.307 77.3115 665.9 76.9554L664.934 78.8375C665.527 79.3632 666.544 79.6684 667.477 79.6684C669.122 79.6684 670.376 79.0071 671.258 76.8028L675.378 67.1211H672.835ZM682.132 66.9854C680.911 66.9854 679.928 67.3754 679.267 68.1723V67.1211H676.74V79.5327H679.385V75.2768C680.064 76.0229 680.996 76.3789 682.132 76.3789C684.693 76.3789 686.676 74.5477 686.676 71.6822C686.676 68.8166 684.693 66.9854 682.132 66.9854ZM681.674 74.2086C680.352 74.2086 679.352 73.2591 679.352 71.6822C679.352 70.1053 680.352 69.1558 681.674 69.1558C682.997 69.1558 683.997 70.1053 683.997 71.6822C683.997 73.2591 682.997 74.2086 681.674 74.2086ZM690.052 65.8494C691.036 65.8494 691.697 65.2051 691.697 64.3234C691.697 63.5095 691.036 62.8991 690.052 62.8991C689.069 62.8991 688.408 63.5434 688.408 64.3742C688.408 65.2051 689.069 65.8494 690.052 65.8494ZM688.73 76.2433H691.375V67.1211H688.73V76.2433ZM699.657 66.9854C698.419 66.9854 697.351 67.4093 696.639 68.1893V67.1211H694.112V76.2433H696.757V71.733C696.757 70.0544 697.673 69.2745 698.945 69.2745C700.115 69.2745 700.793 69.9527 700.793 71.4278V76.2433H703.438V71.0209C703.438 68.2401 701.81 66.9854 699.657 66.9854ZM713.119 67.1211V68.291C712.423 67.4093 711.372 66.9854 710.1 66.9854C707.574 66.9854 705.539 68.7319 705.539 71.3939C705.539 74.056 707.574 75.8024 710.1 75.8024C711.287 75.8024 712.288 75.4294 712.983 74.6664V75.0564C712.983 76.7011 712.169 77.5489 710.304 77.5489C709.134 77.5489 707.862 77.1419 707.082 76.5146L706.031 78.4136C707.099 79.2445 708.778 79.6684 710.507 79.6684C713.797 79.6684 715.628 78.1084 715.628 74.7173V67.1211H713.119ZM710.626 73.6321C709.236 73.6321 708.218 72.7334 708.218 71.3939C708.218 70.0544 709.236 69.1558 710.626 69.1558C712.016 69.1558 713.017 70.0544 713.017 71.3939C713.017 72.7334 712.016 73.6321 710.626 73.6321Z" fill="#1055B1"/>
<path d="M347.078 120.398V157.392C347.078 165.905 353.979 172.806 362.492 172.806H658.487C667 172.806 673.901 165.905 673.901 157.392V120.398" stroke="#2163BF" stroke-width="3.08287" stroke-linecap="square" stroke-dasharray="7.71 7.71"/>
<path d="M511.355 172.806V220.591" stroke="#2163BF" stroke-width="3.08287" stroke-linecap="square" stroke-dasharray="7.71 7.71"/>
<path fill-rule="evenodd" clip-rule="evenodd" d="M347.078 115.773L353.994 123.48H340.161L347.078 115.773Z" fill="#2163BF"/>
<path fill-rule="evenodd" clip-rule="evenodd" d="M673.901 115.773L680.818 123.48H666.984L673.901 115.773Z" fill="#2163BF"/>
<rect x="454.265" y="222.133" width="112.525" height="29.2873" rx="14.6436" stroke="#2163BF" stroke-width="3.08287"/>
<path d="M479.478 242.591H481.898V232.133H479.478V242.591ZM488.773 240.559C488.519 240.753 488.175 240.858 487.831 240.858C487.204 240.858 486.83 240.484 486.83 239.797V236.525H488.832V234.732H486.83V232.775H484.5V234.732H483.26V236.525H484.5V239.827C484.5 241.739 485.605 242.71 487.503 242.71C488.22 242.71 488.922 242.546 489.4 242.202L488.773 240.559ZM498.334 238.602C498.334 236.017 496.511 234.433 494.151 234.433C491.7 234.433 489.863 236.167 489.863 238.572C489.863 240.962 491.671 242.71 494.449 242.71C495.899 242.71 497.019 242.262 497.766 241.411L496.526 240.066C495.973 240.589 495.361 240.843 494.509 240.843C493.284 240.843 492.433 240.23 492.208 239.229H498.289C498.304 239.035 498.334 238.781 498.334 238.602ZM494.166 236.196C495.211 236.196 495.973 236.854 496.138 237.87H492.179C492.343 236.839 493.105 236.196 494.166 236.196ZM502.112 235.614V234.553H499.886V242.591H502.216V238.796C502.216 237.257 503.068 236.555 504.353 236.555C504.532 236.555 504.681 236.57 504.876 236.585V234.433C503.636 234.433 502.679 234.837 502.112 235.614ZM509.46 234.433C508.175 234.433 506.875 234.777 505.993 235.405L506.83 237.033C507.413 236.57 508.294 236.286 509.146 236.286C510.401 236.286 510.998 236.869 510.998 237.87H509.146C506.696 237.87 505.695 238.856 505.695 240.275C505.695 241.664 506.815 242.71 508.698 242.71C509.878 242.71 510.715 242.322 511.148 241.59V242.591H513.329V238.004C513.329 235.569 511.91 234.433 509.46 234.433ZM509.28 241.142C508.459 241.142 507.966 240.753 507.966 240.17C507.966 239.633 508.309 239.229 509.4 239.229H510.998V240.051C510.729 240.783 510.057 241.142 509.28 241.142ZM519.995 240.559C519.741 240.753 519.398 240.858 519.054 240.858C518.426 240.858 518.053 240.484 518.053 239.797V236.525H520.055V234.732H518.053V232.775H515.722V234.732H514.482V236.525H515.722V239.827C515.722 241.739 516.828 242.71 518.725 242.71C519.442 242.71 520.145 242.546 520.623 242.202L519.995 240.559ZM523.096 233.433C523.963 233.433 524.545 232.865 524.545 232.088C524.545 231.371 523.963 230.833 523.096 230.833C522.23 230.833 521.647 231.401 521.647 232.133C521.647 232.865 522.23 233.433 523.096 233.433ZM521.931 242.591H524.262V234.553H521.931V242.591ZM530.249 242.71C532.804 242.71 534.657 240.992 534.657 238.572C534.657 236.152 532.804 234.433 530.249 234.433C527.695 234.433 525.827 236.152 525.827 238.572C525.827 240.992 527.695 242.71 530.249 242.71ZM530.249 240.798C529.084 240.798 528.188 239.961 528.188 238.572C528.188 237.182 529.084 236.346 530.249 236.346C531.415 236.346 532.296 237.182 532.296 238.572C532.296 239.961 531.415 240.798 530.249 240.798ZM541.1 234.433C540.009 234.433 539.068 234.807 538.441 235.494V234.553H536.214V242.591H538.545V238.617C538.545 237.138 539.352 236.45 540.472 236.45C541.503 236.45 542.101 237.048 542.101 238.348V242.591H544.432V237.989C544.432 235.539 542.997 234.433 541.1 234.433Z" fill="#2163BF"/>
<path d="M473.002 70.3009H538.737" stroke="#1055B1" stroke-width="4.62431" stroke-linecap="square"/>
<path fill-rule="evenodd" clip-rule="evenodd" d="M545.171 70.3009L537.464 75.6959V64.9058L545.171 70.3009Z" fill="#1055B1"/>
<path d="M175.505 70.3009H241.24" stroke="#1055B1" stroke-width="4.62431" stroke-linecap="square"/>
<path fill-rule="evenodd" clip-rule="evenodd" d="M247.674 70.3009L239.967 75.6959V64.9058L247.674 70.3009Z" fill="#1055B1"/>
<path d="M778.208 70.3009H843.942" stroke="#1055B1" stroke-width="4.62431" stroke-linecap="square"/>
<path fill-rule="evenodd" clip-rule="evenodd" d="M850.377 70.3009L842.669 75.6959V64.9059L850.377 70.3009Z" fill="#1055B1"/>
</g>
<defs>
<clipPath id="clip0">
<rect width="1057" height="279" fill="white"/>
</clipPath>
</defs>
</svg>
