<svg width="724" height="413" viewBox="0 0 724 413" fill="none" xmlns="http://www.w3.org/2000/svg">
<path d="M651.701 192.002C651.701 190.925 650.84 190.052 649.783 190.052C648.723 190.052 647.862 190.925 647.862 192.002V196.104C647.862 197.187 648.723 198.06 649.783 198.06C650.84 198.06 651.701 197.187 651.701 196.104V192.002ZM641.147 186.618C641.147 185.541 640.288 184.667 639.204 184.667C638.144 184.667 637.285 185.541 637.285 186.618V196.104C637.285 197.187 638.144 198.06 639.204 198.06C640.288 198.06 641.147 197.187 641.147 196.104V186.618V186.618ZM630.571 179.252C630.571 178.175 629.712 177.302 628.652 177.302C627.592 177.302 626.734 178.175 626.734 179.252V200.002C626.734 201.085 627.592 201.958 628.652 201.958C629.712 201.958 630.571 201.085 630.571 200.002V179.252ZM619.992 186.618C619.992 185.541 619.134 184.667 618.074 184.667C617.016 184.667 616.155 185.541 616.155 186.618V196.104C616.155 197.187 617.016 198.06 618.074 198.06C619.134 198.06 619.992 197.187 619.992 196.104V186.618V186.618ZM609.416 192.002C609.416 190.925 608.558 190.052 607.504 190.052C606.444 190.052 605.579 190.925 605.579 192.002V196.104C605.579 197.187 606.444 198.06 607.504 198.06C608.558 198.06 609.416 197.187 609.416 196.104V192.002ZM598.857 186.618C598.857 185.541 597.992 184.667 596.933 184.667C595.873 184.667 595.008 185.541 595.008 186.618V196.104C595.008 197.187 595.873 198.06 596.933 198.06C597.992 198.06 598.857 197.187 598.857 196.104V186.618V186.618ZM588.286 179.252C588.286 178.175 587.421 177.302 586.361 177.302C585.302 177.302 584.437 178.175 584.437 179.252V200.002C584.437 201.085 585.302 201.958 586.361 201.958C587.421 201.958 588.286 201.085 588.286 200.002V179.252ZM577.715 186.618C577.715 185.541 576.85 184.667 575.79 184.667C574.73 184.667 573.866 185.541 573.866 186.618V196.104C573.866 197.187 574.73 198.06 575.79 198.06C576.85 198.06 577.715 197.187 577.715 196.104V186.618ZM567.143 192.002C567.143 190.925 566.279 190.052 565.219 190.052C564.16 190.052 563.294 190.925 563.294 192.002V196.104C563.294 197.187 564.16 198.06 565.219 198.06C566.279 198.06 567.143 197.187 567.143 196.104V192.002ZM606.876 209.011C606.76 208.979 604.984 208.513 603.097 208.513C599.524 208.513 597.373 210.475 597.373 213.398C597.373 215.985 599.172 217.275 601.332 217.969C601.572 218.05 601.924 218.162 602.159 218.241C603.121 218.549 603.888 219.006 603.888 219.798C603.888 220.683 603.001 221.256 601.073 221.256C599.379 221.256 597.754 220.764 597.412 220.676V224.272C597.603 224.313 599.533 224.698 601.596 224.698C604.562 224.698 607.956 223.38 607.956 219.455C607.956 217.551 606.81 215.798 604.294 214.985L603.224 214.638C602.586 214.433 601.447 214.102 601.447 213.15C601.447 212.399 602.291 211.87 603.845 211.87C605.186 211.87 606.818 212.328 606.876 212.346V209.011V209.011ZM639.636 216.606C639.636 218.879 637.924 220.719 635.626 220.719C633.326 220.719 631.619 218.879 631.619 216.606C631.619 214.337 633.326 212.497 635.626 212.497C637.924 212.497 639.636 214.337 639.636 216.606V216.606ZM635.626 208.518C630.901 208.518 627.513 212.143 627.513 216.606C627.513 221.076 630.901 224.698 635.626 224.698C640.351 224.698 643.744 221.076 643.744 216.606C643.744 212.143 640.351 208.518 635.626 208.518V208.518ZM582.969 209.078C582.605 208.968 581.258 208.518 579.434 208.518C574.717 208.518 571.254 211.939 571.254 216.606C571.254 221.64 575.077 224.698 579.434 224.698C581.166 224.698 582.487 224.281 582.969 224.142V219.948C582.802 220.042 581.535 220.777 579.712 220.777C577.13 220.777 575.464 218.928 575.464 216.606C575.464 214.213 577.202 212.438 579.712 212.438C581.566 212.438 582.813 213.189 582.969 213.272V209.078V209.078ZM623.431 209.078C623.064 208.968 621.717 208.518 619.899 208.518C615.174 208.518 611.711 211.939 611.711 216.606C611.711 221.64 615.539 224.698 619.899 224.698C621.621 224.698 622.944 224.281 623.431 224.142V219.948C623.261 220.042 621.992 220.777 620.17 220.777C617.589 220.777 615.925 218.928 615.925 216.606C615.925 214.213 617.664 212.438 620.17 212.438C622.023 212.438 623.273 213.189 623.431 213.272V209.078V209.078ZM592.174 224.42H588.298V208.795H592.174V224.42Z" fill="#00BCEB"/>
<path d="M279.01 112.837H277.048V59.1008C277.048 55.0166 276.244 50.9724 274.681 47.199C273.118 43.4257 270.827 39.9972 267.939 37.1092C265.051 34.2212 261.622 31.9303 257.849 30.3674C254.076 28.8044 250.031 28 245.947 28H132.101C128.017 28 123.972 28.8044 120.199 30.3674C116.426 31.9303 112.997 34.2212 110.109 37.1092C107.221 39.9972 104.93 43.4257 103.367 47.199C101.804 50.9724 101 55.0166 101 59.1008V353.899C101 357.983 101.804 362.028 103.367 365.801C104.93 369.574 107.221 373.003 110.109 375.891C112.997 378.779 116.426 381.07 120.199 382.633C123.972 384.196 128.017 385 132.101 385H245.947C250.031 385 254.076 384.196 257.849 382.633C261.622 381.07 265.051 378.779 267.939 375.891C270.827 373.003 273.118 369.574 274.681 365.801C276.244 362.028 277.048 357.983 277.048 353.899V151.087H279.01L279.01 112.837Z" fill="#3F3D56"/>
<path opacity="0.2" d="M247.202 36.0913H232.341C233.025 37.7668 233.286 39.5846 233.101 41.3847C232.916 43.1848 232.292 44.9118 231.282 46.4137C230.273 47.9155 228.91 49.1461 227.313 49.997C225.716 50.848 223.934 51.2931 222.125 51.2932H156.904C155.094 51.2931 153.312 50.848 151.716 49.997C150.119 49.1461 148.755 47.9155 147.746 46.4137C146.737 44.9118 146.112 43.1848 145.928 41.3847C145.743 39.5846 146.004 37.7668 146.687 36.0913H132.807C129.757 36.0913 126.737 36.6921 123.919 37.8592C121.101 39.0264 118.541 40.7372 116.384 42.8939C114.228 45.0506 112.517 47.611 111.35 50.4289C110.182 53.2468 109.582 56.2669 109.582 59.317V353.683C109.582 356.733 110.182 359.753 111.35 362.571C112.517 365.389 114.227 367.949 116.384 370.106C118.541 372.263 121.101 373.973 123.919 375.141C126.737 376.308 129.757 376.909 132.807 376.909H247.202C250.252 376.909 253.272 376.308 256.09 375.141C258.908 373.973 261.468 372.263 263.625 370.106C265.782 367.949 267.493 365.389 268.66 362.571C269.827 359.753 270.428 356.733 270.428 353.683V59.317C270.428 56.2669 269.827 53.2468 268.66 50.4289C267.493 47.611 265.782 45.0506 263.625 42.8939C261.468 40.7372 258.908 39.0264 256.09 37.8592C253.272 36.6921 250.252 36.0913 247.202 36.0913V36.0913Z" fill="black"/>
<path d="M160.493 143.249H138.454V148.555H160.493V143.249Z" fill="#6C63FF"/>
<path d="M236.814 143.249H229.06V148.555H236.814V143.249Z" fill="#6C63FF"/>
<path d="M252.323 143.249H244.569V148.555H252.323V143.249Z" fill="#6C63FF"/>
<path d="M220.897 143.249H168.248V148.555H220.897V143.249Z" fill="#6C63FF"/>
<path d="M209.061 177.532H201.307V182.838H209.061V177.532Z" fill="#6C63FF"/>
<path d="M224.57 177.532H216.816V182.838H224.57V177.532Z" fill="#6C63FF"/>
<path d="M193.144 177.532H140.495V182.838H193.144V177.532Z" fill="#6C63FF"/>
<path d="M223.754 155.085H201.715V160.39H223.754V155.085Z" fill="#6C63FF"/>
<path d="M253.547 155.085H231.508V160.39H253.547V155.085Z" fill="#6C63FF"/>
<path d="M133.965 155.085H126.21V160.39H133.965V155.085Z" fill="#6C63FF"/>
<path d="M194.368 155.085H141.719V160.39H194.368V155.085Z" fill="#6C63FF"/>
<path d="M156.004 171.818H178.043V166.512H156.004V171.818Z" fill="#6C63FF"/>
<path d="M126.21 171.818H148.249V166.512H126.21V171.818Z" fill="#6C63FF"/>
<path d="M245.793 171.818H253.547V166.512H245.793V171.818Z" fill="#6C63FF"/>
<path d="M185.389 171.818H238.038V166.512H185.389V171.818Z" fill="#6C63FF"/>
<path d="M190.005 275.592C201.08 275.592 210.058 266.614 210.058 255.538C210.058 244.463 201.08 235.485 190.005 235.485C178.93 235.485 169.952 244.463 169.952 255.538C169.952 266.614 178.93 275.592 190.005 275.592Z" fill="#6C63FF"/>
</svg>
