<svg width="724" height="413" viewBox="0 0 724 413" fill="none" xmlns="http://www.w3.org/2000/svg">
<g clip-path="url(#clip0)">
<path d="M651.701 192.002C651.701 190.925 650.84 190.052 649.783 190.052C648.723 190.052 647.862 190.925 647.862 192.002V196.104C647.862 197.187 648.723 198.06 649.783 198.06C650.84 198.06 651.701 197.187 651.701 196.104V192.002ZM641.147 186.618C641.147 185.541 640.288 184.667 639.204 184.667C638.144 184.667 637.285 185.541 637.285 186.618V196.104C637.285 197.187 638.144 198.06 639.204 198.06C640.288 198.06 641.147 197.187 641.147 196.104V186.618V186.618ZM630.571 179.252C630.571 178.175 629.712 177.302 628.652 177.302C627.592 177.302 626.734 178.175 626.734 179.252V200.002C626.734 201.085 627.592 201.958 628.652 201.958C629.712 201.958 630.571 201.085 630.571 200.002V179.252ZM619.992 186.618C619.992 185.541 619.134 184.667 618.074 184.667C617.016 184.667 616.155 185.541 616.155 186.618V196.104C616.155 197.187 617.016 198.06 618.074 198.06C619.134 198.06 619.992 197.187 619.992 196.104V186.618V186.618ZM609.416 192.002C609.416 190.925 608.558 190.052 607.504 190.052C606.444 190.052 605.579 190.925 605.579 192.002V196.104C605.579 197.187 606.444 198.06 607.504 198.06C608.558 198.06 609.416 197.187 609.416 196.104V192.002ZM598.857 186.618C598.857 185.541 597.992 184.667 596.933 184.667C595.873 184.667 595.008 185.541 595.008 186.618V196.104C595.008 197.187 595.873 198.06 596.933 198.06C597.992 198.06 598.857 197.187 598.857 196.104V186.618V186.618ZM588.286 179.252C588.286 178.175 587.421 177.302 586.361 177.302C585.302 177.302 584.437 178.175 584.437 179.252V200.002C584.437 201.085 585.302 201.958 586.361 201.958C587.421 201.958 588.286 201.085 588.286 200.002V179.252ZM577.715 186.618C577.715 185.541 576.85 184.667 575.79 184.667C574.73 184.667 573.866 185.541 573.866 186.618V196.104C573.866 197.187 574.73 198.06 575.79 198.06C576.85 198.06 577.715 197.187 577.715 196.104V186.618ZM567.143 192.002C567.143 190.925 566.279 190.052 565.219 190.052C564.16 190.052 563.294 190.925 563.294 192.002V196.104C563.294 197.187 564.16 198.06 565.219 198.06C566.279 198.06 567.143 197.187 567.143 196.104V192.002ZM606.876 209.011C606.76 208.979 604.984 208.513 603.097 208.513C599.524 208.513 597.373 210.475 597.373 213.398C597.373 215.985 599.172 217.275 601.332 217.969C601.572 218.05 601.924 218.162 602.159 218.241C603.121 218.549 603.888 219.006 603.888 219.798C603.888 220.683 603.001 221.256 601.073 221.256C599.379 221.256 597.754 220.764 597.412 220.676V224.272C597.603 224.313 599.533 224.698 601.596 224.698C604.562 224.698 607.956 223.38 607.956 219.455C607.956 217.551 606.81 215.798 604.294 214.985L603.224 214.638C602.586 214.433 601.447 214.102 601.447 213.15C601.447 212.399 602.291 211.87 603.845 211.87C605.186 211.87 606.818 212.328 606.876 212.346V209.011V209.011ZM639.636 216.606C639.636 218.879 637.924 220.719 635.626 220.719C633.326 220.719 631.619 218.879 631.619 216.606C631.619 214.337 633.326 212.497 635.626 212.497C637.924 212.497 639.636 214.337 639.636 216.606V216.606ZM635.626 208.518C630.901 208.518 627.513 212.143 627.513 216.606C627.513 221.076 630.901 224.698 635.626 224.698C640.351 224.698 643.744 221.076 643.744 216.606C643.744 212.143 640.351 208.518 635.626 208.518V208.518ZM582.969 209.078C582.605 208.968 581.258 208.518 579.434 208.518C574.717 208.518 571.254 211.939 571.254 216.606C571.254 221.64 575.077 224.698 579.434 224.698C581.166 224.698 582.487 224.281 582.969 224.142V219.948C582.802 220.042 581.535 220.777 579.712 220.777C577.13 220.777 575.464 218.928 575.464 216.606C575.464 214.213 577.202 212.438 579.712 212.438C581.566 212.438 582.813 213.189 582.969 213.272V209.078V209.078ZM623.431 209.078C623.064 208.968 621.717 208.518 619.899 208.518C615.174 208.518 611.711 211.939 611.711 216.606C611.711 221.64 615.539 224.698 619.899 224.698C621.621 224.698 622.944 224.281 623.431 224.142V219.948C623.261 220.042 621.992 220.777 620.17 220.777C617.589 220.777 615.925 218.928 615.925 216.606C615.925 214.213 617.664 212.438 620.17 212.438C622.023 212.438 623.273 213.189 623.431 213.272V209.078V209.078ZM592.174 224.42H588.298V208.795H592.174V224.42Z" fill="#00BCEB"/>
<path d="M416.843 526.241L495.821 265.949L513.098 209L461.755 93.0575L417.939 -5.89177L414.302 -14.111L381.885 -23.9441L253.01 -63.0462L188.313 -82.6719L168.865 -88.575L154.791 -92.8429L123.433 -102.357L72.6655 -117.762L59.3839 -73.979L46.6945 -32.1634L37.5764 -2.10721L-77.2471 376.328L416.843 526.241Z" fill="#F2F2F2"/>
<path fill-rule="evenodd" clip-rule="evenodd" d="M347 174.917C353.443 174.917 358.667 180.14 358.667 186.583V207C358.667 213.443 353.443 218.667 347 218.667C340.557 218.667 335.333 213.443 335.333 207V186.583C335.333 180.14 340.557 174.917 347 174.917ZM349.917 230.153V233.25H358.667V239.083H335.333V233.25H344.083V230.153C332.573 228.718 323.667 218.899 323.667 207V201.167H329.5V207C329.5 216.665 337.335 224.5 347 224.5C356.665 224.5 364.5 216.665 364.5 207V201.167H370.333V207C370.333 218.899 361.427 228.718 349.917 230.153ZM341.167 186.583C341.167 183.362 343.778 180.75 347 180.75C350.222 180.75 352.833 183.362 352.833 186.583V207C352.833 210.222 350.222 212.833 347 212.833C343.778 212.833 341.167 210.222 341.167 207V186.583Z" fill="black"/>
<path d="M239.221 184.281L219.754 174.321L235.977 129.5L240.252 106.896C240.807 103.959 242.106 101.223 244.019 98.9612C245.931 96.6991 248.39 94.9903 251.15 94.0056C253.91 93.0208 256.875 92.7945 259.747 93.3493C262.619 93.9041 265.299 95.2206 267.518 97.1672V97.1672C270.807 100.052 272.872 104.131 273.278 108.544C273.683 112.957 272.397 117.359 269.691 120.82L253.821 141.12L239.221 184.281Z" fill="#A0616A"/>
<path d="M245.982 178.788L242.34 190.059L225.991 240.691C224.391 245.654 221.375 250.056 217.307 253.368C213.238 256.68 208.289 258.762 203.054 259.363C197.819 259.964 192.519 259.059 187.791 256.757C183.062 254.455 179.107 250.854 176.398 246.385L123.398 156.597C122.55 155.198 121.827 153.729 121.236 152.206C118.675 145.562 118.803 138.197 121.592 131.643C124.382 125.089 129.619 119.85 136.215 117.014C142.812 114.177 150.26 113.963 157.013 116.414C163.765 118.865 169.302 123.794 172.473 130.177L204.83 198.315L219.638 165.775L245.982 178.788Z" fill="#E6E6E6"/>
<path d="M238 507.161L201.948 510.421L182.284 368.597C117.463 379.445 56.3112 382.92 3.41717 369.797C-1.05252 368.703 -5.2466 366.702 -8.90187 363.919C-12.5571 361.136 -15.5947 357.632 -17.8236 353.626C-20.0526 349.62 -21.4248 345.198 -21.8543 340.639C-22.2838 336.08 -21.7613 331.482 -20.3194 327.134C-13.989 308.339 -2.83601 288.198 10.2196 267.526L97.0711 298.5L100.349 311.541L192.987 299.876C197.665 299.287 202.415 299.672 206.935 301.007C211.456 302.343 215.648 304.599 219.244 307.632C222.841 310.666 225.764 314.41 227.828 318.628C229.892 322.846 231.052 327.445 231.233 332.132L238 507.161Z" fill="#2F2E41"/>
<path d="M247.123 490.04L211.071 493.316L191.407 350.826C126.586 361.725 65.434 365.216 12.54 352.032C8.0703 350.933 3.8761 348.922 0.220831 346.126C-3.43444 343.33 -6.47186 339.809 -8.70081 335.784C-10.9298 331.759 -12.302 327.317 -12.7315 322.737C-13.161 318.157 -12.6384 313.537 -11.1966 309.168C-4.86616 290.285 6.28681 270.05 19.3424 249.281L106.194 280.399L109.471 293.502L202.11 281.782C206.788 281.19 211.538 281.577 216.058 282.919C220.579 284.26 224.771 286.527 228.367 289.575C231.964 292.623 234.887 296.385 236.951 300.622C239.015 304.86 240.174 309.48 240.356 314.19L247.123 490.04Z" fill="#2F2E41"/>
<path d="M181.552 99.8946C157.305 99.8946 137.649 79.9831 137.649 55.4209C137.649 30.8588 157.305 10.9473 181.552 10.9473C205.8 10.9473 225.456 30.8588 225.456 55.4209C225.456 79.9831 205.8 99.8946 181.552 99.8946Z" fill="#A0616A"/>
<path d="M180.167 145.509L129.667 138.945L149.216 78.228H198.088L180.167 145.509Z" fill="#A0616A"/>
<path d="M193.853 206.882C191.292 214.016 187.58 220.679 182.864 226.605C176.143 234.88 168.067 241.947 158.982 247.504C157.4 248.533 155.759 249.518 154.059 250.488L144.36 258.777L110.09 288.053L15.6315 252.119C36.466 205.677 62.4579 168.965 92.2445 139.395C98.433 130.29 107.255 123.307 117.521 119.386C127.788 115.466 139.006 114.796 149.664 117.467L185.003 126.329C197.574 156.09 202.248 183.456 193.853 206.882Z" fill="#E6E6E6"/>
<path d="M271.141 79.2111C271.695 78.6623 272.419 78.321 273.194 78.2445C273.968 78.1679 274.745 78.3605 275.395 78.7903C276.264 79.7116 304.703 96.6434 302.92 98.3231C302.973 98.8325 302.912 99.3474 302.74 99.8299C302.569 100.312 302.292 100.75 301.931 101.111L235.838 167.231C235.517 167.552 235.136 167.807 234.716 167.978C234.296 168.15 233.846 168.236 233.393 168.232C232.063 169.939 210.401 145.135 209.308 144.66C208.682 144.006 208.338 143.13 208.351 142.223C208.364 141.316 208.733 140.451 209.378 139.815L271.141 79.2111Z" fill="#3F3D56"/>
<path d="M296.863 97.7661L294.149 96.0289C294.42 96.5406 294.514 97.1283 294.416 97.6994C294.317 98.2705 294.033 98.7925 293.606 99.1831C293.18 99.5737 292.636 99.8107 292.06 99.8567C291.485 99.9027 290.911 99.7551 290.428 99.4372L272.868 87.3158C272.475 87.0368 272.167 86.6538 271.978 86.2094C271.788 85.765 271.726 85.2765 271.797 84.7985C271.867 84.3204 272.069 83.8714 272.379 83.5015C272.688 83.1316 273.094 82.8552 273.551 82.7032C272.856 82.4663 271.732 81.0484 270.978 81.9409L211.905 140.229C209.801 141.258 233.369 161.765 233.382 162.57C235.141 164.539 295.735 99.2763 297.024 99.2314C297.123 99.1312 297.199 99.0098 297.245 98.8764C297.292 98.7429 297.308 98.6006 297.293 98.4601C297.277 98.3195 297.231 98.1842 297.156 98.0641C297.082 97.944 296.982 97.8422 296.863 97.7661V97.7661Z" fill="white"/>
<path d="M228.877 126.427L246.766 143.228L289.316 101.354L267.722 87.3508L228.877 126.427Z" fill="#E53935"/>
<path d="M287.173 112.236C286.225 111.378 290.459 107.566 290.642 106.939C290.752 106.809 290.898 106.737 291.05 106.737C291.202 106.737 291.348 106.809 291.458 106.939C292.406 107.797 288.172 111.609 287.99 112.237C287.88 112.366 287.733 112.439 287.581 112.439C287.429 112.439 287.283 112.366 287.173 112.236V112.236Z" fill="#E6E6E6"/>
<path d="M281.506 117.807C282.024 117.52 285.057 111.243 285.758 112.641C286.699 113.675 282.497 118.267 282.316 119.023C281.799 119.82 280.973 118.585 281.506 117.807Z" fill="#E6E6E6"/>
<path d="M233.438 141.518C233.514 146.839 225.38 146.839 225.457 141.517C225.381 136.196 233.514 136.196 233.438 141.518Z" fill="#E53935"/>
<path opacity="0.2" d="M182.123 226.189C175.362 234.475 167.239 241.552 158.1 247.116C156.508 248.146 154.858 249.132 153.148 250.103L143.392 258.404C124.026 232.988 125.116 155.772 125.116 155.772L154.592 158.715L182.123 226.189Z" fill="black"/>
<path d="M240.776 205.947L220.895 196.112L237.462 151.851L241.828 129.53C242.396 126.63 243.722 123.928 245.675 121.694C247.629 119.46 250.14 117.773 252.959 116.801C255.778 115.828 258.805 115.605 261.738 116.152C264.672 116.7 267.409 118 269.675 119.923V119.923C273.034 122.771 275.143 126.8 275.557 131.158C275.971 135.515 274.657 139.862 271.894 143.28L255.686 163.326L240.776 205.947Z" fill="#A0616A"/>
<path d="M220.783 188.574L247.123 201.592L227.134 263.502C225.698 267.947 223.125 271.951 219.664 275.125C216.202 278.298 211.97 280.534 207.377 281.614V281.614C201.714 282.947 195.769 282.462 190.403 280.231C185.037 277.999 180.53 274.136 177.535 269.202L124.53 179.397C120.773 173.208 119.614 165.814 121.299 158.792C122.984 151.77 127.38 145.678 133.548 141.817V141.817C136.865 139.74 140.588 138.377 144.474 137.816C148.359 137.256 152.32 137.51 156.1 138.563C159.879 139.616 163.392 141.443 166.41 143.927C169.427 146.41 171.882 149.494 173.614 152.977L205.967 221.119L220.783 188.574Z" fill="#E6E6E6"/>
<path d="M198.129 37.4441C201.715 40.4648 205.764 42.8775 210.116 44.5883C212.299 45.4281 214.638 45.7758 216.969 45.6068C219.3 45.4378 221.566 44.7563 223.608 43.61C225.847 41.9853 227.613 39.7827 228.721 37.2328C229.829 34.6828 230.238 31.8791 229.905 29.1148C229.159 23.5839 226.959 18.3561 223.534 13.9751C217.626 5.6764 209.858 -1.09335 200.865 -5.78132C191.872 -10.4693 181.908 -12.9425 171.788 -12.999C161.668 -13.0555 151.678 -10.6937 142.634 -6.10639C133.59 -1.51911 125.749 5.1635 119.751 13.3958C115.378 18.9076 112.69 25.5859 112.013 32.6153C111.384 44.9641 119.75 56.4916 118.856 68.8237C118.099 79.254 110.686 88.1891 101.907 93.7349C93.1276 99.2807 82.9819 102.093 73.1658 105.423C63.3496 108.753 53.4231 112.863 46.1578 120.315C38.8926 127.768 34.8853 139.332 38.8732 148.984C42.1501 156.914 49.9371 161.958 57.7451 165.374C78.6821 174.428 102.2 175.32 123.75 167.876C131.695 165.094 140.37 159.529 140.491 151.037C140.544 147.351 138.901 143.891 137.915 140.342C136.929 136.793 136.744 132.561 139.218 129.85C142.285 126.489 147.955 127.263 151.621 129.944C155.287 132.625 157.671 136.691 160.696 140.092C166.439 146.549 175.146 150.673 183.655 149.457C192.165 148.241 199.856 140.92 200.208 132.247C200.813 117.349 182.332 108.022 180.323 93.25C178.981 83.3842 185.341 74.3584 190.852 66.1005C196.362 57.8426 201.488 47.4964 197.63 38.3316" fill="#2F2E41"/>
<path fill-rule="evenodd" clip-rule="evenodd" d="M446.583 174.917H417.417C414.195 174.917 411.583 177.528 411.583 180.75V233.25C411.583 236.472 414.195 239.083 417.417 239.083H446.583C449.805 239.083 452.417 236.472 452.417 233.25V180.75C452.417 177.528 449.805 174.917 446.583 174.917ZM417.417 180.75H426.167C426.167 182.361 427.472 183.667 429.083 183.667H434.917C436.527 183.667 437.833 182.361 437.833 180.75H446.583V233.25H417.417V180.75Z" fill="black"/>
</g>
<defs>
<clipPath id="clip0">
<rect width="724" height="413" fill="white"/>
</clipPath>
</defs>
</svg>
