<svg width="724" height="413" viewBox="0 0 724 413" fill="none" xmlns="http://www.w3.org/2000/svg">
<path d="M651.701 192.002C651.701 190.925 650.84 190.052 649.783 190.052C648.723 190.052 647.862 190.925 647.862 192.002V196.104C647.862 197.187 648.723 198.06 649.783 198.06C650.84 198.06 651.701 197.187 651.701 196.104V192.002ZM641.147 186.618C641.147 185.541 640.288 184.667 639.204 184.667C638.144 184.667 637.285 185.541 637.285 186.618V196.104C637.285 197.187 638.144 198.06 639.204 198.06C640.288 198.06 641.147 197.187 641.147 196.104V186.618V186.618ZM630.571 179.252C630.571 178.175 629.712 177.302 628.652 177.302C627.592 177.302 626.734 178.175 626.734 179.252V200.002C626.734 201.085 627.592 201.958 628.652 201.958C629.712 201.958 630.571 201.085 630.571 200.002V179.252ZM619.992 186.618C619.992 185.541 619.134 184.667 618.074 184.667C617.016 184.667 616.155 185.541 616.155 186.618V196.104C616.155 197.187 617.016 198.06 618.074 198.06C619.134 198.06 619.992 197.187 619.992 196.104V186.618V186.618ZM609.416 192.002C609.416 190.925 608.558 190.052 607.504 190.052C606.444 190.052 605.579 190.925 605.579 192.002V196.104C605.579 197.187 606.444 198.06 607.504 198.06C608.558 198.06 609.416 197.187 609.416 196.104V192.002ZM598.857 186.618C598.857 185.541 597.992 184.667 596.933 184.667C595.873 184.667 595.008 185.541 595.008 186.618V196.104C595.008 197.187 595.873 198.06 596.933 198.06C597.992 198.06 598.857 197.187 598.857 196.104V186.618V186.618ZM588.286 179.252C588.286 178.175 587.421 177.302 586.361 177.302C585.302 177.302 584.437 178.175 584.437 179.252V200.002C584.437 201.085 585.302 201.958 586.361 201.958C587.421 201.958 588.286 201.085 588.286 200.002V179.252ZM577.715 186.618C577.715 185.541 576.85 184.667 575.79 184.667C574.73 184.667 573.866 185.541 573.866 186.618V196.104C573.866 197.187 574.73 198.06 575.79 198.06C576.85 198.06 577.715 197.187 577.715 196.104V186.618ZM567.143 192.002C567.143 190.925 566.279 190.052 565.219 190.052C564.16 190.052 563.294 190.925 563.294 192.002V196.104C563.294 197.187 564.16 198.06 565.219 198.06C566.279 198.06 567.143 197.187 567.143 196.104V192.002ZM606.876 209.011C606.76 208.979 604.984 208.513 603.097 208.513C599.524 208.513 597.373 210.475 597.373 213.398C597.373 215.985 599.172 217.275 601.332 217.969C601.572 218.05 601.924 218.162 602.159 218.241C603.121 218.549 603.888 219.006 603.888 219.798C603.888 220.683 603.001 221.256 601.073 221.256C599.379 221.256 597.754 220.764 597.412 220.676V224.272C597.603 224.313 599.533 224.698 601.596 224.698C604.562 224.698 607.956 223.38 607.956 219.455C607.956 217.551 606.81 215.798 604.294 214.985L603.224 214.638C602.586 214.433 601.447 214.102 601.447 213.15C601.447 212.399 602.291 211.87 603.845 211.87C605.186 211.87 606.818 212.328 606.876 212.346V209.011V209.011ZM639.636 216.606C639.636 218.879 637.924 220.719 635.626 220.719C633.326 220.719 631.619 218.879 631.619 216.606C631.619 214.337 633.326 212.497 635.626 212.497C637.924 212.497 639.636 214.337 639.636 216.606V216.606ZM635.626 208.518C630.901 208.518 627.513 212.143 627.513 216.606C627.513 221.076 630.901 224.698 635.626 224.698C640.351 224.698 643.744 221.076 643.744 216.606C643.744 212.143 640.351 208.518 635.626 208.518V208.518ZM582.969 209.078C582.605 208.968 581.258 208.518 579.434 208.518C574.717 208.518 571.254 211.939 571.254 216.606C571.254 221.64 575.077 224.698 579.434 224.698C581.166 224.698 582.487 224.281 582.969 224.142V219.948C582.802 220.042 581.535 220.777 579.712 220.777C577.13 220.777 575.464 218.928 575.464 216.606C575.464 214.213 577.202 212.438 579.712 212.438C581.566 212.438 582.813 213.189 582.969 213.272V209.078V209.078ZM623.431 209.078C623.064 208.968 621.717 208.518 619.899 208.518C615.174 208.518 611.711 211.939 611.711 216.606C611.711 221.64 615.539 224.698 619.899 224.698C621.621 224.698 622.944 224.281 623.431 224.142V219.948C623.261 220.042 621.992 220.777 620.17 220.777C617.589 220.777 615.925 218.928 615.925 216.606C615.925 214.213 617.664 212.438 620.17 212.438C622.023 212.438 623.273 213.189 623.431 213.272V209.078V209.078ZM592.174 224.42H588.298V208.795H592.174V224.42Z" fill="#00BCEB"/>
<path d="M172.254 253.996H123.499C120.98 253.993 118.566 252.992 116.785 251.211C115.004 249.43 114.003 247.016 114 244.498V49.4985C114.003 46.9802 115.004 44.5659 116.785 42.7852C118.566 41.0045 120.98 40.0028 123.499 40H255.741L279.945 61.6109V100.902H278.827V62.1113L255.314 41.1175H123.499C121.276 41.12 119.146 42.0038 117.575 43.575C116.004 45.1462 115.12 47.2765 115.117 49.4985V244.498C115.12 246.72 116.004 248.85 117.575 250.421C119.146 251.992 121.276 252.876 123.499 252.879H172.254V253.996Z" fill="#CCCCCC"/>
<path d="M279.386 62.3495H264.3C261.782 62.3466 259.368 61.345 257.587 59.5643C255.806 57.7836 254.805 55.3692 254.802 52.8509V40.5587C254.802 40.4106 254.861 40.2684 254.965 40.1636C255.07 40.0589 255.212 40 255.36 40C255.509 40 255.651 40.0589 255.756 40.1636C255.86 40.2684 255.919 40.4106 255.919 40.5587V52.8509C255.922 55.073 256.806 57.2032 258.377 58.7745C259.948 60.3457 262.078 61.2295 264.3 61.232H279.386C279.534 61.232 279.676 61.2909 279.781 61.3956C279.886 61.5004 279.945 61.6425 279.945 61.7907C279.945 61.9389 279.886 62.081 279.781 62.1858C279.676 62.2906 279.534 62.3495 279.386 62.3495Z" fill="#CCCCCC"/>
<path d="M260.691 90.5657H133.299C132.113 90.5657 130.976 91.0366 130.138 91.8749C129.3 92.7131 128.829 93.8501 128.829 95.0356C128.829 96.2211 129.3 97.358 130.138 98.1963C130.976 99.0345 132.113 99.5055 133.299 99.5055H260.691C261.876 99.5055 263.013 99.0345 263.851 98.1963C264.69 97.358 265.161 96.2211 265.161 95.0356C265.161 93.8501 264.69 92.7131 263.851 91.8749C263.013 91.0366 261.876 90.5657 260.691 90.5657Z" fill="#E6E6E6"/>
<path d="M196.436 71.5686H133.299C132.113 71.5686 130.976 72.0395 130.138 72.8778C129.3 73.7161 128.829 74.853 128.829 76.0385C128.829 77.224 129.3 78.3609 130.138 79.1992C130.976 80.0374 132.113 80.5084 133.299 80.5084H196.436C197.621 80.5084 198.758 80.0374 199.597 79.1992C200.435 78.3609 200.906 77.224 200.906 76.0385C200.906 74.853 200.435 73.7161 199.597 72.8778C198.758 72.0395 197.621 71.5686 196.436 71.5686Z" fill="#E6E6E6"/>
<path d="M133.299 128.001C132.113 128.001 130.976 128.472 130.138 129.31C129.3 130.148 128.829 131.285 128.829 132.471C128.829 133.656 129.3 134.793 130.138 135.632C130.976 136.47 132.113 136.941 133.299 136.941H173.226V128.001H133.299Z" fill="#E6E6E6"/>
<path d="M133.299 109.004C132.712 109.004 132.131 109.12 131.588 109.344C131.046 109.569 130.553 109.898 130.138 110.313C129.723 110.728 129.394 111.221 129.169 111.763C128.944 112.306 128.829 112.887 128.829 113.474C128.829 114.061 128.944 114.642 129.169 115.184C129.394 115.727 129.723 116.219 130.138 116.634C130.553 117.05 131.046 117.379 131.588 117.603C132.131 117.828 132.712 117.944 133.299 117.944H173.226V109.004H133.299Z" fill="#E6E6E6"/>
<path d="M173.505 222.707H137.724C135.28 222.704 132.936 221.732 131.208 220.004C129.48 218.275 128.507 215.932 128.505 213.488V166.554C128.507 164.11 129.48 161.766 131.208 160.038C132.936 158.31 135.28 157.337 137.724 157.335H173.505V222.707Z" fill="#E6E6E6"/>
<path d="M231.201 314.06H182.445C179.927 314.057 177.513 313.056 175.732 311.275C173.951 309.494 172.95 307.08 172.947 304.562V109.563C172.95 107.044 173.951 104.63 175.732 102.849C177.513 101.069 179.927 100.067 182.445 100.064H314.688L338.891 121.675V158.732H337.774V122.175L314.261 101.182H182.445C180.223 101.184 178.093 102.068 176.522 103.639C174.951 105.21 174.067 107.341 174.064 109.563V304.562C174.067 306.784 174.951 308.914 176.522 310.485C178.093 312.056 180.223 312.94 182.445 312.943H231.201V314.06Z" fill="#CCCCCC"/>
<path d="M338.333 122.414H323.247C320.729 122.411 318.314 121.409 316.533 119.628C314.753 117.848 313.751 115.433 313.748 112.915V100.623C313.748 100.475 313.807 100.333 313.912 100.228C314.017 100.123 314.159 100.064 314.307 100.064C314.455 100.064 314.597 100.123 314.702 100.228C314.807 100.333 314.866 100.475 314.866 100.623V112.915C314.868 115.137 315.752 117.267 317.323 118.839C318.895 120.41 321.025 121.294 323.247 121.296H338.333C338.481 121.296 338.623 121.355 338.728 121.46C338.833 121.565 338.891 121.707 338.891 121.855C338.891 122.003 338.833 122.145 338.728 122.25C338.623 122.355 338.481 122.414 338.333 122.414Z" fill="#CCCCCC"/>
<path d="M319.637 150.63H192.246C191.06 150.63 189.923 151.101 189.085 151.939C188.247 152.777 187.776 153.914 187.776 155.1C187.776 156.285 188.247 157.422 189.085 158.26C189.923 159.099 191.06 159.57 192.246 159.57H319.637C320.823 159.57 321.96 159.099 322.798 158.26C323.636 157.422 324.107 156.285 324.107 155.1C324.107 153.914 323.636 152.777 322.798 151.939C321.96 151.101 320.823 150.63 319.637 150.63Z" fill="#E6E6E6"/>
<path d="M255.383 131.633H192.246C191.06 131.633 189.923 132.104 189.085 132.942C188.247 133.78 187.776 134.917 187.776 136.103C187.776 137.288 188.247 138.425 189.085 139.263C189.923 140.102 191.06 140.573 192.246 140.573H255.383C256.568 140.573 257.705 140.102 258.543 139.263C259.382 138.425 259.853 137.288 259.853 136.103C259.853 134.917 259.382 133.78 258.543 132.942C257.705 132.104 256.568 131.633 255.383 131.633Z" fill="#E6E6E6"/>
<path d="M319.637 150.63H192.246C191.06 150.63 189.923 151.101 189.085 151.939C188.247 152.777 187.776 153.914 187.776 155.1C187.776 156.285 188.247 157.422 189.085 158.26C189.923 159.099 191.06 159.57 192.246 159.57H319.637C320.823 159.57 321.96 159.099 322.798 158.26C323.636 157.422 324.107 156.285 324.107 155.1C324.107 153.914 323.636 152.777 322.798 151.939C321.96 151.101 320.823 150.63 319.637 150.63Z" fill="#E6E6E6"/>
<path d="M255.383 131.633H192.246C191.06 131.633 189.923 132.104 189.085 132.942C188.247 133.78 187.776 134.917 187.776 136.103C187.776 137.288 188.247 138.425 189.085 139.263C189.923 140.102 191.06 140.573 192.246 140.573H255.383C256.568 140.573 257.705 140.102 258.543 139.263C259.382 138.425 259.853 137.288 259.853 136.103C259.853 134.917 259.382 133.78 258.543 132.942C257.705 132.104 256.568 131.633 255.383 131.633Z" fill="#E6E6E6"/>
<path d="M192.246 188.065C191.06 188.065 189.923 188.536 189.085 189.374C188.247 190.213 187.776 191.35 187.776 192.535C187.776 193.721 188.247 194.858 189.085 195.696C189.923 196.534 191.06 197.005 192.246 197.005H232.173V188.065H192.246Z" fill="#E6E6E6"/>
<path d="M192.246 169.068C191.06 169.068 189.923 169.539 189.085 170.377C188.247 171.216 187.776 172.353 187.776 173.538C187.776 174.723 188.247 175.86 189.085 176.699C189.923 177.537 191.06 178.008 192.246 178.008H232.173V169.068H192.246Z" fill="#E6E6E6"/>
<path d="M192.246 188.065C191.06 188.065 189.923 188.536 189.085 189.374C188.247 190.213 187.776 191.35 187.776 192.535C187.776 193.721 188.247 194.858 189.085 195.696C189.923 196.534 191.06 197.005 192.246 197.005H232.173V188.065H192.246Z" fill="#E6E6E6"/>
<path d="M192.246 169.068C191.06 169.068 189.923 169.539 189.085 170.377C188.247 171.216 187.776 172.353 187.776 173.538C187.776 174.723 188.247 175.86 189.085 176.699C189.923 177.537 191.06 178.008 192.246 178.008H232.173V169.068H192.246Z" fill="#E6E6E6"/>
<path d="M232.452 282.771H196.671C194.226 282.768 191.883 281.796 190.155 280.068C188.426 278.339 187.454 275.996 187.451 273.552V226.618C187.454 224.174 188.426 221.831 190.155 220.102C191.883 218.374 194.226 217.402 196.671 217.399H232.452V282.771Z" fill="#E6E6E6"/>
<path d="M235.603 160.687C234.215 161.535 233.067 162.725 232.271 164.144C231.474 165.562 231.056 167.162 231.055 168.789V170.186H232.173V168.789C232.175 166.941 232.787 165.146 233.913 163.681C235.039 162.216 236.617 161.164 238.403 160.687H235.603ZM372.796 159.29H240.554C238.035 159.293 235.621 160.295 233.84 162.076C232.06 163.856 231.058 166.271 231.055 168.789V363.788C231.059 366.306 232.061 368.72 233.841 370.5C235.622 372.281 238.036 373.283 240.554 373.286H387.501C390.019 373.283 392.433 372.281 394.214 370.5C395.994 368.72 396.996 366.306 397 363.788V180.902L372.796 159.29ZM395.882 363.788C395.88 366.01 394.996 368.14 393.425 369.711C391.854 371.282 389.723 372.166 387.501 372.169H240.554C238.332 372.166 236.202 371.282 234.63 369.711C233.059 368.14 232.175 366.01 232.173 363.788V168.789C232.175 166.941 232.787 165.146 233.913 163.681C235.039 162.216 236.617 161.164 238.403 160.687C239.104 160.5 239.827 160.406 240.554 160.408H372.371L395.882 181.399V363.788ZM235.603 160.687C234.215 161.535 233.067 162.725 232.271 164.144C231.474 165.562 231.056 167.162 231.055 168.789V170.186H232.173V168.789C232.175 166.941 232.787 165.146 233.913 163.681C235.039 162.216 236.617 161.164 238.403 160.687H235.603Z" fill="#3F3D56"/>
<path d="M396.441 181.64H381.355C378.837 181.637 376.423 180.635 374.642 178.855C372.861 177.074 371.86 174.66 371.857 172.141V159.849C371.857 159.701 371.916 159.559 372.021 159.454C372.125 159.349 372.267 159.29 372.416 159.29C372.564 159.29 372.706 159.349 372.811 159.454C372.916 159.559 372.974 159.701 372.974 159.849V172.141C372.977 174.363 373.861 176.494 375.432 178.065C377.003 179.636 379.133 180.52 381.355 180.522H396.441C396.59 180.522 396.732 180.581 396.836 180.686C396.941 180.791 397 180.933 397 181.081C397 181.229 396.941 181.371 396.836 181.476C396.732 181.581 396.59 181.64 396.441 181.64Z" fill="#3F3D56"/>
<path d="M377.747 218.795H250.355C249.169 218.795 248.032 218.325 247.194 217.486C246.356 216.648 245.885 215.511 245.885 214.326C245.885 213.14 246.356 212.003 247.194 211.165C248.032 210.327 249.169 209.856 250.355 209.856H377.747C378.932 209.856 380.069 210.327 380.907 211.165C381.746 212.003 382.217 213.14 382.217 214.326C382.217 215.511 381.746 216.648 380.907 217.486C380.069 218.325 378.932 218.795 377.747 218.795Z" fill="#CCCCCC"/>
<path d="M313.492 199.799H250.355C249.169 199.799 248.032 199.328 247.194 198.489C246.356 197.651 245.885 196.514 245.885 195.329C245.885 194.143 246.356 193.006 247.194 192.168C248.032 191.33 249.169 190.859 250.355 190.859H313.492C314.678 190.859 315.815 191.33 316.653 192.168C317.491 193.006 317.962 194.143 317.962 195.329C317.962 196.514 317.491 197.651 316.653 198.489C315.815 199.328 314.678 199.799 313.492 199.799Z" fill="#CCCCCC"/>
<path d="M377.747 256.231H250.355C249.169 256.231 248.032 255.76 247.194 254.922C246.356 254.084 245.885 252.947 245.885 251.761C245.885 250.576 246.356 249.439 247.194 248.6C248.032 247.762 249.169 247.291 250.355 247.291H377.747C378.932 247.291 380.069 247.762 380.907 248.6C381.746 249.439 382.217 250.576 382.217 251.761C382.217 252.947 381.746 254.084 380.907 254.922C380.069 255.76 378.932 256.231 377.747 256.231Z" fill="#CCCCCC"/>
<path d="M313.492 237.234H250.355C249.169 237.234 248.032 236.763 247.194 235.925C246.356 235.087 245.885 233.95 245.885 232.764C245.885 231.579 246.356 230.442 247.194 229.603C248.032 228.765 249.169 228.294 250.355 228.294H313.492C314.678 228.294 315.815 228.765 316.653 229.603C317.491 230.442 317.962 231.579 317.962 232.764C317.962 233.95 317.491 235.087 316.653 235.925C315.815 236.763 314.678 237.234 313.492 237.234Z" fill="#CCCCCC"/>
<path d="M373.231 341.997H254.778C252.334 341.994 249.991 341.022 248.263 339.294C246.534 337.566 245.562 335.222 245.559 332.778V285.844C245.562 283.4 246.534 281.057 248.263 279.328C249.991 277.6 252.334 276.628 254.778 276.625H373.231C375.675 276.628 378.018 277.6 379.746 279.328C381.475 281.057 382.447 283.4 382.45 285.844V332.778C382.447 335.222 381.475 337.566 379.746 339.294C378.018 341.022 375.675 341.994 373.231 341.997Z" fill="#FFC65A"/>
</svg>
