<svg width="724" height="413" viewBox="0 0 724 413" fill="none" xmlns="http://www.w3.org/2000/svg">
<g clip-path="url(#clip0)">
<path d="M651.701 192.002C651.701 190.925 650.84 190.052 649.783 190.052C648.723 190.052 647.862 190.925 647.862 192.002V196.104C647.862 197.187 648.723 198.06 649.783 198.06C650.84 198.06 651.701 197.187 651.701 196.104V192.002ZM641.147 186.618C641.147 185.541 640.288 184.667 639.204 184.667C638.144 184.667 637.285 185.541 637.285 186.618V196.104C637.285 197.187 638.144 198.06 639.204 198.06C640.288 198.06 641.147 197.187 641.147 196.104V186.618V186.618ZM630.571 179.252C630.571 178.175 629.712 177.302 628.652 177.302C627.592 177.302 626.734 178.175 626.734 179.252V200.002C626.734 201.085 627.592 201.958 628.652 201.958C629.712 201.958 630.571 201.085 630.571 200.002V179.252ZM619.992 186.618C619.992 185.541 619.134 184.667 618.074 184.667C617.016 184.667 616.155 185.541 616.155 186.618V196.104C616.155 197.187 617.016 198.06 618.074 198.06C619.134 198.06 619.992 197.187 619.992 196.104V186.618V186.618ZM609.416 192.002C609.416 190.925 608.558 190.052 607.504 190.052C606.444 190.052 605.579 190.925 605.579 192.002V196.104C605.579 197.187 606.444 198.06 607.504 198.06C608.558 198.06 609.416 197.187 609.416 196.104V192.002ZM598.857 186.618C598.857 185.541 597.992 184.667 596.933 184.667C595.873 184.667 595.008 185.541 595.008 186.618V196.104C595.008 197.187 595.873 198.06 596.933 198.06C597.992 198.06 598.857 197.187 598.857 196.104V186.618V186.618ZM588.286 179.252C588.286 178.175 587.421 177.302 586.361 177.302C585.302 177.302 584.437 178.175 584.437 179.252V200.002C584.437 201.085 585.302 201.958 586.361 201.958C587.421 201.958 588.286 201.085 588.286 200.002V179.252ZM577.715 186.618C577.715 185.541 576.85 184.667 575.79 184.667C574.73 184.667 573.866 185.541 573.866 186.618V196.104C573.866 197.187 574.73 198.06 575.79 198.06C576.85 198.06 577.715 197.187 577.715 196.104V186.618ZM567.143 192.002C567.143 190.925 566.279 190.052 565.219 190.052C564.16 190.052 563.294 190.925 563.294 192.002V196.104C563.294 197.187 564.16 198.06 565.219 198.06C566.279 198.06 567.143 197.187 567.143 196.104V192.002ZM606.876 209.011C606.76 208.979 604.984 208.513 603.097 208.513C599.524 208.513 597.373 210.475 597.373 213.398C597.373 215.985 599.172 217.275 601.332 217.969C601.572 218.05 601.924 218.162 602.159 218.241C603.121 218.549 603.888 219.006 603.888 219.798C603.888 220.683 603.001 221.256 601.073 221.256C599.379 221.256 597.754 220.764 597.412 220.676V224.272C597.603 224.313 599.533 224.698 601.596 224.698C604.562 224.698 607.956 223.38 607.956 219.455C607.956 217.551 606.81 215.798 604.294 214.985L603.224 214.638C602.586 214.433 601.447 214.102 601.447 213.15C601.447 212.399 602.291 211.87 603.845 211.87C605.186 211.87 606.818 212.328 606.876 212.346V209.011V209.011ZM639.636 216.606C639.636 218.879 637.924 220.719 635.626 220.719C633.326 220.719 631.619 218.879 631.619 216.606C631.619 214.337 633.326 212.497 635.626 212.497C637.924 212.497 639.636 214.337 639.636 216.606V216.606ZM635.626 208.518C630.901 208.518 627.513 212.143 627.513 216.606C627.513 221.076 630.901 224.698 635.626 224.698C640.351 224.698 643.744 221.076 643.744 216.606C643.744 212.143 640.351 208.518 635.626 208.518V208.518ZM582.969 209.078C582.605 208.968 581.258 208.518 579.434 208.518C574.717 208.518 571.254 211.939 571.254 216.606C571.254 221.64 575.077 224.698 579.434 224.698C581.166 224.698 582.487 224.281 582.969 224.142V219.948C582.802 220.042 581.535 220.777 579.712 220.777C577.13 220.777 575.464 218.928 575.464 216.606C575.464 214.213 577.202 212.438 579.712 212.438C581.566 212.438 582.813 213.189 582.969 213.272V209.078V209.078ZM623.431 209.078C623.064 208.968 621.717 208.518 619.899 208.518C615.174 208.518 611.711 211.939 611.711 216.606C611.711 221.64 615.539 224.698 619.899 224.698C621.621 224.698 622.944 224.281 623.431 224.142V219.948C623.261 220.042 621.992 220.777 620.17 220.777C617.589 220.777 615.925 218.928 615.925 216.606C615.925 214.213 617.664 212.438 620.17 212.438C622.023 212.438 623.273 213.189 623.431 213.272V209.078V209.078ZM592.174 224.42H588.298V208.795H592.174V224.42Z" fill="#00BCEB"/>
<path d="M367.528 586.901L511.019 355.819L542.411 305.259L522.738 179.993L505.949 73.0865L504.556 64.2069L475.776 46.3391L361.363 -24.7048L303.924 -60.3661L286.66 -71.0892L274.164 -78.8455L246.325 -96.1313L201.255 -124.119L177.121 -85.2488L154.068 -48.1259L137.5 -21.4421L-71.1192 314.528L367.528 586.901Z" fill="#F2F2F2"/>
<path d="M2.66191 44.3227C21.7558 12.0599 59.5316 10.5563 59.5316 10.5563C59.5316 10.5563 96.342 5.849 119.956 54.9856C141.965 100.785 172.342 145.005 124.846 155.727L116.267 129.025L110.954 157.715C104.191 158.201 97.4073 158.317 90.6321 158.062C39.7681 156.42 -8.67228 158.542 -7.11258 140.29C-5.03917 116.026 -15.7103 75.3659 2.66191 44.3227Z" fill="#2F2E41"/>
<path d="M81.0359 111.846C74.4565 126.399 70.3077 143.747 67.8305 163.017L15.0088 159.715C27.1527 142.507 31.1849 122.755 26.5635 100.291L81.0359 111.846Z" fill="#FFB8B8"/>
<path opacity="0.2" d="M81.0359 111.846C74.4565 126.399 70.3077 143.747 67.8305 163.017L15.0088 159.715C27.1527 142.507 31.1849 122.755 26.5635 100.291L81.0359 111.846Z" fill="black"/>
<path d="M326.112 388.941C326.112 388.941 353.451 403.585 339.578 416.088C325.705 428.59 307.38 399.538 307.38 399.538L326.112 388.941Z" fill="#FFB8B8"/>
<path d="M-8.10225 346.242L-7.67564 366.248L-6.7636 409.474L-5.99868 446.147L49.3565 468L169.092 426.259L161.214 382.518L154.852 347.198L152.013 331.384L8.40279 311.577L-8.10225 346.242Z" fill="#2F2E41"/>
<path d="M-8.10177 346.242L-7.67255 366.249C43.1354 364.945 121.889 352.68 154.853 347.2L152.014 331.386L8.40507 311.578L-8.10177 346.242Z" fill="#3F3D56"/>
<path d="M55.4501 125.877C32.6589 125.877 14.1831 107.401 14.1831 84.6102C14.1831 61.8191 32.6589 43.3433 55.4501 43.3433C78.2412 43.3433 96.717 61.8191 96.717 84.6102C96.717 107.401 78.2412 125.877 55.4501 125.877Z" fill="#FFB8B8"/>
<path d="M-23.7838 368.526C-23.7838 368.526 -28.7358 413.094 0.976423 409.793L5.92847 365.225L32.3394 338.814L106.62 337.163L161.092 388.334C161.092 388.334 162.743 335.512 156.14 330.56C149.538 325.608 134.681 314.054 134.681 314.054V305.8L179.25 215.013C179.25 215.013 152.839 160.54 131.38 158.89L103.319 157.239C103.319 157.239 93.4145 152.287 93.4145 150.636C93.4145 148.986 95.0652 135.78 86.8117 139.082C86.8117 139.082 86.069 122.146 77.3699 127.312C77.3699 127.312 49.985 148.771 22.1876 128.253C22.1876 128.253 9.22981 125.876 10.8805 132.479C12.5311 139.082 10.8805 144.034 7.57912 144.034C4.27777 144.034 -10.5783 148.986 -10.5783 152.287C-10.5783 152.997 -11.6513 159.831 -13.3348 170.114V170.131C-19.459 207.618 -33.6878 290.944 -33.6878 290.944C-33.6878 290.944 -48.544 312.403 -23.7838 368.526Z" fill="#E53935"/>
<path d="M167.696 206.76L179.251 215.013L284.894 350.369L341.017 394.937C341.017 394.937 309.654 389.985 316.257 416.396L123.127 305.801L167.696 206.76Z" fill="#E53935"/>
<path d="M-13.3347 170.114V170.13C-11.1395 183.039 60.401 180.348 70.3051 180.348C80.2092 180.348 88.4626 178.697 98.3666 172.095C108.271 165.492 103.319 157.239 103.319 157.239C103.319 157.239 94.8857 150.816 94.8857 149.165C94.8857 147.514 96.5363 134.309 88.2829 137.61C88.2829 137.61 87.5402 120.674 78.8411 125.841C78.8411 125.841 49.9851 148.771 22.1877 128.253C22.1877 128.253 9.22995 125.876 10.8806 132.478C12.5313 139.081 10.8806 144.033 7.57926 144.033C4.27791 144.033 -10.5781 148.985 -10.5781 152.287C-10.5781 152.996 -11.6512 159.83 -13.3347 170.114Z" fill="#3F3D56"/>
<path d="M-4.79876 108.544C-4.79876 108.544 8.40665 80.4828 21.6121 93.6882C34.8175 106.894 6.75598 126.702 6.75598 126.702L-4.79876 108.544Z" fill="#FFB8B8"/>
<path d="M-4.7989 101.941C-4.7989 101.941 15.5924 127.711 21.9036 129.682C21.9036 129.682 3.45446 202.633 -19.655 222.441L-32.8604 290.119C-32.8604 290.119 -88.9836 267.009 -75.7781 229.043C-75.6461 228.664 -75.5147 228.286 -75.3839 227.911C-64.3577 196.294 -49.1407 166.298 -30.14 138.727L-4.7989 101.941Z" fill="#E53935"/>
<path opacity="0.2" d="M6.09741 178.374L-34.5113 290.119L-19.6553 222.441L6.09741 178.374Z" fill="black"/>
<path d="M11.1049 41.2129L48.4258 21.6643L99.9636 29.6616L110.626 76.7569L84.0831 75.736L76.6676 58.4336V75.4506L64.4204 74.9791L57.3116 47.4332L52.8684 76.7569L9.32787 75.8684L11.1049 41.2129Z" fill="#2F2E41"/>
<path fill-rule="evenodd" clip-rule="evenodd" d="M310.414 135.683H338.355L353.341 150.669V189.341C353.341 192.305 350.939 194.707 347.975 194.707H310.414C307.451 194.707 305.049 192.305 305.049 189.341V141.049C305.049 138.085 307.451 135.683 310.414 135.683ZM331.878 141.049H310.415V189.341H347.975V157.146H337.244C334.28 157.146 331.878 154.744 331.878 151.781V141.049ZM337.244 142.16V151.781H346.864L337.244 142.16Z" fill="black"/>
<path fill-rule="evenodd" clip-rule="evenodd" d="M393.415 135.683H421.355L436.341 150.669V189.341C436.341 192.305 433.939 194.707 430.975 194.707H393.415C390.451 194.707 388.049 192.305 388.049 189.341V141.049C388.049 138.085 390.451 135.683 393.415 135.683ZM414.878 141.049H393.415V189.341H430.975V157.146H420.244C417.28 157.146 414.878 154.744 414.878 151.781V141.049ZM420.244 142.16V151.781H429.864L420.244 142.16ZM401.463 178.61V173.244H417.561V178.61H401.463ZM401.463 162.512V167.878H422.927V162.512H401.463Z" fill="black"/>
<path fill-rule="evenodd" clip-rule="evenodd" d="M392.732 276.024C389.768 276.024 387.366 273.621 387.366 270.658V227.731C387.366 224.768 389.768 222.365 392.732 222.365H435.658C438.622 222.365 441.024 224.768 441.024 227.731V263.72L428.721 276.024H392.732ZM435.658 227.731H392.732V270.658H422.244V262.609C422.244 259.646 424.646 257.243 427.61 257.243H435.658V227.731ZM434.547 262.609H427.61V269.547L434.547 262.609Z" fill="black"/>
<path fill-rule="evenodd" clip-rule="evenodd" d="M304 270.292C304 273.256 306.402 275.658 309.366 275.658H345.355L357.658 263.355V227.366C357.658 224.402 355.256 222 352.292 222H309.366C306.402 222 304 224.402 304 227.366V270.292ZM309.366 227.366H352.293V256.878H344.244C341.28 256.878 338.878 259.28 338.878 262.244V270.292H309.366V227.366ZM344.244 262.244H351.181L344.244 269.181V262.244ZM317.415 256.878V262.244H333.512V256.878H317.415ZM317.415 251.512V246.146H344.244V251.512H317.415ZM317.415 235.415V240.78H344.244V235.415H317.415Z" fill="black"/>
</g>
<defs>
<clipPath id="clip0">
<rect width="724" height="413" fill="white"/>
</clipPath>
</defs>
</svg>
