<svg width="974" height="556" viewBox="0 0 974 556" fill="none" xmlns="http://www.w3.org/2000/svg">
<g clip-path="url(#clip0)">
<g clip-path="url(#clip1)">
<path d="M876.641 258.257C876.641 256.809 875.483 255.634 874.061 255.634C872.635 255.634 871.477 256.809 871.477 258.257V263.775C871.477 265.231 872.635 266.406 874.061 266.406C875.483 266.406 876.641 265.231 876.641 263.775V258.257ZM862.445 251.016C862.445 249.567 861.29 248.391 859.832 248.391C858.406 248.391 857.251 249.567 857.251 251.016V263.775C857.251 265.231 858.406 266.406 859.832 266.406C861.29 266.406 862.445 265.231 862.445 263.775V251.016V251.016ZM848.219 241.108C848.219 239.659 847.064 238.485 845.639 238.485C844.213 238.485 843.058 239.659 843.058 241.108V269.018C843.058 270.475 844.213 271.649 845.639 271.649C847.064 271.649 848.219 270.475 848.219 269.018V241.108ZM833.99 251.016C833.99 249.567 832.836 248.391 831.41 248.391C829.987 248.391 828.829 249.567 828.829 251.016V263.775C828.829 265.231 829.987 266.406 831.41 266.406C832.836 266.406 833.99 265.231 833.99 263.775V251.016V251.016ZM819.765 258.257C819.765 256.809 818.61 255.634 817.192 255.634C815.767 255.634 814.604 256.809 814.604 258.257V263.775C814.604 265.231 815.767 266.406 817.192 266.406C818.61 266.406 819.765 265.231 819.765 263.775V258.257ZM805.562 251.016C805.562 249.567 804.399 248.391 802.973 248.391C801.548 248.391 800.384 249.567 800.384 251.016V263.775C800.384 265.231 801.548 266.406 802.973 266.406C804.399 266.406 805.562 265.231 805.562 263.775V251.016V251.016ZM791.343 241.108C791.343 239.659 790.18 238.485 788.754 238.485C787.329 238.485 786.165 239.659 786.165 241.108V269.018C786.165 270.475 787.329 271.649 788.754 271.649C790.18 271.649 791.343 270.475 791.343 269.018V241.108ZM777.123 251.016C777.123 249.567 775.961 248.391 774.535 248.391C773.109 248.391 771.946 249.567 771.946 251.016V263.775C771.946 265.231 773.109 266.406 774.535 266.406C775.961 266.406 777.123 265.231 777.123 263.775V251.016ZM762.904 258.257C762.904 256.809 761.742 255.634 760.316 255.634C758.892 255.634 757.727 256.809 757.727 258.257V263.775C757.727 265.231 758.892 266.406 760.316 266.406C761.742 266.406 762.904 265.231 762.904 263.775V258.257ZM816.347 281.136C816.192 281.093 813.803 280.466 811.265 280.466C806.459 280.466 803.565 283.106 803.565 287.037C803.565 290.517 805.986 292.252 808.891 293.185C809.213 293.294 809.688 293.445 810.004 293.551C811.297 293.965 812.329 294.58 812.329 295.645C812.329 296.836 811.136 297.607 808.543 297.607C806.263 297.607 804.078 296.944 803.618 296.826V301.663C803.875 301.718 806.471 302.237 809.246 302.237C813.236 302.237 817.8 300.463 817.8 295.184C817.8 292.623 816.259 290.265 812.875 289.171L811.436 288.705C810.578 288.429 809.046 287.983 809.046 286.704C809.046 285.693 810.181 284.981 812.271 284.981C814.075 284.981 816.27 285.598 816.347 285.622V281.136V281.136ZM860.412 291.352C860.412 294.41 858.109 296.884 855.019 296.884C851.926 296.884 849.629 294.41 849.629 291.352C849.629 288.3 851.926 285.824 855.019 285.824C858.109 285.824 860.412 288.3 860.412 291.352V291.352ZM855.019 280.473C848.664 280.473 844.106 285.348 844.106 291.352C844.106 297.364 848.664 302.237 855.019 302.237C861.374 302.237 865.938 297.364 865.938 291.352C865.938 285.348 861.374 280.473 855.019 280.473V280.473ZM784.191 281.226C783.701 281.078 781.89 280.473 779.437 280.473C773.091 280.473 768.433 285.075 768.433 291.352C768.433 298.123 773.575 302.237 779.437 302.237C781.766 302.237 783.543 301.675 784.191 301.488V295.847C783.967 295.973 782.263 296.962 779.811 296.962C776.337 296.962 774.096 294.475 774.096 291.352C774.096 288.133 776.434 285.745 779.811 285.745C782.304 285.745 783.981 286.756 784.191 286.868V281.226V281.226ZM838.616 281.226C838.122 281.078 836.31 280.473 833.865 280.473C827.51 280.473 822.852 285.075 822.852 291.352C822.852 298.123 828 302.237 833.865 302.237C836.181 302.237 837.961 301.675 838.616 301.488V295.847C838.387 295.973 836.681 296.962 834.229 296.962C830.758 296.962 828.52 294.475 828.52 291.352C828.52 288.133 830.858 285.745 834.229 285.745C836.722 285.745 838.403 286.756 838.616 286.868V281.226V281.226ZM796.573 301.862H791.358V280.845H796.573V301.862Z" fill="#00BCEB"/>
</g>
<path d="M134.746 399.343H174.51L272.499 361C272.499 361 342.086 332.597 336.405 386.562C330.725 440.527 320.784 512.954 320.784 512.954C320.784 512.954 289.541 498.753 272.499 503.013C255.457 507.273 266.819 416.385 266.819 416.385C266.819 416.385 127.645 483.131 114.864 474.61C102.083 466.089 99.2427 406.444 99.2427 406.444L134.746 399.343Z" fill="#2F2E41"/>
<path opacity="0.1" d="M134.746 399.343H174.51L272.499 361C272.499 361 342.086 332.597 336.405 386.562C330.725 440.527 320.784 512.954 320.784 512.954C320.784 512.954 289.541 498.753 272.499 503.013C255.457 507.273 266.819 416.385 266.819 416.385C266.819 416.385 127.645 483.131 114.864 474.61C102.083 466.089 99.2427 406.444 99.2427 406.444L134.746 399.343Z" fill="black"/>
<path d="M197.395 274.817L245.517 343.957L357.708 437.686C357.708 437.686 461.377 461.829 447.176 478.87C432.975 495.912 346.347 461.829 346.347 461.829C346.347 461.829 217.114 368.1 212.854 360.999C208.593 353.898 161.729 287.152 161.729 287.152L197.395 274.817Z" fill="#A0616A"/>
<path opacity="0.1" d="M197.395 274.817L245.517 343.957L357.708 437.686C357.708 437.686 461.377 461.829 447.176 478.87C432.975 495.912 346.347 461.829 346.347 461.829C346.347 461.829 217.114 368.1 212.854 360.999C208.593 353.898 161.729 287.152 161.729 287.152L197.395 274.817Z" fill="black"/>
<path d="M168.829 218.986L200.072 280.051C200.072 280.051 192.972 309.874 181.611 312.714C170.249 315.555 121.965 275.791 121.965 275.791L168.829 218.986Z" fill="#D0CDE1"/>
<path opacity="0.1" d="M168.829 218.986L200.072 280.051C200.072 280.051 192.972 309.874 181.611 312.714C170.249 315.555 121.965 275.791 121.965 275.791L168.829 218.986Z" fill="black"/>
<path d="M549.98 367.725L559.209 405.794C559.312 406.219 559.296 406.663 559.163 407.079L517.299 537.905C517.133 538.423 516.794 538.869 516.34 539.168C515.885 539.466 515.342 539.6 514.801 539.547C514.259 539.493 513.753 539.256 513.365 538.874C512.978 538.493 512.733 537.99 512.671 537.449L506.88 486.484C506.841 486.146 506.876 485.803 506.982 485.479L545.409 367.548C545.569 367.056 545.885 366.63 546.31 366.334C546.735 366.038 547.244 365.889 547.761 365.909C548.278 365.929 548.775 366.117 549.175 366.445C549.576 366.772 549.858 367.222 549.98 367.725Z" fill="#2F2E41"/>
<path d="M546.585 370.94L555.105 403.604L518.182 522.895L509.662 485.971L546.585 370.94Z" fill="#F2F2F2"/>
<path d="M360.548 548.457C361.968 552.718 508.242 547.037 509.662 545.617C510.9 543.839 511.947 541.935 512.786 539.936C514.121 537.096 515.342 534.256 515.342 534.256L509.662 488.272L364.808 483.131C364.808 483.131 361.187 522.1 360.448 539.936C360.264 544.438 360.264 547.605 360.548 548.457Z" fill="#2F2E41"/>
<path opacity="0.1" d="M491.201 494.492L494.04 534.256H430.135V494.492H491.201Z" fill="black"/>
<path opacity="0.1" d="M408.833 507.273L409.214 507.198L407.412 524.316H371.909V507.273H408.833Z" fill="black"/>
<path opacity="0.1" d="M360.548 548.458C361.968 552.718 508.242 547.038 509.662 545.618C510.9 543.839 511.947 541.935 512.786 539.937H360.448C360.264 544.439 360.264 547.606 360.548 548.458Z" fill="black"/>
<path d="M190.132 199.104C225.426 199.104 254.038 170.492 254.038 135.198C254.038 99.9035 225.426 71.2917 190.132 71.2917C154.837 71.2917 126.226 99.9035 126.226 135.198C126.226 170.492 154.837 199.104 190.132 199.104Z" fill="#A0616A"/>
<path d="M185.871 192.003C185.871 192.003 164.569 228.927 160.309 248.809C156.048 268.691 96.4028 209.045 96.4028 209.045L88.592 188.453C88.592 188.453 144.687 162.181 140.427 140.879C136.167 119.576 185.871 192.003 185.871 192.003Z" fill="#A0616A"/>
<path d="M197.232 302.773L255.457 379.46L394.631 483.13C394.631 483.13 495.46 504.432 472.738 520.054C450.016 535.675 384.69 505.852 384.69 505.852C384.69 505.852 244.096 430.585 214.274 399.342C184.451 368.099 129.065 315.554 129.065 315.554L197.232 302.773Z" fill="#A0616A"/>
<path d="M119.125 422.065L136.166 449.047L237.872 417.05C260.188 410.029 284.659 412.612 304.452 425.082C322.204 436.266 333.565 454.018 308.003 480.29C256.878 532.835 222.794 504.432 222.794 504.432C222.794 504.432 50.9581 585.38 22.5554 545.616C-5.84724 505.853 -7.26733 485.971 -7.26733 485.971C-7.26733 485.971 102.083 417.804 119.125 422.065Z" fill="#2F2E41"/>
<path d="M332.145 515.794C332.145 515.794 377.589 545.617 323.624 559.818C269.659 574.02 229.895 554.138 229.895 554.138C229.895 554.138 183.031 554.138 183.031 529.995C183.031 505.853 198.652 503.013 198.652 503.013L246.937 510.114C246.937 510.114 305.162 494.492 332.145 515.794Z" fill="#D0CDE1"/>
<path d="M242.557 119.122C246.907 121.061 251.22 123.356 255.949 123.919C260.677 124.482 266.062 122.831 268.3 118.627C269.509 116.357 269.647 113.686 269.703 111.114C269.874 103.316 269.31 94.8855 264.369 88.8504C261.223 85.0096 256.632 82.5884 253.377 78.8408C251.045 76.1559 249.492 72.9015 247.821 69.7622C241.489 57.871 232.115 46.4427 219.087 43.0146C213.647 41.5832 207.94 41.653 202.315 41.7324L169.507 42.1953C164.197 42.2702 158.806 42.3572 153.724 43.8939C143.164 47.0868 135.475 55.9672 128.433 64.4597C123.164 70.8133 117.882 77.2326 113.928 84.4777C108.259 95.0505 105.393 106.899 105.602 118.894C105.558 121.97 105.955 125.037 106.781 128C107.748 130.718 108.945 133.349 110.361 135.862C116.513 147.947 120.167 163.042 113.238 174.699C125.274 169.783 137.183 163.336 145.123 153.04C148.675 148.434 151.461 143.042 156.195 139.662C160.928 136.282 168.641 135.989 171.678 140.949C172.722 142.956 173.26 145.187 173.244 147.449C173.466 151.173 173.46 155.04 175.039 158.419C176.617 161.799 180.378 164.526 183.968 163.514C190.152 161.773 189.559 152.283 194.322 147.972C197.939 144.698 203.518 145.324 208.165 143.838C213.579 142.107 217.641 137.417 219.955 132.225C221.715 128.279 221.689 117.953 225.018 115.816C229.193 113.137 238.687 117.397 242.557 119.122Z" fill="#2F2E41"/>
<path d="M83.5189 181.717C86.3939 180.95 89.4207 180.958 92.2917 181.739C101.408 184.187 121.844 190.666 126.225 200.524C131.906 213.306 151.788 233.188 151.788 233.188C151.788 233.188 178.77 260.17 173.09 278.632C167.409 297.094 146.107 318.396 146.107 318.396C146.107 318.396 151.788 406.444 123.385 429.166C94.9825 451.888 83.6214 436.267 83.6214 457.569C83.6214 478.871 -4.42688 545.617 -21.4685 504.433C-21.4685 504.433 -12.9477 427.746 -15.788 400.763C-18.5873 374.17 -14.4892 208.25 83.5189 181.717Z" fill="#D0CDE1"/>
<path d="M129.066 217.566C129.066 217.566 215.694 281.472 200.073 308.454C200.073 308.454 147.528 334.017 136.167 332.597C124.806 331.176 80.7814 281.472 69.4203 277.211C58.0593 272.951 52.3787 196.264 129.066 217.566Z" fill="#D0CDE1"/>
<path fill-rule="evenodd" clip-rule="evenodd" d="M424.425 236.682L446.939 222.61H476.21C480.296 222.61 483.608 219.298 483.608 215.212V170.825C483.608 166.739 480.296 163.427 476.21 163.427H417.027C412.941 163.427 409.629 166.739 409.629 170.825V215.212C409.629 219.298 412.941 222.61 417.027 222.61H424.425V236.682ZM444.818 215.212L431.822 223.334V215.212H417.026V170.825H476.21V215.212H444.818ZM428.123 204.115V196.718H454.016V204.115H428.123ZM428.123 181.922V189.32H461.414V181.922H428.123Z" fill="black"/>
<path fill-rule="evenodd" clip-rule="evenodd" d="M549.165 222.61L526.651 236.682V222.61H519.253C515.167 222.61 511.855 219.298 511.855 215.212V170.825C511.855 166.739 515.167 163.427 519.253 163.427H578.436C582.522 163.427 585.834 166.739 585.834 170.825V215.212C585.834 219.298 582.522 222.61 578.436 222.61H549.165ZM534.048 223.334L547.044 215.212H578.436V170.825H519.253V215.212H534.048V223.334ZM545.145 178.223V189.32H534.048V196.718H545.145V207.814H552.543V196.718H563.64V189.32H552.543V178.223H545.145Z" fill="black"/>
<path fill-rule="evenodd" clip-rule="evenodd" d="M446.939 326.181L424.425 340.253V326.181H417.027C412.941 326.181 409.629 322.869 409.629 318.783V274.396C409.629 270.31 412.941 266.998 417.027 266.998H476.21C480.296 266.998 483.608 270.31 483.608 274.396V318.783C483.608 322.869 480.296 326.181 476.21 326.181H446.939ZM431.822 326.905L444.818 318.783H476.21V274.396H417.026V318.783H431.822V326.905ZM431.823 292.891V300.289H461.414V292.891H431.823Z" fill="black"/>
<path fill-rule="evenodd" clip-rule="evenodd" d="M553.201 326.181L530.686 340.253V326.181H523.288C519.202 326.181 515.89 322.869 515.89 318.783V274.396C515.89 270.31 519.202 266.998 523.288 266.998H582.471C586.557 266.998 589.869 270.31 589.869 274.396V318.783C589.869 322.869 586.557 326.181 582.471 326.181H553.201ZM538.084 326.905L551.079 318.783H582.471V274.396H523.288V318.783H538.084V326.905ZM565.06 282.877L549.181 298.757L540.699 290.275L535.468 295.507L549.181 309.219L570.291 288.109L565.06 282.877Z" fill="black"/>
</g>
<defs>
<clipPath id="clip0">
<rect width="973.836" height="555.517" fill="white" transform="translate(0.0524902)"/>
</clipPath>
<clipPath id="clip1">
<rect width="119.712" height="64.5637" fill="white" transform="translate(757.331 238.079)"/>
</clipPath>
</defs>
</svg>
