<svg width="724" height="413" viewBox="0 0 724 413" fill="none" xmlns="http://www.w3.org/2000/svg">
<g clip-path="url(#clip0)">
<path d="M651.701 192.002C651.701 190.925 650.84 190.052 649.783 190.052C648.723 190.052 647.862 190.925 647.862 192.002V196.104C647.862 197.187 648.723 198.06 649.783 198.06C650.84 198.06 651.701 197.187 651.701 196.104V192.002ZM641.147 186.618C641.147 185.541 640.288 184.667 639.204 184.667C638.144 184.667 637.285 185.541 637.285 186.618V196.104C637.285 197.187 638.144 198.06 639.204 198.06C640.288 198.06 641.147 197.187 641.147 196.104V186.618V186.618ZM630.571 179.252C630.571 178.175 629.712 177.302 628.652 177.302C627.592 177.302 626.734 178.175 626.734 179.252V200.002C626.734 201.085 627.592 201.958 628.652 201.958C629.712 201.958 630.571 201.085 630.571 200.002V179.252ZM619.992 186.618C619.992 185.541 619.134 184.667 618.074 184.667C617.016 184.667 616.155 185.541 616.155 186.618V196.104C616.155 197.187 617.016 198.06 618.074 198.06C619.134 198.06 619.992 197.187 619.992 196.104V186.618V186.618ZM609.416 192.002C609.416 190.925 608.558 190.052 607.504 190.052C606.444 190.052 605.579 190.925 605.579 192.002V196.104C605.579 197.187 606.444 198.06 607.504 198.06C608.558 198.06 609.416 197.187 609.416 196.104V192.002ZM598.857 186.618C598.857 185.541 597.992 184.667 596.933 184.667C595.873 184.667 595.008 185.541 595.008 186.618V196.104C595.008 197.187 595.873 198.06 596.933 198.06C597.992 198.06 598.857 197.187 598.857 196.104V186.618V186.618ZM588.286 179.252C588.286 178.175 587.421 177.302 586.361 177.302C585.302 177.302 584.437 178.175 584.437 179.252V200.002C584.437 201.085 585.302 201.958 586.361 201.958C587.421 201.958 588.286 201.085 588.286 200.002V179.252ZM577.715 186.618C577.715 185.541 576.85 184.667 575.79 184.667C574.73 184.667 573.866 185.541 573.866 186.618V196.104C573.866 197.187 574.73 198.06 575.79 198.06C576.85 198.06 577.715 197.187 577.715 196.104V186.618ZM567.143 192.002C567.143 190.925 566.279 190.052 565.219 190.052C564.16 190.052 563.294 190.925 563.294 192.002V196.104C563.294 197.187 564.16 198.06 565.219 198.06C566.279 198.06 567.143 197.187 567.143 196.104V192.002ZM606.876 209.011C606.76 208.979 604.984 208.513 603.097 208.513C599.524 208.513 597.373 210.475 597.373 213.398C597.373 215.985 599.172 217.275 601.332 217.969C601.572 218.05 601.924 218.162 602.159 218.241C603.121 218.549 603.888 219.006 603.888 219.798C603.888 220.683 603.001 221.256 601.073 221.256C599.379 221.256 597.754 220.764 597.412 220.676V224.272C597.603 224.313 599.533 224.698 601.596 224.698C604.562 224.698 607.956 223.38 607.956 219.455C607.956 217.551 606.81 215.798 604.294 214.985L603.224 214.638C602.586 214.433 601.447 214.102 601.447 213.15C601.447 212.399 602.291 211.87 603.845 211.87C605.186 211.87 606.818 212.328 606.876 212.346V209.011V209.011ZM639.636 216.606C639.636 218.879 637.924 220.719 635.626 220.719C633.326 220.719 631.619 218.879 631.619 216.606C631.619 214.337 633.326 212.497 635.626 212.497C637.924 212.497 639.636 214.337 639.636 216.606V216.606ZM635.626 208.518C630.901 208.518 627.513 212.143 627.513 216.606C627.513 221.076 630.901 224.698 635.626 224.698C640.351 224.698 643.744 221.076 643.744 216.606C643.744 212.143 640.351 208.518 635.626 208.518V208.518ZM582.969 209.078C582.605 208.968 581.258 208.518 579.434 208.518C574.717 208.518 571.254 211.939 571.254 216.606C571.254 221.64 575.077 224.698 579.434 224.698C581.166 224.698 582.487 224.281 582.969 224.142V219.948C582.802 220.042 581.535 220.777 579.712 220.777C577.13 220.777 575.464 218.928 575.464 216.606C575.464 214.213 577.202 212.438 579.712 212.438C581.566 212.438 582.813 213.189 582.969 213.272V209.078V209.078ZM623.431 209.078C623.064 208.968 621.717 208.518 619.899 208.518C615.174 208.518 611.711 211.939 611.711 216.606C611.711 221.64 615.539 224.698 619.899 224.698C621.621 224.698 622.944 224.281 623.431 224.142V219.948C623.261 220.042 621.992 220.777 620.17 220.777C617.589 220.777 615.925 218.928 615.925 216.606C615.925 214.213 617.664 212.438 620.17 212.438C622.023 212.438 623.273 213.189 623.431 213.272V209.078V209.078ZM592.174 224.42H588.298V208.795H592.174V224.42Z" fill="#00BCEB"/>
<path d="M465.185 468.357L498.204 198.359L505.425 139.286L434.9 33.9057L374.714 -56.0298L369.717 -63.5006L336.091 -67.6099L202.411 -83.9567L135.302 -92.1588L115.129 -94.628L100.53 -96.4108L68.0029 -100.388L15.3421 -106.829L9.79117 -61.4139L4.48516 -18.0386L0.674033 13.1381L-47.3291 405.685L465.185 468.357Z" fill="#F2F2F2"/>
<path d="M100.138 296.892H129.7L202.551 268.386C202.551 268.386 254.285 247.27 250.062 287.39C245.839 327.511 238.448 381.356 238.448 381.356C238.448 381.356 215.22 370.798 202.551 373.966C189.881 377.133 198.327 309.562 198.327 309.562C198.327 309.562 94.8589 359.185 85.3567 352.85C75.8545 346.515 73.7429 302.171 73.7429 302.171L100.138 296.892Z" fill="#2F2E41"/>
<path opacity="0.1" d="M100.138 296.892H129.7L202.551 268.386C202.551 268.386 254.285 247.27 250.062 287.39C245.839 327.511 238.448 381.356 238.448 381.356C238.448 381.356 215.22 370.798 202.551 373.966C189.881 377.133 198.327 309.562 198.327 309.562C198.327 309.562 94.8589 359.185 85.3567 352.85C75.8545 346.515 73.7429 302.171 73.7429 302.171L100.138 296.892Z" fill="black"/>
<path d="M146.714 204.313L182.491 255.716L265.899 325.399C265.899 325.399 342.973 343.347 332.415 356.017C321.857 368.687 257.453 343.347 257.453 343.347C257.453 343.347 161.375 273.664 158.207 268.385C155.04 263.106 120.198 213.484 120.198 213.484L146.714 204.313Z" fill="#A0616A"/>
<path opacity="0.1" d="M146.714 204.313L182.491 255.716L265.899 325.399C265.899 325.399 342.973 343.347 332.415 356.017C321.857 368.687 257.453 343.347 257.453 343.347C257.453 343.347 161.375 273.664 158.207 268.385C155.04 263.106 120.198 213.484 120.198 213.484L146.714 204.313Z" fill="black"/>
<path d="M125.477 162.805L148.705 208.205C148.705 208.205 143.426 230.377 134.979 232.488C126.533 234.6 90.6357 205.037 90.6357 205.037L125.477 162.805Z" fill="#D0CDE1"/>
<path opacity="0.1" d="M125.477 162.805L148.705 208.205C148.705 208.205 143.426 230.377 134.979 232.488C126.533 234.6 90.6357 205.037 90.6357 205.037L125.477 162.805Z" fill="black"/>
<path d="M408.845 273.386L415.706 301.688C415.782 302.004 415.771 302.335 415.672 302.644L384.547 399.907C384.424 400.292 384.173 400.623 383.835 400.845C383.497 401.067 383.093 401.167 382.69 401.127C382.288 401.087 381.911 400.911 381.623 400.627C381.335 400.343 381.153 399.969 381.107 399.567L376.802 361.678C376.773 361.426 376.799 361.171 376.877 360.93L405.446 273.255C405.565 272.889 405.8 272.572 406.116 272.352C406.432 272.132 406.81 272.021 407.195 272.036C407.579 272.051 407.948 272.19 408.246 272.434C408.544 272.678 408.754 273.012 408.845 273.386Z" fill="#2F2E41"/>
<path d="M406.321 275.776L412.655 300.06L385.204 388.747L378.87 361.296L406.321 275.776Z" fill="#F2F2F2"/>
<path d="M268.011 407.751C269.066 410.919 377.814 406.696 378.87 405.64C379.79 404.318 380.569 402.902 381.193 401.417C382.185 399.305 383.093 397.193 383.093 397.193L378.87 363.007L271.178 359.185C271.178 359.185 268.486 388.156 267.937 401.417C267.8 404.763 267.8 407.118 268.011 407.751Z" fill="#2F2E41"/>
<path opacity="0.1" d="M365.145 367.631L367.256 397.193H319.745V367.631H365.145Z" fill="black"/>
<path opacity="0.1" d="M303.908 377.133L304.191 377.077L302.852 389.803H276.457V377.133H303.908Z" fill="black"/>
<path opacity="0.1" d="M268.011 407.752C269.066 410.919 377.814 406.696 378.87 405.64C379.79 404.318 380.569 402.902 381.193 401.417H267.937C267.8 404.764 267.8 407.118 268.011 407.752Z" fill="black"/>
<path d="M141.315 148.024C167.554 148.024 188.826 126.753 188.826 100.513C188.826 74.2734 167.554 53.002 141.315 53.002C115.075 53.002 93.8035 74.2734 93.8035 100.513C93.8035 126.753 115.075 148.024 141.315 148.024Z" fill="#A0616A"/>
<path d="M138.147 142.745C138.147 142.745 122.31 170.196 119.143 184.977C115.975 199.759 71.6316 155.415 71.6316 155.415L65.8247 140.106C65.8247 140.106 107.529 120.573 104.361 104.736C101.194 88.8994 138.147 142.745 138.147 142.745Z" fill="#A0616A"/>
<path d="M146.593 225.097L189.881 282.111L293.35 359.184C293.35 359.184 368.312 375.021 351.419 386.635C334.526 398.249 285.959 376.077 285.959 376.077C285.959 376.077 181.435 320.12 159.263 296.892C137.091 273.664 95.9148 234.6 95.9148 234.6L146.593 225.097Z" fill="#A0616A"/>
<path d="M88.5244 313.785L101.194 333.845L176.808 310.056C193.398 304.837 211.591 306.757 226.306 316.028C239.504 324.343 247.95 337.54 228.946 357.072C190.937 396.137 165.598 375.021 165.598 375.021C165.598 375.021 37.8459 435.202 16.7299 405.639C-4.38613 376.077 -5.44189 361.296 -5.44189 361.296C-5.44189 361.296 75.8548 310.617 88.5244 313.785Z" fill="#2F2E41"/>
<path d="M246.894 383.468C246.894 383.468 280.68 405.64 240.559 416.198C200.439 426.756 170.877 411.975 170.877 411.975C170.877 411.975 136.035 411.975 136.035 394.026C136.035 376.077 147.649 373.966 147.649 373.966L183.546 379.245C183.546 379.245 226.834 367.631 246.894 383.468Z" fill="#D0CDE1"/>
<path d="M180.29 88.5616C183.524 90.0032 186.731 91.7095 190.246 92.1279C193.762 92.5464 197.765 91.3189 199.429 88.1936C200.328 86.5055 200.43 84.5199 200.472 82.608C200.599 76.8104 200.18 70.5428 196.506 66.0561C194.168 63.2006 190.755 61.4006 188.334 58.6144C186.6 56.6183 185.446 54.1988 184.204 51.8649C179.497 43.0244 172.527 34.528 162.842 31.9794C158.797 30.9152 154.554 30.9671 150.372 31.0261L125.981 31.3702C122.034 31.4259 118.026 31.4906 114.247 32.6331C106.396 35.0069 100.68 41.609 95.4444 47.9227C91.5276 52.6464 87.6005 57.4188 84.6609 62.8052C80.4464 70.6655 78.3153 79.4743 78.4708 88.3919C78.4382 90.679 78.7335 92.9589 79.3477 95.1622C80.0663 97.1829 80.9565 99.1384 82.0087 101.007C86.583 109.992 89.299 121.214 84.1476 129.881C93.0961 126.225 101.95 121.432 107.853 113.778C110.494 110.353 112.565 106.345 116.084 103.832C119.603 101.319 125.338 101.101 127.595 104.789C128.372 106.281 128.771 107.94 128.76 109.622C128.925 112.39 128.92 115.265 130.094 117.777C131.267 120.29 134.063 122.317 136.732 121.565C141.329 120.27 140.889 113.215 144.43 110.01C147.119 107.576 151.267 108.042 154.721 106.937C158.746 105.649 161.766 102.163 163.487 98.3031C164.795 95.3695 164.776 87.6927 167.251 86.104C170.355 84.1117 177.413 87.2791 180.29 88.5616Z" fill="#2F2E41"/>
<path d="M62.0531 135.098C64.1905 134.528 66.4407 134.533 68.5752 135.114C75.3526 136.934 90.5457 141.751 93.8033 149.08C98.0265 158.583 112.808 173.364 112.808 173.364C112.808 173.364 132.868 193.424 128.645 207.149C124.422 220.875 108.585 236.712 108.585 236.712C108.585 236.712 112.808 302.172 91.6917 319.064C70.5757 335.957 62.1293 324.343 62.1293 340.18C62.1293 356.017 -3.33038 405.64 -16 375.022C-16 375.022 -9.66519 318.009 -11.7768 297.948C-13.8579 278.177 -10.8113 154.824 62.0531 135.098Z" fill="#D0CDE1"/>
<path d="M95.9151 161.75C95.9151 161.75 160.319 209.261 148.705 229.321C148.705 229.321 109.641 248.325 101.194 247.27C92.7477 246.214 60.0179 209.261 51.5714 206.093C43.125 202.926 38.9018 145.913 95.9151 161.75Z" fill="#D0CDE1"/>
<path fill-rule="evenodd" clip-rule="evenodd" d="M315.5 175.962L332.239 165.5H354C357.038 165.5 359.5 163.038 359.5 160V127C359.5 123.962 357.038 121.5 354 121.5H310C306.962 121.5 304.5 123.962 304.5 127V160C304.5 163.038 306.962 165.5 310 165.5H315.5V175.962ZM330.661 160L321 166.038V160H310V127H354V160H330.661ZM318.25 151.75V146.25H337.5V151.75H318.25ZM318.25 135.25V140.75H343V135.25H318.25Z" fill="black"/>
<path fill-rule="evenodd" clip-rule="evenodd" d="M408.239 165.5L391.5 175.962V165.5H386C382.962 165.5 380.5 163.038 380.5 160V127C380.5 123.962 382.962 121.5 386 121.5H430C433.038 121.5 435.5 123.962 435.5 127V160C435.5 163.038 433.038 165.5 430 165.5H408.239ZM397 166.038L406.661 160H430V127H386V160H397V166.038ZM405.25 132.5V140.75H397V146.25H405.25V154.5H410.75V146.25H419V140.75H410.75V132.5H405.25Z" fill="black"/>
<path fill-rule="evenodd" clip-rule="evenodd" d="M332.239 242.5L315.5 252.962V242.5H310C306.962 242.5 304.5 240.038 304.5 237V204C304.5 200.962 306.962 198.5 310 198.5H354C357.038 198.5 359.5 200.962 359.5 204V237C359.5 240.038 357.038 242.5 354 242.5H332.239ZM321 243.038L330.661 237H354V204H310V237H321V243.038ZM321 217.75V223.25H343V217.75H321Z" fill="black"/>
<path fill-rule="evenodd" clip-rule="evenodd" d="M411.239 242.5L394.5 252.962V242.5H389C385.962 242.5 383.5 240.038 383.5 237V204C383.5 200.962 385.962 198.5 389 198.5H433C436.038 198.5 438.5 200.962 438.5 204V237C438.5 240.038 436.038 242.5 433 242.5H411.239ZM400 243.038L409.661 237H433V204H389V237H400V243.038ZM420.056 210.306L408.25 222.111L401.945 215.806L398.056 219.695L408.25 229.889L423.945 214.195L420.056 210.306Z" fill="black"/>
</g>
<defs>
<clipPath id="clip0">
<rect width="724" height="413" fill="white"/>
</clipPath>
</defs>
</svg>
