<svg width="974" height="556" viewBox="0 0 974 556" fill="none" xmlns="http://www.w3.org/2000/svg">
<g clip-path="url(#clip0)">
<g clip-path="url(#clip1)">
<path d="M876.641 258.257C876.641 256.809 875.483 255.634 874.061 255.634C872.635 255.634 871.477 256.809 871.477 258.257V263.775C871.477 265.231 872.635 266.406 874.061 266.406C875.483 266.406 876.641 265.231 876.641 263.775V258.257ZM862.445 251.016C862.445 249.567 861.29 248.391 859.832 248.391C858.406 248.391 857.251 249.567 857.251 251.016V263.775C857.251 265.231 858.406 266.406 859.832 266.406C861.29 266.406 862.445 265.231 862.445 263.775V251.016ZM848.219 241.108C848.219 239.659 847.064 238.485 845.639 238.485C844.213 238.485 843.058 239.659 843.058 241.108V269.018C843.058 270.475 844.213 271.649 845.639 271.649C847.064 271.649 848.219 270.475 848.219 269.018V241.108ZM833.99 251.016C833.99 249.567 832.836 248.391 831.41 248.391C829.987 248.391 828.829 249.567 828.829 251.016V263.775C828.829 265.231 829.987 266.406 831.41 266.406C832.836 266.406 833.99 265.231 833.99 263.775V251.016ZM819.765 258.257C819.765 256.809 818.61 255.634 817.192 255.634C815.767 255.634 814.604 256.809 814.604 258.257V263.775C814.604 265.231 815.767 266.406 817.192 266.406C818.61 266.406 819.765 265.231 819.765 263.775V258.257ZM805.562 251.016C805.562 249.567 804.399 248.391 802.973 248.391C801.548 248.391 800.384 249.567 800.384 251.016V263.775C800.384 265.231 801.548 266.406 802.973 266.406C804.399 266.406 805.562 265.231 805.562 263.775V251.016ZM791.343 241.108C791.343 239.659 790.18 238.485 788.754 238.485C787.329 238.485 786.165 239.659 786.165 241.108V269.018C786.165 270.475 787.329 271.649 788.754 271.649C790.18 271.649 791.343 270.475 791.343 269.018V241.108ZM777.123 251.016C777.123 249.567 775.961 248.391 774.535 248.391C773.109 248.391 771.946 249.567 771.946 251.016V263.775C771.946 265.231 773.109 266.406 774.535 266.406C775.961 266.406 777.123 265.231 777.123 263.775V251.016ZM762.904 258.257C762.904 256.809 761.742 255.634 760.316 255.634C758.892 255.634 757.727 256.809 757.727 258.257V263.775C757.727 265.231 758.892 266.406 760.316 266.406C761.742 266.406 762.904 265.231 762.904 263.775V258.257ZM816.347 281.136C816.192 281.093 813.803 280.466 811.265 280.466C806.459 280.466 803.565 283.106 803.565 287.037C803.565 290.517 805.986 292.252 808.891 293.185C809.213 293.294 809.688 293.445 810.004 293.551C811.297 293.965 812.329 294.58 812.329 295.645C812.329 296.836 811.136 297.607 808.543 297.607C806.263 297.607 804.078 296.944 803.618 296.826V301.663C803.875 301.718 806.471 302.237 809.246 302.237C813.236 302.237 817.8 300.463 817.8 295.184C817.8 292.623 816.259 290.265 812.875 289.171L811.436 288.705C810.578 288.429 809.046 287.983 809.046 286.704C809.046 285.693 810.181 284.981 812.271 284.981C814.075 284.981 816.27 285.598 816.347 285.622V281.136ZM860.412 291.352C860.412 294.41 858.109 296.884 855.019 296.884C851.926 296.884 849.629 294.41 849.629 291.352C849.629 288.3 851.926 285.824 855.019 285.824C858.109 285.824 860.412 288.3 860.412 291.352ZM855.019 280.473C848.664 280.473 844.106 285.348 844.106 291.352C844.106 297.364 848.664 302.237 855.019 302.237C861.374 302.237 865.938 297.364 865.938 291.352C865.938 285.348 861.374 280.473 855.019 280.473ZM784.191 281.226C783.701 281.078 781.89 280.473 779.437 280.473C773.091 280.473 768.433 285.075 768.433 291.352C768.433 298.123 773.575 302.237 779.437 302.237C781.766 302.237 783.543 301.675 784.191 301.488V295.847C783.967 295.973 782.263 296.962 779.811 296.962C776.337 296.962 774.096 294.475 774.096 291.352C774.096 288.133 776.434 285.745 779.811 285.745C782.304 285.745 783.981 286.756 784.191 286.868V281.226ZM838.616 281.226C838.122 281.078 836.31 280.473 833.865 280.473C827.51 280.473 822.852 285.075 822.852 291.352C822.852 298.123 828 302.237 833.865 302.237C836.181 302.237 837.961 301.675 838.616 301.488V295.847C838.387 295.973 836.681 296.962 834.229 296.962C830.758 296.962 828.52 294.475 828.52 291.352C828.52 288.133 830.858 285.745 834.229 285.745C836.722 285.745 838.403 286.756 838.616 286.868V281.226ZM796.573 301.862H791.358V280.845H796.573V301.862Z" fill="#00BCEB"/>
</g>
<path fill-rule="evenodd" clip-rule="evenodd" d="M149.151 253.477L184.737 231.236H231.001C237.459 231.236 242.694 226.001 242.694 219.543V149.386C242.694 142.928 237.459 137.693 231.001 137.693H137.458C131 137.693 125.765 142.928 125.765 149.386V219.543C125.765 226.001 131 231.236 137.458 231.236H149.151V253.477ZM181.384 219.543L160.844 232.38V219.543H137.458V149.386H231.001V219.543H181.384ZM154.998 202.004V190.311H195.923V202.004H154.998ZM154.998 166.925V178.618H207.616V166.925H154.998Z" fill="black"/>
<path fill-rule="evenodd" clip-rule="evenodd" d="M346.312 231.236L310.726 253.477V231.236H299.033C292.575 231.236 287.34 226.001 287.34 219.543V149.386C287.34 142.928 292.575 137.693 299.033 137.693H392.576C399.034 137.693 404.269 142.928 404.269 149.386V219.543C404.269 226.001 399.034 231.236 392.576 231.236H346.312ZM322.419 232.38L342.958 219.543H392.576V149.386H299.033V219.543H322.419V232.38ZM339.958 161.078V178.618H322.418V190.311H339.958V207.85H351.651V190.311H369.19V178.618H351.651V161.078H339.958Z" fill="black"/>
<path fill-rule="evenodd" clip-rule="evenodd" d="M184.737 394.936L149.151 417.177V394.936H137.458C131 394.936 125.765 389.701 125.765 383.243V313.086C125.765 306.628 131 301.393 137.458 301.393H231.001C237.459 301.393 242.694 306.628 242.694 313.086V383.243C242.694 389.701 237.459 394.936 231.001 394.936H184.737ZM160.844 396.081L181.384 383.243H231.001V313.086H137.458V383.243H160.844V396.081ZM160.844 342.318V354.011H207.616V342.318H160.844Z" fill="black"/>
<path fill-rule="evenodd" clip-rule="evenodd" d="M352.69 394.936L317.104 417.177V394.936H305.411C298.953 394.936 293.718 389.701 293.718 383.243V313.086C293.718 306.628 298.953 301.393 305.411 301.393H398.954C405.412 301.393 410.647 306.628 410.647 313.086V383.243C410.647 389.701 405.412 394.936 398.954 394.936H352.69ZM328.796 396.081L349.336 383.243H398.954V313.086H305.411V383.243H328.796V396.081ZM371.434 326.492L346.336 351.59L332.931 338.185L324.663 346.453L346.336 368.126L379.702 334.76L371.434 326.492Z" fill="black"/>
</g>
<defs>
<clipPath id="clip0">
<rect width="973.836" height="555.517" fill="white" transform="translate(0.0524902)"/>
</clipPath>
<clipPath id="clip1">
<rect width="119.712" height="64.5637" fill="white" transform="translate(757.331 238.079)"/>
</clipPath>
</defs>
</svg>
