<svg width="724" height="413" viewBox="0 0 724 413" fill="none" xmlns="http://www.w3.org/2000/svg">
<g clip-path="url(#clip0)">
<path d="M518.052 279.199L397.166 35.5284L370.715 -17.7826L253.863 -67.0216L154.139 -109.045L145.857 -112.537L115.512 -97.4796L-5.13203 -37.6259L-65.6952 -7.57469L-83.9025 1.45563L-97.0765 7.99412L-126.431 22.5582L-173.958 46.1352L-153.622 87.1202L-134.203 126.267L-120.242 154.403L55.5153 508.672L518.052 279.199Z" fill="#F2F2F2"/>
<path d="M94.18 87.4075H56.9555C54.7751 87.405 52.6847 86.5378 51.1429 84.996C49.6012 83.4542 48.7339 81.3638 48.7314 79.1835V41.9589C48.7339 39.7785 49.6012 37.6881 51.1429 36.1464C52.6847 34.6046 54.7751 33.7373 56.9555 33.7349H94.18C96.3604 33.7373 98.4508 34.6046 99.9926 36.1464C101.534 37.6881 102.402 39.7785 102.404 41.9589V79.1835C102.402 81.3638 101.534 83.4542 99.9926 84.996C98.4508 86.5378 96.3604 87.405 94.18 87.4075V87.4075ZM56.9555 35.4662C55.2341 35.4682 53.5838 36.1528 52.3666 37.37C51.1494 38.5872 50.4647 40.2375 50.4628 41.9589V79.1835C50.4647 80.9048 51.1494 82.5551 52.3666 83.7723C53.5838 84.9895 55.2341 85.6742 56.9555 85.6761H94.18C95.9014 85.6742 97.5517 84.9895 98.7689 83.7723C99.9861 82.5551 100.671 80.9048 100.673 79.1835V41.9589C100.671 40.2375 99.9861 38.5872 98.7689 37.37C97.5517 36.1528 95.9014 35.4682 94.18 35.4662H56.9555Z" fill="#CCCCCC"/>
<path fill-rule="evenodd" clip-rule="evenodd" d="M69.2526 47.9426H89.7745C91.5182 47.9426 92.9317 49.3562 92.9317 51.0998V70.0431C92.9317 71.7868 91.5182 73.2003 89.7745 73.2003H69.2526C68.4551 73.2003 68.0953 72.906 67.3637 72.1232C67.2906 72.045 67.2161 71.9627 67.1403 71.8769C66.8501 71.5479 66.5914 71.2262 66.4613 71.0537L57.7261 60.5715L58.5682 59.5609L66.3823 50.1923C66.5466 49.9585 66.7957 49.6273 67.0852 49.2872C67.2008 49.1515 67.3149 49.0243 67.4277 48.9068C68.0365 48.273 68.4881 47.9426 69.2526 47.9426ZM69.4892 51.3338C69.2748 51.5857 69.0786 51.8465 68.8866 52.1104L61.8357 60.5715L68.9279 69.0842C69.0583 69.2547 69.2755 69.5249 69.5076 69.7879C69.5642 69.8521 69.6187 69.9122 69.6702 69.9674C69.6952 69.9941 69.7193 70.0194 69.7422 70.0431H89.7744V51.0998H69.699C69.6345 51.1672 69.5639 51.2461 69.4892 51.3338ZM82.3438 54.7193L78.7243 58.3388L75.1047 54.7193L72.8722 56.9517L76.4918 60.5713L72.8722 64.1909L75.1047 66.4234L78.7243 62.8038L82.3438 66.4234L84.5763 64.1909L80.9567 60.5713L84.5763 56.9517L82.3438 54.7193Z" fill="black"/>
<path d="M264.911 87.4075H228.781C226.665 87.405 224.636 86.5378 223.14 84.996C221.643 83.4542 220.801 81.3638 220.799 79.1835V41.9589C220.801 39.7785 221.643 37.6881 223.14 36.1464C224.636 34.6046 226.665 33.7373 228.781 33.7349H264.911C267.027 33.7373 269.056 34.6046 270.553 36.1464C272.049 37.6881 272.891 39.7785 272.893 41.9589V79.1835C272.891 81.3638 272.049 83.4542 270.553 84.996C269.056 86.5378 267.027 87.405 264.911 87.4075V87.4075ZM228.781 35.4662C227.11 35.4682 225.509 36.1528 224.327 37.37C223.146 38.5872 222.481 40.2375 222.48 41.9589V79.1835C222.481 80.9048 223.146 82.5551 224.327 83.7723C225.509 84.9895 227.11 85.6742 228.781 85.6761H264.911C266.582 85.6742 268.183 84.9895 269.365 83.7723C270.546 82.5551 271.211 80.9048 271.213 79.1835V41.9589C271.211 40.2375 270.546 38.5872 269.365 37.37C268.183 36.1528 266.582 35.4682 264.911 35.4662H228.781Z" fill="#CCCCCC"/>
<path fill-rule="evenodd" clip-rule="evenodd" d="M232.965 45.2478L230.733 47.4803L235.931 52.6784H235.006C232.391 52.6784 230.271 54.7987 230.271 57.4143V71.6217C230.271 74.2373 232.391 76.3575 235.006 76.3575H259.61L262.305 79.0524L264.537 76.8199L232.965 45.2478ZM256.453 73.2003L252.88 69.6275C251.458 70.8933 249.606 71.6216 247.635 71.6216C243.276 71.6216 239.742 68.0878 239.742 63.7286C239.742 61.7567 240.471 59.9047 241.736 58.4836L239.088 55.8357H235.006C234.134 55.8357 233.428 56.5424 233.428 57.4143V71.6217C233.428 72.4936 234.134 73.2003 235.006 73.2003H256.453ZM243.975 60.7224C243.29 61.5549 242.899 62.6084 242.899 63.7286C242.899 66.3441 245.02 68.4644 247.635 68.4644C248.755 68.4644 249.808 68.0744 250.641 67.3887L243.975 60.7224ZM260.264 52.6785C262.879 52.6785 265 54.7988 265 57.4143V71.6218H261.843V57.4143C261.843 56.5425 261.136 55.8357 260.264 55.8357H255.528C254.479 55.8357 253.772 55.2618 253.065 54.278C252.902 54.0517 252.74 53.8046 252.546 53.4901C252.48 53.3827 252.309 53.0998 252.19 52.9044L252.19 52.9042L252.189 52.9024L252.189 52.9018L252.074 52.7126C251.36 51.5446 250.929 51.0999 250.792 51.0999H244.478C244.525 51.0999 244.509 51.1147 244.404 51.2131C244.374 51.241 244.337 51.2756 244.292 51.3185C244.183 51.4217 243.705 51.9127 243.731 51.886C243.72 51.8967 241.473 49.6796 241.473 49.6796C241.424 49.729 241.956 49.1832 242.113 49.0335C242.849 48.332 243.542 47.9427 244.478 47.9427H250.792C252.508 47.9427 253.459 48.9252 254.768 51.0658C254.786 51.0958 254.837 51.1798 254.899 51.2828L254.9 51.2839C255.017 51.4778 255.175 51.7382 255.233 51.8319C255.391 52.0886 255.516 52.2789 255.628 52.4344C255.701 52.537 255.766 52.6184 255.818 52.6785H260.264ZM258.685 60.5714C259.557 60.5714 260.264 59.8647 260.264 58.9928C260.264 58.121 259.557 57.4142 258.685 57.4142C257.814 57.4142 257.107 58.121 257.107 58.9928C257.107 59.8647 257.814 60.5714 258.685 60.5714Z" fill="black"/>
<path d="M264.911 160.023H228.781C226.665 160.021 224.636 159.153 223.14 157.612C221.643 156.07 220.801 153.98 220.799 151.799V114.575C220.801 112.394 221.643 110.304 223.14 108.762C224.636 107.22 226.665 106.353 228.781 106.351H264.911C267.027 106.353 269.056 107.22 270.553 108.762C272.049 110.304 272.891 112.394 272.893 114.575V151.799C272.891 153.98 272.049 156.07 270.553 157.612C269.056 159.153 267.027 160.021 264.911 160.023V160.023ZM228.781 108.082C227.11 108.084 225.509 108.769 224.327 109.986C223.146 111.203 222.481 112.853 222.48 114.575V151.799C222.481 153.521 223.146 155.171 224.327 156.388C225.509 157.605 227.11 158.29 228.781 158.292H264.911C266.582 158.29 268.183 157.605 269.365 156.388C270.546 155.171 271.211 153.521 271.213 151.799V114.575C271.211 112.853 270.546 111.203 269.365 109.986C268.183 108.769 266.582 108.084 264.911 108.082H228.781Z" fill="#CCCCCC"/>
<path fill-rule="evenodd" clip-rule="evenodd" d="M244.478 145.816C237.503 145.816 231.849 140.162 231.849 133.187C231.849 126.212 237.503 120.558 244.478 120.558C251.453 120.558 257.107 126.212 257.107 133.187C257.107 136.106 256.117 138.793 254.455 140.931L262.959 149.436L260.726 151.668L252.222 143.164C250.084 144.826 247.396 145.816 244.478 145.816ZM253.95 133.187C253.95 138.418 249.709 142.659 244.478 142.659C239.247 142.659 235.006 138.418 235.006 133.187C235.006 127.956 239.247 123.715 244.478 123.715C249.709 123.715 253.95 127.956 253.95 133.187Z" fill="black"/>
<path d="M179.666 160.023H143.537C141.42 160.021 139.391 159.153 137.895 157.612C136.399 156.07 135.557 153.98 135.554 151.799V114.575C135.557 112.394 136.399 110.304 137.895 108.762C139.391 107.22 141.42 106.353 143.537 106.351H179.666C181.783 106.353 183.811 107.22 185.308 108.762C186.804 110.304 187.646 112.394 187.648 114.575V151.799C187.646 153.98 186.804 156.07 185.308 157.612C183.811 159.153 181.783 160.021 179.666 160.023V160.023ZM143.537 108.082C141.866 108.084 140.264 108.769 139.083 109.986C137.901 111.203 137.237 112.853 137.235 114.575V151.799C137.237 153.521 137.901 155.171 139.083 156.388C140.264 157.605 141.866 158.29 143.537 158.292H179.666C181.337 158.29 182.939 157.605 184.12 156.388C185.302 155.171 185.966 153.521 185.968 151.799V114.575C185.966 112.853 185.302 111.203 184.12 109.986C182.939 108.769 181.337 108.084 179.666 108.082H143.537Z" fill="#CCCCCC"/>
<path fill-rule="evenodd" clip-rule="evenodd" d="M162.39 115.823C165.878 115.823 168.705 118.65 168.705 122.137V133.187C168.705 136.675 165.878 139.502 162.39 139.502C158.903 139.502 156.076 136.675 156.076 133.187V122.137C156.076 118.65 158.903 115.823 162.39 115.823ZM163.969 145.718V147.394H168.705V150.552H156.076V147.394H160.812V145.718C154.582 144.941 149.762 139.627 149.762 133.187V130.03H152.919V133.187C152.919 138.418 157.16 142.659 162.391 142.659C167.622 142.659 171.862 138.418 171.862 133.187V130.03H175.019V133.187C175.019 139.627 170.199 144.941 163.969 145.718ZM159.233 122.137C159.233 120.393 160.647 118.98 162.39 118.98C164.134 118.98 165.548 120.393 165.548 122.137V133.187C165.548 134.931 164.134 136.344 162.39 136.344C160.647 136.344 159.233 134.931 159.233 133.187V122.137Z" fill="#E53935"/>
<path d="M94.1796 160.023H56.955C54.7746 160.021 52.6842 159.153 51.1425 157.612C49.6007 156.07 48.7334 153.98 48.731 151.799V114.575C48.7334 112.394 49.6007 110.304 51.1425 108.762C52.6842 107.22 54.7746 106.353 56.955 106.351H94.1796C96.3599 106.353 98.4503 107.22 99.9921 108.762C101.534 110.304 102.401 112.394 102.404 114.575V151.799C102.401 153.98 101.534 156.07 99.9921 157.612C98.4503 159.153 96.3599 160.021 94.1796 160.023V160.023ZM56.955 108.082C55.2336 108.084 53.5833 108.769 52.3661 109.986C51.1489 111.203 50.4642 112.853 50.4623 114.575V151.799C50.4642 153.521 51.1489 155.171 52.3661 156.388C53.5833 157.605 55.2336 158.29 56.955 158.292H94.1796C95.9009 158.29 97.5513 157.605 98.7685 156.388C99.9856 155.171 100.67 153.521 100.672 151.799V114.575C100.67 112.853 99.9856 111.203 98.7685 109.986C97.5513 108.769 95.9009 108.084 94.1796 108.082H56.955Z" fill="#CCCCCC"/>
<path fill-rule="evenodd" clip-rule="evenodd" d="M83.4604 141.08V144.84L75.5673 140.894L67.6743 144.84V120.558H83.4604V122.137H86.6176V120.558C86.6176 118.815 85.2041 117.401 83.4604 117.401H67.6743C65.9306 117.401 64.5171 118.815 64.5171 120.558V149.949L75.5673 144.424L86.6176 149.949V141.08H83.4604ZM85.0386 126.873V130.03H81.8814V133.187H85.0386V136.344H88.1959V133.187H91.3531V130.03H88.1959V126.873H85.0386Z" fill="black"/>
<path d="M179.666 87.4075H143.537C141.42 87.405 139.391 86.5378 137.895 84.996C136.399 83.4542 135.557 81.3638 135.554 79.1835V41.9589C135.557 39.7785 136.399 37.6881 137.895 36.1464C139.391 34.6046 141.42 33.7373 143.537 33.7349H179.666C181.783 33.7373 183.811 34.6046 185.308 36.1464C186.804 37.6881 187.646 39.7785 187.648 41.9589V79.1835C187.646 81.3638 186.804 83.4542 185.308 84.996C183.811 86.5378 181.783 87.405 179.666 87.4075V87.4075ZM143.537 35.4662C141.866 35.4682 140.264 36.1528 139.083 37.37C137.901 38.5872 137.237 40.2375 137.235 41.9589V79.1835C137.237 80.9048 137.901 82.5551 139.083 83.7723C140.264 84.9895 141.866 85.6742 143.537 85.6761H179.666C181.337 85.6742 182.939 84.9895 184.12 83.7723C185.302 82.5551 185.966 80.9048 185.968 79.1835V41.9589C185.966 40.2375 185.302 38.5872 184.12 37.37C182.939 36.1528 181.337 35.4682 179.666 35.4662H143.537Z" fill="#CCCCCC"/>
<path fill-rule="evenodd" clip-rule="evenodd" d="M163.969 65.3069V48.5961L169.167 53.7943L171.4 51.5618L162.391 42.5525L153.381 51.5618L155.614 53.7943L160.812 48.5961V65.3069H163.969ZM176.598 71.6216V57.4141H173.441V71.6216H151.341V57.4141H148.183V71.6216C148.183 73.3653 149.597 74.7788 151.341 74.7788H173.441C175.185 74.7788 176.598 73.3653 176.598 71.6216Z" fill="black"/>
<path d="M94.1796 231.061H56.955C54.7746 231.058 52.6842 230.191 51.1425 228.649C49.6007 227.107 48.7334 225.017 48.731 222.837V185.612C48.7334 183.432 49.6007 181.341 51.1425 179.799C52.6842 178.258 54.7746 177.39 56.955 177.388H94.1796C96.3599 177.39 98.4503 178.258 99.9921 179.799C101.534 181.341 102.401 183.432 102.404 185.612V222.837C102.401 225.017 101.534 227.107 99.9921 228.649C98.4503 230.191 96.3599 231.058 94.1796 231.061V231.061ZM56.955 179.119C55.2336 179.121 53.5833 179.806 52.3661 181.023C51.1489 182.24 50.4642 183.891 50.4623 185.612V222.837C50.4642 224.558 51.1489 226.208 52.3661 227.425C53.5833 228.643 55.2336 229.327 56.955 229.329H94.1796C95.9009 229.327 97.5513 228.643 98.7685 227.425C99.9856 226.208 100.67 224.558 100.672 222.837V185.612C100.67 183.891 99.9856 182.24 98.7685 181.023C97.5513 179.806 95.9009 179.121 94.1796 179.119H56.955Z" fill="#CCCCCC"/>
<path fill-rule="evenodd" clip-rule="evenodd" d="M85.0392 186.86H66.0959C64.3523 186.86 62.9387 188.273 62.9387 190.017V218.432C62.9387 220.175 64.3523 221.589 66.0959 221.589H85.0392C86.7829 221.589 88.1964 220.175 88.1964 218.432V190.017C88.1964 188.273 86.7829 186.86 85.0392 186.86ZM66.0958 196.331V190.017H85.0391V196.331H66.0958ZM66.0958 199.489V218.432H85.0391V199.489H66.0958ZM72.4102 215.275H69.253V212.117H72.4102V215.275ZM73.9887 215.275H77.1459V212.117H73.9887V215.275ZM81.8817 215.275H78.7245V210.539V208.96V207.382H81.8817V208.96V210.539V215.275ZM69.253 210.539H72.4102V207.382H69.253V210.539ZM77.1459 210.539H73.9887V207.382H77.1459V210.539ZM72.4102 205.803H69.253V202.646H72.4102V205.803ZM73.9887 205.803H77.1459V202.646H73.9887V205.803ZM81.8817 205.803H78.7245V202.646H81.8817V205.803Z" fill="black"/>
<path d="M179.666 231.061H143.537C141.42 231.058 139.391 230.191 137.895 228.649C136.399 227.107 135.557 225.017 135.554 222.837V185.612C135.557 183.432 136.399 181.341 137.895 179.799C139.391 178.258 141.42 177.39 143.537 177.388H179.666C181.783 177.39 183.811 178.258 185.308 179.799C186.804 181.341 187.646 183.432 187.648 185.612V222.837C187.646 225.017 186.804 227.107 185.308 228.649C183.811 230.191 181.783 231.058 179.666 231.061V231.061ZM143.537 179.119C141.866 179.121 140.264 179.806 139.083 181.023C137.901 182.24 137.237 183.891 137.235 185.612V222.837C137.237 224.558 137.901 226.208 139.083 227.425C140.264 228.643 141.866 229.327 143.537 229.329H179.666C181.337 229.327 182.939 228.643 184.12 227.425C185.302 226.208 185.966 224.558 185.968 222.837V185.612C185.966 183.891 185.302 182.24 184.12 181.023C182.939 179.806 181.337 179.121 179.666 179.119H143.537Z" fill="#CCCCCC"/>
<path fill-rule="evenodd" clip-rule="evenodd" d="M148.183 190.017H176.598C178.342 190.017 179.755 191.431 179.755 193.174V215.275C179.755 217.018 178.342 218.432 176.598 218.432H148.183C146.44 218.432 145.026 217.018 145.026 215.275V193.174C145.026 191.431 146.44 190.017 148.183 190.017ZM148.183 200.464V215.275H176.598V200.465L162.391 207.569L148.183 200.464ZM148.183 196.934L162.391 204.039L176.598 196.935V193.174H148.183V196.934Z" fill="black"/>
<path d="M264.911 231.061H228.781C226.665 231.058 224.636 230.191 223.14 228.649C221.643 227.107 220.801 225.017 220.799 222.837V185.612C220.801 183.432 221.643 181.341 223.14 179.799C224.636 178.258 226.665 177.39 228.781 177.388H264.911C267.027 177.39 269.056 178.258 270.553 179.799C272.049 181.341 272.891 183.432 272.893 185.612V222.837C272.891 225.017 272.049 227.107 270.553 228.649C269.056 230.191 267.027 231.058 264.911 231.061V231.061ZM228.781 179.119C227.11 179.121 225.509 179.806 224.327 181.023C223.146 182.24 222.481 183.891 222.48 185.612V222.837C222.481 224.558 223.146 226.208 224.327 227.425C225.509 228.643 227.11 229.327 228.781 229.329H264.911C266.582 229.327 268.183 228.643 269.365 227.425C270.546 226.208 271.211 224.558 271.213 222.837V185.612C271.211 183.891 270.546 182.24 269.365 181.023C268.183 179.806 266.582 179.121 264.911 179.119H228.781Z" fill="#CCCCCC"/>
<path fill-rule="evenodd" clip-rule="evenodd" d="M262.171 197.52C263.838 198.447 263.838 200.531 262.171 201.457L260.031 202.646L262.171 203.835C263.838 204.761 263.838 206.845 262.171 207.771L260.031 208.96L262.171 210.149C263.838 211.075 263.838 213.159 262.171 214.086L249.461 221.147C248.399 221.736 246.871 221.736 245.809 221.147L233.1 214.086C231.432 213.159 231.432 211.075 233.1 210.149L235.24 208.96L233.1 207.771C231.432 206.845 231.432 204.761 233.1 203.835L235.24 202.646L233.1 201.457C231.432 200.531 231.432 198.447 233.1 197.52L245.809 190.459C246.871 189.87 248.399 189.87 249.461 190.459L262.171 197.52ZM249.461 208.518L256.78 204.452L259.213 205.803L256.78 207.154L256.78 207.154L253.53 208.96L253.53 208.96L247.928 212.072C247.82 212.132 247.451 212.132 247.343 212.072L241.741 208.96L241.741 208.96L238.49 207.154L238.49 207.154L236.058 205.803L238.49 204.452L245.809 208.518C246.871 209.108 248.399 209.108 249.461 208.518ZM238.49 210.766L236.058 212.117L247.343 218.387C247.451 218.447 247.82 218.447 247.928 218.387L259.213 212.117L256.78 210.766L249.461 214.832C248.399 215.422 246.871 215.422 245.809 214.832L238.49 210.766ZM247.343 193.219C247.451 193.159 247.82 193.159 247.928 193.219L259.213 199.489L247.928 205.758C247.82 205.818 247.451 205.818 247.343 205.758L236.058 199.489L247.343 193.219Z" fill="black"/>
<path fill-rule="evenodd" clip-rule="evenodd" d="M156.076 259.476H165.548C167.292 259.476 168.705 260.889 168.705 262.633V264.212H173.441C175.185 264.212 176.598 265.625 176.598 267.369V270.526C176.598 272.27 175.185 273.683 173.441 273.683H173.314L171.862 291.048C171.862 292.791 170.449 294.205 168.705 294.205H152.919C151.175 294.205 149.762 292.791 149.767 291.179L148.309 273.683H148.183C146.44 273.683 145.026 272.27 145.026 270.526V267.369C145.026 265.625 146.44 264.212 148.183 264.212H152.919V262.633C152.919 260.889 154.333 259.476 156.076 259.476ZM152.919 267.369V267.369H148.183V270.526H173.441V267.369H168.705V267.369H152.919ZM152.919 291.048L151.477 273.683H170.147L168.711 290.917L168.705 291.048H152.919ZM165.548 262.633V264.212H156.076V262.633H165.548Z" fill="black"/>
<path d="M178.088 303.677H141.958C139.842 303.674 137.813 302.807 136.316 301.265C134.82 299.724 133.978 297.633 133.976 295.453V258.228C133.978 256.048 134.82 253.957 136.316 252.416C137.813 250.874 139.842 250.007 141.958 250.004H178.088C180.204 250.007 182.233 250.874 183.729 252.416C185.226 253.957 186.067 256.048 186.07 258.228V295.453C186.067 297.633 185.226 299.724 183.729 301.265C182.233 302.807 180.204 303.674 178.088 303.677V303.677ZM141.958 251.736C140.287 251.737 138.685 252.422 137.504 253.639C136.323 254.856 135.658 256.507 135.656 258.228V295.453C135.658 297.174 136.323 298.824 137.504 300.042C138.685 301.259 140.287 301.943 141.958 301.945H178.088C179.758 301.943 181.36 301.259 182.542 300.042C183.723 298.824 184.388 297.174 184.389 295.453V258.228C184.388 256.507 183.723 254.856 182.542 253.639C181.36 252.422 179.758 251.737 178.088 251.736H141.958Z" fill="#CCCCCC"/>
<path d="M92.8428 303.677H56.7131C54.5968 303.674 52.568 302.807 51.0715 301.265C49.5751 299.724 48.7334 297.633 48.731 295.453V258.228C48.7334 256.048 49.5751 253.957 51.0715 252.416C52.568 250.874 54.5968 250.007 56.7131 250.004H92.8428C94.9591 250.007 96.988 250.874 98.4844 252.416C99.9808 253.957 100.823 256.048 100.825 258.228V295.453C100.823 297.633 99.9808 299.724 98.4844 301.265C96.988 302.807 94.9591 303.674 92.8428 303.677V303.677ZM56.7131 251.736C55.0424 251.737 53.4406 252.422 52.2592 253.639C51.0778 254.856 50.4133 256.507 50.4114 258.228V295.453C50.4133 297.174 51.0778 298.824 52.2592 300.042C53.4406 301.259 55.0424 301.943 56.7131 301.945H92.8428C94.5136 301.943 96.1153 301.259 97.2967 300.042C98.4781 298.824 99.1427 297.174 99.1445 295.453V258.228C99.1427 256.507 98.4781 254.856 97.2967 253.639C96.1153 252.422 94.5136 251.737 92.8428 251.736H56.7131Z" fill="#CCCCCC"/>
<path fill-rule="evenodd" clip-rule="evenodd" d="M61.3601 291.048C59.6164 291.048 58.2029 289.634 58.2029 287.891V265.79C58.2029 264.047 59.6164 262.633 61.3601 262.633H89.775C91.5187 262.633 92.9322 264.047 92.9322 265.79V287.891C92.9322 289.634 91.5187 291.048 89.775 291.048H61.3601ZM89.775 265.79H61.36V287.891H89.775V265.79ZM73.9888 268.947C72.853 268.947 71.8945 269.43 71.1226 270.191C71.0084 270.303 70.9041 270.416 70.809 270.526H69.8844C67.7668 270.526 66.0958 272.316 66.0958 274.472V280.787C66.0958 282.943 67.7668 284.733 69.8844 284.733H81.2504C83.3681 284.733 85.0391 282.943 85.0391 280.787V274.472C85.0391 272.316 83.3681 270.526 81.2504 270.526H80.3258C80.2308 270.416 80.1264 270.303 80.0123 270.191C79.2403 269.43 78.2819 268.947 77.146 268.947H73.9888ZM73.9888 272.105C73.7845 272.105 73.5678 272.214 73.3385 272.44C73.1686 272.607 73.0511 272.777 73.0158 272.844L72.571 273.683H69.8844C69.5609 273.683 69.253 274.013 69.253 274.473V280.787C69.253 281.247 69.5609 281.576 69.8844 281.576H81.2504C81.5738 281.576 81.8818 281.247 81.8818 280.787V274.473C81.8818 274.013 81.5738 273.683 81.2504 273.683H78.5638L78.119 272.844C78.0837 272.777 77.9662 272.607 77.7963 272.44C77.567 272.214 77.3503 272.105 77.146 272.105H73.9888ZM72.4101 276.841C72.4101 278.584 73.8237 279.998 75.5674 279.998C77.311 279.998 78.7246 278.584 78.7246 276.841C78.7246 275.097 77.311 273.683 75.5674 273.683C73.8237 273.683 72.4101 275.097 72.4101 276.841Z" fill="black"/>
<path d="M263.332 303.677H227.203C225.086 303.674 223.057 302.807 221.561 301.265C220.065 299.724 219.223 297.633 219.22 295.453V258.228C219.223 256.048 220.065 253.957 221.561 252.416C223.057 250.874 225.086 250.007 227.203 250.004H263.332C265.449 250.007 267.477 250.874 268.974 252.416C270.47 253.957 271.312 256.048 271.314 258.228V295.453C271.312 297.633 270.47 299.724 268.974 301.265C267.477 302.807 265.449 303.674 263.332 303.677V303.677ZM227.203 251.736C225.532 251.737 223.93 252.422 222.749 253.639C221.567 254.856 220.903 256.507 220.901 258.228V295.453C220.903 297.174 221.567 298.824 222.749 300.042C223.93 301.259 225.532 301.943 227.203 301.945H263.332C265.003 301.943 266.605 301.259 267.786 300.042C268.968 298.824 269.632 297.174 269.634 295.453V258.228C269.632 256.507 268.968 254.856 267.786 253.639C266.605 252.422 265.003 251.737 263.332 251.736H227.203Z" fill="#CCCCCC"/>
<path fill-rule="evenodd" clip-rule="evenodd" d="M242.9 259.476C241.174 259.476 239.771 260.885 239.743 262.633H257.107V286.179L260.264 287.784V262.686C260.264 260.913 258.851 259.476 257.107 259.476H242.9ZM242.9 288.077L231.849 293.602V268.947C231.849 267.204 233.263 265.79 235.007 265.79H250.793C252.536 265.79 253.95 267.204 253.95 268.947V293.602L242.9 288.077ZM235.006 288.494L242.899 284.547L250.793 288.494V268.947H235.006V288.494Z" fill="black"/>
<path d="M92.8428 374.714H56.7131C54.5968 374.711 52.568 373.844 51.0715 372.302C49.5751 370.761 48.7334 368.67 48.731 366.49V329.265C48.7334 327.085 49.5751 324.995 51.0715 323.453C52.568 321.911 54.5968 321.044 56.7131 321.041H92.8428C94.9591 321.044 96.988 321.911 98.4844 323.453C99.9808 324.995 100.823 327.085 100.825 329.265V366.49C100.823 368.67 99.9808 370.761 98.4844 372.302C96.988 373.844 94.9591 374.711 92.8428 374.714V374.714ZM56.7131 322.773C55.0424 322.775 53.4406 323.459 52.2592 324.676C51.0778 325.894 50.4133 327.544 50.4114 329.265V366.49C50.4133 368.211 51.0778 369.862 52.2592 371.079C53.4406 372.296 55.0424 372.981 56.7131 372.983H92.8428C94.5136 372.981 96.1153 372.296 97.2967 371.079C98.4781 369.862 99.1427 368.211 99.1445 366.49V329.265C99.1427 327.544 98.4781 325.894 97.2967 324.676C96.1153 323.459 94.5136 322.775 92.8428 322.773H56.7131Z" fill="#CCCCCC"/>
<path fill-rule="evenodd" clip-rule="evenodd" d="M72.4102 333.67H78.7247C80.4683 333.67 81.8819 335.084 81.8819 336.827V338.406H88.1964C89.9401 338.406 91.3536 339.819 91.3536 341.563V358.928C91.3536 360.671 89.9401 362.085 88.1964 362.085H62.9387C61.195 362.085 59.7815 360.671 59.7815 358.928V341.563C59.7815 339.819 61.195 338.406 62.9387 338.406H69.253V336.827C69.253 335.084 70.6666 333.67 72.4102 333.67ZM62.9386 358.928V352.613H73.9888V354.192H77.146V352.613H88.1963V358.928H62.9386ZM77.146 349.456H88.1963V341.563L81.8819 341.563H69.253L62.9386 341.563V349.456H73.9888H77.146ZM78.7246 336.827V338.406H72.4101V336.827H78.7246Z" fill="black"/>
<path d="M178.088 374.714H141.958C139.842 374.711 137.813 373.844 136.316 372.302C134.82 370.761 133.978 368.67 133.976 366.49V329.265C133.978 327.085 134.82 324.995 136.316 323.453C137.813 321.911 139.842 321.044 141.958 321.041H178.088C180.204 321.044 182.233 321.911 183.729 323.453C185.226 324.995 186.067 327.085 186.07 329.265V366.49C186.067 368.67 185.226 370.761 183.729 372.302C182.233 373.844 180.204 374.711 178.088 374.714V374.714ZM141.958 322.773C140.287 322.775 138.685 323.459 137.504 324.676C136.323 325.894 135.658 327.544 135.656 329.265V366.49C135.658 368.211 136.323 369.862 137.504 371.079C138.685 372.296 140.287 372.981 141.958 372.983H178.088C179.758 372.981 181.36 372.296 182.542 371.079C183.723 369.862 184.388 368.211 184.389 366.49V329.265C184.388 327.544 183.723 325.894 182.542 324.676C181.36 323.459 179.758 322.775 178.088 322.773H141.958Z" fill="#CCCCCC"/>
<path fill-rule="evenodd" clip-rule="evenodd" d="M170.284 330.513H151.341C149.597 330.513 148.183 331.926 148.183 333.67V362.085C148.183 363.829 149.597 365.242 151.341 365.242H170.284C172.028 365.242 173.441 363.829 173.441 362.085V333.67C173.441 331.926 172.028 330.513 170.284 330.513ZM151.34 339.984V333.67H170.284V339.984H151.34ZM151.34 343.142V362.085H170.284V343.142H151.34ZM157.655 358.928H154.498V355.77H157.655V358.928ZM159.233 358.928H162.391V355.77H159.233V358.928ZM167.127 358.928H163.969V354.192V352.613V351.035H167.127V352.613V354.192V358.928ZM154.498 354.192H157.655V351.035H154.498V354.192ZM162.391 354.192H159.233V351.035H162.391V354.192ZM157.655 349.456H154.498V346.299H157.655V349.456ZM159.233 349.456H162.391V346.299H159.233V349.456ZM167.127 349.456H163.969V346.299H167.127V349.456Z" fill="black"/>
<path d="M340.006 637.595C338.265 637.6 336.581 636.974 335.266 635.833C333.951 634.692 333.094 633.113 332.854 631.389L315.66 512.468C314.803 506.538 314.722 500.522 315.418 494.571L332.175 351.372L439.199 360.358L423.046 496.042L484.15 572.232C485.324 573.689 485.887 575.545 485.72 577.409C485.554 579.273 484.67 580.999 483.256 582.225L467.872 595.624C467.15 596.252 466.312 596.732 465.404 597.034C464.496 597.336 463.537 597.456 462.583 597.386C461.629 597.315 460.698 597.056 459.844 596.624C458.991 596.192 458.231 595.595 457.609 594.868L399.711 527.115C390.749 516.599 384.299 504.182 380.85 490.803L372.584 458.567C372.455 458.064 372.168 457.616 371.765 457.29C371.361 456.964 370.863 456.776 370.345 456.755C369.826 456.733 369.315 456.88 368.886 457.172C368.457 457.464 368.134 457.887 367.965 458.377L357.032 489.96L363.949 629.065C364.039 630.975 363.373 632.843 362.093 634.265C360.814 635.686 359.026 636.545 357.117 636.656L340.423 637.583C340.283 637.591 340.144 637.595 340.006 637.595Z" fill="#2F2E41"/>
<path d="M399.479 157.868C421.31 157.868 439.008 140.17 439.008 118.338C439.008 96.5069 421.31 78.8091 399.479 78.8091C377.648 78.8091 359.95 96.5069 359.95 118.338C359.95 140.17 377.648 157.868 399.479 157.868Z" fill="#A0616A"/>
<path d="M169.882 164.297C170.832 166.464 172.246 168.396 174.023 169.957C175.801 171.519 177.899 172.671 180.171 173.334C182.442 173.997 184.831 174.153 187.169 173.793C189.508 173.433 191.739 172.564 193.705 171.248L245.534 202.647L241.506 176.092L197.636 147.742C195.207 144.585 191.704 142.429 187.791 141.683C183.878 140.936 179.827 141.651 176.406 143.692C172.985 145.732 170.431 148.957 169.229 152.755C168.026 156.552 168.259 160.659 169.882 164.297V164.297Z" fill="#A0616A"/>
<path d="M397.643 378.705C376.648 378.706 354.8 372.192 332.705 359.344C331.064 358.392 329.813 356.89 329.173 355.103C328.534 353.316 328.547 351.361 329.212 349.583L349.762 294.208L345.088 228.961C343.498 206.766 354.563 185.698 373.277 175.288C379.99 171.521 387.471 169.328 395.155 168.873C402.839 168.418 410.526 169.713 417.636 172.662C425.262 175.873 432.06 180.773 437.517 186.992C442.974 193.212 446.949 200.589 449.142 208.568L455.738 231.52C463.74 259.592 462.819 289.457 453.103 316.983L433.991 370.643L433.495 370.94C433.365 371.018 420.25 378.703 397.643 378.705Z" fill="#CCCCCC"/>
<path d="M197.319 182.718C196.427 181.376 195.958 179.798 195.973 178.187C195.988 176.576 196.487 175.007 197.405 173.683L207.42 159.217C208.537 157.609 210.201 156.462 212.102 155.992C214.003 155.521 216.01 155.758 217.748 156.659L292.025 195.286L373.978 187.071C379.138 186.58 384.311 187.854 388.653 190.683C392.995 193.513 396.25 197.732 397.884 202.65C398.995 206.049 399.289 209.661 398.742 213.195C398.196 216.728 396.825 220.084 394.741 222.988C392.656 225.893 389.917 228.266 386.744 229.915C383.571 231.564 380.055 232.442 376.479 232.478L300.056 233.254C292.012 233.331 284.082 231.342 277.026 227.478L200.151 185.32C199.011 184.693 198.04 183.8 197.319 182.718V182.718Z" fill="#CCCCCC"/>
<path d="M433.544 414.084C435.403 412.62 436.918 410.766 437.983 408.653C439.048 406.541 439.636 404.22 439.707 401.855C439.778 399.49 439.33 397.138 438.394 394.965C437.458 392.793 436.056 390.851 434.289 389.279L453.591 336.144L426.973 341.793L410.549 391.377C408.104 394.521 406.897 398.454 407.157 402.429C407.417 406.404 409.126 410.145 411.961 412.944C414.795 415.743 418.558 417.405 422.536 417.615C426.514 417.825 430.43 416.569 433.544 414.084V414.084Z" fill="#A0616A"/>
<path d="M440.629 383.179C439.685 383.18 438.749 383.013 437.864 382.687L421.346 376.626C419.509 375.949 417.981 374.626 417.048 372.904C416.114 371.183 415.84 369.18 416.275 367.271L435.01 285.674L406.475 208.411C404.703 203.541 404.635 198.213 406.284 193.299C407.933 188.385 411.199 184.176 415.551 181.359C418.562 179.431 421.985 178.239 425.542 177.88C429.099 177.521 432.691 178.006 436.027 179.294C439.362 180.582 442.347 182.638 444.74 185.295C447.133 187.952 448.866 191.135 449.799 194.587L469.743 268.365C471.838 276.132 471.905 284.307 469.937 292.107L448.438 377.106C447.999 378.843 446.994 380.383 445.58 381.483C444.167 382.583 442.427 383.18 440.636 383.179H440.629V383.179Z" fill="#CCCCCC"/>
<path d="M402.09 146.231C404.094 137.914 405.085 133.244 407.07 124.922C408.4 119.348 404.387 113.641 399.352 111.036C394.317 108.432 388.481 108.132 382.855 107.581C377.23 107.03 371.329 106.046 366.944 102.428C361.058 97.5693 359.375 88.5198 362.269 81.4028C363.824 77.9042 366.196 74.8302 369.186 72.4393C372.177 70.0485 375.697 68.4106 379.452 67.6636C386.989 66.285 394.771 67.4831 401.544 71.065C404.198 64.8307 411.887 62.1202 418.493 63.2078C425.099 64.2953 430.836 68.3053 436.205 72.3587C446.19 79.8965 456.435 89.0344 458.651 101.461C460.791 113.461 454.704 125.572 446.562 134.542C435.453 146.743 420.547 154.832 404.263 157.497C403.178 155.854 402.428 154.014 402.055 152.081C401.682 150.148 401.694 148.16 402.09 146.231V146.231Z" fill="black"/>
<path d="M651.701 192.002C651.701 190.925 650.84 190.052 649.783 190.052C648.723 190.052 647.862 190.925 647.862 192.002V196.104C647.862 197.187 648.723 198.06 649.783 198.06C650.84 198.06 651.701 197.187 651.701 196.104V192.002ZM641.147 186.618C641.147 185.541 640.288 184.667 639.204 184.667C638.144 184.667 637.285 185.541 637.285 186.618V196.104C637.285 197.187 638.144 198.06 639.204 198.06C640.288 198.06 641.147 197.187 641.147 196.104V186.618V186.618ZM630.571 179.252C630.571 178.175 629.712 177.302 628.652 177.302C627.592 177.302 626.734 178.175 626.734 179.252V200.002C626.734 201.085 627.592 201.958 628.652 201.958C629.712 201.958 630.571 201.085 630.571 200.002V179.252ZM619.992 186.618C619.992 185.541 619.134 184.667 618.074 184.667C617.016 184.667 616.155 185.541 616.155 186.618V196.104C616.155 197.187 617.016 198.06 618.074 198.06C619.134 198.06 619.992 197.187 619.992 196.104V186.618V186.618ZM609.416 192.002C609.416 190.925 608.558 190.052 607.504 190.052C606.444 190.052 605.579 190.925 605.579 192.002V196.104C605.579 197.187 606.444 198.06 607.504 198.06C608.558 198.06 609.416 197.187 609.416 196.104V192.002ZM598.857 186.618C598.857 185.541 597.992 184.667 596.933 184.667C595.873 184.667 595.008 185.541 595.008 186.618V196.104C595.008 197.187 595.873 198.06 596.933 198.06C597.992 198.06 598.857 197.187 598.857 196.104V186.618V186.618ZM588.286 179.252C588.286 178.175 587.421 177.302 586.361 177.302C585.302 177.302 584.437 178.175 584.437 179.252V200.002C584.437 201.085 585.302 201.958 586.361 201.958C587.421 201.958 588.286 201.085 588.286 200.002V179.252ZM577.715 186.618C577.715 185.541 576.85 184.667 575.79 184.667C574.73 184.667 573.866 185.541 573.866 186.618V196.104C573.866 197.187 574.73 198.06 575.79 198.06C576.85 198.06 577.715 197.187 577.715 196.104V186.618ZM567.143 192.002C567.143 190.925 566.279 190.052 565.219 190.052C564.16 190.052 563.294 190.925 563.294 192.002V196.104C563.294 197.187 564.16 198.06 565.219 198.06C566.279 198.06 567.143 197.187 567.143 196.104V192.002ZM606.876 209.011C606.76 208.979 604.984 208.513 603.097 208.513C599.524 208.513 597.373 210.475 597.373 213.398C597.373 215.985 599.172 217.275 601.332 217.969C601.572 218.05 601.924 218.162 602.159 218.241C603.121 218.549 603.888 219.006 603.888 219.798C603.888 220.683 603.001 221.256 601.073 221.256C599.379 221.256 597.754 220.764 597.412 220.676V224.272C597.603 224.313 599.533 224.698 601.596 224.698C604.562 224.698 607.956 223.38 607.956 219.455C607.956 217.551 606.81 215.798 604.294 214.985L603.224 214.638C602.586 214.433 601.447 214.102 601.447 213.15C601.447 212.399 602.291 211.87 603.845 211.87C605.186 211.87 606.818 212.328 606.876 212.346V209.011V209.011ZM639.636 216.606C639.636 218.879 637.924 220.719 635.626 220.719C633.326 220.719 631.619 218.879 631.619 216.606C631.619 214.337 633.326 212.497 635.626 212.497C637.924 212.497 639.636 214.337 639.636 216.606V216.606ZM635.626 208.518C630.901 208.518 627.513 212.143 627.513 216.606C627.513 221.076 630.901 224.698 635.626 224.698C640.351 224.698 643.744 221.076 643.744 216.606C643.744 212.143 640.351 208.518 635.626 208.518V208.518ZM582.969 209.078C582.605 208.968 581.258 208.518 579.434 208.518C574.717 208.518 571.254 211.939 571.254 216.606C571.254 221.64 575.077 224.698 579.434 224.698C581.166 224.698 582.487 224.281 582.969 224.142V219.948C582.802 220.042 581.535 220.777 579.712 220.777C577.13 220.777 575.464 218.928 575.464 216.606C575.464 214.213 577.202 212.438 579.712 212.438C581.566 212.438 582.813 213.189 582.969 213.272V209.078V209.078ZM623.431 209.078C623.064 208.968 621.717 208.518 619.899 208.518C615.174 208.518 611.711 211.939 611.711 216.606C611.711 221.64 615.539 224.698 619.899 224.698C621.621 224.698 622.944 224.281 623.431 224.142V219.948C623.261 220.042 621.992 220.777 620.17 220.777C617.589 220.777 615.925 218.928 615.925 216.606C615.925 214.213 617.664 212.438 620.17 212.438C622.023 212.438 623.273 213.189 623.431 213.272V209.078V209.078ZM592.174 224.42H588.298V208.795H592.174V224.42Z" fill="#00BCEB"/>
</g>
<defs>
<clipPath id="clip0">
<rect width="724" height="413" fill="white"/>
</clipPath>
</defs>
</svg>
