<svg width="1146" height="241" viewBox="0 0 1146 241" fill="none" xmlns="http://www.w3.org/2000/svg">
<rect x="71.3122" y="37.3122" width="183.431" height="87.8619" rx="43.9309" fill="#DBDDE0" stroke="#B63838" stroke-width="4.62431"/>
<path d="M114.001 77.8732H116.747V66.0041H114.001V77.8732ZM125.205 68.6153C123.967 68.6153 122.899 69.0392 122.187 69.8192V68.7509H119.66V77.8732H122.305V73.3629C122.305 71.6843 123.221 70.9043 124.493 70.9043C125.663 70.9043 126.341 71.5826 126.341 73.0577V77.8732H128.986V72.6508C128.986 69.87 127.358 68.6153 125.205 68.6153ZM138.012 68.7509L135.401 74.9568L132.874 68.7509H130.144L133.976 77.8732H136.706L140.555 68.7509H138.012ZM150.604 73.346C150.604 70.4126 148.536 68.6153 145.857 68.6153C143.076 68.6153 140.99 70.5822 140.99 73.3121C140.99 76.025 143.042 78.0088 146.196 78.0088C147.841 78.0088 149.112 77.5001 149.96 76.5337L148.553 75.0076C147.925 75.6011 147.23 75.8893 146.264 75.8893C144.873 75.8893 143.907 75.1942 143.652 74.0581H150.553C150.57 73.8377 150.604 73.5494 150.604 73.346ZM145.874 70.6161C147.061 70.6161 147.925 71.3621 148.112 72.5151H143.619C143.805 71.3452 144.67 70.6161 145.874 70.6161ZM155.717 78.0088C158.447 78.0088 160.024 76.805 160.024 75.1094C160.024 71.5147 154.513 73.0238 154.513 71.4639C154.513 70.9891 155.022 70.6161 156.209 70.6161C157.04 70.6161 157.938 70.7856 158.837 71.2943L159.719 69.4122C158.854 68.9035 157.463 68.6153 156.209 68.6153C153.547 68.6153 151.987 69.8361 151.987 71.5656C151.987 75.2111 157.497 73.6851 157.497 75.1772C157.497 75.6859 157.04 76.008 155.819 76.008C154.7 76.008 153.462 75.652 152.648 75.1263L151.766 77.0254C152.614 77.5849 154.174 78.0088 155.717 78.0088ZM167.11 75.5672C166.822 75.7876 166.432 75.9063 166.042 75.9063C165.33 75.9063 164.906 75.4824 164.906 74.7024V70.9891H167.178V68.9544H164.906V66.7332H162.261V68.9544H160.853V70.9891H162.261V74.7363C162.261 76.9067 163.515 78.0088 165.669 78.0088C166.482 78.0088 167.279 77.8223 167.822 77.4323L167.11 75.5672ZM170.912 67.4793C171.895 67.4793 172.557 66.8349 172.557 65.9532C172.557 65.1394 171.895 64.529 170.912 64.529C169.929 64.529 169.267 65.1733 169.267 66.0041C169.267 66.8349 169.929 67.4793 170.912 67.4793ZM169.589 77.8732H172.235V68.7509H169.589V77.8732ZM181.873 68.7509V69.9209C181.178 69.0392 180.127 68.6153 178.855 68.6153C176.328 68.6153 174.294 70.3617 174.294 73.0238C174.294 75.6859 176.328 77.4323 178.855 77.4323C180.042 77.4323 181.042 77.0593 181.737 76.2963V76.6863C181.737 78.331 180.923 79.1788 179.058 79.1788C177.888 79.1788 176.617 78.7718 175.837 78.1445L174.785 80.0435C175.854 80.8743 177.532 81.2982 179.262 81.2982C182.551 81.2982 184.382 79.7383 184.382 76.3471V68.7509H181.873ZM179.381 75.262C177.99 75.262 176.973 74.3633 176.973 73.0238C176.973 71.6843 177.99 70.7856 179.381 70.7856C180.771 70.7856 181.771 71.6843 181.771 73.0238C181.771 74.3633 180.771 75.262 179.381 75.262ZM190.806 68.6153C189.348 68.6153 187.873 69.0053 186.873 69.7174L187.822 71.5656C188.483 71.04 189.484 70.7178 190.45 70.7178C191.875 70.7178 192.553 71.3791 192.553 72.5151H190.45C187.67 72.5151 186.534 73.6342 186.534 75.245C186.534 76.8219 187.805 78.0088 189.942 78.0088C191.281 78.0088 192.231 77.568 192.722 76.7371V77.8732H195.198V72.6677C195.198 69.9039 193.587 68.6153 190.806 68.6153ZM190.603 76.2285C189.67 76.2285 189.111 75.7876 189.111 75.1263C189.111 74.5159 189.501 74.0581 190.739 74.0581H192.553V74.9907C192.248 75.8215 191.485 76.2285 190.603 76.2285ZM203.046 75.5672C202.758 75.7876 202.368 75.9063 201.978 75.9063C201.266 75.9063 200.842 75.4824 200.842 74.7024V70.9891H203.114V68.9544H200.842V66.7332H198.197V68.9544H196.789V70.9891H198.197V74.7363C198.197 76.9067 199.451 78.0088 201.605 78.0088C202.419 78.0088 203.216 77.8223 203.758 77.4323L203.046 75.5672ZM214.18 73.346C214.18 70.4126 212.111 68.6153 209.432 68.6153C206.651 68.6153 204.566 70.5822 204.566 73.3121C204.566 76.025 206.617 78.0088 209.771 78.0088C211.416 78.0088 212.688 77.5001 213.535 76.5337L212.128 75.0076C211.501 75.6011 210.806 75.8893 209.839 75.8893C208.449 75.8893 207.482 75.1942 207.228 74.0581H214.129C214.146 73.8377 214.18 73.5494 214.18 73.346ZM209.449 70.6161C210.636 70.6161 211.501 71.3621 211.687 72.5151H207.194C207.381 71.3452 208.245 70.6161 209.449 70.6161ZM131.728 97.8732H134.611L129.304 86.0041H126.591L121.301 97.8732H124.115L125.166 95.3298H130.677L131.728 97.8732ZM126.048 93.2442L127.93 88.7001L129.812 93.2442H126.048ZM141.483 88.6153C140.245 88.6153 139.177 89.0392 138.465 89.8192V88.7509H135.938V97.8732H138.583V93.3629C138.583 91.6843 139.499 90.9043 140.771 90.9043C141.941 90.9043 142.619 91.5826 142.619 93.0577V97.8732H145.264V92.6508C145.264 89.87 143.636 88.6153 141.483 88.6153ZM151.624 88.6153C150.165 88.6153 148.69 89.0053 147.69 89.7174L148.639 91.5656C149.301 91.04 150.301 90.7178 151.268 90.7178C152.692 90.7178 153.37 91.3791 153.37 92.5151H151.268C148.487 92.5151 147.351 93.6342 147.351 95.245C147.351 96.8219 148.623 98.0088 150.759 98.0088C152.098 98.0088 153.048 97.568 153.54 96.7371V97.8732H156.015V92.6677C156.015 89.9039 154.404 88.6153 151.624 88.6153ZM151.42 96.2285C150.488 96.2285 149.928 95.7876 149.928 95.1263C149.928 94.5159 150.318 94.0581 151.556 94.0581H153.37V94.9907C153.065 95.8215 152.302 96.2285 151.42 96.2285ZM158.692 97.8732H161.337V85.292H158.692V97.8732ZM170.585 88.7509L168.008 94.9398L165.448 88.7509H162.718L166.669 97.941L166.635 98.0258C166.279 98.8396 165.872 99.1618 165.143 99.1618C164.617 99.1618 164.057 98.9414 163.65 98.5853L162.684 100.467C163.277 100.993 164.295 101.298 165.227 101.298C166.872 101.298 168.127 100.637 169.009 98.4327L173.129 88.7509H170.585ZM179.911 95.5672C179.622 95.7876 179.232 95.9063 178.842 95.9063C178.13 95.9063 177.706 95.4824 177.706 94.7024V90.9891H179.978V88.9544H177.706V86.7332H175.061V88.9544H173.654V90.9891H175.061V94.7363C175.061 96.9067 176.316 98.0088 178.469 98.0088C179.283 98.0088 180.08 97.8223 180.623 97.4323L179.911 95.5672ZM183.713 87.4793C184.696 87.4793 185.357 86.8349 185.357 85.9532C185.357 85.1394 184.696 84.529 183.713 84.529C182.729 84.529 182.068 85.1733 182.068 86.0041C182.068 86.8349 182.729 87.4793 183.713 87.4793ZM182.39 97.8732H185.035V88.7509H182.39V97.8732ZM192.181 98.0088C194.097 98.0088 195.606 97.161 196.268 95.7028L194.216 94.5837C193.724 95.4654 192.995 95.8385 192.164 95.8385C190.825 95.8385 189.774 94.9059 189.774 93.3121C189.774 91.7182 190.825 90.7856 192.164 90.7856C192.995 90.7856 193.724 91.1756 194.216 92.0404L196.268 90.9382C195.606 89.4461 194.097 88.6153 192.181 88.6153C189.214 88.6153 187.095 90.5652 187.095 93.3121C187.095 96.0589 189.214 98.0088 192.181 98.0088ZM201.142 98.0088C203.872 98.0088 205.449 96.805 205.449 95.1094C205.449 91.5147 199.938 93.0238 199.938 91.4639C199.938 90.9891 200.447 90.6161 201.634 90.6161C202.465 90.6161 203.363 90.7856 204.262 91.2943L205.144 89.4122C204.279 88.9035 202.889 88.6153 201.634 88.6153C198.972 88.6153 197.412 89.8361 197.412 91.5656C197.412 95.2111 202.923 93.6851 202.923 95.1772C202.923 95.6859 202.465 96.008 201.244 96.008C200.125 96.008 198.887 95.652 198.073 95.1263L197.191 97.0254C198.039 97.5849 199.599 98.0088 201.142 98.0088Z" fill="#B63838"/>
<rect x="890.312" y="38.3122" width="184.972" height="87.8619" rx="43.9309" fill="#DBDDE0" stroke="#B63838" stroke-width="4.62431"/>
<path d="M948.031 68.9559H953.423C957.306 68.9559 959.968 66.616 959.968 63.0214C959.968 59.4268 957.306 57.0869 953.423 57.0869H948.031V68.9559ZM950.778 66.7008V59.342H953.287C955.644 59.342 957.187 60.7493 957.187 63.0214C957.187 65.2935 955.644 66.7008 953.287 66.7008H950.778ZM971.071 64.4287C971.071 61.4954 969.002 59.6981 966.323 59.6981C963.543 59.6981 961.457 61.6649 961.457 64.3948C961.457 67.1078 963.509 69.0916 966.662 69.0916C968.307 69.0916 969.579 68.5829 970.427 67.6164L969.019 66.0904C968.392 66.6839 967.697 66.9721 966.73 66.9721C965.34 66.9721 964.373 66.2769 964.119 65.1409H971.02C971.037 64.9205 971.071 64.6322 971.071 64.4287ZM966.34 61.6988C967.527 61.6988 968.392 62.4449 968.578 63.5979H964.085C964.272 62.4279 965.136 61.6988 966.34 61.6988ZM973.115 68.9559H975.76V56.3747H973.115V68.9559ZM979.82 58.562C980.803 58.562 981.464 57.9177 981.464 57.036C981.464 56.2221 980.803 55.6117 979.82 55.6117C978.836 55.6117 978.175 56.256 978.175 57.0869C978.175 57.9177 978.836 58.562 979.82 58.562ZM978.497 68.9559H981.142V59.8337H978.497V68.9559ZM990.391 59.8337L987.78 66.0395L985.253 59.8337H982.523L986.355 68.9559H989.085L992.934 59.8337H990.391ZM1002.98 64.4287C1002.98 61.4954 1000.91 59.6981 998.236 59.6981C995.455 59.6981 993.369 61.6649 993.369 64.3948C993.369 67.1078 995.421 69.0916 998.575 69.0916C1000.22 69.0916 1001.49 68.5829 1002.34 67.6164L1000.93 66.0904C1000.3 66.6839 999.609 66.9721 998.643 66.9721C997.252 66.9721 996.286 66.2769 996.031 65.1409H1002.93C1002.95 64.9205 1002.98 64.6322 1002.98 64.4287ZM998.253 61.6988C999.44 61.6988 1000.3 62.4449 1000.49 63.5979H995.998C996.184 62.4279 997.049 61.6988 998.253 61.6988ZM1007.55 61.0376V59.8337H1005.03V68.9559H1007.67V64.6492C1007.67 62.9027 1008.64 62.1058 1010.1 62.1058C1010.3 62.1058 1010.47 62.1227 1010.69 62.1397V59.6981C1009.28 59.6981 1008.2 60.1559 1007.55 61.0376ZM1019.37 59.8337L1016.79 66.0226L1014.23 59.8337H1011.5L1015.45 69.0238L1015.42 69.1085C1015.06 69.9224 1014.66 70.2446 1013.93 70.2446C1013.4 70.2446 1012.84 70.0241 1012.44 69.6681L1011.47 71.5502C1012.06 72.0758 1013.08 72.381 1014.01 72.381C1015.66 72.381 1016.91 71.7197 1017.79 69.5155L1021.91 59.8337H1019.37ZM990.001 87.4808L988.611 86.1921C989.119 85.4291 989.475 84.5135 989.696 83.4962L987.576 82.8349C987.441 83.5301 987.237 84.1574 986.983 84.6831L984.813 82.6653C986.423 81.7836 987.136 80.885 987.136 79.6642C987.136 77.9855 985.779 76.9343 983.727 76.9343C981.489 76.9343 980.031 78.1212 980.031 79.8507C980.031 80.6985 980.387 81.4615 981.252 82.3601C979.438 83.3775 978.641 84.4118 978.641 85.9039C978.641 87.8029 980.557 89.1594 983.168 89.1594C984.694 89.1594 986.05 88.6846 987.136 87.8368L988.56 89.1594L990.001 87.4808ZM983.727 78.7316C984.49 78.7316 984.897 79.1385 984.897 79.715C984.897 80.2576 984.524 80.6985 983.354 81.3258C982.625 80.6137 982.439 80.2746 982.439 79.8168C982.439 79.1894 982.914 78.7316 983.727 78.7316ZM983.354 87.0908C982.049 87.0908 981.235 86.4804 981.235 85.6156C981.235 84.8865 981.625 84.344 982.71 83.7166L985.576 86.3956C984.931 86.8534 984.168 87.0908 983.354 87.0908ZM940.013 106.752V104.005H945.524V101.868H940.013V99.2911H946.253V97.0869H937.283V108.956H946.473V106.752H940.013ZM955.183 99.8337L952.572 106.04L950.046 99.8337H947.316L951.148 108.956H953.878L957.727 99.8337H955.183ZM962.47 99.6981C961.012 99.6981 959.536 100.088 958.536 100.8L959.486 102.648C960.147 102.123 961.147 101.801 962.114 101.801C963.538 101.801 964.216 102.462 964.216 103.598H962.114C959.333 103.598 958.197 104.717 958.197 106.328C958.197 107.905 959.469 109.092 961.605 109.092C962.945 109.092 963.894 108.651 964.386 107.82V108.956H966.861V103.751C966.861 100.987 965.251 99.6981 962.47 99.6981ZM962.266 107.311C961.334 107.311 960.774 106.87 960.774 106.209C960.774 105.599 961.164 105.141 962.402 105.141H964.216V106.073C963.911 106.904 963.148 107.311 962.266 107.311ZM969.538 108.956H972.183V96.3747H969.538V108.956ZM981.465 99.8337V104.344C981.465 106.023 980.584 106.803 979.363 106.803C978.193 106.803 977.515 106.124 977.515 104.598V99.8337H974.87V104.988C974.87 107.803 976.48 109.092 978.769 109.092C979.889 109.092 980.906 108.668 981.601 107.871V108.956H984.111V99.8337H981.465ZM990.523 99.6981C989.065 99.6981 987.59 100.088 986.589 100.8L987.539 102.648C988.2 102.123 989.2 101.801 990.167 101.801C991.591 101.801 992.269 102.462 992.269 103.598H990.167C987.386 103.598 986.25 104.717 986.25 106.328C986.25 107.905 987.522 109.092 989.658 109.092C990.998 109.092 991.947 108.651 992.439 107.82V108.956H994.915V103.751C994.915 100.987 993.304 99.6981 990.523 99.6981ZM990.32 107.311C989.387 107.311 988.827 106.87 988.827 106.209C988.827 105.599 989.217 105.141 990.455 105.141H992.269V106.073C991.964 106.904 991.201 107.311 990.32 107.311ZM1002.76 106.65C1002.47 106.87 1002.08 106.989 1001.69 106.989C1000.98 106.989 1000.56 106.565 1000.56 105.785V102.072H1002.83V100.037H1000.56V97.816H997.913V100.037H996.506V102.072H997.913V105.819C997.913 107.989 999.168 109.092 1001.32 109.092C1002.14 109.092 1002.93 108.905 1003.47 108.515L1002.76 106.65ZM1006.56 98.562C1007.55 98.562 1008.21 97.9177 1008.21 97.036C1008.21 96.2221 1007.55 95.6117 1006.56 95.6117C1005.58 95.6117 1004.92 96.256 1004.92 97.0869C1004.92 97.9177 1005.58 98.562 1006.56 98.562ZM1005.24 108.956H1007.89V99.8337H1005.24V108.956ZM1014.97 109.092C1017.86 109.092 1019.97 107.142 1019.97 104.395C1019.97 101.648 1017.86 99.6981 1014.97 99.6981C1012.07 99.6981 1009.95 101.648 1009.95 104.395C1009.95 107.142 1012.07 109.092 1014.97 109.092ZM1014.97 106.921C1013.64 106.921 1012.63 105.972 1012.63 104.395C1012.63 102.818 1013.64 101.868 1014.97 101.868C1016.29 101.868 1017.29 102.818 1017.29 104.395C1017.29 105.972 1016.29 106.921 1014.97 106.921ZM1027.56 99.6981C1026.32 99.6981 1025.26 100.122 1024.54 100.902V99.8337H1022.02V108.956H1024.66V104.446C1024.66 102.767 1025.58 101.987 1026.85 101.987C1028.02 101.987 1028.7 102.665 1028.7 104.14V108.956H1031.34V103.734C1031.34 100.953 1029.72 99.6981 1027.56 99.6981Z" fill="#B63838"/>
<rect x="330.483" y="37.5995" width="228.133" height="87.8619" rx="43.9309" fill="#DBDDE0" stroke="#B63838" stroke-width="4.62431" stroke-dasharray="7.71 7.71"/>
<path d="M397.035 56.3742H391.897V68.2433H394.644V64.9708H397.035C400.206 64.9708 402.189 63.3261 402.189 60.681C402.189 58.0189 400.206 56.3742 397.035 56.3742ZM396.882 62.7327H394.644V58.6124H396.882C398.561 58.6124 399.409 59.3754 399.409 60.681C399.409 61.9696 398.561 62.7327 396.882 62.7327ZM406.773 60.3249V59.1211H404.247V68.2433H406.892V63.9365C406.892 62.1901 407.858 61.3931 409.316 61.3931C409.52 61.3931 409.689 61.4101 409.91 61.4271V58.9854C408.502 58.9854 407.417 59.4432 406.773 60.3249ZM416.023 68.3789C418.922 68.3789 421.025 66.429 421.025 63.6822C421.025 60.9353 418.922 58.9854 416.023 58.9854C413.124 58.9854 411.004 60.9353 411.004 63.6822C411.004 66.429 413.124 68.3789 416.023 68.3789ZM416.023 66.2086C414.7 66.2086 413.683 65.2591 413.683 63.6822C413.683 62.1053 414.7 61.1558 416.023 61.1558C417.346 61.1558 418.346 62.1053 418.346 63.6822C418.346 65.2591 417.346 66.2086 416.023 66.2086ZM428.247 65.9373C427.959 66.1577 427.569 66.2764 427.179 66.2764C426.467 66.2764 426.043 65.8525 426.043 65.0726V61.3592H428.315V59.3245H426.043V57.1033H423.398V59.3245H421.99V61.3592H423.398V65.1065C423.398 67.2768 424.653 68.3789 426.806 68.3789C427.62 68.3789 428.417 68.1924 428.959 67.8024L428.247 65.9373ZM434.786 68.3789C437.685 68.3789 439.788 66.429 439.788 63.6822C439.788 60.9353 437.685 58.9854 434.786 58.9854C431.886 58.9854 429.767 60.9353 429.767 63.6822C429.767 66.429 431.886 68.3789 434.786 68.3789ZM434.786 66.2086C433.463 66.2086 432.446 65.2591 432.446 63.6822C432.446 62.1053 433.463 61.1558 434.786 61.1558C436.108 61.1558 437.109 62.1053 437.109 63.6822C437.109 65.2591 436.108 66.2086 434.786 66.2086ZM447.01 65.9373C446.722 66.1577 446.332 66.2764 445.942 66.2764C445.23 66.2764 444.806 65.8525 444.806 65.0726V61.3592H447.078V59.3245H444.806V57.1033H442.161V59.3245H440.753V61.3592H442.161V65.1065C442.161 67.2768 443.415 68.3789 445.569 68.3789C446.383 68.3789 447.18 68.1924 447.722 67.8024L447.01 65.9373ZM455.835 59.1211L453.258 65.3099L450.697 59.1211H447.968L451.918 68.3111L451.884 68.3959C451.528 69.2098 451.121 69.5319 450.392 69.5319C449.867 69.5319 449.307 69.3115 448.9 68.9554L447.934 70.8375C448.527 71.3632 449.544 71.6684 450.477 71.6684C452.122 71.6684 453.376 71.0071 454.258 68.8028L458.378 59.1211H455.835ZM465.132 58.9854C463.911 58.9854 462.928 59.3754 462.267 60.1723V59.1211H459.74V71.5327H462.385V67.2768C463.064 68.0229 463.996 68.3789 465.132 68.3789C467.693 68.3789 469.676 66.5477 469.676 63.6822C469.676 60.8166 467.693 58.9854 465.132 58.9854ZM464.674 66.2086C463.352 66.2086 462.352 65.2591 462.352 63.6822C462.352 62.1053 463.352 61.1558 464.674 61.1558C465.997 61.1558 466.997 62.1053 466.997 63.6822C466.997 65.2591 465.997 66.2086 464.674 66.2086ZM473.052 57.8494C474.036 57.8494 474.697 57.2051 474.697 56.3234C474.697 55.5095 474.036 54.8991 473.052 54.8991C472.069 54.8991 471.408 55.5434 471.408 56.3742C471.408 57.2051 472.069 57.8494 473.052 57.8494ZM471.73 68.2433H474.375V59.1211H471.73V68.2433ZM482.657 58.9854C481.419 58.9854 480.351 59.4093 479.639 60.1893V59.1211H477.112V68.2433H479.757V63.733C479.757 62.0544 480.673 61.2745 481.945 61.2745C483.115 61.2745 483.793 61.9527 483.793 63.4278V68.2433H486.438V63.0209C486.438 60.2401 484.81 58.9854 482.657 58.9854ZM496.119 59.1211V60.291C495.423 59.4093 494.372 58.9854 493.1 58.9854C490.574 58.9854 488.539 60.7319 488.539 63.3939C488.539 66.056 490.574 67.8024 493.1 67.8024C494.287 67.8024 495.288 67.4294 495.983 66.6664V67.0564C495.983 68.7011 495.169 69.5489 493.304 69.5489C492.134 69.5489 490.862 69.1419 490.082 68.5146L489.031 70.4136C490.099 71.2445 491.778 71.6684 493.507 71.6684C496.797 71.6684 498.628 70.1084 498.628 66.7173V59.1211H496.119ZM493.626 65.6321C492.236 65.6321 491.218 64.7334 491.218 63.3939C491.218 62.0544 492.236 61.1558 493.626 61.1558C495.016 61.1558 496.017 62.0544 496.017 63.3939C496.017 64.7334 495.016 65.6321 493.626 65.6321ZM450.982 86.7681L449.592 85.4795C450.101 84.7165 450.457 83.8009 450.677 82.7835L448.558 82.1222C448.422 82.8174 448.219 83.4448 447.964 83.9704L445.794 81.9527C447.405 81.071 448.117 80.1723 448.117 78.9515C448.117 77.2729 446.76 76.2216 444.709 76.2216C442.47 76.2216 441.012 77.4085 441.012 79.138C441.012 79.9858 441.368 80.7488 442.233 81.6475C440.419 82.6648 439.622 83.6991 439.622 85.1912C439.622 87.0903 441.538 88.4468 444.149 88.4468C445.675 88.4468 447.032 87.972 448.117 87.1242L449.541 88.4468L450.982 86.7681ZM444.709 78.0189C445.472 78.0189 445.879 78.4259 445.879 79.0024C445.879 79.545 445.506 79.9858 444.336 80.6132C443.607 79.901 443.42 79.5619 443.42 79.1041C443.42 78.4767 443.895 78.0189 444.709 78.0189ZM444.336 86.3781C443.03 86.3781 442.216 85.7677 442.216 84.903C442.216 84.1739 442.606 83.6313 443.691 83.0039L446.557 85.683C445.913 86.1408 445.15 86.3781 444.336 86.3781ZM392.808 108.243H398.2C402.083 108.243 404.745 105.903 404.745 102.309C404.745 98.7141 402.083 96.3742 398.2 96.3742H392.808V108.243ZM395.555 105.988V98.6293H398.064C400.421 98.6293 401.964 100.037 401.964 102.309C401.964 104.581 400.421 105.988 398.064 105.988H395.555ZM408.235 97.8494C409.218 97.8494 409.88 97.2051 409.88 96.3234C409.88 95.5095 409.218 94.8991 408.235 94.8991C407.252 94.8991 406.59 95.5434 406.59 96.3742C406.59 97.2051 407.252 97.8494 408.235 97.8494ZM406.912 108.243H409.558V99.1211H406.912V108.243ZM415.364 108.379C418.094 108.379 419.671 107.175 419.671 105.479C419.671 101.885 414.16 103.394 414.16 101.834C414.16 101.359 414.669 100.986 415.856 100.986C416.687 100.986 417.585 101.156 418.484 101.664L419.366 99.7823C418.501 99.2737 417.11 98.9854 415.856 98.9854C413.194 98.9854 411.634 100.206 411.634 101.936C411.634 105.581 417.144 104.055 417.144 105.547C417.144 106.056 416.687 106.378 415.466 106.378C414.347 106.378 413.109 106.022 412.295 105.496L411.413 107.395C412.261 107.955 413.821 108.379 415.364 108.379ZM425.994 108.379C427.91 108.379 429.419 107.531 430.08 106.073L428.029 104.954C427.537 105.836 426.808 106.209 425.977 106.209C424.637 106.209 423.586 105.276 423.586 103.682C423.586 102.088 424.637 101.156 425.977 101.156C426.808 101.156 427.537 101.546 428.029 102.41L430.08 101.308C429.419 99.8163 427.91 98.9854 425.994 98.9854C423.027 98.9854 420.907 100.935 420.907 103.682C420.907 106.429 423.027 108.379 425.994 108.379ZM438.431 99.1211V103.631C438.431 105.31 437.549 106.09 436.328 106.09C435.158 106.09 434.48 105.412 434.48 103.886V99.1211H431.835V104.276C431.835 107.09 433.446 108.379 435.735 108.379C436.854 108.379 437.871 107.955 438.566 107.158V108.243H441.076V99.1211H438.431ZM446.878 108.379C449.608 108.379 451.185 107.175 451.185 105.479C451.185 101.885 445.674 103.394 445.674 101.834C445.674 101.359 446.183 100.986 447.37 100.986C448.2 100.986 449.099 101.156 449.998 101.664L450.88 99.7823C450.015 99.2737 448.624 98.9854 447.37 98.9854C444.708 98.9854 443.148 100.206 443.148 101.936C443.148 105.581 448.658 104.055 448.658 105.547C448.658 106.056 448.2 106.378 446.98 106.378C445.861 106.378 444.623 106.022 443.809 105.496L442.927 107.395C443.775 107.955 445.335 108.379 446.878 108.379ZM456.168 108.379C458.898 108.379 460.475 107.175 460.475 105.479C460.475 101.885 454.964 103.394 454.964 101.834C454.964 101.359 455.473 100.986 456.66 100.986C457.491 100.986 458.39 101.156 459.288 101.664L460.17 99.7823C459.305 99.2737 457.915 98.9854 456.66 98.9854C453.998 98.9854 452.438 100.206 452.438 101.936C452.438 105.581 457.949 104.055 457.949 105.547C457.949 106.056 457.491 106.378 456.27 106.378C455.151 106.378 453.913 106.022 453.099 105.496L452.218 107.395C453.065 107.955 454.625 108.379 456.168 108.379ZM463.712 97.8494C464.696 97.8494 465.357 97.2051 465.357 96.3234C465.357 95.5095 464.696 94.8991 463.712 94.8991C462.729 94.8991 462.068 95.5434 462.068 96.3742C462.068 97.2051 462.729 97.8494 463.712 97.8494ZM462.39 108.243H465.035V99.1211H462.39V108.243ZM472.113 108.379C475.012 108.379 477.115 106.429 477.115 103.682C477.115 100.935 475.012 98.9854 472.113 98.9854C469.214 98.9854 467.094 100.935 467.094 103.682C467.094 106.429 469.214 108.379 472.113 108.379ZM472.113 106.209C470.79 106.209 469.773 105.259 469.773 103.682C469.773 102.105 470.79 101.156 472.113 101.156C473.436 101.156 474.436 102.105 474.436 103.682C474.436 105.259 473.436 106.209 472.113 106.209ZM484.71 98.9854C483.472 98.9854 482.404 99.4093 481.692 100.189V99.1211H479.166V108.243H481.811V103.733C481.811 102.054 482.726 101.274 483.998 101.274C485.168 101.274 485.846 101.953 485.846 103.428V108.243H488.491V103.021C488.491 100.24 486.863 98.9854 484.71 98.9854ZM494.24 108.379C496.97 108.379 498.547 107.175 498.547 105.479C498.547 101.885 493.037 103.394 493.037 101.834C493.037 101.359 493.545 100.986 494.732 100.986C495.563 100.986 496.462 101.156 497.36 101.664L498.242 99.7823C497.377 99.2737 495.987 98.9854 494.732 98.9854C492.07 98.9854 490.51 100.206 490.51 101.936C490.51 105.581 496.021 104.055 496.021 105.547C496.021 106.056 495.563 106.378 494.342 106.378C493.223 106.378 491.985 106.022 491.171 105.496L490.29 107.395C491.138 107.955 492.698 108.379 494.24 108.379Z" fill="#B63838"/>
<path d="M257.334 82.0136H323.068" stroke="#B63838" stroke-width="4.62431" stroke-linecap="square"/>
<path fill-rule="evenodd" clip-rule="evenodd" d="M329.503 82.0136L321.796 87.4086V76.6185L329.503 82.0136Z" fill="#B63838"/>
<path d="M561.208 82.3008H626.942" stroke="#B63838" stroke-width="4.62431" stroke-linecap="square"/>
<path fill-rule="evenodd" clip-rule="evenodd" d="M633.377 82.3008L625.669 87.6958V76.9058L633.377 82.3008Z" fill="#B63838"/>
<path d="M818.279 82.3948H884.014" stroke="#B63838" stroke-width="4.62431" stroke-linecap="square"/>
<path fill-rule="evenodd" clip-rule="evenodd" d="M890.448 82.3948L882.741 87.7898V76.9998L890.448 82.3948Z" fill="#B63838"/>
<rect x="632.312" y="38.3122" width="183.431" height="87.8619" rx="43.9309" fill="#DBDDE0" stroke="#B63838" stroke-width="4.62431"/>
<path d="M707.098 57.0041L703.436 65.482L699.824 57.0041H696.857L701.978 68.8732H704.691L709.828 57.0041H707.098ZM712.403 58.4793C713.387 58.4793 714.048 57.8349 714.048 56.9532C714.048 56.1394 713.387 55.529 712.403 55.529C711.42 55.529 710.759 56.1733 710.759 57.0041C710.759 57.8349 711.42 58.4793 712.403 58.4793ZM711.081 68.8732H713.726V59.7509H711.081V68.8732ZM719.532 69.0088C722.262 69.0088 723.839 67.805 723.839 66.1094C723.839 62.5147 718.329 64.0238 718.329 62.4639C718.329 61.9891 718.837 61.6161 720.024 61.6161C720.855 61.6161 721.754 61.7856 722.652 62.2943L723.534 60.4122C722.669 59.9035 721.279 59.6153 720.024 59.6153C717.362 59.6153 715.802 60.8361 715.802 62.5656C715.802 66.2111 721.313 64.6851 721.313 66.1772C721.313 66.6859 720.855 67.008 719.634 67.008C718.515 67.008 717.277 66.652 716.463 66.1263L715.582 68.0254C716.43 68.5849 717.989 69.0088 719.532 69.0088ZM732.299 59.7509V64.2612C732.299 65.9398 731.417 66.7198 730.196 66.7198C729.026 66.7198 728.348 66.0415 728.348 64.5155V59.7509H725.703V64.9055C725.703 67.7202 727.314 69.0088 729.603 69.0088C730.722 69.0088 731.739 68.5849 732.434 67.788V68.8732H734.944V59.7509H732.299ZM741.356 59.6153C739.898 59.6153 738.423 60.0053 737.423 60.7174L738.372 62.5656C739.033 62.04 740.034 61.7178 741 61.7178C742.425 61.7178 743.103 62.3791 743.103 63.5151H741C738.22 63.5151 737.084 64.6342 737.084 66.245C737.084 67.8219 738.355 69.0088 740.492 69.0088C741.831 69.0088 742.781 68.568 743.272 67.7371V68.8732H745.748V63.6677C745.748 60.9039 744.137 59.6153 741.356 59.6153ZM741.153 67.2285C740.22 67.2285 739.661 66.7876 739.661 66.1263C739.661 65.5159 740.051 65.0581 741.289 65.0581H743.103V65.9907C742.798 66.8215 742.035 67.2285 741.153 67.2285ZM748.424 68.8732H751.07V56.292H748.424V68.8732ZM685.302 88.8732H690.694C694.576 88.8732 697.238 86.5333 697.238 82.9386C697.238 79.344 694.576 77.0041 690.694 77.0041H685.302V88.8732ZM688.048 86.618V79.2592H690.558C692.915 79.2592 694.458 80.6666 694.458 82.9386C694.458 85.2107 692.915 86.618 690.558 86.618H688.048ZM708.342 84.346C708.342 81.4126 706.273 79.6153 703.594 79.6153C700.813 79.6153 698.728 81.5822 698.728 84.3121C698.728 87.025 700.78 89.0088 703.933 89.0088C705.578 89.0088 706.85 88.5001 707.697 87.5337L706.29 86.0076C705.663 86.6011 704.968 86.8893 704.001 86.8893C702.611 86.8893 701.644 86.1942 701.39 85.0581H708.291C708.308 84.8377 708.342 84.5494 708.342 84.346ZM703.611 81.6161C704.798 81.6161 705.663 82.3621 705.849 83.5151H701.356C701.543 82.3452 702.407 81.6161 703.611 81.6161ZM713.454 89.0088C716.184 89.0088 717.761 87.805 717.761 86.1094C717.761 82.5147 712.251 84.0238 712.251 82.4639C712.251 81.9891 712.759 81.6161 713.946 81.6161C714.777 81.6161 715.676 81.7856 716.574 82.2943L717.456 80.4122C716.591 79.9035 715.201 79.6153 713.946 79.6153C711.284 79.6153 709.724 80.8361 709.724 82.5656C709.724 86.2111 715.235 84.6851 715.235 86.1772C715.235 86.6859 714.777 87.008 713.556 87.008C712.437 87.008 711.199 86.652 710.385 86.1263L709.504 88.0254C710.352 88.5849 711.911 89.0088 713.454 89.0088ZM720.998 78.4793C721.982 78.4793 722.643 77.8349 722.643 76.9532C722.643 76.1394 721.982 75.529 720.998 75.529C720.015 75.529 719.354 76.1733 719.354 77.0041C719.354 77.8349 720.015 78.4793 720.998 78.4793ZM719.676 88.8732H722.321V79.7509H719.676V88.8732ZM731.959 79.7509V80.9209C731.264 80.0392 730.213 79.6153 728.941 79.6153C726.415 79.6153 724.38 81.3617 724.38 84.0238C724.38 86.6859 726.415 88.4323 728.941 88.4323C730.128 88.4323 731.129 88.0593 731.824 87.2963V87.6863C731.824 89.331 731.01 90.1788 729.145 90.1788C727.975 90.1788 726.703 89.7718 725.923 89.1445L724.872 91.0435C725.94 91.8743 727.619 92.2982 729.348 92.2982C732.638 92.2982 734.469 90.7383 734.469 87.3471V79.7509H731.959ZM729.467 86.262C728.077 86.262 727.059 85.3633 727.059 84.0238C727.059 82.6843 728.077 81.7856 729.467 81.7856C730.857 81.7856 731.858 82.6843 731.858 84.0238C731.858 85.3633 730.857 86.262 729.467 86.262ZM742.758 79.6153C741.52 79.6153 740.452 80.0392 739.74 80.8192V79.7509H737.213V88.8732H739.858V84.3629C739.858 82.6843 740.774 81.9043 742.046 81.9043C743.216 81.9043 743.894 82.5826 743.894 84.0577V88.8732H746.539V83.6508C746.539 80.87 744.911 79.6153 742.758 79.6153ZM765.054 87.398L763.663 86.1094C764.172 85.3464 764.528 84.4307 764.749 83.4134L762.629 82.7521C762.493 83.4473 762.29 84.0747 762.036 84.6003L759.865 82.5826C761.476 81.7009 762.188 80.8022 762.188 79.5814C762.188 77.9028 760.832 76.8515 758.78 76.8515C756.542 76.8515 755.084 78.0384 755.084 79.7679C755.084 80.6157 755.44 81.3787 756.305 82.2774C754.49 83.2947 753.693 84.329 753.693 85.8211C753.693 87.7202 755.609 89.0766 758.221 89.0766C759.747 89.0766 761.103 88.6019 762.188 87.7541L763.613 89.0766L765.054 87.398ZM758.78 78.6488C759.543 78.6488 759.95 79.0558 759.95 79.6323C759.95 80.1748 759.577 80.6157 758.407 81.2431C757.678 80.5309 757.492 80.1918 757.492 79.734C757.492 79.1066 757.966 78.6488 758.78 78.6488ZM758.407 87.008C757.102 87.008 756.288 86.3976 756.288 85.5329C756.288 84.8038 756.678 84.2612 757.763 83.6338L760.628 86.3128C759.984 86.7706 759.221 87.008 758.407 87.008ZM670.869 108.873H673.616V97.0041H670.869V108.873ZM682.073 99.6153C680.835 99.6153 679.767 100.039 679.055 100.819V99.7509H676.528V108.873H679.174V104.363C679.174 102.684 680.089 101.904 681.361 101.904C682.531 101.904 683.209 102.583 683.209 104.058V108.873H685.854V103.651C685.854 100.87 684.226 99.6153 682.073 99.6153ZM693.706 106.567C693.418 106.788 693.028 106.906 692.638 106.906C691.926 106.906 691.502 106.482 691.502 105.702V101.989H693.774V99.9544H691.502V97.7332H688.857V99.9544H687.449V101.989H688.857V105.736C688.857 107.907 690.111 109.009 692.265 109.009C693.079 109.009 693.875 108.822 694.418 108.432L693.706 106.567ZM704.84 104.346C704.84 101.413 702.771 99.6153 700.092 99.6153C697.311 99.6153 695.226 101.582 695.226 104.312C695.226 107.025 697.277 109.009 700.431 109.009C702.076 109.009 703.348 108.5 704.195 107.534L702.788 106.008C702.161 106.601 701.465 106.889 700.499 106.889C699.109 106.889 698.142 106.194 697.888 105.058H704.789C704.806 104.838 704.84 104.549 704.84 104.346ZM700.109 101.616C701.296 101.616 702.161 102.362 702.347 103.515H697.854C698.04 102.345 698.905 101.616 700.109 101.616ZM709.41 100.955V99.7509H706.883V108.873H709.528V104.566C709.528 102.82 710.495 102.023 711.953 102.023C712.157 102.023 712.326 102.04 712.547 102.057V99.6153C711.139 99.6153 710.054 100.073 709.41 100.955ZM718.032 99.6153C716.573 99.6153 715.098 100.005 714.098 100.717L715.047 102.566C715.709 102.04 716.709 101.718 717.676 101.718C719.1 101.718 719.778 102.379 719.778 103.515H717.676C714.895 103.515 713.759 104.634 713.759 106.245C713.759 107.822 715.03 109.009 717.167 109.009C718.506 109.009 719.456 108.568 719.948 107.737V108.873H722.423V103.668C722.423 100.904 720.812 99.6153 718.032 99.6153ZM717.828 107.228C716.896 107.228 716.336 106.788 716.336 106.126C716.336 105.516 716.726 105.058 717.964 105.058H719.778V105.991C719.473 106.822 718.71 107.228 717.828 107.228ZM729.608 109.009C731.524 109.009 733.033 108.161 733.694 106.703L731.642 105.584C731.151 106.465 730.422 106.838 729.591 106.838C728.251 106.838 727.2 105.906 727.2 104.312C727.2 102.718 728.251 101.786 729.591 101.786C730.422 101.786 731.151 102.176 731.642 103.04L733.694 101.938C733.033 100.446 731.524 99.6153 729.608 99.6153C726.64 99.6153 724.521 101.565 724.521 104.312C724.521 107.059 726.64 109.009 729.608 109.009ZM740.804 106.567C740.515 106.788 740.125 106.906 739.735 106.906C739.023 106.906 738.599 106.482 738.599 105.702V101.989H740.871V99.9544H738.599V97.7332H735.954V99.9544H734.547V101.989H735.954V105.736C735.954 107.907 737.209 109.009 739.362 109.009C740.176 109.009 740.973 108.822 741.516 108.432L740.804 106.567ZM744.606 98.4793C745.589 98.4793 746.25 97.8349 746.25 96.9532C746.25 96.1394 745.589 95.529 744.606 95.529C743.622 95.529 742.961 96.1733 742.961 97.0041C742.961 97.8349 743.622 98.4793 744.606 98.4793ZM743.283 108.873H745.928V99.7509H743.283V108.873ZM753.006 109.009C755.906 109.009 758.008 107.059 758.008 104.312C758.008 101.565 755.906 99.6153 753.006 99.6153C750.107 99.6153 747.987 101.565 747.987 104.312C747.987 107.059 750.107 109.009 753.006 109.009ZM753.006 106.838C751.684 106.838 750.666 105.889 750.666 104.312C750.666 102.735 751.684 101.786 753.006 101.786C754.329 101.786 755.329 102.735 755.329 104.312C755.329 105.889 754.329 106.838 753.006 106.838ZM765.604 99.6153C764.366 99.6153 763.298 100.039 762.585 100.819V99.7509H760.059V108.873H762.704V104.363C762.704 102.684 763.62 101.904 764.891 101.904C766.061 101.904 766.74 102.583 766.74 104.058V108.873H769.385V103.651C769.385 100.87 767.757 99.6153 765.604 99.6153ZM775.134 109.009C777.864 109.009 779.441 107.805 779.441 106.109C779.441 102.515 773.93 104.024 773.93 102.464C773.93 101.989 774.439 101.616 775.626 101.616C776.456 101.616 777.355 101.786 778.254 102.294L779.135 100.412C778.271 99.9035 776.88 99.6153 775.626 99.6153C772.964 99.6153 771.404 100.836 771.404 102.566C771.404 106.211 776.914 104.685 776.914 106.177C776.914 106.686 776.456 107.008 775.236 107.008C774.117 107.008 772.879 106.652 772.065 106.126L771.183 108.025C772.031 108.585 773.591 109.009 775.134 109.009Z" fill="#B63838"/>
<rect x="387.911" y="180.542" width="112.525" height="29.2873" rx="14.6436" stroke="#B63838" stroke-width="3.08287"/>
<path d="M413.124 201H415.544V190.542H413.124V201ZM422.419 198.968C422.165 199.162 421.821 199.267 421.477 199.267C420.85 199.267 420.477 198.893 420.477 198.206V194.934H422.478V193.141H420.477V191.184H418.146V193.141H416.906V194.934H418.146V198.236C418.146 200.148 419.251 201.119 421.149 201.119C421.866 201.119 422.568 200.955 423.046 200.611L422.419 198.968ZM431.98 197.011C431.98 194.426 430.157 192.842 427.797 192.842C425.347 192.842 423.509 194.576 423.509 196.981C423.509 199.371 425.317 201.119 428.095 201.119C429.545 201.119 430.665 200.671 431.412 199.819L430.172 198.475C429.619 198.998 429.007 199.252 428.155 199.252C426.93 199.252 426.079 198.639 425.854 197.638H431.935C431.95 197.444 431.98 197.19 431.98 197.011ZM427.812 194.605C428.857 194.605 429.619 195.263 429.784 196.279H425.825C425.989 195.248 426.751 194.605 427.812 194.605ZM435.758 194.023V192.962H433.532V201H435.862V197.205C435.862 195.666 436.714 194.964 437.999 194.964C438.178 194.964 438.327 194.979 438.522 194.994V192.842C437.282 192.842 436.325 193.246 435.758 194.023ZM443.106 192.842C441.821 192.842 440.521 193.186 439.639 193.814L440.476 195.442C441.059 194.979 441.94 194.695 442.792 194.695C444.047 194.695 444.644 195.278 444.644 196.279H442.792C440.342 196.279 439.341 197.265 439.341 198.684C439.341 200.073 440.461 201.119 442.344 201.119C443.524 201.119 444.361 200.731 444.794 199.999V201H446.975V196.413C446.975 193.978 445.556 192.842 443.106 192.842ZM442.926 199.551C442.105 199.551 441.612 199.162 441.612 198.579C441.612 198.042 441.955 197.638 443.046 197.638H444.644V198.46C444.375 199.192 443.703 199.551 442.926 199.551ZM453.641 198.968C453.387 199.162 453.044 199.267 452.7 199.267C452.072 199.267 451.699 198.893 451.699 198.206V194.934H453.701V193.141H451.699V191.184H449.368V193.141H448.128V194.934H449.368V198.236C449.368 200.148 450.474 201.119 452.371 201.119C453.088 201.119 453.791 200.955 454.269 200.611L453.641 198.968ZM456.742 191.841C457.609 191.841 458.191 191.274 458.191 190.497C458.191 189.78 457.609 189.242 456.742 189.242C455.876 189.242 455.293 189.81 455.293 190.542C455.293 191.274 455.876 191.841 456.742 191.841ZM455.577 201H457.908V192.962H455.577V201ZM463.895 201.119C466.45 201.119 468.303 199.401 468.303 196.981C468.303 194.561 466.45 192.842 463.895 192.842C461.341 192.842 459.473 194.561 459.473 196.981C459.473 199.401 461.341 201.119 463.895 201.119ZM463.895 199.207C462.73 199.207 461.834 198.37 461.834 196.981C461.834 195.591 462.73 194.755 463.895 194.755C465.061 194.755 465.942 195.591 465.942 196.981C465.942 198.37 465.061 199.207 463.895 199.207ZM474.746 192.842C473.655 192.842 472.714 193.216 472.087 193.903V192.962H469.86V201H472.191V197.026C472.191 195.547 472.998 194.859 474.118 194.859C475.149 194.859 475.747 195.457 475.747 196.757V201H478.078V196.398C478.078 193.948 476.643 192.842 474.746 192.842Z" fill="#B63838"/>
<path d="M445 128V179" stroke="#B63838" stroke-width="3.08287" stroke-linecap="square" stroke-dasharray="7.71 7.71"/>
<path fill-rule="evenodd" clip-rule="evenodd" d="M444.917 128L451.834 135.707H438L444.917 128Z" fill="#B63838"/>
</svg>
