<svg width="724" height="413" viewBox="0 0 724 413" fill="none" xmlns="http://www.w3.org/2000/svg">
<g clip-path="url(#clip0)">
<path d="M319.858 -87.3188L48.9848 -62.4808L-10.2786 -57.0437L-98.3577 34.175L-173.528 112.022L-179.773 118.487L-176.677 152.221L-164.378 286.334L-158.199 353.66L-156.346 373.899L-155 388.544L-152.007 421.177L-147.164 474.008L-101.602 469.827L-58.0861 465.839L-26.8086 462.969L367.011 426.855L319.858 -87.3188Z" fill="#F2F2F2"/>
<path d="M110.307 276.736L155.327 234.708L176.675 215.017C178.687 213.161 180.23 210.855 181.179 208.288C182.128 205.721 182.454 202.965 182.132 200.247C181.81 197.529 180.848 194.926 179.326 192.652C177.804 190.377 175.764 188.496 173.374 187.162V187.162C171.263 185.983 168.929 185.26 166.521 185.038C164.114 184.816 161.687 185.101 159.396 185.873C157.105 186.646 155.002 187.89 153.22 189.525C151.439 191.159 150.02 193.149 149.054 195.365L142.032 211.477L98.4243 256.71L110.307 276.736Z" fill="#FFB9B9"/>
<path d="M104.422 249.475L120.232 275.808L56.0526 315.177C-0.528152 274.507 -11.7285 261.272 2.13443 196.488L13.1604 185.462L66.4737 271.932L104.422 249.475Z" fill="#E53935"/>
<path d="M197.625 176.261C198.258 175.636 199.087 175.248 199.972 175.161C200.858 175.073 201.747 175.293 202.49 175.782L232.21 195.14C232.698 195.458 233.109 195.881 233.413 196.378C233.717 196.875 233.905 197.434 233.965 198.014C234.025 198.593 233.955 199.179 233.759 199.728C233.564 200.277 233.248 200.775 232.835 201.186L157.253 276.44C156.886 276.806 156.45 277.095 155.97 277.291C155.489 277.486 154.975 277.584 154.457 277.579C153.939 277.574 153.426 277.466 152.95 277.261C152.474 277.057 152.043 276.759 151.683 276.387L126.914 250.751C126.198 250.006 125.805 249.01 125.82 247.977C125.835 246.945 126.257 245.96 126.994 245.237L197.625 176.261Z" fill="#3F3D56"/>
<path d="M226.355 197.21L223.279 195.249C223.603 195.827 223.722 196.497 223.617 197.15C223.511 197.804 223.188 198.402 222.699 198.849C222.21 199.295 221.584 199.562 220.923 199.607C220.263 199.652 219.607 199.473 219.061 199.097L199.158 185.413C198.706 185.103 198.349 184.672 198.13 184.168C197.911 183.665 197.838 183.111 197.918 182.568C197.999 182.025 198.231 181.516 198.587 181.099C198.943 180.681 199.409 180.372 199.932 180.206L198.348 179.196C198.142 179.065 197.898 179.008 197.655 179.035C197.413 179.063 197.187 179.172 197.016 179.346L130.059 245.146C129.96 245.247 129.881 245.367 129.828 245.499C129.775 245.631 129.749 245.772 129.752 245.914C129.754 246.056 129.785 246.196 129.843 246.326C129.9 246.456 129.983 246.574 130.086 246.671L154.403 270.365C154.605 270.555 154.873 270.659 155.15 270.656C155.427 270.652 155.691 270.54 155.888 270.345L226.534 198.865C226.647 198.752 226.734 198.615 226.787 198.465C226.84 198.314 226.859 198.153 226.842 197.994C226.824 197.836 226.772 197.683 226.687 197.547C226.603 197.411 226.49 197.296 226.355 197.21V197.21Z" fill="white"/>
<path d="M149.077 230.617L169.617 249.983L218.473 201.714L193.679 185.574L149.077 230.617Z" fill="#E53935"/>
<path d="M216.574 213.626C216.441 213.493 216.367 213.312 216.367 213.124C216.367 212.935 216.441 212.754 216.574 212.621L220.847 208.349C220.982 208.219 221.162 208.147 221.349 208.147C221.537 208.147 221.717 208.219 221.852 208.349C221.985 208.482 222.06 208.663 222.06 208.851C222.06 209.04 221.985 209.22 221.852 209.354L217.58 213.626C217.444 213.755 217.264 213.828 217.077 213.828C216.89 213.828 216.71 213.755 216.574 213.626Z" fill="#E6E6E6"/>
<path d="M209.377 219.818L213.65 215.545C213.716 215.479 213.794 215.427 213.88 215.391C213.967 215.356 214.059 215.337 214.152 215.337C214.246 215.337 214.338 215.356 214.424 215.391C214.511 215.427 214.589 215.479 214.655 215.545C214.721 215.611 214.773 215.69 214.809 215.776C214.845 215.862 214.863 215.955 214.863 216.048C214.863 216.141 214.845 216.234 214.809 216.32C214.773 216.406 214.721 216.485 214.655 216.551L210.383 220.823C210.249 220.957 210.068 221.031 209.88 221.031C209.691 221.031 209.511 220.957 209.377 220.823C209.244 220.69 209.169 220.509 209.169 220.321C209.169 220.132 209.244 219.951 209.377 219.818V219.818Z" fill="#E6E6E6"/>
<path d="M149.551 252.038C146.902 252.038 144.753 249.889 144.753 247.24C144.753 244.59 146.902 242.441 149.551 242.441C152.201 242.441 154.35 244.59 154.35 247.24C154.35 249.889 152.201 252.038 149.551 252.038Z" fill="#E53935"/>
<path d="M457.885 404.146L482.26 410.581C485.723 417.418 491.639 422.695 498.826 425.357C506.012 428.02 513.939 427.871 521.02 424.941L521.552 424.72C524.782 423.341 527.796 421.501 530.498 419.259C540.736 410.96 557.793 406.677 580.411 405.669C581.798 405.233 583.001 404.348 583.83 403.154C584.659 401.96 585.067 400.524 584.991 399.072V399.072C584.91 397.542 584.296 396.089 583.256 394.965C582.215 393.84 580.813 393.116 579.294 392.918L457.331 377.01L457.885 404.146Z" fill="#E6E6E6"/>
<path d="M141.668 425.743C205.436 415.517 263.529 398.964 312.237 371.949L463.423 409.053L462.869 375.902L344.694 334.452C324.757 327.459 303.57 324.752 282.515 326.506L141.668 352.642L141.668 425.743Z" fill="#2F2E41"/>
<path d="M384.781 439.047C385.261 437.445 385.211 435.73 384.637 434.158C384.062 432.587 382.995 431.243 381.594 430.328L324.421 400.269L310.576 364.272L286.763 379.225L293.408 405.807L291.837 416.807C291.344 420.257 291.598 423.773 292.582 427.116C293.567 430.46 295.258 433.552 297.541 436.185C299.825 438.818 302.647 440.93 305.818 442.377C308.988 443.824 312.433 444.573 315.918 444.573H377.355C379.022 444.573 380.645 444.035 381.983 443.04C383.32 442.045 384.302 440.645 384.781 439.047V439.047Z" fill="#E6E6E6"/>
<path d="M64.6912 405.253C133.736 491.095 181.242 397.596 228.061 298.37L284.548 390.3L318.883 365.933L259.677 235.681C258.216 232.466 256.012 229.644 253.247 227.448C250.482 225.252 247.235 223.743 243.773 223.047C240.311 222.351 236.734 222.487 233.335 223.444C229.936 224.401 226.813 226.152 224.222 228.552L141.669 320.522L126.162 319.415L64.6912 405.253Z" fill="#2F2E41"/>
<path d="M60.8139 159.922C38.1808 159.922 19.8331 141.574 19.8331 118.941C19.8331 96.3079 38.1808 77.9602 60.8139 77.9602C83.4469 77.9602 101.795 96.3079 101.795 118.941C101.795 141.574 83.4469 159.922 60.8139 159.922Z" fill="#FFB9B9"/>
<path d="M8.75736 192.042L54.1686 202.011C58.5278 183.311 64.8388 165.12 72.9976 147.739L30.9091 132.232C25.7369 152.92 18.3085 172.977 8.75736 192.042Z" fill="#FFB9B9"/>
<path d="M60.8139 415.775L141.668 320.523L108.744 265.797C105.278 241.179 92.5633 221.829 72.9975 206.381L59.7063 184.289L19.8331 167.675C5.83316 178.812 -4.11921 194.24 -8.49249 211.586C-12.8658 228.932 -11.4176 247.235 -4.37076 263.678L60.8139 415.775Z" fill="#E53935"/>
<path d="M130.592 310.554L179.326 272.896L202.413 255.277C204.589 253.616 206.341 251.464 207.524 248.996C208.707 246.528 209.289 243.815 209.221 241.078C209.153 238.342 208.438 235.661 207.133 233.255C205.829 230.848 203.974 228.785 201.718 227.235C199.726 225.865 197.469 224.928 195.093 224.483C192.716 224.038 190.273 224.096 187.92 224.652C185.568 225.208 183.357 226.251 181.432 227.713C179.506 229.175 177.908 231.024 176.74 233.141L168.25 248.529L120.624 289.51L130.592 310.554Z" fill="#FFB9B9"/>
<path d="M127.269 282.865L140.561 310.554L72.9975 343.782C20.4453 298.026 -8.8566 254.148 10.9725 190.935L36.4471 197.58L87.3962 301.694L127.269 282.865Z" fill="#E53935"/>
<path d="M7.61198 71.7121C-1.39938 71.7121 -8.70458 64.407 -8.70458 55.3956C-8.70458 46.3843 -1.39938 39.0791 7.61198 39.0791C16.6233 39.0791 23.9285 46.3843 23.9285 55.3956C23.9285 64.407 16.6233 71.7121 7.61198 71.7121Z" fill="#2F2E41"/>
<path d="M24.4244 51.4006C24.1563 47.2609 22.3203 43.379 19.2902 40.5457C16.2602 37.7123 12.264 36.1405 8.11561 36.1505C8.45251 36.1077 8.78645 36.0557 9.13 36.0336C13.4485 35.756 17.7004 37.2053 20.9504 40.0626C24.2003 42.9199 26.1821 46.9512 26.4598 51.2697C26.7374 55.5882 25.2881 59.8401 22.4308 63.0901C19.5735 66.34 15.5422 68.3218 11.2237 68.5994C10.8801 68.6215 10.5423 68.6128 10.2027 68.6135C14.3182 68.0922 18.0802 66.0217 20.7225 62.8236C23.3648 59.6256 24.6886 55.5406 24.4244 51.4006V51.4006Z" fill="#2F2E41"/>
<path d="M24.5169 58.3685C39.0685 46.2969 80.8067 61.6393 83.5 69.7552C103.178 72.437 118.077 83.9178 118.077 104.332V104.332C106.377 109.125 93.072 108.534 78.6887 104.332C55.7606 123.017 54.1888 146.506 68.1326 173.485L50.9779 173.828L29.714 142.75L28.6972 174.274L-10.6254 173.485V128.31C-10.7525 113.29 -7.29536 98.4557 -0.540896 85.0392C5.58683 73.1344 15.0965 66.1833 24.5169 58.3685Z" fill="#2F2E41"/>
<path d="M61.1335 138.183C56.8242 138.183 53.3308 133.292 53.3308 127.259C53.3308 121.226 56.8242 116.335 61.1335 116.335C65.4427 116.335 68.936 121.226 68.936 127.259C68.936 133.292 65.4427 138.183 61.1335 138.183Z" fill="#FFB8B8"/>
<path d="M651.701 192.002C651.701 190.925 650.84 190.052 649.783 190.052C648.723 190.052 647.862 190.925 647.862 192.002V196.104C647.862 197.187 648.723 198.06 649.783 198.06C650.84 198.06 651.701 197.187 651.701 196.104V192.002ZM641.147 186.618C641.147 185.541 640.288 184.667 639.204 184.667C638.144 184.667 637.285 185.541 637.285 186.618V196.104C637.285 197.187 638.144 198.06 639.204 198.06C640.288 198.06 641.147 197.187 641.147 196.104V186.618V186.618ZM630.571 179.252C630.571 178.175 629.712 177.302 628.652 177.302C627.592 177.302 626.734 178.175 626.734 179.252V200.002C626.734 201.085 627.592 201.958 628.652 201.958C629.712 201.958 630.571 201.085 630.571 200.002V179.252ZM619.992 186.618C619.992 185.541 619.134 184.667 618.074 184.667C617.016 184.667 616.155 185.541 616.155 186.618V196.104C616.155 197.187 617.016 198.06 618.074 198.06C619.134 198.06 619.992 197.187 619.992 196.104V186.618V186.618ZM609.416 192.002C609.416 190.925 608.558 190.052 607.504 190.052C606.444 190.052 605.579 190.925 605.579 192.002V196.104C605.579 197.187 606.444 198.06 607.504 198.06C608.558 198.06 609.416 197.187 609.416 196.104V192.002ZM598.857 186.618C598.857 185.541 597.992 184.667 596.933 184.667C595.873 184.667 595.008 185.541 595.008 186.618V196.104C595.008 197.187 595.873 198.06 596.933 198.06C597.992 198.06 598.857 197.187 598.857 196.104V186.618V186.618ZM588.286 179.252C588.286 178.175 587.421 177.302 586.361 177.302C585.302 177.302 584.437 178.175 584.437 179.252V200.002C584.437 201.085 585.302 201.958 586.361 201.958C587.421 201.958 588.286 201.085 588.286 200.002V179.252ZM577.715 186.618C577.715 185.541 576.85 184.667 575.79 184.667C574.73 184.667 573.866 185.541 573.866 186.618V196.104C573.866 197.187 574.73 198.06 575.79 198.06C576.85 198.06 577.715 197.187 577.715 196.104V186.618ZM567.143 192.002C567.143 190.925 566.279 190.052 565.219 190.052C564.16 190.052 563.294 190.925 563.294 192.002V196.104C563.294 197.187 564.16 198.06 565.219 198.06C566.279 198.06 567.143 197.187 567.143 196.104V192.002ZM606.876 209.011C606.76 208.979 604.984 208.513 603.097 208.513C599.524 208.513 597.373 210.475 597.373 213.398C597.373 215.985 599.172 217.275 601.332 217.969C601.572 218.05 601.924 218.162 602.159 218.241C603.121 218.549 603.888 219.006 603.888 219.798C603.888 220.683 603.001 221.256 601.073 221.256C599.379 221.256 597.754 220.764 597.412 220.676V224.272C597.603 224.313 599.533 224.698 601.596 224.698C604.562 224.698 607.956 223.38 607.956 219.455C607.956 217.551 606.81 215.798 604.294 214.985L603.224 214.638C602.586 214.433 601.447 214.102 601.447 213.15C601.447 212.399 602.291 211.87 603.845 211.87C605.186 211.87 606.818 212.328 606.876 212.346V209.011V209.011ZM639.636 216.606C639.636 218.879 637.924 220.719 635.626 220.719C633.326 220.719 631.619 218.879 631.619 216.606C631.619 214.337 633.326 212.497 635.626 212.497C637.924 212.497 639.636 214.337 639.636 216.606V216.606ZM635.626 208.518C630.901 208.518 627.513 212.143 627.513 216.606C627.513 221.076 630.901 224.698 635.626 224.698C640.351 224.698 643.744 221.076 643.744 216.606C643.744 212.143 640.351 208.518 635.626 208.518V208.518ZM582.969 209.078C582.605 208.968 581.258 208.518 579.434 208.518C574.717 208.518 571.254 211.939 571.254 216.606C571.254 221.64 575.077 224.698 579.434 224.698C581.166 224.698 582.487 224.281 582.969 224.142V219.948C582.802 220.042 581.535 220.777 579.712 220.777C577.13 220.777 575.464 218.928 575.464 216.606C575.464 214.213 577.202 212.438 579.712 212.438C581.566 212.438 582.813 213.189 582.969 213.272V209.078V209.078ZM623.431 209.078C623.064 208.968 621.717 208.518 619.899 208.518C615.174 208.518 611.711 211.939 611.711 216.606C611.711 221.64 615.539 224.698 619.899 224.698C621.621 224.698 622.944 224.281 623.431 224.142V219.948C623.261 220.042 621.992 220.777 620.17 220.777C617.589 220.777 615.925 218.928 615.925 216.606C615.925 214.213 617.664 212.438 620.17 212.438C622.023 212.438 623.273 213.189 623.431 213.272V209.078V209.078ZM592.174 224.42H588.298V208.795H592.174V224.42Z" fill="#00BCEB"/>
<path fill-rule="evenodd" clip-rule="evenodd" d="M310.129 192.331C298.42 192.331 288.927 182.838 288.927 171.129C288.927 159.42 298.42 149.927 310.129 149.927C321.838 149.927 331.331 159.42 331.331 171.129C331.331 182.838 321.838 192.331 310.129 192.331ZM310.129 188.476C319.709 188.476 327.476 180.709 327.476 171.129C327.476 161.549 319.709 153.782 310.129 153.782C300.549 153.782 292.782 161.549 292.782 171.129C292.782 180.709 300.549 188.476 310.129 188.476ZM319.766 169.202H312.056V159.565H308.202V173.056H319.766V169.202Z" fill="black"/>
<path fill-rule="evenodd" clip-rule="evenodd" d="M440.808 161.492V153.888C449.481 154.847 456.227 162.2 456.227 171.129C456.227 180.709 448.461 188.476 438.881 188.476C429.3 188.476 421.534 180.709 421.534 171.129C421.534 166.453 423.39 162.075 426.638 158.84L423.917 156.109C419.951 160.061 417.679 165.417 417.679 171.129C417.679 182.838 427.171 192.331 438.881 192.331C450.59 192.331 460.082 182.838 460.082 171.129C460.082 159.42 450.59 149.927 438.881 149.927H436.953V161.492H440.808ZM438.881 167.274C438.535 167.274 438.201 167.32 437.882 167.405L430.607 160.129L427.881 162.855L435.157 170.131C435.071 170.449 435.026 170.784 435.026 171.129C435.026 173.258 436.752 174.984 438.881 174.984C441.01 174.984 442.736 173.258 442.736 171.129C442.736 169 441.01 167.274 438.881 167.274Z" fill="black"/>
<path fill-rule="evenodd" clip-rule="evenodd" d="M386.056 213.353L388.782 210.627L395.528 217.373L392.802 220.099L386.056 213.353ZM355.616 231.264C355.616 241.909 364.245 250.539 374.89 250.539C385.535 250.539 394.165 241.909 394.165 231.264C394.165 220.62 385.535 211.99 374.89 211.99C364.245 211.99 355.616 220.62 355.616 231.264ZM390.31 231.264C390.31 239.78 383.406 246.684 374.89 246.684C366.374 246.684 359.471 239.78 359.471 231.264C359.471 222.749 366.374 215.845 374.89 215.845C383.406 215.845 390.31 222.749 390.31 231.264ZM363.725 213.354L360.999 210.628L354.253 217.374L356.979 220.1L363.725 213.354ZM372.963 233.192H367.181V229.337H372.963V223.555H376.818V229.337H382.6V233.192H376.818V238.974H372.963V233.192Z" fill="black"/>
<path fill-rule="evenodd" clip-rule="evenodd" d="M298.565 219.7H302.419V217.773H317.839V219.7H321.694V217.773H325.549V223.555H294.71V217.773H298.565V219.7ZM294.71 227.41V246.684H325.549V227.41H294.71ZM302.419 213.918H317.839V211.99H321.694V213.918H325.549C327.677 213.918 329.403 215.644 329.403 217.773V246.684C329.403 248.813 327.677 250.539 325.549 250.539H294.71C292.581 250.539 290.855 248.813 290.855 246.684V217.773C290.855 215.644 292.581 213.918 294.71 213.918H298.565V211.99H302.419V213.918Z" fill="black"/>
<path fill-rule="evenodd" clip-rule="evenodd" d="M367.18 159.565H363.326V157.637H359.471V163.419H390.309V157.637H386.455V159.565H382.6V157.637H367.18V159.565ZM390.309 167.274H359.471V186.549H390.309V167.274ZM382.6 153.782H367.18V151.855H363.326V153.782H359.471C357.342 153.782 355.616 155.508 355.616 157.637V186.549C355.616 188.677 357.342 190.403 359.471 190.403H390.31C392.438 190.403 394.164 188.677 394.164 186.549V157.637C394.164 155.508 392.438 153.782 390.31 153.782H386.455V151.855H382.6V153.782ZM365.253 174.984V171.129H369.108V174.984H365.253ZM372.963 174.984H376.818V171.129H372.963V174.984ZM380.672 174.984V171.129H384.527V174.984H380.672ZM365.253 178.839V182.694H369.108V178.839H365.253ZM376.818 182.694H372.963V178.839H376.818V182.694Z" fill="black"/>
<path fill-rule="evenodd" clip-rule="evenodd" d="M491.307 159.565H495.161V157.637H510.581V159.565H514.436V157.637H518.291V163.419H487.452V157.637H491.307V159.565ZM487.452 167.274V186.549H518.291V167.274H487.452ZM495.161 153.782H510.581V151.855H514.436V153.782H518.29C520.419 153.782 522.145 155.508 522.145 157.637V186.549C522.145 188.677 520.419 190.403 518.29 190.403H487.452C485.323 190.403 483.597 188.677 483.597 186.549V157.637C483.597 155.508 485.323 153.782 487.452 153.782H491.307V151.855H495.161V153.782ZM495.161 178.839V174.984H500.944V169.202H504.799V174.984H510.581V178.839H504.799V184.621H500.944V178.839H495.161Z" fill="black"/>
<path fill-rule="evenodd" clip-rule="evenodd" d="M431.171 219.7H427.316V217.773H423.461V223.555H454.3V217.773H450.445V219.7H446.59V217.773H431.171V219.7ZM423.461 246.684V227.41H454.3V246.684H423.461ZM446.59 213.918H431.171V211.99H427.316V213.918H423.461C421.332 213.918 419.606 215.644 419.606 217.772V246.684C419.606 248.813 421.332 250.539 423.461 250.539H454.3C456.429 250.539 458.155 248.813 458.155 246.684V217.772C458.155 215.644 456.429 213.918 454.3 213.918H450.445V211.99H446.59V213.918ZM445.228 229.902L436.953 238.176L432.534 233.757L429.808 236.482L436.953 243.627L447.953 232.627L445.228 229.902Z" fill="black"/>
<path fill-rule="evenodd" clip-rule="evenodd" d="M495.161 219.7H489.599C493.32 215.443 497.396 213.918 502.871 213.918C512.451 213.918 520.218 221.684 520.218 231.265C520.218 240.845 512.451 248.611 502.871 248.611C493.291 248.611 485.524 240.845 485.524 231.265H481.669C481.669 242.974 491.162 252.466 502.871 252.466C514.58 252.466 524.073 242.974 524.073 231.265C524.073 219.555 514.58 210.063 502.871 210.063C496.678 210.063 491.763 211.818 487.452 216.34V211.973H483.597V223.555H495.161V219.7ZM512.508 229.337H504.798V219.7H500.944V233.192H512.508V229.337Z" fill="black"/>
</g>
<defs>
<clipPath id="clip0">
<rect width="724" height="413" fill="white"/>
</clipPath>
</defs>
</svg>
