<svg width="974" height="556" viewBox="0 0 974 556" fill="none" xmlns="http://www.w3.org/2000/svg">
<g clip-path="url(#clip0)">
<path d="M110.339 277.219L155.359 235.191L176.707 215.5C178.719 213.644 180.262 211.338 181.211 208.771C182.159 206.204 182.486 203.448 182.164 200.73C181.842 198.012 180.88 195.409 179.358 193.135C177.836 190.86 175.796 188.979 173.406 187.645C171.295 186.466 168.961 185.743 166.553 185.521C164.146 185.299 161.719 185.584 159.428 186.356C157.137 187.129 155.034 188.373 153.252 190.008C151.471 191.642 150.052 193.632 149.086 195.848L142.064 211.96L98.4563 257.193L110.339 277.219Z" fill="#FFB9B9"/>
<path d="M104.454 249.958L120.264 276.291L56.0846 315.66C-0.49617 274.99 -11.6966 261.755 2.16641 196.971L13.1924 185.945L66.5057 272.415L104.454 249.958Z" fill="#E53935"/>
<path d="M197.657 176.744C198.29 176.119 199.119 175.731 200.004 175.643C200.89 175.556 201.779 175.776 202.522 176.265L232.242 195.622C232.73 195.941 233.141 196.364 233.445 196.861C233.749 197.358 233.937 197.917 233.997 198.497C234.057 199.076 233.987 199.662 233.791 200.211C233.596 200.76 233.28 201.258 232.867 201.669L157.285 276.923C156.918 277.289 156.482 277.578 156.002 277.774C155.521 277.969 155.007 278.067 154.489 278.062C153.971 278.057 153.458 277.949 152.982 277.744C152.506 277.54 152.075 277.242 151.715 276.869L126.946 251.234C126.23 250.489 125.837 249.493 125.852 248.46C125.867 247.428 126.289 246.443 127.026 245.72L197.657 176.744Z" fill="#3F3D56"/>
<path d="M226.387 197.693L223.311 195.732C223.635 196.31 223.754 196.98 223.649 197.633C223.543 198.287 223.22 198.885 222.731 199.332C222.242 199.778 221.616 200.045 220.955 200.09C220.295 200.135 219.639 199.956 219.093 199.58L199.19 185.896C198.738 185.586 198.381 185.154 198.162 184.651C197.943 184.148 197.87 183.594 197.95 183.051C198.031 182.508 198.263 181.999 198.619 181.581C198.975 181.164 199.441 180.855 199.964 180.689L198.38 179.679C198.174 179.548 197.93 179.491 197.687 179.518C197.445 179.546 197.219 179.655 197.048 179.829L130.091 245.629C129.992 245.73 129.913 245.85 129.86 245.982C129.807 246.114 129.781 246.255 129.784 246.397C129.786 246.539 129.817 246.679 129.875 246.809C129.932 246.939 130.015 247.056 130.118 247.154L154.435 270.848C154.637 271.038 154.905 271.142 155.182 271.138C155.459 271.135 155.723 271.023 155.92 270.827L226.566 199.348C226.679 199.235 226.766 199.098 226.819 198.947C226.872 198.797 226.891 198.636 226.874 198.477C226.856 198.319 226.804 198.166 226.719 198.03C226.635 197.894 226.521 197.779 226.387 197.693Z" fill="white"/>
<path d="M149.109 231.099L169.649 250.466L218.505 202.197L193.71 186.057L149.109 231.099Z" fill="#E53935"/>
<path d="M216.606 214.109C216.473 213.976 216.399 213.795 216.399 213.607C216.399 213.418 216.473 213.237 216.606 213.104L220.879 208.831C221.014 208.702 221.194 208.63 221.381 208.63C221.569 208.63 221.749 208.702 221.884 208.831C222.017 208.965 222.092 209.146 222.092 209.334C222.092 209.523 222.017 209.703 221.884 209.837L217.612 214.109C217.476 214.238 217.296 214.31 217.109 214.31C216.922 214.31 216.742 214.238 216.606 214.109Z" fill="#E6E6E6"/>
<path d="M209.409 220.301L213.682 216.028C213.748 215.962 213.826 215.91 213.912 215.874C213.999 215.838 214.091 215.82 214.184 215.82C214.278 215.82 214.37 215.838 214.456 215.874C214.543 215.91 214.621 215.962 214.687 216.028C214.753 216.094 214.805 216.173 214.841 216.259C214.877 216.345 214.895 216.438 214.895 216.531C214.895 216.624 214.877 216.717 214.841 216.803C214.805 216.889 214.753 216.968 214.687 217.034L210.415 221.306C210.281 221.439 210.1 221.514 209.912 221.514C209.723 221.514 209.543 221.439 209.409 221.306C209.276 221.173 209.201 220.992 209.201 220.803C209.201 220.615 209.276 220.434 209.409 220.301Z" fill="#E6E6E6"/>
<path d="M149.583 252.521C146.933 252.521 144.785 250.372 144.785 247.722C144.785 245.073 146.933 242.924 149.583 242.924C152.233 242.924 154.381 245.073 154.381 247.722C154.381 250.372 152.233 252.521 149.583 252.521Z" fill="#E53935"/>
<path d="M-53.5002 417.354H318.611V414.774H-53.9681L-53.5002 417.354Z" fill="#3F3D56"/>
<path d="M457.917 404.629L482.292 411.064C485.755 417.9 491.671 423.178 498.858 425.84C506.044 428.503 513.971 428.354 521.052 425.424L521.584 425.203C524.814 423.824 527.828 421.984 530.53 419.742C540.768 411.443 557.825 407.16 580.443 406.152C581.83 405.716 583.033 404.831 583.862 403.637C584.691 402.443 585.099 401.007 585.023 399.555C584.942 398.025 584.328 396.572 583.288 395.447C582.247 394.323 580.845 393.599 579.326 393.401L457.363 377.493L457.917 404.629Z" fill="#E6E6E6"/>
<path d="M141.7 426.226C205.468 416 263.561 399.447 312.269 372.432L463.455 409.536L462.901 376.385L344.726 334.935C324.789 327.942 303.602 325.235 282.547 326.989L141.7 353.125L141.7 426.226Z" fill="#2F2E41"/>
<path d="M384.813 439.53C385.293 437.928 385.243 436.213 384.669 434.641C384.094 433.069 383.027 431.726 381.626 430.811L324.453 400.752L310.608 364.755L286.795 379.708L293.44 406.29L291.869 417.29C291.376 420.74 291.63 424.256 292.614 427.599C293.599 430.943 295.29 434.035 297.573 436.668C299.857 439.301 302.679 441.413 305.85 442.86C309.02 444.307 312.465 445.056 315.95 445.056H377.387C379.054 445.056 380.677 444.518 382.015 443.523C383.352 442.527 384.334 441.127 384.813 439.53Z" fill="#E6E6E6"/>
<path d="M64.7232 405.736C133.768 491.578 181.274 398.079 228.093 298.853L284.58 390.783L318.915 366.416L259.709 236.164C258.248 232.949 256.044 230.127 253.279 227.931C250.514 225.734 247.267 224.226 243.805 223.53C240.343 222.834 236.766 222.97 233.367 223.927C229.968 224.884 226.845 226.635 224.254 229.035L141.701 321.005L126.194 319.898L64.7232 405.736Z" fill="#2F2E41"/>
<path d="M60.8458 160.405C38.2128 160.405 19.865 142.057 19.865 119.424C19.865 96.7908 38.2128 78.4431 60.8458 78.4431C83.4789 78.4431 101.827 96.7908 101.827 119.424C101.827 142.057 83.4789 160.405 60.8458 160.405Z" fill="#FFB9B9"/>
<path d="M8.78959 192.525L54.2008 202.493C58.5601 183.794 64.871 165.603 73.0298 148.222L30.9413 132.715C25.7691 153.403 18.3407 173.46 8.78959 192.525Z" fill="#FFB9B9"/>
<path d="M60.8459 416.258L141.7 321.006L108.776 266.28C105.31 241.662 92.5953 222.312 73.0294 206.864L59.7383 184.772L19.8651 168.158C5.86514 179.295 -4.08723 194.723 -8.46051 212.069C-12.8338 229.415 -11.3856 247.718 -4.33878 264.161L60.8459 416.258Z" fill="#E53935"/>
<path d="M130.624 311.037L179.358 273.379L202.445 255.76C204.621 254.099 206.373 251.947 207.556 249.479C208.739 247.011 209.321 244.297 209.253 241.561C209.185 238.825 208.47 236.144 207.165 233.738C205.861 231.331 204.006 229.268 201.75 227.718C199.758 226.348 197.501 225.411 195.125 224.966C192.748 224.521 190.305 224.579 187.952 225.135C185.6 225.691 183.389 226.734 181.464 228.196C179.538 229.658 177.94 231.507 176.772 233.624L168.282 249.012L120.656 289.993L130.624 311.037Z" fill="#FFB9B9"/>
<path d="M127.301 283.348L140.592 311.037L73.0293 344.265C20.4771 298.508 -8.82486 254.631 11.0043 191.418L36.4788 198.063L87.4279 302.177L127.301 283.348Z" fill="#E53935"/>
<path d="M7.64396 72.195C-1.3674 72.195 -8.6726 64.8899 -8.6726 55.8785C-8.6726 46.8672 -1.3674 39.562 7.64396 39.562C16.6553 39.562 23.9604 46.8672 23.9604 55.8785C23.9604 64.8899 16.6553 72.195 7.64396 72.195Z" fill="#2F2E41"/>
<path d="M24.4564 51.8835C24.1883 47.7438 22.3523 43.8619 19.3222 41.0286C16.2921 38.1952 12.296 36.6234 8.14759 36.6334C8.4845 36.5906 8.81843 36.5386 9.16198 36.5166C13.4805 36.2389 17.7324 37.6882 20.9824 40.5455C24.2323 43.4028 26.2141 47.4341 26.4917 51.7526C26.7694 56.0711 25.3201 60.323 22.4628 63.573C19.6055 66.823 15.5742 68.8047 11.2557 69.0824C10.9121 69.1044 10.5743 69.0957 10.2347 69.0964C14.3502 68.5751 18.1122 66.5046 20.7545 63.3065C23.3968 60.1085 24.7206 56.0235 24.4564 51.8835Z" fill="#2F2E41"/>
<path d="M24.5489 58.8514C39.1005 46.7798 80.8386 62.1223 83.532 70.2381C103.21 72.9199 118.109 84.4007 118.109 104.815V104.815C106.409 109.607 93.1039 109.017 78.7207 104.815C55.7926 123.5 54.2208 146.989 68.1646 173.968L51.0099 174.311L29.746 143.233L28.7292 174.757L-10.5934 173.968V128.793C-10.7205 113.773 -7.26337 98.9386 -0.508911 85.5221C5.61881 73.6173 15.1284 66.6662 24.5489 58.8514Z" fill="#2F2E41"/>
<path d="M61.1657 138.666C56.8564 138.666 53.363 133.775 53.363 127.742C53.363 121.709 56.8564 116.818 61.1657 116.818C65.4749 116.818 68.9683 121.709 68.9683 127.742C68.9683 133.775 65.4749 138.666 61.1657 138.666Z" fill="#FFB8B8"/>
<g clip-path="url(#clip1)">
<path d="M876.62 258.74C876.62 257.291 875.462 256.117 874.04 256.117C872.614 256.117 871.456 257.291 871.456 258.74V264.258C871.456 265.714 872.614 266.889 874.04 266.889C875.462 266.889 876.62 265.714 876.62 264.258V258.74ZM862.424 251.498C862.424 250.05 861.269 248.874 859.811 248.874C858.385 248.874 857.23 250.05 857.23 251.498V264.258C857.23 265.714 858.385 266.889 859.811 266.889C861.269 266.889 862.424 265.714 862.424 264.258V251.498V251.498ZM848.198 241.591C848.198 240.142 847.043 238.967 845.618 238.967C844.192 238.967 843.037 240.142 843.037 241.591V269.501C843.037 270.958 844.192 272.132 845.618 272.132C847.043 272.132 848.198 270.958 848.198 269.501V241.591ZM833.969 251.498C833.969 250.05 832.815 248.874 831.389 248.874C829.966 248.874 828.808 250.05 828.808 251.498V264.258C828.808 265.714 829.966 266.889 831.389 266.889C832.815 266.889 833.969 265.714 833.969 264.258V251.498V251.498ZM819.744 258.74C819.744 257.291 818.589 256.117 817.172 256.117C815.746 256.117 814.583 257.291 814.583 258.74V264.258C814.583 265.714 815.746 266.889 817.172 266.889C818.589 266.889 819.744 265.714 819.744 264.258V258.74ZM805.541 251.498C805.541 250.05 804.378 248.874 802.953 248.874C801.527 248.874 800.364 250.05 800.364 251.498V264.258C800.364 265.714 801.527 266.889 802.953 266.889C804.378 266.889 805.541 265.714 805.541 264.258V251.498V251.498ZM791.322 241.591C791.322 240.142 790.159 238.967 788.733 238.967C787.308 238.967 786.145 240.142 786.145 241.591V269.501C786.145 270.958 787.308 272.132 788.733 272.132C790.159 272.132 791.322 270.958 791.322 269.501V241.591ZM777.103 251.498C777.103 250.05 775.94 248.874 774.514 248.874C773.088 248.874 771.926 250.05 771.926 251.498V264.258C771.926 265.714 773.088 266.889 774.514 266.889C775.94 266.889 777.103 265.714 777.103 264.258V251.498ZM762.884 258.74C762.884 257.291 761.721 256.117 760.295 256.117C758.871 256.117 757.707 257.291 757.707 258.74V264.258C757.707 265.714 758.871 266.889 760.295 266.889C761.721 266.889 762.884 265.714 762.884 264.258V258.74ZM816.327 281.618C816.171 281.575 813.783 280.949 811.244 280.949C806.438 280.949 803.545 283.588 803.545 287.519C803.545 290.999 805.965 292.735 808.87 293.668C809.192 293.776 809.667 293.927 809.983 294.034C811.276 294.448 812.308 295.063 812.308 296.128C812.308 297.319 811.115 298.09 808.522 298.09C806.243 298.09 804.058 297.427 803.597 297.309V302.145C803.854 302.201 806.451 302.719 809.225 302.719C813.215 302.719 817.779 300.946 817.779 295.666C817.779 293.105 816.238 290.748 812.854 289.654L811.415 289.188C810.557 288.912 809.025 288.466 809.025 287.186C809.025 286.175 810.16 285.464 812.251 285.464C814.054 285.464 816.249 286.08 816.327 286.105V281.618V281.618ZM860.391 291.834C860.391 294.892 858.089 297.366 854.998 297.366C851.905 297.366 849.608 294.892 849.608 291.834C849.608 288.782 851.905 286.307 854.998 286.307C858.089 286.307 860.391 288.782 860.391 291.834V291.834ZM854.998 280.955C848.643 280.955 844.085 285.831 844.085 291.834C844.085 297.847 848.643 302.719 854.998 302.719C861.353 302.719 865.918 297.847 865.918 291.834C865.918 285.831 861.353 280.955 854.998 280.955V280.955ZM784.17 281.708C783.68 281.561 781.869 280.955 779.416 280.955C773.071 280.955 768.413 285.557 768.413 291.834C768.413 298.606 773.555 302.719 779.416 302.719C781.745 302.719 783.522 302.158 784.17 301.971V296.329C783.946 296.456 782.242 297.445 779.79 297.445C776.316 297.445 774.075 294.958 774.075 291.834C774.075 288.615 776.413 286.228 779.79 286.228C782.284 286.228 783.961 287.239 784.17 287.35V281.708V281.708ZM838.595 281.708C838.102 281.561 836.289 280.955 833.844 280.955C827.489 280.955 822.831 285.557 822.831 291.834C822.831 298.606 827.979 302.719 833.844 302.719C836.16 302.719 837.94 302.158 838.595 301.971V296.329C838.366 296.456 836.66 297.445 834.208 297.445C830.737 297.445 828.499 294.958 828.499 291.834C828.499 288.615 830.837 286.228 834.208 286.228C836.702 286.228 838.382 287.239 838.595 287.35V281.708V281.708ZM796.552 302.345H791.338V281.328H796.552V302.345Z" fill="#00BCEB"/>
</g>
<path fill-rule="evenodd" clip-rule="evenodd" d="M417.18 259.182C401.43 259.182 388.662 246.414 388.662 230.665C388.662 214.915 401.43 202.147 417.18 202.147C432.93 202.147 445.697 214.915 445.697 230.665C445.697 246.414 432.93 259.182 417.18 259.182ZM417.18 253.997C430.066 253.997 440.512 243.551 440.512 230.665C440.512 217.778 430.066 207.332 417.18 207.332C404.293 207.332 393.847 217.778 393.847 230.665C393.847 243.551 404.293 253.997 417.18 253.997ZM430.142 228.072H419.772V215.109H414.587V233.257H430.142V228.072Z" fill="black"/>
<path fill-rule="evenodd" clip-rule="evenodd" d="M592.953 217.702V207.474C604.619 208.764 613.693 218.655 613.693 230.665C613.693 243.551 603.247 253.997 590.36 253.997C577.474 253.997 567.028 243.551 567.028 230.665C567.028 224.374 569.525 218.487 573.893 214.135L570.233 210.462C564.898 215.777 561.843 222.982 561.843 230.665C561.843 246.414 574.61 259.182 590.36 259.182C606.11 259.182 618.878 246.414 618.878 230.665C618.878 214.915 606.11 202.147 590.36 202.147H587.768V217.702H592.953ZM590.361 225.48C589.896 225.48 589.446 225.541 589.018 225.655L579.231 215.869L575.565 219.535L585.351 229.322C585.237 229.75 585.176 230.2 585.176 230.665C585.176 233.528 587.497 235.85 590.361 235.85C593.224 235.85 595.546 233.528 595.546 230.665C595.546 227.801 593.224 225.48 590.361 225.48Z" fill="black"/>
<path fill-rule="evenodd" clip-rule="evenodd" d="M519.307 287.46L522.973 283.793L532.047 292.867L528.381 296.533L519.307 287.46ZM478.363 311.552C478.363 325.87 489.971 337.477 504.289 337.477C518.607 337.477 530.214 325.87 530.214 311.552C530.214 297.233 518.607 285.626 504.289 285.626C489.971 285.626 478.363 297.233 478.363 311.552ZM525.029 311.552C525.029 323.006 515.743 332.292 504.288 332.292C492.834 332.292 483.548 323.006 483.548 311.552C483.548 300.097 492.834 290.811 504.288 290.811C515.743 290.811 525.029 300.097 525.029 311.552ZM489.271 287.46L485.604 283.793L476.53 292.867L480.197 296.534L489.271 287.46ZM493.918 314.144V308.959H501.696V301.181H506.881V308.959H514.659V314.144H506.881V321.922H501.696V314.144H493.918Z" fill="black"/>
<path fill-rule="evenodd" clip-rule="evenodd" d="M401.624 295.997H406.809V293.404H427.55V295.997H432.735V293.404H437.92V301.181H396.44V293.404H401.624V295.997ZM396.44 306.367V332.292H437.92V306.367H396.44ZM406.809 288.219H427.55V285.626H432.735V288.219H437.92C440.784 288.219 443.105 290.541 443.105 293.404V332.292C443.105 335.156 440.784 337.477 437.92 337.477H396.439C393.576 337.477 391.254 335.156 391.254 332.292V293.404C391.254 290.541 393.576 288.219 396.439 288.219H401.624V285.626H406.809V288.219Z" fill="black"/>
<path fill-rule="evenodd" clip-rule="evenodd" d="M493.918 215.11H488.733V212.517H483.548V220.295H525.029V212.517H519.843V215.11H514.658V212.517H493.918V215.11ZM525.029 225.48H483.548V251.405H525.029V225.48ZM514.658 207.332H493.918V204.74H488.733V207.332H483.548C480.684 207.332 478.363 209.654 478.363 212.517V251.405C478.363 254.269 480.684 256.59 483.548 256.59H525.029C527.892 256.59 530.214 254.269 530.214 251.405V212.517C530.214 209.654 527.892 207.332 525.029 207.332H519.843V204.74H514.658V207.332ZM496.511 235.85H491.326V230.665H496.511V235.85ZM501.696 235.85H506.881V230.665H501.696V235.85ZM517.251 235.85H512.066V230.665H517.251V235.85ZM491.326 246.22H496.511V241.035H491.326V246.22ZM506.881 246.22H501.696V241.035H506.881V246.22Z" fill="black"/>
<path fill-rule="evenodd" clip-rule="evenodd" d="M660.877 215.11H666.062V212.517H686.803V215.11H691.988V212.517H697.173V220.295H655.693V212.517H660.877V215.11ZM655.693 225.48V251.405H697.173V225.48H655.693ZM666.062 207.332H686.803V204.74H691.988V207.332H697.173C700.036 207.332 702.358 209.654 702.358 212.517V251.405C702.358 254.269 700.036 256.59 697.173 256.59H655.692C652.829 256.59 650.507 254.269 650.507 251.405V212.517C650.507 209.654 652.829 207.332 655.692 207.332H660.877V204.74H666.062V207.332ZM666.062 241.035V235.85H673.84V228.072H679.025V235.85H686.803V241.035H679.025V248.812H673.84V241.035H666.062Z" fill="black"/>
<path fill-rule="evenodd" clip-rule="evenodd" d="M579.99 295.996H574.805V293.404H569.62V301.181H611.1V293.404H605.915V295.996H600.73V293.404H579.99V295.996ZM569.62 332.292V306.366H611.1V332.292H569.62ZM600.73 288.219H579.99V285.626H574.805V288.219H569.62C566.756 288.219 564.435 290.54 564.435 293.404V332.292C564.435 335.155 566.756 337.477 569.62 337.477H611.101C613.964 337.477 616.286 335.155 616.286 332.292V293.404C616.286 290.54 613.964 288.219 611.101 288.219H605.915V285.626H600.73V288.219ZM598.897 309.718L587.768 320.848L581.823 314.904L578.157 318.57L587.768 328.181L602.564 313.385L598.897 309.718Z" fill="black"/>
<path fill-rule="evenodd" clip-rule="evenodd" d="M666.062 295.997H658.58C663.585 290.271 669.068 288.219 676.432 288.219C689.319 288.219 699.765 298.665 699.765 311.552C699.765 324.438 689.319 334.885 676.432 334.885C663.546 334.885 653.1 324.438 653.1 311.552H647.915C647.915 327.302 660.682 340.07 676.432 340.07C692.182 340.07 704.95 327.302 704.95 311.552C704.95 295.802 692.182 283.034 676.432 283.034C668.102 283.034 661.492 285.395 655.692 291.476V285.604H650.507V301.182H666.062V295.997ZM689.395 308.959H679.025V295.996H673.84V314.144H689.395V308.959Z" fill="black"/>
</g>
<defs>
<clipPath id="clip0">
<rect width="973.836" height="555.517" fill="white" transform="translate(0.0319824 0.48291)"/>
</clipPath>
<clipPath id="clip1">
<rect width="119.712" height="64.5637" fill="white" transform="translate(757.311 238.562)"/>
</clipPath>
</defs>
</svg>
