<svg width="724" height="413" viewBox="0 0 724 413" fill="none" xmlns="http://www.w3.org/2000/svg">
<path d="M651.701 192.002C651.701 190.925 650.84 190.052 649.783 190.052C648.723 190.052 647.862 190.925 647.862 192.002V196.104C647.862 197.187 648.723 198.06 649.783 198.06C650.84 198.06 651.701 197.187 651.701 196.104V192.002ZM641.147 186.618C641.147 185.541 640.288 184.667 639.204 184.667C638.144 184.667 637.285 185.541 637.285 186.618V196.104C637.285 197.187 638.144 198.06 639.204 198.06C640.288 198.06 641.147 197.187 641.147 196.104V186.618V186.618ZM630.571 179.252C630.571 178.175 629.712 177.302 628.652 177.302C627.592 177.302 626.734 178.175 626.734 179.252V200.002C626.734 201.085 627.592 201.958 628.652 201.958C629.712 201.958 630.571 201.085 630.571 200.002V179.252ZM619.992 186.618C619.992 185.541 619.134 184.667 618.074 184.667C617.016 184.667 616.155 185.541 616.155 186.618V196.104C616.155 197.187 617.016 198.06 618.074 198.06C619.134 198.06 619.992 197.187 619.992 196.104V186.618V186.618ZM609.416 192.002C609.416 190.925 608.558 190.052 607.504 190.052C606.444 190.052 605.579 190.925 605.579 192.002V196.104C605.579 197.187 606.444 198.06 607.504 198.06C608.558 198.06 609.416 197.187 609.416 196.104V192.002ZM598.857 186.618C598.857 185.541 597.992 184.667 596.933 184.667C595.873 184.667 595.008 185.541 595.008 186.618V196.104C595.008 197.187 595.873 198.06 596.933 198.06C597.992 198.06 598.857 197.187 598.857 196.104V186.618V186.618ZM588.286 179.252C588.286 178.175 587.421 177.302 586.361 177.302C585.302 177.302 584.437 178.175 584.437 179.252V200.002C584.437 201.085 585.302 201.958 586.361 201.958C587.421 201.958 588.286 201.085 588.286 200.002V179.252ZM577.715 186.618C577.715 185.541 576.85 184.667 575.79 184.667C574.73 184.667 573.866 185.541 573.866 186.618V196.104C573.866 197.187 574.73 198.06 575.79 198.06C576.85 198.06 577.715 197.187 577.715 196.104V186.618ZM567.143 192.002C567.143 190.925 566.279 190.052 565.219 190.052C564.16 190.052 563.294 190.925 563.294 192.002V196.104C563.294 197.187 564.16 198.06 565.219 198.06C566.279 198.06 567.143 197.187 567.143 196.104V192.002ZM606.876 209.011C606.76 208.979 604.984 208.513 603.097 208.513C599.524 208.513 597.373 210.475 597.373 213.398C597.373 215.985 599.172 217.275 601.332 217.969C601.572 218.05 601.924 218.162 602.159 218.241C603.121 218.549 603.888 219.006 603.888 219.798C603.888 220.683 603.001 221.256 601.073 221.256C599.379 221.256 597.754 220.764 597.412 220.676V224.272C597.603 224.313 599.533 224.698 601.596 224.698C604.562 224.698 607.956 223.38 607.956 219.455C607.956 217.551 606.81 215.798 604.294 214.985L603.224 214.638C602.586 214.433 601.447 214.102 601.447 213.15C601.447 212.399 602.291 211.87 603.845 211.87C605.186 211.87 606.818 212.328 606.876 212.346V209.011V209.011ZM639.636 216.606C639.636 218.879 637.924 220.719 635.626 220.719C633.326 220.719 631.619 218.879 631.619 216.606C631.619 214.337 633.326 212.497 635.626 212.497C637.924 212.497 639.636 214.337 639.636 216.606V216.606ZM635.626 208.518C630.901 208.518 627.513 212.143 627.513 216.606C627.513 221.076 630.901 224.698 635.626 224.698C640.351 224.698 643.744 221.076 643.744 216.606C643.744 212.143 640.351 208.518 635.626 208.518V208.518ZM582.969 209.078C582.605 208.968 581.258 208.518 579.434 208.518C574.717 208.518 571.254 211.939 571.254 216.606C571.254 221.64 575.077 224.698 579.434 224.698C581.166 224.698 582.487 224.281 582.969 224.142V219.948C582.802 220.042 581.535 220.777 579.712 220.777C577.13 220.777 575.464 218.928 575.464 216.606C575.464 214.213 577.202 212.438 579.712 212.438C581.566 212.438 582.813 213.189 582.969 213.272V209.078V209.078ZM623.431 209.078C623.064 208.968 621.717 208.518 619.899 208.518C615.174 208.518 611.711 211.939 611.711 216.606C611.711 221.64 615.539 224.698 619.899 224.698C621.621 224.698 622.944 224.281 623.431 224.142V219.948C623.261 220.042 621.992 220.777 620.17 220.777C617.589 220.777 615.925 218.928 615.925 216.606C615.925 214.213 617.664 212.438 620.17 212.438C622.023 212.438 623.273 213.189 623.431 213.272V209.078V209.078ZM592.174 224.42H588.298V208.795H592.174V224.42Z" fill="#00BCEB"/>
<rect x="132.77" y="49.77" width="307.724" height="335.23" rx="7.73608" fill="white"/>
<path d="M435.429 385H137.808C136.396 384.998 135.041 384.437 134.043 383.438C133.044 382.439 132.482 381.085 132.481 379.673V55.06C132.482 53.6476 133.044 52.2934 134.043 51.2947C135.041 50.296 136.396 49.7342 137.808 49.7327H435.429C436.841 49.7342 438.195 50.296 439.194 51.2947C440.193 52.2934 440.755 53.6476 440.756 55.06V379.673C440.755 381.085 440.193 382.439 439.194 383.438C438.195 384.437 436.841 384.998 435.429 385ZM137.808 51.8636C136.961 51.8645 136.148 52.2016 135.549 52.8008C134.95 53.4001 134.613 54.2126 134.612 55.06V379.673C134.613 380.52 134.95 381.333 135.549 381.932C136.148 382.531 136.961 382.868 137.808 382.869H435.429C436.276 382.868 437.089 382.531 437.688 381.932C438.287 381.333 438.624 380.52 438.625 379.673V55.06C438.624 54.2126 438.287 53.4001 437.688 52.8008C437.089 52.2016 436.276 51.8645 435.429 51.8636H137.808Z" fill="#B0ADAD"/>
<path d="M199.223 170.731C203.085 170.731 206.215 167.601 206.215 163.74C206.215 159.878 203.085 156.748 199.223 156.748C195.362 156.748 192.232 159.878 192.232 163.74C192.232 167.601 195.362 170.731 199.223 170.731Z" fill="#D3D3D3"/>
<path d="M228.355 170.731C232.217 170.731 235.347 167.601 235.347 163.74C235.347 159.878 232.217 156.748 228.355 156.748C224.494 156.748 221.364 159.878 221.364 163.74C221.364 167.601 224.494 170.731 228.355 170.731Z" fill="#D3D3D3"/>
<path d="M257.487 170.731C261.348 170.731 264.478 167.601 264.478 163.74C264.478 159.878 261.348 156.748 257.487 156.748C253.625 156.748 250.495 159.878 250.495 163.74C250.495 167.601 253.625 170.731 257.487 170.731Z" fill="#6C63FF"/>
<path d="M286.619 170.731C290.48 170.731 293.61 167.601 293.61 163.74C293.61 159.878 290.48 156.748 286.619 156.748C282.757 156.748 279.627 159.878 279.627 163.74C279.627 167.601 282.757 170.731 286.619 170.731Z" fill="#6C63FF"/>
<path d="M315.75 170.731C319.612 170.731 322.742 167.601 322.742 163.74C322.742 159.878 319.612 156.748 315.75 156.748C311.889 156.748 308.759 159.878 308.759 163.74C308.759 167.601 311.889 170.731 315.75 170.731Z" fill="#6C63FF"/>
<path d="M344.882 170.731C348.743 170.731 351.874 167.601 351.874 163.74C351.874 159.878 348.743 156.748 344.882 156.748C341.021 156.748 337.89 159.878 337.89 163.74C337.89 167.601 341.021 170.731 344.882 170.731Z" fill="#D3D3D3"/>
<path d="M374.014 170.731C377.875 170.731 381.005 167.601 381.005 163.74C381.005 159.878 377.875 156.748 374.014 156.748C370.152 156.748 367.022 159.878 367.022 163.74C367.022 167.601 370.152 170.731 374.014 170.731Z" fill="#D3D3D3"/>
<path d="M199.223 192.872C203.085 192.872 206.215 189.741 206.215 185.88C206.215 182.019 203.085 178.888 199.223 178.888C195.362 178.888 192.232 182.019 192.232 185.88C192.232 189.741 195.362 192.872 199.223 192.872Z" fill="#D3D3D3"/>
<path d="M228.355 192.872C232.217 192.872 235.347 189.741 235.347 185.88C235.347 182.019 232.217 178.888 228.355 178.888C224.494 178.888 221.364 182.019 221.364 185.88C221.364 189.741 224.494 192.872 228.355 192.872Z" fill="#D3D3D3"/>
<path d="M257.487 192.872C261.348 192.872 264.478 189.741 264.478 185.88C264.478 182.019 261.348 178.888 257.487 178.888C253.625 178.888 250.495 182.019 250.495 185.88C250.495 189.741 253.625 192.872 257.487 192.872Z" fill="#D3D3D3"/>
<path d="M286.619 192.872C290.48 192.872 293.61 189.741 293.61 185.88C293.61 182.019 290.48 178.888 286.619 178.888C282.757 178.888 279.627 182.019 279.627 185.88C279.627 189.741 282.757 192.872 286.619 192.872Z" fill="#D3D3D3"/>
<path d="M315.75 192.872C319.612 192.872 322.742 189.741 322.742 185.88C322.742 182.019 319.612 178.888 315.75 178.888C311.889 178.888 308.759 182.019 308.759 185.88C308.759 189.741 311.889 192.872 315.75 192.872Z" fill="#D3D3D3"/>
<path d="M344.882 192.872C348.743 192.872 351.874 189.741 351.874 185.88C351.874 182.019 348.743 178.888 344.882 178.888C341.021 178.888 337.89 182.019 337.89 185.88C337.89 189.741 341.021 192.872 344.882 192.872Z" fill="#D3D3D3"/>
<path d="M374.014 192.872C377.875 192.872 381.005 189.741 381.005 185.88C381.005 182.019 377.875 178.888 374.014 178.888C370.152 178.888 367.022 182.019 367.022 185.88C367.022 189.741 370.152 192.872 374.014 192.872Z" fill="#D3D3D3"/>
<path d="M199.223 215.012C203.085 215.012 206.215 211.882 206.215 208.02C206.215 204.159 203.085 201.029 199.223 201.029C195.362 201.029 192.232 204.159 192.232 208.02C192.232 211.882 195.362 215.012 199.223 215.012Z" fill="#6C63FF"/>
<path d="M228.355 215.012C232.217 215.012 235.347 211.882 235.347 208.02C235.347 204.159 232.217 201.029 228.355 201.029C224.494 201.029 221.364 204.159 221.364 208.02C221.364 211.882 224.494 215.012 228.355 215.012Z" fill="#6C63FF"/>
<path d="M257.487 215.012C261.348 215.012 264.478 211.882 264.478 208.02C264.478 204.159 261.348 201.029 257.487 201.029C253.625 201.029 250.495 204.159 250.495 208.02C250.495 211.882 253.625 215.012 257.487 215.012Z" fill="#6C63FF"/>
<path d="M286.619 215.012C290.48 215.012 293.61 211.882 293.61 208.02C293.61 204.159 290.48 201.029 286.619 201.029C282.757 201.029 279.627 204.159 279.627 208.02C279.627 211.882 282.757 215.012 286.619 215.012Z" fill="#D3D3D3"/>
<path d="M315.75 215.012C319.612 215.012 322.742 211.882 322.742 208.02C322.742 204.159 319.612 201.029 315.75 201.029C311.889 201.029 308.759 204.159 308.759 208.02C308.759 211.882 311.889 215.012 315.75 215.012Z" fill="#D3D3D3"/>
<path d="M344.882 215.012C348.743 215.012 351.874 211.882 351.874 208.02C351.874 204.159 348.743 201.029 344.882 201.029C341.021 201.029 337.89 204.159 337.89 208.02C337.89 211.882 341.021 215.012 344.882 215.012Z" fill="#D3D3D3"/>
<path d="M374.014 215.012C377.875 215.012 381.005 211.882 381.005 208.02C381.005 204.159 377.875 201.029 374.014 201.029C370.152 201.029 367.022 204.159 367.022 208.02C367.022 211.882 370.152 215.012 374.014 215.012Z" fill="#D3D3D3"/>
<path d="M199.223 237.152C203.085 237.152 206.215 234.021 206.215 230.16C206.215 226.299 203.085 223.168 199.223 223.168C195.362 223.168 192.232 226.299 192.232 230.16C192.232 234.021 195.362 237.152 199.223 237.152Z" fill="#D3D3D3"/>
<path d="M228.355 237.152C232.217 237.152 235.347 234.021 235.347 230.16C235.347 226.299 232.217 223.168 228.355 223.168C224.494 223.168 221.364 226.299 221.364 230.16C221.364 234.021 224.494 237.152 228.355 237.152Z" fill="#D3D3D3"/>
<path d="M199.223 259.292C203.085 259.292 206.215 256.162 206.215 252.3C206.215 248.439 203.085 245.309 199.223 245.309C195.362 245.309 192.232 248.439 192.232 252.3C192.232 256.162 195.362 259.292 199.223 259.292Z" fill="#D3D3D3"/>
<path d="M228.355 259.292C232.217 259.292 235.347 256.162 235.347 252.3C235.347 248.439 232.217 245.309 228.355 245.309C224.494 245.309 221.364 248.439 221.364 252.3C221.364 256.162 224.494 259.292 228.355 259.292Z" fill="#D3D3D3"/>
<path d="M257.487 259.292C261.348 259.292 264.478 256.162 264.478 252.3C264.478 248.439 261.348 245.309 257.487 245.309C253.625 245.309 250.495 248.439 250.495 252.3C250.495 256.162 253.625 259.292 257.487 259.292Z" fill="#D3D3D3"/>
<path d="M257.487 237.152C261.348 237.152 264.478 234.021 264.478 230.16C264.478 226.299 261.348 223.168 257.487 223.168C253.625 223.168 250.495 226.299 250.495 230.16C250.495 234.021 253.625 237.152 257.487 237.152Z" fill="#D3D3D3"/>
<path d="M286.619 237.152C290.48 237.152 293.61 234.021 293.61 230.16C293.61 226.299 290.48 223.168 286.619 223.168C282.757 223.168 279.627 226.299 279.627 230.16C279.627 234.021 282.757 237.152 286.619 237.152Z" fill="#6C63FF"/>
<path d="M315.75 237.152C319.612 237.152 322.742 234.021 322.742 230.16C322.742 226.299 319.612 223.168 315.75 223.168C311.889 223.168 308.759 226.299 308.759 230.16C308.759 234.021 311.889 237.152 315.75 237.152Z" fill="#6C63FF"/>
<path d="M344.882 237.152C348.743 237.152 351.874 234.021 351.874 230.16C351.874 226.299 348.743 223.168 344.882 223.168C341.021 223.168 337.89 226.299 337.89 230.16C337.89 234.021 341.021 237.152 344.882 237.152Z" fill="#6C63FF"/>
<path d="M374.014 237.152C377.875 237.152 381.005 234.021 381.005 230.16C381.005 226.299 377.875 223.168 374.014 223.168C370.152 223.168 367.022 226.299 367.022 230.16C367.022 234.021 370.152 237.152 374.014 237.152Z" fill="#D3D3D3"/>
<path d="M233.692 101.94C232.584 101.958 231.528 102.411 230.75 103.201C229.973 103.991 229.538 105.055 229.538 106.163C229.538 107.271 229.973 108.335 230.75 109.125C231.528 109.915 232.584 110.368 233.692 110.387H339.59C340.145 110.396 340.696 110.297 341.213 110.093C341.729 109.889 342.2 109.586 342.599 109.2C342.999 108.815 343.318 108.354 343.539 107.845C343.76 107.335 343.878 106.788 343.887 106.233C343.896 105.677 343.796 105.126 343.592 104.61C343.388 104.094 343.084 103.623 342.698 103.224C342.311 102.825 341.85 102.507 341.341 102.286C340.831 102.066 340.283 101.948 339.728 101.94C339.682 101.939 339.636 101.939 339.59 101.94H233.692Z" fill="#C3C1DA"/>
<path d="M363.605 100.763C363.527 100.841 363.466 100.932 363.424 101.033C363.383 101.134 363.361 101.242 363.361 101.351C363.361 101.46 363.383 101.568 363.424 101.669C363.466 101.77 363.527 101.862 363.605 101.939L367.172 105.507H358.375C358.154 105.507 357.943 105.594 357.787 105.75C357.631 105.906 357.543 106.117 357.543 106.338C357.543 106.558 357.631 106.77 357.787 106.925C357.943 107.081 358.154 107.169 358.375 107.169H367.172L363.605 110.737C363.527 110.814 363.466 110.905 363.424 111.006C363.383 111.107 363.361 111.215 363.361 111.324C363.361 111.433 363.383 111.542 363.424 111.642C363.466 111.743 363.527 111.835 363.605 111.912C363.682 111.989 363.773 112.05 363.874 112.092C363.975 112.134 364.083 112.155 364.192 112.155C364.301 112.155 364.409 112.134 364.51 112.092C364.611 112.05 364.703 111.989 364.78 111.912L369.767 106.925C369.922 106.77 370.01 106.558 370.01 106.338C370.01 106.117 369.922 105.906 369.767 105.75L364.78 100.763C364.703 100.686 364.611 100.625 364.51 100.583C364.409 100.542 364.301 100.52 364.192 100.52C364.083 100.52 363.975 100.542 363.874 100.583C363.773 100.625 363.682 100.686 363.605 100.763Z" fill="#D3D3D3"/>
<path d="M209.632 100.763C209.71 100.841 209.771 100.932 209.813 101.033C209.854 101.134 209.876 101.242 209.876 101.351C209.876 101.46 209.854 101.568 209.813 101.669C209.771 101.77 209.71 101.862 209.632 101.939L206.065 105.507H214.862C215.083 105.507 215.294 105.594 215.45 105.75C215.606 105.906 215.694 106.117 215.694 106.338C215.694 106.558 215.606 106.77 215.45 106.925C215.294 107.081 215.083 107.169 214.862 107.169H206.065L209.632 110.737C209.788 110.893 209.876 111.104 209.876 111.324C209.876 111.545 209.788 111.756 209.632 111.912C209.477 112.068 209.265 112.155 209.045 112.155C208.824 112.155 208.613 112.068 208.457 111.912L203.47 106.925C203.315 106.77 203.227 106.558 203.227 106.338C203.227 106.117 203.315 105.906 203.47 105.75L208.457 100.763C208.534 100.686 208.626 100.625 208.727 100.583C208.828 100.542 208.936 100.52 209.045 100.52C209.154 100.52 209.262 100.542 209.363 100.583C209.464 100.625 209.555 100.686 209.632 100.763V100.763Z" fill="#D3D3D3"/>
<path d="M227.773 303.916C225.782 303.914 223.811 304.305 221.972 305.066C220.133 305.826 218.462 306.942 217.054 308.349C215.647 309.756 214.53 311.426 213.768 313.265C213.006 315.103 212.614 317.074 212.614 319.064C212.614 321.054 213.006 323.025 213.768 324.863C214.53 326.702 215.647 328.373 217.054 329.779C218.462 331.186 220.133 332.302 221.972 333.062C223.811 333.823 225.782 334.214 227.773 334.213H345.465C347.455 334.214 349.426 333.823 351.265 333.062C353.104 332.302 354.775 331.186 356.183 329.779C357.591 328.373 358.708 326.702 359.47 324.863C360.232 323.025 360.624 321.054 360.624 319.064C360.624 317.074 360.232 315.103 359.47 313.265C358.708 311.426 357.591 309.756 356.183 308.349C354.775 306.942 353.104 305.826 351.265 305.066C349.426 304.305 347.455 303.914 345.465 303.916H227.773Z" fill="#D3D3D3"/>
<path d="M137.344 78.6883C132.529 78.6883 127.823 77.2606 123.819 74.5856C119.816 71.9106 116.696 68.1086 114.853 63.6603C113.011 59.212 112.528 54.3172 113.468 49.5949C114.407 44.8726 116.726 40.5348 120.13 37.1302C123.535 33.7257 127.873 31.4071 132.595 30.4678C137.317 29.5285 142.212 30.0105 146.66 31.8531C151.109 33.6956 154.911 36.8159 157.586 40.8193C160.261 44.8227 161.688 49.5293 161.688 54.3442C161.681 60.7984 159.114 66.9862 154.55 71.55C149.986 76.1139 143.798 78.681 137.344 78.6883V78.6883Z" fill="#6C63FF"/>
<path d="M146.95 51.9428H139.746V44.7386C139.746 44.1017 139.493 43.4909 139.042 43.0405C138.592 42.5902 137.981 42.3372 137.344 42.3372C136.707 42.3372 136.096 42.5902 135.646 43.0405C135.196 43.4909 134.943 44.1017 134.943 44.7386V51.9428H127.739C127.102 51.9428 126.491 52.1958 126.041 52.6462C125.59 53.0965 125.337 53.7073 125.337 54.3442C125.337 54.9811 125.59 55.5919 126.041 56.0423C126.491 56.4926 127.102 56.7456 127.739 56.7456H134.943V63.9498C134.943 64.5867 135.196 65.1975 135.646 65.6479C136.096 66.0982 136.707 66.3512 137.344 66.3512C137.981 66.3512 138.592 66.0982 139.042 65.6479C139.493 65.1975 139.746 64.5867 139.746 63.9498V56.7456H146.95C147.587 56.7456 148.197 56.4926 148.648 56.0423C149.098 55.5919 149.351 54.9811 149.351 54.3442C149.351 53.7073 149.098 53.0965 148.648 52.6462C148.197 52.1958 147.587 51.9428 146.95 51.9428Z" fill="white"/>
</svg>
