<svg width="1023" height="564" viewBox="0 0 1023 564" fill="none" xmlns="http://www.w3.org/2000/svg">
<rect x="138.312" y="22.3122" width="183.431" height="87.8619" rx="43.9309" fill="#DBDDE0" stroke="#076DF9" stroke-width="4.62431"/>
<path d="M219.183 43.2083V41.004H210.213V52.8731H212.96V48.5494H218.453V46.3451H212.96V43.2083H219.183ZM227.451 43.7509V48.2611C227.451 49.9398 226.57 50.7197 225.349 50.7197C224.179 50.7197 223.501 50.0415 223.501 48.5155V43.7509H220.856V48.9055C220.856 51.7201 222.466 53.0088 224.755 53.0088C225.874 53.0088 226.892 52.5849 227.587 51.7879V52.8731H230.096V43.7509H227.451ZM232.83 52.8731H235.475V40.2919H232.83V52.8731ZM238.212 52.8731H240.857V40.2919H238.212V52.8731ZM250.106 43.7509L247.528 49.9398L244.968 43.7509H242.238L246.189 52.9409L246.155 53.0257C245.799 53.8396 245.392 54.1617 244.663 54.1617C244.137 54.1617 243.578 53.9413 243.171 53.5853L242.204 55.4673C242.798 55.993 243.815 56.2982 244.748 56.2982C246.392 56.2982 247.647 55.6369 248.529 53.4326L252.649 43.7509H250.106ZM185.364 63.7509V68.2611C185.364 69.9398 184.483 70.7197 183.262 70.7197C182.092 70.7197 181.414 70.0415 181.414 68.5155V63.7509H178.769V68.9055C178.769 71.7201 180.379 73.0088 182.668 73.0088C183.787 73.0088 184.805 72.5849 185.5 71.7879V72.8731H188.009V63.7509H185.364ZM196.287 63.6152C195.049 63.6152 193.981 64.0391 193.269 64.8191V63.7509H190.743V72.8731H193.388V68.3629C193.388 66.6842 194.303 65.9043 195.575 65.9043C196.745 65.9043 197.423 66.5825 197.423 68.0577V72.8731H200.068V67.6507C200.068 64.87 198.44 63.6152 196.287 63.6152ZM209.495 60.2919V64.7174C208.833 63.9713 207.884 63.6152 206.765 63.6152C204.187 63.6152 202.204 65.4465 202.204 68.312C202.204 71.1775 204.187 73.0088 206.765 73.0088C207.985 73.0088 208.952 72.6188 209.613 71.8218V72.8731H212.14V60.2919H209.495ZM207.222 70.8384C205.9 70.8384 204.883 69.8889 204.883 68.312C204.883 66.7351 205.9 65.7856 207.222 65.7856C208.528 65.7856 209.545 66.7351 209.545 68.312C209.545 69.8889 208.528 70.8384 207.222 70.8384ZM223.806 68.3459C223.806 65.4126 221.737 63.6152 219.058 63.6152C216.278 63.6152 214.192 65.5821 214.192 68.312C214.192 71.0249 216.244 73.0088 219.398 73.0088C221.042 73.0088 222.314 72.5001 223.162 71.5336L221.754 70.0076C221.127 70.601 220.432 70.8893 219.465 70.8893C218.075 70.8893 217.109 70.1941 216.854 69.0581H223.755C223.772 68.8376 223.806 68.5494 223.806 68.3459ZM219.075 65.616C220.262 65.616 221.127 66.3621 221.314 67.5151H216.82C217.007 66.3451 217.872 65.616 219.075 65.616ZM228.376 64.9547V63.7509H225.85V72.8731H228.495V68.5663C228.495 66.8199 229.461 66.023 230.919 66.023C231.123 66.023 231.292 66.0399 231.513 66.0569V63.6152C230.106 63.6152 229.02 64.073 228.376 64.9547ZM236.47 73.0088C239.2 73.0088 240.777 71.8049 240.777 70.1093C240.777 66.5147 235.267 68.0237 235.267 66.4638C235.267 65.9891 235.775 65.616 236.962 65.616C237.793 65.616 238.692 65.7856 239.59 66.2943L240.472 64.4122C239.607 63.9035 238.217 63.6152 236.962 63.6152C234.3 63.6152 232.74 64.8361 232.74 66.5655C232.74 70.211 238.251 68.685 238.251 70.1771C238.251 70.6858 237.793 71.008 236.572 71.008C235.453 71.008 234.215 70.6519 233.401 70.1263L232.52 72.0253C233.367 72.5849 234.927 73.0088 236.47 73.0088ZM247.863 70.5671C247.575 70.7875 247.185 70.9062 246.795 70.9062C246.083 70.9062 245.659 70.4823 245.659 69.7024V65.9891H247.931V63.9544H245.659V61.7331H243.014V63.9544H241.607V65.9891H243.014V69.7363C243.014 71.9066 244.269 73.0088 246.422 73.0088C247.236 73.0088 248.033 72.8222 248.575 72.4323L247.863 70.5671ZM254.022 63.6152C252.564 63.6152 251.089 64.0052 250.089 64.7174L251.038 66.5655C251.699 66.0399 252.7 65.7178 253.666 65.7178C255.09 65.7178 255.769 66.379 255.769 67.5151H253.666C250.885 67.5151 249.749 68.6342 249.749 70.245C249.749 71.8218 251.021 73.0088 253.158 73.0088C254.497 73.0088 255.447 72.5679 255.938 71.7371V72.8731H258.414V67.6677C258.414 64.9039 256.803 63.6152 254.022 63.6152ZM253.819 71.2284C252.886 71.2284 252.327 70.7875 252.327 70.1263C252.327 69.5159 252.717 69.0581 253.954 69.0581H255.769V69.9906C255.463 70.8215 254.7 71.2284 253.819 71.2284ZM266.635 63.6152C265.397 63.6152 264.329 64.0391 263.617 64.8191V63.7509H261.09V72.8731H263.735V68.3629C263.735 66.6842 264.651 65.9043 265.923 65.9043C267.093 65.9043 267.771 66.5825 267.771 68.0577V72.8731H270.416V67.6507C270.416 64.87 268.788 63.6152 266.635 63.6152ZM279.842 60.2919V64.7174C279.181 63.9713 278.232 63.6152 277.112 63.6152C274.535 63.6152 272.551 65.4465 272.551 68.312C272.551 71.1775 274.535 73.0088 277.112 73.0088C278.333 73.0088 279.3 72.6188 279.961 71.8218V72.8731H282.487V60.2919H279.842ZM277.57 70.8384C276.248 70.8384 275.23 69.8889 275.23 68.312C275.23 66.7351 276.248 65.7856 277.57 65.7856C278.876 65.7856 279.893 66.7351 279.893 68.312C279.893 69.8889 278.876 70.8384 277.57 70.8384ZM182.615 93.0088C184.531 93.0088 186.04 92.161 186.701 90.7028L184.649 89.5837C184.158 90.4654 183.429 90.8384 182.598 90.8384C181.258 90.8384 180.207 89.9058 180.207 88.312C180.207 86.7182 181.258 85.7856 182.598 85.7856C183.429 85.7856 184.158 86.1756 184.649 87.0403L186.701 85.9382C186.04 84.4461 184.531 83.6152 182.615 83.6152C179.647 83.6152 177.528 85.5652 177.528 88.312C177.528 91.0588 179.647 93.0088 182.615 93.0088ZM195.052 83.7509V88.2611C195.052 89.9398 194.17 90.7197 192.949 90.7197C191.779 90.7197 191.101 90.0415 191.101 88.5155V83.7509H188.456V88.9055C188.456 91.7201 190.067 93.0088 192.356 93.0088C193.475 93.0088 194.492 92.5849 195.187 91.7879V92.8731H197.697V83.7509H195.052ZM202.956 84.9547V83.7509H200.43V92.8731H203.075V88.5663C203.075 86.8199 204.041 86.023 205.5 86.023C205.703 86.023 205.873 86.0399 206.093 86.0569V83.6152C204.686 83.6152 203.6 84.073 202.956 84.9547ZM210.475 84.9547V83.7509H207.948V92.8731H210.593V88.5663C210.593 86.8199 211.56 86.023 213.018 86.023C213.222 86.023 213.391 86.0399 213.612 86.0569V83.6152C212.204 83.6152 211.119 84.073 210.475 84.9547ZM224.32 88.3459C224.32 85.4126 222.251 83.6152 219.572 83.6152C216.792 83.6152 214.706 85.5821 214.706 88.312C214.706 91.0249 216.758 93.0088 219.911 93.0088C221.556 93.0088 222.828 92.5001 223.676 91.5336L222.268 90.0076C221.641 90.601 220.946 90.8893 219.979 90.8893C218.589 90.8893 217.622 90.1941 217.368 89.0581H224.269C224.286 88.8376 224.32 88.5494 224.32 88.3459ZM219.589 85.616C220.776 85.616 221.641 86.3621 221.827 87.5151H217.334C217.521 86.3451 218.385 85.616 219.589 85.616ZM231.908 83.6152C230.67 83.6152 229.602 84.0391 228.89 84.8191V83.7509H226.364V92.8731H229.009V88.3629C229.009 86.6842 229.924 85.9043 231.196 85.9043C232.366 85.9043 233.044 86.5825 233.044 88.0577V92.8731H235.689V87.6507C235.689 84.87 234.061 83.6152 231.908 83.6152ZM243.541 90.5671C243.253 90.7875 242.863 90.9062 242.473 90.9062C241.761 90.9062 241.337 90.4823 241.337 89.7024V85.9891H243.609V83.9544H241.337V81.7331H238.692V83.9544H237.284V85.9891H238.692V89.7363C238.692 91.9066 239.946 93.0088 242.1 93.0088C242.914 93.0088 243.711 92.8222 244.253 92.4323L243.541 90.5671ZM254.784 83.6152C253.326 83.6152 251.851 84.0052 250.851 84.7174L251.8 86.5655C252.462 86.0399 253.462 85.7178 254.428 85.7178C255.853 85.7178 256.531 86.379 256.531 87.5151H254.428C251.648 87.5151 250.512 88.6342 250.512 90.245C250.512 91.8218 251.783 93.0088 253.92 93.0088C255.259 93.0088 256.209 92.5679 256.7 91.7371V92.8731H259.176V87.6677C259.176 84.9039 257.565 83.6152 254.784 83.6152ZM254.581 91.2284C253.648 91.2284 253.089 90.7875 253.089 90.1263C253.089 89.5159 253.479 89.0581 254.717 89.0581H256.531V89.9906C256.226 90.8215 255.463 91.2284 254.581 91.2284ZM267.245 83.6152C266.024 83.6152 265.04 84.0052 264.379 84.8021V83.7509H261.853V96.1625H264.498V91.9066C265.176 92.6527 266.108 93.0088 267.245 93.0088C269.805 93.0088 271.789 91.1775 271.789 88.312C271.789 85.4465 269.805 83.6152 267.245 83.6152ZM266.787 90.8384C265.464 90.8384 264.464 89.8889 264.464 88.312C264.464 86.7351 265.464 85.7856 266.787 85.7856C268.109 85.7856 269.11 86.7351 269.11 88.312C269.11 89.8889 268.109 90.8384 266.787 90.8384ZM279.234 83.6152C278.013 83.6152 277.03 84.0052 276.368 84.8021V83.7509H273.842V96.1625H276.487V91.9066C277.165 92.6527 278.098 93.0088 279.234 93.0088C281.794 93.0088 283.778 91.1775 283.778 88.312C283.778 85.4465 281.794 83.6152 279.234 83.6152ZM278.776 90.8384C277.454 90.8384 276.453 89.8889 276.453 88.312C276.453 86.7351 277.454 85.7856 278.776 85.7856C280.099 85.7856 281.099 86.7351 281.099 88.312C281.099 89.8889 280.099 90.8384 278.776 90.8384Z" fill="#076DF9"/>
<rect x="399.273" y="19.3122" width="151.061" height="87.8619" rx="43.9309" fill="#DBDDE0" stroke="#076DF9" stroke-width="4.62431"/>
<path d="M449.489 60H452.236V50.3691H456.034V48.1309H445.691V50.3691H449.489V60ZM460.824 50.7421C459.365 50.7421 457.89 51.1321 456.89 51.8443L457.839 53.6924C458.501 53.1668 459.501 52.8447 460.468 52.8447C461.892 52.8447 462.57 53.5059 462.57 54.642H460.468C457.687 54.642 456.551 55.761 456.551 57.3719C456.551 58.9487 457.822 60.1356 459.959 60.1356C461.298 60.1356 462.248 59.6948 462.74 58.864V60H465.215V54.7946C465.215 52.0308 463.604 50.7421 460.824 50.7421ZM460.62 58.3553C459.688 58.3553 459.128 57.9144 459.128 57.2532C459.128 56.6428 459.518 56.1849 460.756 56.1849H462.57V57.1175C462.265 57.9483 461.502 58.3553 460.62 58.3553ZM467.892 60H470.537V47.4188H467.892V60ZM480.074 60H483.278L479.141 54.7437L482.939 50.8778H479.785L475.919 54.5402V47.4188H473.274V60H475.919V57.6771L477.191 56.4223L480.074 60ZM495.006 57.694C494.718 57.9144 494.328 58.0331 493.938 58.0331C493.226 58.0331 492.802 57.6092 492.802 56.8293V53.1159H495.074V51.0812H492.802V48.86H490.157V51.0812H488.75V53.1159H490.157V56.8632C490.157 59.0335 491.412 60.1356 493.565 60.1356C494.379 60.1356 495.176 59.9491 495.719 59.5591L495.006 57.694ZM501.545 60.1356C504.445 60.1356 506.547 58.1857 506.547 55.4389C506.547 52.692 504.445 50.7421 501.545 50.7421C498.646 50.7421 496.526 52.692 496.526 55.4389C496.526 58.1857 498.646 60.1356 501.545 60.1356ZM501.545 57.9653C500.223 57.9653 499.205 57.0158 499.205 55.4389C499.205 53.862 500.223 52.9125 501.545 52.9125C502.868 52.9125 503.868 53.862 503.868 55.4389C503.868 57.0158 502.868 57.9653 501.545 57.9653ZM459.748 70.8778V75.388C459.748 77.0666 458.867 77.8466 457.646 77.8466C456.476 77.8466 455.798 77.1684 455.798 75.6424V70.8778H453.152V76.0323C453.152 78.847 454.763 80.1356 457.052 80.1356C458.171 80.1356 459.189 79.7118 459.884 78.9148V80H462.393V70.8778H459.748ZM468.195 80.1356C470.925 80.1356 472.502 78.9318 472.502 77.2362C472.502 73.6416 466.992 75.1506 466.992 73.5907C466.992 73.1159 467.5 72.7429 468.687 72.7429C469.518 72.7429 470.417 72.9125 471.315 73.4211L472.197 71.5391C471.332 71.0304 469.942 70.7421 468.687 70.7421C466.025 70.7421 464.465 71.9629 464.465 73.6924C464.465 77.3379 469.976 75.8119 469.976 77.304C469.976 77.8127 469.518 78.1349 468.297 78.1349C467.178 78.1349 465.94 77.7788 465.126 77.2532L464.245 79.1522C465.093 79.7118 466.653 80.1356 468.195 80.1356ZM483.353 75.4728C483.353 72.5394 481.284 70.7421 478.605 70.7421C475.824 70.7421 473.739 72.709 473.739 75.4389C473.739 78.1518 475.79 80.1356 478.944 80.1356C480.589 80.1356 481.86 79.627 482.708 78.6605L481.301 77.1345C480.674 77.7279 479.978 78.0162 479.012 78.0162C477.622 78.0162 476.655 77.321 476.401 76.1849H483.302C483.319 75.9645 483.353 75.6763 483.353 75.4728ZM478.622 72.7429C479.809 72.7429 480.674 73.489 480.86 74.642H476.367C476.553 73.472 477.418 72.7429 478.622 72.7429ZM487.923 72.0816V70.8778H485.396V80H488.041V75.6932C488.041 73.9468 489.008 73.1499 490.466 73.1499C490.669 73.1499 490.839 73.1668 491.059 73.1838V70.7421C489.652 70.7421 488.567 71.1999 487.923 72.0816ZM496.017 80.1356C498.747 80.1356 500.324 78.9318 500.324 77.2362C500.324 73.6416 494.813 75.1506 494.813 73.5907C494.813 73.1159 495.322 72.7429 496.509 72.7429C497.339 72.7429 498.238 72.9125 499.137 73.4211L500.018 71.5391C499.154 71.0304 497.763 70.7421 496.509 70.7421C493.847 70.7421 492.287 71.9629 492.287 73.6924C492.287 77.3379 497.797 75.8119 497.797 77.304C497.797 77.8127 497.339 78.1349 496.119 78.1349C495 78.1349 493.762 77.7788 492.948 77.2532L492.066 79.1522C492.914 79.7118 494.474 80.1356 496.017 80.1356Z" fill="#076DF9"/>
<rect x="384.312" y="174.312" width="220.425" height="87.8619" rx="43.9309" fill="#DBDDE0" stroke="#076DF9" stroke-width="4.62431" stroke-dasharray="7.71 7.71"/>
<path d="M480.04 214.995L477.378 211.18C478.921 210.518 479.819 209.213 479.819 207.432C479.819 204.77 477.836 203.126 474.665 203.126H469.527V214.995H472.274V211.688H474.665H474.801L477.09 214.995H480.04ZM477.039 207.432C477.039 208.721 476.191 209.501 474.512 209.501H472.274V205.364H474.512C476.191 205.364 477.039 206.127 477.039 207.432ZM485.688 205.737C484.23 205.737 482.755 206.127 481.755 206.839L482.704 208.687C483.366 208.161 484.366 207.839 485.332 207.839C486.757 207.839 487.435 208.501 487.435 209.637H485.332C482.552 209.637 481.416 210.756 481.416 212.366C481.416 213.943 482.687 215.13 484.824 215.13C486.163 215.13 487.113 214.689 487.604 213.859V214.995H490.08V209.789C490.08 207.025 488.469 205.737 485.688 205.737ZM485.485 213.35C484.552 213.35 483.993 212.909 483.993 212.248C483.993 211.637 484.383 211.18 485.621 211.18H487.435V212.112C487.13 212.943 486.367 213.35 485.485 213.35ZM498.148 205.737C496.928 205.737 495.944 206.127 495.283 206.924V205.872H492.757V218.284H495.402V214.028C496.08 214.774 497.012 215.13 498.148 215.13C500.709 215.13 502.693 213.299 502.693 210.434C502.693 207.568 500.709 205.737 498.148 205.737ZM497.691 212.96C496.368 212.96 495.368 212.01 495.368 210.434C495.368 208.857 496.368 207.907 497.691 207.907C499.013 207.907 500.014 208.857 500.014 210.434C500.014 212.01 499.013 212.96 497.691 212.96ZM506.068 204.601C507.052 204.601 507.713 203.956 507.713 203.075C507.713 202.261 507.052 201.65 506.068 201.65C505.085 201.65 504.424 202.295 504.424 203.126C504.424 203.956 505.085 204.601 506.068 204.601ZM504.746 214.995H507.391V205.872H504.746V214.995ZM516.775 202.413V206.839C516.114 206.093 515.164 205.737 514.045 205.737C511.468 205.737 509.484 207.568 509.484 210.434C509.484 213.299 511.468 215.13 514.045 215.13C515.266 215.13 516.233 214.74 516.894 213.943V214.995H519.42V202.413H516.775ZM514.503 212.96C513.181 212.96 512.163 212.01 512.163 210.434C512.163 208.857 513.181 207.907 514.503 207.907C515.809 207.907 516.826 208.857 516.826 210.434C516.826 212.01 515.809 212.96 514.503 212.96ZM446.239 223.126H441.101V234.995H443.848V231.722H446.239C449.41 231.722 451.394 230.077 451.394 227.432C451.394 224.77 449.41 223.126 446.239 223.126ZM446.086 229.484H443.848V225.364H446.086C447.765 225.364 448.613 226.127 448.613 227.432C448.613 228.721 447.765 229.484 446.086 229.484ZM455.977 227.076V225.872H453.451V234.995H456.096V230.688C456.096 228.941 457.062 228.144 458.521 228.144C458.724 228.144 458.894 228.161 459.114 228.178V225.737C457.707 225.737 456.622 226.195 455.977 227.076ZM465.227 235.13C468.127 235.13 470.229 233.18 470.229 230.434C470.229 227.687 468.127 225.737 465.227 225.737C462.328 225.737 460.208 227.687 460.208 230.434C460.208 233.18 462.328 235.13 465.227 235.13ZM465.227 232.96C463.905 232.96 462.887 232.01 462.887 230.434C462.887 228.857 463.905 227.907 465.227 227.907C466.55 227.907 467.55 228.857 467.55 230.434C467.55 232.01 466.55 232.96 465.227 232.96ZM477.451 232.689C477.163 232.909 476.773 233.028 476.383 233.028C475.671 233.028 475.247 232.604 475.247 231.824V228.111H477.519V226.076H475.247V223.855H472.602V226.076H471.195V228.111H472.602V231.858C472.602 234.028 473.857 235.13 476.01 235.13C476.824 235.13 477.621 234.944 478.164 234.554L477.451 232.689ZM483.99 235.13C486.89 235.13 488.992 233.18 488.992 230.434C488.992 227.687 486.89 225.737 483.99 225.737C481.091 225.737 478.971 227.687 478.971 230.434C478.971 233.18 481.091 235.13 483.99 235.13ZM483.99 232.96C482.668 232.96 481.65 232.01 481.65 230.434C481.65 228.857 482.668 227.907 483.99 227.907C485.313 227.907 486.313 228.857 486.313 230.434C486.313 232.01 485.313 232.96 483.99 232.96ZM496.214 232.689C495.926 232.909 495.536 233.028 495.146 233.028C494.434 233.028 494.01 232.604 494.01 231.824V228.111H496.282V226.076H494.01V223.855H491.365V226.076H489.958V228.111H491.365V231.858C491.365 234.028 492.62 235.13 494.773 235.13C495.587 235.13 496.384 234.944 496.926 234.554L496.214 232.689ZM505.039 225.872L502.462 232.061L499.902 225.872H497.172L501.122 235.062L501.089 235.147C500.733 235.961 500.326 236.283 499.596 236.283C499.071 236.283 498.511 236.063 498.104 235.707L497.138 237.589C497.731 238.114 498.749 238.42 499.681 238.42C501.326 238.42 502.581 237.758 503.462 235.554L507.583 225.872H505.039ZM514.337 225.737C513.116 225.737 512.132 226.127 511.471 226.924V225.872H508.945V238.284H511.59V234.028C512.268 234.774 513.2 235.13 514.337 235.13C516.897 235.13 518.881 233.299 518.881 230.434C518.881 227.568 516.897 225.737 514.337 225.737ZM513.879 232.96C512.556 232.96 511.556 232.01 511.556 230.434C511.556 228.857 512.556 227.907 513.879 227.907C515.201 227.907 516.202 228.857 516.202 230.434C516.202 232.01 515.201 232.96 513.879 232.96ZM522.257 224.601C523.24 224.601 523.901 223.956 523.901 223.075C523.901 222.261 523.24 221.65 522.257 221.65C521.273 221.65 520.612 222.295 520.612 223.126C520.612 223.956 521.273 224.601 522.257 224.601ZM520.934 234.995H523.579V225.872H520.934V234.995ZM531.861 225.737C530.623 225.737 529.555 226.161 528.843 226.941V225.872H526.317V234.995H528.962V230.484C528.962 228.806 529.877 228.026 531.149 228.026C532.319 228.026 532.997 228.704 532.997 230.179V234.995H535.642V229.772C535.642 226.991 534.014 225.737 531.861 225.737ZM545.323 225.872V227.042C544.628 226.161 543.576 225.737 542.305 225.737C539.778 225.737 537.744 227.483 537.744 230.145C537.744 232.807 539.778 234.554 542.305 234.554C543.492 234.554 544.492 234.181 545.187 233.418V233.808C545.187 235.452 544.373 236.3 542.508 236.3C541.338 236.3 540.067 235.893 539.287 235.266L538.235 237.165C539.304 237.996 540.982 238.42 542.712 238.42C546.001 238.42 547.832 236.86 547.832 233.469V225.872H545.323ZM542.83 232.383C541.44 232.383 540.423 231.485 540.423 230.145C540.423 228.806 541.44 227.907 542.83 227.907C544.221 227.907 545.221 228.806 545.221 230.145C545.221 231.485 544.221 232.383 542.83 232.383Z" fill="#076DF9"/>
<rect x="679.312" y="170.312" width="220.425" height="87.8619" rx="43.9309" fill="#DBDDE0" stroke="#076DF9" stroke-width="4.62431" stroke-dasharray="7.71 7.71"/>
<path d="M736.565 210.995H739.312V199.126H736.565V210.995ZM747.769 201.737C746.532 201.737 745.463 202.161 744.751 202.941V201.872H742.225V210.995H744.87V206.484C744.87 204.806 745.786 204.026 747.057 204.026C748.227 204.026 748.905 204.704 748.905 206.179V210.995H751.551V205.772C751.551 202.991 749.923 201.737 747.769 201.737ZM757.13 201.686C757.13 200.787 757.554 200.363 758.334 200.363C758.741 200.363 759.114 200.482 759.402 200.686L760.097 198.769C759.606 198.43 758.826 198.278 758.08 198.278C755.808 198.278 754.553 199.617 754.553 201.669V202.076H753.146V204.111H754.553V210.995H757.198V204.111H759.47V202.076H757.13V201.686ZM765.295 211.13C768.195 211.13 770.297 209.18 770.297 206.434C770.297 203.687 768.195 201.737 765.295 201.737C762.396 201.737 760.276 203.687 760.276 206.434C760.276 209.18 762.396 211.13 765.295 211.13ZM765.295 208.96C763.973 208.96 762.955 208.01 762.955 206.434C762.955 204.857 763.973 203.907 765.295 203.907C766.618 203.907 767.618 204.857 767.618 206.434C767.618 208.01 766.618 208.96 765.295 208.96ZM774.874 203.076V201.872H772.348V210.995H774.993V206.688C774.993 204.941 775.959 204.144 777.418 204.144C777.621 204.144 777.791 204.161 778.011 204.178V201.737C776.604 201.737 775.519 202.195 774.874 203.076ZM791.549 201.737C790.176 201.737 788.989 202.296 788.26 203.229C787.615 202.228 786.53 201.737 785.258 201.737C784.088 201.737 783.071 202.144 782.393 202.924V201.872H779.866V210.995H782.512V206.417C782.512 204.789 783.342 204.026 784.512 204.026C785.614 204.026 786.242 204.704 786.242 206.179V210.995H788.887V206.417C788.887 204.789 789.718 204.026 790.905 204.026C791.973 204.026 792.634 204.704 792.634 206.179V210.995H795.279V205.772C795.279 202.991 793.719 201.737 791.549 201.737ZM801.612 201.737C800.154 201.737 798.679 202.127 797.678 202.839L798.628 204.687C799.289 204.161 800.29 203.839 801.256 203.839C802.68 203.839 803.359 204.501 803.359 205.637H801.256C798.475 205.637 797.339 206.756 797.339 208.366C797.339 209.943 798.611 211.13 800.747 211.13C802.087 211.13 803.036 210.689 803.528 209.859V210.995H806.004V205.789C806.004 203.025 804.393 201.737 801.612 201.737ZM801.409 209.35C800.476 209.35 799.917 208.909 799.917 208.248C799.917 207.637 800.307 207.18 801.544 207.18H803.359V208.112C803.053 208.943 802.29 209.35 801.409 209.35ZM813.852 208.689C813.564 208.909 813.174 209.028 812.784 209.028C812.071 209.028 811.648 208.604 811.648 207.824V204.111H813.92V202.076H811.648V199.855H809.002V202.076H807.595V204.111H809.002V207.858C809.002 210.028 810.257 211.13 812.411 211.13C813.224 211.13 814.021 210.944 814.564 210.554L813.852 208.689ZM817.654 200.601C818.637 200.601 819.299 199.956 819.299 199.075C819.299 198.261 818.637 197.65 817.654 197.65C816.671 197.65 816.009 198.295 816.009 199.126C816.009 199.956 816.671 200.601 817.654 200.601ZM816.331 210.995H818.977V201.872H816.331V210.995ZM826.055 211.13C828.954 211.13 831.057 209.18 831.057 206.434C831.057 203.687 828.954 201.737 826.055 201.737C823.155 201.737 821.036 203.687 821.036 206.434C821.036 209.18 823.155 211.13 826.055 211.13ZM826.055 208.96C824.732 208.96 823.715 208.01 823.715 206.434C823.715 204.857 824.732 203.907 826.055 203.907C827.377 203.907 828.378 204.857 828.378 206.434C828.378 208.01 827.377 208.96 826.055 208.96ZM838.652 201.737C837.414 201.737 836.346 202.161 835.634 202.941V201.872H833.107V210.995H835.752V206.484C835.752 204.806 836.668 204.026 837.94 204.026C839.11 204.026 839.788 204.704 839.788 206.179V210.995H842.433V205.772C842.433 202.991 840.805 201.737 838.652 201.737ZM738.137 221.737C736.678 221.737 735.203 222.127 734.203 222.839L735.152 224.687C735.814 224.161 736.814 223.839 737.781 223.839C739.205 223.839 739.883 224.501 739.883 225.637H737.781C735 225.637 733.864 226.756 733.864 228.366C733.864 229.943 735.136 231.13 737.272 231.13C738.611 231.13 739.561 230.689 740.053 229.859V230.995H742.528V225.789C742.528 223.025 740.917 221.737 738.137 221.737ZM737.933 229.35C737.001 229.35 736.441 228.909 736.441 228.248C736.441 227.637 736.831 227.18 738.069 227.18H739.883V228.112C739.578 228.943 738.815 229.35 737.933 229.35ZM747.731 223.076V221.872H745.205V230.995H747.85V226.688C747.85 224.941 748.816 224.144 750.275 224.144C750.478 224.144 750.648 224.161 750.868 224.178V221.737C749.461 221.737 748.376 222.195 747.731 223.076ZM757.049 231.13C758.965 231.13 760.474 230.282 761.135 228.824L759.084 227.705C758.592 228.587 757.863 228.96 757.032 228.96C755.693 228.96 754.641 228.027 754.641 226.434C754.641 224.84 755.693 223.907 757.032 223.907C757.863 223.907 758.592 224.297 759.084 225.162L761.135 224.06C760.474 222.568 758.965 221.737 757.049 221.737C754.082 221.737 751.962 223.687 751.962 226.434C751.962 229.18 754.082 231.13 757.049 231.13ZM768.419 221.737C767.249 221.737 766.232 222.11 765.52 222.822V218.413H762.875V230.995H765.52V226.484C765.52 224.806 766.436 224.026 767.707 224.026C768.877 224.026 769.555 224.704 769.555 226.179V230.995H772.2V225.772C772.2 222.991 770.573 221.737 768.419 221.737ZM776.203 220.601C777.187 220.601 777.848 219.956 777.848 219.075C777.848 218.261 777.187 217.65 776.203 217.65C775.22 217.65 774.559 218.295 774.559 219.126C774.559 219.956 775.22 220.601 776.203 220.601ZM774.881 230.995H777.526V221.872H774.881V230.995ZM785.435 228.689C785.147 228.909 784.757 229.028 784.367 229.028C783.654 229.028 783.231 228.604 783.231 227.824V224.111H785.503V222.076H783.231V219.855H780.585V222.076H779.178V224.111H780.585V227.858C780.585 230.028 781.84 231.13 783.994 231.13C784.807 231.13 785.604 230.944 786.147 230.554L785.435 228.689ZM796.569 226.467C796.569 223.534 794.5 221.737 791.821 221.737C789.04 221.737 786.955 223.704 786.955 226.434C786.955 229.146 789.006 231.13 792.16 231.13C793.805 231.13 795.077 230.622 795.924 229.655L794.517 228.129C793.89 228.723 793.194 229.011 792.228 229.011C790.838 229.011 789.871 228.316 789.617 227.18H796.518C796.535 226.959 796.569 226.671 796.569 226.467ZM791.838 223.738C793.025 223.738 793.89 224.484 794.076 225.637H789.583C789.769 224.467 790.634 223.738 791.838 223.738ZM803.021 231.13C804.937 231.13 806.446 230.282 807.107 228.824L805.055 227.705C804.564 228.587 803.835 228.96 803.004 228.96C801.664 228.96 800.613 228.027 800.613 226.434C800.613 224.84 801.664 223.907 803.004 223.907C803.835 223.907 804.564 224.297 805.055 225.162L807.107 224.06C806.446 222.568 804.937 221.737 803.021 221.737C800.053 221.737 797.934 223.687 797.934 226.434C797.934 229.18 800.053 231.13 803.021 231.13ZM814.217 228.689C813.928 228.909 813.538 229.028 813.148 229.028C812.436 229.028 812.012 228.604 812.012 227.824V224.111H814.284V222.076H812.012V219.855H809.367V222.076H807.96V224.111H809.367V227.858C809.367 230.028 810.622 231.13 812.775 231.13C813.589 231.13 814.386 230.944 814.929 230.554L814.217 228.689ZM823.241 221.872V226.383C823.241 228.061 822.359 228.841 821.139 228.841C819.969 228.841 819.29 228.163 819.29 226.637V221.872H816.645V227.027C816.645 229.842 818.256 231.13 820.545 231.13C821.664 231.13 822.682 230.706 823.377 229.909V230.995H825.886V221.872H823.241ZM831.146 223.076V221.872H828.619V230.995H831.264V226.688C831.264 224.941 832.231 224.144 833.689 224.144C833.893 224.144 834.062 224.161 834.283 224.178V221.737C832.875 221.737 831.79 222.195 831.146 223.076ZM844.991 226.467C844.991 223.534 842.922 221.737 840.243 221.737C837.463 221.737 835.377 223.704 835.377 226.434C835.377 229.146 837.429 231.13 840.582 231.13C842.227 231.13 843.499 230.622 844.347 229.655L842.939 228.129C842.312 228.723 841.617 229.011 840.65 229.011C839.26 229.011 838.293 228.316 838.039 227.18H844.94C844.957 226.959 844.991 226.671 844.991 226.467ZM840.26 223.738C841.447 223.738 842.312 224.484 842.498 225.637H838.005C838.192 224.467 839.056 223.738 840.26 223.738Z" fill="#076DF9"/>
<rect x="81.3122" y="174.312" width="228.133" height="87.8619" rx="43.9309" fill="#DBDDE0" stroke="#076DF9" stroke-width="4.62431" stroke-dasharray="7.71 7.71"/>
<path d="M158.584 193.087L155.82 201.497L153.107 193.087H150.564L147.766 201.429L145.087 193.087H142.239L146.138 204.956H149.072L151.768 196.919L154.379 204.956H157.329L161.212 193.087H158.584ZM164.33 194.562C165.313 194.562 165.975 193.918 165.975 193.036C165.975 192.222 165.313 191.612 164.33 191.612C163.346 191.612 162.685 192.256 162.685 193.087C162.685 193.918 163.346 194.562 164.33 194.562ZM163.007 204.956H165.652V195.834H163.007V204.956ZM170.916 197.038V195.834H168.39V204.956H171.035V200.649C171.035 198.903 172.001 198.106 173.46 198.106C173.663 198.106 173.833 198.123 174.053 198.14V195.698C172.646 195.698 171.561 196.156 170.916 197.038ZM184.761 200.429C184.761 197.495 182.693 195.698 180.014 195.698C177.233 195.698 175.147 197.665 175.147 200.395C175.147 203.108 177.199 205.092 180.353 205.092C181.998 205.092 183.269 204.583 184.117 203.616L182.71 202.09C182.082 202.684 181.387 202.972 180.421 202.972C179.03 202.972 178.064 202.277 177.81 201.141H184.711C184.727 200.921 184.761 200.632 184.761 200.429ZM180.031 197.699C181.218 197.699 182.082 198.445 182.269 199.598H177.776C177.962 198.428 178.827 197.699 180.031 197.699ZM189.704 195.647C189.704 194.749 190.128 194.325 190.908 194.325C191.315 194.325 191.688 194.443 191.977 194.647L192.672 192.731C192.18 192.392 191.4 192.239 190.654 192.239C188.382 192.239 187.127 193.579 187.127 195.63V196.037H185.72V198.072H187.127V204.956H189.772V198.072H192.044V196.037H189.704V195.647ZM197.529 197.038V195.834H195.003V204.956H197.648V200.649C197.648 198.903 198.614 198.106 200.072 198.106C200.276 198.106 200.445 198.123 200.666 198.14V195.698C199.258 195.698 198.173 196.156 197.529 197.038ZM206.151 195.698C204.693 195.698 203.218 196.088 202.217 196.8L203.167 198.648C203.828 198.123 204.828 197.801 205.795 197.801C207.219 197.801 207.897 198.462 207.897 199.598H205.795C203.014 199.598 201.878 200.717 201.878 202.328C201.878 203.905 203.15 205.092 205.286 205.092C206.626 205.092 207.575 204.651 208.067 203.82V204.956H210.542V199.751C210.542 196.987 208.932 195.698 206.151 195.698ZM205.947 203.311C205.015 203.311 204.455 202.87 204.455 202.209C204.455 201.599 204.845 201.141 206.083 201.141H207.897V202.074C207.592 202.904 206.829 203.311 205.947 203.311ZM224.902 195.698C223.528 195.698 222.341 196.258 221.612 197.19C220.968 196.19 219.883 195.698 218.611 195.698C217.441 195.698 216.424 196.105 215.745 196.885V195.834H213.219V204.956H215.864V200.378C215.864 198.75 216.695 197.987 217.865 197.987C218.967 197.987 219.594 198.665 219.594 200.141V204.956H222.239V200.378C222.239 198.75 223.07 197.987 224.257 197.987C225.325 197.987 225.987 198.665 225.987 200.141V204.956H228.632V199.734C228.632 196.953 227.072 195.698 224.902 195.698ZM240.32 200.429C240.32 197.495 238.252 195.698 235.573 195.698C232.792 195.698 230.706 197.665 230.706 200.395C230.706 203.108 232.758 205.092 235.912 205.092C237.557 205.092 238.828 204.583 239.676 203.616L238.269 202.09C237.641 202.684 236.946 202.972 235.98 202.972C234.589 202.972 233.623 202.277 233.368 201.141H240.269C240.286 200.921 240.32 200.632 240.32 200.429ZM235.59 197.699C236.777 197.699 237.641 198.445 237.828 199.598H233.335C233.521 198.428 234.386 197.699 235.59 197.699ZM245.433 205.092C248.163 205.092 249.74 203.888 249.74 202.192C249.74 198.598 244.229 200.107 244.229 198.547C244.229 198.072 244.738 197.699 245.925 197.699C246.756 197.699 247.654 197.868 248.553 198.377L249.435 196.495C248.57 195.986 247.179 195.698 245.925 195.698C243.263 195.698 241.703 196.919 241.703 198.648C241.703 202.294 247.213 200.768 247.213 202.26C247.213 202.769 246.756 203.091 245.535 203.091C244.416 203.091 243.178 202.735 242.364 202.209L241.482 204.108C242.33 204.668 243.89 205.092 245.433 205.092ZM201.811 223.481L200.421 222.192C200.929 221.429 201.285 220.514 201.506 219.496L199.386 218.835C199.251 219.53 199.047 220.158 198.793 220.683L196.623 218.665C198.233 217.784 198.946 216.885 198.946 215.664C198.946 213.986 197.589 212.934 195.537 212.934C193.299 212.934 191.841 214.121 191.841 215.851C191.841 216.699 192.197 217.462 193.062 218.36C191.248 219.378 190.451 220.412 190.451 221.904C190.451 223.803 192.367 225.159 194.978 225.159C196.504 225.159 197.86 224.685 198.946 223.837L200.37 225.159L201.811 223.481ZM195.537 214.732C196.3 214.732 196.707 215.139 196.707 215.715C196.707 216.258 196.334 216.699 195.164 217.326C194.435 216.614 194.249 216.275 194.249 215.817C194.249 215.189 194.724 214.732 195.537 214.732ZM195.164 223.091C193.859 223.091 193.045 222.48 193.045 221.616C193.045 220.887 193.435 220.344 194.52 219.717L197.386 222.396C196.741 222.853 195.978 223.091 195.164 223.091ZM143.637 244.956H149.029C152.911 244.956 155.574 242.616 155.574 239.021C155.574 235.427 152.911 233.087 149.029 233.087H143.637V244.956ZM146.383 242.701V235.342H148.893C151.25 235.342 152.793 236.749 152.793 239.021C152.793 241.294 151.25 242.701 148.893 242.701H146.383ZM159.064 234.562C160.047 234.562 160.708 233.918 160.708 233.036C160.708 232.222 160.047 231.612 159.064 231.612C158.08 231.612 157.419 232.256 157.419 233.087C157.419 233.918 158.08 234.562 159.064 234.562ZM157.741 244.956H160.386V235.834H157.741V244.956ZM166.193 245.092C168.923 245.092 170.5 243.888 170.5 242.192C170.5 238.598 164.989 240.107 164.989 238.547C164.989 238.072 165.498 237.699 166.684 237.699C167.515 237.699 168.414 237.868 169.313 238.377L170.194 236.495C169.33 235.986 167.939 235.698 166.684 235.698C164.022 235.698 162.462 236.919 162.462 238.648C162.462 242.294 167.973 240.768 167.973 242.26C167.973 242.769 167.515 243.091 166.294 243.091C165.175 243.091 163.938 242.735 163.124 242.209L162.242 244.108C163.09 244.668 164.65 245.092 166.193 245.092ZM176.823 245.092C178.739 245.092 180.248 244.244 180.909 242.786L178.857 241.667C178.366 242.548 177.636 242.921 176.806 242.921C175.466 242.921 174.415 241.989 174.415 240.395C174.415 238.801 175.466 237.868 176.806 237.868C177.636 237.868 178.366 238.258 178.857 239.123L180.909 238.021C180.248 236.529 178.739 235.698 176.823 235.698C173.855 235.698 171.736 237.648 171.736 240.395C171.736 243.142 173.855 245.092 176.823 245.092ZM189.259 235.834V240.344C189.259 242.023 188.378 242.803 187.157 242.803C185.987 242.803 185.309 242.124 185.309 240.598V235.834H182.664V240.988C182.664 243.803 184.274 245.092 186.563 245.092C187.683 245.092 188.7 244.668 189.395 243.871V244.956H191.905V235.834H189.259ZM197.707 245.092C200.437 245.092 202.013 243.888 202.013 242.192C202.013 238.598 196.503 240.107 196.503 238.547C196.503 238.072 197.011 237.699 198.198 237.699C199.029 237.699 199.928 237.868 200.827 238.377L201.708 236.495C200.843 235.986 199.453 235.698 198.198 235.698C195.536 235.698 193.976 236.919 193.976 238.648C193.976 242.294 199.487 240.768 199.487 242.26C199.487 242.769 199.029 243.091 197.808 243.091C196.689 243.091 195.452 242.735 194.638 242.209L193.756 244.108C194.604 244.668 196.164 245.092 197.707 245.092ZM206.997 245.092C209.727 245.092 211.304 243.888 211.304 242.192C211.304 238.598 205.793 240.107 205.793 238.547C205.793 238.072 206.302 237.699 207.489 237.699C208.32 237.699 209.218 237.868 210.117 238.377L210.999 236.495C210.134 235.986 208.743 235.698 207.489 235.698C204.827 235.698 203.267 236.919 203.267 238.648C203.267 242.294 208.777 240.768 208.777 242.26C208.777 242.769 208.32 243.091 207.099 243.091C205.98 243.091 204.742 242.735 203.928 242.209L203.046 244.108C203.894 244.668 205.454 245.092 206.997 245.092ZM214.541 234.562C215.524 234.562 216.186 233.918 216.186 233.036C216.186 232.222 215.524 231.612 214.541 231.612C213.558 231.612 212.896 232.256 212.896 233.087C212.896 233.918 213.558 234.562 214.541 234.562ZM213.218 244.956H215.864V235.834H213.218V244.956ZM222.942 245.092C225.841 245.092 227.944 243.142 227.944 240.395C227.944 237.648 225.841 235.698 222.942 235.698C220.042 235.698 217.923 237.648 217.923 240.395C217.923 243.142 220.042 245.092 222.942 245.092ZM222.942 242.921C221.619 242.921 220.602 241.972 220.602 240.395C220.602 238.818 221.619 237.868 222.942 237.868C224.264 237.868 225.265 238.818 225.265 240.395C225.265 241.972 224.264 242.921 222.942 242.921ZM235.539 235.698C234.301 235.698 233.233 236.122 232.521 236.902V235.834H229.994V244.956H232.639V240.446C232.639 238.767 233.555 237.987 234.827 237.987C235.997 237.987 236.675 238.665 236.675 240.141V244.956H239.32V239.734C239.32 236.953 237.692 235.698 235.539 235.698ZM245.069 245.092C247.799 245.092 249.376 243.888 249.376 242.192C249.376 238.598 243.865 240.107 243.865 238.547C243.865 238.072 244.374 237.699 245.561 237.699C246.392 237.699 247.29 237.868 248.189 238.377L249.071 236.495C248.206 235.986 246.816 235.698 245.561 235.698C242.899 235.698 241.339 236.919 241.339 238.648C241.339 242.294 246.85 240.768 246.85 242.26C246.85 242.769 246.392 243.091 245.171 243.091C244.052 243.091 242.814 242.735 242 242.209L241.119 244.108C241.966 244.668 243.526 245.092 245.069 245.092Z" fill="#076DF9"/>
<path d="M188 269L188 305.586C188 314.099 194.901 321 203.414 321L801.586 321C810.099 321 817 314.099 817 305.586V269" stroke="#1575F9" stroke-width="3.08287" stroke-linecap="square" stroke-dasharray="7.71 7.71"/>
<path d="M503 269V353" stroke="#1575F9" stroke-width="3.08287" stroke-linecap="square" stroke-dasharray="7.71 7.71"/>
<path fill-rule="evenodd" clip-rule="evenodd" d="M501.917 264L508.834 271.707H495L501.917 264Z" fill="#1575F9"/>
<path fill-rule="evenodd" clip-rule="evenodd" d="M816.917 264L823.834 271.707H810L816.917 264Z" fill="#1575F9"/>
<rect x="445.541" y="354.542" width="112.525" height="29.2873" rx="14.6436" stroke="#1575F9" stroke-width="3.08287"/>
<path d="M470.755 375H473.175V364.542H470.755V375ZM480.05 372.968C479.796 373.162 479.452 373.267 479.108 373.267C478.481 373.267 478.107 372.893 478.107 372.206V368.934H480.109V367.142H478.107V365.184H475.777V367.142H474.537V368.934H475.777V372.236C475.777 374.148 476.882 375.12 478.78 375.12C479.497 375.12 480.199 374.955 480.677 374.612L480.05 372.968ZM489.611 371.011C489.611 368.426 487.788 366.843 485.428 366.843C482.977 366.843 481.14 368.576 481.14 370.981C481.14 373.372 482.947 375.12 485.726 375.12C487.176 375.12 488.296 374.671 489.043 373.82L487.803 372.475C487.25 372.998 486.638 373.252 485.786 373.252C484.561 373.252 483.709 372.639 483.485 371.638H489.566C489.581 371.444 489.611 371.19 489.611 371.011ZM485.442 368.606C486.488 368.606 487.25 369.263 487.415 370.279H483.455C483.62 369.248 484.382 368.606 485.442 368.606ZM493.388 368.023V366.962H491.162V375H493.493V371.205C493.493 369.666 494.345 368.964 495.63 368.964C495.809 368.964 495.958 368.979 496.152 368.994V366.843C494.912 366.843 493.956 367.246 493.388 368.023ZM500.736 366.843C499.452 366.843 498.152 367.186 497.27 367.814L498.107 369.442C498.69 368.979 499.571 368.695 500.423 368.695C501.678 368.695 502.275 369.278 502.275 370.279H500.423C497.973 370.279 496.972 371.265 496.972 372.684C496.972 374.074 498.092 375.12 499.975 375.12C501.155 375.12 501.991 374.731 502.425 373.999V375H504.606V370.413C504.606 367.978 503.187 366.843 500.736 366.843ZM500.557 373.551C499.735 373.551 499.242 373.162 499.242 372.58C499.242 372.042 499.586 371.638 500.677 371.638H502.275V372.46C502.006 373.192 501.334 373.551 500.557 373.551ZM511.272 372.968C511.018 373.162 510.674 373.267 510.331 373.267C509.703 373.267 509.33 372.893 509.33 372.206V368.934H511.332V367.142H509.33V365.184H506.999V367.142H505.759V368.934H506.999V372.236C506.999 374.148 508.105 375.12 510.002 375.12C510.719 375.12 511.421 374.955 511.899 374.612L511.272 372.968ZM514.373 365.842C515.24 365.842 515.822 365.274 515.822 364.497C515.822 363.78 515.24 363.242 514.373 363.242C513.507 363.242 512.924 363.81 512.924 364.542C512.924 365.274 513.507 365.842 514.373 365.842ZM513.208 375H515.538V366.962H513.208V375ZM521.526 375.12C524.081 375.12 525.933 373.401 525.933 370.981C525.933 368.561 524.081 366.843 521.526 366.843C518.971 366.843 517.104 368.561 517.104 370.981C517.104 373.401 518.971 375.12 521.526 375.12ZM521.526 373.207C520.361 373.207 519.464 372.371 519.464 370.981C519.464 369.592 520.361 368.755 521.526 368.755C522.691 368.755 523.573 369.592 523.573 370.981C523.573 372.371 522.691 373.207 521.526 373.207ZM532.377 366.843C531.286 366.843 530.345 367.216 529.717 367.903V366.962H527.491V375H529.822V371.026C529.822 369.547 530.629 368.86 531.749 368.86C532.78 368.86 533.378 369.457 533.378 370.757V375H535.708V370.398C535.708 367.948 534.274 366.843 532.377 366.843Z" fill="#1575F9"/>
<path d="M324.334 64.3009H390.068" stroke="#076DF9" stroke-width="4.62431" stroke-linecap="square"/>
<path fill-rule="evenodd" clip-rule="evenodd" d="M396.503 64.3009L388.796 69.6959V58.9058L396.503 64.3009Z" fill="#076DF9"/>
<path d="M677.169 218.395H611.435" stroke="#076DF9" stroke-width="4.62431" stroke-linecap="square"/>
<path fill-rule="evenodd" clip-rule="evenodd" d="M605 218.395L612.707 213V223.79L605 218.395Z" fill="#076DF9"/>
<path d="M552.925 64.0136H618.659" stroke="#076DF9" stroke-width="4.62431" stroke-linecap="square"/>
<path fill-rule="evenodd" clip-rule="evenodd" d="M625.094 64.0136L617.387 69.4086V58.6185L625.094 64.0136Z" fill="#076DF9"/>
<path d="M382.169 218.395H316.435" stroke="#076DF9" stroke-width="4.62431" stroke-linecap="square"/>
<path fill-rule="evenodd" clip-rule="evenodd" d="M310 218.395L317.707 213V223.79L310 218.395Z" fill="#076DF9"/>
<path d="M810.5 53L989 53C994.523 53 999 57.4772 999 63V204C999 209.523 994.523 214 989 214H906.747" stroke="#076DF9" stroke-width="4.62"/>
<path fill-rule="evenodd" clip-rule="evenodd" d="M901.256 213.895L908 219.29V208.5L901.256 213.895Z" fill="#076DF9"/>
<path d="M78.3428 216L30 216C24.4772 216 20 220.477 20 226L20 489C20 494.523 24.4772 499 30 499H404" stroke="#076DF9" stroke-width="4.62"/>
<path fill-rule="evenodd" clip-rule="evenodd" d="M407.744 499.395L401 504.79V494L407.744 499.395Z" fill="#076DF9"/>
<rect x="626.273" y="16.3122" width="217.376" height="87.3757" rx="43.6878" fill="#DBDDE0" stroke="#076DF9" stroke-width="4.62431"/>
<path d="M687.177 57H690.059L684.752 45.1309H682.039L676.749 57H679.564L680.615 54.4566H686.125L687.177 57ZM681.497 52.3711L683.379 47.8269L685.261 52.3711H681.497ZM696.931 47.7421C695.693 47.7421 694.625 48.166 693.913 48.946V47.8778H691.387V57H694.032V52.4898C694.032 50.8111 694.947 50.0312 696.219 50.0312C697.389 50.0312 698.067 50.7094 698.067 52.1846V57H700.712V51.7776C700.712 48.9969 699.085 47.7421 696.931 47.7421ZM707.072 47.7421C705.614 47.7421 704.139 48.1321 703.138 48.8443L704.088 50.6924C704.749 50.1668 705.749 49.8447 706.716 49.8447C708.14 49.8447 708.818 50.5059 708.818 51.642H706.716C703.935 51.642 702.799 52.761 702.799 54.3719C702.799 55.9487 704.071 57.1356 706.207 57.1356C707.547 57.1356 708.496 56.6948 708.988 55.864V57H711.464V51.7946C711.464 49.0308 709.853 47.7421 707.072 47.7421ZM706.869 55.3553C705.936 55.3553 705.376 54.9144 705.376 54.2532C705.376 53.6428 705.766 53.1849 707.004 53.1849H708.818V54.1175C708.513 54.9483 707.75 55.3553 706.869 55.3553ZM714.14 57H716.785V44.4188H714.14V57ZM726.034 47.8778L723.456 54.0666L720.896 47.8778H718.166L722.117 57.0678L722.083 57.1526C721.727 57.9665 721.32 58.2886 720.591 58.2886C720.065 58.2886 719.506 58.0682 719.099 57.7121L718.132 59.5942C718.726 60.1199 719.743 60.4251 720.676 60.4251C722.32 60.4251 723.575 59.7638 724.457 57.5595L728.577 47.8778H726.034ZM732.876 57.1356C735.605 57.1356 737.182 55.9318 737.182 54.2362C737.182 50.6416 731.672 52.1506 731.672 50.5907C731.672 50.1159 732.18 49.7429 733.367 49.7429C734.198 49.7429 735.097 49.9125 735.995 50.4211L736.877 48.5391C736.012 48.0304 734.622 47.7421 733.367 47.7421C730.705 47.7421 729.145 48.9629 729.145 50.6924C729.145 54.3379 734.656 52.8119 734.656 54.304C734.656 54.8127 734.198 55.1349 732.977 55.1349C731.858 55.1349 730.62 54.7788 729.807 54.2532L728.925 56.1522C729.773 56.7118 731.333 57.1356 732.876 57.1356ZM748.033 52.4728C748.033 49.5394 745.964 47.7421 743.285 47.7421C740.504 47.7421 738.419 49.709 738.419 52.4389C738.419 55.1518 740.47 57.1356 743.624 57.1356C745.269 57.1356 746.541 56.627 747.388 55.6605L745.981 54.1345C745.354 54.7279 744.658 55.0162 743.692 55.0162C742.302 55.0162 741.335 54.321 741.081 53.1849H747.982C747.999 52.9645 748.033 52.6763 748.033 52.4728ZM743.302 49.7429C744.489 49.7429 745.354 50.489 745.54 51.642H741.047C741.233 50.472 742.098 49.7429 743.302 49.7429ZM760.705 47.7421C759.468 47.7421 758.399 48.166 757.687 48.946V47.8778H755.161V57H757.806V52.4898C757.806 50.8111 758.722 50.0312 759.993 50.0312C761.163 50.0312 761.841 50.7094 761.841 52.1846V57H764.486V51.7776C764.486 48.9969 762.859 47.7421 760.705 47.7421ZM776.202 52.4728C776.202 49.5394 774.133 47.7421 771.454 47.7421C768.673 47.7421 766.588 49.709 766.588 52.4389C766.588 55.1518 768.64 57.1356 771.793 57.1356C773.438 57.1356 774.71 56.627 775.557 55.6605L774.15 54.1345C773.523 54.7279 772.828 55.0162 771.861 55.0162C770.471 55.0162 769.504 54.321 769.25 53.1849H776.151C776.168 52.9645 776.202 52.6763 776.202 52.4728ZM771.471 49.7429C772.658 49.7429 773.523 50.489 773.709 51.642H769.216C769.403 50.472 770.267 49.7429 771.471 49.7429ZM790.39 47.8778L788.169 54.0497L785.998 47.8778H783.76L781.522 54.0497L779.368 47.8778H776.876L780.165 57H782.709L784.828 51.3368L786.88 57H789.423L792.73 47.8778H790.39ZM676.6 69.0816V67.8778H674.073V77H676.718V72.6932C676.718 70.9468 677.685 70.1499 679.143 70.1499C679.346 70.1499 679.516 70.1668 679.736 70.1838V67.7421C678.329 67.7421 677.244 68.1999 676.6 69.0816ZM690.445 72.4728C690.445 69.5394 688.376 67.7421 685.697 67.7421C682.916 67.7421 680.831 69.709 680.831 72.4389C680.831 75.1518 682.882 77.1356 686.036 77.1356C687.681 77.1356 688.953 76.627 689.8 75.6605L688.393 74.1345C687.766 74.7279 687.071 75.0162 686.104 75.0162C684.714 75.0162 683.747 74.321 683.493 73.1849H690.394C690.411 72.9645 690.445 72.6763 690.445 72.4728ZM685.714 69.7429C686.901 69.7429 687.766 70.489 687.952 71.642H683.459C683.645 70.472 684.51 69.7429 685.714 69.7429ZM699.22 67.8778V68.929C698.559 68.1321 697.592 67.7421 696.371 67.7421C693.794 67.7421 691.81 69.5734 691.81 72.4389C691.81 75.3044 693.794 77.1356 696.371 77.1356C697.49 77.1356 698.44 76.7796 699.101 76.0335V80.2894H701.746V67.8778H699.22ZM696.829 74.9653C695.506 74.9653 694.489 74.0158 694.489 72.4389C694.489 70.862 695.506 69.9125 696.829 69.9125C698.135 69.9125 699.152 70.862 699.152 72.4389C699.152 74.0158 698.135 74.9653 696.829 74.9653ZM711.023 67.8778V72.388C711.023 74.0666 710.141 74.8466 708.92 74.8466C707.75 74.8466 707.072 74.1684 707.072 72.6424V67.8778H704.427V73.0323C704.427 75.847 706.038 77.1356 708.327 77.1356C709.446 77.1356 710.463 76.7118 711.158 75.9148V77H713.668V67.8778H711.023ZM717.723 66.6061C718.707 66.6061 719.368 65.9618 719.368 65.0801C719.368 64.2662 718.707 63.6558 717.723 63.6558C716.74 63.6558 716.079 64.3001 716.079 65.1309C716.079 65.9618 716.74 66.6061 717.723 66.6061ZM716.401 77H719.046V67.8778H716.401V77ZM724.31 69.0816V67.8778H721.783V77H724.429V72.6932C724.429 70.9468 725.395 70.1499 726.853 70.1499C727.057 70.1499 727.226 70.1668 727.447 70.1838V67.7421C726.039 67.7421 724.954 68.1999 724.31 69.0816ZM738.155 72.4728C738.155 69.5394 736.086 67.7421 733.407 67.7421C730.627 67.7421 728.541 69.709 728.541 72.4389C728.541 75.1518 730.593 77.1356 733.747 77.1356C735.391 77.1356 736.663 76.627 737.511 75.6605L736.103 74.1345C735.476 74.7279 734.781 75.0162 733.814 75.0162C732.424 75.0162 731.457 74.321 731.203 73.1849H738.104C738.121 72.9645 738.155 72.6763 738.155 72.4728ZM733.424 69.7429C734.611 69.7429 735.476 70.489 735.663 71.642H731.169C731.356 70.472 732.22 69.7429 733.424 69.7429ZM751.881 67.7421C750.508 67.7421 749.321 68.3017 748.592 69.2342C747.947 68.2339 746.862 67.7421 745.591 67.7421C744.421 67.7421 743.403 68.1491 742.725 68.929V67.8778H740.199V77H742.844V72.4219C742.844 70.7942 743.675 70.0312 744.845 70.0312C745.947 70.0312 746.574 70.7094 746.574 72.1846V77H749.219V72.4219C749.219 70.7942 750.05 70.0312 751.237 70.0312C752.305 70.0312 752.966 70.7094 752.966 72.1846V77H755.611V71.7776C755.611 68.9969 754.052 67.7421 751.881 67.7421ZM767.3 72.4728C767.3 69.5394 765.231 67.7421 762.552 67.7421C759.772 67.7421 757.686 69.709 757.686 72.4389C757.686 75.1518 759.738 77.1356 762.892 77.1356C764.536 77.1356 765.808 76.627 766.656 75.6605L765.248 74.1345C764.621 74.7279 763.926 75.0162 762.959 75.0162C761.569 75.0162 760.602 74.321 760.348 73.1849H767.249C767.266 72.9645 767.3 72.6763 767.3 72.4728ZM762.569 69.7429C763.756 69.7429 764.621 70.489 764.808 71.642H760.314C760.501 70.472 761.365 69.7429 762.569 69.7429ZM774.888 67.7421C773.65 67.7421 772.582 68.166 771.87 68.946V67.8778H769.344V77H771.989V72.4898C771.989 70.8111 772.904 70.0312 774.176 70.0312C775.346 70.0312 776.024 70.7094 776.024 72.1846V77H778.669V71.7776C778.669 68.9969 777.042 67.7421 774.888 67.7421ZM786.521 74.694C786.233 74.9144 785.843 75.0331 785.453 75.0331C784.741 75.0331 784.317 74.6092 784.317 73.8293V70.1159H786.589V68.0812H784.317V65.86H781.672V68.0812H780.264V70.1159H781.672V73.8632C781.672 76.0335 782.926 77.1356 785.08 77.1356C785.894 77.1356 786.691 76.9491 787.233 76.5591L786.521 74.694ZM792.07 77.1356C794.8 77.1356 796.376 75.9318 796.376 74.2362C796.376 70.6416 790.866 72.1506 790.866 70.5907C790.866 70.1159 791.374 69.7429 792.561 69.7429C793.392 69.7429 794.291 69.9125 795.19 70.4211L796.071 68.5391C795.206 68.0304 793.816 67.7421 792.561 67.7421C789.899 67.7421 788.339 68.9629 788.339 70.6924C788.339 74.3379 793.85 72.8119 793.85 74.304C793.85 74.8127 793.392 75.1349 792.171 75.1349C791.052 75.1349 789.815 74.7788 789.001 74.2532L788.119 76.1522C788.967 76.7118 790.527 77.1356 792.07 77.1356Z" fill="#076DF9"/>
<rect x="409.312" y="449.312" width="184.972" height="87.8619" rx="43.9309" fill="#DBDDE0" stroke="#076DF9" stroke-width="4.62431"/>
<path d="M467.031 479.956H472.423C476.305 479.956 478.968 477.616 478.968 474.021C478.968 470.427 476.305 468.087 472.423 468.087H467.031V479.956ZM469.777 477.701V470.342H472.287C474.644 470.342 476.187 471.749 476.187 474.021C476.187 476.293 474.644 477.701 472.287 477.701H469.777ZM490.071 475.429C490.071 472.495 488.002 470.698 485.323 470.698C482.542 470.698 480.457 472.665 480.457 475.395C480.457 478.108 482.509 480.092 485.662 480.092C487.307 480.092 488.579 479.583 489.427 478.616L488.019 477.09C487.392 477.684 486.697 477.972 485.73 477.972C484.34 477.972 483.373 477.277 483.119 476.141H490.02C490.037 475.92 490.071 475.632 490.071 475.429ZM485.34 472.699C486.527 472.699 487.392 473.445 487.578 474.598H483.085C483.272 473.428 484.136 472.699 485.34 472.699ZM492.114 479.956H494.76V467.375H492.114V479.956ZM498.82 469.562C499.803 469.562 500.464 468.918 500.464 468.036C500.464 467.222 499.803 466.612 498.82 466.612C497.836 466.612 497.175 467.256 497.175 468.087C497.175 468.918 497.836 469.562 498.82 469.562ZM497.497 479.956H500.142V470.834H497.497V479.956ZM509.391 470.834L506.779 477.04L504.253 470.834H501.523L505.355 479.956H508.085L511.934 470.834H509.391ZM521.983 475.429C521.983 472.495 519.915 470.698 517.236 470.698C514.455 470.698 512.369 472.665 512.369 475.395C512.369 478.108 514.421 480.092 517.575 480.092C519.22 480.092 520.491 479.583 521.339 478.616L519.932 477.09C519.304 477.684 518.609 477.972 517.643 477.972C516.252 477.972 515.286 477.277 515.031 476.141H521.932C521.949 475.92 521.983 475.632 521.983 475.429ZM517.253 472.699C518.44 472.699 519.304 473.445 519.491 474.598H514.998C515.184 473.428 516.049 472.699 517.253 472.699ZM526.553 472.038V470.834H524.027V479.956H526.672V475.649C526.672 473.903 527.638 473.106 529.097 473.106C529.3 473.106 529.47 473.123 529.69 473.14V470.698C528.283 470.698 527.198 471.156 526.553 472.038ZM538.371 470.834L535.794 477.023L533.234 470.834H530.504L534.454 480.024L534.42 480.109C534.064 480.922 533.657 481.245 532.928 481.245C532.403 481.245 531.843 481.024 531.436 480.668L530.47 482.55C531.063 483.076 532.081 483.381 533.013 483.381C534.658 483.381 535.913 482.72 536.794 480.515L540.915 470.834H538.371ZM509.001 498.481L507.611 497.192C508.119 496.429 508.475 495.514 508.696 494.496L506.576 493.835C506.441 494.53 506.237 495.157 505.983 495.683L503.813 493.665C505.423 492.784 506.135 491.885 506.135 490.664C506.135 488.986 504.779 487.934 502.727 487.934C500.489 487.934 499.031 489.121 499.031 490.851C499.031 491.698 499.387 492.461 500.252 493.36C498.438 494.377 497.641 495.412 497.641 496.904C497.641 498.803 499.557 500.159 502.168 500.159C503.694 500.159 505.05 499.685 506.135 498.837L507.56 500.159L509.001 498.481ZM502.727 489.732C503.49 489.732 503.897 490.139 503.897 490.715C503.897 491.258 503.524 491.698 502.354 492.326C501.625 491.614 501.439 491.275 501.439 490.817C501.439 490.189 501.913 489.732 502.727 489.732ZM502.354 498.091C501.049 498.091 500.235 497.48 500.235 496.616C500.235 495.887 500.625 495.344 501.71 494.717L504.576 497.396C503.931 497.853 503.168 498.091 502.354 498.091ZM459.013 517.752V515.005H464.524V512.868H459.013V510.291H465.253V508.087H456.283V519.956H465.473V517.752H459.013ZM474.183 510.834L471.572 517.04L469.045 510.834H466.316L470.148 519.956H472.877L476.726 510.834H474.183ZM481.47 510.698C480.012 510.698 478.536 511.088 477.536 511.8L478.486 513.648C479.147 513.123 480.147 512.801 481.114 512.801C482.538 512.801 483.216 513.462 483.216 514.598H481.114C478.333 514.598 477.197 515.717 477.197 517.328C477.197 518.905 478.469 520.092 480.605 520.092C481.945 520.092 482.894 519.651 483.386 518.82V519.956H485.861V514.751C485.861 511.987 484.251 510.698 481.47 510.698ZM481.266 518.311C480.334 518.311 479.774 517.87 479.774 517.209C479.774 516.599 480.164 516.141 481.402 516.141H483.216V517.073C482.911 517.904 482.148 518.311 481.266 518.311ZM488.538 519.956H491.183V507.375H488.538V519.956ZM500.465 510.834V515.344C500.465 517.023 499.584 517.803 498.363 517.803C497.193 517.803 496.515 517.124 496.515 515.598V510.834H493.87V515.988C493.87 518.803 495.48 520.092 497.769 520.092C498.888 520.092 499.906 519.668 500.601 518.871V519.956H503.11V510.834H500.465ZM509.523 510.698C508.065 510.698 506.59 511.088 505.589 511.8L506.539 513.648C507.2 513.123 508.2 512.801 509.167 512.801C510.591 512.801 511.269 513.462 511.269 514.598H509.167C506.386 514.598 505.25 515.717 505.25 517.328C505.25 518.905 506.522 520.092 508.658 520.092C509.998 520.092 510.947 519.651 511.439 518.82V519.956H513.915V514.751C513.915 511.987 512.304 510.698 509.523 510.698ZM509.32 518.311C508.387 518.311 507.827 517.87 507.827 517.209C507.827 516.599 508.217 516.141 509.455 516.141H511.269V517.073C510.964 517.904 510.201 518.311 509.32 518.311ZM521.763 517.65C521.474 517.87 521.084 517.989 520.694 517.989C519.982 517.989 519.558 517.565 519.558 516.785V513.072H521.83V511.037H519.558V508.816H516.913V511.037H515.506V513.072H516.913V516.819C516.913 518.989 518.168 520.092 520.321 520.092C521.135 520.092 521.932 519.905 522.475 519.515L521.763 517.65ZM525.565 509.562C526.548 509.562 527.209 508.918 527.209 508.036C527.209 507.222 526.548 506.612 525.565 506.612C524.581 506.612 523.92 507.256 523.92 508.087C523.92 508.918 524.581 509.562 525.565 509.562ZM524.242 519.956H526.887V510.834H524.242V519.956ZM533.965 520.092C536.865 520.092 538.967 518.142 538.967 515.395C538.967 512.648 536.865 510.698 533.965 510.698C531.066 510.698 528.947 512.648 528.947 515.395C528.947 518.142 531.066 520.092 533.965 520.092ZM533.965 517.921C532.643 517.921 531.626 516.972 531.626 515.395C531.626 513.818 532.643 512.868 533.965 512.868C535.288 512.868 536.288 513.818 536.288 515.395C536.288 516.972 535.288 517.921 533.965 517.921ZM546.563 510.698C545.325 510.698 544.257 511.122 543.544 511.902V510.834H541.018V519.956H543.663V515.446C543.663 513.767 544.579 512.987 545.85 512.987C547.02 512.987 547.699 513.665 547.699 515.14V519.956H550.344V514.734C550.344 511.953 548.716 510.698 546.563 510.698Z" fill="#076DF9"/>
</svg>
