<svg width="724" height="413" viewBox="0 0 724 413" fill="none" xmlns="http://www.w3.org/2000/svg">
<g clip-path="url(#clip0)">
<path d="M651.701 192.002C651.701 190.925 650.84 190.052 649.783 190.052C648.723 190.052 647.862 190.925 647.862 192.002V196.104C647.862 197.187 648.723 198.06 649.783 198.06C650.84 198.06 651.701 197.187 651.701 196.104V192.002ZM641.147 186.618C641.147 185.541 640.288 184.667 639.204 184.667C638.144 184.667 637.285 185.541 637.285 186.618V196.104C637.285 197.187 638.144 198.06 639.204 198.06C640.288 198.06 641.147 197.187 641.147 196.104V186.618V186.618ZM630.571 179.252C630.571 178.175 629.712 177.302 628.652 177.302C627.592 177.302 626.734 178.175 626.734 179.252V200.002C626.734 201.085 627.592 201.958 628.652 201.958C629.712 201.958 630.571 201.085 630.571 200.002V179.252ZM619.992 186.618C619.992 185.541 619.134 184.667 618.074 184.667C617.016 184.667 616.155 185.541 616.155 186.618V196.104C616.155 197.187 617.016 198.06 618.074 198.06C619.134 198.06 619.992 197.187 619.992 196.104V186.618V186.618ZM609.416 192.002C609.416 190.925 608.558 190.052 607.504 190.052C606.444 190.052 605.579 190.925 605.579 192.002V196.104C605.579 197.187 606.444 198.06 607.504 198.06C608.558 198.06 609.416 197.187 609.416 196.104V192.002ZM598.857 186.618C598.857 185.541 597.992 184.667 596.933 184.667C595.873 184.667 595.008 185.541 595.008 186.618V196.104C595.008 197.187 595.873 198.06 596.933 198.06C597.992 198.06 598.857 197.187 598.857 196.104V186.618V186.618ZM588.286 179.252C588.286 178.175 587.421 177.302 586.361 177.302C585.302 177.302 584.437 178.175 584.437 179.252V200.002C584.437 201.085 585.302 201.958 586.361 201.958C587.421 201.958 588.286 201.085 588.286 200.002V179.252ZM577.715 186.618C577.715 185.541 576.85 184.667 575.79 184.667C574.73 184.667 573.866 185.541 573.866 186.618V196.104C573.866 197.187 574.73 198.06 575.79 198.06C576.85 198.06 577.715 197.187 577.715 196.104V186.618ZM567.143 192.002C567.143 190.925 566.279 190.052 565.219 190.052C564.16 190.052 563.294 190.925 563.294 192.002V196.104C563.294 197.187 564.16 198.06 565.219 198.06C566.279 198.06 567.143 197.187 567.143 196.104V192.002ZM606.876 209.011C606.76 208.979 604.984 208.513 603.097 208.513C599.524 208.513 597.373 210.475 597.373 213.398C597.373 215.985 599.172 217.275 601.332 217.969C601.572 218.05 601.924 218.162 602.159 218.241C603.121 218.549 603.888 219.006 603.888 219.798C603.888 220.683 603.001 221.256 601.073 221.256C599.379 221.256 597.754 220.764 597.412 220.676V224.272C597.603 224.313 599.533 224.698 601.596 224.698C604.562 224.698 607.956 223.38 607.956 219.455C607.956 217.551 606.81 215.798 604.294 214.985L603.224 214.638C602.586 214.433 601.447 214.102 601.447 213.15C601.447 212.399 602.291 211.87 603.845 211.87C605.186 211.87 606.818 212.328 606.876 212.346V209.011V209.011ZM639.636 216.606C639.636 218.879 637.924 220.719 635.626 220.719C633.326 220.719 631.619 218.879 631.619 216.606C631.619 214.337 633.326 212.497 635.626 212.497C637.924 212.497 639.636 214.337 639.636 216.606V216.606ZM635.626 208.518C630.901 208.518 627.513 212.143 627.513 216.606C627.513 221.076 630.901 224.698 635.626 224.698C640.351 224.698 643.744 221.076 643.744 216.606C643.744 212.143 640.351 208.518 635.626 208.518V208.518ZM582.969 209.078C582.605 208.968 581.258 208.518 579.434 208.518C574.717 208.518 571.254 211.939 571.254 216.606C571.254 221.64 575.077 224.698 579.434 224.698C581.166 224.698 582.487 224.281 582.969 224.142V219.948C582.802 220.042 581.535 220.777 579.712 220.777C577.13 220.777 575.464 218.928 575.464 216.606C575.464 214.213 577.202 212.438 579.712 212.438C581.566 212.438 582.813 213.189 582.969 213.272V209.078V209.078ZM623.431 209.078C623.064 208.968 621.717 208.518 619.899 208.518C615.174 208.518 611.711 211.939 611.711 216.606C611.711 221.64 615.539 224.698 619.899 224.698C621.621 224.698 622.944 224.281 623.431 224.142V219.948C623.261 220.042 621.992 220.777 620.17 220.777C617.589 220.777 615.925 218.928 615.925 216.606C615.925 214.213 617.664 212.438 620.17 212.438C622.023 212.438 623.273 213.189 623.431 213.272V209.078V209.078ZM592.174 224.42H588.298V208.795H592.174V224.42Z" fill="#00BCEB"/>
<path d="M96.7876 -158.296L-28.8031 106.379L-56.278 164.288L-18.5927 295.489L13.5674 407.459L16.2365 416.76L49.7998 432.203L183.23 493.606L250.215 524.428L270.35 533.696L284.922 540.4L317.388 555.34L369.95 579.53L391.072 535.01L411.25 492.49L425.75 461.927L608.343 77.1183L96.7876 -158.296Z" fill="#F2F2F2"/>
<path d="M341.258 174.194H352.097V179.613H341.258V174.194Z" fill="black"/>
<path d="M484.871 163.355C489.352 163.355 493 159.707 493 155.226V128.129C493 123.648 489.352 120 484.871 120H446.935C442.454 120 438.806 123.648 438.806 128.129V155.226C438.806 159.707 442.454 163.355 446.935 163.355H455.065V168.774H449.645V174.194H463.194V201.29H452.011C449.849 199.18 447.187 197.565 444.207 196.675C444.221 196.402 444.226 196.137 444.226 195.871C444.226 183.918 434.501 174.194 422.548 174.194C415.132 174.194 408.239 178.052 404.291 184.223C401.51 182.974 398.503 182.323 395.452 182.323C386.459 182.323 378.361 187.991 375.194 196.305C373.135 196.747 371.217 197.538 369.474 198.581H349.387V190.452H360.226C364.707 190.452 368.355 186.804 368.355 182.323V128.129C368.355 123.648 364.707 120 360.226 120H333.129C328.648 120 325 123.648 325 128.129V182.323C325 186.804 328.648 190.452 333.129 190.452H343.968V204H363.711C362.558 205.645 361.664 207.46 361.077 209.419H349.387V239.226H338.548C334.067 239.226 330.419 242.874 330.419 247.355V271.742H325V279.871C325 284.352 328.648 288 333.129 288H376.484C380.965 288 384.613 284.352 384.613 279.871V271.742H379.194V247.355C379.194 242.874 375.546 239.226 371.065 239.226H354.806V214.839H360.226C360.226 225.295 368.737 233.806 379.194 233.806H438.806C448.342 233.806 456.235 226.724 457.557 217.548H468.613V239.226H449.645V288H493V239.226H474.032V212.129H457.547C457.265 210.221 456.68 208.406 455.861 206.71H468.613V174.194H482.161V168.774H476.742V163.355H484.871ZM362.935 163.355H330.419V136.258H362.935V163.355ZM333.129 125.419H360.226C361.721 125.419 362.935 126.634 362.935 128.129V130.839H330.419V128.129C330.419 126.634 331.634 125.419 333.129 125.419ZM330.419 182.323V168.774H362.935V182.323C362.935 183.818 361.721 185.032 360.226 185.032H333.129C331.634 185.032 330.419 183.818 330.419 182.323ZM379.194 279.871C379.194 281.366 377.979 282.581 376.484 282.581H333.129C331.634 282.581 330.419 281.366 330.419 279.871V277.161H379.194V279.871ZM373.774 247.355V271.742H335.839V247.355C335.839 245.86 337.053 244.645 338.548 244.645H371.065C372.56 244.645 373.774 245.86 373.774 247.355ZM455.065 282.581V266.323H487.581V282.581H455.065ZM487.581 260.903H455.065V244.645H487.581V260.903ZM438.806 228.387H379.194C371.723 228.387 365.645 222.309 365.645 214.839C365.645 207.989 370.772 202.211 377.567 201.399L379.346 201.184L379.847 199.464C381.852 192.562 388.271 187.742 395.452 187.742C398.443 187.742 401.38 188.582 403.955 190.167L406.542 191.763L407.832 189.007C410.499 183.298 416.276 179.613 422.548 179.613C431.515 179.613 438.806 186.904 438.806 195.871C438.806 196.619 438.739 197.415 438.592 198.377L438.183 201.057L440.863 201.464C447.414 202.464 452.355 208.214 452.355 214.839C452.355 222.309 446.277 228.387 438.806 228.387V228.387ZM446.935 125.419H484.871C486.366 125.419 487.581 126.634 487.581 128.129V147.097H444.226V128.129C444.226 126.634 445.44 125.419 446.935 125.419ZM444.226 155.226V152.516H487.581V155.226C487.581 156.721 486.366 157.935 484.871 157.935H446.935C445.44 157.935 444.226 156.721 444.226 155.226ZM471.323 168.774H460.484V163.355H471.323V168.774Z" fill="black"/>
<path d="M460.484 250.064H465.903V255.484H460.484V250.064Z" fill="black"/>
<path d="M476.742 271.742H482.161V277.161H476.742V271.742Z" fill="black"/>
<path d="M471.323 250.064H482.161V255.484H471.323V250.064Z" fill="black"/>
<path d="M460.484 271.742H471.323V277.161H460.484V271.742Z" fill="black"/>
<path d="M-55 342.06C-55 328.761 -4.94351 317.979 56.804 317.979C118.551 317.979 168.608 328.761 168.608 342.06C168.608 350.584 148.029 358.068 117.006 362.347V494.286C117.006 497.251 115.828 500.095 113.731 502.191C111.635 504.288 108.791 505.466 105.826 505.466C102.86 505.466 100.017 504.288 97.92 502.191C95.8232 500.095 94.6453 497.251 94.6453 494.286V364.724C82.8249 365.64 70.0883 366.141 56.804 366.141C43.5197 366.141 30.783 365.64 18.9626 364.724V494.286C18.9626 497.251 17.7847 500.095 15.688 502.191C13.5912 504.288 10.7475 505.466 7.78223 505.466C4.81701 505.466 1.97324 504.288 -0.123494 502.191C-2.22022 500.095 -3.39816 497.251 -3.39816 494.286V362.347C-34.4206 358.068 -55 350.584 -55 342.06Z" fill="#CCCCCC"/>
<path d="M44.4411 121.647C17.8421 121.647 -3.72061 100.085 -3.72061 73.4857C-3.72061 46.8867 17.8421 25.324 44.4411 25.324C71.0401 25.324 92.6028 46.8867 92.6028 73.4857C92.6028 100.085 71.0401 121.647 44.4411 121.647Z" fill="#2F2E41"/>
<path d="M164.296 485.554H185.384L195.415 404.216H164.293L164.296 485.554Z" fill="#A0616A"/>
<path d="M197.213 473.786L217.334 467.471L202.556 386.861L172.86 396.178L197.213 473.786Z" fill="#A0616A"/>
<path d="M190.353 441.331C191.277 441.331 192.193 441.165 193.057 440.839L208.571 435.022C210.313 434.363 211.759 433.1 212.648 431.464C213.536 429.827 213.807 427.926 213.411 426.106C209.505 408.544 196.194 348.754 188.905 316.684C180.26 278.645 54.1506 271.576 48.7867 271.294L48.3459 271.271L34.1596 289.098C29.0334 305.574 30.6581 318.426 38.9889 327.297C63.2973 353.178 135.875 337.118 144.53 335.086L183.106 436.348C183.668 437.814 184.662 439.075 185.956 439.965C187.25 440.855 188.783 441.331 190.353 441.331V441.331Z" fill="#2F2E41"/>
<path d="M167.992 453.372C168.916 453.372 169.832 453.205 170.696 452.88L186.21 447.063C187.952 446.404 189.399 445.141 190.287 443.504C191.175 441.868 191.446 439.966 191.05 438.147C187.145 420.585 173.833 360.794 166.544 328.725C157.899 290.685 31.7897 283.617 26.4259 283.335L25.985 283.311L11.7987 301.138C6.67257 317.615 8.2973 330.467 16.628 339.337C40.9365 365.217 113.514 349.159 122.169 347.126L160.745 448.388C161.307 449.854 162.301 451.116 163.595 452.005C164.889 452.895 166.422 453.372 167.992 453.372V453.372Z" fill="#2F2E41"/>
<path d="M212.877 205.649C212.307 206.412 211.798 207.218 211.355 208.06L126.521 216.998L114.309 200.255L86.6323 215.382L110.618 256.012L214.66 229.484C217.285 232.043 220.626 233.743 224.241 234.356C227.855 234.97 231.57 234.469 234.893 232.919C238.215 231.37 240.987 228.846 242.84 225.682C244.693 222.519 245.539 218.867 245.265 215.211C244.992 211.555 243.612 208.069 241.309 205.217C239.006 202.365 235.89 200.281 232.374 199.243C228.858 198.205 225.109 198.262 221.627 199.406C218.144 200.551 215.092 202.728 212.877 205.649L212.877 205.649Z" fill="#A0616A"/>
<path d="M15.7356 307.962C16.9624 307.958 18.1708 307.663 19.261 307.1C36.2247 298.475 69.257 283.537 99.888 280.411C100.936 280.308 101.952 279.987 102.868 279.469C103.785 278.95 104.584 278.246 105.212 277.401C105.853 276.547 106.312 275.57 106.558 274.531C106.805 273.492 106.835 272.413 106.646 271.362C103.882 256.061 97.5418 217.1 98.3586 185.873C98.5992 176.272 95.5659 166.874 89.7571 159.226C83.9484 151.577 75.71 146.132 66.3965 143.787V143.787C60.7895 142.308 55.0945 141.185 49.3457 140.426C42.7381 139.589 36.0263 140.311 29.7481 142.535C23.4698 144.758 17.7995 148.421 13.1915 153.23C8.58355 158.039 5.16591 163.861 3.21238 170.228C1.25885 176.596 0.823774 183.332 1.94197 189.898C7.4045 222.258 12.9111 267.455 8.12511 299.006C7.90534 300.42 8.08123 301.867 8.63334 303.187C9.18545 304.508 10.0922 305.649 11.2532 306.486C12.5534 307.44 14.1228 307.957 15.7356 307.962Z" fill="#E53935"/>
<path d="M96.7884 225.654C97.8459 225.652 98.8918 225.434 99.8615 225.012L121.961 215.446C123.843 214.629 125.324 213.098 126.079 211.19C126.834 209.282 126.802 207.153 125.989 205.269L108.906 165.806C107.875 163.421 106.385 161.262 104.519 159.453C102.654 157.644 100.45 156.22 98.0343 155.263C95.6184 154.306 93.0377 153.834 90.4394 153.875C87.8412 153.915 85.2764 154.468 82.8916 155.5C80.5068 156.532 78.3488 158.024 76.5409 159.89C74.7329 161.757 73.3104 163.961 72.3547 166.378C71.399 168.794 70.9289 171.375 70.9711 173.973C71.0132 176.572 71.5669 179.136 72.6005 181.52L89.6831 220.983C90.2842 222.368 91.2767 223.549 92.5389 224.378C93.8011 225.208 95.2779 225.652 96.7884 225.654V225.654Z" fill="#E53935"/>
<path d="M46.2019 127.001C22.8698 127.001 3.95542 108.086 3.95542 84.754C3.95542 61.422 22.8698 42.5076 46.2019 42.5076C69.534 42.5076 88.4484 61.422 88.4484 84.754C88.4484 108.086 69.534 127.001 46.2019 127.001Z" fill="#A0616A"/>
<path d="M89.2089 63.9975C69.198 76.213 46.6384 83.6464 23.2855 85.7192L30.2344 77.393C25.1748 79.2637 19.8508 80.3209 14.4602 80.5253C9.07611 80.4415 3.4348 78.3684 0.379029 73.9346C-0.983903 71.7305 -1.79352 69.2294 -1.9808 66.6447C-2.16809 64.0601 -1.72747 61.4685 -0.696534 59.0909C1.42122 54.3488 4.71733 50.2274 8.87802 47.119C16.2531 41.285 24.9568 37.3662 34.2137 35.7118C43.4706 34.0575 52.993 34.7189 61.9323 37.6373C68.0641 39.4698 73.5558 42.9925 77.7782 47.8018C81.7832 52.7425 89.4935 57.1445 87.4428 63.1648L89.2089 63.9975Z" fill="#2F2E41"/>
<path d="M39.0984 29.905C52.4229 16.393 68.5473 5.96596 86.3364 -0.641921C97.7554 -4.87227 110.184 -7.48593 122.122 -5.08354C134.06 -2.68115 145.35 5.57754 148.681 17.2906C151.404 26.8686 148.592 37.1811 144.366 46.1972C140.139 55.2133 134.497 63.5741 131.079 72.9267C127.592 82.4696 126.543 92.7324 128.028 102.783C129.513 112.834 133.485 122.356 139.583 130.482C145.681 138.609 153.712 145.084 162.947 149.32C172.182 153.555 182.329 155.417 192.466 154.737C180.736 156.309 169.924 161.822 158.459 164.756C146.994 167.69 133.462 167.491 124.942 159.277C115.927 150.586 115.747 136.457 116.182 123.943C116.83 105.34 117.478 86.7378 118.126 68.1353C118.456 58.6484 118.739 48.8575 115.317 40.0029C111.896 31.1482 103.765 23.3945 94.2729 23.475C87.0787 23.5361 80.7111 27.8943 74.9417 32.1923C69.1722 36.4903 63.0656 41.076 55.8996 41.7153C48.7336 42.3545 40.5516 37.0514 41.0878 29.877" fill="#2F2E41"/>
<path d="M117.228 297.109C120.028 297.106 122.792 296.482 125.321 295.282C127.85 294.082 130.081 292.336 131.854 290.17C133.627 288.004 134.898 285.471 135.574 282.755C136.251 280.039 136.316 277.206 135.766 274.461C135.216 271.717 134.064 269.128 132.393 266.882C130.722 264.636 128.573 262.789 126.102 261.473C123.631 260.158 120.899 259.407 118.103 259.274C115.307 259.142 112.516 259.631 109.932 260.707H109.932C109.154 261.035 108.4 261.417 107.676 261.85L30.7189 227.299L28.557 206.428L-4.61586 205.54L-4.39624 240.288C-4.35546 244.313 -3.01787 248.218 -0.582057 251.423C1.85375 254.627 5.25793 256.961 9.1253 258.078L99.1224 283.695C99.2973 284.29 99.5035 284.875 99.7401 285.448C101.184 288.897 103.614 291.843 106.724 293.917C109.835 295.992 113.489 297.102 117.228 297.109V297.109Z" fill="#A0616A"/>
<path d="M-1.80613 222.573C-0.8626 223.051 0.168865 223.329 1.22444 223.393L25.2598 224.87C27.3081 224.994 29.3216 224.3 30.8589 222.94C32.3961 221.581 33.3316 219.668 33.4603 217.62L36.0984 174.7C36.2625 172.105 35.9132 169.503 35.0706 167.043C34.228 164.582 32.9087 162.313 31.188 160.363C29.4673 158.413 27.3789 156.822 25.0426 155.68C22.7063 154.539 20.1677 153.869 17.5723 153.709C14.9768 153.549 12.3753 153.903 9.91661 154.75C7.45794 155.596 5.19045 156.92 3.24371 158.644C1.29697 160.368 -0.290797 162.459 -1.42861 164.797C-2.56642 167.135 -3.23201 169.675 -3.3873 172.271L-6.02587 215.191C-6.11751 216.698 -5.76698 218.2 -5.01739 219.511C-4.2678 220.823 -3.1517 221.887 -1.80603 222.573L-1.80613 222.573Z" fill="#E53935"/>
<path d="M50.4315 301.449H186.316C187.913 301.449 189.444 300.815 190.573 299.686C191.702 298.557 192.336 297.026 192.336 295.429C192.336 293.832 191.702 292.301 190.573 291.172C189.444 290.043 187.913 289.409 186.316 289.409H50.4315C48.8348 289.409 47.3035 290.043 46.1745 291.172C45.0455 292.301 44.4113 293.832 44.4113 295.429V295.429C44.4113 297.026 45.0455 298.557 46.1745 299.686C47.3035 300.815 48.8348 301.449 50.4315 301.449V301.449Z" fill="#3F3D56"/>
<path d="M245.658 290.269V205.986C245.655 203.021 244.476 200.18 242.38 198.084C240.284 195.988 237.442 194.809 234.478 194.805H81.3927C78.4285 194.809 75.5866 195.988 73.4906 198.084C71.3946 200.18 70.2156 203.021 70.2123 205.986V290.269C70.2156 293.233 71.3946 296.075 73.4906 298.171C75.5866 300.267 78.4285 301.446 81.3927 301.449H234.478C237.442 301.446 240.284 300.267 242.38 298.171C244.476 296.075 245.655 293.233 245.658 290.269V290.269Z" fill="#3F3D56"/>
<path d="M157.935 258.447C152.235 258.447 147.615 253.827 147.615 248.127C147.615 242.427 152.235 237.807 157.935 237.807C163.635 237.807 168.256 242.427 168.256 248.127C168.256 253.827 163.635 258.447 157.935 258.447Z" fill="white"/>
</g>
<defs>
<clipPath id="clip0">
<rect width="724" height="413" fill="white"/>
</clipPath>
</defs>
</svg>
