<svg width="724" height="413" viewBox="0 0 724 413" fill="none" xmlns="http://www.w3.org/2000/svg">
<g clip-path="url(#clip0)">
<path d="M651.701 192.002C651.701 190.925 650.84 190.052 649.783 190.052C648.723 190.052 647.862 190.925 647.862 192.002V196.104C647.862 197.187 648.723 198.06 649.783 198.06C650.84 198.06 651.701 197.187 651.701 196.104V192.002ZM641.147 186.618C641.147 185.541 640.288 184.667 639.204 184.667C638.144 184.667 637.285 185.541 637.285 186.618V196.104C637.285 197.187 638.144 198.06 639.204 198.06C640.288 198.06 641.147 197.187 641.147 196.104V186.618V186.618ZM630.571 179.252C630.571 178.175 629.712 177.302 628.652 177.302C627.592 177.302 626.734 178.175 626.734 179.252V200.002C626.734 201.085 627.592 201.958 628.652 201.958C629.712 201.958 630.571 201.085 630.571 200.002V179.252ZM619.992 186.618C619.992 185.541 619.134 184.667 618.074 184.667C617.016 184.667 616.155 185.541 616.155 186.618V196.104C616.155 197.187 617.016 198.06 618.074 198.06C619.134 198.06 619.992 197.187 619.992 196.104V186.618V186.618ZM609.416 192.002C609.416 190.925 608.558 190.052 607.504 190.052C606.444 190.052 605.579 190.925 605.579 192.002V196.104C605.579 197.187 606.444 198.06 607.504 198.06C608.558 198.06 609.416 197.187 609.416 196.104V192.002ZM598.857 186.618C598.857 185.541 597.992 184.667 596.933 184.667C595.873 184.667 595.008 185.541 595.008 186.618V196.104C595.008 197.187 595.873 198.06 596.933 198.06C597.992 198.06 598.857 197.187 598.857 196.104V186.618V186.618ZM588.286 179.252C588.286 178.175 587.421 177.302 586.361 177.302C585.302 177.302 584.437 178.175 584.437 179.252V200.002C584.437 201.085 585.302 201.958 586.361 201.958C587.421 201.958 588.286 201.085 588.286 200.002V179.252ZM577.715 186.618C577.715 185.541 576.85 184.667 575.79 184.667C574.73 184.667 573.866 185.541 573.866 186.618V196.104C573.866 197.187 574.73 198.06 575.79 198.06C576.85 198.06 577.715 197.187 577.715 196.104V186.618ZM567.143 192.002C567.143 190.925 566.279 190.052 565.219 190.052C564.16 190.052 563.294 190.925 563.294 192.002V196.104C563.294 197.187 564.16 198.06 565.219 198.06C566.279 198.06 567.143 197.187 567.143 196.104V192.002ZM606.876 209.011C606.76 208.979 604.984 208.513 603.097 208.513C599.524 208.513 597.373 210.475 597.373 213.398C597.373 215.985 599.172 217.275 601.332 217.969C601.572 218.05 601.924 218.162 602.159 218.241C603.121 218.549 603.888 219.006 603.888 219.798C603.888 220.683 603.001 221.256 601.073 221.256C599.379 221.256 597.754 220.764 597.412 220.676V224.272C597.603 224.313 599.533 224.698 601.596 224.698C604.562 224.698 607.956 223.38 607.956 219.455C607.956 217.551 606.81 215.798 604.294 214.985L603.224 214.638C602.586 214.433 601.447 214.102 601.447 213.15C601.447 212.399 602.291 211.87 603.845 211.87C605.186 211.87 606.818 212.328 606.876 212.346V209.011V209.011ZM639.636 216.606C639.636 218.879 637.924 220.719 635.626 220.719C633.326 220.719 631.619 218.879 631.619 216.606C631.619 214.337 633.326 212.497 635.626 212.497C637.924 212.497 639.636 214.337 639.636 216.606V216.606ZM635.626 208.518C630.901 208.518 627.513 212.143 627.513 216.606C627.513 221.076 630.901 224.698 635.626 224.698C640.351 224.698 643.744 221.076 643.744 216.606C643.744 212.143 640.351 208.518 635.626 208.518V208.518ZM582.969 209.078C582.605 208.968 581.258 208.518 579.434 208.518C574.717 208.518 571.254 211.939 571.254 216.606C571.254 221.64 575.077 224.698 579.434 224.698C581.166 224.698 582.487 224.281 582.969 224.142V219.948C582.802 220.042 581.535 220.777 579.712 220.777C577.13 220.777 575.464 218.928 575.464 216.606C575.464 214.213 577.202 212.438 579.712 212.438C581.566 212.438 582.813 213.189 582.969 213.272V209.078V209.078ZM623.431 209.078C623.064 208.968 621.717 208.518 619.899 208.518C615.174 208.518 611.711 211.939 611.711 216.606C611.711 221.64 615.539 224.698 619.899 224.698C621.621 224.698 622.944 224.281 623.431 224.142V219.948C623.261 220.042 621.992 220.777 620.17 220.777C617.589 220.777 615.925 218.928 615.925 216.606C615.925 214.213 617.664 212.438 620.17 212.438C622.023 212.438 623.273 213.189 623.431 213.272V209.078V209.078ZM592.174 224.42H588.298V208.795H592.174V224.42Z" fill="#00BCEB"/>
<path d="M351.379 350C350.978 350 350.593 349.84 350.31 349.557C350.026 349.273 349.867 348.888 349.867 348.487V286.464C349.867 286.063 350.026 285.678 350.31 285.395C350.593 285.111 350.978 284.951 351.379 284.951C351.781 284.951 352.165 285.111 352.449 285.395C352.733 285.678 352.892 286.063 352.892 286.464V348.487C352.892 348.888 352.733 349.273 352.449 349.557C352.165 349.84 351.781 350 351.379 350V350Z" fill="#3F3D56"/>
<path d="M349.306 262.26C349.039 262.26 348.777 262.19 348.546 262.055L262.599 211.977C262.253 211.774 262.001 211.443 261.899 211.055C261.797 210.668 261.853 210.256 262.055 209.909C262.257 209.563 262.588 209.311 262.975 209.208C263.363 209.106 263.775 209.161 264.122 209.362L350.069 259.44C350.356 259.608 350.581 259.865 350.707 260.173C350.833 260.481 350.855 260.821 350.768 261.142C350.681 261.464 350.491 261.747 350.226 261.949C349.962 262.151 349.639 262.261 349.306 262.26V262.26Z" fill="#3F3D56"/>
<path d="M177.415 262.26C177.082 262.261 176.759 262.151 176.494 261.949C176.23 261.747 176.04 261.464 175.953 261.142C175.866 260.821 175.888 260.481 176.014 260.173C176.14 259.865 176.364 259.608 176.652 259.44L262.598 209.362C262.945 209.162 263.357 209.108 263.744 209.211C264.13 209.313 264.46 209.565 264.662 209.911C264.863 210.257 264.92 210.668 264.818 211.056C264.717 211.443 264.466 211.774 264.122 211.977L178.175 262.055C177.944 262.189 177.682 262.26 177.415 262.26V262.26Z" fill="#3F3D56"/>
<path d="M438.558 337.898C438.291 337.898 438.029 337.827 437.798 337.692L351.851 287.614C351.505 287.412 351.253 287.081 351.151 286.693C351.049 286.305 351.105 285.893 351.307 285.547C351.509 285.2 351.84 284.948 352.227 284.846C352.615 284.743 353.027 284.798 353.374 284.999L439.321 335.078C439.608 335.245 439.833 335.502 439.959 335.81C440.085 336.118 440.107 336.459 440.02 336.78C439.933 337.101 439.743 337.385 439.478 337.587C439.214 337.789 438.891 337.898 438.558 337.898V337.898Z" fill="#3F3D56"/>
<path d="M266.667 337.897C266.334 337.898 266.011 337.788 265.747 337.586C265.482 337.384 265.292 337.101 265.205 336.78C265.118 336.459 265.14 336.118 265.266 335.81C265.392 335.502 265.617 335.245 265.904 335.077L351.851 284.999C352.197 284.799 352.609 284.745 352.996 284.848C353.383 284.951 353.713 285.203 353.914 285.548C354.116 285.894 354.172 286.306 354.071 286.693C353.969 287.08 353.719 287.411 353.374 287.614L267.427 337.692C267.196 337.827 266.934 337.897 266.667 337.897V337.897Z" fill="#3F3D56"/>
<path d="M263.64 185.11C263.239 185.11 262.855 184.951 262.571 184.668C262.288 184.385 262.128 184.001 262.127 183.601L261.987 128.556C261.987 128.357 262.025 128.161 262.101 127.977C262.176 127.793 262.287 127.626 262.428 127.485C262.568 127.344 262.734 127.233 262.918 127.156C263.101 127.08 263.298 127.04 263.496 127.04H263.5C263.901 127.039 264.285 127.198 264.568 127.481C264.852 127.764 265.012 128.148 265.013 128.549L265.153 183.593C265.153 183.792 265.115 183.989 265.039 184.173C264.963 184.356 264.852 184.523 264.712 184.664C264.572 184.805 264.406 184.917 264.222 184.993C264.039 185.07 263.842 185.109 263.644 185.11L263.64 185.11Z" fill="#3F3D56"/>
<path d="M283.205 213.725H243.795C241.99 213.723 240.26 213.005 238.984 211.729C237.708 210.453 236.99 208.723 236.988 206.918V186.675C236.99 184.87 237.708 183.14 238.984 181.864C240.26 180.588 241.99 179.87 243.795 179.868H283.205C285.01 179.87 286.74 180.588 288.017 181.864C289.293 183.14 290.011 184.87 290.013 186.675V206.918C290.011 208.723 289.293 210.453 288.017 211.729C286.74 213.005 285.01 213.723 283.205 213.725V213.725Z" fill="#CCCCCC"/>
<path d="M217.978 110.828H134.121C133.72 110.828 133.335 110.668 133.051 110.385C132.767 110.101 132.608 109.716 132.608 109.315C132.608 108.914 132.767 108.529 133.051 108.245C133.335 107.962 133.72 107.802 134.121 107.802H217.978C218.379 107.802 218.764 107.962 219.047 108.245C219.331 108.529 219.49 108.914 219.49 109.315C219.49 109.716 219.331 110.101 219.047 110.385C218.764 110.668 218.379 110.828 217.978 110.828Z" fill="#3F3D56"/>
<path d="M263.5 89.2212C263.099 89.2211 262.714 89.0618 262.43 88.7781C262.147 88.4944 261.987 88.1096 261.987 87.7084V35.348C261.987 34.9467 262.147 34.562 262.43 34.2783C262.714 33.9946 263.099 33.8352 263.5 33.8352C263.901 33.8352 264.286 33.9946 264.57 34.2783C264.853 34.562 265.013 34.9467 265.013 35.348V87.7084C265.013 88.1096 264.853 88.4944 264.57 88.7781C264.286 89.0618 263.901 89.2211 263.5 89.2212V89.2212Z" fill="#3F3D56"/>
<path d="M101.495 110.828C101.224 110.828 100.958 110.755 100.725 110.617L19.3163 62.3659C18.9722 62.1608 18.7235 61.8276 18.6247 61.4394C18.5259 61.0512 18.5852 60.6397 18.7894 60.295C18.9937 59.9504 19.3262 59.7009 19.7141 59.6011C20.1021 59.5014 20.5138 59.5596 20.8589 59.7629L102.268 108.014C102.553 108.183 102.775 108.441 102.899 108.748C103.023 109.056 103.043 109.396 102.955 109.716C102.867 110.035 102.677 110.317 102.413 110.518C102.149 110.719 101.826 110.828 101.495 110.828V110.828Z" fill="#3F3D56"/>
<path d="M20.0891 159.079C19.7574 159.079 19.4349 158.97 19.1711 158.769C18.9073 158.568 18.7168 158.286 18.629 157.966C18.5411 157.646 18.5608 157.307 18.685 156.999C18.8092 156.692 19.031 156.433 19.3163 156.264L100.725 108.014C101.07 107.809 101.482 107.75 101.871 107.849C102.26 107.949 102.593 108.199 102.798 108.544C103.002 108.889 103.061 109.301 102.962 109.69C102.863 110.079 102.613 110.412 102.268 110.617L20.8589 158.867C20.626 159.006 20.36 159.079 20.0891 159.079V159.079Z" fill="#3F3D56"/>
<path d="M128.07 135.229H107.827C106.022 135.227 104.292 134.509 103.016 133.233C101.739 131.956 101.022 130.226 101.02 128.421V89.0115C101.022 87.2067 101.739 85.4764 103.016 84.2002C104.292 82.924 106.022 82.2061 107.827 82.2041H128.07C129.875 82.2061 131.605 82.924 132.881 84.2002C134.157 85.4764 134.875 87.2067 134.877 89.0115V128.421C134.875 130.226 134.157 131.956 132.881 133.233C131.605 134.509 129.875 135.227 128.07 135.229V135.229Z" fill="#CCCCCC"/>
<path d="M283.205 39.4184H243.795C241.99 39.4164 240.26 38.6985 238.984 37.4223C237.708 36.1462 236.99 34.4158 236.988 32.611V12.3677C236.99 10.5629 237.708 8.83259 238.984 7.5564C240.26 6.28021 241.99 5.56234 243.795 5.5603H283.205C285.01 5.56234 286.74 6.28021 288.017 7.5564C289.293 8.83259 290.011 10.5629 290.013 12.3677V32.611C290.011 34.4158 289.293 36.1462 288.017 37.4223C286.74 38.6985 285.01 39.4164 283.205 39.4184V39.4184Z" fill="#CCCCCC"/>
<path d="M14.6135 88.3331H-5.62928C-7.43409 88.3311 -9.16444 87.6132 -10.4406 86.337C-11.7168 85.0608 -12.4346 83.3305 -12.4366 81.5257V42.116C-12.4346 40.3112 -11.7168 38.5808 -10.4406 37.3046C-9.16444 36.0285 -7.43409 35.3106 -5.62928 35.3086H14.6135C16.4183 35.3106 18.1486 36.0285 19.4248 37.3046C20.701 38.5808 21.4189 40.3112 21.4209 42.116V81.5257C21.4189 83.3305 20.701 85.0608 19.4248 86.337C18.1486 87.6132 16.4183 88.3311 14.6135 88.3331V88.3331Z" fill="#CCCCCC"/>
<path d="M14.6135 183.636H-5.62928C-7.43409 183.634 -9.16444 182.916 -10.4406 181.64C-11.7168 180.364 -12.4346 178.634 -12.4366 176.829V137.419C-12.4346 135.614 -11.7168 133.884 -10.4406 132.608C-9.16444 131.332 -7.43409 130.614 -5.62928 130.612H14.6135C16.4183 130.614 18.1486 131.332 19.4248 132.608C20.701 133.884 21.4189 135.614 21.4209 137.419V176.829C21.4189 178.634 20.701 180.364 19.4248 181.64C18.1486 182.916 16.4183 183.634 14.6135 183.636Z" fill="#CCCCCC"/>
<path d="M392.88 110.828H309.023C308.621 110.828 308.237 110.668 307.953 110.385C307.669 110.101 307.51 109.716 307.51 109.315C307.51 108.914 307.669 108.529 307.953 108.245C308.237 107.962 308.621 107.802 309.023 107.802H392.88C393.281 107.802 393.666 107.962 393.949 108.245C394.233 108.529 394.392 108.914 394.392 109.315C394.392 109.716 394.233 110.101 393.949 110.385C393.666 110.668 393.281 110.828 392.88 110.828Z" fill="#3F3D56"/>
<path d="M425.506 110.828C425.174 110.828 424.851 110.72 424.587 110.519C424.324 110.318 424.133 110.036 424.045 109.716C423.958 109.396 423.977 109.056 424.101 108.748C424.226 108.441 424.448 108.183 424.733 108.014L506.141 59.763C506.312 59.6618 506.502 59.5952 506.698 59.567C506.895 59.5389 507.095 59.5497 507.288 59.599C507.48 59.6482 507.661 59.7349 507.82 59.854C507.979 59.9732 508.113 60.1225 508.214 60.2934C508.315 60.4643 508.382 60.6535 508.41 60.8502C508.438 61.0469 508.427 61.2471 508.378 61.4396C508.329 61.6321 508.242 61.8129 508.123 61.9719C508.004 62.1308 507.855 62.2648 507.684 62.366L426.275 110.617C426.042 110.755 425.777 110.828 425.506 110.828V110.828Z" fill="#3F3D56"/>
<path d="M506.911 159.078C506.64 159.079 506.374 159.006 506.141 158.867L424.733 110.617C424.388 110.412 424.138 110.079 424.039 109.69C423.939 109.301 423.998 108.889 424.203 108.544C424.407 108.199 424.74 107.949 425.129 107.849C425.518 107.75 425.93 107.809 426.275 108.014L507.684 156.264C507.969 156.433 508.191 156.691 508.315 156.999C508.44 157.306 508.459 157.646 508.372 157.966C508.284 158.286 508.093 158.568 507.829 158.769C507.566 158.97 507.243 159.079 506.911 159.078V159.078Z" fill="#3F3D56"/>
<path d="M419.173 135.229H398.931C397.126 135.227 395.395 134.509 394.119 133.233C392.843 131.956 392.125 130.226 392.123 128.421V89.0115C392.125 87.2067 392.843 85.4764 394.119 84.2002C395.395 82.924 397.126 82.2061 398.931 82.2041H419.173C420.978 82.2061 422.708 82.924 423.985 84.2002C425.261 85.4764 425.978 87.2067 425.981 89.0115V128.421C425.978 130.226 425.261 131.956 423.985 133.233C422.708 134.509 420.978 135.227 419.173 135.229Z" fill="#CCCCCC"/>
<path d="M532.629 88.3331H512.387C510.582 88.3311 508.852 87.6132 507.575 86.337C506.299 85.0609 505.581 83.3305 505.579 81.5257V42.116C505.581 40.3112 506.299 38.5809 507.575 37.3047C508.852 36.0285 510.582 35.3106 512.387 35.3086H532.629C534.434 35.3106 536.165 36.0285 537.441 37.3047C538.717 38.5809 539.435 40.3112 539.437 42.116V81.5257C539.435 83.3305 538.717 85.0609 537.441 86.337C536.165 87.6132 534.434 88.3311 532.629 88.3331V88.3331Z" fill="#CCCCCC"/>
<path d="M532.629 183.636H512.387C510.582 183.634 508.852 182.916 507.575 181.64C506.299 180.364 505.581 178.634 505.579 176.829V137.419C505.581 135.614 506.299 133.884 507.575 132.608C508.852 131.332 510.582 130.614 512.387 130.612H532.629C534.434 130.614 536.165 131.332 537.441 132.608C538.717 133.884 539.435 135.614 539.437 137.419V176.829C539.435 178.634 538.717 180.364 537.441 181.64C536.165 182.916 534.434 183.634 532.629 183.636V183.636Z" fill="#CCCCCC"/>
<path d="M195.466 290.875H156.056C154.251 290.873 152.52 290.156 151.244 288.879C149.968 287.603 149.25 285.873 149.248 284.068V263.825C149.25 262.021 149.968 260.29 151.244 259.014C152.52 257.738 154.251 257.02 156.056 257.018H195.466C197.271 257.02 199.001 257.738 200.277 259.014C201.553 260.29 202.271 262.021 202.273 263.825V284.068C202.271 285.873 201.553 287.603 200.277 288.879C199.001 290.156 197.271 290.873 195.466 290.875Z" fill="#CCCCCC"/>
<path d="M370.665 290.875H331.255C329.45 290.873 327.72 290.156 326.443 288.879C325.167 287.603 324.449 285.873 324.447 284.068V263.825C324.449 262.021 325.167 260.29 326.443 259.014C327.72 257.738 329.45 257.02 331.255 257.018H370.665C372.47 257.02 374.2 257.738 375.476 259.014C376.752 260.29 377.47 262.021 377.472 263.825V284.068C377.47 285.873 376.752 287.603 375.476 288.879C374.2 290.156 372.47 290.873 370.665 290.875Z" fill="#CCCCCC"/>
<path d="M290.489 365H251.079C249.274 364.998 247.544 364.28 246.268 363.004C244.991 361.728 244.274 359.997 244.271 358.193V337.95C244.274 336.145 244.991 334.415 246.268 333.139C247.544 331.862 249.274 331.145 251.079 331.143H290.489C292.294 331.145 294.024 331.862 295.3 333.139C296.576 334.415 297.294 336.145 297.296 337.95V358.193C297.294 359.997 296.576 361.728 295.3 363.004C294.024 364.28 292.294 364.998 290.489 365Z" fill="#CCCCCC"/>
<path d="M458.404 365H418.994C417.189 364.998 415.459 364.28 414.183 363.004C412.907 361.728 412.189 359.997 412.187 358.193V337.95C412.189 336.145 412.907 334.415 414.183 333.139C415.459 331.862 417.189 331.145 418.994 331.143H458.404C460.209 331.145 461.939 331.862 463.216 333.139C464.492 334.415 465.21 336.145 465.212 337.95V358.193C465.21 359.997 464.492 361.728 463.216 363.004C461.939 364.28 460.209 364.998 458.404 365V365Z" fill="#CCCCCC"/>
<path d="M370.665 365H331.255C329.45 364.998 327.72 364.28 326.443 363.004C325.167 361.728 324.449 359.997 324.447 358.193V337.95C324.449 336.145 325.167 334.415 326.443 333.139C327.72 331.862 329.45 331.145 331.255 331.143H370.665C372.47 331.145 374.2 331.862 375.476 333.139C376.752 334.415 377.47 336.145 377.472 337.95V358.193C377.47 359.997 376.752 361.728 375.476 363.004C374.2 364.28 372.47 364.998 370.665 365Z" fill="#CCCCCC"/>
<path d="M311.407 135.631H215.592C213.788 135.629 212.057 134.911 210.781 133.635C209.505 132.359 208.787 130.628 208.785 128.824V89.8069C208.787 88.0021 209.505 86.2718 210.781 84.9956C212.057 83.7194 213.788 83.0015 215.592 82.9995H311.407C313.212 83.0015 314.943 83.7194 316.219 84.9956C317.495 86.2718 318.213 88.0021 318.215 89.8069V128.824C318.213 130.629 317.495 132.359 316.219 133.635C314.943 134.911 313.212 135.629 311.407 135.631V135.631Z" fill="#2D9CDB"/>
</g>
<defs>
<clipPath id="clip0">
<rect width="724" height="413" fill="white"/>
</clipPath>
</defs>
</svg>
